<?xml version="1.0" encoding="utf-8"?>
<!-- Generator: Adobe Illustrator 16.0.0, SVG Export Plug-In . SVG Version: 6.00 Build 0)  -->
<!DOCTYPE svg PUBLIC "-//W3C//DTD SVG 1.1//EN" "http://www.w3.org/Graphics/SVG/1.1/DTD/svg11.dtd">
<svg version="1.1" id="Layer_1" xmlns="http://www.w3.org/2000/svg" xmlns:xlink="http://www.w3.org/1999/xlink" x="0px" y="0px"
	 width="841.89px" height="595.28px" viewBox="0 0 841.89 595.28" enable-background="new 0 0 841.89 595.28" xml:space="preserve">
<g>
	<path d="M247.362,388.035c0-0.241,0-0.481,0-0.724c0.121-0.545,0.284-1.085,0.354-1.637c0.276-2.159,0.591-4.316,0.764-6.484
		c0.325-4.062,0.541-8.132,0.849-12.194c0.083-1.103,0.482-2.192,0.479-3.287c-0.008-2.565-0.506-5.175-0.185-7.687
		c0.36-2.819,0.843-5.888,2.264-8.253c3.149-5.239,7.558-9.263,13.911-10.54c0-0.69,0.098-1.308-0.016-1.883
		c-0.76-3.841-1.039-7.713-0.303-11.565c0.904-4.741,2.078-9.319,7.027-11.777c3.733-1.854,7.328-3.847,11.716-3.612
		c1.339,0.071,2.702-0.576,4.069-0.669c2.381-0.16,4.942-0.718,7.124-0.076c3.747,1.102,7.298,2.917,10.856,4.593
		c1.793,0.845,3.364,2.152,5.137,3.05c2.797,1.416,4.089,0.937,5.418-1.882c0.546-1.157,0.722-2.514,1.376-3.591
		c1.644-2.704,1.766-5.325,0.46-8.226c-1.078-2.396-1.699-4.992-2.667-7.443c-2.126-5.386-2.411-10.782-0.684-16.351
		c1.148-3.702,1.931-7.515,2.977-11.25c0.755-2.695,1.899-5.297,2.473-8.024c1.207-5.741,1.641-11.624,3.961-17.145
		c2.076-4.94,4.763-9.042,10.178-10.787c1.248-0.402,2.562-1.178,3.393-2.163c1.358-1.608,2.236-3.611,3.514-5.298
		c1.667-2.201,3.49-4.288,5.316-6.361c0.924-1.05,2.314-1.873,1.87-3.535c-0.39-1.455-0.785-3.003-1.598-4.231
		c-2.918-4.413-4.596-9.148-4.531-14.477c0.047-3.938-0.119-7.881,0.052-11.812c0.191-4.381,0.564-8.8,2.858-12.695
		c1.397-2.374,3.202-4.507,4.612-6.875c1.715-2.88,3.195-5.9,4.8-8.847c1.116-2.049,1.863-4.53,3.504-6.008
		c2.55-2.297,4.104-5.74,7.646-6.935c0.164-0.055,0.291-0.384,0.334-0.606c0.285-1.437,0.499-2.888,0.821-4.316
		c0.241-1.067,0.608-2.106,0.922-3.157c0.167-0.56,0.367-1.112,0.506-1.679c0.703-2.845,1.251-5.737,2.13-8.525
		c0.631-2.001,1.532-3.963,2.608-5.766c1.451-2.431,2.913-4.959,4.871-6.955c2.172-2.214,5.073-3.698,7.364-5.816
		c4.648-4.298,10.324-5.722,16.32-6.738c2.878-0.488,5.699,0.65,8.729-0.738c2.127-0.975,4.581-1.456,6.633-2.824
		c0.236-0.158,0.53-0.281,0.809-0.313c3.262-0.371,6.538-0.633,9.784-1.105c2.424-0.353,4.808-0.977,7.212-1.465
		c1.241-0.252,2.488-0.474,3.732-0.709c0.12,0,0.241,0,0.361,0c0.546,0.121,1.096,0.362,1.636,0.343
		c7.506-0.254,14.236,2.063,20.521,6.005c1.129,0.708,2.437,1.409,3.719,1.536c2.472,0.244,5.004-0.12,7.475,0.128
		c2.701,0.27,5.66,0.378,7.966,1.588c3.023,1.586,6.109,2.016,9.316,2.32c2.315,0.22,4.663,0.133,6.971,0.404
		c5.077,0.595,9.793,2.272,14.189,4.923c1.683,1.015,3.716,1.485,5.312,2.6c2.644,1.847,5.039,4.044,7.582,6.038
		c2.29,1.794,4.797,3.341,6.926,5.304c3.762,3.468,7.265,7.216,10.971,10.749c1.359,1.296,2.824,2.806,4.521,3.363
		c4.932,1.62,8.493,5.288,12.664,8.009c1.523,0.994,2.94,1.745,4.677,2.057c1.612,0.29,3.387,0.314,4.782,1.045
		c3.177,1.664,6.213,3.614,9.207,5.598c1.392,0.923,2.821,2.005,3.765,3.345c2.635,3.745,4.507,7.947,4.948,12.505
		c0.365,3.765,0.466,7.676-0.161,11.379c-0.515,3.042-0.096,5.886,0.077,8.823c0.218,3.699,0.675,7.422,0.446,11.1
		c-0.278,4.473-1.159,8.908-1.79,13.358c-0.145,1.026-0.176,2.103-0.527,3.059c-0.975,2.647-2.383,5.167-3.077,7.875
		c-0.961,3.75-1.491,7.616-2.068,11.454c-0.214,1.423-0.064,2.906-0.033,4.36c0.046,2.113,0.155,4.226,0.188,6.339
		c0.007,0.427-0.073,1.001-0.347,1.26c-0.823,0.779-1.761,1.436-2.658,2.143c1.214,1.707,2.48,3.499,3.761,5.281
		c0.654,0.912,1.36,1.787,1.994,2.712c0.97,1.416,2.248,2.741,2.78,4.313c2.087,6.165,1.533,12.644,1.838,19.009
		c0.13,2.721,0.049,5.506-0.394,8.186c-0.403,2.447-0.938,5.115-2.268,7.12c-3.7,5.578-8.125,10.556-13.46,14.747
		c-3.445,2.706-6.444,5.981-9.726,9.078c2.13,1.324,3.956,2.295,5.598,3.513c3.872,2.873,7.266,6.258,10.12,10.151
		c3.031,4.134,6.291,8.137,8.928,12.511c2.325,3.856,4.052,8.095,5.822,12.258c2.155,5.066,3.51,10.342,3.007,15.929
		c-0.165,1.826-0.684,3.643-0.66,5.458c0.033,2.487,0.666,4.974,0.623,7.452c-0.122,6.963,1.088,14.095-2.784,20.611
		c-1.523,2.563-2.246,5.621-3.867,8.104c-1.711,2.621-2.751,5.436-3.804,8.303c-0.546,1.484-0.934,3.15-1.887,4.338
		c-3.025,3.768-6.293,7.342-9.449,11.005c-2.097,2.434-4.059,4.993-6.279,7.307c-1.593,1.66-1.876,3.678-2.264,5.717
		c-0.782,4.11-1.409,8.24-3.581,11.959c-0.938,1.604-1.713,3.384-2.146,5.183c-0.713,2.959-1.957,5.617-3.459,8.233
		c-2.081,3.625-5.783,6.326-6.25,10.877c-0.01,0.096-0.191,0.164-0.231,0.269c-1.528,3.991-4.169,7.081-7.826,9.221
		c-3.599,2.104-7.24,4.159-10.992,5.967c-1.734,0.836-3.777,1.032-5.681,1.518c-1.447,0-2.895,0-4.341,0
		c-1.269-0.348-2.583-0.582-3.798-1.063c-5.545-2.199-10.833-4.91-15.644-8.455c-2.954-2.178-5.724-4.608-8.675-6.791
		c-1.641-1.213-3.42-2.882-5.251-3.045c-3.017-0.269-6.172,0.306-9.182,0.938c-1.876,0.395-3.508,0.382-5.22-0.375
		c-0.505-0.224-1.12-0.261-1.687-0.27c-2.27-0.034-4.544,0.052-6.81-0.05c-2.544-0.113-4.996-0.659-7.303,1.331
		c-1.755,1.513-3.991,2.506-6.098,3.563c-1.701,0.854-3.516,1.492-5.303,2.165c-1.803,0.679-3.59,1.497-5.461,1.877
		c-4.733,0.96-9.504,1.753-14.275,2.51c-1.171,0.186-2.898,0.464-3.508-0.153c-1.289-1.304-2.507-1.169-4.014-1.026
		c-0.57,0.054-1.607-0.502-1.749-0.981c-0.797-2.701-2.95-3.922-5.056-5.409c-4.381-3.095-7.598-7.386-10.691-11.676
		c-2.382-3.303-4.222-6.992-6.465-10.402c-0.667-1.015-1.756-1.969-2.867-2.432c-3.208-1.337-6.299-2.779-8.607-5.484
		c-1.279-1.5-2.868-2.438-4.776-2.918c-0.666-0.167-1.258-0.607-1.912-0.85c-1.871-0.692-3.724-1.459-5.643-1.984
		c-2.092-0.572-4.233-1.025-6.382-1.315c-2.935-0.396-5.892-0.682-8.849-0.847c-3.972-0.221-8,0.048-11.917-0.506
		c-3.874-0.547-7.662-1.776-11.441-2.867c-1.671-0.481-3.221-1.376-4.838-2.054c-2.104-0.881-4.235-1.702-6.329-2.607
		c-2.308-0.996-4.821-1.729-6.833-3.156c-5.059-3.59-10.407-6.393-16.506-7.679c-1.868-0.395-3.973-0.434-5.532-1.366
		c-3.308-1.977-6.4-4.425-8.272-7.911c-1.36-2.531-3.699-2.629-5.989-3.119c-1.775-0.381-3.636-0.644-5.254-1.396
		c-1.767-0.823-3.3-2.149-4.932-3.261c-0.147-0.101-0.306-0.214-0.397-0.36c-1.799-2.897-4.708-4.003-7.782-4.862
		c-0.52-0.146-1.15-0.313-1.471-0.69c-1.822-2.148-4.072-4.13-5.215-6.611c-1.683-3.651-2.625-7.657-3.742-11.552
		C247.674,391.292,247.603,389.64,247.362,388.035z"/>
</g>
</svg>
