<?xml version="1.0" encoding="utf-8"?>
<!-- Generator: Adobe Illustrator 16.0.0, SVG Export Plug-In . SVG Version: 6.00 Build 0)  -->
<!DOCTYPE svg PUBLIC "-//W3C//DTD SVG 1.1//EN" "http://www.w3.org/Graphics/SVG/1.1/DTD/svg11.dtd">
<svg version="1.1" id="Layer_1" xmlns="http://www.w3.org/2000/svg" xmlns:xlink="http://www.w3.org/1999/xlink" x="0px" y="0px"
	 width="841.89px" height="595.28px" viewBox="0 0 841.89 595.28" enable-background="new 0 0 841.89 595.28" xml:space="preserve">
<g>
	<path d="M436.676,197.642c1.567,0,3.135,0,4.703,0c0.064,0.094,0.121,0.262,0.196,0.271c4.283,0.543,8.481,1.463,12.36,3.39
		c2.15,1.068,4.481,1.568,6.29,3.631c4.286,4.892,6.028,10.308,5.033,16.686c-0.604,3.872-1.212,7.745-1.677,11.633
		c-0.157,1.32-0.129,2.763,0.241,4.025c0.954,3.251,2.193,6.418,3.23,9.646c0.797,2.483,1.46,5.011,2.183,7.519
		c0,0.603,0,1.206,0,1.809c-0.116,0.184-0.326,0.363-0.336,0.552c-0.145,2.809-0.237,5.62-0.394,8.427
		c-0.219,3.929-0.445,7.858-0.734,11.782c-0.446,6.073-0.928,12.144-1.438,18.211c-0.191,2.277-1.259,4.209-3.214,5.319
		c-1.031,0.584-1.181,1.183-1.114,2.116c0.237,3.35,0.56,6.695,0.698,10.05c0.188,4.554,0.224,9.114,0.351,13.671
		c0.242,8.653,0.404,17.311,0.81,25.955c0.149,3.196,0.835,6.374,1.385,9.541c0.392,2.253,1.372,4.475,1.37,6.71
		c-0.003,4.729-0.276,9.481-0.82,14.181c-0.473,4.09-2.512,7.448-6.358,9.329c-1.229,0.601-2.666,0.786-4.018,1.124
		c-5.645,1.413-11.23,2.874-17.183,2.763c-6.508-0.123-13.03,0.362-19.543,0.662c-3.141,0.145-6.28,0.408-9.408,0.741
		c-2.324,0.248-4.619,0.789-6.944,1.018c-1.681,0.165-3.395,0.104-5.086,0.008c-1.523-0.088-3.244,0.034-4.513-0.631
		c-3.137-1.643-6.084-3.655-9.059-5.594c-0.438-0.285-0.772-0.947-0.877-1.488c-0.326-1.682-0.654-3.383-0.738-5.089
		c-0.304-6.158-0.533-12.32-0.738-18.483c-0.087-2.631,0.031-5.27-0.082-7.899c-0.146-3.41-0.517-6.812-0.634-10.224
		c-0.193-5.618-0.257-11.241-0.382-16.861c-0.116-5.161-0.239-10.322-0.363-15.482c-0.025-1.05-0.063-2.099-0.106-3.147
		c-0.203-4.943-0.444-9.886-0.606-14.83c-0.149-4.545-0.179-9.094-0.324-13.639c-0.229-7.172-0.503-14.342-0.775-21.512
		c-0.1-2.63,0.131-5.344-0.446-7.869c-1.64-7.17-0.454-14.579-2.09-21.72c-0.675-2.945-1.439-5.87-2.163-8.804
		c0-1.327,0-2.653,0-3.979c0.121-0.302,0.216-0.617,0.366-0.904c0.938-1.792,1.575-3.873,2.913-5.292
		c1.74-1.845,4.917-2.161,5.717-5.145c0.014-0.051,0.082-0.087,0.124-0.129c3.369-3.312,7.718-5.05,11.755-7.283
		c0.647-0.358,1.413-0.538,2.146-0.693c1.091-0.231,2.222-0.289,3.301-0.56c2.16-0.543,4.264-1.497,6.447-1.715
		c4.636-0.464,9.274-0.977,13.963-0.928c2.509,0.026,5.024-0.559,7.537-0.869c0.12,0,0.241,0,0.361,0
		c1.694,0.178,3.387,0.468,5.083,0.496C434.272,198.158,435.475,197.82,436.676,197.642z"/>
	<path fill-rule="evenodd" clip-rule="evenodd" fill="#FFFFFF" d="M436.676,197.642c-1.201,0.178-2.403,0.516-3.601,0.496
		c-1.696-0.028-3.389-0.318-5.083-0.496C430.887,197.642,433.781,197.642,436.676,197.642z"/>
</g>
</svg>
