<?xml version="1.0" encoding="utf-8"?>
<!-- Generator: Adobe Illustrator 16.0.0, SVG Export Plug-In . SVG Version: 6.00 Build 0)  -->
<!DOCTYPE svg PUBLIC "-//W3C//DTD SVG 1.1//EN" "http://www.w3.org/Graphics/SVG/1.1/DTD/svg11.dtd">
<svg version="1.1" id="Layer_1" xmlns="http://www.w3.org/2000/svg" xmlns:xlink="http://www.w3.org/1999/xlink" x="0px" y="0px"
	 width="841.89px" height="595.28px" viewBox="0 0 841.89 595.28" enable-background="new 0 0 841.89 595.28" xml:space="preserve">
<g>
	<path d="M553.008,705.038c-0.724,0-1.447,0-2.171,0c-0.708-0.716-1.293-1.67-2.144-2.105c-4.217-2.157-8.685-1.97-13.225-1.282
		c-2.23,0.337-4.518,0.446-6.775,0.41c-1.945-0.031-3.891-0.64-5.827-0.598c-5.461,0.118-10.916,0.616-16.374,0.64
		c-8.404,0.035-16.812-0.311-25.216-0.28c-5.079,0.019-10.153,0.534-15.233,0.656c-5.02,0.12-10.045,0.018-15.067,0.037
		c-0.646,0.003-1.292,0.161-1.938,0.237c-3.416,0.401-6.845,1.211-10.247,1.116c-7.759-0.217-15.502-0.938-23.258-1.341
		c-6.427-0.334-12.863-0.527-19.296-0.737c-3.335-0.108-6.682,0.007-10.01-0.197c-5.278-0.324-10.555-0.741-15.814-1.292
		c-3.4-0.355-6.916-0.578-10.118-1.645c-5.261-1.751-10.459-1.535-15.778-0.875c-1.942,0.24-3.918,0.203-5.877,0.314
		c-1.937,0.11-3.889,0.128-5.804,0.4c-2.733,0.39-5.428,1.314-8.158,1.4c-4.775,0.149-9.578-0.431-14.345-0.201
		c-3.745,0.18-7.444,1.188-11.181,1.703c-5.358,0.737-10.799,1.026-15.87,3.189c-0.156,0.067-0.362,0.093-0.525,0.055
		c-2.116-0.489-4.278-0.847-6.327-1.539c-1.952-0.66-3.573-1.898-4.544-3.845c-0.795-1.594-1.678-3.145-2.522-4.714
		c0-0.241,0-0.482,0-0.724c0.109-0.123,0.295-0.234,0.317-0.371c0.506-3.211,0.929-6.438,1.506-9.636
		c0.511-2.833,1.567-5.616,1.718-8.456c0.356-6.712,0.405-13.445,0.412-20.17c0.005-5.908-0.262-11.817-0.326-17.727
		c-0.15-13.744-0.309-27.488-0.347-41.233c-0.02-7.084,0.241-14.17,0.315-21.256c0.054-5.087-0.004-10.175,0.013-15.262
		c0.014-4.094-0.063-8.193,0.13-12.28c0.353-7.434,0.889-14.859,1.32-22.289c0.163-2.795,0.261-5.594,0.365-8.392
		c0.25-6.736,0.486-13.473,0.727-20.209c0.015-0.422,0.022-0.844,0.021-1.266c-0.013-5.187,0.082-10.376-0.079-15.557
		c-0.113-3.661-0.683-7.306-0.838-10.967c-0.116-2.74,0.151-5.494,0.164-8.242c0.029-6.692,0.046-13.386-0.007-20.078
		c-0.024-3.141-0.363-6.283-0.299-9.42c0.07-3.464,0.618-6.92,0.645-10.382c0.087-11.516,0.028-23.032,0.045-34.549
		c0.001-0.701,0.206-1.398,0.264-2.102c0.125-1.496,0.308-2.996,0.292-4.493c-0.015-1.458-0.348-2.913-0.369-4.371
		c-0.1-7.079-0.121-14.16-0.221-21.238c-0.026-1.854-0.274-3.704-0.361-5.559c-0.25-5.306-0.629-10.611-0.656-15.919
		c-0.026-5.249,0.315-10.499,0.495-15.749c-0.21,0.107-0.42,0.215-0.63,0.322c-0.744-0.76-1.905-1.414-2.126-2.304
		c-0.283-1.141,0.06-2.502,0.37-3.708c0.361-1.407,1.37-2.734,1.418-4.121c0.324-9.187,0.448-18.381,0.672-27.571
		c0.261-10.697,0.72-21.391,0.802-32.088c0.135-17.606,0.037-35.213,0.035-52.819c0-0.602-0.018-1.205-0.048-1.806
		c-0.22-4.424-0.551-8.846-0.643-13.273c-0.109-5.268,0.038-10.54-0.022-15.81c-0.066-5.788-0.256-11.573-0.365-17.36
		c-0.132-6.988-0.261-13.977-0.341-20.965c-0.054-4.696-0.042-9.394-0.019-14.09c0.029-5.815,0.088-11.63,0.158-17.444
		c0.042-3.442,0.209-6.885,0.18-10.326c-0.054-6.456-0.261-12.911-0.311-19.368c-0.061-7.938-0.051-15.878-0.025-23.816
		c0.016-4.822,0.216-9.646,0.166-14.467c-0.129-12.415-0.369-24.829-0.517-37.245c-0.021-1.804,0.306-3.611,0.326-5.418
		c0.059-5.256-0.27-10.467-0.954-15.707c-0.649-4.973-0.361-10.068-0.475-15.11c-0.032-1.413,0.194-2.825-1.035-4.004
		c-0.407-0.391-0.397-1.339-0.379-2.027c0.037-1.423,0.323-2.845,0.303-4.264c-0.062-4.337-0.205-8.672-0.346-13.008
		c-0.086-2.64-0.34-5.279-0.32-7.917c0.045-5.826,0.181-11.652,0.363-17.475c0.037-1.175,0.349-2.37,0.72-3.495
		c0.174-0.528,0.746-1.235,1.212-1.297c1.425-0.19,2.043-1.097,2.327-2.264c0.306-1.256,0.971-1.94,2.235-2.181
		c3.506-0.668,6.98-1.573,10.512-2.015c2.426-0.303,4.939-0.124,7.394,0.079c5.606,0.464,11.224,0.899,16.792,1.67
		c7.25,1.004,14.503,0.701,21.756,0.471c10.489-0.333,20.971-0.919,31.461-1.215c4.542-0.128,9.096,0.277,13.645,0.304
		c9.136,0.055,18.272,0.032,27.408,0.001c1.479-0.005,2.961-0.358,4.434-0.311c5.488,0.175,10.974,0.64,16.459,0.635
		c5.691-0.005,11.381-0.582,17.074-0.638c10.278-0.103,20.555-0.193,30.811,0.98c3.804,0.435,7.699,0.095,11.553,0.066
		c8.126-0.059,16.256-0.027,24.377-0.27c4.24-0.126,8.462-0.794,12.698-1.144c4.435-0.366,8.871-0.789,13.314-0.919
		c4.665-0.136,9.338,0.038,14.008,0.091c2.986,0.034,5.973,0.111,8.959,0.131c1.119,0.008,2.239-0.093,3.358-0.144
		c1.345,0.422,2.24-0.29,3.037-1.358c0.241,0,0.482,0,0.724,0c1.377,0.263,1.879,1.349,2.308,2.484
		c0.228,0.604,0.412,1.225,0.584,1.847c1.558,5.647,1.85,11.453,2.062,17.257c0.283,7.766,0.446,15.537,0.694,23.305
		c0.268,8.427,0.753,16.851,0.807,25.279c0.042,6.667-0.549,13.336-0.635,20.008c-0.131,10.086-0.086,20.174-0.072,30.262
		c0.003,2.271,0.178,4.542,0.282,6.812c0.146,3.166,0.295,6.331,0.457,9.495c0.079,1.539,0.603,3.2,0.188,4.585
		c-0.581,1.943-1.867,3.67-2.816,5.508c-1.259,2.435-2.772,4.79-3.626,7.362c-0.635,1.912-0.493,4.112-0.524,6.186
		c-0.077,5.083-0.104,10.169-0.061,15.253c0.086,10.161,0.241,20.32,0.347,30.481c0.035,3.461-0.067,6.924,0.021,10.382
		c0.191,7.456,0.475,14.909,0.7,22.364c0.051,1.648-0.088,3.308,0.045,4.947c0.423,5.209,1.095,10.402,1.365,15.618
		c0.307,5.907,0.371,11.832,0.379,17.749c0.008,5.021-0.295,10.042-0.313,15.063c-0.02,5.294,0.283,10.593,0.167,15.883
		c-0.098,4.477-0.73,8.94-0.88,13.417c-0.239,7.171-0.287,14.348-0.391,21.523c-0.135,9.401-0.249,18.803-0.356,28.205
		c-0.01,0.812,0.167,1.626,0.149,2.438c-0.26,11.995-0.647,23.988-0.764,35.984c-0.057,5.88,0.493,11.764,0.575,17.648
		c0.108,7.834,0.029,15.672,0.029,23.508c0,0.301,0.006,0.604-0.02,0.903c-0.473,5.612-1.332,11.224-1.347,16.837
		c-0.028,11.278,0.479,22.556,0.619,33.836c0.117,9.472,0.013,18.946,0.032,28.419c0.006,2.861,0.142,5.723,0.14,8.584
		c-0.006,8.881,0.011,17.763-0.104,26.643c-0.053,4.004,0.333,7.938,0.893,11.892c0.38,2.682,0.23,5.435,0.373,8.153
		c0.118,2.242,0.451,4.48,0.45,6.721c-0.001,3.65-0.3,7.301-0.286,10.95c0.018,4.851,0.246,9.7,0.329,14.552
		c0.146,8.413,0.267,16.826,0.358,25.24c0.029,2.69-0.146,5.385-0.094,8.074c0.201,10.434,0.607,20.865,0.646,31.298
		c0.032,8.589-0.407,17.178-0.514,25.769c-0.047,3.804,0.261,7.61,0.322,11.418c0.09,5.599,0.094,11.198,0.15,16.799
		c0.064,6.375,0.274,12.752,0.189,19.125c-0.112,8.431-0.478,16.858-0.677,25.288c-0.081,3.412,0.133,6.836-0.056,10.24
		c-0.183,3.292-0.707,6.565-1.095,9.847c-0.02,0.161-0.177,0.303-0.253,0.462c-1.7,3.513-3.4,7.049-6.31,9.746
		c-0.645,0.597-1.864,0.977-2.732,0.851C556.523,702.805,554.624,703.376,553.008,705.038z"/>
</g>
</svg>
