<?xml version="1.0" encoding="utf-8"?>
<!-- Generator: Adobe Illustrator 16.0.0, SVG Export Plug-In . SVG Version: 6.00 Build 0)  -->
<!DOCTYPE svg PUBLIC "-//W3C//DTD SVG 1.1//EN" "http://www.w3.org/Graphics/SVG/1.1/DTD/svg11.dtd">
<svg version="1.1" id="Layer_1" xmlns="http://www.w3.org/2000/svg" xmlns:xlink="http://www.w3.org/1999/xlink" x="0px" y="0px"
	 width="841.89px" height="595.28px" viewBox="0 0 841.89 595.28" enable-background="new 0 0 841.89 595.28" xml:space="preserve">
<g>
	<path d="M969.679-383.183c0,2.171,0,4.342,0,6.512c-0.521,1.931-0.866,3.933-1.604,5.776c-1.289,3.219-2.34,6.711-4.404,9.385
		c-1.632,2.114-4.603,3.224-7.049,4.658c-0.527,0.309-1.41,0.282-2.039,0.099c-1.952-0.566-3.832-1.392-5.794-1.915
		c-3.411-0.909-5.587-3.231-7.264-6.113c-0.903-1.552-1.567-3.243-2.352-4.865c-0.548-1.134-1.247-1.853-2.707-1.979
		c-9.089-0.783-9.502-0.646-15.244,6.547c-0.15,0.188-0.322,0.362-0.456,0.561c-2.072,3.085-4.865,4.977-8.336,6.523
		c-5.871,2.616-6.329,3.784-6.346,9.142c-0.053,16.115,0.51,32.246-1.569,48.312c-0.676,5.217-0.451,10.548-0.708,15.823
		c-0.394,8.04-0.966,16.072-1.242,24.115c-0.252,7.344-0.328,14.699-0.28,22.047c0.158,24.102,0.397,48.204,0.625,72.305
		c0.256,27.091,0.64,54.183,0.771,81.275c0.136,28.063,0.065,56.127,0.024,84.191c-0.022,15.62-0.169,31.239-0.259,46.859
		c-0.072,12.513-0.23,25.025-0.188,37.537c0.042,12.376,0.355,24.751,0.43,37.127c0.135,22.778,0.196,45.556,0.259,68.334
		c0.034,12.163-0.029,24.326,0.032,36.489c0.015,2.876,0.321,5.753,0.55,8.625c0.152,1.913,0.595,3.82,0.576,5.727
		c-0.067,6.979-0.518,13.962-0.367,20.934c0.194,9.021,0.504,18.03-0.273,27.038c-0.093,1.077,0.089,2.215-0.191,3.233
		c-1.119,4.063-0.286,8.111,0.139,12.113c0.48,4.523,1.688,8.943,1.464,13.577c-0.213,4.42-0.049,8.858-0.04,13.289
		c0.007,3.849,0.164,7.703,0.008,11.545c-0.167,4.067-0.867,8.119-0.906,12.183c-0.08,8.189,0.159,16.381,0.215,24.571
		c0.093,13.831-0.061,27.662,0.926,41.478c0.291,4.058-0.185,8.165-0.18,12.249c0.013,11.441-0.023,22.886,0.185,34.324
		c0.157,8.645-0.708,17.31,0.638,25.94c0.346,2.223-0.009,4.564-0.126,6.847c-0.203,3.96-0.706,7.917-0.677,11.873
		c0.357,47.358-0.904,94.727,0.72,142.08c0.156,4.546-0.504,9.114-0.482,13.67c0.083,17.353,0.378,34.705,0.42,52.059
		c0.03,12.749-0.238,25.499-0.312,38.249c-0.017,2.871,0.324,5.743,0.327,8.615c0.025,27.923,0.015,55.845,0.014,83.768
		c0,14.58,0.019,29.161-0.012,43.741c-0.006,3.148,0.028,6.243,1.236,9.246c0.433,1.074,0.451,2.365,0.444,3.557
		c-0.026,5.181-0.198,10.361-0.189,15.541c0.01,5.139,0.023,10.284,0.316,15.41c0.232,4.066,0.881,8.11,1.361,12.162
		c0.316,2.679,1.543,4.121,4.11,4.654c3.156,0.657,5.865,2.037,8.022,4.474c1.117,1.263,2.191,2.608,3.5,3.646
		c2.043,1.618,4.088,3.703,6.461,4.318c3.064,0.794,6.453,0.367,9.703,0.404c1.905,0.021,2.833-1.015,2.923-2.914
		c0.232-4.94,3.3-7.451,7.642-8.895c1.595-0.529,3.18-1.12,4.701-1.828c3.496-1.625,4.826-1.347,7.749,1.252
		c2.583,2.297,4.293,5.035,5.108,8.366c0,4.823,0,9.647,0,14.472c-0.19,0.544-0.511,1.08-0.55,1.635
		c-0.482,6.787-3.454,12.149-9.058,16.039c-0.592,0.41-1.163,0.858-1.699,1.339c-2.589,2.316-5.703,3.145-9.044,2.831
		c-5.401-0.508-10.745-1.241-15.101-5.064c-2.05-1.799-4.676-2.454-7.375-2.578c-4.089-0.188-8.181-0.3-12.271-0.432
		c-1.813-0.058-3.489,0.109-5.187,1.101c-1.366,0.798-3.159,1.15-4.773,1.187c-7.793,0.171-15.591,0.227-23.387,0.214
		c-15.628-0.024-31.257-0.157-46.885-0.168c-7.928-0.005-15.854,0.222-23.782,0.233c-44.001,0.065-88.003,0.084-132.005,0.146
		c-18.65,0.025-37.302,0.085-55.952,0.188c-16.028,0.089-32.057,0.308-48.085,0.389c-26.28,0.134-52.562,0.211-78.843,0.294
		c-16.509,0.052-33.019,0.072-49.527,0.101c-5.508,0.01-11.016,0.002-16.376,0.002c-0.399-0.942-0.653-1.541-0.932-2.197
		c-0.919,0.541-1.683,0.992-2.553,1.504c-0.468-0.828-0.811-1.435-1.283-2.272c-6.735,0-13.598,0-20.461,0
		c-16.756-0.001-33.513-0.003-50.269-0.003c-20.446,0-40.892,0.002-61.338,0.002c-33.109,0.001-66.218-0.052-99.326,0.014
		c-40.616,0.081-81.23,0.259-121.846,0.398c-22.787,0.078-45.574,0.193-68.36,0.231c-8.544,0.014-17.088-0.211-25.631-0.212
		c-10.709-0.001-21.418,0.129-32.127,0.18c-10.006,0.047-20.013,0.062-30.02,0.097c-4.078,0.014-7.551-1.344-10.187-4.532
		c-2.513-3.041-5.061-6.06-7.431-9.21c-1.067-1.417-2.215-2.377-3.944-2.896c-2.635-0.791-4.776-2.488-5.912-4.991
		c-1.279-2.819-2.466-5.743-3.175-8.744c-1.22-5.159-1.695-10.417-0.571-15.706c1.125-5.29,3.008-9.873,9.013-11.362
		c1.841-0.456,3.508-1.575,5.298-2.279c1.616-0.635,3.292-1.117,5.146-1.734c0.024-0.513,0.049-1.223,0.091-1.933
		c0.574-9.817,0.071-19.67,2.035-29.447c1.125-5.6,1.009-11.467,1.235-17.223c0.198-5.057,0.042-10.125,0.135-15.188
		c0.197-10.694,0.521-21.387,0.666-32.082c0.111-8.146-0.003-16.296,0.035-24.444c0.051-10.965,0.204-21.93,0.223-32.895
		c0.037-21.414,0.013-42.828,0.013-64.242c0-22.43-0.042-44.859,0.029-67.288c0.018-5.647,0.463-11.291,0.594-16.939
		c0.114-4.93,0.151-9.864,0.06-14.794c-0.093-5.018-0.543-10.031-0.55-15.046c-0.01-7.89,0.283-15.777,0.335-23.667
		c0.112-17.111,0.184-34.224,0.21-51.335c0.012-7.472-0.198-14.943-0.168-22.415c0.015-3.832,0.535-7.667,0.467-11.494
		c-0.085-4.78-0.707-9.551-0.8-14.331c-0.173-8.856-0.163-17.716-0.169-26.573c-0.008-10.174,0.048-20.347,0.08-30.521
		c0.012-3.814,0.004-7.63,0.053-11.444c0.095-7.41,0.243-14.819,0.332-22.229c0.099-8.303,0.205-16.605,0.211-24.908
		c0.003-4.782,0.467-9.638-1.794-14.163c-0.352-0.704-0.261-1.639-0.338-2.469c-0.444-4.783-0.807-9.575-1.334-14.349
		c-0.486-4.4-1.002-8.806-1.774-13.161c-0.645-3.641-0.21-7.481-2.063-10.926c-0.418-0.778-0.288-1.893-0.282-2.851
		c0.016-2.65,0.114-5.301,0.145-7.951c0.01-0.828,0.221-2.132-0.195-2.406c-2.529-1.666-1.565-3.988-1.452-6.18
		c0.397-7.69,0.936-15.377,1.125-23.073c0.194-7.945-0.05-15.9,0.071-23.848c0.105-6.86,0.569-13.716,0.667-20.576
		c0.125-8.773,0.133-17.551,0.015-26.324c-0.079-5.889-0.56-11.771-0.687-17.66c-0.175-8.065-0.004-16.142-0.305-24.201
		c-0.528-14.132,2.33-28.032,2.604-42.11c0.223-11.424,1.169-22.839,1.218-34.261c0.068-15.9-0.471-31.801-0.625-47.704
		c-0.171-17.565-0.09-35.12-1.34-52.676c-0.889-12.479-0.607-25.04-0.855-37.564c-0.023-1.204-0.119-2.406-0.149-3.609
		c-0.354-14.191-0.867-28.38-0.998-42.573c-0.103-11.188,0.378-22.38,0.385-33.57c0.003-6.109-0.637-12.22-0.627-18.329
		c0.011-6.859,0.646-13.718,0.619-20.575c-0.039-9.873-0.52-19.743-0.653-29.616c-0.287-21.317-0.553-42.635-0.665-63.954
		c-0.052-9.786-0.44-19.476-3.727-28.83c-0.392-1.116-0.533-2.367-0.55-3.559c-0.121-8.521-0.074-17.045-0.309-25.562
		c-0.095-3.454-0.65-6.91-1.199-10.333c-0.456-2.844-0.853-3.008-3.907-2.794c-1.917,0.135-3.841,0.43-5.751,0.358
		c-5.942-0.222-8.469-2.2-9.495-8.179c-0.333-1.938-1.338-3.761-2.035-5.636c0-1.929,0-3.859,0-5.789
		c1.642-0.176,1.811-1.747,1.883-2.701c0.163-2.126,1.139-3.577,2.613-4.929c0.695-0.639,1.242-1.472,1.74-2.288
		c2.108-3.456,4.172-6.938,6.147-10.236c1.158-0.113,1.875-0.234,2.592-0.244c3.347-0.043,6.304-0.939,8.966-3.151
		c1.22-1.014,2.997-1.623,4.602-1.854c4.019-0.581,8.078-1.037,12.133-1.182c5.637-0.202,11.285-0.12,16.928-0.072
		c6.015,0.052,12.029,0.31,18.043,0.269c2.87-0.02,5.732-0.724,8.604-0.769c11.43-0.181,22.862-0.212,34.294-0.321
		c8.306-0.079,16.611-0.181,24.916-0.291c8.767-0.117,17.533-0.282,26.299-0.378c13.131-0.144,26.262-0.244,39.394-0.368
		c12.883-0.122,25.766-0.222,38.647-0.382c18.046-0.225,36.091-0.523,54.138-0.739c14.077-0.168,28.157-0.208,42.233-0.4
		c9.388-0.128,18.774-0.444,28.162-0.639c16.481-0.342,32.963-0.682,49.446-0.973c17.216-0.304,34.433-0.58,51.65-0.811
		c13.253-0.179,26.507-0.251,39.761-0.411c2.627-0.032,5.279-0.171,7.065-2.585c1.206,0,2.412,0,3.618,0
		c0.901,2.787,3.298,2.863,5.557,2.882c5.411,0.044,10.824-0.083,16.236-0.108c6.233-0.029,12.501-0.948,18.675,0.691
		c0.34,0.09,0.717,0.056,1.076,0.056c10.101,0.01,20.202,0.049,30.302,0.018c15.269-0.046,30.539,0.003,45.803-0.287
		c6.197-0.118,12.51,1.343,18.606-0.951c0.197-0.074,0.501-0.021,0.696,0.082c2.946,1.567,6.14,0.876,9.212,0.9
		c16.855,0.135,33.713,0.216,50.569,0.168c9.979-0.028,19.957-0.478,29.936-0.465c8.67,0.011,17.34,0.565,26.01,0.596
		c12.778,0.045,25.557-0.136,38.335-0.272c4.45-0.047,8.969,0.199,13.335-0.473c8.417-1.297,16.754-1.245,25.158-0.145
		c3.21,0.419,6.471,0.552,9.712,0.606c6.257,0.105,12.517,0.098,18.774,0.074c8.436-0.032,16.871-0.139,25.307-0.185
		c7.464-0.04,14.931-0.131,22.394-0.025c4.568,0.064,9.122,0.376,13.643-0.61c2.939-0.641,5.899-1.201,8.863-1.722
		c1.972-0.346,3.968-0.56,5.952-0.832c3.136,0,6.271,0,9.407,0c2.683,0.479,5.351,1.074,8.05,1.413
		c8.342,1.049,16.676,2.435,25.129,1.131c0.445-0.069,0.927,0.125,1.395,0.172c2.128,0.215,4.252,0.526,6.386,0.613
		c7.414,0.303,14.927-0.78,22.188,1.653c0.552,0.185,1.194,0.137,1.795,0.137c5.055-0.007,10.114,0.083,15.165-0.069
		c9.847-0.296,19.688-0.607,29.517,0.381c0.952,0.096,1.957,0.167,2.879-0.028c4.231-0.891,7.181,1.132,9.665,4.164
		C964.821-389.384,967.23-386.268,969.679-383.183z"/>
</g>
</svg>
