<?xml version="1.0" encoding="utf-8"?>
<!-- Generator: Adobe Illustrator 16.0.0, SVG Export Plug-In . SVG Version: 6.00 Build 0)  -->
<!DOCTYPE svg PUBLIC "-//W3C//DTD SVG 1.1//EN" "http://www.w3.org/Graphics/SVG/1.1/DTD/svg11.dtd">
<svg version="1.1" id="Layer_1" xmlns="http://www.w3.org/2000/svg" xmlns:xlink="http://www.w3.org/1999/xlink" x="0px" y="0px"
	 width="841.89px" height="595.28px" viewBox="0 0 841.89 595.28" enable-background="new 0 0 841.89 595.28" xml:space="preserve">
<g>
	<path d="M563.008,550.157c0,4.342,0,8.683,0,13.024c-0.121,0.606-0.318,1.208-0.35,1.818c-0.206,3.987-0.322,7.98-0.571,11.966
		c-0.372,5.979-0.748,11.962-1.284,17.929c-0.283,3.156-0.693,6.333-1.43,9.409c-1.011,4.225-2.415,8.354-3.598,12.539
		c-1.516,5.36-2.578,10.802-4.849,16.002c-2.578,5.901-6.649,10.428-11.581,14.023c-5.458,3.979-11.5,7.36-18.591,7.392
		c-3.633,0.016-7.294-0.462-10.891-1.039c-1.784-0.287-3.415-1.421-5.183-1.946c-1.119-0.333-2.376-0.173-3.548-0.37
		c-2.957-0.499-5.882-1.37-8.854-1.565c-9.534-0.627-19.079-1.137-28.628-1.456c-6.505-0.218-13.022-0.045-19.534-0.039
		c-1.417,0.001-2.837-0.032-4.249,0.062c-4.695,0.313-9.384,0.864-14.083,0.97c-4.903,0.11-9.815-0.23-14.725-0.298
		c-4.28-0.059-8.564-0.104-12.842,0.017c-3.398,0.097-6.787,0.506-10.185,0.682c-3.971,0.207-7.949,0.283-11.921,0.471
		c-2.5,0.118-5.43-1.244-7.104,1.938c-0.024,0.046-0.097,0.069-0.149,0.099c-2.917,1.575-5.749,3.347-8.778,4.665
		c-2.504,1.09-5.2,2.042-7.886,2.314c-2.271,0.231-4.697-0.413-6.97-0.998c-5.104-1.314-10.023-3.089-14.101-6.65
		c-3.228-2.82-7.038-4.802-9.821-8.343c-3.941-5.014-6.88-10.521-9.795-16.098c-0.894-1.71-2.069-3.306-2.734-5.096
		c-1.653-4.455-3.105-8.985-4.598-13.499c-0.497-1.502-0.979-3.024-1.276-4.575c-0.694-3.617-2.093-7.068-2.176-10.844
		c-0.054-2.46-0.909-4.894-1.06-7.359c-0.271-4.458-0.198-8.936-0.434-13.396c-0.162-3.063-0.554-6.119-0.929-9.168
		c-0.608-4.936-1.33-9.858-1.917-14.796c-0.26-2.19-0.371-4.403-0.442-6.609c-0.127-3.956-0.156-7.916-0.26-11.873
		c-0.041-1.566-0.135-3.133-0.269-4.693c-0.255-2.984-0.664-5.96-0.813-8.949c-0.209-4.168,0.317-8.456-0.494-12.487
		c-0.893-4.439-3.025-8.619-4.463-12.964c-1.026-3.1-2.001-6.244-2.629-9.441c-0.665-3.384-0.523-6.829-1.717-10.238
		c-1.162-3.319-1.175-7.056-1.578-10.622c-0.394-3.48-0.082-7.204-1.983-10.236c-1.224-1.952-0.654-3.627-0.484-5.437
		c0.399-4.242,0.959-8.471,1.336-12.715c0.161-1.808-0.031-3.643,0.038-5.462c0.212-5.621,0.373-11.247,0.753-16.857
		c0.221-3.263,0.811-6.502,1.256-9.749c0.306-2.232,1.415-4.346,0.787-6.723c-0.36-1.36-0.547-2.791-0.608-4.199
		c-0.098-2.263,0.038-4.535-0.041-6.8c-0.131-3.759-0.387-7.514-0.527-11.272c-0.111-2.991-0.233-5.989-0.158-8.979
		c0.082-3.293,0.338-6.585,0.605-9.87c0.167-2.057,0.701-4.101,0.703-6.15c0.004-2.651-0.54-5.305-0.516-7.955
		c0.03-3.233,0.463-6.461,0.611-9.697c0.103-2.265-0.082-4.544,0.038-6.808c0.436-8.229,0.855-16.46,1.455-24.677
		c0.456-6.248,0.969-12.504,1.844-18.702c0.706-5,1.982-9.92,3.02-14.874c0.676-3.228,1.51-6.429,2.025-9.681
		c0.343-2.164,0.211-4.4,0.356-6.599c0.455-6.896,0.973-13.789,1.383-20.688c0.081-1.351-0.188-2.727-0.337-4.087
		c-0.343-3.13-0.565-6.283-1.101-9.381c-0.903-5.228-2.38-10.268-4.8-15.063c-2.194-4.349-4.053-8.88-5.839-13.417
		c-1.956-4.966-2.991-10.176-3.461-15.498c-0.182-2.062-0.472-4.113-0.713-6.169c0-2.895,0-5.789,0-8.683
		c0.596-2.911,1.224-5.815,1.783-8.733c1.239-6.459,4.139-12.254,7.34-17.884c3.325-5.848,7.733-10.882,12.776-15.313
		c3.135-2.756,6.376-5.414,9.747-7.873c3.855-2.812,7.991-5.237,11.851-8.042c4.736-3.442,9.362-7.042,13.919-10.719
		c1.009-0.814,1.855-2.148,2.183-3.398c0.312-1.184-0.294-2.577-0.254-3.87c0.123-3.92,0.035-7.89,0.651-11.741
		c0.624-3.9,1.759-7.583,1.273-11.729c-0.816-6.956-0.947-14.001-1.17-21.015c-0.114-3.584,0.097-7.189,0.343-10.773
		c0.328-4.783,1.205-9.447,2.986-13.959c2.026-5.13,5.338-9.248,9.574-12.583c1.475-1.162,1.812-2.353,1.436-3.822
		c-0.843-3.293-1.718-6.597-2.887-9.783c-1.523-4.154-0.896-8.437,0.724-11.975c2.875-6.276,7.174-11.624,13.99-14.482
		c2.776-1.165,5.217-2.956,7.218-5.618c3.404-4.53,7.841-8.312,13.512-9.627c5.217-1.21,10.627-1.593,15.954-2.323
		c1.947-0.268,3.9-0.487,5.85-0.728c1.93,0,3.859,0,5.789,0c1.224,0.312,2.451,0.614,3.671,0.938
		c4.836,1.283,8.771,3.989,12.024,7.722c1.028,1.18,2.041,1.87,3.698,1.154c0.823-0.355,1.828-0.376,2.753-0.391
		c5.572-0.092,8.958,3.471,11.293,7.736c3.584,6.544,4.348,13.669,2.479,20.993c-0.49,1.923-0.859,3.877-1.271,5.764
		c4.229,1.936,7.329,4.848,10.129,8.217c2.722,3.277,4.044,7.119,5.308,11.073c1.519,4.755,2.781,9.506,2.781,14.562
		c0,2.99,0.478,5.978,0.665,8.971c0.393,6.281,0.654,12.571,1.137,18.844c0.221,2.884,0.193,5.712,1.565,8.578
		c3.363,7.03,3.487,14.579,1.935,22.122c-0.268,1.302-0.061,1.828,1.001,2.378c2.915,1.511,5.849,2.999,8.68,4.658
		c3.763,2.205,7.436,4.563,11.146,6.855c2.601,1.605,5.229,3.168,7.797,4.824c3.42,2.205,6.771,4.516,10.193,6.716
		c2.231,1.435,4.672,2.575,6.78,4.163c4.406,3.32,8.433,7.068,11.876,11.422c2.137,2.703,4.691,5.111,6.59,7.963
		c4.937,7.417,7.271,15.725,7.899,24.595c0.416,5.862-0.284,11.642-1.452,17.292c-1.438,6.959-3.405,13.831-5.527,20.621
		c-1.593,5.093-4.364,9.815-4.692,15.304c-0.106,1.768-0.487,3.555-0.33,5.295c0.215,2.39,0.842,4.741,1.258,7.115
		c0.53,3.023,1.04,6.05,1.531,9.079c0.71,4.371,1.439,8.74,2.075,13.122c0.357,2.466,0.519,4.961,0.812,7.438
		c0.438,3.706,0.916,7.407,1.376,11.11c0.335,2.704,0.648,5.411,1.006,8.112c0.366,2.757,0.795,5.506,1.16,8.264
		c0.527,3.99,0.898,8.006,1.559,11.973c1.074,6.459,2.449,12.868,3.471,19.334c0.901,5.71,1.336,11.493,2.267,17.197
		c0.857,5.258,0.841,10.477,0.34,15.742c-0.092,0.961,0.043,2.026,0.379,2.931c1.845,4.969,1.954,10.201,2.483,15.372
		c0.242,2.361,0.316,4.757,0.792,7.07c0.634,3.09,0.317,6.119,0.059,9.187c-0.087,1.033,0.04,2.118,0.263,3.137
		c0.789,3.613,1.791,7.184,2.461,10.817c0.502,2.722,0.564,5.521,0.918,8.275c0.508,3.953,1.089,7.897,1.664,11.843
		c0.341,2.336,0.795,4.658,1.076,7.001c0.207,1.726,0.219,3.474,0.313,5.213c0.068,1.263-0.008,2.551,0.22,3.784
		c0.598,3.236,1.638,6.42,1.93,9.677c0.467,5.196,0.536,10.433,0.653,15.655c0.121,5.422,0.237,10.852,0.084,16.271
		c-0.075,2.663-0.774,5.307-1.164,7.963c-0.073,0.5-0.073,1.025-0.015,1.528c0.398,3.413,0.986,6.813,1.191,10.237
		c0.208,3.484,0.045,6.99,0.045,10.487c0,5.014-0.188,10.036,0.057,15.038c0.218,4.444,0.173,8.845-0.412,13.249
		c-0.14,1.05-0.35,2.118-0.283,3.162c0.102,1.578,0.426,3.142,0.637,4.715c0.253,1.892,0.484,3.788,0.727,5.682
		c0,1.93,0,3.859,0,5.789c-0.121,0.424-0.342,0.848-0.346,1.273c-0.031,3.01-0.031,6.021,0,9.03
		C562.666,549.31,562.887,549.732,563.008,550.157z"/>
	<path fill-rule="evenodd" clip-rule="evenodd" fill="#FFFFFF" d="M563.008,550.157c-0.121-0.425-0.342-0.848-0.346-1.273
		c-0.031-3.01-0.031-6.021,0-9.03c0.004-0.426,0.225-0.85,0.346-1.273C563.008,542.439,563.008,546.298,563.008,550.157z"/>
</g>
</svg>
