<?xml version="1.0" encoding="utf-8"?>
<!-- Generator: Adobe Illustrator 16.0.0, SVG Export Plug-In . SVG Version: 6.00 Build 0)  -->
<!DOCTYPE svg PUBLIC "-//W3C//DTD SVG 1.1//EN" "http://www.w3.org/Graphics/SVG/1.1/DTD/svg11.dtd">
<svg version="1.1" id="Layer_1" xmlns="http://www.w3.org/2000/svg" xmlns:xlink="http://www.w3.org/1999/xlink" x="0px" y="0px"
	 width="1683.78px" height="2466.14px" viewBox="0 0 1683.78 2466.14" enable-background="new 0 0 1683.78 2466.14"
	 xml:space="preserve">
<g>
	<g>
		<path d="M723.732,1380.276c-0.121,0-0.241,0-0.362,0c-1.688-0.725-3.345-1.534-5.069-2.154c-2.97-1.068-6.056-1.845-8.953-3.073
			c-2.452-1.04-4.827-2.373-7.01-3.899c-1.831-1.28-3.902-2.549-4.293-5.139c-0.149-0.985-0.402-1.958-0.653-2.925
			c-1.227-4.74-1.501-9.683,0.202-14.143c1.721-4.507,4.503-8.66,7.166-12.743c2.94-4.509,6.442-8.652,9.357-13.176
			c1.289-2.001,2.852-3.805,4.028-5.836c2.009-3.469,3.892-7.088,1.61-11.229c-0.311-0.564-0.696-1.099-0.921-1.694
			c-2.14-5.657-5.838-10.068-10.712-13.572c-5.802-4.173-10.317-9.462-13.388-15.918c-1.611-3.388-3.039-6.864-4.479-10.331
			c-0.238-0.572-0.229-1.312-0.138-1.946c0.641-4.494,1.334-8.98,1.985-13.303c-0.188,0.05-0.726,0.192-1.301,0.345
			c-0.5-0.835-0.969-1.619-1.438-2.402c0-0.121,0-0.242,0-0.362c1.58-1.034,3.058-2.305,4.767-3.036
			c1.735-0.742,3.708-0.918,5.56-1.402c4.829-1.263,9.603-2.789,14.488-3.766c3.731-0.746,7.591-0.935,11.407-1.143
			c3.428-0.188,6.875,0.021,10.308-0.12c1.192-0.049,2.412-0.508,3.533-0.981c3.195-1.35,5.88-3.305,8.251-5.958
			c4.195-4.694,9.308-8.314,14.827-11.39c3.57-1.99,7.053-4.236,9.624-7.486c1.046-1.323,1.821-3.033,2.173-4.684
			c0.369-1.73,0.161-3.604,0.066-5.408c-0.194-3.715-2.118-6.013-5.16-6.364c-4.047-0.466-8.086-1.006-12.138-1.43
			c-6.174-0.646-12.175-1.924-18.035-4.05c-4.339-1.574-8.605-3.188-12.505-5.717c-1.749-1.135-3.672-2.039-5.6-2.849
			c-1.728-0.726-3.311-1.649-3.583-3.551c-0.289-2.017-0.101-4.104-0.105-6.16c0-0.161,0.079-0.365,0.192-0.478
			c2.532-2.51,4.97-5.217,8.989-5.06c1.426,0.056,2.849,0.213,4.27,0.354c3.164,0.316,5.716-1.586,8.581-2.354
			c1.273-0.342,2.513-1.188,3.757-1.167c1.637,0.026,3.332-0.155,4.801,1.5c1.678,1.89,4.071,2.529,6.864,2.396
			c5.796-0.274,11.666-0.478,17.415,0.135c5.268,0.561,10.511,0.923,15.782,0.863c6.131-0.07,12.112-1.367,18.064-2.716
			c2.057-0.466,4.08-1.104,6.089-1.753c2.947-0.95,6.003-1.707,8.752-3.07c1.91-0.946,3.425-2.729,5.029-4.233
			c0.587-0.551,1.163-1.327,1.312-2.084c0.223-1.132,0.193-2.356,0.038-3.509c-0.263-1.948,0.661-3.352,1.771-4.757
			c2.187-2.769,4.393-5.526,6.455-8.385c0.527-0.731,1.357-1.61,0.327-2.872c-0.405-0.496,0.006-1.937,0.415-2.765
			c1.242-2.518,3.037-4.817,3.938-7.435c1.737-5.046,2.992-10.257,4.476-15.392c2.312-7.991,6.153-14.859,14.107-18.52
			c2.833-1.304,5.796-2.327,8.698-3.479c1.086,0,2.171,0,3.257,0c0.425,0.121,0.852,0.352,1.273,0.344
			c4.918-0.089,9.325,1.113,13.54,3.901c5.719,3.783,9.265,8.561,9.302,15.561c0.014,2.683-0.334,5.376-0.198,8.048
			c0.313,6.158,1.034,12.301,1.187,18.46c0.128,5.165-0.107,10.363-0.595,15.507c-0.23,2.435-1.241,4.86-2.256,7.13
			c-0.57,1.276-1.811,2.29-2.861,3.306c-0.757,0.732-1.62,1.468-2.577,1.857c-1.621,0.66-3.382,0.969-5.034,1.565
			c-5.516,1.988-10.918,4.355-16.538,5.966c-4.659,1.334-9.569,1.79-14.361,2.665c-1.083,0.198-2.471,0.182-3.156,0.845
			c-2.596,2.512-5.195,5.086-7.352,7.968c-2.665,3.562-4.977,7.4-7.281,11.216c-3.191,5.284-4.157,11.242-4.654,17.255
			c-0.254,3.08-0.044,6.199-0.044,9.3c-0.001,4.534,1.334,8.59,4.852,11.56c4.035,3.407,8.262,6.588,12.429,9.837
			c4.773,3.722,10.303,4.69,16.179,4.369c4.654-0.255,9.312-0.452,13.964-0.749c1.529-0.098,3.043-0.436,4.566-0.646
			c1.931-0.265,3.86-0.55,5.798-0.752c1.373-0.144,2.812,0.046,4.126-0.288c2.057-0.523,4.46-0.323,5.913-2.381
			c1.547,0.641,2.764-0.543,3.844-1.092c4.448-2.26,8.924-4.579,12.993-7.44c5.391-3.79,10.371-8.157,15.607-12.173
			c2.29-1.756,4.706-3.375,7.188-4.849c6.365-3.78,13.793-4.758,20.547-7.549c0.845-0.349,2.158,0.359,3.232,0.657
			c2.128,0.59,4.343,1.014,6.328,1.928c1.652,0.76,2.995,2.171,4.534,3.206c3.526,2.369,7.126,4.631,10.617,7.048
			c1.335,0.924,2.674,1.998,3.615,3.291c0.979,1.344,1.242,3.213,2.236,4.539c2.678,3.575,3.423,7.654,3.704,11.933
			c0.228,3.46,0.209,6.892,2.587,9.923c1.864,2.379,1.412,5.516,1.127,8.33c-0.332,3.274-3.208,4.517-5.739,5.658
			c-6.285,2.834-12.581,5.689-19.046,8.062c-4.226,1.551-8.732,2.377-13.154,3.336c-3.38,0.733-6.831,1.133-10.238,1.746
			c-2.547,0.459-5.104,0.91-7.598,1.581c-1.84,0.495-3.731,1.098-5.34,2.079c-3.36,2.051-6.527,4.415-9.812,6.593
			c-2.762,1.831-5.57,3.591-8.369,5.363c-4.027,2.549-8.001,5.188-12.113,7.593c-4.616,2.699-9.353,5.194-14.053,7.75
			c-5.717,3.11-11.458,6.176-17.173,9.289c-4.134,2.251-8.261,4.516-12.356,6.836c-5.402,3.061-10.77,6.186-16.156,9.275
			c-5.861,3.362-12.355,4.383-18.932,4.832c-5.176,0.354-10.382,0.232-15.57,0.442c-1.62,0.065-3.353,0.235-4.792,0.89
			c-1.099,0.5-1.903,1.773-2.686,2.818c-3.171,4.238-5.477,9.179-10.217,12.122c-2.102,1.304-3.971,2.998-6.116,4.215
			c-4.286,2.431-8.808,4.458-13.012,7.016c-4.355,2.649-8.097,6.232-12.823,8.378c-2.73,1.238-5.229,2.977-7.917,4.32
			c-1.327,0.664-2.832,1.28-4.279,1.337c-4.798,0.19-9.607,0.114-14.412,0.146c-1.626,0.011-3.623-0.543-4.785,0.201
			C726.831,1378.923,725.469,1379.904,723.732,1380.276z"/>
		<path fill-rule="evenodd" clip-rule="evenodd" fill="#FFFFFF" d="M723.732,1380.276c1.737-0.372,3.099-1.354,4.579-2.301
			c1.162-0.744,3.159-0.19,4.785-0.201c4.804-0.031,9.613,0.045,14.412-0.146c1.447-0.057,2.952-0.673,4.279-1.337
			c2.688-1.344,5.187-3.082,7.917-4.32c4.726-2.146,8.468-5.729,12.823-8.378c4.204-2.558,8.726-4.585,13.012-7.016
			c2.145-1.217,4.014-2.911,6.116-4.215c4.74-2.943,7.046-7.884,10.217-12.122c0.782-1.045,1.587-2.318,2.686-2.818
			c1.439-0.654,3.172-0.824,4.792-0.89c5.188-0.21,10.394-0.089,15.57-0.442c6.577-0.449,13.071-1.47,18.932-4.832
			c5.387-3.09,10.754-6.215,16.156-9.275c4.096-2.32,8.223-4.585,12.356-6.836c5.715-3.113,11.456-6.179,17.173-9.289
			c4.7-2.556,9.437-5.051,14.053-7.75c4.112-2.404,8.086-5.044,12.113-7.593c2.799-1.772,5.607-3.532,8.369-5.363
			c3.285-2.178,6.452-4.542,9.812-6.593c1.608-0.981,3.5-1.584,5.34-2.079c2.493-0.671,5.051-1.122,7.598-1.581
			c3.407-0.613,6.858-1.013,10.238-1.746c4.422-0.959,8.929-1.785,13.154-3.336c6.465-2.373,12.761-5.229,19.046-8.062
			c2.531-1.142,5.407-2.384,5.739-5.658c0.285-2.814,0.737-5.951-1.127-8.33c-2.378-3.031-2.359-6.463-2.587-9.923
			c-0.281-4.278-1.026-8.358-3.704-11.933c-0.994-1.326-1.258-3.195-2.236-4.539c-0.941-1.293-2.28-2.366-3.615-3.291
			c-3.491-2.417-7.091-4.679-10.617-7.048c-1.539-1.034-2.882-2.445-4.534-3.206c-1.985-0.914-4.2-1.337-6.328-1.928
			c-1.074-0.298-2.388-1.006-3.232-0.657c-6.754,2.792-14.182,3.769-20.547,7.549c-2.481,1.474-4.897,3.093-7.188,4.849
			c-5.236,4.016-10.217,8.383-15.607,12.173c-4.069,2.861-8.545,5.181-12.993,7.44c-1.08,0.549-2.297,1.732-3.844,1.092
			c-1.453,2.058-3.856,1.857-5.913,2.381c-1.313,0.334-2.753,0.145-4.126,0.288c-1.938,0.202-3.867,0.487-5.798,0.752
			c-1.523,0.21-3.037,0.548-4.566,0.646c-4.651,0.297-9.31,0.494-13.964,0.749c-5.876,0.321-11.405-0.647-16.179-4.369
			c-4.167-3.249-8.394-6.43-12.429-9.837c-3.518-2.97-4.853-7.026-4.852-11.56c0-3.101-0.21-6.22,0.044-9.3
			c0.497-6.014,1.462-11.971,4.654-17.255c2.304-3.816,4.616-7.655,7.281-11.216c2.156-2.882,4.756-5.456,7.352-7.968
			c0.686-0.663,2.073-0.646,3.156-0.845c4.792-0.875,9.702-1.331,14.361-2.665c5.62-1.61,11.022-3.978,16.538-5.966
			c1.652-0.596,3.413-0.905,5.034-1.565c0.957-0.389,1.82-1.125,2.577-1.857c1.051-1.016,2.291-2.029,2.861-3.306
			c1.015-2.271,2.025-4.696,2.256-7.13c0.487-5.144,0.723-10.343,0.595-15.507c-0.152-6.159-0.873-12.302-1.187-18.46
			c-0.136-2.672,0.212-5.365,0.198-8.048c-0.037-7-3.583-11.778-9.302-15.561c-4.215-2.788-8.622-3.99-13.54-3.901
			c-0.422,0.008-0.849-0.224-1.273-0.344c41.605,0,83.212,0,124.818,0c0,97.925,0,195.85,0,293.775
			C904.869,1380.276,814.301,1380.276,723.732,1380.276z"/>
		<path fill-rule="evenodd" clip-rule="evenodd" fill="#FFFFFF" d="M867.363,1086.501c-2.902,1.151-5.865,2.174-8.698,3.479
			c-7.954,3.661-11.796,10.529-14.107,18.52c-1.484,5.134-2.739,10.345-4.476,15.392c-0.901,2.618-2.696,4.917-3.938,7.435
			c-0.409,0.828-0.819,2.27-0.415,2.765c1.03,1.262,0.2,2.14-0.327,2.872c-2.062,2.859-4.269,5.617-6.455,8.385
			c-1.11,1.405-2.034,2.81-1.771,4.757c0.156,1.153,0.186,2.377-0.038,3.509c-0.149,0.758-0.725,1.533-1.312,2.084
			c-1.604,1.504-3.119,3.287-5.029,4.233c-2.75,1.363-5.806,2.12-8.752,3.07c-2.01,0.648-4.032,1.287-6.089,1.753
			c-5.953,1.349-11.933,2.646-18.064,2.716c-5.271,0.061-10.514-0.302-15.782-0.863c-5.749-0.613-11.618-0.41-17.415-0.135
			c-2.793,0.133-5.186-0.506-6.864-2.396c-1.469-1.655-3.164-1.474-4.801-1.5c-1.245-0.02-2.484,0.826-3.757,1.167
			c-2.865,0.768-5.417,2.67-8.581,2.354c-1.421-0.142-2.844-0.299-4.27-0.354c-4.019-0.157-6.457,2.55-8.989,5.06
			c-0.113,0.113-0.193,0.316-0.192,0.478c0.004,2.056-0.184,4.143,0.105,6.16c0.272,1.901,1.854,2.825,3.583,3.551
			c1.928,0.81,3.851,1.714,5.6,2.849c3.899,2.53,8.166,4.143,12.505,5.717c5.86,2.125,11.861,3.404,18.035,4.05
			c4.051,0.423,8.09,0.963,12.138,1.43c3.042,0.351,4.966,2.648,5.16,6.364c0.094,1.804,0.302,3.678-0.066,5.408
			c-0.352,1.651-1.127,3.361-2.173,4.684c-2.571,3.25-6.054,5.496-9.624,7.486c-5.519,3.076-10.632,6.696-14.827,11.39
			c-2.371,2.653-5.056,4.608-8.251,5.958c-1.122,0.474-2.341,0.933-3.533,0.981c-3.432,0.142-6.88-0.067-10.308,0.12
			c-3.815,0.208-7.675,0.396-11.407,1.143c-4.885,0.977-9.659,2.503-14.488,3.766c-1.853,0.484-3.825,0.66-5.56,1.402
			c-1.709,0.731-3.188,2.002-4.767,3.036c0-53.396,0-106.792,0-160.274C748.696,1086.501,808.03,1086.501,867.363,1086.501z"/>
		<path fill-rule="evenodd" clip-rule="evenodd" fill="#FFFFFF" d="M689.362,1247.138c0.469,0.783,0.938,1.567,1.438,2.402
			c0.575-0.152,1.113-0.295,1.301-0.345c-0.651,4.322-1.344,8.809-1.985,13.303c-0.091,0.635-0.1,1.374,0.138,1.946
			c1.44,3.467,2.868,6.943,4.479,10.331c3.07,6.456,7.585,11.745,13.388,15.918c4.874,3.504,8.572,7.915,10.712,13.572
			c0.226,0.596,0.611,1.13,0.921,1.694c2.282,4.141,0.398,7.76-1.61,11.229c-1.176,2.031-2.739,3.835-4.028,5.836
			c-2.915,4.523-6.417,8.667-9.357,13.176c-2.662,4.083-5.444,8.236-7.166,12.743c-1.703,4.46-1.429,9.402-0.202,14.143
			c0.25,0.967,0.504,1.939,0.653,2.925c0.392,2.59,2.463,3.858,4.293,5.139c2.183,1.526,4.558,2.859,7.01,3.899
			c2.897,1.229,5.983,2.005,8.953,3.073c1.725,0.62,3.382,1.43,5.069,2.154c-11.336,0-22.672,0-34.008,0
			C689.362,1335.896,689.362,1291.518,689.362,1247.138z"/>
	</g>
</g>
</svg>
