<?xml version="1.0" encoding="utf-8"?>
<!-- Generator: Adobe Illustrator 16.0.0, SVG Export Plug-In . SVG Version: 6.00 Build 0)  -->
<!DOCTYPE svg PUBLIC "-//W3C//DTD SVG 1.1//EN" "http://www.w3.org/Graphics/SVG/1.1/DTD/svg11.dtd">
<svg version="1.1" id="Layer_1" xmlns="http://www.w3.org/2000/svg" xmlns:xlink="http://www.w3.org/1999/xlink" x="0px" y="0px"
	 width="1683.78px" height="2466.14px" viewBox="0 0 1683.78 2466.14" enable-background="new 0 0 1683.78 2466.14"
	 xml:space="preserve">
<g>
	<g>
		<path d="M723.362,576.551c0-0.121,0-0.242,0-0.362c0.241-0.931,0.64-1.854,0.686-2.794c0.066-1.35,0.545-2.201,1.625-3.124
			c2.263-1.933,5.047-1.554,7.56-1.93c3.807-0.57,7.722-0.467,11.593-0.547c4.154-0.086,8.311-0.007,12.464-0.086
			c8.728-0.168,17.456-0.368,26.182-0.602c7.226-0.193,14.448-0.542,21.674-0.663c9.901-0.167,19.806-0.145,29.708-0.277
			c6.879-0.092,13.756-0.344,20.635-0.459c9.248-0.156,18.498-0.246,27.747-0.374c2.205-0.031,4.409-0.075,6.612-0.154
			c4.889-0.175,9.775-0.423,14.666-0.551c3.271-0.085,6.547-0.016,10.107-0.016c-0.821-2.794-0.994-5.278,0.634-7.557
			c1.766-2.472,3.458-3.052,6.401-2.327c1.53-1.501,2.92-2.864,4.309-4.226c0.965,0,1.93,0,2.895,0
			c1.64,0.995,3.426,1.815,4.877,3.034c1.333,1.12,2.709,2.504,3.347,4.066c1.074,2.632,1.206,5.572,2.437,8.244
			c0.713,1.546,0.826,3.45,0.881,5.203c0.154,4.932,0.088,9.87,0.202,14.803c0.135,5.87,0.392,11.738,0.55,17.607
			c0.148,5.48,0.271,10.962,0.345,16.443c0.106,7.735,0.135,15.47,0.24,23.205c0.066,4.838,0.228,9.675,0.319,14.514
			c0.167,8.756,0.32,17.512,0.468,26.269c0.093,5.481,0.156,10.963,0.248,16.444c0.181,10.814,0.371,21.628,0.559,32.441
			c0.058,3.267,0.103,6.533,0.188,9.799c0.165,6.291,0.404,12.581,0.521,18.873c0.118,6.364,0.045,12.733,0.201,19.096
			c0.232,9.435,0.615,18.866,0.89,28.3c0.166,5.703,0.251,11.408,0.37,17.112c0.122,5.844,0.281,11.688,0.354,17.532
			c0.148,11.905,0.261,23.812,0.366,35.718c0.063,7.01,0.025,14.021,0.144,21.029c0.129,7.728,0.406,15.454,0.574,23.181
			c0.066,3.102-0.028,6.207,0.027,9.309c0.095,5.268,0.217,10.536,0.391,15.802c0.188,5.733,0.472,11.462,0.669,17.195
			c0.158,4.615,0.266,9.231,0.365,13.847c0.138,6.365,0.263,12.731,0.362,19.097c0.138,8.708,0.209,17.416,0.378,26.123
			c0.132,6.768,0.367,13.535,0.562,20.302c0.167,5.787,0.354,11.575,0.508,17.362c0.104,3.88,0.171,7.761,0.251,11.641
			c0.16,7.761,0.306,15.521,0.482,23.281c0.083,3.666,0.259,7.329,0.328,10.995c0.151,8.078,0.268,16.156,0.388,24.234
			c0.037,2.502-0.022,5.006,0.068,7.506c0.18,4.939,0.523,9.874,0.633,14.813c0.112,5.07-0.02,10.145,0.041,15.217
			c0.049,4.081,0.237,8.159,0.34,12.239c0.04,1.576-0.066,3.16,0.037,4.73c0.168,2.539,0.648,5.068,0.66,7.604
			c0.067,14.134,0.026,28.268,0.058,42.401c0.002,0.537,0.315,1.103,0.576,1.606c0.724,1.393,0.69,2.686-0.169,4.04
			c-0.412,0.65-0.763,1.484-0.757,2.231c0.03,3.95,0.243,7.898,0.276,11.849c0.034,3.94-0.092,7.881-0.105,11.822
			c-0.013,3.826,0.025,7.653,0.048,11.48c0.02,3.455,0.09,6.91,0.062,10.364c-0.065,8.268-0.238,16.536-0.247,24.804
			c-0.007,5.791,0.183,11.581,0.295,17.371c0.014,0.68,0.127,1.356,0.142,2.035c0.08,3.608,0.149,7.216,0.212,10.824
			c0.109,6.244,0.271,12.487,0.297,18.732c0.02,4.47-0.221,8.94-0.207,13.41c0.017,5.489,0.196,10.978,0.265,16.467
			c0.022,1.834-0.158,3.672-0.112,5.504c0.121,4.883,0.397,9.762,0.455,14.645c0.05,4.244-0.221,8.492-0.164,12.735
			c0.122,9.13,0.412,18.258,0.539,27.388c0.087,6.287,0.015,12.577,0.018,18.866c0,1.953-0.031,3.907,0.028,5.859
			c0.06,1.929,0.314,3.854,0.308,5.781c-0.012,3.331-0.251,6.662-0.226,9.991c0.031,3.968,0.257,7.933,0.366,11.9
			c0.104,3.725,0.223,7.449,0.234,11.174c0.033,10.16-0.015,20.32,0.028,30.48c0.013,2.939,0.254,5.878,0.337,8.818
			c0.146,5.121,0.299,10.244,0.36,15.367c0.15,12.711,0.236,25.424,0.376,38.135c0.095,8.565,0.223,17.13,0.361,25.695
			c0.097,5.967,0.25,11.932,0.354,17.898c0.087,5.048,0.143,10.096,0.209,15.145c0.055,4.189,0.061,8.381,0.177,12.568
			c0.05,1.798,0.451,3.588,0.469,5.385c0.037,3.768-0.14,7.537-0.106,11.305c0.032,3.553,0.288,7.104,0.326,10.658
			c0.059,5.462-0.017,10.926,0.021,16.389c0.103,14.744,0.143,29.489,0.435,44.229c0.058,2.917,1.127,5.813,1.729,8.719
			c0,0.844,0,1.688,0,2.532c-0.603,4.118-1.593,8.224-1.724,12.356c-0.237,7.485,0.073,14.988,0.086,22.483
			c0.009,4.695-0.11,9.391-0.171,14.086c-0.047,3.709-0.127,7.418-0.129,11.127c-0.001,3.477,0.145,6.953,0.108,10.429
			c-0.037,3.666-0.306,7.329-0.304,10.993c0.002,4.197,0.091,8.399,0.34,12.587c0.117,1.957,1.06,3.897,1,5.826
			c-0.155,4.993-0.633,9.977-1.041,14.959c-0.115,1.41-1.631,2.563-3.094,2.754c-2.086,0.272-4.435-0.935-6.226,1.062
			c-4.083,0.141-8.165,0.334-12.249,0.395c-1.62,0.024-3.249-0.388-4.865-0.335c-1.073,0.034-2.122,0.759-3.196,0.8
			c-4.163,0.159-8.333,0.174-12.5,0.229c-3.598,0.048-7.075,0.856-10.323,2.266c-2.271,0.984-4.312,2.539-6.362,3.973
			c-1.267,0.885-0.572,1.517,0.441,2.202c1.713,1.158,3.362,2.434,4.919,3.796c1.113,0.974,1.083,1.788,0.519,2.561
			c-2.574-1.596-5.125-3.145-7.644-4.744c-3.162-2.009-3.332-3.799-0.372-6.003c2.214-1.647,4.647-3.002,6.725-4.323
			c-0.931,0-2.228-0.118-3.496,0.022c-3.521,0.389-7.019,1.087-10.547,1.287c-4.027,0.229-8.077,0.077-12.116,0.029
			c-0.68-0.008-1.363-0.297-2.032-0.499c-0.956-0.287-1.889-0.828-2.853-0.882c-2.348-0.13-4.708-0.06-7.062-0.039
			c-7.529,0.065-15.059,0.188-22.588,0.203c-4.712,0.01-9.425-0.214-14.136-0.186c-5.902,0.034-11.802,0.27-17.704,0.323
			c-3.999,0.036-7.999-0.105-11.998-0.137c-1.63-0.013-3.262,0.092-4.893,0.086c-3.551-0.015-7.102-0.068-10.652-0.103
			c-3.347-0.032-6.694-0.073-10.041-0.091c-3.132-0.016-6.265-0.003-9.393-0.003c-0.806,2.374-1.39,2.796-3.88,2.797
			c-3.497,0.001-6.995-0.023-10.491,0.01c-2.049,0.019-4.088,0.213-5.558-1.736c-0.34-0.451-1.181-0.49-1.682-0.865
			c-0.688-0.516-1.776-1.141-1.813-1.771c-0.19-3.222-0.261-6.471-0.051-9.689c0.169-2.599,1.454-4.95,1.372-7.743
			c-0.346-11.701-0.397-23.411-0.47-35.119c-0.065-10.483,0.02-20.967-0.034-31.45c-0.024-4.75-0.292-9.499-0.322-14.249
			c-0.03-4.612,0.202-9.228,0.14-13.838c-0.074-5.514-0.397-11.022-0.494-16.535c-0.042-2.373,0.321-4.752,0.309-7.128
			c-0.018-3.305-0.298-6.607-0.321-9.912c-0.088-13.042-0.106-26.084-0.177-39.127c-0.036-6.47-0.137-12.939-0.198-19.409
			c-0.125-13.336-0.235-26.673-0.366-40.009c-0.061-6.226-0.175-12.45-0.229-18.676c-0.063-7.38-0.069-14.762-0.134-22.143
			c-0.104-11.792-0.232-23.583-0.359-35.375c-0.091-8.438-0.218-16.878-0.284-25.316c-0.03-3.786,0.109-7.573,0.067-11.358
			c-0.143-12.885-0.341-25.769-0.499-38.653c-0.04-3.225-0.002-6.449-0.007-9.674c-0.015-10.416-0.005-20.832-0.062-31.248
			c-0.023-4.198-0.242-8.396-0.291-12.595c-0.145-12.532-0.265-25.065-0.364-37.599c-0.042-5.313,0.035-10.629-0.019-15.942
			c-0.057-5.595-0.238-11.188-0.304-16.781c-0.059-5.023-0.007-10.047-0.052-15.069c-0.104-11.533-0.261-23.066-0.35-34.599
			c-0.085-11.063-0.12-22.127-0.158-33.19c-0.012-3.418,0.108-6.837,0.044-10.254c-0.169-9.061-0.422-18.12-0.597-27.182
			c-0.021-1.058-0.203-1.813-1.088-2.57c-0.621-0.531-0.971-1.614-1.056-2.488c-0.169-1.732,0.034-3.499-0.108-5.236
			c-0.241-2.946-0.631-5.881-0.958-8.821c0.202,0.045,0.404,0.089,0.606,0.133c0.396-0.383,1.019-0.703,1.144-1.16
			c0.444-1.62,0.917-3.276,1.005-4.938c0.105-1.981-0.232-3.981-0.275-5.975c-0.057-2.642,0.051-5.288-0.027-7.928
			c-0.203-6.83-0.549-13.657-0.69-20.488c-0.189-9.127-0.227-18.258-0.351-27.387c-0.116-8.504-0.262-17.008-0.392-25.512
			c-0.072-4.677-0.126-9.354-0.212-14.031c-0.161-8.822-0.353-17.643-0.506-26.465c-0.07-4-0.009-8.003-0.131-12.001
			c-0.261-8.563-0.697-17.121-0.877-25.686c-0.117-5.586,0.193-11.18,0.124-16.768c-0.079-6.351-0.432-12.698-0.552-19.049
			c-0.147-7.817-0.14-15.637-0.267-23.456c-0.106-6.524-0.308-13.047-0.473-19.57c-0.116-4.569-0.264-9.137-0.356-13.707
			c-0.141-7.033-0.25-14.067-0.366-21.1c-0.086-5.23-0.2-10.46-0.227-15.69c-0.025-4.924,0.131-9.85,0.056-14.773
			c-0.116-7.516-0.363-15.03-0.554-22.545c-0.009-0.361,0.008-0.725-0.02-1.084c-0.473-6.135-0.977-12.268-1.418-18.405
			c-0.299-4.156-0.623-8.316-0.734-12.479c-0.169-6.327-0.315-12.661-0.189-18.986c0.131-6.6,0.802-13.191,0.854-19.79
			c0.046-5.994-0.415-11.993-0.67-17.989c-0.099-2.335-0.276-4.668-0.365-7.004c-0.236-6.254-0.611-12.51-0.601-18.765
			c0.006-3.945,0.839-7.887,0.887-11.835c0.082-6.634,0.059-13.287-0.369-19.902c-0.219-3.387,1.168-7.138-1.592-10.175
			c-0.193-0.212-0.118-0.693-0.119-1.05c-0.006-6.934-0.005-13.868-0.002-20.802c0-0.3-0.026-0.616,0.055-0.897
			c1.778-6.189,0.64-12.462,0.512-18.701c-0.112-5.498-0.416-10.992-0.547-16.489c-0.084-3.512,0.037-7.028-0.016-10.541
			c-0.089-5.952-0.247-11.903-0.366-17.854c-0.225-11.175-0.452-22.35-0.662-33.525c-0.112-5.946-0.115-11.894-0.316-17.836
			c-0.104-3.077-0.672-6.137-0.773-9.214c-0.085-2.585-0.243-5.311,0.456-7.738c0.634-2.2,0.654-4.128,0.045-6.205
			c-0.083-0.281-0.258-0.622-0.172-0.854C725.891,581.233,723.952,579.026,723.362,576.551z"/>
		<path fill-rule="evenodd" clip-rule="evenodd" fill="#FFFFFF" d="M723.362,576.551c0.59,2.475,2.529,4.683,1.474,7.495
			c-0.086,0.231,0.089,0.572,0.172,0.854c0.609,2.076,0.588,4.004-0.045,6.205c-0.699,2.427-0.541,5.153-0.456,7.738
			c0.102,3.077,0.669,6.137,0.773,9.214c0.201,5.942,0.204,11.891,0.316,17.836c0.21,11.175,0.437,22.35,0.662,33.525
			c0.12,5.951,0.277,11.902,0.366,17.854c0.052,3.513-0.068,7.029,0.016,10.541c0.132,5.498,0.435,10.992,0.547,16.489
			c0.128,6.238,1.267,12.511-0.512,18.701c-0.081,0.282-0.054,0.598-0.055,0.897c-0.002,6.934-0.003,13.868,0.002,20.802
			c0,0.356-0.074,0.837,0.119,1.05c2.76,3.037,1.374,6.788,1.592,10.175c0.428,6.616,0.451,13.269,0.369,19.902
			c-0.048,3.948-0.881,7.89-0.887,11.835c-0.01,6.255,0.365,12.511,0.601,18.765c0.088,2.336,0.266,4.669,0.365,7.004
			c0.255,5.996,0.716,11.995,0.67,17.989c-0.051,6.598-0.723,13.189-0.854,19.79c-0.126,6.325,0.021,12.659,0.189,18.986
			c0.111,4.164,0.436,8.323,0.734,12.479c0.441,6.138,0.946,12.271,1.418,18.405c0.028,0.36,0.011,0.723,0.02,1.084
			c0.19,7.515,0.438,15.029,0.554,22.545c0.076,4.923-0.081,9.849-0.056,14.773c0.027,5.23,0.141,10.46,0.227,15.69
			c0.115,7.033,0.225,14.067,0.366,21.1c0.092,4.569,0.24,9.138,0.356,13.707c0.165,6.523,0.367,13.046,0.473,19.57
			c0.127,7.818,0.12,15.638,0.267,23.456c0.12,6.351,0.473,12.698,0.552,19.049c0.07,5.588-0.241,11.182-0.124,16.768
			c0.18,8.564,0.616,17.123,0.877,25.686c0.122,3.998,0.061,8.001,0.131,12.001c0.153,8.822,0.345,17.644,0.506,26.465
			c0.086,4.677,0.141,9.354,0.212,14.031c0.13,8.504,0.276,17.008,0.392,25.512c0.125,9.129,0.162,18.26,0.351,27.387
			c0.141,6.832,0.488,13.658,0.69,20.488c0.079,2.641-0.03,5.287,0.027,7.928c0.043,1.994,0.38,3.994,0.275,5.975
			c-0.088,1.662-0.561,3.318-1.005,4.938c-0.125,0.457-0.749,0.777-1.144,1.16c-0.202-0.044-0.404-0.088-0.606-0.133
			c0.327,2.94,0.716,5.875,0.958,8.821c0.142,1.737-0.061,3.504,0.108,5.236c0.085,0.874,0.435,1.957,1.056,2.488
			c0.886,0.757,1.068,1.513,1.088,2.57c0.175,9.062,0.427,18.121,0.597,27.182c0.064,3.417-0.056,6.836-0.044,10.254
			c0.038,11.063,0.073,22.127,0.158,33.19c0.089,11.532,0.246,23.065,0.35,34.599c0.045,5.022-0.007,10.046,0.052,15.069
			c0.065,5.594,0.247,11.187,0.304,16.781c0.054,5.313-0.023,10.629,0.019,15.942c0.099,12.533,0.219,25.066,0.364,37.599
			c0.048,4.199,0.268,8.396,0.291,12.595c0.057,10.416,0.047,20.832,0.062,31.248c0.004,3.225-0.033,6.449,0.007,9.674
			c0.158,12.885,0.356,25.769,0.499,38.653c0.042,3.785-0.097,7.572-0.067,11.358c0.066,8.438,0.193,16.878,0.284,25.316
			c0.126,11.792,0.254,23.583,0.359,35.375c0.065,7.381,0.07,14.763,0.134,22.143c0.054,6.226,0.168,12.45,0.229,18.676
			c0.131,13.336,0.241,26.673,0.366,40.009c0.061,6.47,0.163,12.939,0.198,19.409c0.071,13.043,0.089,26.085,0.177,39.127
			c0.022,3.305,0.303,6.607,0.321,9.912c0.013,2.376-0.35,4.755-0.309,7.128c0.097,5.513,0.42,11.021,0.494,16.535
			c0.062,4.61-0.169,9.226-0.14,13.838c0.03,4.75,0.298,9.499,0.322,14.249c0.053,10.483-0.031,20.967,0.034,31.45
			c0.073,11.708,0.125,23.418,0.47,35.119c0.082,2.793-1.202,5.145-1.372,7.743c-0.209,3.219-0.139,6.468,0.051,9.689
			c0.037,0.63,1.126,1.255,1.813,1.771c0.501,0.375,1.341,0.414,1.682,0.865c1.47,1.949,3.509,1.755,5.558,1.736
			c3.497-0.033,6.994-0.009,10.491-0.01c2.49-0.001,3.075-0.423,3.88-2.797c3.128,0,6.26-0.013,9.393,0.003
			c3.347,0.018,6.694,0.059,10.041,0.091c3.551,0.034,7.102,0.088,10.652,0.103c1.631,0.006,3.262-0.099,4.893-0.086
			c4,0.031,8,0.173,11.998,0.137c5.902-0.054,11.802-0.289,17.704-0.323c4.711-0.028,9.424,0.195,14.136,0.186
			c7.529-0.016,15.059-0.138,22.588-0.203c2.354-0.021,4.715-0.091,7.062,0.039c0.964,0.054,1.896,0.595,2.853,0.882
			c0.669,0.202,1.353,0.491,2.032,0.499c4.039,0.048,8.089,0.199,12.116-0.029c3.528-0.2,7.026-0.898,10.547-1.287
			c1.269-0.141,2.565-0.022,3.496-0.022c-2.077,1.321-4.511,2.676-6.725,4.323c-2.96,2.204-2.79,3.994,0.372,6.003
			c2.519,1.6,5.069,3.148,7.644,4.744c0.564-0.772,0.595-1.587-0.519-2.561c-1.557-1.362-3.206-2.638-4.919-3.796
			c-1.014-0.686-1.708-1.317-0.441-2.202c2.051-1.434,4.092-2.988,6.362-3.973c3.248-1.409,6.726-2.218,10.323-2.266
			c4.167-0.055,8.337-0.069,12.5-0.229c1.074-0.041,2.123-0.766,3.196-0.8c1.616-0.053,3.245,0.359,4.865,0.335
			c4.084-0.061,8.166-0.254,12.249-0.395c1.791-1.996,4.14-0.789,6.226-1.062c1.463-0.19,2.979-1.344,3.094-2.754
			c0.408-4.982,0.886-9.966,1.041-14.959c0.06-1.929-0.883-3.869-1-5.826c-0.249-4.188-0.338-8.39-0.34-12.587
			c-0.002-3.664,0.267-7.327,0.304-10.993c0.036-3.476-0.109-6.952-0.108-10.429c0.002-3.709,0.082-7.418,0.129-11.127
			c0.061-4.695,0.18-9.391,0.171-14.086c-0.013-7.495-0.323-14.998-0.086-22.483c0.131-4.133,1.121-8.238,1.724-12.356
			c0,45.104,0,90.207,0,135.311c-79.111,0-158.224,0-237.335,0C723.362,1469.937,723.362,1023.244,723.362,576.551z"/>
		<path fill-rule="evenodd" clip-rule="evenodd" fill="#FFFFFF" d="M960.697,1778.787c-0.603-2.905-1.672-5.802-1.729-8.719
			c-0.292-14.74-0.332-29.485-0.435-44.229c-0.038-5.463,0.037-10.927-0.021-16.389c-0.038-3.554-0.294-7.105-0.326-10.658
			c-0.033-3.768,0.144-7.537,0.106-11.305c-0.018-1.797-0.419-3.587-0.469-5.385c-0.116-4.188-0.122-8.379-0.177-12.568
			c-0.066-5.049-0.122-10.097-0.209-15.145c-0.104-5.967-0.257-11.932-0.354-17.898c-0.139-8.565-0.267-17.13-0.361-25.695
			c-0.14-12.711-0.226-25.424-0.376-38.135c-0.062-5.123-0.215-10.246-0.36-15.367c-0.083-2.94-0.324-5.879-0.337-8.818
			c-0.043-10.16,0.005-20.32-0.028-30.48c-0.012-3.725-0.131-7.449-0.234-11.174c-0.109-3.968-0.335-7.933-0.366-11.9
			c-0.025-3.329,0.214-6.66,0.226-9.991c0.007-1.927-0.248-3.853-0.308-5.781c-0.06-1.952-0.028-3.906-0.028-5.859
			c-0.003-6.289,0.069-12.579-0.018-18.866c-0.127-9.13-0.417-18.258-0.539-27.388c-0.057-4.243,0.214-8.491,0.164-12.735
			c-0.058-4.883-0.334-9.762-0.455-14.645c-0.046-1.832,0.135-3.67,0.112-5.504c-0.068-5.489-0.248-10.978-0.265-16.467
			c-0.014-4.47,0.227-8.94,0.207-13.41c-0.026-6.245-0.188-12.488-0.297-18.732c-0.062-3.608-0.132-7.216-0.212-10.824
			c-0.015-0.679-0.128-1.355-0.142-2.035c-0.112-5.79-0.302-11.58-0.295-17.371c0.009-8.268,0.182-16.536,0.247-24.804
			c0.027-3.454-0.043-6.909-0.062-10.364c-0.022-3.827-0.061-7.654-0.048-11.48c0.014-3.941,0.14-7.882,0.105-11.822
			c-0.033-3.95-0.246-7.898-0.276-11.849c-0.006-0.747,0.345-1.581,0.757-2.231c0.859-1.354,0.893-2.647,0.169-4.04
			c-0.261-0.504-0.574-1.069-0.576-1.606c-0.031-14.134,0.01-28.268-0.058-42.401c-0.012-2.535-0.492-5.065-0.66-7.604
			c-0.104-1.571,0.003-3.154-0.037-4.73c-0.103-4.08-0.291-8.159-0.34-12.239c-0.061-5.072,0.071-10.146-0.041-15.217
			c-0.109-4.94-0.453-9.874-0.633-14.813c-0.091-2.5-0.031-5.004-0.068-7.506c-0.12-8.078-0.236-16.156-0.388-24.234
			c-0.069-3.666-0.245-7.33-0.328-10.995c-0.177-7.76-0.322-15.521-0.482-23.281c-0.08-3.88-0.146-7.761-0.251-11.641
			c-0.154-5.788-0.341-11.575-0.508-17.362c-0.194-6.768-0.43-13.534-0.562-20.302c-0.169-8.707-0.24-17.415-0.378-26.123
			c-0.1-6.366-0.225-12.731-0.362-19.097c-0.1-4.616-0.207-9.232-0.365-13.847c-0.197-5.732-0.48-11.462-0.669-17.195
			c-0.174-5.266-0.296-10.534-0.391-15.802c-0.056-3.102,0.039-6.208-0.027-9.309c-0.168-7.728-0.445-15.453-0.574-23.181
			c-0.118-7.008-0.08-14.019-0.144-21.029c-0.105-11.906-0.218-23.812-0.366-35.718c-0.072-5.845-0.231-11.688-0.354-17.532
			c-0.119-5.704-0.204-11.409-0.37-17.112c-0.274-9.434-0.657-18.865-0.89-28.3c-0.156-6.363-0.083-12.731-0.201-19.096
			c-0.117-6.292-0.356-12.582-0.521-18.873c-0.085-3.266-0.13-6.532-0.188-9.799c-0.188-10.813-0.378-21.627-0.559-32.441
			c-0.092-5.481-0.155-10.963-0.248-16.444c-0.147-8.756-0.301-17.513-0.468-26.269c-0.092-4.838-0.253-9.675-0.319-14.514
			c-0.105-7.735-0.134-15.47-0.24-23.205c-0.074-5.481-0.196-10.963-0.345-16.443c-0.158-5.87-0.415-11.737-0.55-17.607
			c-0.114-4.934-0.048-9.872-0.202-14.803c-0.055-1.753-0.168-3.657-0.881-5.203c-1.23-2.671-1.362-5.612-2.437-8.244
			c-0.638-1.562-2.014-2.946-3.347-4.066c-1.451-1.219-3.237-2.04-4.877-3.034c10.612,0,21.225,0,31.837,0
			C960.697,959.93,960.697,1369.358,960.697,1778.787z"/>
		<path fill-rule="evenodd" clip-rule="evenodd" fill="#FFFFFF" d="M925.966,550.501c-1.389,1.362-2.778,2.725-4.309,4.226
			c-2.943-0.726-4.636-0.145-6.401,2.327c-1.628,2.279-1.455,4.763-0.634,7.557c-3.561,0-6.836-0.069-10.107,0.016
			c-4.891,0.128-9.777,0.375-14.666,0.551c-2.203,0.079-4.407,0.123-6.612,0.154c-9.249,0.128-18.499,0.218-27.747,0.374
			c-6.879,0.116-13.756,0.368-20.635,0.459c-9.902,0.132-19.807,0.11-29.708,0.277c-7.226,0.122-14.449,0.47-21.674,0.663
			c-8.726,0.234-17.454,0.434-26.182,0.602c-4.154,0.08-8.311,0-12.464,0.086c-3.872,0.081-7.786-0.023-11.593,0.547
			c-2.513,0.376-5.296-0.003-7.56,1.93c-1.08,0.922-1.559,1.774-1.625,3.124c-0.046,0.94-0.445,1.863-0.686,2.794
			c0-8.562,0-17.125,0-25.687C790.896,550.501,858.431,550.501,925.966,550.501z"/>
	</g>
</g>
</svg>
