<?xml version="1.0" encoding="utf-8"?>
<!-- Generator: Adobe Illustrator 17.0.0, SVG Export Plug-In . SVG Version: 6.00 Build 0)  -->
<!DOCTYPE svg PUBLIC "-//W3C//DTD SVG 1.1//EN" "http://www.w3.org/Graphics/SVG/1.1/DTD/svg11.dtd">
<svg version="1.1" id="Layer_1" xmlns="http://www.w3.org/2000/svg" xmlns:xlink="http://www.w3.org/1999/xlink" x="0px" y="0px"
	 width="193.921px" height="569px" viewBox="0 0 193.921 569" enable-background="new 0 0 193.921 569" xml:space="preserve">
<g>
	<g>
		<path d="M23.022,127.875c0.17-4.343,0.337-8.687,0.513-13.03c0.107-2.625,0.358-5.251,0.313-7.872
			c-0.068-3.945-0.376-7.885-0.51-11.829c-0.114-3.361-0.135-6.725-0.185-10.088c-0.125-8.326-0.125-16.656-0.428-24.975
			c-0.104-2.862-0.704-5.775-1.548-8.52c-0.659-2.144-2.031-4.071-3.112-6.082c-2.232-4.153-3.142-8.594-3.272-13.293
			c-0.108-3.875,0.462-7.616,1.515-11.297c0.253-0.886,0.8-1.96,1.535-2.377c1.275-0.722,1.697-1.815,2.304-2.984
			c2.867-5.523,6.804-9.637,13.518-10.184c2.617-0.213,5.2-0.879,7.792-1.372c1.737-0.331,3.122,0.341,4.391,1.415
			c2.303-1.73,4.477-0.976,6.88-0.004c1.67,0.676,3.663,0.667,5.521,0.746c8.332,0.353,16.665,0.663,25.001,0.908
			c2.587,0.076,5.182-0.132,7.774-0.155c3.432-0.031,6.866,0.038,10.298-0.02c3.966-0.068,7.93-0.307,11.895-0.324
			c3.549-0.015,7.098,0.212,10.647,0.259c4.808,0.063,9.616,0.072,14.424,0.068c1.672-0.001,3.35-0.047,5.012-0.21
			c0.507-0.05,0.942-0.744,1.458-0.82c2.341-0.348,4.693-0.691,7.053-0.819c1.718-0.094,3.28-0.224,4.735-1.368
			c0.817-0.642,2.031-1.009,3.091-1.071c4.15-0.242,8.187,0.753,11.268,3.414c2.561,2.213,4.78,5.025,4.981,8.879
			c0.131,2.517,0.895,4.995,1.159,7.513c0.291,2.775,0.978,5.645-1.039,8.183c-0.224,0.282,0.069,0.985,0.139,1.491
			c0.244,1.749,0.712,3.501,0.677,5.243c-0.03,1.493-0.705,2.962-0.96,4.465c-0.227,1.342-0.349,2.713-0.375,4.074
			c-0.055,2.851-0.017,5.704-0.017,8.557c0,7.556,0.094,15.113-0.026,22.666c-0.124,7.76-0.621,15.516-0.647,23.275
			c-0.02,6.173,0.421,12.348,0.665,18.521c0.031,0.775,0.168,1.549,0.157,2.323c-0.043,3.092,2.385,5.157,3.232,7.875
			c0.678,2.178,1.248,4.403,2.105,6.509c0.546,1.34,1.456,2.557,2.332,3.733c2.334,3.132,3.253,6.701,3.228,10.515
			c-0.016,2.349-0.412,4.693-0.479,7.044c-0.046,1.624,0.311,3.261,0.252,4.883c-0.069,1.891-0.455,3.768-0.585,5.659
			c-0.073,1.066,0.067,2.151,0.157,3.224c0.385,4.584,1.019,9.161,1.115,13.75c0.087,4.197-0.447,8.404-0.618,12.61
			c-0.101,2.487,0.13,4.994-0.07,7.47c-0.339,4.193-1.004,8.359-1.33,12.552c-0.212,2.725-0.14,5.479-0.063,8.217
			c0.103,3.684,0.438,7.362,0.484,11.046c0.056,4.514,0.297,9.081-0.292,13.526c-0.325,2.456,0.544,4.392,0.959,6.535
			c0.968,4.999,0.615,9.936,0.042,14.96c-0.488,4.281-1.579,8.599-0.53,12.982c0.152,0.635-0.24,1.385-0.298,2.088
			c-0.264,3.207-0.49,6.417-0.75,9.624c-0.081,1.002-0.13,2.023-0.363,2.994c-0.57,2.377,0.113,4.5,0.929,6.703
			c0.722,1.95,1.295,4.029,1.472,6.091c0.261,3.033,0.221,6.106,0.105,9.154c-0.102,2.69-0.509,5.367-0.727,8.053
			c-0.074,0.906,0.048,1.827,0.031,2.74c-0.079,4.047-0.144,8.094-0.28,12.14c-0.086,2.558-0.068,5.15-0.5,7.656
			c-0.456,2.641-1.424,5.19-2.098,7.797c-0.181,0.701-0.264,1.503-0.118,2.202c0.834,3.975,1.677,7.95,2.661,11.889
			c0.969,3.881-0.091,7.476-1.221,11.098c-0.173,0.554-0.351,1.22-0.203,1.744c0.894,3.178,0.332,6.329,0.003,9.497
			c-0.127,1.223-0.015,2.469-0.051,3.703c-0.112,3.919-0.077,7.852-0.407,11.753c-0.433,5.114-1.171,10.202-1.759,15.303
			c-0.381,3.303-0.359,6.706-1.182,9.892c-1.122,4.341-0.777,8.751-1.362,13.096c-0.56,4.158-1.221,8.302-1.793,12.458
			c-0.109,0.796-0.021,1.622-0.003,2.433c0.172,7.914,0.584,15.832,0.446,23.741c-0.106,6.048-0.889,12.086-1.407,18.125
			c-0.237,2.759-0.39,5.542-0.89,8.257c-0.634,3.443-1.314,6.92-2.45,10.218c-2.136,6.202-4.607,12.29-6.96,18.417
			c-0.166,0.432-0.462,0.83-0.758,1.194c-2.485,3.047-3.249,6.844-4.682,10.367c-1.589,3.904-4.561,6.502-8.81,7.559
			c-5.569,1.384-11.088,2.97-16.656,4.357c-1.287,0.321-2.69,0.159-4.034,0.277c-2.164,0.19-4.33,0.639-6.482,0.571
			c-1.391-0.044-2.894-0.594-4.094-1.33c-0.936-0.574-1.777-0.607-2.748-0.663c-5.588-0.325-11.174-0.681-16.759-1.049
			c-5.377-0.355-10.753-0.72-16.127-1.113c-5.241-0.384-10.478-0.833-15.721-1.187c-0.678-0.046-1.381,0.441-2.075,0.447
			c-5.074,0.044-10.149,0.062-15.222,0.02c-5.288-0.044-10.285-1.554-15.031-3.668c-4.909-2.187-8.518-5.823-9.69-11.294
			c-0.313-1.46,0.28-3.129-0.099-4.555c-0.442-1.666-1.324-3.286-2.308-4.725c-4.051-5.926-6.8-12.475-8.597-19.326
			c-1.443-5.502-2.002-11.235-2.958-16.865c-0.079-0.466-0.099-0.977-0.311-1.381c-1.471-2.81-1.54-5.879-1.623-8.921
			c-0.14-5.132-0.205-10.266-0.224-15.4c-0.011-2.949,0.108-5.899,0.214-8.847c0.081-2.269,0.342-4.537,0.328-6.804
			c-0.02-3.293-0.362-6.589-0.29-9.878c0.062-2.823,0.607-5.633,0.752-8.459c0.071-1.388-0.317-2.794-0.431-4.198
			c-0.222-2.732-0.499-5.464-0.57-8.201c-0.125-4.801-0.226-9.608-0.13-14.409c0.113-5.688,0.498-11.371,0.655-17.059
			c0.057-2.049-0.435-4.125-0.263-6.154c0.207-2.439,1.001-4.826,1.251-7.265c0.127-1.235-0.393-2.534-0.602-3.806
			c-0.133-0.813-0.328-1.631-0.332-2.447c-0.034-6.663-0.035-13.327-0.035-19.99c0-5.956,0.055-11.913,0.003-17.868
			c-0.029-3.354-0.354-6.709-0.292-10.059c0.032-1.731,0.613-3.453,0.956-5.177c0.069-0.347,0.321-0.71,0.261-1.023
			c-0.494-2.576-1.041-5.141-1.572-7.709c-0.261-1.264-0.71-2.523-0.748-3.793c-0.104-3.494-0.078-6.994-0.024-10.491
			c0.05-3.201,0.201-6.401,0.313-9.602c0.13-3.711,0.303-7.422,0.386-11.134c0.062-2.778-0.08-5.562,0.038-8.336
			c0.119-2.787,0.686-5.572,0.614-8.346c-0.066-2.568-0.721-5.12-1.11-7.68c-0.098-0.643-0.23-1.288-0.244-1.934
			c-0.136-6.368-0.241-12.736-0.375-19.104c-0.105-4.991-0.301-9.982-0.338-14.973c-0.029-3.953,0.034-7.912,0.226-11.859
			c0.121-2.498,0.827-4.986,0.775-7.468c-0.059-2.824-0.719-5.632-1.01-8.459c-0.082-0.799-0.054-1.867,0.403-2.403
			c0.71-0.833,0.582-1.505,0.288-2.33c-0.882-2.475-0.989-4.988-0.38-7.542c0.082-0.344,0.027-0.721,0.04-1.082
			c0.12-3.35,0.299-6.7,0.323-10.051c0.007-0.95-0.445-1.902-0.676-2.855c-1.209-5.005-1.471-10.113-1.01-15.191
			c0.246-2.709,1.173-5.401,2.1-7.991c1.061-2.964,2.244-5.928,3.783-8.662c1.293-2.297,3.085-4.34,4.835-6.339
			c0.712-0.813,1.896-1.214,2.866-1.802C22.575,127.737,22.799,127.806,23.022,127.875z"/>
	</g>
</g>
</svg>
