<?xml version="1.0" encoding="utf-8"?>
<!-- Generator: Adobe Illustrator 17.0.0, SVG Export Plug-In . SVG Version: 6.00 Build 0)  -->
<!DOCTYPE svg PUBLIC "-//W3C//DTD SVG 1.1//EN" "http://www.w3.org/Graphics/SVG/1.1/DTD/svg11.dtd">
<svg version="1.1" id="Layer_1" xmlns="http://www.w3.org/2000/svg" xmlns:xlink="http://www.w3.org/1999/xlink" x="0px" y="0px"
	 width="167.508px" height="663.372px" viewBox="0 0 167.508 663.372" enable-background="new 0 0 167.508 663.372"
	 xml:space="preserve">
<g>
	<path d="M2.65,660.065c-0.273-1.472-0.542-2.872-0.789-4.276c-0.143-0.811-0.347-1.628-0.357-2.444
		c-0.052-4.355,0.048-8.696-0.559-13.049c-0.572-4.101-0.132-8.228,0.452-12.352c0.387-2.735,0.052-5.567,0.117-8.353
		c0.047-2.023,0.503-4.078,0.267-6.057c-0.332-2.784-1.199-5.5-1.701-8.27c-0.151-0.832-0.106-1.887,0.287-2.599
		c1.727-3.131,3.629-6.165,5.432-9.255c0.565-0.968,0.812-1.842,0.226-3.106c-0.68-1.466-0.292-3.188,0.73-4.574
		c1.194-1.621,2.6-3.104,3.643-4.812c1.379-2.257,2.491-4.677,3.727-7.021c0.268-0.509,0.573-0.999,0.867-1.493
		c0.925-1.551,2.439-3.027,2.645-4.667c0.329-2.618-0.118-5.356-0.426-8.022c-0.146-1.261-0.763-2.461-1.109-3.705
		c-0.654-2.353,0.61-4.233,1.69-6.088c1.732-2.974,3.452-5.979,5.471-8.757c1.716-2.36,3.839-4.426,5.81-6.597
		c0.158-0.174,0.55-0.118,0.814-0.219c0.804-0.307,1.957-0.407,2.338-0.997c2.252-3.488,5.806-4.375,9.48-5.177
		c0.902-0.197,1.926-0.52,2.561-1.131c2.287-2.201,5.189-2.628,8.089-3.196c1.496-0.293,2.99-0.694,4.404-1.251
		c0.525-0.207,0.764-1.057,1.237-1.506c0.483-0.459,1.093-0.784,1.647-1.168c0.142,0.105,0.283,0.21,0.425,0.315
		c0.733-4.099,1.455-8.2,2.203-12.296c0.462-2.529,0.916-5.061,1.481-7.567c0.123-0.547,0.615-1.117,1.095-1.452
		c0.769-0.537,1.628-1.104,2.522-1.272c1.896-0.357,1.908-2.043,1.644-3.006c-0.506-1.843-0.571-3.538-0.291-5.404
		c0.258-1.721-0.036-3.516,0.08-5.268c0.156-2.368,0.557-4.721,0.69-7.09c0.1-1.787-0.04-3.59-0.106-5.384
		c-0.017-0.463-0.242-0.924-0.231-1.383c0.075-3.263,0.21-6.525,0.279-9.789c0.046-2.178,0.181-4.379-0.093-6.523
		c-0.078-0.608-1.452-1.486-2.232-1.487c-2.488-0.004-4.368-1.229-6.342-2.436c-0.834-0.51-1.841-0.765-2.796-1.043
		c-3.097-0.903-4.219-3.574-5.445-6.105c-1.35-2.787-1.936-6.002-4.66-7.987c-1.004-0.731-1.937-1.574-2.991-2.221
		c-1.867-1.146-2.974-2.848-3.702-4.816c-1.013-2.736-2.167-5.454-2.814-8.282c-0.552-2.414-1.477-4.808-0.771-7.484
		c0.529-2.003-0.856-2.863-3.042-2.322c-1.138,0.282-2.302,0.506-3.467,0.601c-0.454,0.037-1.147-0.216-1.382-0.569
		c-1.555-2.343-3.115-4.708-3.051-7.703c0.062-2.885,0.103-5.771,0.169-8.656c0.114-5.034,0.34-10.069,0.32-15.103
		c-0.011-2.747-0.597-5.49-0.627-8.239c-0.038-3.478,0.258-6.959,0.352-10.44c0.097-3.564,0.124-7.13,0.182-10.695
		c0.013-0.803-0.104-1.634,0.064-2.403c0.739-3.384-0.017-4.692-3.16-6.737c-4.603-2.995-9.143-6.105-13.532-9.403
		c-2.288-1.72-3.649-4.196-3.506-7.262c0.148-3.177,0.279-6.356,0.352-9.535c0.035-1.517-0.17-3.041-0.11-4.556
		c0.091-2.309,0.382-4.611,0.47-6.92c0.084-2.207-0.027-4.421,0.029-6.631c0.076-3,0.277-5.997,0.326-8.997
		c0.02-1.24-0.343-2.487-0.309-3.725c0.063-2.301,0.324-4.595,0.432-6.896c0.051-1.091-0.083-2.189-0.093-3.285
		c-0.018-1.929,0.099-3.866-0.026-5.787c-0.309-4.751-0.758-9.492-1.074-14.242c-0.112-1.679-0.025-3.374,0.014-5.06
		c0.106-4.551,0.301-9.101,0.332-13.653c0.017-2.627-0.258-5.256-0.324-7.885c-0.059-2.375,0.386-4.837-0.092-7.113
		c-1.144-5.438,0.618-10.778,0.127-16.179c-0.264-2.904-0.087-5.852-0.039-8.779c0.092-5.644,0.256-11.286,0.345-16.93
		c0.05-3.196-0.085-6.398,0.037-9.59c0.111-2.911,0.594-5.81,0.666-8.72c0.141-5.716,0.002-11.44,0.184-17.155
		c0.145-4.568,0.788-9.124,0.848-13.69c0.052-4.016-0.496-8.036-0.599-12.059c-0.115-4.487-0.12-8.982-0.005-13.47
		C8.532,96.86,9.154,91.56,9.001,86.279c-0.161-5.533,0.29-10.953,1.113-16.398c0.315-2.082,0.056-4.25,0.056-6.379
		c0.001-4.983,0-9.965,0-14.948c0-5.513,0-11.026,0-16.54c0-5.311-0.181-10.631,0.061-15.932c0.186-4.072,0.201-8.234,1.911-12.095
		c0.117-0.264,0.161-0.57,0.193-0.862c0.274-2.511,1.806-3.502,4.308-3c3.17,0.636,6.352,1.371,9.562,1.603
		c4.398,0.318,8.827,0.284,13.242,0.256C45.5,1.948,51.551,1.703,57.604,1.683c4.927-0.017,9.854,0.165,14.782,0.261
		c3.554,0.069,7.11,0.075,10.66,0.229c4.867,0.211,9.729,0.552,14.595,0.802c2.508,0.129,5.02,0.186,7.53,0.266
		c7.723,0.245,15.454,0.354,23.166,0.788c3.282,0.185,6.51,1.187,9.792,1.565c4.716,0.543,9.455,0.888,14.189,1.256
		c3.148,0.244,6.37,0.064,9.432,0.693c1.621,0.333,3.508,0.883,4.453,3.118c1.694,4.005,1.302,8.036,1.173,12.126
		c-0.097,3.065-0.098,6.133-0.192,9.198c-0.148,4.818-0.278,9.637-0.531,14.45c-0.221,4.192-0.66,8.373-0.896,12.564
		c-0.302,5.344-0.54,10.692-0.714,16.041c-0.065,2.007,0.227,4.025,0.185,6.035c-0.15,7.022-0.367,14.043-0.575,21.064
		c-0.104,3.497-0.18,6.997-0.381,10.489c-0.302,5.257-0.881,10.504-1.009,15.763c-0.121,4.973,0.208,9.955,0.304,14.934
		c0.1,5.179,0.22,10.359,0.215,15.539c-0.004,3.806-0.325,7.614-0.265,11.417c0.052,3.327,0.436,6.649,0.677,9.973
		c0.021,0.297,0.085,0.591,0.098,0.888c0.26,5.857,0.731,11.714,0.719,17.57c-0.015,7.491-0.379,14.984-0.671,22.472
		c-0.181,4.642-0.443,9.282-0.786,13.915c-0.39,5.269-0.93,10.527-1.364,15.793c-0.104,1.261-0.062,2.535-0.064,3.803
		c-0.006,5.294,0.08,10.59-0.029,15.882c-0.086,4.171-0.554,8.336-0.595,12.506c-0.075,7.648,0.065,15.299,0.065,22.948
		c0,4.49-0.511,9.023-0.054,13.461c0.644,6.259-0.174,12.475,0.138,18.719c0.29,5.808-0.092,11.653-0.263,17.48
		c-0.186,6.303-0.493,12.602-0.706,18.904c-0.202,5.978-0.447,11.958-0.498,17.938c-0.061,7.018,0.121,14.038,0.093,21.057
		c-0.02,5.097-0.21,10.193-0.323,15.289c-0.121,5.419-0.258,10.838-0.357,16.257c-0.082,4.514-0.159,9.028-0.162,13.542
		c-0.002,4.19,0.181,8.38,0.121,12.568c-0.041,2.849-0.437,5.692-0.532,8.543c-0.095,2.841,0.046,5.69-0.023,8.533
		c-0.102,4.21-0.325,8.417-0.443,12.626c-0.07,2.508-0.058,5.019-0.046,7.528c0.015,3.06-0.173,6.096,0.615,9.157
		c0.423,1.643-0.139,3.544-0.274,5.327c-0.229,3.017-0.538,6.03-0.691,9.05c-0.188,3.719-0.359,7.446-0.341,11.168
		c0.032,6.75,0.294,13.5,0.299,20.25c0.005,6.137-0.22,12.273-0.302,18.41c-0.011,0.843,0.334,1.693,0.317,2.535
		c-0.08,4.077-0.33,8.154-0.325,12.23c0.006,4.787,0.411,9.578,0.29,14.359c-0.201,7.969-0.595,15.936-1.075,23.894
		c-0.324,5.373-1.018,10.724-1.381,16.095c-0.195,2.889-0.056,5.801-0.042,8.703c0.008,1.687-0.68,2.078-2.415,2.461
		c-4.444,0.98-8.844-0.334-13.3,0.066c-6.036,0.542-12.13,0.435-18.199,0.61c-4.482,0.129-8.964,0.331-13.447,0.38
		c-5.382,0.059-10.766-0.015-16.149-0.021c-6.399-0.007-12.798-0.032-19.196,0.008c-5.008,0.031-10.017,0.263-15.022,0.201
		c-5.514-0.069-11.025-0.364-16.536-0.575c-6.027-0.231-12.056-0.422-18.078-0.739c-5.314-0.279-10.625-0.658-15.929-1.1
		C5.639,660.807,3.976,660.324,2.65,660.065z"/>
</g>
</svg>
