<?xml version="1.0" encoding="utf-8"?>
<!-- Generator: Adobe Illustrator 17.0.0, SVG Export Plug-In . SVG Version: 6.00 Build 0)  -->
<!DOCTYPE svg PUBLIC "-//W3C//DTD SVG 1.1//EN" "http://www.w3.org/Graphics/SVG/1.1/DTD/svg11.dtd">
<svg version="1.1" id="Layer_1" xmlns="http://www.w3.org/2000/svg" xmlns:xlink="http://www.w3.org/1999/xlink" x="0px" y="0px"
	 width="203.426px" height="867.017px" viewBox="0 0 203.426 867.017" enable-background="new 0 0 203.426 867.017"
	 xml:space="preserve">
<g>
	<path d="M120.841,0.563c0.18,1.371,0.084,2.352,0.451,3.108c1.064,2.19,0.497,4.491,0.714,6.734
		c0.407,4.208,0.702,8.437,1.355,12.608c0.793,5.063,2.3,10.023,1.879,15.239c-0.132,1.639-0.013,3.304-0.232,4.928
		c-0.31,2.301,0.487,4.375,0.965,6.537c0.905,4.094,1.043,8.216,0.589,12.414c-0.231,2.143,0.416,4.367,0.453,6.557
		c0.05,3.047-0.232,6.102-0.125,9.145c0.093,2.649,0.336,5.324,0.855,7.919c0.802,4.008,1.102,7.991,0.55,12.045
		c-0.357,2.621-0.675,5.25-0.921,7.883c-0.078,0.838,0.091,1.709,0.216,2.554c0.532,3.612,0.221,7.145-0.321,10.765
		c-0.542,3.619-0.207,7.366-0.314,11.056c-0.131,4.517-0.408,9.032-0.462,13.549c-0.057,4.74,0.059,9.483,0.129,14.224
		c0.04,2.725,0.191,5.45,0.2,8.175c0.015,4.906-0.106,9.813-0.051,14.718c0.076,6.76,0.265,13.519,0.401,20.279
		c0.098,4.859,0.233,9.717,0.247,14.576c0.003,1.17-0.678,2.366-0.574,3.507c0.303,3.325,0.433,6.753,1.393,9.908
		c1.297,4.263,3.59,8.221,4.907,12.48c0.872,2.82,0.753,5.942,1.145,8.92c0.079,0.603,0.299,1.361,0.728,1.718
		c4.913,4.095,9.904,8.097,14.818,12.191c1.637,1.364,3.202,2.838,4.647,4.402c2.492,2.698,4.96,5.429,7.26,8.288
		c2.595,3.225,5.125,6.52,7.442,9.947c2.166,3.204,4.082,6.584,5.989,9.954c1.832,3.237,3.736,6.463,5.201,9.87
		c1.896,4.409,3.36,9.002,5.057,13.498c3.285,8.7,4.615,17.795,5.07,26.994c0.43,8.702,0.529,17.428,0.483,26.142
		c-0.04,7.648-0.477,15.293-0.752,22.94c-0.127,3.534-0.393,7.066-0.408,10.6c-0.029,6.692,0.048,13.386,0.137,20.078
		c0.076,5.728,0.205,11.457,0.356,17.184c0.149,5.667,0.385,11.331,0.519,16.999c0.066,2.762-0.107,5.531-0.005,8.29
		c0.157,4.267,0.483,8.527,0.688,12.792c0.17,3.521,0.268,7.045,0.401,10.568c0.26,6.853,0.616,13.704,0.756,20.559
		c0.136,6.634,0.105,13.274,0.043,19.91c-0.041,4.337-0.345,8.671-0.386,13.008c-0.03,3.219,0.253,6.441,0.254,9.661
		c0.001,4.887-0.186,9.773-0.176,14.66c0.012,5.691,0.158,11.381,0.23,17.072c0.025,1.984,0.004,3.969,0.004,5.957
		c2.604-0.124,2.644,0.237,2.105,2.719c-0.537,2.474-0.657,5.074-0.668,7.62c-0.016,3.841,0.241,7.684,0.348,11.526
		c0.09,3.202,0.108,6.405,0.202,9.607c0.156,5.339,0.278,10.681,0.539,16.016c0.438,8.975,0.969,17.945,1.47,26.917
		c0.452,8.092,1.063,16.179,1.338,24.277c0.353,10.388,0.47,20.785,0.628,31.18c0.095,6.235,0.108,12.472,0.094,18.707
		c-0.015,6.972-0.26,13.948-0.115,20.916c0.156,7.491,0.513,14.985,1.033,22.459c0.513,7.383,1.439,14.737,1.978,22.119
		c0.212,2.901-0.264,5.846-0.186,8.765c0.086,3.203,0.387,6.406,0.729,9.594c0.11,1.025,0.901,1.992,0.947,3.006
		c0.206,4.522,0.397,9.054,0.318,13.577c-0.071,4.07-1.563,7.844-3.115,11.562c-1.148,2.751-3.405,4.556-5.934,5.62
		c-2.21,0.93-3.656,2.633-5.529,3.857c-1.565,1.023-3.213,2.19-4.981,2.582c-5.249,1.162-10.598,1.593-15.997,1.369
		c-5.46-0.226-10.925-0.412-16.388-0.426c-6.452-0.016-12.893-0.012-19.336,0.864c-3.216,0.438-6.587-0.371-9.891-0.438
		c-7.859-0.159-15.721-0.19-23.581-0.318c-3.995-0.065-7.987-0.261-11.982-0.332c-2.487-0.044-4.98,0.13-7.463,0.034
		c-3.857-0.15-7.716-0.364-11.561-0.705c-3.973-0.353-7.911-0.754-11.929-0.43c-4.512,0.364-9.06,0.456-13.588,0.385
		c-1.632-0.025-3.24-0.91-4.879-1.322c-2.572-0.646-5.315-0.872-7.707-1.915c-3.286-1.433-6.385-3.35-9.423-5.281
		c-1.836-1.167-3.639-2.554-5.042-4.197c-2.225-2.606-4.344-5.207-5.486-8.72c-0.832-2.559-1.445-5.176-2.123-7.753
		c-0.784-2.98-1.117-6.093-1.476-9.168c-0.547-4.688-1.11-9.384-1.36-14.092c-0.206-3.868,0.052-7.76,0.071-11.642
		c0.017-3.618,0.01-7.235-0.022-10.853c-0.03-3.454-0.082-6.908-0.165-10.361c-0.13-5.379-0.357-10.756-0.419-16.135
		c-0.035-3.017,0.238-6.036,0.268-9.055c0.038-3.808,0.1-7.624-0.081-11.425c-0.333-7.006-0.877-14.003-1.251-21.007
		c-0.261-4.904-0.488-9.814-0.549-14.724c-0.121-9.817-0.035-19.636-0.19-29.452c-0.128-8.117-0.474-16.231-0.732-24.346
		c-0.356-11.225-0.772-22.449-1.056-33.677c-0.121-4.776,0.071-9.56,0.036-14.339c-0.03-4.096-0.236-8.19-0.263-12.286
		c-0.053-8.208-0.069-16.417-0.039-24.625c0.029-8.022,0.196-16.043,0.187-24.065c-0.007-6.349-0.233-12.698-0.285-19.047
		c-0.081-9.854-0.221-19.711-0.1-29.563c0.1-8.104,0.487-16.206,0.85-24.305c0.294-6.56,0.802-13.111,1.106-19.67
		c0.302-6.534,0.538-13.073,0.668-19.613c0.076-3.799-0.19-7.603-0.165-11.404c0.034-5.257,0.217-10.514,0.297-15.771
		c0.072-4.739,0.133-9.479,0.122-14.219c-0.009-3.803-0.172-7.605-0.193-11.408c-0.024-4.227,0.028-8.455,0.062-12.683
		c0.029-3.578,0.202-7.16,0.091-10.733c-0.177-5.689-0.574-11.371-0.807-17.059c-0.142-3.449,0.017-6.916-0.252-10.351
		c-0.704-8.998-0.661-17.968,0.429-26.932c0.543-4.461,0.774-8.98,1.649-13.373c0.685-3.441,2.008-6.781,3.294-10.07
		c1.719-4.4,3.358-8.836,6.02-12.826c2.467-3.697,4.472-7.71,7.036-11.333c2.029-2.868,4.509-5.437,6.943-7.992
		c3.126-3.279,6.202-6.657,9.678-9.537c3.492-2.893,7.341-5.403,11.231-7.754c3.467-2.095,7.165-3.825,10.831-5.566
		c4.342-2.062,6.077-5.703,6.344-10.187c0.441-7.412,0.881-14.83,1.015-22.251c0.048-2.68-0.93-5.362-1.178-8.067
		c-0.239-2.606-0.036-5.25-0.218-7.864c-0.172-2.483-0.521-4.96-0.916-7.419c-0.811-5.04-1.729-10.063-2.56-15.1
		c-1.032-6.252-1.278-12.553-1.323-18.886c-0.059-8.227-0.538-16.453-0.533-24.679c0.003-4.789,0.728-9.575,0.877-14.369
		c0.081-2.605-0.377-5.225-0.555-7.841c-0.036-0.528-0.023-1.113,0.167-1.593c0.582-1.467,0.336-2.855,0.009-4.341
		c-0.346-1.573-0.503-3.236-0.42-4.843c0.156-3.003,0.559-5.994,0.835-8.992c0.193-2.098,0.253-4.212,0.539-6.297
		c0.482-3.524,1.303-7.013,1.589-10.549c0.228-2.823,0.045-5.712-0.265-8.538c-0.612-5.575-1.256-11.159-2.226-16.68
		c-0.964-5.485-0.303-10.565,3.034-15.034c2.018-2.702,4.923-4.403,8.175-5.394c4.247-1.295,8.451-2.801,12.775-3.751
		c3.214-0.706,6.587-0.728,9.896-0.956c5.614-0.387,11.231-0.799,16.853-0.997c3.029-0.107,6.073,0.196,9.108,0.343
		C120.416,0.388,120.867,0.569,120.841,0.563z"/>
</g>
</svg>
