<?xml version="1.0" encoding="utf-8"?>
<!-- Generator: Adobe Illustrator 17.0.0, SVG Export Plug-In . SVG Version: 6.00 Build 0)  -->
<!DOCTYPE svg PUBLIC "-//W3C//DTD SVG 1.1//EN" "http://www.w3.org/Graphics/SVG/1.1/DTD/svg11.dtd">
<svg version="1.1" id="Layer_1" xmlns="http://www.w3.org/2000/svg" xmlns:xlink="http://www.w3.org/1999/xlink" x="0px" y="0px"
	 width="1652.307px" height="687.768px" viewBox="0 0 1652.307 687.768" enable-background="new 0 0 1652.307 687.768"
	 xml:space="preserve">
<g>
	<path d="M1062.444,667.855c-0.226,2.009-1.961,1.389-3.191,2.022c-0.673-1.138-1.266-2.142-1.878-3.175
		c-5.522,0-11.072-0.323-16.571,0.062c-14.763,1.033-29.5,2.431-44.256,3.564c-12.476,0.958-24.972,1.656-37.445,2.643
		c-9.833,0.778-19.644,1.838-29.468,2.734c-2.875,0.262-5.762,0.395-8.644,0.583c-0.24,0.016-0.516,0.081-0.719-0.007
		c-4.279-1.845-8.483-0.075-12.663,0.399c-12.83,1.454-25.69,1.721-38.565,1.274c-8.291-0.288-16.57-0.933-24.851-1.469
		c-1.433-0.093-2.865-0.37-4.27-0.682c-2.02-0.449-3.926-0.584-6.009,0.075c-1.385,0.439-3.078,0.095-4.6-0.128
		c-4.404-0.644-8.852-1.15-13.17-2.18c-6.076-1.449-11.996-3.564-18.083-4.955c-9.256-2.115-18.606-3.813-27.899-5.767
		c-5.994-1.26-12.001-2.496-17.926-4.035c-8.367-2.174-16.68-4.566-24.984-6.975c-3.459-1.003-6.821-2.336-10.251-3.441
		c-18.229-5.872-36.723-10.717-55.566-14.18c-2.71-0.498-5.474-0.929-8.219-0.964c-10.35-0.132-20.704,0.016-31.053-0.136
		c-13.276-0.196-25.745-3.659-37.005-10.652c-11.292-7.013-23.228-12.667-35.395-17.866c-4.286-1.831-8.961-2.732-13.376-4.29
		c-4.984-1.758-9.853-3.839-14.817-5.657c-2.122-0.777-4.357-1.246-6.503-1.845c-0.528,0.756-0.918,1.314-1.302,1.864
		c-2.918-0.382-5.602-0.958-8.592-0.215c-2.282,0.567-4.967-0.425-7.463-0.793c-4.213-0.621-8.43-1.233-12.622-1.977
		c-2.241-0.398-4.466-0.958-6.642-1.627c-12.286-3.779-24.515-7.749-36.839-11.398c-17.748-5.256-35.699-9.727-53.807-13.596
		c-12.81-2.737-25.583-5.68-38.286-8.879c-7.923-1.995-15.734-4.483-23.507-7.022c-15.889-5.191-31.792-10.359-47.548-15.934
		c-10.876-3.848-21.49-8.403-31.159-14.876c-3.585-2.399-7.351-4.529-10.92-6.95c-2.076-1.409-3.978-3.093-5.866-4.757
		c-4.235-3.733-8.553-7.388-12.58-11.337c-5.09-4.992-9.151-10.81-12.725-16.984c-3.309-5.715-6.958-11.24-10.117-17.034
		c-1.946-3.569-3.408-7.428-4.817-11.257c-3.625-9.848-8.959-18.69-16.221-26.177c-4.996-5.151-10.648-9.68-16.128-14.345
		c-8.7-7.406-17.555-14.63-26.227-22.069c-2.727-2.34-4.967-5.239-7.616-7.68c-6.715-6.186-13.499-12.3-20.33-18.358
		c-3.596-3.189-7.37-6.175-11.028-9.295c-5.181-4.418-11.363-7.224-17.131-10.693c-5.282-3.176-10.385-6.623-14.48-11.248
		c-5.091-5.75-9.934-11.722-14.836-17.638c-4.627-5.583-9.977-10.372-15.67-14.835c-5.496-4.308-10.547-9.117-14.693-14.764
		c-5.349-7.285-9.252-15.138-9.614-24.46c-0.172-4.429-0.948-8.834-1.447-13.25c-0.626-5.545-0.089-11.031,0.737-16.517
		c0.754-5.01,1.182-10.019,0.255-15.094c-0.952-5.212-0.419-10.487-0.145-15.733c0.119-2.273,0.494-4.532,0.606-6.805
		c0.119-2.39,1.335-4.211,3.125-5.46c3.442-2.404,6.909-4.874,10.668-6.691c3.863-1.868,7.159-4.395,10.436-7.033
		c3.278-2.64,6.454-5.413,9.813-7.944c4.341-3.27,9.417-4.819,14.741-5.394c4.684-0.506,9.246-1.368,13.715-2.892
		c10.359-3.533,21.036-5.958,31.55-8.937c10.386-2.943,20.495-6.893,30.655-10.595c5.866-2.137,11.591-4.664,17.384-7.004
		c4.254-1.719,7.672-4.405,10.146-8.331c3.414-5.418,7.639-10.185,12.13-14.731c4.569-4.625,8.974-9.417,13.662-13.916
		c4.244-4.071,8.681-7.956,13.204-11.716c4.06-3.374,8.408-6.4,12.529-9.704c3.758-3.013,7.479-6.086,11.046-9.32
		c9.107-8.258,17.495-17.217,25.543-26.506c2.666-3.077,5.461-6.072,8.465-8.811c1.454-1.326,3.429-2.314,5.339-2.864
		c6.581-1.895,13.198-3.705,19.878-5.21c5.733-1.291,11.54-2.361,17.368-3.097c8.549-1.079,17.071-0.71,25.366,1.924
		c9.972,3.167,19.983,6.226,29.87,9.642c12.738,4.4,25.095,9.669,36.897,16.289c7.649,4.291,15.66,7.966,23.641,11.628
		c8.393,3.851,17.351,4.727,26.481,4.075c6.721-0.48,13.432-1.127,20.156-1.543c5.506-0.34,11.025-0.495,16.541-0.636
		c2.539-0.065,4.787,0.637,7.142,1.921c4.528,2.469,9.543,3.899,14.739,4.361c2.887,0.257,5.645,0.813,8.042,2.519
		c0.871,0.62,1.826,1.276,2.39,2.145c2.089,3.22,3.393,3.769,6.994,3.184c8.058-1.309,16.136-2.489,24.207-3.72
		c15.064-2.298,30.138-4.536,45.188-6.917c8.287-1.311,16.526-2.928,24.807-4.284c7.834-1.282,15.734-2.192,23.535-3.641
		c11.806-2.194,23.527-4.845,35.331-7.054c9.783-1.83,19.631-3.31,29.453-4.93c5.104-0.841,10.232-1.552,15.319-2.488
		c15.682-2.885,30.25-0.007,44.225,7.572c14.303,7.757,27.602,16.987,40.922,26.245c7.394,5.139,15.073,9.873,22.695,14.676
		c2.22,1.399,4.685,2.411,6.951,3.557c2.949-1.736,5.748-3.17,8.317-4.937c5.991-4.121,12.553-7.079,19.187-9.948
		c9.907-4.284,20.158-7.519,30.515-10.503c8.511-2.452,16.91-5.296,25.371-7.924c4.471-1.389,8.929-2.852,13.465-3.996
		c12.171-3.071,24.425-5.82,36.561-9.02c9.054-2.388,18-5.201,26.948-7.974c5.397-1.672,10.761-3.485,16.041-5.492
		c9.08-3.451,18.142-6.97,26.652-11.726c0.825-0.461,1.577-1.053,3.041-2.042c-3.433,0.808-6.095,1.434-8.758,2.06
		c-0.074-0.254-0.148-0.509-0.221-0.763c1.167-0.47,2.314-1.002,3.506-1.4c6.216-2.072,12.104-5.142,18.656-6.183
		c1.298-0.206,2.623-0.257,3.937-0.341c0.592-0.038,1.31,0.24,1.767-0.005c4.357-2.328,9.029-1.587,13.519-1.087
		c7.756,0.864,15.454,2.247,23.175,3.423c4.29,0.653,8.37,1.897,12.327,3.754c11.513,5.401,22.053,12.296,31.929,20.256
		c8.212,6.62,17.178,11.95,26.955,15.935c4.002,1.631,7.912,3.487,11.896,5.164c0.956,0.402,2.042,0.496,3.472,0.825
		c2.644-12.771,4.334-25.643,12.874-36.611c5.745,2.247,11.613,4.639,17.552,6.841c6.981,2.588,13.917,5.389,21.069,7.4
		c7.461,2.099,15.19,2.07,22.897,0.939c8.94-1.311,17.851-1.505,26.841,0.069c6.372,1.115,12.89,1.384,19.334,2.106
		c7.637,0.855,15.264,1.806,22.899,2.687c13.955,1.609,27.913,3.195,41.869,4.795c10.235,1.173,20.343,0.129,30.504-1.248
		c12.145-1.646,24.029-4.528,36.044-6.781c6.689-1.254,13.429-1.298,20.126-0.628c8.961,0.896,17.92,2.146,26.467,5.134
		c7.056,2.467,13.756,5.783,19.699,10.392c6.847,5.311,13.678,10.649,20.344,16.182c7.128,5.917,13.984,12.159,21.086,18.108
		c10.144,8.496,20.522,16.716,30.581,25.309c9.743,8.323,20.678,14.897,31.159,22.149c8.007,5.541,15.675,11.579,23.397,17.522
		c4.382,3.372,8.484,7.107,12.872,10.471c3.036,2.328,6.635,3.915,8.981,7.145c0.347,0.478,1.26,0.546,1.713,0.725
		c-0.095,5.041-0.748,9.975-0.062,14.715c0.392,2.713-0.351,4.99-0.836,7.286c-0.546,2.579-2.453,4.841-3.527,7.344
		c-2.972,6.931-7.646,12.777-11.788,18.971c-3.542,5.295-7.147,10.573-10.273,16.112c-2.286,4.051-3.935,8.476-5.703,12.802
		c-4.868,11.914-9.698,23.845-14.429,35.814c-1.055,2.67-1.514,5.57-2.478,8.282c-1.445,4.07-3.126,8.056-4.648,12.099
		c-2.752,7.309-5.27,14.714-8.263,21.922c-1.598,3.849-3.967,7.381-6.022,11.036c-1.467,2.61-3.179,5.1-4.437,7.804
		c-1.112,2.39-0.78,4.895,0.505,7.279c3.18,5.897,4.914,12.281,5.718,18.873c1.618,13.263,2.621,26.564,3.116,39.939
		c0.412,11.111-0.092,22.154-0.397,33.226c-0.199,7.206-0.121,14.426-0.536,21.618c-0.568,9.841-0.83,19.77-2.425,29.463
		c-1.854,11.271-3.927,22.505-5.208,33.858c-1.462,12.957-1.794,25.958-0.71,38.966c0.909,10.908,1.929,21.807,2.877,32.712
		c0.094,1.076-0.092,2.185,0.076,3.244c0.429,2.714-0.834,4.194-3.18,5.34c-3.45,1.685-6.586,4.191-10.175,5.378
		c-6.812,2.253-13.847,3.833-20.797,5.664c-3.593,0.947-7.28,1.601-10.788,2.791c-8.668,2.942-17.536,4.979-26.484,6.86
		c-10.434,2.193-20.983,2.444-31.544,2.909c-10.335,0.455-20.677,0.816-30.999,1.49c-10.18,0.664-20.33,1.778-30.508,2.479
		c-5.276,0.363-10.599,0.036-15.874,0.41c-10.913,0.773-21.994,0.876-32.656,3.008c-9.765,1.953-19.72,2.48-29.39,4.864
		c-6.877,1.695-13.865,2.936-20.771,4.521c-1.959,0.449-4.204,0.945-5.62,2.204c-3.322,2.953-7.486,3.774-11.371,5.27
		c-5.89,2.267-12.098,2.867-18.367,3.315c-3.538,0.253-7.133,1.095-10.484,2.287c-5.992,2.131-11.775,4.843-17.737,7.067
		c-2.212,0.825-4.679,1.328-7.033,1.343c-7.741,0.048-15.303,1.408-22.905,2.575c-2.848,0.437-5.738,0.661-8.618,0.819
		c-10.818,0.593-21.453,2.288-32.049,4.551c-9.648,2.06-19.5,2.757-29.371,2.732c-5.408-0.014-10.815-0.396-16.223-0.39
		c-6.132,0.008-12.266,0.213-18.395,0.431c-4.609,0.164-8.756-1.189-12.765-3.321c-1.568-0.834-3.285-1.504-5.014-1.897
		c-9.247-2.1-18.262-5.185-27.709-6.465C1066.786,669.547,1064.776,668.59,1062.444,667.855z"/>
</g>
</svg>
