<?xml version="1.0" encoding="utf-8"?>
<!-- Generator: Adobe Illustrator 17.0.0, SVG Export Plug-In . SVG Version: 6.00 Build 0)  -->
<!DOCTYPE svg PUBLIC "-//W3C//DTD SVG 1.1//EN" "http://www.w3.org/Graphics/SVG/1.1/DTD/svg11.dtd">
<svg version="1.1" id="Layer_1" xmlns="http://www.w3.org/2000/svg" xmlns:xlink="http://www.w3.org/1999/xlink" x="0px" y="0px"
	 width="1362.149px" height="1539.79px" viewBox="0 0 1362.149 1539.79" enable-background="new 0 0 1362.149 1539.79"
	 xml:space="preserve">
<g>
	<path d="M1149.993,214.833c0.51,0.266,0.712,0.441,0.937,0.478c4.629,0.752,8.025,3.483,11.033,6.843
		c0.48,0.536,0.862,1.306,1.463,1.563c3.781,1.615,5.721,5.011,8.104,8.023c5.502,6.956,11.109,13.829,16.656,20.749
		c1.347,1.68,2.575,3.458,3.954,5.11c1.204,1.443,1.326,3.033,0.966,4.746c-0.27,1.287-0.591,2.563-0.978,4.227
		c3.216,1.985,6.631,3.455,9.978,4.122c1.634,2.401,3.215,4.498,4.553,6.74c2.214,3.709,4.267,7.514,6.398,11.272
		c4.627,8.16,9.263,16.316,13.891,24.476c0.889,1.568,1.695,3.188,2.66,4.707c1.404,2.209,2.216,4.48,0.993,7.336
		c5.862,1.801,9.06,6.19,11.873,11.073c3.652,6.339,7.464,12.586,11.255,18.843c1.119,1.847,2.362,3.623,3.619,5.381
		c4.046,5.66,8.028,11.385,10.043,18.129c1.332,4.458,2.83,8.955,2.348,13.738c-0.213,2.113-0.587,4.21-0.911,6.479
		c6.949,2.761,10.055,8.048,11.68,14.777c1.345,5.57,2.632,11.252,5.751,16.234c1.035,6.997,4.695,13.107,6.702,19.776
		c0.45,1.494,0.974,2.973,1.567,4.416c1.598,3.889,2.11,7.936,1.326,12.026c-0.418,2.178,0.479,3.407,1.984,4.552
		c3.541,2.693,5.956,6.268,7.431,10.367c0.754,2.095,0.562,4.511,1.083,6.714c1.603,6.768,3.273,13.522,5.055,20.245
		c1.232,4.647,2.779,9.21,4.023,13.854c0.846,3.159,1.068,6.386,0.258,9.64c-0.58,2.33-0.264,4.316,1.752,6.141
		c1.452,1.314,2.551,3.245,3.261,5.108c2.351,6.169,4.264,12.462,5.66,18.955c0.953,4.43,3.001,8.699,3.029,13.281
		c0.048,7.81,2.74,15.107,3.81,22.696c0.304,2.156-0.307,4.507-0.816,6.695c-0.56,2.408-0.568,4.42,1.565,6.152
		c4.261,3.461,5.213,8.49,5.976,13.513c1.226,8.066,2.327,16.151,3.471,24.23c0.101,0.713,0.166,1.435,0.191,2.155
		c0.244,6.974,0.474,13.948,0.713,20.923c0.098,2.844-0.568,5.54-2.054,7.917c-0.978,1.565-1.017,2.804,0.051,4.265
		c1.621,2.217,2.158,4.784,2.169,7.493c0.017,4.165-1.25,5.738-5.913,6.823c-0.382,2.368-0.924,4.899-1.135,7.458
		c-0.079,0.963,0.457,2.077,0.976,2.97c1.591,2.74,2.536,5.663,3.015,8.783c1.768,11.523,3.6,23.036,5.362,34.561
		c0.852,5.571,2.182,11.125,0.684,16.819c-0.173,0.657,0.297,1.619,0.723,2.275c1.755,2.7,2.294,5.692,2.7,8.831
		c1.248,9.651,2.842,19.259,4.041,28.916c1.051,8.463,1.783,16.967,2.564,25.462c0.106,1.159-0.425,2.363-0.467,3.552
		c-0.037,1.044-0.016,2.179,0.348,3.133c2.215,5.819,2.997,11.751,2.518,17.999c-0.337,4.392,0.32,8.851,0.303,13.28
		c-0.037,9.396-0.222,18.791-0.352,28.186c-0.082,5.886,0.257,11.818-2.074,17.448c-0.195,0.47-0.072,1.231,0.183,1.704
		c2.493,4.616,1.022,9.409,0.699,14.148c-0.081,1.195-0.347,2.383-0.359,3.576c-0.119,11.689-1.057,23.318-2.948,34.844
		c-0.613,3.733-2.017,7.337-3.214,11.546c1.566,1.835,1.778,4.696,1.578,7.627c-0.417,6.115-0.714,12.244-1.349,18.338
		c-1.033,9.911-2.084,19.831-3.564,29.681c-0.624,4.15-1.06,8.208-0.978,12.409c0.05,2.57-0.784,5.201-1.48,7.734
		c-1.399,5.092-3.009,10.125-4.472,15.2c-3.388,11.756-6.61,23.563-10.185,35.261c-1.071,3.504-3.093,6.715-4.663,10.069
		c-0.299,0.64-0.773,1.332-0.736,1.974c0.319,5.45-2.418,9.97-4.406,14.702c-2.277,5.422-4.684,10.789-7.048,16.174
		c-4.345,9.898-9.434,19.348-16.117,27.917c-6.486,8.318-12.787,16.782-19.099,25.234c-2.355,3.153-4.656,6.364-6.732,9.704
		c-5.378,8.655-10.598,17.409-15.921,26.099c-2.512,4.102-5.104,8.155-7.682,12.216c-3.084,4.858-6.336,9.615-9.239,14.578
		c-2.118,3.621-3.592,7.617-5.703,11.243c-3.327,5.714-6.837,11.33-10.472,16.853c-4.817,7.318-9.928,14.442-14.724,21.773
		c-3.091,4.724-5.612,9.828-8.795,14.484c-6.237,9.125-12.472,18.28-19.255,26.996c-5.15,6.617-11.203,12.526-16.743,18.847
		c-2.297,2.62-4.199,5.583-6.468,8.23c-3.677,4.29-7.468,8.484-11.285,12.651c-3.656,3.991-7.195,8.125-11.167,11.782
		c-5.249,4.832-8.745,11.033-13.458,16.26c-0.643,0.714-1.204,1.511-1.902,2.163c-3.783,3.539-6.38,7.816-7.821,12.762
		c-0.798,2.74-1.373,5.541-4.035,7.559c1.16,1.051,2.095,1.897,3.031,2.744c-0.059,0.11-0.119,0.22-0.178,0.33
		c-0.497-0.218-1.065-0.345-1.479-0.669c-1.756-1.375-3.178-0.988-4.764,0.444c-2.304,2.081-4.542,4.599-7.301,5.713
		c-2.859,1.155-5.767,2.85-9.193,2.507c-1.746-0.175-3.631,0.002-5.323,0.482c-7.752,2.196-15.512,4.39-23.165,6.901
		c-8.226,2.699-16.443,5.344-25.019,6.724c-1.021,0.164-2.283,0.487-2.9,1.198c-2.222,2.559-5.339,3.17-8.275,4.109
		c-6.752,2.161-13.565,4.129-20.327,6.26c-1.225,0.386-2.323,1.177-3.483,1.772c-0.515,0.264-1.025,0.691-1.562,0.734
		c-6.192,0.497-11.937,2.728-17.797,4.512c-6.434,1.959-12.865,3.928-19.297,5.896c-0.456,0.14-0.925,0.475-1.355,0.428
		c-6.431-0.704-11.6,2.672-16.842,5.454c-4.219,2.239-8.667,3.588-13.231,4.562c-11.058,2.359-22.144,4.603-33.263,6.66
		c-5.315,0.983-10.731,1.412-16.094,2.147c-1.176,0.161-2.621,0.209-3.425,0.906c-2.949,2.554-6.613,2.793-10.115,3.444
		c-10.372,1.928-20.788,3.501-31.035,6.208c-6.808,1.798-14.003,2.146-21.036,3.057c-0.907,0.118-1.905-0.2-2.819-0.459
		c-3.451-0.98-6.683-1.239-10.026,0.818c-3.79,2.332-8.286,2.288-12.593,2.63c-7.546,0.599-15.096,1.157-22.648,1.664
		c-6.554,0.44-13.123,1.188-19.668,1.036c-4.564-0.105-8.938-0.193-13.375,1.161c-2.095,0.639-4.517,0.276-6.79,0.25
		c-7.453-0.084-14.906-0.319-22.358-0.305c-4.688,0.009-9.374,0.387-14.063,0.548c-6.351,0.218-12.511-0.536-17.973-4.122
		c-1.152-0.756-2.056-0.849-3.317-0.318c-3.173,1.335-6.484,1.496-9.917,1.123c-6.211-0.675-12.464-0.976-18.67-1.69
		c-4.529-0.521-9.011-1.455-13.514-2.202c-5.094-0.845-10.177-1.777-15.288-2.503c-4.561-0.648-8.958-1.756-13.037-3.92
		c-1.569-0.832-3.095-1.057-4.798-0.512c-4.298,1.375-8.478,0.681-12.756-0.452c-10.214-2.704-20.501-5.13-30.75-7.698
		c-9.428-2.363-18.909-4.551-28.243-7.243c-4.419-1.274-8.9-2.854-12.422-6.22c-0.468,0.057-0.979,0.016-1.402,0.188
		c-4.283,1.739-8.404,0.975-12.606-0.486c-9.31-3.237-18.719-6.188-28.011-9.473c-7.355-2.6-14.598-5.519-21.888-8.303
		c-2.465-0.941-5.026-1.702-7.358-2.906c-3.051-1.575-6.144-3.231-8.78-5.388c-1.63-1.334-3.158-1.746-4.92-1.393
		c-3.787,0.76-7.081-0.407-10.373-2.05c-6.868-3.427-13.788-6.748-20.675-10.137c-4.09-2.013-8.145-4.095-12.238-6.103
		c-3.778-1.854-7.63-3.56-11.362-5.499c-3.06-1.589-5.991-3.424-9.158-5.254c-0.124,0.135-0.615,0.656-1.088,1.192
		c-1.393,1.576-3.067,1.781-4.916,0.975c-0.77-0.336-1.529-0.721-2.235-1.174c-9.106-5.84-18.201-11.697-27.301-17.548
		c-2.935-1.887-5.821-3.859-8.833-5.613c-1.522-0.887-3.229-1.549-4.934-2.007c-3.065-0.823-5.544-2.772-7.401-4.966
		c-4.21-4.976-10.041-7.301-15.314-10.576c-2.539-1.577-4.893-3.458-7.286-5.262c-2.202-1.66-4.281-3.489-6.532-5.077
		c-1.58-1.114-2.862-2.244-2.459-4.382c0.646-3.428-1.238-5.458-3.609-7.602c-6.218-5.624-12.145-11.568-18.294-17.27
		c-2.72-2.523-5.9-4.565-8.523-7.176c-10.081-10.036-21.635-18.317-32.364-27.571c-6.246-5.387-11.919-11.447-17.732-17.321
		c-1.408-1.423-2.306-3.339-3.519-4.968c-0.771-1.036-1.534-2.193-2.571-2.898c-5.049-3.433-8.603-8.201-12.186-13.005
		c-4.145-5.556-8.532-10.932-12.746-16.438c-1.376-1.797-2.47-3.808-3.819-5.628c-4.51-6.083-9.089-12.114-13.604-18.192
		c-0.566-0.762-0.878-1.706-1.358-2.537c-1.733-2.995-3.066-6.269-5.878-8.522c-3.645-2.92-5.278-7.309-7.938-10.949
		c-1.532-2.096-2.671-4.476-4.047-6.692c-3.592-5.783-7.038-11.67-10.901-17.267c-2.042-2.958-4.576-5.561-5.816-9.038
		c-0.481-1.347-0.995-2.696-1.653-3.962c-0.877-1.687-1.613-3.601-2.933-4.875c-3.49-3.371-5.284-7.653-7.212-11.917
		c-1.469-3.248-3.068-6.438-4.608-9.654c-1.079-2.254-2.171-4.501-3.227-6.765c-2.361-5.061-4.8-10.088-7.019-15.211
		c-1.489-3.438-2.831-6.936-3.702-10.627c-0.419-1.776-1.768-3.333-2.689-4.992c-1.266-2.281-2.777-4.465-3.743-6.867
		c-3.122-7.77-6.112-15.594-9.021-23.447c-2.944-7.948-5.837-15.918-8.524-23.955c-0.904-2.705-0.965-5.68-1.679-8.463
		c-0.487-1.899-1.398-3.697-2.191-5.509c-1.241-2.835-2.842-5.55-3.759-8.482c-2.101-6.712-3.929-13.512-5.776-20.301
		c-1.321-4.857-2.532-9.745-3.722-14.637c-1.293-5.317-2.483-10.658-3.757-15.98c-1.534-6.408-3.008-12.812-3.361-19.439
		c-0.104-1.957-0.716-4.009-1.582-5.78c-1.909-3.904-2.726-8.048-3.46-12.263c-1.023-5.877-2.193-11.728-3.284-17.593
		c-0.94-5.052-1.898-10.101-2.773-15.164c-1.195-6.916-2.389-13.834-3.443-20.773c-0.486-3.196-0.961-6.455-0.84-9.662
		c0.099-2.621-0.584-4.874-1.276-7.306c-1.072-3.77-1.795-7.681-2.228-11.581c-0.888-7.999-1.506-16.029-2.189-24.049
		c-0.152-1.789-0.048-3.6-0.176-5.393c-0.358-5.001-0.949-9.992-1.129-14.998c-0.233-6.501-0.762-13.026,0.58-19.5
		c0.172-0.831-0.276-1.8-0.471-2.697c-0.38-1.749-1.051-3.48-1.132-5.24c-0.337-7.292-0.573-14.591-0.702-21.89
		c-0.108-6.103-0.07-12.211,0.01-18.315c0.052-3.94,0.292-7.878,0.456-11.816c0.02-0.474,0.028-0.964,0.153-1.416
		c1.227-4.432,1.51-8.756,0.314-13.371c-0.683-2.639,0.317-5.697,0.468-8.572c0.495-9.465,0.884-18.936,1.444-28.396
		c0.289-4.889,0.743-9.775,1.342-14.635c0.261-2.119,1.17-4.151,1.593-6.262c0.223-1.113,0.32-2.406-0.029-3.45
		c-0.93-2.779-1.296-5.528-0.809-8.44c0.356-2.13,0.494-4.299,0.661-6.456c0.176-2.276,0.308-4.479-1.927-6.115
		c-1.8-1.317-1.289-3.571-1.336-5.396c-0.06-2.356,0.519-4.721,0.704-7.092c0.157-2.007,0.22-4.028,0.185-6.04
		c-0.03-1.771-0.176-3.549-0.419-5.304c-0.143-1.031-0.458-2.077-0.904-3.018c-0.636-1.343-0.864-2.794,0.383-3.604
		c1.773-1.152,1.957-2.908,2.498-4.595c0.173-0.539,0.476-1.037,0.831-1.793c2.277,1.323,1.254,3.192,1.082,5.013
		c7.332,1.583,12.159,6.561,16.727,11.905c6.067,7.097,12.195,14.143,18.214,21.281c1.855,2.2,3.442,4.626,5.147,6.953
		c0.142,0.193,0.197,0.471,0.371,0.617c5.976,5.014,10.594,11.302,15.908,16.937c0.151,0.16,0.448,0.171,0.649,0.297
		c3.724,2.34,6.6,5.451,8.738,9.308c1.453,2.622,3.113,5.129,4.414,7.251c-1.145,4.353-1.964,8.32-3.245,12.131
		c-1.905,5.669-3.997,11.286-6.281,16.813c-1.513,3.662-3.835,7.006-5.192,10.712c-1.809,4.94-3.221,10.047-4.475,15.163
		c-3.858,15.744-7.265,31.604-11.454,47.257c-1.867,6.977-1.19,13.691-0.642,20.593c0.491,6.194,0.533,12.422,0.893,18.628
		c0.269,4.636,0.834,9.255,1.078,13.892c0.352,6.71,0.982,13.451,0.675,20.14c-0.393,8.541,0.741,17.014,0.45,25.524
		c-0.109,3.205,0.873,6.151,2.103,9.009c4.266,9.915,8.797,19.722,12.856,29.72c2.931,7.219,5.464,14.617,7.827,22.046
		c2.468,7.76,4.592,15.633,6.727,23.495c1.218,4.483,2.084,9.06,3.264,13.554c0.385,1.467,1.179,2.85,1.927,4.192
		c1.215,2.178,2.495,4.324,3.842,6.423c2.076,3.236,4.315,6.369,6.334,9.638c4.972,8.049,10.106,16.014,14.716,24.269
		c5.379,9.63,10.427,19.455,15.332,29.337c5.32,10.717,10.857,21.352,14.147,32.969c0.702,2.477,2.269,4.739,3.603,7.002
		c6.708,11.372,13.773,22.546,20.11,34.12c4.439,8.108,9.922,15.579,13.76,24.069c3.406,7.534,7.794,14.621,11.653,21.956
		c3.179,6.041,6.125,12.204,9.341,18.225c4.923,9.217,10.851,17.802,16.964,26.256c3.017,4.173,6.057,8.339,9.282,12.352
		c7.133,8.875,14.271,17.715,19.954,27.655c4.052,7.087,8.541,13.925,12.805,20.892c2.533,4.14,5.821,7.569,9.505,10.702
		c6.745,5.736,13.388,11.593,20.477,17.75c2.309-4.163,4.318-7.787,6.606-11.912c0.355-0.089,1.376-0.344,2.789-0.696
		c-0.505,3.087,1.978,4.411,3.454,6.064c3.666,4.105,7.546,8.147,11.901,11.479c6.853,5.243,14.078,10.023,21.334,14.707
		c2.791,1.802,6.103,2.792,9.169,4.172c2.518,1.134,5.026,2.291,7.53,3.454c0.434,0.202,0.88,0.759,1.235,0.693
		c3.246-0.609,4.837,2.047,7.047,3.466c4.957,3.184,10.008,6.234,14.833,9.608c6.107,4.272,11.922,8.963,18.058,13.191
		c5.531,3.811,11.322,7.244,17.002,10.837c1.518,0.96,3.075,1.862,4.571,2.854c9.656,6.399,20.434,10.69,30.523,16.272
		c4.725,2.615,9.364,5.4,13.932,8.283c6.248,3.944,12.979,6.842,19.997,8.939c4.261,1.274,8.439,2.568,12.534,4.366
		c5.708,2.508,11.712,4.333,17.513,6.642c2.191,0.872,4.201,2.226,6.239,3.451c3.808,2.289,7.838,4.312,11.304,7.043
		c6.582,5.188,14.08,6.248,22.068,6.171c11.778-0.114,23.557-0.057,35.336-0.02c8.378,0.026,16.434,1.661,24.222,4.803
		c3.888,1.569,7.906,2.829,11.902,4.116c4.565,1.471,9.331,0.984,13.993,0.985c12.517,0.002,25.034-0.464,37.55-0.437
		c5.269,0.011,10.536,1.12,15.806,1.141c6.89,0.028,13.19,1.955,19.557,4.304c10.053,3.708,20.377,6.596,30.957,8.446
		c3.245,0.567,6.461,0.312,9.623-0.698c5.047-1.612,10.12-3.143,15.171-4.744c4.146-1.314,8.324-2.165,12.716-2.445
		c5.508-0.351,10.977-1.369,16.448-2.193c2.904-0.437,5.743-0.477,8.567,0.434c4.184,1.35,8.088,0.385,11.794-1.628
		c4.956-2.693,10.436-3.671,15.845-4.721c11.204-2.175,22.473-4.011,33.697-6.086c6.028-1.114,12.007-2.49,18.032-3.62
		c1.505-0.282,3.191-0.406,4.639-0.021c2.685,0.713,5.246,0.251,7.837-0.179c1.616-0.268,2.8-0.821,3.959-2.447
		c1.282-1.798,3.905-2.643,5.952-3.889c3.482-2.12,7.163-3.97,10.417-6.394c7.564-5.636,15.845-10.051,24.077-14.534
		c7.495-4.082,15.276-7.637,22.789-11.687c9.869-5.32,20.084-9.764,30.819-12.978c5.161-1.545,9.711-4.151,13.843-7.516
		c4.445-3.62,8.685-7.499,13.23-10.985c3.231-2.478,6.703-4.702,10.268-6.676c11.466-6.345,22.872-12.831,34.605-18.651
		c7.528-3.734,15.174-7.221,22.474-11.403c1.353-0.775,2.702-1.557,4.026-2.381c0.503-0.313,1.341-0.771,1.324-1.13
		c-0.129-2.793,2.317-2.543,3.692-3.476c1.491,0.749,2.848,1.43,4.062,2.04c0.154,0.417,0.366,0.697,0.297,0.847
		c-1.538,3.343-1.347,6.745-0.519,10.22c0.276,1.156,0.241,2.395,0.278,3.598c0.299,9.724,0.599,19.449,0.863,29.174
		c0.195,7.189,0.332,14.379,0.509,21.568c0.02,0.805,0.129,1.608,0.251,3.059c1.245-1.103,2.084-1.861,2.939-2.6
		c2.894-2.505,5.483-5.554,8.75-7.402c10.2-5.769,17.886-14.051,24.821-23.235c3.258-4.314,6.705-8.485,10.001-12.77
		c2.188-2.844,4.197-5.827,6.402-8.656c2.311-2.965,5.198-5.27,8.378-7.307c1.777-1.138,3.135-2.93,4.686-4.424
		c6.66-6.419,11.362-14.275,16.121-22.078c6.257-10.259,12.301-20.653,18.74-30.796c2.293-3.612,5.679-6.51,8.2-10
		c4.432-6.138,8.608-12.462,12.826-18.752c0.726-1.083,1.37-2.33,1.639-3.59c1.196-5.586,4.003-10.522,6.135-15.729
		c0.634-1.549,1.365-3.085,1.77-4.698c2.565-10.22,6.89-19.742,11.391-29.203c0.617-1.298,1.023-2.699,1.485-4.066
		c0.191-0.566,0.132-1.25,0.421-1.744c3.979-6.809,5.808-14.747,11.334-20.785c2.234-2.44,3.705-5.605,5.386-8.519
		c3.184-5.521,6.293-11.085,9.372-16.665c0.51-0.923,0.989-2.007,1.017-3.029c0.265-9.813,3.121-19.185,4.867-28.739
		c1.315-7.196,3.107-14.304,4.649-21.459c0.302-1.402,0.554-2.836,0.614-4.264c0.162-3.887,1.114-7.514,2.502-11.175
		c2.301-6.066,4.168-12.319,4.262-18.915c0.074-5.239,2.907-9.622,4.425-14.409c2.138-6.745,4.641-13.375,6.789-20.118
		c0.489-1.533,0.213-3.326,0.204-4.999c-0.019-3.459-0.117-6.917-0.141-10.376c-0.014-2.039,0.068-4.078,0.074-6.117
		c0.004-1.42-0.251-2.872-0.038-4.256c0.733-4.773-0.274-9.255-1.569-13.826c-2.32-8.189-4.264-16.484-6.348-24.739
		c-0.498-1.974-1.084-3.943-1.358-5.951c-0.404-2.965-0.616-5.96-0.813-8.949c-0.169-2.563-0.814-4.867-2.173-7.134
		c-1.596-2.662-2.569-5.689-3.984-8.469c-2.169-4.264-4.325-8.549-6.784-12.647c-2.511-4.186-4.215-8.594-5.171-13.362
		c-0.244-1.217-0.925-2.471-1.735-3.428c-3.091-3.654-6.31-7.201-9.496-10.774c-0.868-0.974-1.715-1.988-2.701-2.832
		c-4.426-3.79-5.763-8.57-2.981-14.16c2.368-4.758,5.509-8.971,9.189-12.8c4.586-4.771,9.013-9.701,13.725-14.343
		c3.93-3.871,8.159-7.438,12.285-11.107c0.897-0.797,1.976-1.389,2.873-2.185c2.312-2.054,3.77-4.37,3.77-7.756
		c-0.002-7.812,0.434-15.623,0.617-23.437c0.093-3.972-0.152-7.958,0.069-11.921c0.326-5.856,0.815-11.708,1.448-17.539
		c0.595-5.479,1.279-10.963,2.286-16.377c0.607-3.262,0.594-6.435,0.303-9.685c-0.487-5.433-2.772-10.145-5.697-14.602
		c-1.712-2.61-3.324-5.334-5.367-7.668c-4.597-5.252-7.695-11.274-9.909-17.81c-0.677-1.998-1.365-3.863-4.342-3.471
		c0-1.611-0.196-2.949,0.035-4.209c0.818-4.453-1.057-8.247-2.868-12.01c-2.964-6.159-6.143-12.214-9.163-18.347
		c-1.37-2.782-2.579-5.645-3.858-8.472c-0.149-0.329-0.352-0.652-0.415-0.999c-0.86-4.696-1.667-9.401-2.558-14.091
		c-0.426-2.242-0.789-4.53-1.544-6.669c-4.602-13.045-7.403-26.591-11.178-39.865c-1.576-5.541-2.517-11.259-3.93-16.85
		c-0.643-2.543-1.788-4.955-2.606-7.458c-1.827-5.589-3.4-11.268-5.422-16.783c-3.944-10.758-6.288-21.9-8.358-33.115
		c-1.743-9.445-3.338-18.917-5.035-28.371c-0.166-0.925-0.443-1.888-0.909-2.693c-6.356-10.968-9.949-22.94-12.205-35.271
		c-1.504-8.222-3.683-16.078-7.189-23.69c-2.453-5.326-4.502-10.961-5.795-16.67c-2.344-10.346-5.71-20.3-9.639-30.114
		c-4.248-10.611-8.257-21.318-12.573-31.9c-1.827-4.479-1.445-9.219-2.324-13.799c-1.191-6.203-3.374-11.78-7.417-16.873
		c-6.465-8.143-14.447-14.698-21.581-22.121c-5.663-5.892-10.785-12.342-12.65-20.661c-0.341-1.52-0.879-3.065-0.842-4.586
		c0.092-3.827-0.88-7.319-2.383-10.797c-1.425-3.297-2.326-6.819-3.747-10.117c-0.782-1.814-1.967-3.55-3.309-5.009
		c-4.137-4.501-8.462-8.83-12.665-13.272c-2.317-2.448-4.586-4.946-6.792-7.494c-6.608-7.633-13.258-15.232-19.735-22.975
		c-7.486-8.947-14.107-18.543-20.609-28.216c-1.297-1.93-2.835-3.367-5.026-4.432c-5.275-2.563-10.453-5.256-15.143-8.97
		c-3.513-2.782-7.882-4.494-11.9-6.626c-2.102-1.115-4.426-1.801-5.838-4.013c-0.542-0.849-1.592-1.466-2.533-1.955
		c-11.658-6.066-22.898-12.758-33.172-21.032c-2.785-2.243-5.981-4.106-9.236-5.605c-4.458-2.053-8.051-5.187-11.696-8.287
		c-3.862-3.285-8.112-5.865-12.64-8.139c-5.825-2.925-11.934-5.052-18.11-6.977c-2.359-0.735-4.987-0.809-7.495-0.83
		c-9.425-0.078-18.712-1.218-27.864-3.405c-4.436-1.06-8.798-2.423-13.223-3.532c-5.488-1.376-9.895-4.884-14.832-7.344
		c-6.883-3.43-13.748-6.897-20.591-10.333c-3.393,1.914-1.71,6.619-4.984,8.988c-0.604-1.949-1.196-3.407-0.732-5.324
		c0.859-3.545,0.019-4.946-3.595-5.981c-5.764-1.652-11.608-3.025-17.412-4.54c-2.675-0.698-5.359-1.378-7.997-2.2
		c-2.861-0.89-5.652-1.977-8.731-1.93c-0.812,0.013-1.684-0.267-2.437-0.612c-7.774-3.56-15.9-2.76-24.065-2.175
		c-9.687,0.694-19.398,1.054-29.094,1.637c-8.268,0.497-16.579,0.803-24.733-0.618c-8.641-1.507-17.401-1.384-26.046-2.64
		c-2.45-0.356-5.046-0.17-7.518,0.176c-6.536,0.914-13.118,1.917-19.294,4.246c-4.439,1.674-8.585,4.172-12.76,6.487
		c-4.304,2.388-8.398,5.164-12.76,7.432c-1.722,0.895-3.905,0.977-5.903,1.251c-4.751,0.652-9.51,1.257-14.278,1.77
		c-6.003,0.647-11.723,2.554-17.595,3.75c-5.726,1.167-11.534,1.905-17.436,2.12c-5.243,0.191-10.495,1.108-15.664,2.11
		c-7.717,1.495-15.488,2.101-23.318,2.228c-1.309,0.021-2.621-0.172-3.932-0.272c-6.995-0.535-13.935-0.195-20.83,1.166
		c-9.167,1.809-18.429,1.63-27.64,0.694c-7.978-0.811-15.858,0.07-23.757,0.602c-8.662,0.583-16.857,3.387-25.071,5.991
		c-0.342,0.109-0.849,0.016-1.042,0.23c-3.427,3.799-7.464,1.682-11.334,1.218c-2.97-0.356-5.939-0.856-8.919-0.945
		c-1.459-0.044-3.119,0.4-4.383,1.141c-7.66,4.493-15.334,8.977-22.811,13.765c-10.62,6.802-21.82,12.552-32.835,18.643
		c-2.103,1.163-4.22,2.304-6.284,3.533c-0.92,0.548-1.819,1.197-2.567,1.957c-5.382,5.468-10.683,11.014-16.09,16.457
		c-3.119,3.139-6.324,6.199-9.6,9.173c-6.294,5.713-12.614,11.4-19.018,16.988c-7.954,6.941-15.806,14.02-24.064,20.585
		c-9.328,7.416-17.853,15.643-26.3,24.002c-11.18,11.063-21.751,22.658-31.54,34.966c-0.825,1.037-1.703,2.055-2.365,3.193
		c-3.255,5.596-8.151,9.659-12.741,14.05c-4.93,4.717-9.714,9.607-14.295,14.663c-4.821,5.321-9.383,10.882-13.954,16.425
		c-3.722,4.513-7.29,9.154-10.94,13.755c0.586,0.641,1.042,1.141,1.648,1.803c-0.516,0.075-0.875,0.245-1.108,0.139
		c-0.979-0.444-1.742-0.327-2.609,0.392c-4.035,3.345-8.361,6.377-12.135,9.988c-3.358,3.213-6.134,7.035-9.159,10.594
		c-4.193,4.933-8.082,10.17-12.649,14.727c-5.146,5.136-8.343,11.394-11.696,17.612c-2.395,4.442-4.648,8.966-6.799,13.532
		c-2.04,4.33-3.822,8.78-5.8,13.14c-1.119,2.467-2.453,4.835-3.593,7.293c-0.59,1.273-1.248,2.508-0.228,4.054
		c0.923,1.398,0.356,2.759-1.186,3.699c-1.923-0.707-2.925-1.889-3.365-4.111c-0.598-3.021-1.74-5.972-2.949-8.826
		c-2.873-6.785-7.247-12.678-11.518-18.611c-5.191-7.211-8.248-15.441-11.329-23.642c-3.54-9.422-6.764-18.964-10.347-28.369
		c-0.905-2.376-2.813-4.361-1.155-7.157c0.194-0.327-0.619-1.41-1.149-1.968c-0.687-0.724-1.558-1.273-2.801-2.252
		c2.975,0.66,5.308,1.177,7.76,1.721c1.133-1.53,2.302-2.776,3.085-4.23c2.552-4.738,5.2-9.396,7.263-14.427
		c1.958-4.775,5.745-8.525,9.808-11.814c0.733-0.593,1.563-1.137,2.109-1.879c3.126-4.244,6.183-8.539,9.257-12.822
		c3.817-5.316,7.623-10.639,11.449-15.949c0.339-0.471,0.814-0.842,1.185-1.293c1.195-1.456,2.549-2.82,3.512-4.418
		c1.423-2.36,2.534-4.906,3.842-7.338c0.394-0.733,0.905-1.458,1.521-2.01c6.254-5.604,11.067-12.504,16.766-18.584
		c5.568-5.94,10.923-12.181,17.569-17.026c1.146-0.836,2.523-1.632,3.883-1.831c1.945-0.285,3.245-1.324,3.839-2.888
		c2.6-6.838,8.237-11.102,13.224-15.896c5.189-4.988,10.526-9.822,15.845-14.672c1.233-1.124,2.713-1.975,3.989-3.058
		c4.203-3.567,8.46-7.079,12.51-10.815c2.751-2.538,5.907-4.099,9.47-4.865c2.278-0.489,3.52-1.743,4.166-3.927
		c0.948-3.204,2.926-5.702,5.652-7.643c8.978-6.391,17.983-12.745,26.885-19.239c5.032-3.671,9.911-7.555,14.805-11.412
		c2.497-1.968,5.238-3.437,8.327-4.039c1.995-0.388,3.593-1.383,4.076-3.122c1.048-3.773,3.979-5.465,6.911-7.372
		c6.241-4.062,12.391-8.262,18.59-12.388c5.171-3.442,10.332-6.899,15.545-10.275c4.107-2.659,4.772-2.794,9.466-2.756
		c1.113-1.431,2.248-2.943,3.437-4.411c2.793-3.448,7.018-4.534,10.757-6.378c10.091-4.977,20.243-9.832,30.376-14.725
		c3.358-1.621,6.737-2.961,10.607-3.121c1.564-0.064,3.337-1.325,4.543-2.517c2.697-2.665,5.745-4.485,9.292-5.837
		c6.154-2.345,12.149-5.104,18.22-7.668c4.856-2.052,9.727-4.066,14.586-6.11c4.843-2.037,9.71-4.024,14.511-6.157
		c4.69-2.084,9.383-2.846,14.26-0.539c2.014-1.794,4.089-3.423,5.898-5.306c2.383-2.479,5.515-3.299,8.59-4.133
		c10.263-2.784,20.561-5.436,30.86-8.087c5.44-1.4,10.893-2.754,16.366-4.016c4.74-1.093,9.492-2.17,14.284-2.987
		c3.623-0.618,6.142,0.287,9.242,2.732c1.282-0.878,2.721-1.701,3.969-2.75c3.523-2.962,7.432-4.281,12.13-4.424
		c7.053-0.214,14.08-1.223,21.125-1.813c4.779-0.4,9.569-0.659,14.353-0.988c6.793-0.468,13.58-1.055,20.38-1.37
		c3.856-0.178,7.902-0.028,10.988,2.593c2.427,2.061,4.4,1.028,6.511,0.004c1.802-0.875,3.441-2.087,5.242-2.966
		c1.05-0.513,2.279-0.944,3.424-0.933c6.365,0.06,12.728,0.25,19.091,0.434c1.765,0.051,3.537,0.415,5.286,0.312
		c2.702-0.16,5.387-0.614,8.082-0.912c0.955-0.105,1.982-0.359,2.871-0.132c6.462,1.647,13.081,0.76,19.605,1.321
		c4.405,0.378,8.486,1.481,11.652,5.035c1.356-0.702,2.713-1.41,4.074-2.107c2.435-1.248,4.906-1.528,7.674-1.049
		c6.861,1.187,13.766,2.132,20.668,3.061c6.29,0.847,12.6,1.553,18.903,2.305c0.956,0.114,1.921,0.177,2.883,0.204
		c5.943,0.167,7.726,0.775,12.469,4.394c4.561-3.505,9.885-2.117,15.43-1.656c-0.997-3.665,1.121-4.887,4.233-5.615
		c0.682,4.057,3.85,5.135,7.635,5.663c0.316-0.341,0.769-0.724,1.092-1.197c0.961-1.409,2.141-2.197,3.941-1.766
		c0.44,0.105,0.95-0.087,1.428-0.144c7.465-0.88,14.332,0.725,20.647,4.833c1.707,1.11,3.504,2.179,5.402,2.882
		c10.262,3.798,19.777,9.239,29.851,13.446c6.87,2.869,13.7,5.83,20.541,8.767c0.994,0.427,2.17,0.734,2.878,1.467
		c2.595,2.684,5.854,3.084,9.282,3.059c3.324-0.024,6.185,1.035,9.146,2.666c7.892,4.347,16.027,8.254,24.088,12.292
		c8.028,4.021,16.084,7.987,24.126,11.981c0.538,0.267,1.159,0.459,1.578,0.857c2.583,2.455,5.398,3.848,9.186,3.916
		c2.157,0.039,4.354,1.715,6.407,2.878c4.065,2.304,8.118,4.646,12.041,7.18c11.402,7.366,22.731,14.846,34.109,22.249
		c1.264,0.822,2.662,1.438,4.166,2.239c0.176,2.908,2.547,5.836,5.529,6.495c0.35,0.077,0.717,0.095,1.077,0.113
		c7.629,0.383,13.719,4.588,20.113,8.058c2.591,1.406,4.333,3.605,6.237,5.777c5.082,5.795,10.655,11.088,16.828,15.776
		c4.779,3.629,9.299,7.615,13.76,11.636c1.271,1.145,1.933,2.965,3.182,4.969c5.21,0.472,8.615,4.228,11.799,8.739
		c2.249,3.186,5.511,5.652,8.282,8.478c8.334,8.498,16.612,17.052,25.005,25.492
		C1150.052,210.755,1150.093,212.651,1149.993,214.833z"/>
	<path d="M917.099,370.647c-0.631-0.312-1.262-0.624-1.894-0.936c0.132-0.248,0.265-0.497,0.397-0.745
		c0.616,0.34,1.232,0.679,1.847,1.019C917.333,370.206,917.216,370.427,917.099,370.647z"/>
</g>
</svg>
