<?xml version="1.0" encoding="utf-8"?>
<!-- Generator: Adobe Illustrator 18.1.1, SVG Export Plug-In . SVG Version: 6.00 Build 0)  -->
<svg version="1.1" id="Layer_1" xmlns="http://www.w3.org/2000/svg" xmlns:xlink="http://www.w3.org/1999/xlink" x="0px" y="0px"
	 viewBox="0 0 595.3 595.3" enable-background="new 0 0 595.3 595.3" xml:space="preserve">
<path d="M-1054.6,32.1c-7.9-1.3-15.8-1.1-23-4.3c1.3-3.5,3.5-2.9,5.5-2.7c3.8,0.6,7.5,1.4,11.3,1.9c2,0.3,4.1,0,6.4,0
	c0.6-6.7,1.1-13.2,1.7-19.9c-4.3-1.1-8.5-2.1-12.5-3.3c-1.9-0.6-3.9-1.6-5.5-2.7c-0.6-0.4-1.1-2.2-0.7-2.8c0.4-0.7,1.8-1.1,2.8-1
	c1.2,0.1,2.4,0.8,3.6,1.3c4.3,1.8,8.7,3,13.8,3.4c0.8-2.3,1.6-4.5,2.2-6.8c0.2-0.8,0.1-2-0.4-2.6c-1.6-1.7-1.2-3,0.4-4.5
	c0.7-0.6,1.2-1.5,1.7-2.3c1.3-2.1,3.1-2.6,5.4-1.7c0.6,0.2,1.2,0.4,1.8,0.7c8.6,4.1,18,5.4,27.3,6.7c2.2,0.3,4.4,0.9,6.6,1.3
	c0.1-0.4,0.1-0.7,0.2-1.1c-1.5-0.3-3-0.7-4.5-1.1c-1.5-0.4-3.2-0.6-4.6-1.2c-3.5-1.6-3.5-3.6,0.1-6.5c1.6,4.1,5.5,4.2,9,5.1
	c18.2,4.8,36.4,9.8,54.7,14.1c14.3,3.3,28.8,5.7,43.3,8.4c17.9,3.3,35.8,6.5,53.7,9.9c21,4,42.1,8,63.1,12.2c15,3,30,6.4,45,9.5
	c15.7,3.2,31.4,6.1,47,9.2c25.8,5.2,51.7,10.5,77.5,15.7c23.5,4.7,47,9.1,70.6,13.6c29.8,5.7,59.6,11.5,89.4,17.2
	c28.9,5.6,57.7,11.1,86.6,16.8c18.8,3.7,37.6,7.7,56.4,11.3c19.3,3.7,38.7,7,58,10.4c27.2,4.8,54.1,11,81.2,16.7
	c12.3,2.6,24.9,4.3,37.3,6.3c3.8,0.6,7.6,0.5,11.4,0.8c4.5,0.3,8.9,0.7,13.3,1.1c3.7,0.4,7.3,0.8,10.9,1.3c2.2,0.3,4.4,0.6,6.6,1.2
	c13.6,3.6,27.1,7.6,40.8,10.7c13.2,2.9,26.6,5.7,40.1,6.9c9.5,0.9,18.6,2.6,27.7,4.9c7.4,1.9,15.1,2.3,22.3,5.1
	c2.9,1.1,6.3,0.6,9.4,1.3c5.3,1.1,10.5,2.6,15.8,3.6c20,3.7,39.9,7.7,59.9,10.6c42.2,6.2,84.1,14.6,126.1,22
	c42.5,7.5,85,15,127.4,22.6c39.2,7,78.3,14,117.5,21c20.3,3.6,40.6,7.3,60.9,10.6c7,1.1,14.3,1,21.3,2c15.2,2.3,30.3,4.7,45.4,7.5
	c42.8,7.7,85.5,15.8,128.3,23.4c24.9,4.4,49.9,8.1,74.7,12.4c27.6,4.8,55,10,82.6,14.9c21.6,3.8,43.1,7.9,64.7,11
	c27.2,4,54.2,9,81,15.1c9.8,2.3,19.8,3.5,29.7,5.3c14,2.5,28,5,42.3,7.6c0,2.7,1.8,3.3,4.2,3.7c30.7,5.5,61.3,11.1,92,16.5
	c18.9,3.3,37.8,6.4,56.7,9.6c17.5,3,35,6.1,52.4,9c19.9,3.3,39.7,6.6,59.6,9.9c22.8,3.8,45.7,7.4,68.5,11.4
	c27.5,4.9,55,10.1,82.5,15.1c14.8,2.7,29.5,5.4,44.3,8c10.8,1.9,21.7,3.5,32.6,5.4c12.1,2.1,24.1,4.3,36.2,6.5
	c14.8,2.6,29.7,4.5,44.3,8.1c16.9,4.1,34.2,6.1,51.2,9.2c17.1,3.1,34.3,6.1,51.5,8.8c13.4,2.1,26.9,3.7,40.3,5.4
	c25.5,3.3,50.8,8,76,13.1c23,4.6,45.9,9.8,69,14.3c14.3,2.8,28.7,4.7,43,7.2c9,1.5,17.9,3.3,26.8,5.1c2.5,0.5,4.9,1.4,7.4,2.1
	c1.5,0.4,3.1,1.2,4.6,1.1c9.4-0.6,18.4,1.6,27.5,3.2c21.2,3.8,42.4,7.7,63.6,11.5c6.3,1.1,12.7,1.9,18.8,3.5
	c5.8,1.5,11.2,4.2,17.3,4.4c0.6,0,1.1,0.5,1.9,0.9c0,4-0.1,7.9,0,11.9c0.1,4.6,0.5,5.1,5,6c5.5,1.1,11,1.9,16.5,3
	c1.5,0.3,3.1,0.8,4.4,1.7c0.6,0.4,1.1,1.8,0.8,2.5c-0.2,0.7-1.4,1.2-2.2,1.5c-0.7,0.2-1.6-0.1-2.3-0.3c-6.4-1.2-12.9-2.5-19.3-3.7
	c-0.5-0.1-0.9,0-1.7,0c0,6.7,0,13.3,0,20.2c5.2,3.6,11.6,5.1,17.9,6.7c0.8,0.2,1.6,0.2,2.4,0.4c1.7,0.6,2.8,1.8,2.3,3.7
	c-0.5,2-2.2,2.1-3.9,1.6c-5.6-1.8-11.2-3.6-16.9-5.4c-1.2-0.4-2.4-0.9-3.7-1.3c-2.7,5.8-4.3,11.6-3.4,18c0.6,3.7-0.5,4.3-3.8,3.3
	c-2.4-0.7-4.9-1.4-7.4-1.7c-10.7-1.5-21.5-2.8-32.2-4.4c-11.8-1.8-23.6-4-35.4-5.9c-19.5-3.3-39.1-6.3-58.6-9.8
	c-24.4-4.4-48.9-8.2-73.5-11c-4.6-0.5-9.3-0.4-13.9-1c-12.6-1.8-25.3-3.6-37.9-5.9c-25.1-4.6-50.2-9.5-75.4-14.2
	c-12.6-2.4-25.1-4.6-37.7-6.9c-15.6-2.8-31.1-5.7-46.7-8.4c-20.6-3.6-41.2-7.3-61.9-10.4c-6.4-1-12.4-2.8-18.6-4.4
	c-4.9-1.2-10-1.8-15.1-2.6c-14.3-2.5-28.7-4.9-43-7.4c-31-5.5-61.9-11.2-92.9-16.7c-20.3-3.6-40.6-7.1-60.9-10.8
	c-19.5-3.6-38.9-7.4-58.4-11c-17-3.1-34-6.1-50.9-9.1c-18.1-3.2-36.1-6.4-54.2-9.5c-26.9-4.6-53.8-9.2-80.8-13.6
	c-15.6-2.5-31.3-4.5-46.9-6.6c-8.8-1.2-17.7-1.9-26.6-3.2c-5.4-0.7-10.7-2.1-16-2.9c-5.5-0.8-11-1.3-16.6-1.9
	c-0.3,0-0.7,0.1-0.9,0.1c-12.9-4.6-26.5-5.3-39.7-8c-19.9-4-39.8-7.7-59.8-11.4c-22.3-4.2-44.6-8.2-66.9-12.3
	c-35.7-6.5-71.3-13.1-107-19.5c-28.2-5.1-56.4-9.9-84.5-14.8c-18.6-3.3-37.1-6.7-55.7-9.9c-16.9-2.9-33.8-5.5-50.6-8.3
	c-19.7-3.3-39.3-6.8-59-10.2c-6.9-1.2-13.8-2.9-20.8-3.3c-15.5-1-30.5-4.7-45.7-7.3c-38.1-6.5-76.2-13.3-114.3-20
	c-31.2-5.5-62.3-11-93.4-16.7c-43.7-8.1-87.3-16.5-130.9-24.7c-27.8-5.2-55.6-10.4-83.5-15.2c-12.6-2.2-25.3-3.6-38-4.9
	c-5.5-0.6-11.2-0.3-16.8-0.1c-10.6,0.2-21-1.3-31.3-3.8c-9.6-2.3-19.4-3.9-29-6.1c-7.3-1.7-14.4-4-20.9-7.9
	c-2.1-1.3-4.7-1.8-7.2-2.4c-25.7-5.7-51.5-11.2-77.3-16.9c-13.4-3-26.6-6.6-40-9.7c-11.2-2.6-22.5-4.6-33.8-7.1
	c-10.8-2.3-21.5-5.1-32.3-7.3c-26.7-5.5-53.5-11.1-80.3-16.2c-9.1-1.7-18.4-2.2-27.6-3.4c-20.1-2.4-40.3-4.6-60.4-7.4
	c-22-3.1-43.9-6.6-65.8-10.2c-17.2-2.8-34.3-5.9-51.5-8.8c-11.3-1.9-22.7-3.4-34-5.6c-33.3-6.4-66.5-13.1-99.7-19.8
	c-29-5.8-57.9-11.7-86.9-17.7c-21.1-4.4-42.1-9.2-63.3-13.4c-23.2-4.6-46.5-8.8-69.7-13.2c-35.9-6.9-71.8-13.9-107.5-22.2
	c-5.6-1.3-11-3.1-16.2-5.6c-1.4-0.7-3.2-0.7-4.5-1.5c-2.6-1.7-6.2,0.5-8.4-2.3c-2.2-2.8-5.6-2.1-8.4-2.7c-7.6-1.6-15.4-2.5-23.1-4.2
	c-8.4-1.8-16.7-4.2-25.1-6.2c-2.5-0.6-3.4-2.3-3.6-4.5c-0.2-2.7-0.2-5.4-0.2-8.1C-1054.6,40.5-1054.6,36.3-1054.6,32.1z"/>
</svg>
