<?xml version="1.0" encoding="utf-8"?>
<!-- Generator: Adobe Illustrator 18.1.1, SVG Export Plug-In . SVG Version: 6.00 Build 0)  -->
<svg version="1.1" id="Layer_1" xmlns="http://www.w3.org/2000/svg" xmlns:xlink="http://www.w3.org/1999/xlink" x="0px" y="0px"
	 viewBox="0 0 595.3 595.3" enable-background="new 0 0 595.3 595.3" xml:space="preserve">
<path d="M162.2,408.7c3.4,0,6.9-0.2,10.3,0c4.9,0.3,8,3.9,11.7,6.5c4.6,3.3,6.6,8.1,8.8,13.2c2.2,5.2,2.8,10.1,2.6,15.5
	c-0.4,11.7-0.4,23.4-0.7,35.1c-0.1,2.8-0.3,5.7-0.9,8.5c-1.1,5-2.2,10.2-4,15c-1.3,3.6-3.7,6.8-5.6,10.2c0,0.1-0.1,0.1-0.2,0.2
	c-4.6,2.3-9.2,4.2-14.5,3.5c-2.2-0.3-4.4-0.5-6.6-0.7c-4.4-0.4-8.6-1.6-12.4-3.8c-5.6-3.2-8.7-8.4-10.9-14.2
	c-2.4-6.4-3.1-13-3.6-19.8c-0.4-5.9-1.7-11.7-2.4-17.6c-1-8-1.8-16,0.3-24c0.4-1.6-0.2-3.4,0.2-5c1.2-4.4,2.1-9.1,4.3-13.1
	c1.5-2.8,4.9-4.6,7.6-6.7c3.1-2.4,6.8-3.4,10.8-2.9C158.6,408.8,160.4,408.7,162.2,408.7C162.2,408.7,162.2,408.7,162.2,408.7z"/>
</svg>
