<?xml version="1.0" encoding="utf-8"?>
<!-- Generator: Adobe Illustrator 18.1.1, SVG Export Plug-In . SVG Version: 6.00 Build 0)  -->
<svg version="1.1" id="Layer_1" xmlns="http://www.w3.org/2000/svg" xmlns:xlink="http://www.w3.org/1999/xlink" x="0px" y="0px"
	 viewBox="0 0 595.3 595.3" enable-background="new 0 0 595.3 595.3" xml:space="preserve">
<path d="M-562.6,89.8c4.2,1.4,3.7-4.4,7.5-4.3c0,1.2,0,2.4,0,4c3.2-0.1,6.3-0.2,9.3-0.5c2.6-0.2,4.5-1.3,4.9-4.3
	c0.1-1.1,1.1-2.1,1.6-3.1c3,1.4,1.2,3.7,2,5.6c2.7,0.1,5.5,0.3,8.6,0.5c0.7-1.3,1.4-2.4,2.5-4.2c0.7,1.7,1.2,2.9,1.8,4.4
	c0.6,0.1,1.3,0.2,2.1,0.2c3.2,0,6.3-0.1,9.5,0c7.5,0.1,14.9,0.2,22.4,0.3c9.6,0.2,19.2,0.4,28.7,0.6c1.4,0,2.9,0.2,4.3,0.2
	c18.7,0.4,37.3,0.9,56,1.3c7.2,0.1,14.3,0,21.5,0.1c3.2,0.1,6.4,0.6,9.5,0.8c13.9,0.5,27.7,1,41.6,1.4c21.4,0.6,42.8,1.2,64.2,1.8
	c7.7,0.2,15.3,0.5,23,0.7c0.5,0,1-0.1,1.4,0c9.9,2.5,20,0.5,30,0.9c30.5,1,61,1.4,91.6,2.1c16.6,0.4,33.2,1,49.8,1.4
	c14.3,0.4,28.7,0.5,43,0.8c12.8,0.3,25.6,0.7,38.3,0.8c21.1,0.3,42.2,0.3,63.3,0.6c6.2,0.1,12.5,0.4,18.7,0.5
	c14.5,0.2,29,0.1,43.5,0.3c16,0.2,31.9,0.7,47.9,1c23.2,0.4,46.3,0.7,69.5,1.2c21.5,0.4,43.1,1.2,64.6,1.6
	c24.6,0.5,49.2,0.7,73.8,1.2c20.1,0.4,40.3,1,60.4,1.3c13.1,0.2,26.2,0,39.3,0.2c12.6,0.2,25.2,0.7,37.8,1
	c8.2,0.2,16.3,0.3,24.5,0.3c11.4,0.1,22.7,0,34.1,0.3c16.6,0.4,33.2,1.1,49.8,1.6c16.1,0.5,32.3,0.9,48.4,1.3
	c12.8,0.3,25.6,0.7,38.3,1c17.9,0.4,35.8,0.6,53.7,0.9c21.3,0.3,42.5,0.7,63.8,1c19.6,0.3,39.3,0.4,58.9,0.8
	c18.2,0.3,36.4,0.7,54.6,1.1c17.1,0.4,34.2,0.9,51.3,1.2c20.1,0.3,40.2,0.4,60.4,0.7c26.7,0.3,53.4,0.6,80.1,1.1
	c17.3,0.3,34.5,1.2,51.7,1.6c24.6,0.5,49.2,0.9,73.8,1.3c22.8,0.4,45.7,0.7,68.5,1.1c24.9,0.5,49.9,1.1,74.8,1.7
	c19.7,0.4,39.3,0.9,59,1.2c11.6,0.2,23.2-0.1,34.9,0c3.8,0,7.6,0.1,11.4,0.4c1.7,0.1,3.3,0.7,4.7,1c0.3,4.9,0.4,9.2,0.7,13.6
	c0.2,2.8-1.7,5.6,0.1,8.4c0.2,0.3-0.2,1.5-0.6,1.7c-3,1.9-2.4,5-2.4,7.8c-0.2,18.2-0.2,36.4-0.3,54.6c-0.2,21.9-0.3,43.8-0.5,65.6
	c-0.1,12.1-0.2,24.1-1.1,36.2c-0.6,7.6,0,15.3-0.2,23c-0.2,13.4-0.6,26.8-0.8,40.3c-0.1,4.1,0.7,8.3,0.6,12.4
	c0,4.3-0.8,8.6-0.9,12.9c-0.3,11.4-0.4,22.9-0.4,34.4c0,1.2,0.6,2.4,0.8,3.6c0.2,1.2,0.6,2.5,0.5,3.7c-0.1,2.4-0.4,4.8-0.7,7.1
	c-0.3,2.8-1.2,5.3-4,6.6c-2.9,1.4-5.2,5.1-9.2,2.5c-8.2,2.1-16.4-1.8-24.7,0.7c-3.2,0.9-6.9,0.1-10.4-0.2c-21-1.8-42.1-1.5-63.2-1.8
	c-27.2-0.4-54.3-1.1-81.5-1.8c-18.9-0.5-37.7-1-56.6-1.6c-2.3-0.1-4.4,0.3-6.3,1.6c-3.7,2.3-7.7,2.9-12,2
	c-13.3-2.8-26.8-3.9-40.4-3.9c-11,0-22-1.2-33-1.6c-7.7-0.3-15.3-0.2-23-0.3c-19.2-0.3-38.4-0.6-57.6-1c-11.3-0.2-22.7-0.5-34-0.7
	c-8.1-0.1-16.3-0.2-24.4-0.3c-6.9-0.1-13.8,0.2-20.6-0.5c-22.4-2.3-44.9-1.9-67.3-2.5c-7.2-0.2-14.4-0.4-21.5-0.5
	c-2.4,0-4.8,0.2-7.2,0.4c-1,0.1-1.9,0.2-2.8,0.2c-8-0.3-15.9-0.8-23.9-1c-18.8-0.4-37.7-0.5-56.5-0.8c-12.9-0.2-25.9-0.8-38.8-1.1
	c-23.1-0.4-46.3-0.7-69.4-1c-17.3-0.3-34.5-0.5-51.8-0.8c-9.6-0.1-19.1-0.2-28.7-0.4c-28-0.6-55.9-1.3-83.9-1.7
	c-12.8-0.2-25.6,0.1-38.4,0c-14.9-0.1-29.7-0.6-44.6-0.6c-8.9,0-17.8,0.6-26.7,1c-1.3,0-2.6-0.1-3.8-0.1c-8-0.2-15.9-0.2-23.9-0.5
	c-5.6-0.2-11.1-1-16.7-1.4c-10.2-0.7-20.4-1.3-30.6-1.8c-6.5-0.3-13.1-0.1-19.6-0.2c-7.8-0.1-15.6-0.1-23.4-0.3
	c-19.8-0.5-39.6-1.2-59.4-1.8c-19.6-0.6-39.3-1.4-58.9-1.9c-14.8-0.4-29.7-0.5-44.5-0.8c-7.2-0.2-14.4-0.6-21.5-0.8
	c-11-0.2-22-0.1-33-0.3c-18-0.3-36-0.7-54-1c-18.5-0.4-37.1-1.1-55.6-1c-23.7,0.1-47.3-2-70.9-1.7c-15.8,0.2-31.4-2.9-47.3-2.1
	c-8.3,0.4-16.6-0.1-24.8-0.4c-4.3-0.2-8.6-0.9-12.9-1c-6.2-0.2-12.4-0.2-18.6-0.3c-11-0.3-22-0.6-33.1-0.8c-4.2-0.1-8.3,0.1-12.5,0
	c-13.1-0.3-26.1-0.8-39.1-1c-8.9-0.2-17.9,0-26.8-0.1c-14.8-0.2-29.7-0.4-44.5-0.6c-13.1-0.2-26.1-0.4-39.2-0.6
	c-8.6-0.1-17.2-0.4-25.9-0.5c-6.4,0-12.7,0.3-19.1,0.4c-0.5,0-1-0.1-1.4-0.1c-7-0.5-14-1.1-21-1.3c-14.9-0.5-29.8-1.6-44.6-0.9
	c-13.3,0.6-26.4-1.4-39.6-1.3c-10.9,0.1-21.7-0.6-32.6-0.9c-5.6-0.2-11.2-0.5-16.7-0.5c-1.1,0-2.4,0.5-3.4,1.1
	c-1.9,1.2-3,0.6-3.8-1.2c-0.5-1.3-1.2-2.8-1-4.1c0.6-3.6-0.8-6.5-2.6-9.2c0.5-1.3,1.4-2.3,1.4-3.4c0.3-19.3,0.4-38.5,0.7-57.8
	c0.4-25.7,1-51.4,1.5-77.2c0.1-6.9,0.1-13.7,0.3-20.6c0-1.7,0.4-3.5,0.6-5.2c0.2-1.4,0.5-2.9,0.5-4.3c0.2-15,0.3-30,0.5-45
	c0.2-17.1,0.6-34.1,0.9-51.2c0.1-7.3,0.3-14.7,0.4-22c0.1-6.5,0-13.1,0.3-19.6c0.2-3.4-0.4-6.3-3.1-8.6
	C-562.3,91.4-562.3,90.8-562.6,89.8z"/>
</svg>
