<?xml version="1.0" encoding="utf-8"?>
<!-- Generator: Adobe Illustrator 18.0.0, SVG Export Plug-In . SVG Version: 6.00 Build 0)  -->
<!DOCTYPE svg PUBLIC "-//W3C//DTD SVG 1.1//EN" "http://www.w3.org/Graphics/SVG/1.1/DTD/svg11.dtd">
<svg version="1.1" id="Layer_1" xmlns="http://www.w3.org/2000/svg" xmlns:xlink="http://www.w3.org/1999/xlink" x="0px" y="0px"
	 viewBox="0 0 1190.6 841.9" enable-background="new 0 0 1190.6 841.9" xml:space="preserve">
<g>
	<path d="M626.1,1044.7c0.9,1.4,0.7,2-0.6,3c-0.7-0.6-1.4-1.1-1.5-2.3c-0.1-1-0.9-1.4-2-1.4c-3.4,0.1-6.9,0.4-10.3-0.1
		c-3.7-0.5-7.3-0.7-11-0.6c-2.9,0.1-5.9,0.6-8.8,1c-1.8,0.2-3.6,0.5-5.4,0.7c-2.4,0.4-4.7,0.9-7.1,1.1c-2.2,0.1-4.4-0.1-6.5-0.2
		c-1.6-0.1-3.1-0.5-4.6-0.8c-0.3-0.1-0.7-0.1-1-0.3c-0.9-0.7-2-0.9-3.1-1.3c-1-0.3-1.9-1.4-2.7-2.3c-1.3-1.5-1.5-3.5-1.9-5.3
		c-0.4-2-1.1-3.9-1.4-5.9c-0.2-1.6-0.1-3.2,0-4.8c0.1-1.7,0.4-3.3,0.7-5c0.2-1.3,0.6-2.6,0.8-3.9c0.1-0.5,0.3-0.9,0.3-1.4
		c0-5.1,0-10.2,0-15.2c0-1.2-0.2-2.4-0.3-3.6c0-0.3,0.1-0.5,0.1-0.8c0-0.2,0.2-0.4,0.2-0.5c-0.1-1.2-0.2-2.4-0.3-3.7
		c0-1.1,0.1-2.2,0-3.3c-0.2-1.6,0.7-3.2,0-4.9c-0.3-0.7-0.1-1.6-0.1-2.4c0.1-1.3,0.2-2.7,0.2-4c0-1.5-0.2-3-0.2-4.5
		c-0.1-8-0.2-16-0.3-24c0-1.5-0.1-2.9-0.2-4.4c0-2.3,0-4.5,0-6.8c0-1.8-0.2-3.6-0.2-5.5c0-0.9,0-1.8,0-2.8c0-7.6,0-15.3,0-22.9
		c0-5.2,0-10.3,0-15.5c0-2.6-0.2-5.2-0.3-7.7c-0.1-5,0-10-0.1-15c0-1.4-0.3-2.8-0.3-4.2c-0.1-1.1,0-2.2,0-3.4c0-1.4,0-2.9,0-4.3
		c0.1-2.9,0.2-5.8,0.2-8.7c0-0.6-0.2-1.2-0.2-1.7c0-9,0-18,0-27c0-1.8,0-3.6,0-5.4c0-1.1-0.3-2.2-0.3-3.3c0-1.3,0.2-2.5,0.2-3.8
		c0-1-0.2-1.9-0.2-2.9c0-8.3,0-16.7,0-25c0-0.8-0.1-1.6-0.1-2.4c0-0.9,0-1.8,0-2.6c-0.1-1.8-0.2-3.6-0.2-5.4c0-1.1,0.2-2.2,0.2-3.3
		c0-1.1-0.1-2.2-0.2-3.2c0-1.3,0-2.6,0-3.8c0-1.1,0-2.3,0-3.4c0-1.2,0-2.5,0-3.7c0-1.4,0-2.9,0-4.3c0-12.2,0-24.5,0-36.7
		c0-3-0.1-5.9-0.2-8.9c0-1.7,0.1-3.4,0.1-5.1c0-3.7,0.1-7.3,0-11c0-1.6-0.3-3.2-0.3-4.8c0-2,0.3-4.1,0.3-6.1c0-1.1-0.3-2.1-0.3-3.2
		c0-1.3,0.3-2.7,0.3-4c0-4.7,0-9.3,0-14c0-3.1,0-6.2,0-9.4c0-2.8,0-5.6,0-8.5c0-3.5,0-6.9,0-10.4c0-1.6,0.1-3.1,0-4.7
		c0-1-0.3-1.9-0.3-2.9c0-1.6,0.3-3.2,0.3-4.8c0-1.3-0.2-2.6-0.3-3.9c0-1,0-2,0-3c0-7.8,0.1-15.7,0-23.5c0-1.9,0.1-3.9,0-5.8
		c-0.1-2,0-4,0-6c0-1.3-0.2-2.5-0.2-3.8c0-1.2,0.2-2.4,0.2-3.6c0-1-0.2-2-0.2-3c0-0.9,0.1-1.8,0.2-2.6c0-0.6,0-1.1,0-1.7
		c0-1.8-0.1-3.6-0.2-5.4c0-0.8-0.2-1.6-0.2-2.5c0-1.9,0.2-3.7,0.2-5.6c0-0.9-0.2-1.8-0.2-2.7c0-9.7,0-19.4,0-29c0-3.5,0-7,0-10.5
		c0-2.3,0-4.6,0-7c-0.1-4.7-0.3-9.4-0.3-14.1c-0.1-9.7,0-19.3,0-29c0-12.1,0-24.3,0-36.4c0-2.7,0-5.4,0-8.2c0-1.5-0.3-3.1-0.3-4.6
		c0-0.6,0.2-1.1,0.2-1.7c0-0.7-0.1-1.4-0.2-2.1c0-0.4,0.1-0.8,0.1-1.2c0-1.8-0.1-3.6-0.2-5.5c0-0.7,0.2-1.3,0.2-2
		c0-1.5-0.2-3-0.2-4.5c0-2.2,0.2-4.3,0.2-6.5c0-1.3-0.2-2.7-0.2-4c0-2.4,0-4.7,0-7.1c0-3,0.2-6.1,0.2-9.1c0-11.6-0.1-23.2-0.2-34.7
		c0-3.6,0-7.2,0-10.8c0-0.7,0.4-1.3,0.4-2c0-17.5,0-35,0-52.5c0-3,0.1-5.9,0-8.9c0-1.4-0.3-2.9,0-4.3c0.2-1-0.1-2-0.1-3.1
		c0-2.1,0.1-4.3,0.1-6.4c0-1-0.3-2.1-0.3-3.1c0-1.3,0.1-2.7,0.1-4c0-1.4-0.1-2.8-0.1-4.3c0-0.8,0.2-1.6,0.2-2.4
		c0-0.7-0.1-1.4-0.1-2.1c0-1.7,0-3.4,0-5.1c0-1.6,0-3.3,0-4.9c0-0.9-0.2-1.7-0.2-2.6c0-2.6,0.2-5.2,0.2-7.8c0-1.8-0.2-3.6-0.2-5.5
		c0-13.2,0-26.3,0-39.5c0-2.3-0.1-4.6-0.1-6.9c0-2.5,0.2-5,0.1-7.4c0-2.2-0.2-4.5-0.3-6.7c0-1.2,0.2-2.4,0.2-3.6
		c0-0.7-0.3-1.5-0.3-2.2c0-1.8,0.3-3.6,0.3-5.4c0-2.2-0.3-4.3-0.3-6.5c0-6.1,0-12.2,0-18.3c0-7.8,0-15.7,0-23.5c0-2.1,0-4.2,0-6.3
		c0-1.2-0.1-2.4-0.1-3.6c0.1-2-0.3-3.9-0.3-5.9c0-1.3,0.3-2.6,0.3-4c0-1.2-0.3-2.3-0.3-3.5c0-0.6,0.3-1.1,0.3-1.7
		c-0.1-1.8-0.3-3.5-0.3-5.3c0-1.2,0.1-2.4,0.1-3.6c0-1.1-0.1-2.2-0.1-3.3c0-14.2,0-28.3,0-42.5c0-3.5,0-7.1,0-10.6
		c0-1.2-0.2-2.4-0.3-3.5c0-0.7,0.2-1.4,0.2-2.1c0-1.7,0-3.3,0-5c0-1.1,0-2.2,0-3.3c0-0.9,0-1.8-0.1-2.7c0-0.2-0.1-0.5-0.1-0.7
		c0-3.4,0.1-6.7,0.1-10.1c0-5.6,0-11.1-0.2-16.6c0-0.8,0.1-1.6,0.1-2.4c0.1-2.1-0.3-4.3,0-6.4c0.1-0.6-0.1-1.3-0.2-2
		c0-1,0-1.9,0-2.9c0-1.8,0-3.7,0-5.5c0-1.1-0.2-2.2-0.2-3.3c0-10.8,0-21.6,0-32.4c-0.1-21.1-0.2-42.2-0.3-63.3
		c0-0.9-0.2-1.8,1.2-1.8c0.3,0,0.7-1,0.7-1.5c0.1-1.9,0.3-3.8,0.1-5.6c-0.3-3.6,1.3-5.9,4.4-7.5c1.6-0.8,2.7-2.3,3.5-4
		c0.5-0.9,1.1-1.9,1.9-2.4c1.5-0.8,3.2-1.3,4.8-1.7c0.3-0.1,0.8,0.6,1.3,0.9c-0.3,0.4-0.6,0.9-1,1.2c-0.7,0.4-1.5,0.5-2.2,0.8
		c0,0.1,0,0.2,0.1,0.3c1.8-0.1,3.5-0.3,5.3-0.4c1.9-0.1,3.9-0.1,5.8-0.1c2.3,0,4.6,0.2,6.9,0.1c2-0.1,4-0.3,6-0.5
		c2.1-0.2,4.3-0.6,6.4-0.7c2.7-0.1,5.4,0.1,8.1,0.3c1.9,0.2,3.8,0.5,5.5,1.2c1.2,0.5,2.1,1.6,3.1,2.6c0.9,1,1.6,2.2,2.6,3.2
		c2,2,3.3,4.4,4,7.2c0.4,1.8,0.6,3.5,0,5.3c-0.1,0.2,0,0.5,0,0.7c-0.1,1.6-0.3,3.2-0.3,4.9c0,0.6,0.2,1.2,0.5,1.7
		c0.9,1.5,1.4,3.1,1.3,5c-0.1,2.3-0.2,4.7,0,7c0.8,9,0.1,17.9,0.4,26.9c0.1,4.5,0.2,9.1,0.3,13.6c0,2.2,0,4.3,0,6.5
		c0,1.2,0.3,2.3,0.3,3.5c0,0.8-0.3,1.7-0.3,2.5c0,1.8,0.1,3.6,0.2,5.4c0,0.5-0.2,1.1-0.2,1.6c0.1,4.3,0.2,8.6,0.2,12.9
		c0,2.5,0,5.1,0,7.6c0,3.3,0.1,6.6,0.1,9.9c0,2,0.3,4.1-0.1,6.1c-0.4,2.5-0.1,4.9,0,7.3c0.1,1.5-0.1,2.9-0.2,4.4
		c-0.1,2.5-0.2,4.9-0.2,7.4c0,0.7,0.3,1.4,0.3,2.2c0,2.9-0.1,5.7-0.1,8.6c0,0.6,0.2,1.2,0.2,1.7c0,4.2,0,8.4,0,12.7
		c0,1.5,0,2.9,0,4.4c0.2,4.8,0.4,9.7,0.5,14.5c0,0.9-0.2,1.7-0.2,2.6c0.1,3.1,0.3,6.3,0.3,9.4c0,2.3-0.2,4.5-0.1,6.8
		c0.1,3.9,0.3,7.9,0.3,11.8c0,2.2-0.1,4.4-0.1,6.6c0,0.9,0.3,1.7,0.3,2.6c0,1.9,0,3.9,0,5.8c0,3.4,0,6.7,0,10.1c0,3.4,0,6.8,0,10.2
		c0,2.1-0.1,4.3,0,6.4c0.1,2.5,0.3,5,0.4,7.6c0,1.9-0.3,3.9-0.3,5.8c0,1.1,0.3,2.2,0.4,3.3c0.1,2.3,0,4.7,0,7c0,3.7,0,7.4,0,11.1
		c0,2.6,0,5.2,0,7.8c0,1.5,0,3,0,4.5c0.1,5.2,0.2,10.5,0.3,15.7c0,0.9,0.3,1.8,0.4,2.7c0,1.1-0.1,2.3-0.2,3.4c0,1.2,0,2.3,0,3.5
		c0,1.1-0.1,2.3-0.2,3.4c0,0.2,0,0.4,0,0.6c0.1,2.5,0.1,5,0.2,7.5c0,0.6,0.2,1.2,0.2,1.9c0,9.4,0,18.8,0,28.2c0,2.6,0,5.2,0,7.8
		c0.2,0,0.3,0.1,0.5,0.1c0.1-0.3,0.3-0.6,0.3-0.9c0.1-2.1,0.1-4.2,0.2-6.3c0.1-3.4,0.2-6.8,0.2-10.3c0-13.1,0-26.3,0-39.4
		c0-3.3,0.3-6.6,0.3-9.9c0.1-5,0-10.1,0-15.1c0-6.2,0-12.4,0-18.7c0.1-9.1,0.2-18.2,0.4-27.3c0.1-2.9,0.4-5.8,0.5-8.6
		c0.1-1.6,0.1-3.3,0.2-4.9c0.1-1.8,0.3-3.6,0.4-5.4c0.1-3.5,0.2-7.1,0.4-10.6c0.1-1.5,0.4-2.9,0.6-4.4c0.1-0.6,0.1-1.2,0.1-1.9
		c0.1-3,0.2-6,0.4-8.9c0.1-1.7,0.2-3.4,0.3-5.1c0.2-3.1,0.5-6.2,0.7-9.3c0.2-3.1,0.5-6.1,0.7-9.2c0.3-3.3,0.7-6.6,0.9-9.9
		c0.2-3,0.3-5.9,0.5-8.9c0.2-2.7,0.5-5.4,0.7-8.1c0.2-2.5,0.5-5,0.7-7.4c0.3-2.9,0.5-5.9,0.7-8.8c0.3-3,0.6-6,0.9-9
		c0.3-3.5,0.5-7,1-10.5c0.8-5.6,1.1-11.3,1-16.9c0-5.2,0.4-10.4,0.3-15.6c0-3.5-0.4-7.1-0.7-10.6c-0.2-2.1-0.4-4.1-0.7-6.2
		c-0.5-3.1-1.1-6.3-1.9-9.4c-0.7-2.5-1.7-4.8-2.7-7.2c-0.7-1.9-1.4-3.7-2.4-5.5c-0.9-1.7-2.1-3.3-3-5c-0.9-1.8-1.6-3.6-2.4-5.5
		c-0.7-1.6-1.2-3.2-1.1-5c0.1-1.8,0.2-3.7,0.5-5.5c0.1-0.6,0.7-1.1,1.1-1.5c0.2-0.2,0.5-0.3,0.8-0.4c0.1,0.3,0.1,0.5,0.1,0.8
		c0,1.7-0.2,3.4,0,5.1c0.3,2.1,0.8,4.2,1.4,6.2c0.4,1.5,0.9,2.9,1.6,4.3c0.7,1.4,1.7,2.7,2.4,4.1c0.9,1.7,1.8,3.5,2.6,5.3
		c0.9,2.1,1.9,4.1,2.6,6.3c0.6,1.7,0.9,3.6,1.4,5.4c0.4,1.4,1,2.8,1.3,4.2c0.2,0.9,0.2,2,0.3,2.9c0.3,3.5,0.6,7.1,0.9,10.6
		c0.2,2.5,0.5,5,0.7,7.5c0.1,2.4,0.1,4.8,0.1,7.2c-0.1,4.3-0.1,8.5-0.3,12.8c-0.1,2.2-0.4,4.3-0.6,6.5c0,0.4,0,0.8-0.1,1.2
		c-0.2,1.8-0.5,3.6-0.7,5.5c-0.1,1.1-0.3,2.2-0.4,3.2c-0.1,2.2-0.2,4.4-0.3,6.6c-0.2,2.1-0.5,4.3-0.7,6.4c-0.2,1.6-0.3,3.3-0.4,4.9
		c-0.2,2.4-0.2,4.9-0.4,7.3c-0.2,2.4-0.5,4.7-0.7,7.1c0,0.1,0,0.3-0.1,0.3c-1.1,0.8-0.4,1.8-0.5,2.7c-0.1,1.7-0.2,3.3-0.4,5
		c0,0.2-0.2,0.4-0.2,0.7c-0.2,2.3-0.4,4.7-0.6,7c0,0.7,0.2,1.4,0.2,2c-0.1,1.6-0.4,3.2-0.6,4.9c-0.1,1-0.3,2.1-0.5,3.1
		c-0.1,0.3-0.3,0.7-0.5,1c0.1,1.2,0.4,2.4,0.4,3.6c0,1.7-0.3,3.4-0.3,5.1c-0.1,1.9,0,3.7-0.7,5.6c-0.3,0.9,0,2.1-0.1,3.1
		c0,0.5-0.3,1.1-0.4,1.6c0,0.1,0,0.2,0.1,0.4c0.1,0.5,0.4,1,0.3,1.4c-0.7,2.7-1.2,5.4-1,8.3c0.1,1.3,0,2.7,0,4.1c0,0,0,0.1,0,0.1
		c-1,0.8-0.3,1.9-0.3,2.8c-0.1,2.5-0.2,5-0.4,7.5c-0.2,3-0.6,6.1-0.9,9.1c0,0.5,0.2,1,0.2,1.5c-0.2,2.2-0.6,4.4-0.6,6.7
		c-0.1,1.6,0.3,3.2,0.3,4.9c0,2.8-0.2,5.7-0.3,8.5c0,0.2,0,0.3,0,0.5c0,1.4,0,2.8,0,4.3c0,0.9-0.3,1.8-0.3,2.7
		c0,1.1,0.2,2.3,0.3,3.4c0,1.1,0,2.2,0,3.3c-0.1,1.7-0.5,3.5-0.2,5.1c0.4,2-0.3,4-0.1,5.9c0.1,1,0.3,1.9,0.3,2.9
		c0,0.6-0.3,1.3-0.3,1.9c0,2.6,0.1,5.2,0.1,7.7c0,0.5-0.1,1-0.1,1.5c0,2.6,0,5.2,0,7.8c0,1.4-0.2,2.7-0.3,4c0,0.6,0.2,1.2,0.2,1.7
		c0,1.7,0,3.4,0,5.1c0,0.4,0,0.7,0,1.1c0,1.1,0.1,2.1,0,3.2c-0.1,1.3-0.2,2.7-0.3,4c0,1.4,0,2.9,0,4.3c0,3.2,0,6.4,0,9.6
		c0,1.8,0.1,3.6,0,5.4c-0.1,2.1-0.3,4.2-0.4,6.3c0,1,0.3,2,0.3,3c0,1.5-0.4,3-0.3,4.5c0.1,1.5-0.5,3,0.3,4.5
		c0.2,0.3,0.1,0.9,0.1,1.3c-0.1,2.3-0.5,4.5-0.3,6.8c0.2,1.8,0.1,3.6-0.1,5.4c-0.1,1.6-0.3,3.1-0.3,4.7c0,4.6,0.1,9.2-0.1,13.7
		c-0.1,1.8-0.1,3.6,0,5.4c0,0.7-0.4,1.4-0.3,2.1c0,0.9,0.4,1.9,0.3,2.8c-0.1,1.8-0.3,3.6-0.4,5.5c0,0.5,0.1,1.1,0,1.6
		c-0.1,1.9-0.2,3.8-0.3,5.8c0,0.9,0.2,1.8,0.3,2.6c0,0.4,0.2,0.9,0,1.2c-0.8,1.7-0.2,3.4-0.3,5.1c0,1.6-0.5,3.2-0.2,5
		c0.3,1.8-0.2,3.7-0.3,5.6c-0.1,2.5-0.2,5-0.3,7.5c0,1.1,0,2.2,0,3.3c0,2.6,0,5.2,0,7.8c-0.1,4.5-0.2,9.1-0.4,13.6
		c-0.1,2.1-0.3,4.1-0.3,6.2c0,1,0.2,2.1,0.3,3.1c0,1.1-0.1,2.2-0.1,3.3c0,0.6,0.1,1.2,0.1,1.8c0,4.8,0,9.5,0,14.3
		c0,1.3-0.4,2.5-0.5,3.8c-0.1,0.7,0,1.5,0,2.2c0,1.2-0.1,2.4-0.2,3.6c0,0.2-0.1,0.5,0,0.7c0.5,2.6,0.5,5.1,0.2,7.7
		c-0.1,1.3,0.2,2.7,0.2,4c0,3.3-0.2,6.5-0.3,9.8c0,0.5,0.3,1.1,0.3,1.6c0,2.8-0.2,5.5-0.2,8.3c0,5,0.2,9.9,0.2,14.9
		c0,0.4-0.2,0.8-0.3,1.2c0,0.1-0.1,0.2-0.1,0.3c0.1,1.5,0.2,3.1,0.3,4.6c0,0.3,0.1,0.6,0.1,1c0,8,0,16,0,24c0,0.5-0.3,1-0.5,1.5
		c-0.5,1.2-0.9,2.5-0.3,3.8c0.1,0.2,0.1,0.5,0.1,0.8c0,1.4,0,2.9,0,4.3c0,0.5-0.3,0.9-0.3,1.4c0,1.5,0.1,3,0.2,4.5
		c0,0.5-0.2,1.1-0.2,1.6c0.1,1.9,0.3,3.8,0.4,5.8c0.1,2.4,0.2,4.9-0.1,7.2c-0.1,1.4-0.5,2.6,0,4c0.2,0.5-0.2,1.2-0.2,1.9
		c0,1.3,0.2,2.5,0.2,3.8c0,3.2,0.1,6.5,0,9.7c-0.1,1.6,0.4,3.1,0.5,4.7c0,0.3,0.2,0.7,0.1,0.9c-0.8,1.9-0.5,3.9-0.5,5.9
		c0,0.7,0,1.4,0,2c0.1,2.1,0.3,4.1,0.3,6.2c0,1.1-0.3,2.2-0.3,3.3c0,3.6,0.1,7.2,0.2,10.8c0,2.2-0.1,4.3-0.2,6.5c0,1.7,0,3.4,0,5.1
		c0,1.6,0.2,3.2,0.3,4.7c0,0.8-0.3,1.6-0.3,2.3c0,1.9,0.3,3.7,0.3,5.6c0,2.3-0.2,4.6-0.3,6.9c0,1.3,0.3,2.5,0.3,3.8
		c0,2.8,0,5.6,0,8.4c0,6,0,12,0,18c0,2.7,0,5.4,0,8.1c0,1.9,0.3,3.8,0.4,5.7c0,0.9-0.2,1.8-0.2,2.7c0,1.1,0,2.3,0,3.4
		c0,1.9,0,3.8,0,5.7c0,1.3,0.1,2.6,0.1,4c0,0.7-0.2,1.4-0.2,2.2c0,1.2-0.1,2.4-0.1,3.6c0,1.3,0,2.6,0.1,3.9c0,1.1,0.2,2.3,0.2,3.4
		c0,0.8-0.1,1.6-0.1,2.3c0,2.9,0,5.8,0,8.8c0.1,4.7,0.2,9.4,0.2,14.1c0,10.1,0,20.3,0,30.4c0,1.7,0.3,3.4,0.3,5.2
		c0,1.5-0.2,2.9-0.3,4.4c-0.1,2.2-0.1,4.3,0,6.5c0.1,2.5,0.1,5-0.2,7.5c-0.2,1.9,0.5,3.9,0.8,5.8c0,0.3,0.2,0.6,0.1,0.8
		c-0.5,0.7-0.4,1.3,0,2.1c0.1,0.2,0.5,1.1-0.5,1.1c-0.1,0-0.1,0.5-0.1,0.7c0,1.2,0,2.5,0,3.7c0,0.2,0,0.4,0,0.6
		c0.1,1.3,0.3,2.7,0.3,4c0,0.9-0.3,1.7-0.3,2.6c0,1.5,0.3,3,0.3,4.5c0,3.2,0,6.3,0,9.5c0,2.4-0.2,4.8-0.2,7.3c0,1.6,0.2,3.2,0.2,4.8
		c0,2.1-0.2,4.3-0.2,6.4c0,1,0.3,2,0.3,3.1c0,1.7-0.3,3.5-0.3,5.2c0,1.7,0.3,3.5,0.3,5.2c0,3.5-0.2,7-0.1,10.4
		c0,2.8,0.3,5.5,0.3,8.3c0,3.7-0.1,7.5-0.2,11.2c0,0.7,0.2,1.5,0.2,2.2c0,0.8-0.2,1.6-0.2,2.3c0.1,2.2,0.3,4.4,0.4,6.6
		c0,0.8-0.3,1.5-0.3,2.3c0,0.9,0.2,1.7,0.1,2.6c0,1.4-0.1,2.9-0.1,4.3c0,0.7,0.2,1.3,0.2,2c0,1-0.1,1.9-0.1,2.9
		c0,0.5,0.3,0.9,0.3,1.4c0,1.6-0.2,3.1-0.2,4.7c0,0.5,0.2,1.1,0.2,1.6c0,2-0.5,4.1-0.1,6c0.4,1.9-0.1,3.6,0,5.5
		c0.3,4.1,0.1,8.3,0.1,12.4c0,3.4,0,6.9,0,10.3c0,2,0.2,4,0.3,6c0,1.5-0.2,3.1-0.2,4.6c0,1-0.1,2,0,3c0,0.2,0.4,0.4,0.5,0.7
		c0.1,0.4,0.3,0.8,0.2,1.1c-0.6,2-1,4-0.1,6c0.1,0.3-0.3,0.7-0.3,1.1c-0.1,1.3-0.2,2.7-0.3,4c0,0.6,0.3,1.2,0.3,1.8
		c-0.1,3.1-0.3,6.1-0.3,9.2c0,2.2,0.4,4.3,0.5,6.5c0,0.7,0.3,1.4-0.3,2.2c-0.3,0.4-0.1,1.4-0.1,2.1c0.1,1.5,0.2,3.1,0.2,4.6
		c0,1.5-0.2,2.9-0.3,4.4c0,0.2,0,0.4,0,0.6c0.1,0.8,0.7,1.5,0.1,2.5c-0.4,0.6-0.1,1.7-0.1,2.6c0.1,0.9,0.3,1.9,0.3,2.8
		c0,1.1-0.2,2.3-0.4,3.4c0,0.1-0.2,0.3-0.1,0.4c1.2,2.8,0.3,5.7,0.5,8.5c0.1,1.7-0.4,3.4-0.5,5.2c0,0.6,0.2,1.2,0.2,1.7
		c0,1.1,0,2.2,0,3.2c0,0.4,0,0.7,0,1.1c0,2.1,0,4.3,0,6.4c0,6.4,0,12.8,0,19.2c0,4.3,0,8.6,0,13c0,3-0.2,5.9-0.2,8.9
		c0,0.9,0.3,1.7,0.2,2.6c-0.2,2.9-0.2,5.8-0.2,8.7c0,5.7-0.1,11.4-0.2,17.1c-0.1,6.4-0.2,12.8-0.3,19.3c0,1.2-0.3,2.4-0.4,3.6
		c-0.1,1.2,0.4,2.4,0,3.6c0,0.1,0,0.2,0,0.4c0,3.6,0,7.1,0,10.7c-0.1,4.5-0.2,8.9-0.3,13.4C627.6,1043.7,627.2,1044.4,626.1,1044.7z
		 M589.7,194.8c-0.6-0.2-1.1-0.3-1.6-0.4c-1.9-0.6-3.4,0.4-4.2,2.2c-0.5,1.2,0.2,1.5,0.9,1.7c0.6,0.2,1.3,0.1,1.9,0
		C588.8,198.2,589.9,196.9,589.7,194.8z M594.9,931.2c0.6-0.8,1.7-1.5,0.9-2.5c-0.6-0.9-1.5-1.6-2.5-2.2c-1.2-0.7-2.9-0.3-3.6,0.7
		c-1,1.5-1.5,2.5-0.7,3.7c0.1,0.2,0.4,0.4,0.6,0.4c0.2,0,0.5-0.3,0.5-0.5c0.1-0.2,0-0.6,0-0.8c-0.1-0.8-0.1-1.7,0.8-2.1
		c0.7-0.3,1.5-0.3,2.4-0.4c0.2,0.5,0.5,1.1,0.8,1.8C594.3,929.9,594.6,930.5,594.9,931.2z M586.5,646.2c2.5,0.2,4.8-1.6,4.1-4.4
		c-1.1,0.2-2.3,0.5-3.5,0.7c-0.8,0.2-1.2,0.8-1,1.6C586.2,644.9,586.4,645.6,586.5,646.2z M589.5,200.6c0.1,0.1,0.2,0.2,0.3,0.3
		c0.6-0.8,1.7-1.1,1.7-2.6C590.8,199.1,590.1,199.9,589.5,200.6z"/>
	<path fill="#FFFFFF" d="M589.7,194.8c0.2,2.1-0.9,3.4-3,3.5c-0.6,0-1.3,0.1-1.9,0c-0.7-0.2-1.4-0.5-0.9-1.7
		c0.8-1.8,2.4-2.7,4.2-2.2C588.6,194.5,589.1,194.6,589.7,194.8z"/>
	<path fill="#FFFFFF" d="M594.9,931.2c-0.3-0.7-0.5-1.3-0.8-2c-0.3-0.6-0.5-1.3-0.8-1.8c-0.9,0.1-1.7,0.1-2.4,0.4
		c-0.9,0.4-0.9,1.2-0.8,2.1c0,0.3,0.1,0.6,0,0.8c-0.1,0.2-0.3,0.5-0.5,0.5c-0.2,0-0.5-0.2-0.6-0.4c-0.8-1.2-0.3-2.2,0.7-3.7
		c0.7-1,2.5-1.4,3.6-0.7c0.9,0.6,1.8,1.3,2.5,2.2C596.5,929.7,595.5,930.4,594.9,931.2z"/>
	<path fill="#FFFFFF" d="M586.5,646.2c-0.1-0.6-0.3-1.3-0.4-2c-0.2-0.8,0.2-1.4,1-1.6c1.2-0.3,2.3-0.5,3.5-0.7
		C591.3,644.7,589,646.4,586.5,646.2z"/>
	<path fill="#FFFFFF" d="M589.5,200.6c0.6-0.7,1.3-1.4,2.1-2.3c0,1.5-1.2,1.8-1.7,2.6C589.7,200.7,589.6,200.6,589.5,200.6z"/>
</g>
</svg>
