<?xml version="1.0" encoding="utf-8"?>
<!-- Generator: Adobe Illustrator 18.0.0, SVG Export Plug-In . SVG Version: 6.00 Build 0)  -->
<!DOCTYPE svg PUBLIC "-//W3C//DTD SVG 1.1//EN" "http://www.w3.org/Graphics/SVG/1.1/DTD/svg11.dtd">
<svg version="1.1" id="Layer_1" xmlns="http://www.w3.org/2000/svg" xmlns:xlink="http://www.w3.org/1999/xlink" x="0px" y="0px"
	 viewBox="0 0 1190.6 841.9" enable-background="new 0 0 1190.6 841.9" xml:space="preserve">
<g>
	<path d="M655.2,1553.4c-1.2,0.6-1.3-0.4-1.7-1.2c-0.9,1.4-2.3,1.2-3.6,1.2c-2.5-0.1-4.9,0.2-7.2,1.4c-0.9,0.5-2.2,0.5-3.3,0.6
		c-2.7,0.1-5.4-0.1-8.1,0.8c-0.9,0.3-1.9,0.2-2.9,0.2c-16.6,0-33.1,0.2-49.7-0.1c-4.8-0.1-9.8-0.1-14.6-0.8
		c-4.1-0.6-8.1-0.5-12.1-0.8c-1.2-0.1-2.3-0.8-3.4-1.2c-1.2-4.2-1.1-8.3-0.9-12.5c0.3-4.1-0.2-8.2-0.3-12.4c0-1.2,0-2.4-0.1-3.6
		c0-1.6-0.1-3.2-0.2-4.7c-0.1-1.3-0.2-2.7-0.2-4c0-3.6,0-7.1,0.1-10.7c0.1-2.8,0.3-5.7,0.3-8.5c0-1.3-0.3-2.5-0.4-3.8
		c-0.1-3,0-6.1,0-9.1c0-1,0-1.9,0-2.9c0.1-2.8,0.3-5.6,0.3-8.4c0-2.3-0.3-4.6-0.3-6.9c0-4,0.3-8,0.2-11.9c-0.1-6-0.4-11.9-0.6-17.9
		c0-1.3,0.1-2.5,0.1-3.8c0-2.3,0-4.6,0-6.9c0-0.4-0.2-0.8-0.1-1.2c0.5-2.8,0.2-5.5,0-8.3c-0.2-2.9,0.3-5.9,0.3-8.8
		c-0.1-5-0.4-10-0.6-15c-0.1-3.1,0-6.2,0-9.3c0-9.7,0-19.4,0.2-29.2c0.1-7.3-0.1-14.7-0.2-22c0-0.7-0.3-1.5-0.8-2.1
		c-0.9-1.3-2-2.4-3.1-3.7c-1.9-2.4-3.5-4.7-3.4-8.1c0.1-8-0.1-16-0.3-23.9c-0.1-4.1-0.3-8.2-0.4-12.3c0-2.9,0.1-5.9,0.2-8.8
		c0-1.3-0.2-2.7-0.2-4c0-10,0-20,0-30c0-12.5-0.1-25.1-0.1-37.6c0-4.1,0-8.3,0-12.4c0-4-0.1-8-0.2-12c0-10.5,0-21,0-31.4
		c0-14.7,0.1-29.4,0.1-44.1c0-7.9,0-15.8-0.1-23.7c0-3.5-0.2-6.9-0.3-10.4c0-3.1,0.2-6.1,0.2-9.2c0-3.6-0.2-7.3-0.3-10.9
		c0-6.6,0.1-13.3,0.1-19.9c0-11.7-0.1-23.4-0.1-35.1c0-1.7-0.4-3.3-0.4-5c0.1-5.4,0.3-10.8,0.3-16.2c0-3.3-0.2-6.6-0.3-10
		c-0.1-3.4,0-6.8,0-10.2c0-3.5,0.2-7,0.2-10.6c0-10.7-0.1-21.4-0.2-32.1c0-10.4,0-20.8,0-31.2c0-10.6-0.2-21.2-0.2-31.8
		c0-14,0.1-27.9,0.1-41.9c0-4.3-0.4-8.6-0.5-12.9c-0.1-14.9-0.1-29.8-0.1-44.6c0-38.6,0-77.2-0.1-115.9c0-6.8,0-13.7,0-20.5
		c0-2.6-0.3-5.2-0.3-7.8c0-3.5,0.2-7.1,0.2-10.6c0-3.3-0.2-6.5-0.1-9.8c0-6,0.2-11.9,0.2-17.9c0-6.5-0.1-12.9-0.2-19.4
		c0-1.2,0.2-2.4,0.2-3.6c-0.1-5.7-0.3-11.5-0.3-17.2c0-6.7,0.2-13.3,0.2-20c0-9.7-0.1-19.4-0.2-29.1c-0.1-11.7-0.2-23.3-0.3-35
		c-0.1-9.5-0.2-19-0.3-28.5c-0.1-5.2-0.2-10.4-0.2-15.7c0-4.7,0.2-9.4,0.2-14.1c0-3.6-0.2-7.1-0.2-10.7c0-9.1,0.1-18.1,0.1-27.2
		c0-4.6-0.1-9.2-0.1-13.8c0-3.5,0.2-7,0.1-10.5c-0.1-9.9-0.2-19.8-0.3-29.6c-0.1-14.2-0.2-28.4-0.4-42.6
		c-0.1-12.4-0.2-24.9-0.4-37.3c-0.1-7-0.2-14.1-0.3-21.1c-0.1-12.3-0.2-24.5-0.4-36.8c-0.2-11.7-0.2-23.5-0.7-35.2
		c-0.6-14.2-0.7-28.3-0.7-42.5c0-6.2-0.1-12.5-0.2-18.7c-0.1-3.3-0.3-6.7-0.3-10c0-0.9,0.4-1.8,0.5-2.7c0.1-1.3,0.2-2.5,0.2-3.8
		c0-1.3-0.3-2.5-0.3-3.8c0-8.7,0-17.4,0-26.2c0-12.6,0-25.2,0-37.8c0-6,0-11.9,0.1-17.9c0-2.5,0.3-5,0.5-7.5c0.2,0,0.4-0.1,0.6-0.1
		c0.2,0.8,0.6,1.5,0.6,2.3c0.1,2.2,0.1,4.5,0.2,6.7c0,0.7-0.1,1.4-0.1,2.1c-0.1,4.1-0.3,8.3-0.3,12.4c0,3.6,0.3,7.1,0.3,10.7
		c0.1,13.3,0.2,26.7,0.2,40c0,3.9,0,7.8,0,11.7c0.1,5.2,0.6,10.4,0.3,15.5c-0.2,4-0.2,7.9-0.2,11.9c0.1,9.6,0.3,19.2,0.4,28.7
		c0.1,10.9,0.2,21.7,0.4,32.6c0.1,7.2,0.3,14.4,0.4,21.6c0.1,9.1,0.3,18.1,0.4,27.2c0.1,5.7,0.1,11.3,0.2,17
		c0.1,9.5,0.2,19,0.3,28.5c0.1,12,0.3,24,0.4,36c0.1,21.9,0.2,43.8,0.2,65.7c0,2.1,0.3,4.1,0.3,6.2c0,5.8-0.2,11.7-0.3,17.5
		c0,0.4,0,0.8,0,1.2c0,6.6,0,13.2,0,19.8c0,3.4,0,6.8,0,10.3c0.1,4.6,0.2,9.3,0.2,13.9c0.1,14.2,0,28.4,0.1,42.6
		c0.1,16.1,0.3,32.2,0.4,48.3c0.1,11.1,0.1,22.2,0.2,33.3c0,6.1,0.2,12.2,0.2,18.3c0,4.9-0.2,9.7-0.2,14.6c0,5.5,0.2,11,0.2,16.5
		c0,12.8-0.2,25.6-0.2,38.4c0,6.6,0.2,13.2,0.2,19.8c0,3.9,0.3,7.8,0.1,11.7c-0.1,3.9,0,7.8,0,11.7c0,4,0,8,0,12c0,4,0,8,0,12
		c0,3.9,0,7.8,0,11.8c0,4,0,8,0,12c0,3.9,0,7.8,0,11.8c0,4-0.1,8,0,12c0.1,4,0.3,7.9,0.4,11.9c0,2.3-0.2,4.6-0.2,6.9
		c0,2.6,0.2,5.2,0.2,7.8c0,6.9-0.1,13.8-0.1,20.7c0,11,0.1,22.1,0.1,33.1c0,2.1-0.3,4.1-0.2,6.2c0,1.6,0.6,3.1,0.6,4.7
		c0,8.4-0.1,16.9-0.2,25.3c0,4.7,0,9.4,0,14.1c0,1.9,0.1,3.8,0.2,5.7c0.1,4.7,0.2,9.4,0.2,14c0,20.1,0,40.2,0.1,60.4
		c0,14.9,0,29.9,0,44.8c0,6.9-0.1,13.9-0.1,20.8c0,9.2,0.2,18.4,0.3,27.5c0,5.1-0.1,10.1,0,15.2c0,4.2,0.2,8.4,0.2,12.5
		c0,4.4-0.1,8.8-0.1,13.3c0,2.5,0.3,5.1,0.3,7.6c0,2.4-0.2,4.7-0.2,7.1c0,1.6,0.3,3.2,0.3,4.8c0,15,0,29.9,0,44.9
		c0,3.1,0.3,6.2,0.3,9.3c0,3.9-0.2,7.8-0.2,11.7c0,5.2,0,10.4,0,15.5c0,8.2,0,16.4,0,24.6c0,5.9,0,11.8,0.1,17.7
		c0,4.4,0.2,8.8,0.2,13.1c0,19.9,0,39.8,0,59.8c0,13.6,0.2,27.3,0.3,40.9c0,1.9,0,3.8,0.2,5.7c0.5,4.5,2.2,8.4,6.3,10.8
		c1,0.5,1,1.3,1,2.2c0,5.4,0,10.9,0.1,16.3c0,0.8,0.1,1.5,0.1,2.3c0.2,0,0.4,0,0.6,0c0-0.9,0-1.8,0.1-2.6c0.1-4.8,0.3-9.5,0.4-14.3
		c0-3.5-0.3-7-0.3-10.5c0-2.9,0.2-5.9,0.2-8.8c0-0.8-0.2-1.6-0.5-2.3c-1.3-2.7-2.6-5.5-3.9-8.2c-0.5-1-1-2-1.4-3
		c-0.9-2.3-1.3-4.7-1.3-7.3c0.1-11.9,0-23.8,0-35.8c0-12.3,0.2-24.6,0.2-36.9c0-10.9,0-21.7,0-32.6c0-4.3,0.3-8.5,0.3-12.8
		c0-3-0.2-6-0.3-9c0-2.2,0.3-4.4,0.3-6.6c0-15.6,0-31.2,0-46.8c0-11.7,0-23.3,0-35c0-10.4,0-20.8,0-31.1c0-4.8,0.3-9.5,0.3-14.3
		c0-1.1-0.2-2.2-0.2-3.3c0-1.9,0.2-3.8,0.1-5.7c0-3.1-0.2-6.1-0.2-9.2c0-2.9,0.3-5.7,0.3-8.6c0-9.3,0-18.5,0-27.8
		c0-5.5-0.2-11-0.2-16.5c0-3.9,0.3-7.8,0.3-11.7c0-3.3-0.2-6.7-0.2-10c0-4.5,0.2-9,0.2-13.4c0-8.4,0-16.8,0-25.2c0-4.1,0-8.1,0-12.2
		c0-2.5,0.3-4.9,0.3-7.4c0.1-10.9,0.1-21.8,0.1-32.7c0-2.7-0.1-5.4-0.1-8.1c0-4.6,0-9.2,0-13.8c0.1-22.4-0.3-44.7-0.1-67.1
		c0.1-12.2,0.1-24.4,0.1-36.6c0-11.8,0-23.5-0.1-35.3c-0.1-9.3-0.3-18.6-0.4-27.9c-0.1-7.3-0.2-14.5-0.3-21.8
		c-0.1-5.8-0.1-11.6-0.2-17.4c-0.1-8.5-0.3-17.1-0.4-25.6c-0.2-12.5-0.4-24.9-0.6-37.4c-0.1-7.7-0.2-15.3-0.3-23
		c-0.1-8.2-0.3-16.3-0.3-24.5c0-4.5,0.2-9.1,0.3-13.6c0-2.6-0.2-5.3-0.2-7.9c0-7.2,0.1-14.3,0.1-21.5c0-8.2,0.1-16.4,0.1-24.6
		c0-4.5,0-8.9,0-13.4c0.1-25.9,0.2-51.8,0.3-77.7c0-5.1,0.2-10.2,0.3-15.3c0.1-9.2,0.3-18.4,0.4-27.5c0.1-17.2,0.2-34.5,0.3-51.7
		c0-4.8,0-9.5,0-14.3c0-6-0.2-12-0.2-18c0-13.8,0.2-27.7,0.2-41.5c0-11.8-0.2-23.6-0.4-35.4c-0.1-4.3-0.3-8.6-0.4-12.9
		c-0.1-3.1,0-6.2,0-9.3c-0.1-7.7-0.3-15.3-0.4-23c-0.1-4.9,0-9.7-0.1-14.6c-0.1-14.2-0.3-28.3-0.3-42.5c0-1.3-0.8-3.1,1.2-3.8
		c0-1.4,0.4-3.1-0.2-4.1c-0.6-1-0.6-1.9-0.6-2.9c0-10.9,0-21.8,0-32.6c0-15,0-30,0-45c0-9.4,0.2-18.8,0.2-28.2
		c0-5.3-0.2-10.7-0.2-16c0-1.8,0.3-3.7,0.3-5.5c0-9.9,0-19.8,0-29.7c0-14,0-28.1,0.2-42.1c0.2-14,0.6-28,1-42.1
		c0.1-2.7,0.3-5.4,0.3-8.1c0-2.7-0.3-5.5-0.3-8.2c0-1.9,0.3-3.8,0.4-5.7c0.1-14.4,0.3-28.7,0.3-43.1c0-8.3-0.2-16.6-0.3-24.9
		c0-2.1,0-4.1,0-6.2c-0.1-8.1-0.3-16.3-0.5-24.4c-0.1-5.7-0.1-11.3-0.2-17c-0.3-12.3-0.8-24.5-1-36.8c-0.2-9-0.1-18-0.1-27
		c0-12.8-0.1-25.5-0.2-38.3c-0.1-5.2,1.4-9.6,6.1-12.4c0.8-0.5,0.8-1.1,0.8-1.9c0-3.5,0-7,0-10.5c0-7.1,0-14.2,0-21.3
		c0-5.1,0.3-10.1,0.3-15.2c0-10.9-0.2-21.9-0.3-32.8c0-4.9,0.1-9.9,0.1-14.8c0-8.3-0.1-16.6-0.1-24.9c0-13.6,0-27.2,0-40.8
		c0-0.9,0-1.8-0.1-2.6c-0.5-4.2-0.6-8.4-0.1-12.6c0.1-0.6,0-1.3,0-1.9c-0.1-3.1-0.3-6.2-0.3-9.3c0-3.2,0.3-6.5,0.2-9.7
		c0-8.4-0.1-16.7-0.3-25.1c-0.1-3.2-0.3-6.3-0.5-9.8c-1.3,0.8-2.4,1.4-3.5,2.1c-0.5,0.3-1.1,0.7-1.6,1c-1.1,0.5-1.9,0-1.9-1.2
		c0-0.4,0-0.8,0.1-1.2c0.1-0.3,0.3-0.5,0.4-1c-1,0.9-2.1,0.4-2.7-0.2c-1.3-1.2-0.3-2.6,0.2-4.2c0.4,0.7,0.9,1.3,1.5,2.2
		c1.4,0.2,3.5-0.5,4.7,1.7c1-0.6,1.8-1.3,2.7-1.7c2-1,4-1.9,6.1-2.8c0.6-0.2,1.4-0.1,2.1-0.1c2,0,3.9,0.1,5.9-0.5
		c2.1-0.6,4.4-0.3,6.7-0.4c0.5,0,1,0.1,1.4,0c2.5-0.6,5.1-0.3,7.6-0.1c1.2,0.1,2.5-0.2,3.8-0.3c0.9-0.1,1.9-0.1,2.8-0.1
		c0.8-0.1,1.6,0,2.3-0.2c1.9-0.7,3.9-0.5,5.9-0.4c2.3,0.2,4.6-0.2,6.9-0.4c2.5-0.3,5-0.7,7.5-1.2c2.5-0.5,5-1.1,7.5-1.5
		c3-0.5,6-0.9,9-1.3c0.6-0.1,1.3,0,1.9,0.1c2.1,0.4,4.2,0.8,6.3,1.3c0.9,0.2,1.5,0.1,2.2-0.4c0.2-0.2,0.5-0.4,0.8-0.5
		c2.7-0.6,5,0.8,7.2,1.9c1.6,0.8,2.3,2.4,2.6,4.1c0.4,2.7,0.9,5.3,1.3,8c0.2,1.6,0.5,3.2,0.5,4.7c0.1,4.3,0.1,8.7,0.1,13.1
		c0,1.7,0.2,3.3,0.2,5c0,2.1-0.1,4.1-0.1,6.2c0.1,4.4,0.4,8.7,0.2,13.1c-0.2,3.8,0.8,7.4,0.7,11.2c0,0.8,0.1,1.6-0.1,2.4
		c-0.4,1.6-0.3,3.1,0.2,4.6c0.2,0.5,0,1.1,0,1.6c-0.5,3,0,4.1,3,6.1c0.1-0.5,0.3-0.9,0.3-1.3c-0.1-4.3-0.2-8.6-0.2-12.9
		c0-2.1,0.3-4.1,0.3-6.2c0-1.7-0.1-3.3-0.1-5c0-4,0-8,0-12c0-6.4,0-12.8,0-19.2c0-1.6,0.3-3.2,0.3-4.8c-0.1-4.1-0.4-8.1-0.5-12.2
		c0-0.8,0.2-1.7,0.5-2.5c0.4-0.7,1.2-0.9,2.1-0.5c0.8,0.4,0.9,1.2,0.6,1.8c-0.7,1.7-0.1,3.5-0.1,5.2c0,1.9,0,3.8,0,5.7
		c0,1-0.1,1.9-0.1,2.9c0,6.5,0,12.9,0,19.4c0,2.6-0.3,5.3-0.3,7.9c0,2.3,0.2,4.6,0.2,6.9c0,3-0.2,6.1-0.3,9.1
		c-0.1,2.4-0.1,4.9-0.1,7.3c0,1.7,0.1,3.3,0.2,5c0.1,1.8,0.4,3.6,0.6,5.4c0.1,1.7,0.1,3.5,0.1,5.2c0.1,2.5,0.3,4.9,0.3,7.4
		c0.1,5.1,0.2,10.2,0.2,15.3c0,4.3-0.4,8.7,0.1,12.9c0.7,5.4,0.1,10.8-0.1,16.1c-0.1,5,0.1,9.9-0.1,14.9c-0.1,4.1-0.6,8.1-0.9,12.1
		c-0.2,3.4-0.1,6.9-0.3,10.3c-0.3,5.8,0.2,11.6-0.6,17.4c-0.7,5-1.1,10.1-0.8,15.2c0.1,2.2-0.2,4.5-0.3,6.7c-0.1,1.5-0.2,3-0.3,4.5
		c-0.3,4.8-0.7,9.7-1,14.5c-0.2,3-0.2,6-0.2,9.1c0,0.7,0.4,1.5,0.9,2.1c1.6,2.1,2.2,4.4,2.1,6.9c-0.1,1.3,0.2,2.7,0.2,4
		c-0.1,7.1-0.2,14.2-0.3,21.3c-0.1,13.6-0.3,27.2-0.3,40.7c0,7.9,0.2,15.8,0.3,23.7c0.1,8.5,0.2,16.9,0.3,25.4
		c0.1,8.3,0.2,16.6,0.3,24.9c0.1,12.4,0.2,24.9,0.4,37.3c0.1,13.1,0.4,26.2,0.5,39.2c0.1,9.3,0,18.7,0,28c0,8.1,0,16.1,0.1,24.2
		c0.1,3.8,0.3,7.6,0.5,11.5c0,0.9-0.1,1.9-0.1,2.8c0.2,3.9,0.4,7.8,0.5,11.7c0.1,2.1,0,4.2-0.2,6.2c-0.5,4.3,0.6,8.6,0.3,12.9
		c-0.2,3.3-0.3,6.5-0.4,9.8c0,0.7,0.1,1.4,0.1,2.1c0.1,2,0.6,4,0.3,5.9c-0.6,3.6-0.6,7.3-0.5,10.9c0,3.4,0.2,6.8,0.2,10.2
		c0,17.1,0,34.2,0,51.4c0,8.5,0.1,17.1,0.2,25.6c0.1,15.7,0.2,31.4,0.4,47.1c0,3.2,0,6.3,0,9.5c0,4,0,8.1-0.1,12.1
		c-0.1,4.4-0.2,8.7-0.2,13.1c0,6.5,0.3,13,0.2,19.5c-0.1,13.1,0.2,26.1,0.1,39.2c-0.1,9.8,0.2,19.6,0.2,29.4
		c0,8.4-0.2,16.9-0.2,25.3c0,9.8,0,19.7-0.1,29.5c0,3.4-0.2,6.8-0.3,10.1c0,1.6,0.3,3.2,0.3,4.7c-0.1,9.7-0.3,19.4-0.4,29.2
		c-0.1,7.9,0,15.8,0,23.7c0,8.2-0.1,16.4-0.1,24.6c-0.1,14.5-0.1,29-0.2,43.6c-0.1,10.2-0.2,20.4-0.2,30.6c0,4.5,0.2,9,0.2,13.4
		c0,4.7,0,9.4,0,14.1c0,9.2-0.1,18.5-0.1,27.7c0,12.4,0.1,24.7,0.1,37.1c0,5.3-0.2,10.5-0.2,15.8c0,3.7,0.1,7.3,0.1,11
		c0,6-0.1,11.9-0.1,17.9c0,4.2,0,8.5,0,12.7c0,6,0,12,0,18c0,4.3,0,8.5,0,12.8c0,2.6-0.3,5.2-0.3,7.8c0,2.2,0.3,4.4,0.3,6.6
		c0,5.2-0.2,10.3-0.2,15.5c0,1,0.3,2,0.3,3.1c0,6.6-0.2,13.1-0.1,19.7c0,10.1,0.1,20.3,0.2,30.4c0,8,0,16,0,23.9
		c0,10.4,0.2,20.7,0.2,31.1c0,4.7-0.2,9.4-0.2,14.1c0,3.1,0.2,6.2,0.2,9.3c0,9.7-0.1,19.3-0.1,29c0,14.2,0.1,28.3,0.2,42.5
		c0.1,7.7,0.3,15.3,0.5,23c0.1,4.2,0,8.5,0,12.7c0,15.7,0,31.4,0,47c0,7.8,0.3,15.6,0.3,23.4c0,8.9-0.1,17.9-0.1,26.8
		c0,8.8,0.1,17.6,0.1,26.4c0,15.6,0,31.2,0,46.8c0,12.4-0.1,24.7-0.1,37.1c0,7,0,14,0,20.9c0,6.9-0.2,13.8-0.2,20.8
		c0,8.1,0.3,16.1,0.3,24.2c0.1,12,0,24.1,0,36.1c0,14.5,0,28.9,0,43.4c0,5.7,0.3,11.4,0.3,17.2c0,9.1-0.1,18.2-0.1,27.3
		c0,6,0.2,12,0.2,17.9c0,5.2-0.1,10.4-0.1,15.6c0,8.7,0.2,17.4,0.2,26.1c0,6.2-0.1,12.4-0.1,18.7c0,2.2,0.2,4.4,0.1,6.7
		c-0.1,3.3-1.1,6.4-2.1,9.6c-1.2,4.1-2.7,8.2-2.6,12.5c0,1.3,0.2,2.7,0.2,4c0,3.3-0.6,6.7,0.3,10c0.1,0.3-0.2,0.8-0.2,1.1
		c0,1.6,0.1,3.2,0.2,4.8c0.1,1.5,0.3,3,0.3,4.5c-0.1,4.9,0.2,9.9-0.1,14.8c-0.2,3.3,0.3,6.7,0.5,10c0,0.5,0.1,1,0,1.4
		c-0.4,3.9,0.2,7.8,0.4,11.6c0.1,1.3,0,2.5,0,3.8c0,2.2,0,4.5,0,6.7c0,3.4-0.1,6.9,0,10.3c0.1,3.1,0.4,6.2,0.6,9.3
		c0.1,2.2,0.3,4.4,0.4,6.7c0.1,3.5,0,7,0.1,10.5c0,2.5,0.1,5.1,0.2,7.6c0.1,3.5,0,7,0.1,10.5c0.1,4.2,0.3,8.4,0.4,12.6
		c0,1.9-0.1,3.8-0.1,5.7c0,0.8-0.1,1.6,0,2.4c0.7,4.8,0.5,9.7,0.4,14.5c-0.1,4.8,0.5,9.7,0.7,14.6c0,0.8,0,1.6-0.1,2.4
		c-0.4,2.3-0.3,4.6,0.1,6.9c0.7,4,0.3,8,0,11.9c-0.1,1.3-0.2,2.5-0.2,3.8c0.1,8.5,0.2,16.9,0.3,25.4
		C655.4,1552.4,655.2,1552.9,655.2,1553.4z M548.5,1380c0,3.5,0,7.1,0,10.6C549.8,1387.1,549.2,1383.6,548.5,1380z M549.4,1420.3
		c-0.1,0-0.3,0-0.4-0.1c0,2.4,0,4.8,0,7.1c0.1,0,0.3,0,0.4,0C549.4,1425.1,549.4,1422.7,549.4,1420.3z M548.7,1364.2
		c0,0.9,0,1.9,0,2.8C549.3,1366.1,549.4,1365.1,548.7,1364.2z M549.1,1373.7c-0.2,0-0.4,0-0.6,0c-0.4,1.3-0.5,2.5,0.4,3.7
		C549,1376.2,549.1,1375,549.1,1373.7z M549.2,1358c-0.2-0.1-0.4-0.2-0.6-0.2c-0.1,0.9-0.2,1.7-0.3,2.6c0.1,0,0.3,0,0.4,0.1
		C548.9,1359.6,549,1358.8,549.2,1358z M549,1433.1c0.1,0.1,0.2,0.1,0.3,0.2c0-1.2,0-2.4,0-3.6c-0.1,0-0.2,0-0.3,0
		C549,1430.8,549,1432,549,1433.1z"/>
	<path fill="#FFFFFF" d="M548.5,1380c0.6,3.6,1.3,7.1,0,10.6C548.5,1387.1,548.5,1383.5,548.5,1380z"/>
	<path fill="#FFFFFF" d="M549.4,1420.3c0,2.4,0,4.7,0,7.1c-0.1,0-0.3,0-0.4,0c0-2.4,0-4.8,0-7.1
		C549.1,1420.3,549.2,1420.3,549.4,1420.3z"/>
	<path fill="#FFFFFF" d="M548.7,1364.2c0.7,0.9,0.6,1.9,0,2.8C548.7,1366.1,548.7,1365.1,548.7,1364.2z"/>
	<path fill="#FFFFFF" d="M549.1,1373.7c-0.1,1.2-0.1,2.5-0.2,3.7c-0.9-1.2-0.8-2.5-0.4-3.7C548.7,1373.7,548.9,1373.7,549.1,1373.7z
		"/>
	<path fill="#FFFFFF" d="M549.2,1358c-0.2,0.8-0.3,1.6-0.5,2.4c-0.1,0-0.3,0-0.4-0.1c0.1-0.9,0.2-1.7,0.3-2.6
		C548.8,1357.8,549,1357.9,549.2,1358z"/>
	<path fill="#FFFFFF" d="M549,1433.1c0-1.1,0-2.3,0-3.4c0.1,0,0.2,0,0.3,0c0,1.2,0,2.4,0,3.6C549.2,1433.2,549.1,1433.1,549,1433.1z
		"/>
</g>
</svg>
