<?xml version="1.0" encoding="utf-8"?>
<!-- Generator: Adobe Illustrator 18.0.0, SVG Export Plug-In . SVG Version: 6.00 Build 0)  -->
<!DOCTYPE svg PUBLIC "-//W3C//DTD SVG 1.1//EN" "http://www.w3.org/Graphics/SVG/1.1/DTD/svg11.dtd">
<svg version="1.1" id="Layer_1" xmlns="http://www.w3.org/2000/svg" xmlns:xlink="http://www.w3.org/1999/xlink" x="0px" y="0px"
	 viewBox="0 0 1190.6 841.9" enable-background="new 0 0 1190.6 841.9" xml:space="preserve">
<g>
	<path d="M692.3,272.5c-1.3-1-3-1-3.9-2.3c0.1-0.1,0.1-0.2,0.2-0.3c1.9,0.7,3.7,1.5,5.6,2.2c2.3,0.8,4.7,1.5,7,2.4
		c3.7,1.4,7.4,2.8,10.8,4.9c4.3,2.7,8.8,5.2,13.2,7.8c3,1.8,6.2,3.3,9,5.3c3.5,2.3,6.8,5,10.2,7.6c0,0.1,0-0.2,0.2-0.2
		c0.4-0.1,0.8-0.2,1.2-0.2c0.1,0.4,0.3,1.1,0.1,1.3c-0.8,1-1.9,1.2-3.2,0.8c0.4,1.6,0.7,3.2,1,4.8c0.4,1.9,0.8,3.8,1,5.6
		c0.3,4.4,0.4,8.8,0.5,13.2c0.1,5.8,0.2,11.7,0.3,17.5c0.1,3.9,0.5,7.8,0.6,11.8c0.1,6.9-0.1,13.8-0.2,20.7c0,10.5,0,20.9,0,31.4
		c0,0.6-0.2,1.2-0.3,1.8c0,0.3-0.1,0.6,0,0.8c0.6,1.6-0.2,3.2,0,4.8c0.2,1.5,0.4,3,0.4,4.5c0.1,2.1,0,4.2,0,6.4c0,0.5,0.1,1.1,0,1.6
		c-0.1,1.3-0.3,2.6-0.4,3.8c0,0.3-0.1,0.6,0,1c0.9,5.1,0.2,10.2,0.4,15.4c0.1,1.7-0.4,3.5-0.4,5.3c0,3-0.1,6-0.1,9.1
		c0,2.7-0.1,5.3-0.3,8c-0.2,3.1-0.5,6.2-0.7,9.2c-0.1,1.3,0,2.7,0,4c-0.2,5.6-0.5,11.2-0.7,16.9c-0.1,2.9-0.2,5.8-0.5,8.7
		c-0.2,2.7-0.5,5.5-1,8.2c-0.6,3-1.8,5.9-2.4,9c-0.4,1.9-1.7,3.5-2.1,5.3c-0.5,2.5-2.4,4.2-3.3,6.6c-0.6,1.6-2.1,2.9-3.1,4.4
		c-0.9,1.2-1.6,2.5-2.6,4.1c-0.5-0.1-1.3-0.3-2.2-0.5c-0.1,1.9-2.2,1.9-3.3,2.9c-2.2,1.9-4.7,3.5-7.3,4.9c-2.6,1.5-5.3,2.8-8.1,3.8
		c-2.9,1.1-5.9,2.1-8.9,2.8c-1.9,0.5-3.9,0.6-5.8,0.8c-13.4,1.4-26.9,0.4-40.3,0.7c-3.8,0.1-7.6,0-11.5,0.1
		c-4.8,0.1-9.6,0.1-14.5,0.2c-6.5,0.1-12.9,0.3-19.4,0.4c-3.6,0.1-7.2,0-10.9,0c-3,0-6.1,0.2-9.1,0.3c-3.9,0.2-7.8,0.4-11.8,0.5
		c-2.6,0.1-5.2,0.1-7.9,0.2c-8.8,0.1-17.7,0.3-26.5,0.4c-1.7,0-3.3,0.2-5,0.3c-2.1,0.1-4.3,0-6.5,0c-5.8,0-11.5,0-17.3,0
		c-1.6,0-3.3,0.2-4.9,0.2c-2.2,0-4.4-0.2-6.6-0.2c-3.4,0-6.8-0.7-10.1-1.4c-3.5-0.7-6.7-2-9.9-3.1c-1.7-0.6-3.2-1.6-4.8-2.5
		c-1.6-0.9-3.1-1.7-4.6-2.8c-1.4-1-2.6-2.2-3.9-3.3c-0.4-0.3-0.9-0.5-1.2-0.9c-2.4-2.6-4.8-5-7-7.8c-1.8-2.3-3.5-4.8-4.9-7.4
		c-1.7-3.3-3.1-6.7-4.4-10.2c-0.8-2.2-1.1-4.6-1.5-6.9c-0.4-1.9-0.9-3.8-1-5.7c-0.2-3.1-0.1-6.1-0.2-9.2c0-1.3-0.3-2.5-0.3-3.7
		c0-7.3,0-14.6,0-21.8c0-3.4,0-6.8,0-10.2c0-1.8-0.3-3.5-0.4-5.3c0-0.7,0.3-1.4,0.3-2.1c0-0.6-0.3-1.1-0.3-1.7c-0.1-1.2,0-2.5,0-3.7
		c0-12.8,0-25.7,0-38.5c0-6.4-0.2-12.8-0.3-19.1c0-1.3,0-2.5,0-3.8c-0.1-1.9-0.3-3.9-0.3-5.8c0-1.8,0.3-3.5,0.3-5.3
		c0-0.5-0.2-1-0.3-1.5c0-0.2-0.2-0.5-0.1-0.7c0.7-1.4,0.2-2.8,0.1-4.3c-0.3-2-0.1-4,0-6c0-2.3,0.1-4.7,0.2-7c0-1.6,0-3.2,0-4.7
		c0-1.5,0.1-2.9,0.1-4.4c0-8.2,0-16.3,0-24.5c0-2.3,0.1-4.7,0.3-7c0.2-2,0.7-3.9,1.1-5.8c0.3-1.4,0.5-2.8,0.8-4.2
		c0.2-0.9,0.4-1.8,0.8-2.5c1.4-2.3,1.8-4.9,3.3-7.2c1.8-2.6,3-5.6,4.6-8.3c0.9-1.4,2.1-2.7,3.2-4c0.8-1,1.6-2,2.5-2.9
		c2-1.8,4-3.6,6.1-5.3c1.4-1.2,3-2.2,4.5-3.2c1.2-0.8,2.5-1.4,3.8-2c1.5-0.7,3-1.5,4.6-2.1c2.9-1.2,5.8-1.9,8.9-2.5
		c3.2-0.7,6.4-1.1,9.7-1.1c2.4,0,4.9-0.2,7.3-0.2c10.6,0,21.2,0.1,31.7,0.2c2,0,4.1,0.3,6.1,0.4c1.5,0,3-0.2,4.5-0.2
		c0.8,0,1.6,0.2,2.4,0.2c6.8,0,13.6,0,20.4,0c4.4,0,8.7,0.2,13.1,0.3c2.2,0.1,4.4,0.4,6.5,0.4c3,0,6-0.2,9-0.3
		c1.6,0,3.2,0.2,4.8,0.3c1.2,0,2.4,0,3.7,0c2,0,4.1,0,6.1,0c9.9,0,19.8,0,29.8,0c2.8,0,5.5,0.2,8.3,0.3c4.1,0.1,8.1,0,12.2,0
		c4.8,0.1,9.7,0.3,14.5,0.4c2.7,0.1,5.3,0.2,8,0.3c0.9,0,1.8,0.2,2.6,0.3C692,272.6,692.2,272.5,692.3,272.5z M484.5,475.4
		C484.5,475.4,484.5,475.4,484.5,475.4c-0.1,2.9-0.2,5.7-0.3,8.6c0,0.3,0.1,0.8,0.4,1c1.6,1.1,3.6,1,5.1-0.1c1-0.8,2-1.5,3-2.3
		c1.9-1.5,3.8-3,5.7-4.6c1.6-1.5,3.1-3.1,4.7-4.6c1-1,2.2-1.8,3.3-2.8c1.3-1.1,1.4-1.8,0.7-3.2c-0.5-1-0.9-2.1-1.4-3.1
		c-0.1-0.2-0.6-0.5-0.8-0.4c-1,0.4-1.3-0.3-1.6-0.9c-1.3-3.2-2.6-6.3-3.8-9.5c-1.1-2.9-2.1-5.8-3.2-8.7c-0.4-1.1-0.6-2.2-0.9-3.4
		c-0.5-2-1.2-4-1.5-6.1c-0.3-2-1.2-3.1-3.2-2.9c-0.9,0.1-1.7,0.6-2.6,1.1c-0.5,0.3-1.1,0.7-1.3,1.1c-0.3,0.8-0.4,1.7-0.4,2.5
		c-0.2,2.9-0.4,5.8-0.6,8.7c-0.2,2.7-0.4,5.4-0.5,8c-0.1,1.7-0.3,3.3-0.3,5c-0.2,3.6-0.3,7.1-0.4,10.7
		C484.4,471.5,484.5,473.4,484.5,475.4z M700,484.7c0.2-2.1,0.5-4.4,0.5-6.6c0.1-8,0-16,0-24c0-0.7-0.2-1.4-0.2-2.1
		c0-1.2,0.2-2.4,0.2-3.5c-0.1-2.2-0.3-4.4-0.4-6.6c-0.1-1.8-0.3-3.6-0.3-5.4c-0.1-2-1.3-3.2-3.3-3c-2.2,0.3-3.3,1.5-3.8,3.7
		c-0.3,1.5-1,2.9-1.6,4.4c-0.6,1.4-1.3,2.7-1.9,4.1c-0.9,1.7-0.9,3.7-2,5.4c-0.9,1.3-1.3,3-2.1,4.4c-1.1,2.1-2.3,4.2-3.5,6.3
		c-0.7,1.2-1.5,2.4-2.4,3.6c-0.7,1-0.7,1.8,0.1,2.7c0.4,0.5,0.8,1,1.2,1.5c1.3,1.5,2.7,2.9,4,4.4c1.3,1.4,2.5,3,4,4.3
		c1.1,0.9,1.5,3.1,3.7,2.1c0.1-0.1,0.4,0,0.5,0.2c0.5,0.5,1,0.9,1.4,1.4c0.5,0.7,1.2,1.4,1.3,2.2c0.2,1.2,0.8,1.2,1.6,1.1
		C698.1,485,699,484.9,700,484.7z M647.8,495.7c-0.4,0.2-0.8,0.3-1.2,0.5c-2,1.2-4,2.4-6.1,3.5c-2,1.1-4.2,2-6.2,3
		c-2.6,1.3-5.2,2.7-8,3.8c-4,1.6-8.1,2.9-11.8,5.1c-1.6,0.9-2.2,1.6-1.6,3.3c0.2,0.8,0.9,1.6,1.6,1.9c0.9,0.4,2.1,0.3,3.2,0.4
		c2.8,0.2,5.5,0.3,8.3,0.4c3.7,0.1,7.3,0.3,11,0.3c4.5,0.1,9.1,0,13.6,0c2.9,0,5.8,0,8.8,0c1.5,0,2.9-0.2,4.4-0.3
		c0.2,0,0.5-0.3,0.7-0.5c0.7-1.2,0.4-3.2-0.8-4.5c-1.9-2.1-3.9-4.2-5.9-6.2c-2.6-2.6-5.2-5.2-7.8-7.8
		C649.1,497.6,648.5,496.7,647.8,495.7z M487.7,388.7c0.1,0,0.2,0,0.4,0c0.5-2.2,0.7-2.3,3-1.7c1.2,0.3,2.4,0.6,3.7,0.8
		c0.7-2,1.5-4,2.2-6c1.1-2.8,2-5.7,3.2-8.4c1.6-3.5,3.6-6.8,5.4-10.2c1-1.9,2-3.7,3.2-5.5c0.4-0.6,0.3-1.1,0-1.6
		c-0.9-1.2-1.8-2.4-2.8-3.5c-1.5-1.8-3-3.6-4.6-5.3c-2.7-2.8-5.5-5.5-8.2-8.3c-0.8-0.8-3.6-0.3-3.8,0.7c-0.3,1.3-0.6,2.7-0.8,4
		c-0.3,3.2-0.5,6.4-0.7,9.5c-0.2,2.8-0.2,5.6-0.4,8.3c-0.1,2.2-0.3,4.5-0.4,6.7c0,4.9,0,9.9,0.1,14.8c0,1.4,0.1,2.7,0.3,4.1
		C487.4,387.8,487.6,388.2,487.7,388.7z M694,392.4c1.2-0.1,2.3-0.1,3.3-0.5c1.1-0.5,2.7-0.8,2.5-2.7c-0.1-0.9,0.2-1.9,0.4-2.8
		c0.4-2.4,0.7-4.7,1.1-7.1c0.1-0.4,0.1-0.7,0.1-1.1c0.3-1.6,0.8-3.2,0.9-4.8c0.2-4.7,0.3-9.4,0.4-14c0.1-5.2,0.1-10.5-0.7-15.7
		c-0.2-1.1-0.4-2.2-1.7-2.5c-0.3,0.2-0.5,0.6-0.8,0.5c-1.5-0.1-2.2,1.3-3.2,2c-2.2,1.6-4.1,3.5-6.2,5.4c-0.8,0.7-1.5,1.5-2.3,2.3
		c-1.9,1.9-3.8,3.7-5.6,5.7c-0.2,0.2-0.3,0.9-0.2,1.2c0.2,0.8,0.6,1.5,1,2.2c0.7,1.5,1.6,3,2.2,4.5c1.4,3.5,2.6,7.1,3.9,10.6
		c0.4,1.1,0.9,2.1,1.2,3.2c0.8,2.8,1.6,5.6,2.4,8.4C693.1,389,693.5,390.6,694,392.4z M569.8,512.8c-1.8-0.4-3.6-1-4.8-2.6
		c-0.1-0.2-0.5-0.3-0.7-0.4c-1.8-0.7-3.5-1.3-5.3-2c-1.5-0.6-3-1.3-4.5-1.9c-5.2-2.1-10.4-4.3-15.1-7.5c-1-0.7-2.2-1.1-3.4-1.5
		c-0.2-0.1-0.6,0-0.8,0.1c-1.5,1.6-3.1,3.2-4.5,4.8c-2.1,2.3-4.1,4.6-6.1,6.8c-1.8,2-3.6,3.9-5.2,6c-0.4,0.5-1.3,1.1-0.8,2.3
		c0.6,1.2,1.5,1,2.4,1c5.3,0.1,10.7,0.3,16,0.4c5.1,0.1,10.2,0,15.3-0.1c3.9-0.1,7.9-0.4,11.8-0.6c1.2-0.1,2.5-0.2,3.7-0.5
		c0.6-0.1,1.3-0.4,1.9-0.6c0.2-0.1,0.5-0.5,0.5-0.8C570.2,514.7,570,513.8,569.8,512.8z M575.4,309.7c-0.9-0.2-1.7-0.5-2.5-0.6
		c-2.1-0.3-4.3-0.5-6.4-0.7c-2.7-0.3-5.5-0.5-8.2-0.7c-2.7-0.2-5.4-0.5-8.1-0.7c-2.5-0.2-5.1-0.2-7.6-0.3c-0.5,0-1.1,0.2-1.6,0.1
		c-1.3-0.2-2.6-0.6-4-0.7c-2.2-0.1-4.4-0.1-6.6-0.2c-1.4-0.1-2.7-0.2-4.1-0.4c-0.3,0-0.6,0-0.8,0.1c-1,0.6-1.7,2.8-1.1,3.8
		c0.8,1.2,1.7,2.3,2.6,3.4c2.6,3.1,5.2,6.2,7.8,9.3c1.3,1.5,2.7,3,4,4.6c0.4,0.5,0.6,0.5,0.8-0.1c0.1-0.2,0.1-0.4,0.1-0.5
		c0.6,0.1,1.1,0.3,1.5,0.1c1.1-0.4,2.2-0.9,3.3-1.5c2.7-1.4,5.2-3,7.9-4.1c3.7-1.5,7.6-2.8,11.5-4.1c3.1-1,6.2-1.7,9.3-2.6
		c0.5-0.2,1.1-0.8,1.4-1.3C574.9,311.6,575.1,310.6,575.4,309.7z M668.5,308.7c-1.4,0-3.1,0-4.8,0c-0.1,0-0.2,0-0.2,0
		c-1.8-0.2-3.5-0.5-5.3-0.5c-2.2,0-4.3,0.5-6.5,0.5c-1.4,0-2.8-0.3-4.2-0.4c-1.2-0.1-2.4,0-3.6,0c-5.8-0.1-11.5-0.2-17.3-0.3
		c-0.3,0-0.5-0.1-0.8-0.1c-1,0.1-2,0-3,0.3c-0.7,0.2-1.3,0.9-2.1,1.5c0.1,0.2,0.5,0.6,0.8,1c0.2,0.3,0.6,0.5,0.6,0.8
		c0.1,1.5,1.3,1.8,2.3,2.2c2.2,0.9,4.5,1.7,6.7,2.7c2.8,1.3,5.7,2.5,8.4,4c3.8,2.2,7.4,4.6,11,6.9c0.2,0.1,0.4,0,0.6,0
		c0-0.2,0-0.4,0-0.6c-0.2-0.5-0.5-1-0.7-1.4c-0.4-0.8-0.3-1.3,0.5-1.8c1-0.5,1.4,0.1,1.6,0.7c0.4,1,0.6,2.1,1,3.2
		c0.6-0.4,1.2-0.8,1.8-1.3c2.3-1.9,4.6-3.8,6.9-5.8c2.9-2.6,5.7-5.4,8.5-8.1c0.6-0.6,0.6-1.2,0-1.7
		C670.1,310,669.4,309.5,668.5,308.7z"/>
</g>
</svg>
