<?xml version="1.0" encoding="utf-8"?>
<!-- Generator: Adobe Illustrator 18.0.0, SVG Export Plug-In . SVG Version: 6.00 Build 0)  -->
<!DOCTYPE svg PUBLIC "-//W3C//DTD SVG 1.1//EN" "http://www.w3.org/Graphics/SVG/1.1/DTD/svg11.dtd">
<svg version="1.1" id="Layer_1" xmlns="http://www.w3.org/2000/svg" xmlns:xlink="http://www.w3.org/1999/xlink" x="0px" y="0px"
	 viewBox="0 0 1190.6 841.9" enable-background="new 0 0 1190.6 841.9" xml:space="preserve">
<g>
	<path d="M693.3,296.3c0.3,0.7,0.7,1.4,0.9,2.2c0.2,0.9,0.3,1.9,0.4,2.9c0.3,1.7,0.6,3.4,0.8,5.1c0.2,1,0.3,2,0.4,3
		c0.1,0.6,0.1,1.3,0.2,1.9c0.2,2.2,0.4,4.3,0.7,6.5c0.3,1.9,0.8,3.8,1.1,5.7c0.2,1,0.1,2.1,0.2,3.2c0.1,1,0.3,2,0.5,3.1
		c0.2,1.5,0.4,3,0.5,4.5c0.2,1.9,0.3,3.8,0.9,5.6c0.4,1.2,0.3,2.6,0.4,3.9c0.1,0.9,0,1.9,0.1,2.8c0.1,1.4,0.4,2.8,0.5,4.2
		c0.1,1.3,0.2,2.7,0.3,4c0.1,1.8,0.2,3.5,0.4,5.3c0.3,4.3,0.6,8.6,0.8,12.9c0.1,1.1-0.1,2.1,0,3.2c0,1,0.3,2,0.3,3
		c0,1-0.5,2.1,0.2,3.1c0.2,0.3-0.2,1-0.2,1.4c0.1,3,0.2,6,0.3,9c0.1,1.8,0.3,3.6,0.4,5.4c0,1.3-0.1,2.6-0.1,3.9
		c0.1,2.5,0.3,5.1,0.4,7.6c0.1,3.1,0.1,6.1,0,9.2c0,1.9-0.3,3.9-0.3,5.8c0,12.8-0.1,25.5,0,38.3c0,3.8,0.3,7.5,0.3,11.3
		c0,1.8-0.4,3.6-0.6,5.3c0,0.6,0.3,1.1,0.3,1.7c0,2.5,0.1,5,0,7.4c-0.1,2.7-0.4,5.5-0.6,8.2c-0.2,2.2-0.4,4.4-0.5,6.6
		c-0.1,1.9-0.1,3.8-0.3,5.7c-0.3,2.1-0.8,4.1-1.1,6.2c-0.2,1.3-0.1,2.7-0.3,4c-0.3,2.2-0.8,4.4-1.2,6.7c-0.3,1.5-0.7,3-1,4.5
		c-0.4,1.7-0.8,3.4-1.2,5.1c0,0.1-0.2,0.3-0.2,0.4c-0.4,2.1-0.7,4.2-1.1,6.3c-0.3,1.6-0.8,3.1-1.2,4.7c-0.3,1.5-0.6,3-1,4.4
		c-0.6,2.5-1.2,5-1.8,7.4c-0.6,2.3-1,4.7-1.9,7c-0.8,2.1-1.4,4.4-3,6.2c-1.1,1.2-1.8,2.7-2.8,4c-0.3,0.4-0.8,0.7-1.1,1.1
		c-1.9,2.3-4.5,3.6-7.2,4.5c-1.9,0.6-4,0.7-6,0.8c-4.5,0.3-9.1,0.5-13.7,0.7c-4.1,0.2-8.3,0.3-12.4,0.3c-2.1,0-4.2-0.4-6.3-0.5
		c-2.1-0.1-4.2-0.1-6.3-0.2c-3.5-0.1-6.9-0.2-10.4-0.3c-4-0.1-8,0-12.1-0.1c-1,0-2-0.1-2.9-0.2c-1.1-0.1-2.2-0.2-3.2-0.2
		c-4.7,0-9.4-0.1-14.1,0c-2.8,0-5.5,0.3-8.3,0.5c-2.6,0.1-5.2,0.1-7.8,0.2c-2.9,0.1-5.7,0.4-8.6,0.4c-2.3,0-4.5-0.4-6.8-0.7
		c-2.5-0.3-4.9-0.4-7.4-0.8c-2.4-0.3-4.7-0.7-7.1-1.1c-0.8-0.1-1.6-0.2-2.5-0.3c-3-0.3-5.8-1.2-8.6-2.1c-2.1-0.7-4.3-0.9-6.4-1.5
		c-4.1-1.3-8.3-2.4-12.3-4.1c-2.7-1.1-5.4-2.6-7.5-4.7c-1.2-1.2-2.6-2.2-3.8-3.5c-3-3.1-5.9-6.3-7.8-10.2c-0.8-1.7-2.1-3.2-2.8-4.9
		c-1-2.4-1.8-5-2.6-7.5c-0.6-2-1.3-3.9-1.8-5.9c-0.3-1.3-0.3-2.8-0.5-4.1c-0.2-1.6-0.6-3.1-0.9-4.7c-0.1-0.5-0.1-1.1-0.2-1.7
		c-0.1-2.1-0.2-4.2-0.3-6.3c-0.2-4.3-0.3-8.6-0.5-12.9c-0.1-2.7-0.4-5.5-0.6-8.2c-0.1-1.6,0-3.1,0-4.7c-0.1-5-0.2-10-0.3-15.1
		c0-0.5-0.2-1.1-0.3-1.6c0-0.1-0.1-0.2-0.1-0.3c0.7-2.2-0.2-4.4,0.2-6.6c0.3-1.4-0.1-2.9-0.2-4.4c0-1.8,0.1-3.7,0-5.5
		c-0.2-3.1-0.5-6.3-0.7-9.4c-0.1-0.8,0-1.7,0-2.5c-0.1-3.3-0.1-6.5-0.3-9.8c-0.2-2.8-0.5-5.6-0.7-8.3c-0.3-3.2-0.5-6.4-0.7-9.7
		c-0.2-2.7-0.5-5.4-0.7-8.1c-0.2-3.6-0.3-7.2-0.5-10.8c-0.1-2.5,0.1-5.1-0.3-7.6c-0.7-5.2-0.3-10.4-0.3-15.6c0-2.9,0.4-5.8,0.7-8.7
		c0.2-2.5,0.4-5,0.7-7.5c0.2-1.6,0.6-3.1,0.7-4.7c0.1-1.9-0.1-3.9,0.1-5.8c0.1-2.2,0.4-4.5,0.7-6.7c0-0.2,0-0.5,0-0.7
		c0.2-2.8,0.5-5.6,0.7-8.5c0.2-2.5,0.3-5,0.6-7.6c0.2-2.6,0.6-5.2,0.9-7.8c0.1-0.6,0-1.1,0.1-1.7c0.3-2.3,0.7-4.7,1.1-7
		c0.1-0.8,0.2-1.7,0.4-2.4c0.8-3.1,1.6-6.2,2.5-9.3c0.3-1.2,0.5-2.4,0.9-3.6c0.4-1.2,0.8-2.4,1.3-3.6c1-2.4,1.9-4.9,3.1-7.2
		c1.1-2.3,2.6-4.3,3.8-6.5c1.1-2,2.8-3.6,4.4-5.1c2.5-2.3,5.1-4.3,8.4-5.3c1.7-0.5,3.2-1.4,4.9-1.8c1.9-0.5,3.7-1.5,5.8-0.9
		c0.5,0.1,1.2-0.3,1.8-0.5c1.1-0.3,2.3-0.5,3.4-0.7c1.9-0.3,3.8-0.6,5.7-0.8c1.5-0.2,3-0.2,4.5-0.3c2.9-0.2,5.7-0.5,8.6-0.7
		c2.9-0.2,5.8-0.4,8.8-0.5c4.7-0.2,9.4-0.5,14.1-0.7c1.7-0.1,3.4-0.2,5.1-0.2c4.5-0.2,9.1-0.3,13.6-0.4c3.8-0.2,7.5-1,11.2-2.1
		c2.6-0.8,5.3-1.2,7.9-1.8c1.5-0.4,2.9-1,4.3-1.5c3.9-1.6,7.7-3.2,11.6-4.7c1-0.4,2-0.5,3.1-0.6c2.4-0.2,4.8-0.1,7.2-0.4
		c1.8-0.2,3.6-0.9,5.3-1.2c1.6-0.3,3.3-0.6,5-0.9c1.4-0.3,2.8-0.7,4.2-1c1-0.2,2-0.4,3-0.4c2.6,0,5.2-0.2,7.7,0.4
		c6.2,1.3,12.4,1,18.7,1c1.6,0,3.2-0.2,4.8-0.4c1.6-0.2,1.9-0.1,2.5,1.5c0.9,2.6,2,5.1,2.9,7.7c0.4,1.3,0.9,2.6,1,4
		c0,1.9,0.9,3.5,1.3,5.3c0.3,1.4,0.6,2.9,0.9,4.3c0.4,2,0.8,4,1.2,5.9c0.3,1.6,0.6,3.2,1,4.8c0.3,1.4,0.7,2.8,1.1,4.3
		c0.2,0.7,0.2,1.5,0.4,2.2c0.6,2.4,1.2,4.8,1.8,7.2c0.1,0.5,0.1,1.1,0.1,1.7C693.5,296.2,693.4,296.2,693.3,296.3z"/>
</g>
</svg>
