<svg id="Layer_1" data-name="Layer 1" xmlns="http://www.w3.org/2000/svg" viewBox="0 0 955.19 860.12"><title>21_Object_1_to_520161124140305365_Page_24_Image_0001</title><path d="M-91.93,248.88l-0.9-.13L-93.28,253l0.77,0.1Z" transform="translate(93.28 -10.85)"/><path d="M861.52,446.85c-1.1-1.88-1.13-3.91-1.19-6q-0.23-8.72-.57-17.43c-0.26-6.76-.51-13.53-0.91-20.29-0.19-3.14-.74-6.26-1.09-9.39-0.61-5.38-1.12-10.77-1.83-16.13q-0.82-6.26-2-12.47c-0.71-3.66-1.59-7.3-2.53-10.91-1-4-2.34-7.84-3.34-11.8-1.28-5.09-2.16-10.29-3.58-15.34-3-10.7-6.05-21.4-9.46-32-1.82-5.63-4.36-11-6.71-16.48-3.6-8.32-7.31-16.6-11-24.87-2-4.58-4.25-9.1-6.25-13.71-3.53-8.17-8.36-15.59-13.14-23-4.94-7.71-9.85-15.43-14.93-23-2.15-3.22-4.74-6.14-7.06-9.25-3.19-4.27-6.25-8.64-9.48-12.87-2.74-3.59-5.65-7.06-8.5-10.56-3.88-4.75-7.73-9.53-11.71-14.2-1.72-2-3.73-3.79-5.58-5.69-3.06-3.14-6-6.38-9.16-9.42-4.09-3.95-8.32-7.76-12.53-11.59-2.16-2-4.37-3.87-6.58-5.79-3.11-2.7-6.24-5.37-9.33-8.08-1.1-1-2.07-2.09-3.17-3.07-4.09-3.61-8.07-7.36-12.36-10.72-4.08-3.2-8.51-6-12.76-9-3-2.12-5.92-4.37-8.94-6.46-2-1.35-4-2.56-6.06-3.78-6.13-3.66-12.25-7.33-18.43-10.91-2.21-1.28-4.61-2.23-6.86-3.45-1.78-1-3.39-2.27-5.2-3.19-2-1-4.26-1.73-6.32-2.72-2.34-1.12-4.58-2.43-6.89-3.62-2.51-1.29-5-2.53-7.56-3.79-3-1.49-5.9-3.1-8.94-4.45s-5.92-2.37-8.94-3.4c-5.05-1.73-10.14-3.36-15.22-5-1.82-.59-3.67-1.11-5.49-1.7-3.39-1.09-6.79-2.15-10.16-3.31q-3.9-1.35-7.79-2.74c-64.16-25.5-175.5-10.58-211.52-4.77h-5.53l-6.08,2h0c-2.39.79-4.79,1.57-7.19,2.33-5,1.6-10.11,3.1-15.15,4.71-3.43,1.1-6.88,2.18-10.23,3.51-5.83,2.31-11.59,4.79-17.38,7.21-4.37,1.83-8.78,3.58-13.1,5.51-4.53,2-9,4.18-13.47,6.36-5.73,2.81-11.49,5.57-17.1,8.6-4.77,2.58-9.34,5.53-14,8.28-2.21,1.3-4.57,2.38-6.67,3.84-4.11,2.85-8.1,5.89-12.11,8.88s-7.82,5.89-11.73,8.83c-3.22,2.42-6.55,4.7-9.65,7.27-2.88,2.38-5.46,5.13-8.29,7.58-3.46,3-7.08,5.78-10.56,8.74-2.43,2.07-4.74,4.26-7.08,6.43s-4.87,4.56-7.26,6.89c-3.15,3.09-6.26,6.22-9.37,9.35-2.68,2.71-5.41,5.37-8,8.19s-4.71,5.55-7.06,8.32c-1.42,1.67-2.75,3.43-4.31,4.94a145.27,145.27,0,0,0-15.41,18c-3.75,5.05-7.92,9.8-11.76,14.79-1.82,2.36-3.33,5-4.92,7.5-1.78,2.82-3.45,5.7-5.24,8.51-3.43,5.38-7.08,10.63-10.33,16.12-4.75,8-9.48,16.11-13.74,24.42-4.17,8.11-7.87,16.48-11.54,24.83-3,6.88-5.78,13.89-8.53,20.89-1.33,3.38-2.4,6.85-3.54,10.3-1.34,4.05-2.84,8.07-3.89,12.2-1.81,7.18-3.35,14.42-4.95,21.65-0.93,4.23-1.83,8.46-2.62,12.72-1,5.4-2,10.81-2.82,16.25-0.85,5.68-1.53,11.38-2.15,17.09-0.3,2.77-.24,5.58-0.43,8.37-0.31,4.64-.73,9.27-1,13.91-0.11,1.66,0,3.34,0,5-0.28,7.91-.64,15.82-0.88,23.73-0.08,2.76.19,5.52,0.14,8.28-0.14,6.51-.36,13-0.59,19.52,0,1-.38,2-0.45,3a20.57,20.57,0,0,0,0,3.58c0.56,5.41,1.08,10.82,1.84,16.2,0.56,4,1.49,7.93,2.18,11.9,0.43,2.45.71,4.93,1,7.4,0.52,3.76.9,7.54,1.57,11.27,0.8,4.47,1.81,8.91,2.81,13.34,0.57,2.54,1.36,5,1.94,7.56,0.86,3.69,1.57,7.41,2.44,11.1,0.71,3,1.53,6,2.34,9,1.4,5.14,2.78,10.28,4.28,15.39,1.87,6.36,3.72,12.74,5.86,19,1.22,3.6,3.07,7,4.52,10.5,2.18,5.31,4.13,10.72,6.39,16,1.94,4.54,4.14,9,6.29,13.41s4.17,8.75,6.51,13c3.3,6,6.83,11.8,10.28,17.68,1.47,2.51,2.88,5.06,4.51,7.46q6.78,10,13.74,19.85c3.06,4.33,6.22,8.6,9.49,12.77,4.58,5.84,9.27,11.6,14,17.32a185.33,185.33,0,0,0,18.77,20c2.07,1.86,3.7,4.21,5.68,6.18s4.27,3.83,6.35,5.79,4.28,4.24,6.46,6.32c3.82,3.64,7.6,7.34,11.55,10.83,4.52,4,9.14,7.89,13.87,11.63,4.07,3.22,8.34,6.17,12.53,9.23,4.78,3.49,9.5,7.09,14.4,10.42,3.87,2.63,8,5,12,7.35s8.17,4.76,12.28,7.09c5.57,3.16,11.06,6.45,16.76,9.35,5.93,3,12.21,5.35,18.06,8.49a158.66,158.66,0,0,0,18.45,8c5.38,2.06,10.73,4.2,16.08,6.34,2.37,1,4.66,2.14,7.05,3q9.72,3.59,19.52,7c3.41,1.19,6.83,2.44,10.34,3.29,4,1,8.2,1.53,12.3,2.33l1,0.25c0.93,0.25,1.85.56,2.77,0.83h1c18,3.73,84.39,15.22,165.36,2h0.54c2-.37,4-0.73,6.06-1.12,0.86-.15,1.69-0.32,2.5-0.48C534,862,540,860.9,545.86,859.71c5.43-1.09,10.93-1.94,16.22-3.51,6.89-2,13.68-4.51,20.38-7.13,7.49-2.94,14.73-6.53,22.27-9.34a112.73,112.73,0,0,0,19.52-9.64c7.15-4.37,14.53-8.38,21.74-12.65,5.05-3,10.17-5.93,15-9.31,4.14-2.93,7.81-6.5,11.76-9.71,2.71-2.2,5.57-4.2,8.29-6.39,1.09-.88,1.91-2.08,3-3s2.1-1.48,3.08-2.31c1.72-1.45,3.39-3,5-4.48,3.55-3.26,7.17-6.45,10.6-9.84,2.94-2.91,5.57-6.13,8.49-9.06,2.64-2.65,5.49-5.1,8.24-7.64,3.39-3.13,6.76-6.28,10.17-9.39,2.6-2.37,5.33-4.6,7.87-7q6.5-6.25,12.81-12.69c1.92-1.95,3.7-4,5.47-6.12,3.47-4.11,6.94-8.22,10.32-12.4,5.1-6.29,10.21-12.57,15.15-19,3.25-4.22,6.35-8.58,9.29-13q8.43-12.73,16.56-25.65c2.21-3.52,4-7.3,6-11,2.38-4.47,4.93-8.86,7-13.45,2.85-6.21,5.61-12.49,7.95-18.91,2.72-7.45,4.91-15.1,7.38-22.64,1.38-4.2,3-8.33,4.23-12.58,1.11-3.86,1.73-7.85,2.74-11.74,0.53-2.06,1.6-4,2.12-6.06,1.45-5.74,2.69-11.54,4.1-17.29,1-3.91,2.17-7.76,3.08-11.68,0.72-3.12,1.13-6.31,1.71-9.46,0.62-3.39,1.3-6.77,1.93-10.15,1.32-7.07,2.33-14.21,4.08-21.18A70.6,70.6,0,0,0,861,472.57c0.44-5.53.55-11.08,0.77-16.63,0.09-2.36.11-4.73,0.1-7.09A4.14,4.14,0,0,0,861.52,446.85ZM170.37,361.76c1.56-4.07,2.7-8.3,1.55-12.81a9.13,9.13,0,0,1,0-4.57c0.34-1.17,1.54-2.11,2.41-3.1,1.61-1.83,3.88-3,4.64-5.68,0.45-1.57,1.73-2.89,2.62-4.33a5.68,5.68,0,0,0,.67-4.1,33.27,33.27,0,0,1-.09-6.89,2.75,2.75,0,0,1,1.34-1.72c3.42-2,6-4.59,7.13-8.53a6.88,6.88,0,0,1,1.33-2,7,7,0,0,0,1.18-4.61c0-3.43,2.35-5.75,4.66-8a48.76,48.76,0,0,0,4.27-5.21,32.61,32.61,0,0,1,2.09-3.2c1-1,.8-2.16.83-3.34,0.06-2.13-.71-4.47,1-6.24a11,11,0,0,1,3.44-2.32c4.17-1.83,7.16-5,9.83-8.5a7.4,7.4,0,0,0,1-3c0.41-2,.52-4.12,1.11-6.07,0.23-.77,1.35-1.42,2.2-1.83,1.92-.93,4-1.6,5.9-2.52a9.5,9.5,0,0,0,4.85-5.83c0.81-2.35,1.61-4.71,2.51-7a1.94,1.94,0,0,1,1.15-1c2.17-.6,4.39-1,6.54-1.64s4.08-1.38,5.42-3.28a8.92,8.92,0,0,1,1.44-1c1.66-1.49,3.29-3,4.89-4.54a3.12,3.12,0,0,0,.8-1.37c1-3.63,3.44-6,6.3-8.25s6.45-2.78,9.46-4.52,6.38-2.82,8.71-5.62a8.78,8.78,0,0,1,2.76-1.7c1.85-1,2.89-2.68,4.21-4.18,2.18-2.48,4.19-5.22,7.39-6.59a0.39,0.39,0,0,0,.16-0.07c1.42-2.19,3.83-3,6-4.13a6.51,6.51,0,0,1,1.85-.47c2.76-.54,5.51-1.07,7.84-2.81a4.34,4.34,0,0,1,1.19-.79c3.61-1.11,5.53-4.27,8.11-6.62a5.11,5.11,0,0,1,4.56-1.58c3.68,0.87,7.14-.19,10.57-1a13.17,13.17,0,0,0,8.16-5.93A28.43,28.43,0,0,1,348,169a2.37,2.37,0,0,1,1.78-.49c1.87,0.26,3.7.85,5.57,1a24.24,24.24,0,0,0,5.29-.3c3.93-.59,6.59-3.38,9.51-5.72a2.89,2.89,0,0,1,2.17-.77c2.2,0.85,4.36.09,6.53,0.19,3.52,0.16,6.66-1.18,9.77-2.56a8.16,8.16,0,0,0,2.94-2.15,5.48,5.48,0,0,1,6.39-1.2c3.93,2.25,8.15,2.39,12.49,1.41,2.6-.59,5.25-1,7.86-1.54a15.2,15.2,0,0,0,2-.69l28-4.8v2.46a34.8,34.8,0,0,1,3.18-3l0.52-.28a2.39,2.39,0,0,1,1.64-.13,27.09,27.09,0,0,1,8.8,5.3c3.09,3,7.15,3.1,11.24,2.54a4.06,4.06,0,0,0,2.91-1.35,9,9,0,0,1,5.12-3.32,3.84,3.84,0,0,1,4.42,1.79c2.71,4.84,7.61,6.19,12.26,8.09,2.53,1,4.42,0,6.47-1a16.85,16.85,0,0,1,1.8-.79c1.8-.61,3.09-0.18,3.77,1.63,1.69,4.49,5.33,6.55,9.53,7.92a4.1,4.1,0,0,0,2.72-.17c2.78-1.27,5.71-1.16,8.59-.95,2,0.15,3.1,1.84,4.28,3.37,2.14,2.78,4.84,4.89,8.56,4.84,1,0,1.91-1,2.93-1.29,4-1.18,5.52-.42,8.56,3.43,2.26,2.86,4.71,5.58,7.22,8.23a29.14,29.14,0,0,0,3.33,2.37,1.44,1.44,0,0,1,.41,1.25,69.5,69.5,0,0,1-9.38,19.16c-4.37,6-9.23,11.62-14,17.33-3.24,3.9-6.48,7.82-10,11.46s-7.58,7.11-11.36,10.68c-1.92,1.81-3.63,3.85-5.66,5.52-3.05,2.51-6.27,4.81-9.46,7.14-1.57,1.15-3.16,2.27-4.75,3.39h0L391.84,352.23c-1.84,1-3.44,2.52-5.34,3.41-4.41,2.07-8.88,4-13.42,5.78-4.08,1.58-8.27,2.86-12.42,4.24s-8.18,2.71-12.3,4c-4.63,1.45-9.27,2.89-14,4.17-1.93.53-4,.58-6,0.93a6.33,6.33,0,0,0-1.52.71l-1.75.32a7.76,7.76,0,0,0-1.39.11c-2.86.74-5.73,1.43-8.55,2.28-2.65.8-5.24,1.79-7.86,2.69h0l0.05,0c-2.24.52-4.48,1.07-6.73,1.56-3.15.69-6.31,1.32-9.47,2-2.7.58-5.36,1.37-8.09,1.77a64.64,64.64,0,0,1-6.72.29,15.3,15.3,0,0,0-1.77.18,58.37,58.37,0,0,1-7.64,1.16c-2.9.07-5.82-.46-8.73-0.68-0.92-.07-1.85.09-2.77,0-6.09-.55-12.19-1.11-18.27-1.73-4.58-.47-9.16-0.92-13.71-1.57-5.41-.77-10.79-1.74-16.18-2.61-3-.48-5.93-0.87-8.89-1.38-3.33-.58-6.68-1.14-10-1.91-4.13-1-8.22-2.06-12.3-3.2a40.4,40.4,0,0,0-9.1-1.86,4.09,4.09,0,0,1-1.68-1C167.12,368.4,169.05,365.2,170.37,361.76ZM537.1,520.45l0.52,1.36h0Zm-67.9-22.54c-2.63,1.83-4.89,4.26-7.67,5.78-1.87,1-3.79,1.94-5.74,2.82-0.57.1-27.85,4.89-48.59-6-4.74-2.82-8.47-6.94-12-11A82.7,82.7,0,0,1,384.3,473.8c-2.31-4.42-4.71-8.74-6.19-13.55a57.71,57.71,0,0,1-2.78-20.12,3.51,3.51,0,0,1,.55-2.2c1.56-1.4,1.36-3,1.08-4.78-0.61-3.66.24-7.21,1-10.74a67.9,67.9,0,0,1,6.87-18.75c1.23-2.27,3.1-4.19,4.65-6.29,3.74-5.08,8.71-8.77,13.88-12.19,1.81-1.2,3.7-2.29,5.6-3.36,21.91-11.54,39.35-2.6,39.35-2.6a17.86,17.86,0,0,1,3,.9c3.29,1.64,6.44,3.56,9.79,5,4.48,2,7.79,5.46,11.63,8.26a47.72,47.72,0,0,1,10.87,11.63c2.21,3.17,5,6,6.91,9.31a49.41,49.41,0,0,1,6.36,17.38c0.62,4.19.1,8.55,0.15,12.83,0,1.55.27,3.09,0.33,4.64a44.26,44.26,0,0,1-2,15.35,36.07,36.07,0,0,1-7.43,13.27,53.49,53.49,0,0,0-3.21,4.31,47,47,0,0,1-3.05,4.11C477.78,490.46,473.92,494.63,469.2,497.91ZM420.28,728.19c-3.5-1.54-6.67-4.05-10.74-3.89a8.56,8.56,0,0,0-3.74,1c-3.22,1.81-6.8,2.12-10.3,2.5-2.23.24-4.18-1.26-5.71-2.77-1.33-1.32-2.87-1.22-4.4-1.5-1.34-.24-2.64-0.36-3.7-1.54-0.64-.7-2.16-0.6-2.79-1.3-1.45-1.64-3.33-1.16-5.05-1.58-2.16-.52-4-0.77-6.14.48s-3.86.07-5.5-1.58c-2.61-2.62-5.24-5.29-8.72-6.83a8.09,8.09,0,0,1-1.52-.91c-1-.72-1.8-1.23-3.2-0.63a19.17,19.17,0,0,1-4.8,1c-1.47.21-3.34-1.1-4.06-2.39-1.4-2.5-3.84-4-6.28-5.12-0.65-.31-2.18.58-3.46,0.32a15.5,15.5,0,0,0-4-.2,58.09,58.09,0,0,1-8.79.22,12.59,12.59,0,0,1-6.14-2.49c-0.83-.56-1.71-1-2.57-1.54-1-.59-2.1-1.09-3.09-1.74-3.43-2.25-6.79-4.61-10.26-6.8-5.72-3.6-11.56-7-17.25-10.68-4.62-3-8.95-6.4-13.67-9.17-2.6-1.53-2.89-4-4-6.23a25,25,0,0,0-1.39-2.23c-1.16-1.78-2.33-3.54-3.49-5.31-0.92-1.4-1.78-2.85-2.79-4.18a4.06,4.06,0,0,0-1.56-.65c-1.11-.48-2.21-1-3.33-1.47-1.78-.72-3.56-1.44-5.37-2.08a5.17,5.17,0,0,1-3.16-3.16c-1.69-4-3.17-8.13-5.41-11.8-1.66-2.73-3.57-5.65-7-6.81-1.25-.42-2.39-1.17-3.64-1.59a5.07,5.07,0,0,1-3.25-4.12,24.92,24.92,0,0,0-4.54-9.54,2.72,2.72,0,0,0-1.59-.54c-3.15-.56-5.9-4-6.76-7.14-1.08-3.88-2-8-4.95-11.08-1.27-1.36-2.39-2.88-3.71-4.19-0.82-.8-2.07-1.19-2.81-2a8.87,8.87,0,0,1-1.83-3.31c-1.08-3.82-1.87-7.71-3-11.52a20.53,20.53,0,0,0-2.11-3.87c-0.54-1-1.08-2-1.59-3a4.18,4.18,0,0,0-.65-1.43c-2.53-1.86-2.83-4.75-3.6-7.43a95.33,95.33,0,0,0-2.79-9.35c-0.89-2.22-2.53-4.13-3.76-6.22a4,4,0,0,1-.8-2.26c0.88-5.44-.14-10.66-1.73-15.79-0.62-2-1.19-4.38-2.62-5.69-2-1.84-2.31-4.69-4.5-6.26a1.17,1.17,0,0,1-.3-1c0.61-3.44-.21-6.76-0.71-10.12a13.32,13.32,0,0,0-4.45-8.52,8.51,8.51,0,0,0-1.3-.89,1.89,1.89,0,0,1-.95-2.68c0.94-2.13,1.93-4.24,2.79-6.41,1.09-2.74,2-5.64,1.46-8.55-0.37-1.89-1.67-3.61-2.6-5.39s-1.63-3.29-.78-5.36c0.44-1.07.07-2.51-.06-3.78-0.26-2.66-.59-5.31-0.92-8.21a12.51,12.51,0,0,1,1.73.32c5.88,1.93,11.69,4.09,17.63,5.78,5.64,1.6,11.38,3,17.16,4,8.13,1.48,16.25,2.94,24.28,4.93,6.33,1.57,12.81,2.52,19.17,4,4.76,1.09,9.43,2.54,14.13,3.86,3.8,1.07,7.63,2.08,11.38,3.29,4.51,1.45,9,3.06,13.43,4.63,3.73,1.31,7.52,2.48,11.15,4,3.11,1.32,6,3,9,4.63q4.72,2.51,9.39,5.1c2.85,1.58,5.7,3.16,8.49,4.84,5.21,3.14,10.39,6.34,15.56,9.55,4.23,2.62,8.4,5.33,12.65,7.91,1,0.6,2.31.68,3.27,1.32,3.07,2,6.07,4.18,9,6.35,0.94,0.68,1.69,1.61,2.6,2.33A116.89,116.89,0,0,0,373.1,536c4.06,2.36,7.91,5.1,11.73,7.84q3.74,2.69,7.43,5.46c0.45,0.53,38.72,45.36,67.51,87.5,1.59,2.48,3.15,5,4.66,7.5,3.93,6.57,7.49,13.35,11.23,20,2.52,4.5,5.12,9,7.57,13.49,2.16,4,4.13,8.09,6.26,12.09,3.21,6,6.57,12,9.72,18.08,1.55,3,2.75,6.15,4.14,9.21,0.49,1.08,1.09,2.1,1.56,3-2.07-.39-4.22-0.91-6.4-1.17a7.3,7.3,0,0,0-5.23,1.43,26.41,26.41,0,0,0-2.29,1.71c-1.83,1.65-3.6,3.38-5.44,5a2.06,2.06,0,0,1-1.52.54c-3-.68-5.93-1.66-9-2.17a14.63,14.63,0,0,0-9.66,1.6,12.44,12.44,0,0,0-2,1.94,3.94,3.94,0,0,1-4.21.71c-2.18-.74-4.3-1.69-6.53-2.26a20.57,20.57,0,0,0-4.36-.19ZM717.42,466.67a27.53,27.53,0,0,1-4.53,9,6.62,6.62,0,0,0-1.09,5.89c0.72,2.81,1.49,5.62,2.09,8.45a5.91,5.91,0,0,1-2.1,5.83c-3,2.63-4.29,6.12-5,9.79-0.3,1.53.48,3.31,0.89,4.94s1.32,3.18,1.32,4.76a5.16,5.16,0,0,1-1.72,3.63,17.68,17.68,0,0,0-5.37,7.69,16.94,16.94,0,0,0-.93,10.1c0.48,2.43-.44,4.28-2.33,6-2.63,2.42-4.85,5.25-4.77,9.2,0.06,2.89,0,5.78,0,8.67a3,3,0,0,1-.7,1.6c-1.52,2-3.17,3.81-4.65,5.79a24.52,24.52,0,0,0-3,4.73c-1.24,2.86-2.17,5.87-3.22,8.81a0.78,0.78,0,0,0-.12.33c1,3.73-2.17,4.94-4.29,6.45-2.82,2-4.64,4.76-6.77,7.31a14.67,14.67,0,0,0-3.22,9.63c0,1.86-1.55,2.56-2.71,3.19-4.37,2.39-7.5,6.08-10.4,9.91-1.45,1.92-2.09,4.46-3.06,6.74a1.46,1.46,0,0,0,.18.85,4.3,4.3,0,0,1-2.69,5.85c-2.77,1.11-5.71,2-8.14,3.68-3.72,2.51-7,5.61-6.4,10.83a2.74,2.74,0,0,1-1.53,3c-1.69.79-3.49,1.31-5.19,2.08-2,.93-4,2-6,3-1.46.71-3,1.35-4.44,2s-3.73,4.65-3.58,6.44a7.48,7.48,0,0,1,0,2.52c-0.46,1.64-.86,3.22-3.17,3.57a17.37,17.37,0,0,0-6.37,2.18,32.37,32.37,0,0,0-6,5.16c-0.65.67-.77,2-0.92,3-0.23,1.57-1.23,1.78-2.46,1.55-2.15-.4-4.19-0.39-6,1a1.4,1.4,0,0,1-.65.21c-3.45.43-6.18,2.38-9.15,4.24l-1.17-.94,0.67,2.29-0.49.09c-3.55-4.52-8.43-16.88-7.52-18.4a2.94,2.94,0,0,1-1.11-.78c-1-2.47-2-4.95-2.87-7.49a9.12,9.12,0,0,1,0-2.82,1.54,1.54,0,0,0-.09-0.59c-0.92-2.28-1.94-4.53-2.75-6.85-1-3-1.92-6.06-2.88-9.09-1.3-4.12-2.61-8.24-3.89-12.36-1.57-5-3.24-10-4.65-15.08-1.52-5.46-2.93-11-4.11-16.49-1.33-6.2-2.24-12.48-3.56-18.68-1-4.68-2.58-9.24-3.5-13.93-0.69-3.53-.74-7.18-1.11-10.77-0.2-1.93-.53-3.84-0.7-5.77-0.22-2.47-.3-5-0.51-7.43a4.62,4.62,0,0,0-.6-1.36l0,0a1.32,1.32,0,0,0,.41-0.52,34.68,34.68,0,0,0-.15-5.51c-0.19-1.16,1.06-2.42-.26-3.45l0,0.07h0c0-2.31-.07-4.61-0.17-6.92a7.7,7.7,0,0,0-.51-1.79,2.14,2.14,0,0,0,.57-0.18c-0.54-6.6-1.33-13.19-1.61-19.8a130.78,130.78,0,0,1,.35-15.33c0.51-6.91,1.41-13.79,2.07-20.69,0.34-3.51.38-7,.82-10.54,0.8-6.3.5-12.72,2.07-19,0.66-2.63.69-5.42,1.21-8.1,0.94-4.87,2-9.72,3.07-14.57,0.65-2.95,1.38-5.88,2.08-8.82s1.8-3.9,4.69-3.07c3.53,1,6.5-.21,9.64-1.22a10.2,10.2,0,0,1,4-.82c3.55,0.38,5.93-1.8,8.42-3.58,8.08-5.78,12.95-13.94,16.52-23,1.24-3.14,2.41-6.31,3.47-9.5a13,13,0,0,0,.53-3.68,77.52,77.52,0,0,0,0-7.93c-0.28-3.77-.64-7.56-2.19-11.07-1.43-3.22-3-6.38-4.51-9.56-0.51-1.07-1.14-2.08-1.56-3.18a3.76,3.76,0,0,1,.19-3.89c1.25-1.95,1.52-4.5,2.57-6.61,2.52-5,5.31-9.93,7.88-14.94,2.33-4.54,4.51-9.17,6.78-13.74,2.74-5.53,5.56-11,8.25-16.57,1.14-2.34,2-4.82,3.09-7.18,1.44-3.1,3-6.14,4.51-9.2,2.52-5,5-10.12,7.61-15.1,1.62-3.05,3.54-5.94,5.3-8.92a12.26,12.26,0,0,0,.7-1.56c1.73,1.56,3.57,3,5.13,4.68,6.25,6.77,12.52,13.52,18.57,20.46a193,193,0,0,1,17.42,23.57c2.09,3.3,4.32,6.51,6.49,9.76,2,3.06,1.8,6.53,1.27,9.83a11.3,11.3,0,0,0,1.61,7.66,55.46,55.46,0,0,0,5.77,7.63,5.29,5.29,0,0,1,1.15,4.49c-0.72,3.68,0,7.16,1.1,10.55,0.41,1.29,1.86,2.26,2.89,3.33A32.63,32.63,0,0,1,698.2,335a2.56,2.56,0,0,1,0,2,6.2,6.2,0,0,1,.72,2.08c-0.3,7,1.75,13.38,5.14,19.41l0.43,0.43a10.84,10.84,0,0,1,2,2.34,6.14,6.14,0,0,1,.66,3.42,59.18,59.18,0,0,0-.86,14.12c0.25,5.45,2.07,10.28,6.23,14,1.64,1.49,1.46,3.52.88,5.19a15.16,15.16,0,0,0-.57,9.79c0.29,0.94-.06,2.06.12,3.06a13,13,0,0,0,3.08,6.31c1.25,1.4.81,2.83,0.24,4.29-0.81,2.11-2,4.16-2.37,6.34-0.8,4.19-.56,8.3,2.31,11.88a3,3,0,0,1,.36,2.19c-0.92,4.9-2.42,9.69-2.23,14.77a10.09,10.09,0,0,0,2.43,6.37A3.53,3.53,0,0,1,717.42,466.67Z" transform="translate(93.28 -10.85)"/></svg>