<svg id="Layer_1" data-name="Layer 1" xmlns="http://www.w3.org/2000/svg" viewBox="0 0 319.84 3068.52"><defs><style>.cls-1{fill:#fff;}</style></defs><title>21_Object_1_to_520161124140305365_Page_22_Image_0001</title><path d="M358.86,831.27H240.71c1.53-3,2.81-5.79,4.39-8.44a21.61,21.61,0,0,0,3.22-7.72c0.28-1.74,1.37-3.35,2-5,1-2.5,1.84-5.07,2.93-7.53,0.92-2.08,2.38-4,3.11-6.08,1.41-4.12,2.87-8.27,2.7-12.76-0.1-2.65.15-5.32-.05-8-0.36-4.73-1-9.44-1.4-14.17-0.35-4.39-.4-8.81-0.76-13.2-0.31-3.76-.89-7.51-1.32-11.26-0.29-2.48-.49-5-0.83-7.43-0.61-4.33-1.31-8.64-1.94-13-0.34-2.33-.53-4.68-0.94-7-0.52-3-1.25-5.88-1.78-8.83-0.44-2.45-.68-4.94-1.11-7.39-0.68-3.88-1.48-7.75-2.14-11.63s-1.17-7.95-1.86-11.9c-0.65-3.71-1.48-7.39-2.16-11.1-0.76-4.18-1.55-8.36-2.14-12.56-0.61-4.42-1.16-8.87-1.43-13.33-0.24-4,.21-8-0.14-12s-1.31-7.93-2-11.89c-0.78-4.68-1.55-9.37-2.28-14.06-0.45-2.93-.74-5.88-1.2-8.8-0.64-4.14-1.31-8.28-2.1-12.39-0.35-1.82-1.06-3.58-1.51-5.38-1.19-4.73-2.47-9.45-3.45-14.23-0.54-2.66-.53-5.44-0.81-8.16-0.45-4.39-.75-8.8-1.46-13.15-1-6.26-2.3-12.45-2.6-18.83-0.17-3.63-1.22-7.21-1.73-10.84-0.57-4.07-.93-8.18-1.46-12.26-0.47-3.63-1-7.26-1.6-10.88-0.77-4.9-1.64-9.78-2.35-14.69-0.37-2.59-.51-5.22-0.72-7.83-0.27-3.45-.42-6.92-0.78-10.36-0.47-4.59-1.31-9.16-1.58-13.76a54.78,54.78,0,0,1,.6-9.27c0.48-4.28,1.12-8.53,1.74-12.79s1.35-8.41,1.87-12.63c0.29-2.38.23-4.8,0.36-7.2,0-.95.23-1.89,0.25-2.83,0.1-5.32-1-10.48-2.15-15.63-0.21-1-1.11-1.75-1.4-2.71a42.12,42.12,0,0,1-2-12.25c0-3.93-1-7.85-1.61-11.77-0.26-1.71-.64-3.4-0.82-5.11-0.29-2.81-.38-5.63-0.71-8.44-0.53-4.51-1.19-9-1.77-13.5-0.41-3.2-.32-6.55-1.26-9.58-1.32-4.27-.83-8.87-2.94-13-1.24-2.43-1.56-5.32-2.36-8-0.65-2.18-1.5-4.3-2.08-6.5-0.52-2-.69-4.07-1.18-6.07-0.67-2.72-1.53-5.4-2.26-8.11a20.15,20.15,0,0,1-.93-4.29c-0.2-4.94-.08-9.89-0.38-14.82a46,46,0,0,0-1.44-8.58c-0.72-2.81-2-5.48-2.78-8.29-0.82-3-1.27-6.11-2-9.15-0.66-2.84-1.49-5.65-2.17-8.49-0.65-2.68-1.07-5.42-1.84-8.07s-1.9-5-2.68-7.56a44.88,44.88,0,0,1-.9-4.93c-0.22-1.16-.48-2.31-0.72-3.46-0.84-4.09-1.55-8.22-2.58-12.26-0.67-2.61-1.85-5.1-2.75-7.65a23.28,23.28,0,0,1-.66-11.62,91.15,91.15,0,0,1,2.78-12c1.57-5.16,3.55-10.14,7.06-14.46,2.32-2.85,3.83-6.34,5.92-9.39s4.47-6,6.77-8.89c4.77-6.07,10.1-11.73,13.64-18.7,1.51-3,2.9-6,4.55-8.94a25.53,25.53,0,0,1,4-5.69,37.15,37.15,0,0,1,6.08-4.37c3.56-2.29,7.2-4.47,10.79-6.72,0.55-.34,1-0.92,1.51-1.25,1.25-.74,2.5-1.51,3.88-0.13,1,1,2.15,1.93,3.53,3.14,1.65-1.1,3.6-2.36,5.51-3.67,1.34-.92,2.67-1.86,3.93-2.89s2.54-1,4.11-.51c3.24,1,6.52,1.81,9.23,4.07,0.41,0.34,1.45-.13,2.19-0.12a22.15,22.15,0,0,1,9.33,2.36c2.27,1.08,4.6,2,6.79,3.25a16.11,16.11,0,0,1,3.47,2.75c2.65,2.65,5.65,5.1,7.7,8.18,2.48,3.72,4.71,7.74,5.14,12.45,0.16,1.71,1.12,3.34,1.59,5a27.57,27.57,0,0,1,1.15,5.23,77.77,77.77,0,0,1,.35,11.22,56.12,56.12,0,0,1-1.94,9.87c-1.12,4.38-2.54,8.69-3.71,13.06a27.08,27.08,0,0,0-.75,4.89c-0.2,2.59-.37,5.18-0.36,7.78,0,3.73.62,7.5,0.24,11.18-0.56,5.38-1.78,10.69-2.68,16-0.46,2.74-.94,5.49-1.18,8.26-0.58,6.74-1,13.49-1.51,20.24-0.33,4.44-.64,8.89-1.07,13.32-0.24,2.45-.78,4.87-1.06,7.32a14.67,14.67,0,0,0,0,3.63c0.66,4.82,1.35,9.63,2.13,14.43,1.21,7.46,2.55,14.89,3.73,22.35,0.66,4.19,1.34,8.39,1.63,12.61,0.4,5.78.32,11.58,0.65,17.37,0.25,4.39.78,8.76,1.22,13.13s0.86,9,1.51,13.51a5.43,5.43,0,0,0,2.24,3.63,16.25,16.25,0,0,1,6.17,8.84c0.63,2.37,1.53,4.68,2,7.08,0.74,3.64,1.33,7.32,1.78,11,0.59,4.83,1,9.7,1.44,14.54,0.47,4.63.39,9.43,1.64,13.85s0.84,9.2,2,13.69c0.79,3.14,1.3,6.35,1.91,9.53,0.83,4.27,1.87,8.51,2.41,12.81,0.81,6.35,1.23,12.75,1.87,19.12,0.33,3.29.88,6.55,1.17,9.84,0.22,2.42.17,4.86,0.27,7.29,0.13,3.19.25,6.39,0.45,9.57,0.3,4.83.69,9.65,1,14.47s0.35,9.78.77,14.65c0.55,6.32,1.32,12.62,2.07,18.92,0.26,2.15.8,4.26,1.1,6.4a16.64,16.64,0,0,1,0,3.33c-0.34,5.23,1,10.29,1.51,15.42,0.35,3.26.08,6.58,0.12,9.87,0,1.47.22,2.95,0.17,4.41-0.2,5.6-.75,11.2-0.63,16.79,0.13,5.9.66,11.84,3.28,17.31a7.7,7.7,0,0,0,1.7,2.47c3.79,3.32,4.39,7.63,4.49,12.36,0.08,4,.93,8,1.4,12,0.4,3.36.67,6.73,1.14,10.08,0.42,3,1.08,6,1.52,8.95,0.37,2.45.49,4.94,0.87,7.38,0.94,6,2,12.05,3,18.08,0.69,4.2,1.5,8.38,2,12.6s0.88,8.69,1.27,13c0.23,2.55.31,5.12,0.59,7.67,0.5,4.55,1.08,9.1,1.69,13.64a46.38,46.38,0,0,0,1.24,7.33c1.22,4,2.76,8,4.27,11.89a4,4,0,0,0,1.58,1.89c2.53,1.47,3,4,3.46,6.47a49,49,0,0,0,3.4,10.72c1.37,3.14,1.93,6.65,2.78,10,0.89,3.51,1.89,7,2.5,10.57a65.55,65.55,0,0,1,.45,7.8c0.09,1.83.28,3.67,0.24,5.5a37.86,37.86,0,0,1-.53,4.48q-0.6,4.18-1.24,8.35c-0.19,1.24-.41,2.47-0.62,3.7a15.47,15.47,0,0,1-4.59,8.12c-1.48,1.54-3,3.08-4.55,4.53a4.54,4.54,0,0,0-1.48,3.47,60.3,60.3,0,0,1-.7,7C360.17,823.92,359.49,827.57,358.86,831.27Z" transform="translate(-65.87 -64.1)"/><path class="cls-1" d="M365.09,831.36h20.62v842.29H193.59c0-.63,0-1.27,0-1.9,0-3,.38-6.09-0.1-9-0.69-4.31-1.47-8.51-1.08-13,0.28-3.17-.53-6.42-0.6-9.63-0.09-3.81.06-7.63,0.14-11.44,0.06-2.78.07-5.56,0.27-8.33,0.4-5.57,1.16-11.13,1.31-16.7,0.13-5-.33-10-0.58-14.93-0.23-4.57-.75-9.13-0.72-13.69,0-3.89,1-7.79.95-11.67-0.08-8.84,2.45-17.08,5.19-25.3,1.49-4.48,4-8.58,4.82-13.35a6.78,6.78,0,0,0-2.74-6.91,5,5,0,0,1-1.94-5.07c0.28-2.34.81-4.65,1.24-7,1.14-6,2.1-12.14,3.49-18.13,1-4.2,2.51-8.28,3.81-12.4,0.78-2.47,1.53-5,2.43-7.4,1.85-5,3.94-9.93,5.64-15,2.1-6.29,5.52-11.92,8.4-17.83,1.24-2.54,3-4.81,3.55-7.73,0.44-2.16,2-4.07,2.66-6.23,1.16-4,2-8,2.95-12a32.09,32.09,0,0,0,.06-12.38,41.78,41.78,0,0,1-.65-9.91c0.28-3.17,1.53-6.26,2.35-9.39,0.39-1.49.84-3,1.15-4.47,0.42-2.06.63-4.17,1.11-6.22,0.76-3.26,1.78-6.46,2.48-9.73,1.15-5.32,2-10.7,3.21-16,1.51-6.51,3.28-13,4.94-19.43,0.94-3.67,1.74-7.37,2.86-11,1.65-5.32,3.62-10.54,5.28-15.85,1.46-4.68,2.65-9.45,4-14.16,0.95-3.23,2.15-6.38,3-9.63,0.67-2.52.89-5.14,1.47-7.69,0.93-4,3.35-7.37,5.47-10.82a64.85,64.85,0,0,0,8.07-18.71c0.87-3.55,2.05-7.11,1.13-10.88a7.7,7.7,0,0,1-.33-2.81c0.46-3.13,1.07-6.24,1.63-9.35,0.41-2.28,1-4.54,1.19-6.83a58.11,58.11,0,0,1,2.4-12.38c1.83-5.62,3.36-11.33,5.12-17q2.09-6.67,4.46-13.25c1-2.68,2.25-5.24,3.22-7.92,1.83-5.07,3.47-10.2,5.29-15.27s3.77-10.36,5.78-15.48c1.5-3.81,3.32-7.5,4.77-11.33,1-2.64,1.49-5.47,2.4-8.14,1.87-5.47,4.09-10.83,5.73-16.37,0.81-2.74,1.36-5.93.74-8.61a37.55,37.55,0,0,1-1-7.2c-0.21-5.79-.13-11.59-0.21-17.39,0-1.46-.38-2.93-0.3-4.38q0.4-6.78,1-13.54c0.39-4.13.81-8.27,1.44-12.37,0.58-3.74,1.46-7.43,2.21-11.14,0.71-3.53,1.4-7.07,2.13-10.6,0.18-.86.54-1.68,0.7-2.54,0.59-3.14,1-6.32,1.72-9.44,1-4.49,2.19-8.93,3.28-13.4,0.88-3.57,1.82-7.12,2.58-10.71,1.4-6.6,2.57-13.25,4.05-19.83,0.95-4.21,2.11-8.39,3.47-12.49,1.19-3.58,2.78-7,4.2-10.53s2.63-7.31,4.42-10.71c2-3.72,4.54-7.1,6.7-10.71A51.54,51.54,0,0,0,364.09,886c1.15-5.13,2.33-10.27,3.08-15.47a15.92,15.92,0,0,0-2.41-11.31c-2.59-3.82-3.53-7.71-2.38-12.15C363.73,841.93,365.67,836.86,365.09,831.36Z" transform="translate(-65.87 -64.1)"/><path d="M66.59,1673.65c0.12-4.54.25-9.09,0.36-13.63,0.13-5.7.14-11.41,0.43-17.1,0.1-2,.91-3.89,1.36-5.84,0.78-3.4,1.41-6.84,2.34-10.19,1.33-4.84,2.87-9.62,4.33-14.43,1.77-5.81,3.48-11.63,5.33-17.42,1-3.1,2.5-6.06,3.27-9.21a107.15,107.15,0,0,0,2.08-12c0.55-4.3.82-8.63,1.21-13,0.33-3.64.5-7.3,1-10.91a118.84,118.84,0,0,1,2.75-15c1.77-6.26,4.31-12.3,6.38-18.48,1.46-4.37,2.89-8.77,3.93-13.26a50.81,50.81,0,0,0,.83-8.88c0.16-3.18,0-6.38.22-9.56,0.26-4.22.58-8.45,1.12-12.64s1.34-8.43,2.13-12.63a40.81,40.81,0,0,1,1.53-6,154.88,154.88,0,0,0,5.35-19c1.82-8.51,3.79-17,5.78-25.46,0.7-3,1.78-5.89,2.45-8.89s1.1-5.94,1.5-8.94c0.63-4.83,1.29-9.66,1.67-14.51,0.51-6.47,3.29-12.34,4.6-18.59,0.75-3.59,1-7.28,1.95-10.83,1.2-4.7,2.81-9.29,4.22-13.94,0.8-2.65,1.42-5.36,2.35-8,1.13-3.16,2.63-6.19,3.74-9.35,1.75-5,3.81-9.84,3.61-15.3-0.07-1.94.82-3.94,0.58-5.83a8.77,8.77,0,0,1,2.14-6.92c1.21-1.55,1.82-3.57,2.71-5.38a4.59,4.59,0,0,1,.71-1.24c4.41-4.44,7.29-9.84,10-15.4,3.62-7.36,5.69-15.16,7.34-23.14,1.36-6.6,2.93-13.16,4.58-19.7,1-4.12,2.55-8.12,3.57-12.24,1.48-6,2.75-12.11,4-18.19,1.76-8.28,3.37-16.59,5.21-24.85,0.69-3.1,1.84-6.1,2.78-9.15a18.67,18.67,0,0,0,.77-7.68,33.28,33.28,0,0,1,.1-9.69c0.89-4.62,3.28-8.7,6.09-12.51a46.36,46.36,0,0,0,3-5.22,62.64,62.64,0,0,0,7.11-18.66c0.76-4,2-7.92,2.94-11.91,1.15-5.1,2.34-10.19,2.1-15.51a47.54,47.54,0,0,1,1.95-14.24,65.2,65.2,0,0,0,1.27-8.72c0.84-6.86,1.55-13.71,3.59-20.39,1.52-5,2.48-10.12,3.65-15.2,0.73-3.17,1.44-6.35,2-9.55,0.63-3.54,1-7.12,1.64-10.65a85.1,85.1,0,0,1,1.91-8.67c1.64-5.68,3.66-11.25,5.15-17,1.09-4.17,1.61-8.49,2.32-12.75,0.53-3.2,1-6.42,1.44-9.63,0.6-4.17,1.26-8.33,1.77-12.5,0.47-3.9.89-7.81,1.12-11.73a123.11,123.11,0,0,0,.32-13.42c-0.29-5.52-1.15-11-1.67-16.51-0.35-3.67-.63-7.35-0.75-11a11.19,11.19,0,0,1,.87-3.44c2-6.51,4.15-13,6-19.53a25.85,25.85,0,0,0,.62-6.2c0.29-8.35.5-16.71,0.74-25.07H365.09c0.59,5.5-1.36,10.57-2.71,15.73-1.16,4.44-.21,8.33,2.38,12.15a15.92,15.92,0,0,1,2.41,11.31c-0.76,5.2-1.93,10.34-3.08,15.47a51.54,51.54,0,0,1-6.58,15.11c-2.17,3.61-4.75,7-6.7,10.71-1.79,3.41-3,7.13-4.42,10.71s-3,6.95-4.2,10.53c-1.36,4.1-2.52,8.28-3.47,12.49-1.48,6.58-2.65,13.23-4.05,19.83-0.76,3.59-1.71,7.14-2.58,10.71-1.1,4.47-2.28,8.91-3.28,13.4-0.7,3.12-1.13,6.29-1.72,9.44-0.16.86-.53,1.68-0.7,2.54-0.73,3.53-1.42,7.06-2.13,10.6-0.75,3.71-1.63,7.4-2.21,11.14-0.63,4.1-1,8.24-1.44,12.37q-0.64,6.76-1,13.54c-0.09,1.45.27,2.92,0.3,4.38,0.08,5.8,0,11.6.21,17.39a37.55,37.55,0,0,0,1,7.2c0.63,2.68.08,5.87-.74,8.61-1.64,5.53-3.86,10.89-5.73,16.37-0.92,2.68-1.41,5.5-2.4,8.14-1.45,3.83-3.27,7.52-4.77,11.33-2,5.13-3.92,10.3-5.78,15.48s-3.46,10.2-5.29,15.27c-1,2.68-2.26,5.24-3.22,7.92q-2.36,6.58-4.46,13.25c-1.77,5.64-3.29,11.35-5.12,17a58.11,58.11,0,0,0-2.4,12.38c-0.23,2.29-.78,4.55-1.19,6.83-0.56,3.11-1.17,6.22-1.63,9.35a7.7,7.7,0,0,0,.33,2.81c0.92,3.77-.27,7.33-1.13,10.88a64.85,64.85,0,0,1-8.07,18.71c-2.13,3.45-4.55,6.77-5.47,10.82-0.58,2.54-.81,5.17-1.47,7.69-0.86,3.25-2.06,6.4-3,9.63-1.38,4.71-2.57,9.48-4,14.16-1.66,5.32-3.63,10.53-5.28,15.85-1.12,3.61-1.92,7.32-2.86,11-1.66,6.47-3.43,12.92-4.94,19.43-1.23,5.3-2.07,10.68-3.21,16-0.7,3.27-1.72,6.47-2.48,9.73-0.48,2-.69,4.15-1.11,6.22-0.31,1.51-.76,3-1.15,4.47-0.82,3.13-2.06,6.22-2.35,9.39a41.78,41.78,0,0,0,.65,9.91,32.09,32.09,0,0,1-.06,12.38c-0.94,4-1.79,8.07-2.95,12-0.63,2.15-2.21,4.06-2.66,6.23-0.6,2.92-2.32,5.2-3.55,7.73-2.88,5.91-6.29,11.54-8.4,17.83-1.69,5.06-3.79,10-5.64,15-0.9,2.43-1.64,4.92-2.43,7.4-1.3,4.13-2.84,8.2-3.81,12.4-1.38,6-2.35,12.08-3.49,18.13-0.44,2.32-1,4.63-1.24,7a5,5,0,0,0,1.94,5.07,6.78,6.78,0,0,1,2.74,6.91c-0.85,4.77-3.32,8.87-4.82,13.35-2.74,8.22-5.28,16.46-5.19,25.3,0,3.89-.92,7.78-0.95,11.67,0,4.56.49,9.13,0.72,13.69,0.25,5,.71,10,0.58,14.93-0.15,5.57-.91,11.13-1.31,16.7-0.2,2.77-.22,5.55-0.27,8.33-0.08,3.81-.23,7.63-0.14,11.44,0.08,3.22.88,6.47,0.6,9.63-0.39,4.44.38,8.64,1.08,13,0.47,2.94.09,6,.1,9,0,0.63,0,1.27,0,1.9h-127Z" transform="translate(-65.87 -64.1)"/><path d="M190.26,1673.65c-1.45,6.21-3,12.41-4.32,18.64-1,4.68-1.91,9.4-2.62,14.14-0.44,2.93-.43,5.93-0.65,8.9-0.28,3.83-.47,7.67-0.93,11.48-0.77,6.35-2.63,12.6-1.77,19.08,0.45,3.38,1.12,6.73,1.7,10.1,0.44,2.53.86,5.07,1.36,7.59,1,5,1.86,10,3,15,2,8.53,3.31,17,2.56,25.89a31.74,31.74,0,0,0,1.81,13.18c1.28,3.65,1.49,7.67,2.37,11.47,1.49,6.41,3,12.85,6,18.74,0.91,1.75,2.4,3.2,3.52,4.85a58.52,58.52,0,0,1,8,18.1c0.45,1.71.28,3.56,0.64,5.3,0.59,2.89,1.36,5.74,2.08,8.6,1.43,5.62,3,11.2,4.27,16.85,0.62,2.77.62,5.67,1,8.49,0.54,3.67,1.55,7.29,1.74,11,0.26,4.9-.12,9.83-0.12,14.75,0,4.33-.26,8.65,1,13,1.14,4,1.71,8.14,2.45,12.23s1.53,8.38,2.08,12.59c0.42,3.18.48,6.4,0.75,9.6a22.17,22.17,0,0,0,.56,3.65c1.79,6.91,3.66,13.8,5.43,20.72,1.08,4.22,2.12,8.45,3,12.71a57.53,57.53,0,0,1,1,7.41c0.33,4.38.34,8.78,0.8,13.14,0.37,3.51,1.25,7,1.81,10.46,0.33,2.06.36,4.17,0.69,6.24,0.54,3.33,1.17,6.64,1.85,9.94,1,5,2.11,10,3.21,14.92,0.56,2.54,1.15,5.07,1.82,7.59,1,3.94,1.9,8,3.32,11.78a40.81,40.81,0,0,1,2.55,12.79,38.81,38.81,0,0,0,1.82,11.1c2.38,6.85,2.54,13.91,3.18,21,0.54,5.91,1.35,11.79,2.12,17.67,0.92,7,1.87,14,2.94,20.91,0.4,2.63,1.3,5.18,1.75,7.8,0.5,2.92.68,5.9,1.13,8.83,0.52,3.39,1,6.81,1.84,10.13a26.19,26.19,0,0,0,2.48,5.25c2.16,4.21,3,8.78,4.06,13.35a140.68,140.68,0,0,0,4.32,14.9c1.92,5.6,4.36,11,6.27,16.63,0.81,2.38.86,5,1.26,7.54,0.94,6,1.9,12,2.81,18.07,0.77,5.16,1.5,10.32,2.21,15.49,0.12,0.86,0,1.76.07,2.63,0.23,3.57.35,7.15,0.77,10.7,0.25,2.09,1.1,4.11,1.48,6.19,1,5.52,1.85,11.06,2.82,16.58,0.55,3.13,1.26,6.23,1.87,9.35s1.14,6,1.73,9c1,4.95,2,9.89,2.91,14.85,0.68,3.67,1.25,7.36,1.78,11.05,0.44,3,.63,6.13,1.19,9.14,0.22,1.2.61,2.7,2.75,2.1,1.73-.49,4.3,2.08,4.41,3.89,0.18,2.84.61,5.68,0.67,8.53,0.08,4.17-.14,8.34-0.13,12.5a41.77,41.77,0,0,0,.39,6.52c0.62,3.83,1.71,7.59,2.18,11.44,0.56,4.7.55,9.46,1,14.17a69.09,69.09,0,0,0,1.72,9.39,21.38,21.38,0,0,1,.78,7.89,13.12,13.12,0,0,0,1.14,6.23,46.28,46.28,0,0,1,3.13,14.2c0.19,2.31,1.19,4.55,1.72,6.85,0.63,2.7,1.25,5.42,1.7,8.15,0.62,3.74,1.08,7.5,1.62,11.37H216.28a23.55,23.55,0,0,0,.08-14.67c-0.92-3-2.5-5.74-3.58-8.67A15.93,15.93,0,0,1,212,2488c-0.21-3.48-.08-7-0.44-10.45-0.41-4-1.2-8.06-1.81-12.09-0.47-3.1-.83-6.22-1.42-9.3-1-5.24-1.86-10.53-3.32-15.64-1.83-6.43-4.44-12.63-6.26-19.06-2-7.11-3.46-14.38-5.25-21.56-1.49-6-2.91-12-4.76-17.83-1.17-3.71-3.14-7.17-4.62-10.8a136.38,136.38,0,0,1-7.59-24.37c-1-4.92-2.26-9.79-3.45-14.68-0.74-3-1.14-6.27-2.46-9s-1.95-6-3.33-8.64c-1.83-3.57-2.67-7.32-3.69-11.08a3.4,3.4,0,0,1-.09-2c1.54-3.65.1-6.92-1-10.33s-1.8-7.09-2.67-10.65a3.47,3.47,0,0,0-.11-0.71c-1.61-3.19-1.19-6.65-1.35-10-0.21-4.58-.62-9.15-0.68-13.72s0.47-9.38.24-14a78.85,78.85,0,0,0-1.73-12.87c-0.8-3.67-2.46-7.14-3.39-10.79-0.81-3.2-1.11-6.54-1.7-9.8a12.29,12.29,0,0,0-.88-2.88c-2-4.43-2-9.13-1.56-13.77a55.9,55.9,0,0,0-.74-13.76c-0.43-2.76-.52-5.57-0.78-8.36-0.47-4.89-.85-9.8-1.48-14.67-0.5-3.87-1.25-7.71-2-11.55-1.45-7.32-3.15-14.59-4.41-21.93-0.91-5.29-1.24-10.68-1.87-16-0.56-4.76-1.21-9.51-1.76-14.28a41.85,41.85,0,0,1-.37-5.71,102.92,102.92,0,0,0-1.3-15.42c-0.71-5.55-.74-11.18-1.32-16.75-0.35-3.35-1.25-6.63-1.82-10-0.31-1.81-.46-3.65-0.65-5.48-0.39-3.67-.74-7.34-1.17-11-0.28-2.45-.59-4.9-1-7.32-0.58-3.26-1.36-6.49-1.91-9.76q-1.3-7.76-2.4-15.56c-0.72-5.08-1.36-10.18-2-15.27-0.58-4.72-1.07-9.45-1.65-14.16-0.55-4.46-1.27-8.89-1.75-13.36-0.3-2.8-.12-5.66-0.46-8.46a95.24,95.24,0,0,0-1.75-10.14c-0.54-2.33-1.66-4.53-2.28-6.85-0.7-2.62-1.06-5.33-1.7-8s-1.51-5.21-2.14-7.84c-1-4.31-1.91-8.66-3-13-0.92-3.79-1.45-7.82-3.15-11.25a22.23,22.23,0,0,1-2-8.09c-0.31-3-1.44-6-2.07-9a52.55,52.55,0,0,0-3.95-12.9c-1.83-3.69-3.55-7.43-5.23-11.19-1.81-4-3.49-8.14-5.3-12.18a85.06,85.06,0,0,0-4.3-9,32.29,32.29,0,0,1-4.37-13.6c-0.63-6.34-.54-12.85-2-19-1.67-7-.7-14.07-1.53-21.05-0.18-1.55.32-3.17,0.23-4.74-0.14-2.62-.45-5.23-0.76-7.84-0.43-3.6-1.28-7.19-1.29-10.79,0-4.44-1.21-8.55-2.23-12.76-1-4-1.5-8.15-2.2-12.24-0.39-2.28-1.1-4.58-1-6.84,0.19-4.49,1-9,1.24-13.45,0.19-3.52-.12-7.06-0.18-10.59,0-2.94,0-5.88,0-8.82,0-2.79,0-5.57,0-8.36H190.26Z" transform="translate(-65.87 -64.1)"/><path d="M216.16,2511.36H327.59c0.39,3.46.79,6.91,1.16,10.37,0.2,1.86.18,3.75,0.51,5.58,0.92,5,2,9.94,1.16,15.12-0.42,2.54-.81,5.41-0.06,7.75a13.72,13.72,0,0,1,0,8.83c-1.36,4.12-2.05,8.12-.67,12.45,0.66,2,.41,4.4.46,6.61,0.06,2.84-.3,5.73.09,8.52,0.51,3.62,1.6,7.14.32,10.82a9.9,9.9,0,0,0-.38,3.35c0.07,4.26.25,8.52,0.32,12.78a12.54,12.54,0,0,1-.38,2.8,27.73,27.73,0,0,0-.41,10.35,136.79,136.79,0,0,1,1.81,15.21c0.25,5.33-.36,10.69-0.22,16,0.14,5,.85,10.08,1.15,15.13a64.25,64.25,0,0,1-1.39,19.06c-0.7,2.89-.33,6-0.4,9.09,0,1.89.15,3.81-.09,5.68-0.35,2.74-1.06,5.44-1.48,8.18-0.45,2.91-.8,5.84-1.09,8.77-0.64,6.29-1.25,12.59-1.8,18.9-0.16,1.8,0,3.62-.07,5.42-0.16,4.66-.52,9.32-0.49,14,0,3.48.68,7-.19,10.41a24.15,24.15,0,0,0-.41,9.19,23.25,23.25,0,0,1-.25,5.17c-0.35,3.6-.86,7.19-1.11,10.8-0.19,2.79-.05,5.6-0.11,8.4-0.06,3-.27,6.1-0.24,9.14,0,4.15.53,8.32,0.34,12.46-0.24,5.16-1.22,10.28-.26,15.47,0.3,1.59-.07,3.32.29,4.89,1.61,7.12,3.28,14.23,5.11,21.3,1,3.83,2.4,7.58,2,11.61-0.24,2.7-.74,5.38-1.18,8.07a41.24,41.24,0,0,1-1.2,6.24c-1.83,5.57-4.52,10.81-5.53,16.71-0.69,4.07-2.37,8-3.51,12-1.25,4.41-2.39,8.85-3.58,13.28-0.49,1.81-.85,3.67-1.5,5.43-1,2.57-2.27,5-3.15,7.6-1.13,3.33-2,6.74-2.93,10.14-0.42,1.59-.62,3.23-0.9,4.85-0.5,2.86-.81,5.76-1.53,8.56-0.53,2.07-1.78,4-2.38,6-1,3.6-3.25,6.5-5.09,9.64-2.05,3.49-4.48,6.89-5.8,10.66s-1.47,8-2.23,12.08c-0.65,3.46-.62,7.09-2.57,10.22-0.4.64-.67,1.36-1.05,2-2.44,4.17-3.12,9.14-6.42,13-4.58,5.34-9,10.78-14.72,15-3.05,2.23-5.64,5.1-5.83,9.41a27.51,27.51,0,0,1-1.26,6c-1.3,4.65-4.17,8.47-7.05,12.18-2.07,2.67-4.24,5.19-7.81,6.42-2.85,1-5.29,3.23-7.84,5s-4.92,4.06-7.67,5.57a64.16,64.16,0,0,0-11.38,8c-1.86,1.62-3.59,3.39-5.43,5-1.55,1.39-3.16,2.71-4.77,4a7.87,7.87,0,0,1-2,1.4c-3.3,1.25-6.55,2.79-10,3.49-3.19.65-4.24,2.85-5.35,5.25-1,2.19-1.22,4.89-3.87,6a30.16,30.16,0,0,0-3.47,1.24c-2.48,1.4-5,1.28-7.57.56-3.63-1-7.28-1.91-10.95-2.78-3.33-.79-4.39-2.17-4.72-5.79a7.71,7.71,0,0,0-1.39-3.89c-1.78-2.27-4.09-4.14-5.8-6.46a74.14,74.14,0,0,1-4.69-7.81c-1.77-3.14-3.17-6.42-2.51-10.14,0.71-4,1.5-8,2.42-11.95,0.45-1.93,1.54-3.73,1.85-5.67,1.11-6.95,3.42-13.57,5.31-20.3,0.57-2,1.39-4,2-6,1-3.44,1.68-7,2.87-10.36,2-5.58,4.37-11,6.35-16.59,1.71-4.81,3.07-9.75,4.63-14.62s3.26-9.69,4.72-14.59c0.82-2.75,1.24-5.63,1.92-8.43,0.84-3.43,1.85-6.81,2.64-10.25,1.38-6,2.62-12.08,4-18.12,0.83-3.73,1.81-7.43,2.55-11.18s1.19-7.34,1.82-11c0.57-3.31,1.3-6.6,1.81-9.92,0.47-3.07.55-6.21,1.16-9.25a173.78,173.78,0,0,0,2.87-23.31c0.33-5.15.28-10.33,0.73-15.47s1.2-10.18,2-15.24c0.74-4.61,2.32-9.1,1.92-13.87a2,2,0,0,1,0-.9c2.3-5.37,1.5-11.13,2.14-16.71a70.34,70.34,0,0,1,1.06-7c0.78-3.55,1.75-7.07,2.55-10.22l0.17,0.57a19.41,19.41,0,0,0,1.56-6.48c0.06-2.66-.54-5.32-0.61-8-0.06-2.43-1.3-4.49-1.81-6.78-1-4.37-.58-8.73-0.25-13s1.66-8.79,2.44-13.2c0.21-1.18-.21-2.49.08-3.62,1.25-4.78,2.81-9.48,4-14.28a20.17,20.17,0,0,0,.49-7.1,19.06,19.06,0,0,1,.42-7.27c1.29-5.14,2.46-10.3,2.27-15.68a76.91,76.91,0,0,1,.34-8c0.18-2.55.45-5.09,0.72-7.63,0.17-1.59.42-3.17,0.61-4.76,0.41-3.48.88-6.95,1.16-10.43,0.11-1.4-.42-2.86-0.28-4.26,0.5-5.09,1.29-10.16,1.7-15.25a54.58,54.58,0,0,0-.18-8.77c-0.23-2.77-1.1-5.52-1.13-8.28-0.06-5.67-1.74-11.26-.81-17,0.41-2.51.6-5.06,1-7.58a39.37,39.37,0,0,0,.23-12.11,26.4,26.4,0,0,1-.34-5.75c0.17-2.83,1-5.65.9-8.46-0.08-4.46-.78-8.91-0.94-13.37a97.67,97.67,0,0,1,.28-10.72c0.35-4.79.5-9.47-1-14.19-0.74-2.38-.43-5.12-0.46-7.69,0-1.36.37-2.73,0.34-4.08a86.9,86.9,0,0,1,2.18-19.26,15.34,15.34,0,0,0,.62-3.63C216.88,2522.55,216.49,2517,216.16,2511.36Z" transform="translate(-65.87 -64.1)"/></svg>