<svg id="Layer_1" data-name="Layer 1" xmlns="http://www.w3.org/2000/svg" viewBox="0 0 290.85 291.3"><defs><style>.cls-1{fill:#fff;}</style></defs><title>21_Object_1_to_520161124140305365_Page_25_Image_0001</title><path class="cls-1" d="M248.24,298.23a6.68,6.68,0,0,0,2.41,0c3.69-1.63,7.9-1.83,11.22-4.56,2-1.66,4.6-2.61,6.8-4.07a58.27,58.27,0,0,0,6.13-4.7,23.33,23.33,0,0,0,4.75-5c3-4.87,5.58-10,8.32-15a10.21,10.21,0,0,0,.36-1.17c1.16-2.93.57-6.45,3-9a2.36,2.36,0,0,0,.2-1.37c0.15-5,.2-9.95.44-14.91,0.25-5.18.7-10.36,1-15.54s0.53-10.46.8-15.69c0.13-2.49.44-5,.39-7.48-0.09-4.82-.45-9.63-0.55-14.45-0.09-4.28.1-8.56,0-12.84-0.13-5.69-.42-11.38-0.62-17.08,0-.79.09-1.59,0.09-2.39,0-4.82,0-9.63,0-14.45,0-1.55.25-3.1,0.23-4.65-0.09-6.54-.32-13.09-0.34-19.63,0-4.13.34-8.26,0.35-12.39,0-2.15-.56-4.31-0.56-6.46,0-7.26.12-14.51,0.24-21.77,0.06-3.4.31-6.79,0.32-10.18,0-2.81-.68-5.7-0.21-8.4,0.58-3.35-.6-6.16-1.62-9a45.79,45.79,0,0,0-3.66-8.33,89.44,89.44,0,0,0-6.45-8.81,33.6,33.6,0,0,0-3.35-3.4,55.86,55.86,0,0,0-5.67-5.24,102.79,102.79,0,0,0-9.12-5.67c-2.94-1.68-5.88-3.47-9.28-4.11-2.09-.4-4.26-3-6.32.1a1.16,1.16,0,0,1-.53,0c-2.08.23-4.16,0.59-6.25,0.68-3.33.14-6.67,0.09-10,.15s-6.38.21-9.58,0.23-6.09.19-9.15,0.08c-2.21-.08-4.44.69-6.66,0.69-5.32,0-10.64-.27-16-0.36-0.78,0-1.58.61-2.34,0.57-1.31-.07-2.6-0.6-3.91-0.65-2.41-.1-4.84.06-7.25,0-5.89-.18-11.78-0.49-17.67-0.63-2.38-.05-4.78.29-7.16,0.29-0.94,0-1.88-.65-2.82-0.65-3.86,0-7.72.14-11.58,0.22-4.44.1-8.85-.44-13.3-0.32-3.62.1-7.26-.41-10.89-0.66-2.84-.19-5.67-0.5-8.52-0.58-5.32-.15-10.65-0.11-16-0.28-2-.06-4-0.45-5.94-0.71a12.68,12.68,0,0,0-2-.3c-2.48.09-4.95,0.3-7.42,0.4C69.86,8.91,67.07,9,64.29,9,60.86,8.92,57.41,8.48,54,8.68c-1.79.11-4-1.94-5.47,0.76a0.68,0.68,0,0,1-.33.06c-1.63.27-3.4,0.23-4.87,0.86a94.21,94.21,0,0,0-10.14,5.05c-2.59,1.51-4.9,3.51-7.37,5.24A51.71,51.71,0,0,0,13.91,33c-2.59,3.57-5.1,7.28-5.85,11.69a75.32,75.32,0,0,0-.6,10.24C7.31,60.1,7.28,65.3,7.14,70.5c-0.07,2.67-.36,5.33-0.39,8-0.06,5.06,0,10.11,0,15.17-0.05,4.53-.27,9.05-0.33,13.58,0,1.6.37,3.21,0.3,4.81-0.17,3.8-.67,7.59-0.75,11.39-0.11,5.5.15,11,0,16.5-0.11,4.65-.52,9.29-0.84,13.93C4.85,158,4.32,162,4.24,166.11c-0.15,7.1-.06,14.2,0,21.3,0,3.15-.07,6.28.24,9.45a125.36,125.36,0,0,1,.09,13.7c-0.05,4.12-.28,8.24-0.33,12.36-0.06,4.85.08,9.7,0,14.55-0.11,4.21-.48,8.41-0.67,12.61,0,0.93.47,2,.23,2.79-0.58,2-1.06,3.78,1.35,4.9a1.52,1.52,0,0,1,.42.76c1.37,3.21,2.59,6.48,4.13,9.6a66.94,66.94,0,0,0,4.86,8.32c1.46,2.12,3.51,3.82,5,5.9,3,4.09,7.57,5.93,11.59,8.57a11.44,11.44,0,0,0,3.29,1.86c3.23,0.77,6.34,1.79,9.89,1.29s7.15,0,10.72.28c6.3,0.41,12.58,1.05,18.89,1.34,3.48,0.16,7-.22,10.47-0.31,11.66-.29,23.23.93,34.84,1.72,5.74,0.39,11.51.33,17.26,0.43,2.9,0.05,5.81-.06,8.71,0,6.81,0.2,13.62.52,20.43,0.7,7,0.18,14.09.28,21.13,0.36q6.77,0.08,13.54,0c5.65-.07,11.29-0.28,16.94-0.33,6.45-.06,12.9,0,19.36,0a5.91,5.91,0,0,1,1.65.46,5.1,5.1,0,0,0,1.77.57C242.77,299,245.54,298.6,248.24,298.23Z" transform="translate(-3.25 -8.04)"/><path d="M248.24,298.23c-2.7.37-5.47,0.8-8.25,1.1a5.1,5.1,0,0,1-1.77-.57,5.91,5.91,0,0,0-1.65-.46c-6.45,0-12.9-.07-19.36,0-5.65.05-11.29,0.26-16.94,0.33q-6.77.09-13.54,0c-7-.08-14.09-0.18-21.13-0.36-6.81-.18-13.62-0.5-20.43-0.7-2.9-.08-5.81,0-8.71,0-5.75-.1-11.52,0-17.26-0.43-11.6-.79-23.18-2-34.84-1.72-3.49.09-7,.47-10.47,0.31-6.3-.29-12.59-0.94-18.89-1.34-3.57-.23-7.23-0.77-10.72-0.28s-6.66-.51-9.89-1.29a11.44,11.44,0,0,1-3.29-1.86c-4-2.64-8.6-4.47-11.59-8.57-1.52-2.08-3.57-3.78-5-5.9a66.94,66.94,0,0,1-4.86-8.32c-1.54-3.12-2.76-6.4-4.13-9.6a1.52,1.52,0,0,0-.42-0.76c-2.42-1.12-1.93-2.91-1.35-4.9C4,252,3.45,251,3.49,250.09c0.19-4.21.57-8.41,0.67-12.61,0.12-4.85,0-9.7,0-14.55,0.05-4.12.27-8.24,0.33-12.36a125.36,125.36,0,0,0-.09-13.7c-0.31-3.17-.22-6.3-0.24-9.45,0-7.1-.12-14.2,0-21.3,0.09-4.08.61-8.16,0.89-12.24,0.32-4.64.73-9.28,0.84-13.93,0.13-5.5-.14-11,0-16.5,0.08-3.8.57-7.59,0.75-11.39,0.07-1.59-.32-3.21-0.3-4.81,0.06-4.53.27-9.05,0.33-13.58,0.06-5.06,0-10.11,0-15.17,0-2.67.32-5.33,0.39-8,0.14-5.2.17-10.4,0.33-15.59a75.32,75.32,0,0,1,.6-10.24c0.74-4.41,3.26-8.12,5.85-11.69A51.71,51.71,0,0,1,25.79,20.66c2.47-1.73,4.78-3.73,7.37-5.24a94.21,94.21,0,0,1,10.14-5.05c1.47-.64,3.24-0.6,4.87-0.86a0.68,0.68,0,0,0,.33-0.06C50,6.74,52.2,8.78,54,8.68c3.42-.2,6.87.24,10.3,0.29,2.78,0,5.57-.06,8.35-0.16,2.48-.09,4.95-0.3,7.42-0.4a12.68,12.68,0,0,1,2,.3c2,0.26,4,.65,5.94.71,5.32,0.16,10.65.13,16,.28,2.84,0.08,5.68.38,8.52,0.58,3.63,0.25,7.27.75,10.89,0.66,4.45-.12,8.87.42,13.3,0.32,3.86-.09,7.72-0.22,11.58-0.22,0.94,0,1.88.65,2.82,0.65,2.39,0,4.78-.35,7.16-0.29,5.89,0.14,11.78.45,17.67,0.63,2.42,0.07,4.84-.09,7.25,0,1.31,0.06,2.6.58,3.91,0.65,0.77,0,1.56-.58,2.34-0.57,5.32,0.08,10.64.35,16,.36,2.22,0,4.45-.76,6.66-0.69,3.06,0.11,6.1-.07,9.15-0.08s6.38-.17,9.58-0.23,6.68,0,10-.15c2.09-.09,4.17-0.45,6.25-0.68a1.16,1.16,0,0,0,.53,0c2.06-3.08,4.23-.5,6.32-0.1,3.4,0.64,6.34,2.43,9.28,4.11a102.79,102.79,0,0,1,9.12,5.67A55.86,55.86,0,0,1,278,25.53a33.6,33.6,0,0,1,3.35,3.4,89.44,89.44,0,0,1,6.45,8.81,45.79,45.79,0,0,1,3.66,8.33c1,2.89,2.2,5.69,1.62,9-0.47,2.71.22,5.6,0.21,8.4,0,3.39-.27,6.79-0.32,10.18-0.12,7.26-.24,14.51-0.24,21.77,0,2.15.56,4.31,0.56,6.46,0,4.13-.37,8.26-0.35,12.39,0,6.54.25,13.09,0.34,19.63,0,1.55-.22,3.1-0.23,4.65,0,4.82,0,9.63,0,14.45,0,0.8-.11,1.59-0.09,2.39,0.2,5.69.49,11.38,0.62,17.08,0.1,4.28-.1,8.56,0,12.84,0.1,4.82.47,9.63,0.55,14.45,0,2.49-.27,5-0.39,7.48-0.27,5.23-.49,10.46-0.8,15.69s-0.76,10.36-1,15.54c-0.24,5-.29,9.94-0.44,14.91a2.36,2.36,0,0,1-.2,1.37c-2.47,2.51-1.89,6-3,9a10.21,10.21,0,0,1-.36,1.17c-2.74,5-5.35,10.09-8.32,15a23.33,23.33,0,0,1-4.75,5,58.27,58.27,0,0,1-6.13,4.7c-2.2,1.47-4.78,2.41-6.8,4.07-3.32,2.73-7.53,2.93-11.22,4.56A6.68,6.68,0,0,1,248.24,298.23Zm4-68.89a29.16,29.16,0,0,0,.45-3.47c0-1.36-.25-2.72-0.27-4.08-0.06-2.86,0-5.73-.06-8.59-0.15-5.64-.4-11.28-0.53-16.92-0.12-4.8-.1-9.6-0.24-14.4a1.92,1.92,0,0,0-1.05-1.47,2.89,2.89,0,0,0-3.35,1.9c-1.65,4.26-3.38,8.49-5.27,12.65-1.65,3.64-3.66,7.12-5.31,10.77-1.1,2.43-1.61,5,.47,7.32,0.94,1.06,1.74,2.25,2.67,3.32,2.62,3,5.21,6.06,7.94,9C249,226.71,250.51,227.82,252.28,229.35Zm-83.64,26.87a8.27,8.27,0,0,0,5.88,3c2.5,0.14,5,.17,7.5.32,6,0.36,11.9.76,17.85,1.15a30.88,30.88,0,0,1,4.58.39,25.91,25.91,0,0,0,10.06-.16,28.49,28.49,0,0,0-2.39-4.09,60,60,0,0,0-5.65-6,85.25,85.25,0,0,0-8-6.5c-1.12-.79-3-1.58-4.08-1.15a72.3,72.3,0,0,0-10.05,5.15c-2.62,1.57-4.87,3.64-8,4.52C173.76,253.55,171.36,255,168.64,256.21ZM118.09,254c-3.23-1.44-6-2.62-8.67-3.88-2.5-1.16-5-2.28-7.42-3.66-4-2.35-8.07-4.74-11.89-7.43-1.06-.75-1.45-0.4-2,0.11-1.77,1.67-3.47,3.42-5.19,5.14-3.13,3.12-6.27,6.23-9.36,9.39a8.8,8.8,0,0,0-1,1.92c2.49,0.37,4.68.84,6.9,1,4.47,0.34,9,.55,13.43.74,2.1,0.09,4.22,0,6.32,0,5.79,0.15,11.51-.15,17-2.17A11.38,11.38,0,0,0,118.09,254ZM44.4,132.14a6.45,6.45,0,0,0,4.64-4.8,47.39,47.39,0,0,1,3-7.87c2.4-4.82,5-9.56,7.65-14.25,1.52-2.69.91-5-.83-7.17-2.38-3-4.81-5.9-7.33-8.76-1.61-1.83-3.42-3.48-5.15-5.2l-0.64.23Zm206.44,0.67,0.43,0a6.55,6.55,0,0,0,.51-0.89,42.27,42.27,0,0,0,2.66-12.31,122.94,122.94,0,0,0-.17-13.58c-0.19-5.16-.46-10.33-0.85-15.48A26.93,26.93,0,0,0,252.29,86c-2.13,1.55-4,2.82-5.75,4.22-2.37,1.89-4.69,3.85-6.94,5.88a2.18,2.18,0,0,0-.56,1.87,123,123,0,0,0,4.37,11.88c3,6.49,5,13.31,6.91,20.14A27,27,0,0,1,250.84,132.82ZM173.65,48c-0.16,2.31.43,2.68,2.62,3.28a52,52,0,0,1,8.27,3.22c3.38,1.6,6.63,3.45,9.94,5.19A48.6,48.6,0,0,0,199.11,62c1.85,0.73,3.4,2.82,5.69,1.74a12.71,12.71,0,0,0,2.84-2.35q5.6-5.13,11.16-10.29l-0.13-.76c-2.24-.34-4.47-0.86-6.72-1-4.54-.25-9.09-0.23-13.64-0.42-3.87-.16-7.73-0.52-11.6-0.68C182.37,48.12,178,48.07,173.65,48Zm-93.32-.48a13.82,13.82,0,0,0,1.11,3.26c1.6,2.26,3.37,4.41,5.09,6.6a50.75,50.75,0,0,0,4.13,5.09,3.8,3.8,0,0,0,3.07.92,14.51,14.51,0,0,0,4.5-2.27c3.08-2.17,6.6-3.3,10.09-4.49,4.4-1.49,8.85-2.85,13.27-4.26l0-.81ZM41.72,223.21c1.82-1,3.36-1.79,4.88-2.62a28.45,28.45,0,0,0,7.51-6.31c1-1.09,1.22-1.89.6-3.19-2.35-4.93-4.74-9.85-6.87-14.88a48.82,48.82,0,0,1-2-7.29c-0.61-2.47-1.14-5-1.7-7.45a8.25,8.25,0,0,0-1.18,3c-0.23,1.58-.26,3.2-0.41,4.8-0.35,3.85-.81,7.69-1,11.54-0.28,4.86-.49,9.73-0.5,14.59A76.9,76.9,0,0,0,41.72,223.21Zm180-169.52,0.11,0.2-6.28,5,0.67,0.65Z" transform="translate(-3.25 -8.04)"/><path class="cls-1" d="M252.28,229.35c-1.76-1.53-3.29-2.64-4.55-4-2.72-2.92-5.32-6-7.94-9-0.93-1.07-1.73-2.26-2.67-3.32-2.08-2.34-1.57-4.89-.47-7.32,1.65-3.64,3.65-7.13,5.31-10.77,1.88-4.16,3.62-8.39,5.27-12.65a2.89,2.89,0,0,1,3.35-1.9,1.92,1.92,0,0,1,1.05,1.47c0.14,4.8.13,9.6,0.24,14.4,0.14,5.64.39,11.28,0.53,16.92,0.07,2.86,0,5.73.06,8.59,0,1.36.27,2.72,0.27,4.08A29.16,29.16,0,0,1,252.28,229.35Z" transform="translate(-3.25 -8.04)"/><path class="cls-1" d="M168.64,256.21c2.72-1.23,5.12-2.67,7.73-3.41,3.09-.88,5.35-2.95,8-4.52a72.3,72.3,0,0,1,10.05-5.15c1.06-.43,3,0.36,4.08,1.15a85.25,85.25,0,0,1,8,6.5,60,60,0,0,1,5.65,6,28.49,28.49,0,0,1,2.39,4.09,25.91,25.91,0,0,1-10.06.16,30.88,30.88,0,0,0-4.58-.39c-5.95-.39-11.9-0.79-17.85-1.15-2.5-.15-5-0.19-7.5-0.32A8.27,8.27,0,0,1,168.64,256.21Z" transform="translate(-3.25 -8.04)"/><path class="cls-1" d="M118.09,254a11.38,11.38,0,0,1-1.88,1.2c-5.5,2-11.23,2.32-17,2.17-2.11-.05-4.22.06-6.32,0-4.48-.19-9-0.4-13.43-0.74-2.22-.17-4.41-0.63-6.9-1a8.8,8.8,0,0,1,1-1.92c3.09-3.16,6.23-6.27,9.36-9.39,1.72-1.72,3.42-3.47,5.19-5.14,0.53-.5.92-0.85,2-0.11,3.82,2.68,7.85,5.08,11.89,7.43,2.38,1.38,4.92,2.49,7.42,3.66C112.12,251.42,114.86,252.6,118.09,254Z" transform="translate(-3.25 -8.04)"/><path class="cls-1" d="M44.4,132.14l1.33-47.82,0.64-.23c1.72,1.73,3.53,3.38,5.15,5.2,2.52,2.85,4.95,5.79,7.33,8.76,1.74,2.17,2.35,4.48.83,7.17-2.66,4.69-5.24,9.43-7.65,14.25a47.39,47.39,0,0,0-3,7.87A6.45,6.45,0,0,1,44.4,132.14Z" transform="translate(-3.25 -8.04)"/><path class="cls-1" d="M250.84,132.82a27,27,0,0,0-.51-2.87c-2-6.83-3.92-13.64-6.91-20.14A123,123,0,0,1,239,97.92a2.18,2.18,0,0,1,.56-1.87c2.25-2,4.57-4,6.94-5.88,1.75-1.4,3.62-2.66,5.75-4.22a26.93,26.93,0,0,1,1.15,4.59c0.39,5.15.66,10.32,0.85,15.48a122.94,122.94,0,0,1,.17,13.58,42.27,42.27,0,0,1-2.66,12.31,6.55,6.55,0,0,1-.51.89Z" transform="translate(-3.25 -8.04)"/><path class="cls-1" d="M173.65,48c4.37,0.11,8.72.16,13.07,0.34,3.87,0.16,7.73.52,11.6,0.68,4.54,0.19,9.1.17,13.64,0.42,2.25,0.12,4.48.64,6.72,1l0.13,0.76q-5.58,5.15-11.16,10.29a12.71,12.71,0,0,1-2.84,2.35c-2.29,1.08-3.84-1-5.69-1.74a48.6,48.6,0,0,1-4.63-2.39c-3.31-1.74-6.56-3.59-9.94-5.19a52,52,0,0,0-8.27-3.22C174.08,50.64,173.5,50.27,173.65,48Z" transform="translate(-3.25 -8.04)"/><path class="cls-1" d="M80.34,47.48l41.21,4,0,0.81c-4.43,1.41-8.87,2.77-13.27,4.26-3.49,1.19-7,2.31-10.09,4.49a14.51,14.51,0,0,1-4.5,2.27,3.8,3.8,0,0,1-3.07-.92,50.75,50.75,0,0,1-4.13-5.09c-1.71-2.19-3.48-4.34-5.09-6.6A13.82,13.82,0,0,1,80.34,47.48Z" transform="translate(-3.25 -8.04)"/><path class="cls-1" d="M41.72,223.21a76.9,76.9,0,0,1-.73-7.78c0-4.87.22-9.74,0.5-14.59,0.22-3.85.69-7.69,1-11.54,0.14-1.6.17-3.21,0.41-4.8a8.25,8.25,0,0,1,1.18-3c0.56,2.48,1.09,5,1.7,7.45a48.82,48.82,0,0,0,2,7.29c2.13,5,4.52,9.95,6.87,14.88,0.62,1.3.38,2.1-.6,3.19a28.45,28.45,0,0,1-7.51,6.31C45.07,221.42,43.54,222.23,41.72,223.21Z" transform="translate(-3.25 -8.04)"/><path class="cls-1" d="M221.73,53.69l-5.5,5.82-0.67-.65,6.28-5Z" transform="translate(-3.25 -8.04)"/></svg>