<svg id="Layer_1" data-name="Layer 1" xmlns="http://www.w3.org/2000/svg" viewBox="0 0 357.67 473.64"><defs><style>.cls-1{fill:#fff;}</style></defs><title>21_Object_1_to_520161124140305365_Page_15_Image_0001</title><path class="cls-1" d="M61.63,477.07a18.23,18.23,0,0,1,3.27-.53c3.39,0,6.78.21,10.17,0.33,2.5,0.09,5,.19,7.51.24,3.72,0.07,7.43.15,11.15,0.13,2.09,0,4.17-.29,6.26-0.34,2.47-.06,4.94,0,7.42,0,2,0,3.93-.33,5.87-0.16,3.12,0.26,6.21,1,9.34,1.2,6.88,0.48,13.78.69,20.66,1.16a53.76,53.76,0,0,1,9,1.25,34.31,34.31,0,0,0,12.38.64,52.37,52.37,0,0,0,5.93-1.55c4.11-1,8.29-1.78,12.32-3,3-.92,5.9-1.71,9-1.34,2.36,0.28,4.72.55,7.08,0.71,1.66,0.11,3.33,0,5,0,2.79,0,5.72.74,8.22-1.08,2.05-1.49,4.44-1.53,6.75-1.79,5.26-.58,10.53.69,15.81,0.12,1.49-.16,3.05.09,4.51-0.22,3.29-.69,6.51-1.81,9.92-0.69a2.1,2.1,0,0,0,1.35.2c2.83-1.68,5.18.16,7.71,0.87a14.5,14.5,0,0,0,4.69.65c0.75,0,1.44-1.15,2.15-1.78a6.71,6.71,0,0,0,.51-0.51c0.86-.95,1.78-0.81,2.82-0.26a3.58,3.58,0,0,0,3.45-.1c2-.94,4.33-2,6.47-1.87,3.06,0.14,5.93.35,8.82-1a7.72,7.72,0,0,1,4.2-.43c3.23,0.48,6.41,1.29,9.63,1.9s6.52,2.13,10,1.67a59.75,59.75,0,0,1,6.12-.62c3.2-.09,6.4.1,9.6,0,2.9-.07,5.8-0.29,8.69-0.51,2.36-.18,4.72-0.46,7.08-0.67,2.92-.27,5.87-0.35,8.76-0.81,3.18-.5,6.78.26,9.17-2.81l0.8,1.11a5.13,5.13,0,0,1,.6-1.54c0.38-.41,1-0.58,1.43-1,1-.87,1.15-3.47.4-4.55a2.84,2.84,0,0,1-.44-0.94c-0.69-2.92-1.21-5.89-2.07-8.75s-2.12-5.46-3-8.24c-1.65-5.2-3.15-10.45-4.7-15.68a4.87,4.87,0,0,0-2.44-3,12.81,12.81,0,0,1-3-3.07c-0.48-.58-0.7-1.37-1.15-2a32.13,32.13,0,0,0-11.47-9.55,9.77,9.77,0,0,1-4.81-5.88,6.33,6.33,0,0,0-1.63-2,19.82,19.82,0,0,0-1.78-1.53,6.58,6.58,0,0,0-1.43-1.05c-2.49-1.06-5-1.94-4.94-5.44a46.73,46.73,0,0,0-.67-6.43,3.88,3.88,0,0,0-.53-1.83c-1.68-2.16-3.55-4.16-5.16-6.36a41.51,41.51,0,0,1-4.47-7.06c-0.85-1.87-.74-4.15-1.27-6.19-0.93-3.59-2-7.14-3-10.69a1.58,1.58,0,0,0-.59-0.83c-1.14-.74-2.3-1.44-3.48-2.11-3-1.7-5.86-3.57-7.92-6.47a32.69,32.69,0,0,0-3-3.05,24.08,24.08,0,0,1-3.33-3.82c-1.7-2.86-3.12-5.89-4.66-8.84a18.23,18.23,0,0,0-.91-1.7,13.82,13.82,0,0,0-1.06-1.21c-1.2-1.41-2.41-2.82-3.58-4.26-0.48-.59-0.81-1.3-1.32-1.86-1.25-1.38-3.27-2.17-3.2-4.53a1.39,1.39,0,0,0-1-.85,26.38,26.38,0,0,0-3.27,1.1c-0.29-.75-0.68-1.84-1.12-2.9a24.08,24.08,0,0,0-2-4.49c-2.71-4-5.56-7.85-8.44-11.71-2.43-3.25-5.26-5.88-9.77-5.68a2.55,2.55,0,0,1-1.51-1.32c-0.78-1.3-1.33-2.73-2.1-4a10.67,10.67,0,0,0-2-2.56c-2.26-2-5-3.58-6.84-5.9-3.35-4.26-6.23-8.91-9.2-13.46-1.26-1.93-3.43-3.86-6.27-3.17-2.32.56-4-.87-4.61-3.28a31.52,31.52,0,0,0-1.12-3.89c-0.94-2.4-2.22-4.68-2.95-7.14A14.91,14.91,0,0,0,208,241.8a6.69,6.69,0,0,1-1-2,6.19,6.19,0,0,0-2.42-3.19c-1.94-1.52-3.73-3.24-5.56-4.91a1.34,1.34,0,0,1-.39-1c0.13-1,.38-2.08.56-3.12,0.26-1.5-.67-3.91-2-4.3-2.07-.6-2.26-2.28-2.44-3.82-0.39-3.32-.43-6.68-0.8-10-0.32-2.88-.57-5.67-2.49-8.26s-2.9-5.85-4.4-8.76a6.71,6.71,0,0,0-1.73-1.59c-1.32-1.14-3-2-3.31-4a33.48,33.48,0,0,0-1.09-3.89c-0.71-2.35-1.5-4.67-2.12-7-0.45-1.72-.92-3.36-2.95-3.7a8.75,8.75,0,0,1-5.12-3.11c-4-4.34-6.56-9.12-6.52-15.21a6,6,0,0,0-1.87-4c-2.09-1.87-3.73-3.73-3.34-6.73a24,24,0,0,0,.23-2.78c0-2.72,0-5.45,0-8.18a21.76,21.76,0,0,0,.24-2.61c-0.43-3.76-.76-7.55-1.51-11.25a25.32,25.32,0,0,0-3.52-8.5c-1.71-2.71-3-5.67-4.95-8.29-1.17-1.6-2.17-3.11-4.35-3.4a6.81,6.81,0,0,1-2.19-1.07,21.52,21.52,0,0,1-6-5.21c-0.75-.91-1.79-1.56-2.62-2.4a35,35,0,0,0-3.66-3.86c-1.73-1.28-3.84-2-5.62-3.27a5.3,5.3,0,0,0-5.7-.24c-0.46.22-.89,0.52-1.56,0.92-2-3.38-4-6.66-6-9.88-1.77-2.84-3.57-5.67-5.48-8.41a3.06,3.06,0,0,0-2.07-1.18,13,13,0,0,0-4,.48c-1,.26-1.28.25-1.57-0.84a17.55,17.55,0,0,0-2-4.95c-1.42-2.2-3.3-4.11-4.83-6.25a36,36,0,0,1-2.47-4.41c-1.52-2.94-3.24-5.31-7.18-5.16a4.33,4.33,0,0,1-4.09-3.17,6.25,6.25,0,0,0-3.07-3.44,31.28,31.28,0,0,1-4.3-3.29c-0.57-.52-0.63-1.56-1.14-2.21a85.15,85.15,0,0,0-6.87-8.44c-2.4-2.38-4.48-5.33-8.19-6.08-1.35-.27-3.05-0.69-3.78-1.66-1.09-1.44-2.06-1.84-3.57-1.16-1.63-2.89-1.73-3.62-4.69-2.74a3.82,3.82,0,0,0-1,.59,3.34,3.34,0,0,1-4.18.1,19.77,19.77,0,0,0-11-3.39c-0.52,0-1,.19-1.56.22a59.76,59.76,0,0,1-8.54.44c-3-.24-3.64,0-4.45,2.79a6.37,6.37,0,0,1-1.8,3.14A6.82,6.82,0,0,0,7.6,19.4C7.47,21,7.31,22.67,7.26,24.31c-0.12,4.09-.48,8.17.28,12.28,0.67,3.63,1.12,7.34.07,11A6.33,6.33,0,0,0,7.48,50c0.22,1.93.87,3.87,0.77,5.77C8.06,59.16,7.44,62.53,7,65.9c-0.62,4.72-.91,9.44.59,14,2.26,6.9,1.32,13.88.84,20.88a74,74,0,0,0,.28,8.29,1.17,1.17,0,0,0,.29.62c1.91,2.33,1.57,5,1.23,7.69a85.26,85.26,0,0,0-1.1,10.8c0,4.17.66,8.33,1,12.5,0,0.11.11,0.22,0.12,0.34,0.44,3.64,1,7.28,1.23,10.94,0.12,2.28-.63,4.6-0.61,6.9,0,3.39.55,6.78,0.64,10.17,0.12,4.21-.06,8.42.06,12.63,0.1,3.36.44,6.71,0.69,10.07,0.48,6.28,1.1,12.56,1.4,18.86,0.23,4.72,0,9.46.06,14.19,0.06,4,.18,7.94.4,11.9s0.57,7.91.89,11.86c0.27,3.3.44,6.62,0.91,9.9a20.16,20.16,0,0,1-.69,10,10.3,10.3,0,0,0-.39,4.23c0.45,5.49,1.15,11,1.56,16.45,0.34,4.56.3,9.14,0.59,13.71,0.19,3,.79,6,1,9,0.14,2.16.51,4.6-.31,6.44a10,10,0,0,0-.19,7.59,5.81,5.81,0,0,1-.79,5.8,5.69,5.69,0,0,0-.59,3.38c0,1,.72,2,0.83,3,0.33,3.07.41,6.17,0.79,9.24a29.34,29.34,0,0,0,1.28,4.5,10.6,10.6,0,0,1,.8,2.85c0,4.12-.17,8.25-0.37,12.36-0.14,2.88-.69,5.75-0.6,8.61,0.08,2.63.93,5.24,1.13,7.88a54.35,54.35,0,0,1,.16,9.91c-0.43,4-.81,7.8,0,11.8,0.66,3.32,1.29,6.94.63,10.16-0.92,4.52-.28,8.74.39,13.09,0.41,2.69,1.28,5.57.72,8.1-0.89,4,.18,7.57,1.34,11.21A22.34,22.34,0,0,1,24.62,456a24.85,24.85,0,0,0,0,3.83c0.19,2,.1,4.09.92,6.12,0.63,1.57,1.3,2.61,3,2.75A4.3,4.3,0,0,1,31.83,470a2.79,2.79,0,0,0,1.25.13c1.73,0.26,3.45.54,5.18,0.81l-0.09.63H35.54c1.46,0.28,2.91.17,4.34,0.31a6.92,6.92,0,0,1,3,.87A18.19,18.19,0,0,0,52,475.83C55.2,476,58.4,476.64,61.63,477.07Z" transform="translate(-6.49 -7.6)"/><path d="M61.63,477.07c-3.23-.43-6.43-1-9.65-1.24a18.19,18.19,0,0,1-9.08-3.13,6.92,6.92,0,0,0-3-.87c-1.43-.14-2.88,0-4.34-0.31h2.63l0.09-.63c-1.73-.27-3.45-0.55-5.18-0.81a2.79,2.79,0,0,1-1.25-.13,4.3,4.3,0,0,0-3.24-1.22c-1.71-.14-2.38-1.19-3-2.75-0.82-2-.73-4.07-0.92-6.12a24.85,24.85,0,0,1,0-3.83,22.34,22.34,0,0,0-1.38-8.27c-1.16-3.64-2.23-7.16-1.34-11.21,0.56-2.53-.31-5.41-0.72-8.1-0.67-4.35-1.31-8.57-.39-13.09,0.66-3.22,0-6.84-.63-10.16-0.79-4-.41-7.84,0-11.8a54.35,54.35,0,0,0-.16-9.91c-0.2-2.64-1.05-5.24-1.13-7.88-0.08-2.86.46-5.74,0.6-8.61,0.2-4.12.34-8.24,0.37-12.36a10.6,10.6,0,0,0-.8-2.85,29.34,29.34,0,0,1-1.28-4.5c-0.39-3.06-.47-6.17-0.79-9.24-0.11-1-.79-2-0.83-3a5.69,5.69,0,0,1,.59-3.38,5.81,5.81,0,0,0,.79-5.8,10,10,0,0,1,.19-7.59c0.82-1.83.45-4.28,0.31-6.44-0.19-3-.79-6-1-9-0.29-4.56-.26-9.15-0.59-13.71-0.4-5.49-1.1-11-1.56-16.45a10.3,10.3,0,0,1,.39-4.23,20.16,20.16,0,0,0,.69-10c-0.47-3.27-.64-6.59-0.91-9.9-0.32-4-.68-7.9-0.89-11.86s-0.34-7.93-.4-11.9c-0.07-4.73.17-9.47-.06-14.19-0.3-6.29-.93-12.57-1.4-18.86-0.25-3.36-.6-6.71-0.69-10.07-0.12-4.21.06-8.42-.06-12.63-0.1-3.39-.6-6.78-0.64-10.17,0-2.3.72-4.62,0.61-6.9-0.18-3.66-.8-7.29-1.23-10.94,0-.11-0.11-0.22-0.12-0.34-0.37-4.17-1-8.33-1-12.5a85.26,85.26,0,0,1,1.1-10.8c0.34-2.7.68-5.36-1.23-7.69a1.17,1.17,0,0,1-.29-0.62,74,74,0,0,1-.28-8.29c0.48-7,1.43-14-.84-20.88-1.51-4.6-1.22-9.32-.59-14,0.45-3.37,1.06-6.74,1.25-10.13,0.11-1.9-.55-3.84-0.77-5.77a6.33,6.33,0,0,1,.13-2.39c1.05-3.69.61-7.4-.07-11-0.76-4.11-.4-8.18-0.28-12.28,0-1.64.21-3.27,0.34-4.91a6.82,6.82,0,0,1,2.5-5.21,6.37,6.37,0,0,0,1.8-3.14c0.81-2.8,1.49-3,4.45-2.79a59.76,59.76,0,0,0,8.54-.44c0.52,0,1-.21,1.56-0.22a19.77,19.77,0,0,1,11,3.39,3.34,3.34,0,0,0,4.18-.1,3.82,3.82,0,0,1,1-.59c3-.87,3.06-0.15,4.69,2.74,1.51-.69,2.48-0.28,3.57,1.16,0.73,1,2.43,1.39,3.78,1.66,3.72,0.75,5.8,3.71,8.19,6.08a85.15,85.15,0,0,1,6.87,8.44c0.5,0.64.56,1.68,1.14,2.21a31.28,31.28,0,0,0,4.3,3.29,6.25,6.25,0,0,1,3.07,3.44,4.33,4.33,0,0,0,4.09,3.17c3.94-.15,5.66,2.22,7.18,5.16a36,36,0,0,0,2.47,4.41c1.53,2.14,3.4,4,4.83,6.25a17.55,17.55,0,0,1,2,4.95c0.29,1.09.61,1.1,1.57,0.84a13,13,0,0,1,4-.48,3.06,3.06,0,0,1,2.07,1.18c1.91,2.75,3.71,5.57,5.48,8.41,2,3.23,3.93,6.5,6,9.88,0.67-.4,1.09-0.71,1.56-0.92a5.3,5.3,0,0,1,5.7.24c1.79,1.22,3.89,2,5.62,3.27a35,35,0,0,1,3.66,3.86c0.83,0.85,1.88,1.5,2.62,2.4a21.52,21.52,0,0,0,6,5.21,6.81,6.81,0,0,0,2.19,1.07c2.17,0.29,3.17,1.8,4.35,3.4,1.93,2.62,3.24,5.59,4.95,8.29a25.32,25.32,0,0,1,3.52,8.5c0.75,3.7,1.09,7.49,1.51,11.25a21.76,21.76,0,0,1-.24,2.61c0,2.72,0,5.45,0,8.18a24,24,0,0,1-.23,2.78c-0.39,3,1.25,4.86,3.34,6.73a6,6,0,0,1,1.87,4c0,6.09,2.53,10.87,6.52,15.21a8.75,8.75,0,0,0,5.12,3.11c2,0.34,2.5,2,2.95,3.7,0.62,2.37,1.42,4.69,2.12,7a33.48,33.48,0,0,1,1.09,3.89c0.35,2,2,2.83,3.31,4a6.71,6.71,0,0,1,1.73,1.59c1.5,2.91,2.48,6.18,4.4,8.76s2.18,5.39,2.49,8.26c0.37,3.32.41,6.68,0.8,10,0.18,1.55.37,3.22,2.44,3.82,1.34,0.39,2.28,2.8,2,4.3-0.18,1-.44,2.07-0.56,3.12a1.34,1.34,0,0,0,.39,1c1.82,1.67,3.61,3.38,5.56,4.91A6.19,6.19,0,0,1,207,239.8a6.69,6.69,0,0,0,1,2,14.91,14.91,0,0,1,2.48,4.59c0.73,2.45,2,4.74,2.95,7.14a31.52,31.52,0,0,1,1.12,3.89c0.6,2.4,2.29,3.84,4.61,3.28,2.84-.69,5,1.24,6.27,3.17,3,4.56,5.85,9.2,9.2,13.46,1.83,2.32,4.58,3.9,6.84,5.9a10.67,10.67,0,0,1,2,2.56c0.77,1.3,1.32,2.74,2.1,4a2.55,2.55,0,0,0,1.51,1.32c4.51-.2,7.34,2.43,9.77,5.68,2.88,3.85,5.73,7.73,8.44,11.71a24.08,24.08,0,0,1,2,4.49c0.44,1.07.83,2.15,1.12,2.9a26.38,26.38,0,0,1,3.27-1.1,1.39,1.39,0,0,1,1,.85c-0.08,2.36,1.95,3.15,3.2,4.53,0.51,0.56.84,1.28,1.32,1.86,1.17,1.44,2.38,2.84,3.58,4.26a13.82,13.82,0,0,1,1.06,1.21,18.23,18.23,0,0,1,.91,1.7c1.54,3,3,6,4.66,8.84a24.08,24.08,0,0,0,3.33,3.82,32.69,32.69,0,0,1,3,3.05c2.06,2.9,4.9,4.77,7.92,6.47,1.18,0.66,2.34,1.37,3.48,2.11a1.58,1.58,0,0,1,.59.83c1,3.56,2.12,7.1,3,10.69,0.53,2,.42,4.32,1.27,6.19a41.51,41.51,0,0,0,4.47,7.06c1.61,2.2,3.48,4.2,5.16,6.36a3.88,3.88,0,0,1,.53,1.83,46.73,46.73,0,0,1,.67,6.43c0,3.49,2.46,4.37,4.94,5.44a6.58,6.58,0,0,1,1.43,1.05,19.82,19.82,0,0,1,1.78,1.53,6.33,6.33,0,0,1,1.63,2,9.77,9.77,0,0,0,4.81,5.88,32.13,32.13,0,0,1,11.47,9.55c0.45,0.62.67,1.41,1.15,2a12.81,12.81,0,0,0,3,3.07,4.87,4.87,0,0,1,2.44,3c1.55,5.23,3.05,10.48,4.7,15.68,0.88,2.79,2.16,5.45,3,8.24s1.38,5.83,2.07,8.75a2.84,2.84,0,0,0,.44.94c0.75,1.08.57,3.68-.4,4.55-0.42.38-1.06,0.55-1.43,1a5.13,5.13,0,0,0-.6,1.54l-0.8-1.11c-2.38,3.07-6,2.31-9.17,2.81-2.89.46-5.84,0.54-8.76,0.81-2.36.21-4.72,0.49-7.08,0.67-2.89.22-5.79,0.45-8.69,0.51-3.2.07-6.4-.12-9.6,0a59.75,59.75,0,0,0-6.12.62c-3.52.46-6.71-1-10-1.67s-6.4-1.42-9.63-1.9a7.72,7.72,0,0,0-4.2.43c-2.89,1.37-5.76,1.15-8.82,1-2.14-.09-4.44.93-6.47,1.87a3.58,3.58,0,0,1-3.45.1c-1-.55-2-0.69-2.82.26a6.71,6.71,0,0,1-.51.51c-0.71.63-1.4,1.73-2.15,1.78a14.5,14.5,0,0,1-4.69-.65c-2.53-.71-4.89-2.55-7.71-0.87a2.1,2.1,0,0,1-1.35-.2c-3.41-1.13-6.63,0-9.92.69-1.45.3-3,.05-4.51,0.22-5.28.58-10.54-.7-15.81-0.12-2.32.26-4.7,0.3-6.75,1.79-2.5,1.82-5.43,1.08-8.22,1.08-1.67,0-3.34.09-5,0-2.37-.16-4.73-0.43-7.08-0.71-3.15-.37-6.06.43-9,1.34-4,1.24-8.22,2-12.32,3a52.37,52.37,0,0,1-5.93,1.55,34.31,34.31,0,0,1-12.38-.64,53.76,53.76,0,0,0-9-1.25c-6.88-.47-13.78-0.68-20.66-1.16-3.12-.22-6.21-0.93-9.34-1.2-1.94-.16-3.91.14-5.87,0.16-2.47,0-4.95-.05-7.42,0-2.09.05-4.17,0.33-6.26,0.34-3.72,0-7.43-.06-11.15-0.13-2.5,0-5-.15-7.51-0.24-3.39-.12-6.78-0.3-10.17-0.33A18.23,18.23,0,0,0,61.63,477.07Z" transform="translate(-6.49 -7.6)"/></svg>