<svg id="Layer_1" data-name="Layer 1" xmlns="http://www.w3.org/2000/svg" viewBox="0 0 79.07 1243.26"><defs><style>.cls-1{fill:#fff;}</style></defs><title>21_Object_1_to_520161124140305365_Page_16_Image_0001</title><path d="M23.52,560.36H87.2c0,4.69,0,9.39-.15,14.08-0.15,6.33-.42,12.66-0.56,19q-0.24,10.44-.34,20.88c-0.06,5.82,0,11.64,0,17.46,0,4.61-.21,9.23-0.25,13.84,0,2.83.12,5.66,0.08,8.49-0.06,5.07-.25,10.13-0.3,15.2,0,4.24.15,8.48,0.05,12.71-0.13,5.73-.53,11.45-0.63,17.18-0.11,6.33,0,12.67,0,19-0.06,6-.24,12-0.34,17.94-0.13,7.88-.28,15.75-0.35,23.63-0.06,7.1,0,14.2,0,21.3-0.06,7.29-.24,14.58-0.35,21.88-0.13,8.82-.27,17.64-0.36,26.46-0.08,8.11-.1,16.22-0.17,24.32,0,5.22-.14,10.44-0.2,15.66q-0.17,14.83-.34,29.66-0.11,11.52-.17,23c0,6.19,0,12.38,0,18.57-0.06,6-.2,12-0.32,18-0.07,3.39-.19,6.78-0.22,10.17,0,4.72,0,9.44,0,14.17-0.07,5.31-.28,10.62-0.33,15.93,0,3.19.26,6.38,0.2,9.57-0.13,7.82-.41,15.65-0.57,23.47-0.07,3.57,0,7.14,0,10.7,0,10,0,20.07,0,30.11,0,6.37-.24,12.74-0.31,19.1-0.05,5.19,0,10.39,0,15.58-0.07,6.38-.26,12.76-0.34,19.15s-0.07,12.85-.17,19.27c-0.16,11.27-.46,22.55-0.54,33.82-0.14,17.73-.17,35.47-0.21,53.2,0,5.23.19,10.46,0.17,15.69,0,3.95-.21,7.9-0.36,11.85a6.15,6.15,0,0,1-.44,1.49,3.9,3.9,0,0,1-.4,5.6,2.64,2.64,0,0,1-1.58.16,26.3,26.3,0,0,0-3-.35c-4.45.18-8.89,0.57-13.34,0.66-3.48.07-7-.21-10.44-0.32-1,0-2.07.07-3.1,0-3.38-.22-6.76-0.5-10.15-0.71-0.62,0-1.28.29-1.89,0.22q-3.52-.4-7-1a20.4,20.4,0,0,1-3.19-.82c-2.07-.7-4.08-1.62-6.18-2.17-3.38-.89-4.32-2.59-3.12-6.07a4.41,4.41,0,0,0,.16-1.41q0-6.93,0-13.87c0-.91-0.07-1.83,0-2.74,0.1-2.27.35-4.53,0.35-6.8,0-2.58-.32-5.15-0.3-7.73,0-5.32.22-10.64,0.34-16,0.12-5.62.26-11.24,0.34-16.85,0-1.3-.31-2.6-0.25-3.89,0.14-3,.45-6.05.61-9.09,0.09-1.63,0-3.28,0-4.91,0.09-4.81.29-9.61,0.29-14.42s-0.23-9.41-.28-14.11c-0.05-4.91,0-9.81,0-14.72,0-.54,0-1.08,0-1.62,0.22-3.09.59-6.18,0.63-9.27,0-3.45-.29-6.91-0.29-10.36s0.28-6.84.31-10.25c0-4.58-.12-9.17-0.08-13.76,0-2.18.42-4.36,0.42-6.55,0-3-.34-6-0.29-9,0.05-3.45.45-6.9,0.55-10.35,0.06-2.24-.22-4.48-0.21-6.72,0-8.08.14-16.16,0.19-24.24,0-4.46-.06-8.92,0-13.37,0-2.82.37-5.64,0.43-8.46,0.08-4.18,0-8.36.07-12.55,0-1.48.36-3,.34-4.45,0-3.36-.28-6.73-0.32-10.09q-0.09-7,0-14c0-2.48.32-5,.33-7.43,0-10.79,0-21.58,0-32.38,0.07-12.7.23-25.4,0.35-38.1,0-1.28,0-2.57,0-3.85,0.11-4.94.27-9.89,0.35-14.83q0.22-13.71.36-27.43,0.21-20.11.35-40.21c0-2.26-.36-4.53-0.3-6.79,0.15-5.6.53-11.2,0.66-16.8q0.29-12,.37-24.08c0.1-12.22.11-24.43,0.18-36.65,0-5.23.14-10.46,0.19-15.7,0-2.59,0-5.19,0-7.78C21.8,690,22,686.46,22,682.9c0-1.9-.31-3.8-0.29-5.7,0.06-6.71.2-13.41,0.32-20.12,0.11-6.43.26-12.87,0.35-19.3,0-3.5-.07-7,0-10.51s0.44-6.71.54-10.07c0.12-3.85.06-7.71,0.14-11.56,0.09-4.58.33-9.16,0.35-13.75,0-3.55-.27-7.1-0.3-10.65,0-2.89.16-5.78,0.21-8.67C23.45,568.5,23.47,564.43,23.52,560.36ZM44.83,1147.6a34.59,34.59,0,0,1-2.92,2.3c-0.92.58-.63,1-0.15,1.67,1.49,2.17,5.62,2.58,7.08.41a5.88,5.88,0,0,0,.62-3.79c-0.14-1-.81-2.32-2.42-2-3.49-.58-4.83.11-5.21,2.68l0.39,0.39,1.77-2.36Zm4-286.83c-2.7,1.45-3.34,3.57-3.51,6.08-0.18,2.78,1.31,4.53,3.81,3.9a11.66,11.66,0,0,0,3.53-1.57,2,2,0,0,0,.49-1.89C51.77,865,50.19,862.79,48.83,860.77Zm3.94-231c-1.75-.44-2.76,1-3.59,2.71-1,2,.2,3.64,1.24,5.21s2.5,0.7,3.77.3c2.69-.84,3.48-2.84,1.15-4.83A21.93,21.93,0,0,1,52.76,629.8Zm7.39,9.73L52,644.08A6.59,6.59,0,0,0,60.15,639.53Z" transform="translate(-15.25 -24.77)"/><path class="cls-1" d="M48.83,860.77c1.37,2,2.94,4.22,4.33,6.52a2,2,0,0,1-.49,1.89,11.66,11.66,0,0,1-3.53,1.57c-2.51.63-4-1.11-3.81-3.9C45.48,864.34,46.13,862.22,48.83,860.77Z" transform="translate(-15.25 -24.77)"/><path class="cls-1" d="M52.76,629.8a21.93,21.93,0,0,0,2.57,3.39c2.33,2,1.54,4-1.15,4.83-1.28.4-2.68,1.35-3.77-.3s-2.26-3.16-1.24-5.21C50,630.84,51,629.36,52.76,629.8Z" transform="translate(-15.25 -24.77)"/><path class="cls-1" d="M47,1146.19c1.62-.33,2.28.95,2.42,2a5.88,5.88,0,0,1-.62,3.79c-1.46,2.17-5.58,1.76-7.08-.41-0.48-.7-0.77-1.09.15-1.67a34.59,34.59,0,0,0,2.92-2.3Z" transform="translate(-15.25 -24.77)"/><path class="cls-1" d="M60.15,639.53A6.59,6.59,0,0,1,52,644.08Z" transform="translate(-15.25 -24.77)"/><path class="cls-1" d="M47,1146.19l-2.2,1.4-0.85-.68-1.77,2.36-0.39-.39C42.2,1146.3,43.54,1145.61,47,1146.19Z" transform="translate(-15.25 -24.77)"/><path d="M87.3,564.06h-64c0-2.41,0-4.83,0-7.24s0.32-5.06.33-7.6c0-11.89,0-23.78,0-35.66,0-7.33,0-14.67,0-22,0-5.07.29-10.13,0.32-15.2,0.06-9.27,0-18.53,0-27.8,0-4.7.31-9.4,0.33-14.09,0.05-11.78,0-23.57,0-35.35,0-.48,0-1,0-1.45,0.06-3.42.18-6.85,0.18-10.27,0-3.18-.19-6.36-0.16-9.54s0.31-6.44.32-9.66c0-10.16,0-20.31,0-30.47,0-2.78.12-5.57,0.13-8.35,0-1.52-.15-3.05-0.13-4.58,0.1-9.09.25-18.18,0.34-27.27,0-4.48,0-9,0-13.44,0-4,.07-8,0.12-11.94,0.07-5.06.2-10.11,0.22-15.17,0-7,0-14,0-21.06,0-2.29.17-4.58,0.18-6.87,0-1.94-.2-3.89-0.17-5.83,0.06-3.64.29-7.28,0.32-10.92,0-4.6-.11-9.21-0.12-13.81,0-3.09.13-6.18,0.13-9.27,0-10.15,0-20.3,0-30.45,0-6.65.25-13.29,0.33-19.94,0.06-4.68,0-9.36,0-14,0-6,0-11.9,0-17.85,0.05-4.94.28-9.88,0.33-14.82,0.06-5.25,0-10.5,0-15.74,0-4,0-7.92,0-11.88,0-1.49-.3-3-0.27-4.47,0.06-4.28.27-8.56,0.32-12.84,0.05-5,.16-10-0.1-15-0.14-2.59,1.28-4.18,2.56-6s2.31-1.83,3.89-.5A6.27,6.27,0,0,0,35.82,27a27.56,27.56,0,0,0,4.28.06l0,0.36-1,.15,0,0.66c3.34,0,6.68.07,10,0,3-.09,5.92.1,8.93-0.57s6.2-.25,9.32-0.31c1,0,2,0,2.93,0,1.51-.12,3-0.42,4.53-0.48,4.92-.17,9.85-0.14,14.76-0.45,1.51-.1,2.86-0.29,3.79,1a4.54,4.54,0,0,1,.87,2.55c0,0.41-1.05.9-1.71,1.15a8.43,8.43,0,0,1-1.94.3,13.49,13.49,0,0,1,.59,2.47c0.07,2.14,0,4.28,0,6.42,0.1,5.72.31,11.45,0.33,17.17,0,4.12-.29,8.24-0.32,12.36q-0.23,25.84-.37,51.68c0,6.72,0,13.45,0,20.17,0,4.32-.29,8.63-0.32,12.95-0.06,6.47,0,12.93,0,19.4,0,5.07,0,10.15,0,15.22,0,4.69.06,9.39,0,14.08,0,3.39-.29,6.79-0.33,10.18-0.06,4.83,0,9.67,0,14.5-0.07,5.66-.26,11.31-0.34,17-0.1,7-.2,14-0.22,21,0,4.76.16,9.51,0.14,14.27,0,4.23-.19,8.46-0.29,12.69-0.12,4.95-.29,9.89-0.35,14.84-0.06,5.44,0,10.89,0,16.34,0,5-.11,10-0.18,15-0.05,3.72-.16,7.44-0.17,11.16,0,8.31,0,16.61,0,24.92,0,4.42-.29,8.83-0.33,13.25-0.06,6.85,0,13.69,0,20.54,0,5.34-.22,10.67-0.26,16,0,4.29.09,8.58,0.08,12.87,0,6.19-.11,12.39-0.17,18.58q-0.18,17.09-.36,34.17c-0.13,12.91-.28,25.82-0.35,38.72,0,4.8.21,9.6,0.2,14.4C87.51,550.47,87.38,557.26,87.3,564.06ZM61.89,424.84l-2.32-3.39L57.1,417.9c-4.08-.5-5.4,2.17-5.9,6.9L52,424.4c0.38,2.52.87,2.6,4.18,3C58.6,427.64,59.84,426.09,61.89,424.84ZM55.66,137.23a11.64,11.64,0,0,1-.86,1c-3,2.78-2,6.24,1,8,1.39,0.85,2.7.25,3.59-.93,0.7-.92,1.23-1.86,0-3.09A46.37,46.37,0,0,1,55.66,137.23Zm7.22-2.75c-0.58,3.29,2.79,4.44,3,7C66.63,138,65.62,135.64,62.88,134.48Z" transform="translate(-15.25 -24.77)"/><path class="cls-1" d="M61.89,424.84c-2.06,1.25-3.29,2.8-5.68,2.53-3.3-.37-3.8-0.46-4.18-3l-0.84.39c0.5-4.73,1.82-7.4,5.9-6.9l2.48,3.56Z" transform="translate(-15.25 -24.77)"/><path class="cls-1" d="M55.66,137.23a46.37,46.37,0,0,0,3.73,5c1.19,1.23.66,2.17,0,3.09-0.9,1.17-2.2,1.77-3.59.93-3-1.81-4-5.27-1-8A11.64,11.64,0,0,0,55.66,137.23Z" transform="translate(-15.25 -24.77)"/><path class="cls-1" d="M62.88,134.48c2.74,1.16,3.75,3.55,3,7C65.67,138.93,62.3,137.77,62.88,134.48Z" transform="translate(-15.25 -24.77)"/></svg>