<?xml version="1.0" encoding="utf-8"?>
<!-- Generator: Adobe Illustrator 16.0.0, SVG Export Plug-In . SVG Version: 6.00 Build 0)  -->
<!DOCTYPE svg PUBLIC "-//W3C//DTD SVG 1.1//EN" "http://www.w3.org/Graphics/SVG/1.1/DTD/svg11.dtd">
<svg version="1.1" id="Layer_1" xmlns="http://www.w3.org/2000/svg" xmlns:xlink="http://www.w3.org/1999/xlink" x="0px" y="0px"
	 width="323.15px" height="498.9px" viewBox="0 0 323.15 498.9" enable-background="new 0 0 323.15 498.9" xml:space="preserve">
<g>
	<g>
		<path d="M66.362,172.884c0-0.603,0-1.206,0-1.809c0.362-1.072,0.973-2.13,1.036-3.22c0.152-2.653-0.055-5.326,0.079-7.98
			c0.138-2.736,0.249-5.545,2.503-7.613c0.603,0,1.206,0,1.809,0c2.747,0.252,5.49,0.577,8.242,0.738
			c3.217,0.189,6.441,0.264,9.664,0.338c4.252,0.099,8.506,0.208,12.76,0.206c5.432-0.003,10.865-0.175,16.297-0.158
			c4.192,0.014,8.383,0.294,12.575,0.307c13.842,0.042,27.684,0.016,41.526,0.016c17.033,0,34.066,0,51.1,0
			c6.891,0,13.782,0.001,20.673-0.002c0.54,0,1.082-0.053,1.622-0.042c0.999,0.02,1.998,0.069,3.406,0.121
			c0.678-0.831,2.1-0.62,4.411,1.215c-0.169,0.529-0.499,1.058-0.475,1.571c0.111,2.43,0.459,4.855,0.462,7.282
			c0.006,4.265-0.236,8.53-0.268,12.795c-0.05,6.944-0.013,13.889-0.013,20.833c0,2.901-0.029,5.803,0.006,8.704
			c0.094,7.604,0.282,15.207,0.303,22.811c0.013,5.081-0.264,10.162-0.294,15.243c-0.053,8.639-0.016,17.278-0.014,25.917
			c0,0.862,0.045,1.727,0.02,2.588c-0.101,3.406-0.31,6.811-0.31,10.216c-0.001,3.865,0.207,7.729,0.262,11.595
			c0.015,1.06-0.271,2.12-0.287,3.183c-0.024,1.527,0.104,3.056,0.104,4.584c0.002,1.203-0.19,2.41-0.119,3.605
			c0.176,2.927,0.564,5.844,0.663,8.771c0.134,3.918-0.002,7.845,0.119,11.764c0.116,3.735,0.451,7.464,0.621,11.199
			c0.151,3.319-0.781,6.078-4.303,7.201c-1.915,0.609-3.854,2.058-5.836,0.078c-0.174-0.174-0.559-0.2-0.842-0.189
			c-2.4,0.083-4.801,0.287-7.199,0.271c-4.458-0.03-8.913-0.247-13.371-0.273c-8.129-0.048-16.258-0.001-24.387-0.021
			c-2.452-0.006-4.904-0.154-7.356-0.146c-4.562,0.015-9.126,0.109-13.688,0.134c-0.636,0.004-1.275-0.313-1.908-0.295
			c-2.238,0.063-4.473,0.268-6.71,0.306c-2.516,0.042-5.033-0.086-7.549-0.052c-2.238,0.03-4.474,0.203-6.711,0.269
			c-2.105,0.062-4.213,0.096-6.32,0.087c-4.763-0.02-9.526-0.073-14.29-0.113c-7.294-0.06-14.589-0.174-21.883-0.157
			c-4.589,0.011-9.179,0.198-13.768,0.348c-1.446,0.047-2.903,0.135-4.326,0.374c-1.116,0.188-2.172,0.839-3.283,0.927
			c-2.23,0.176-4.484,0.036-6.719,0.167c-1.357,0.079-2.736,0.294-4.039,0.675c-2.197,0.643-6.034-0.467-7.393-2.296
			c-1.144-1.539-1.677-1.534-2.846,0.025c-2.016-0.97-3.118-2.973-3.04-5.301c0.151-4.516,0.297-9.031,0.359-13.549
			c0.15-10.919,0.299-21.839,0.358-32.76c0.066-12.028,0.037-24.057,0.039-36.085c0.001-7.602-0.022-15.203-0.024-22.805
			c-0.002-6.442,0.013-12.885,0.014-19.328c0-3.18-0.023-6.359-0.023-9.538c0-4.48,0.012-8.96,0.016-13.439
			c0.002-3.214-0.288-6.461,0.079-9.633C68.294,179.101,68.247,175.889,66.362,172.884z"/>
		<path fill-rule="evenodd" clip-rule="evenodd" fill="#FFFFFF" d="M66.362,172.884c1.885,3.005,1.932,6.217,1.534,9.659
			c-0.367,3.171-0.077,6.419-0.079,9.633c-0.004,4.479-0.016,8.959-0.016,13.439c0,3.179,0.023,6.358,0.023,9.538
			c0,6.442-0.016,12.885-0.014,19.328c0.002,7.602,0.025,15.203,0.024,22.805c-0.002,12.028,0.027,24.057-0.039,36.085
			c-0.06,10.921-0.208,21.841-0.358,32.76c-0.062,4.518-0.208,9.033-0.359,13.549c-0.078,2.328,1.024,4.331,3.04,5.301
			c1.169-1.56,1.703-1.564,2.846-0.025c1.358,1.829,5.195,2.938,7.393,2.296c1.303-0.381,2.682-0.596,4.039-0.675
			c2.235-0.131,4.489,0.009,6.719-0.167c1.111-0.088,2.167-0.739,3.283-0.927c1.423-0.239,2.88-0.327,4.326-0.374
			c4.588-0.149,9.178-0.337,13.768-0.348c7.294-0.017,14.589,0.098,21.883,0.157c4.763,0.04,9.526,0.094,14.29,0.113
			c2.106,0.009,4.214-0.025,6.32-0.087c2.238-0.065,4.473-0.238,6.711-0.269c2.516-0.034,5.033,0.094,7.549,0.052
			c2.237-0.038,4.472-0.242,6.71-0.306c0.633-0.019,1.272,0.299,1.908,0.295c4.562-0.024,9.126-0.119,13.688-0.134
			c2.452-0.009,4.904,0.14,7.356,0.146c8.129,0.02,16.258-0.027,24.387,0.021c4.458,0.026,8.913,0.243,13.371,0.273
			c2.398,0.017,4.799-0.188,7.199-0.271c0.283-0.011,0.668,0.016,0.842,0.189c1.982,1.979,3.921,0.531,5.836-0.078
			c3.521-1.123,4.454-3.882,4.303-7.201c-0.17-3.735-0.505-7.464-0.621-11.199c-0.121-3.919,0.015-7.846-0.119-11.764
			c-0.099-2.928-0.487-5.845-0.663-8.771c-0.071-1.195,0.121-2.402,0.119-3.605c-0.001-1.528-0.129-3.057-0.104-4.584
			c0.017-1.062,0.302-2.123,0.287-3.183c-0.055-3.865-0.263-7.729-0.262-11.595c0-3.405,0.209-6.81,0.31-10.216
			c0.025-0.861-0.02-1.726-0.02-2.588c-0.002-8.64-0.039-17.278,0.014-25.917c0.03-5.082,0.307-10.163,0.294-15.243
			c-0.021-7.604-0.209-15.207-0.303-22.811c-0.035-2.901-0.006-5.802-0.006-8.704c0-6.944-0.037-13.889,0.013-20.833
			c0.031-4.265,0.273-8.53,0.268-12.795c-0.003-2.427-0.351-4.853-0.462-7.282c-0.024-0.513,0.306-1.042,0.475-1.571
			c-2.312-1.834-3.733-2.046-4.411-1.215c-1.408-0.052-2.407-0.101-3.406-0.121c-0.54-0.011-1.082,0.042-1.622,0.042
			c-6.891,0.003-13.782,0.002-20.673,0.002c-17.033,0-34.066,0-51.1,0c-13.842,0-27.684,0.026-41.526-0.016
			c-4.192-0.013-8.383-0.293-12.575-0.307c-5.432-0.018-10.865,0.155-16.297,0.158c-4.253,0.002-8.507-0.107-12.76-0.206
			c-3.222-0.075-6.447-0.149-9.664-0.338c-2.752-0.162-5.495-0.486-8.242-0.738c61.625,0,123.25,0,184.875,0
			c0,65.243,0,130.487,0,195.73c-63.434,0-126.868,0-190.302,0C66.362,289.623,66.362,231.253,66.362,172.884z"/>
		<path fill-rule="evenodd" clip-rule="evenodd" fill="#FFFFFF" d="M69.979,152.262c-2.254,2.068-2.366,4.877-2.503,7.613
			c-0.133,2.655,0.074,5.328-0.079,7.98c-0.062,1.09-0.674,2.147-1.036,3.22c0-6.271,0-12.542,0-18.813
			C67.587,152.262,68.783,152.262,69.979,152.262z"/>
	</g>
</g>
</svg>
