<?xml version="1.0" encoding="utf-8"?>
<!-- Generator: Adobe Illustrator 16.0.0, SVG Export Plug-In . SVG Version: 6.00 Build 0)  -->
<!DOCTYPE svg PUBLIC "-//W3C//DTD SVG 1.1//EN" "http://www.w3.org/Graphics/SVG/1.1/DTD/svg11.dtd">
<svg version="1.1" id="Layer_1" xmlns="http://www.w3.org/2000/svg" xmlns:xlink="http://www.w3.org/1999/xlink" x="0px" y="0px"
	 width="323.15px" height="498.9px" viewBox="0 0 323.15 498.9" enable-background="new 0 0 323.15 498.9" xml:space="preserve">
<g>
	<g>
		<path d="M156.7,166.262c0.965,0,1.929,0,2.894,0c0.81,0.207,1.616,0.425,2.429,0.617c2.277,0.538,4.598,0.939,6.827,1.634
			c2.045,0.637,3.595,2.499,6.007,2.386c0.83-0.039,1.718,0.355,2.519,0.695c2.263,0.96,4.542,1.9,6.726,3.022
			c2.959,1.519,5.947,3.029,8.713,4.86c2.684,1.776,4.909,4.286,7.676,5.883c5.394,3.114,10.52,6.543,14.94,10.92
			c2.817,2.79,5.683,5.617,7.999,8.81c4.09,5.638,7.164,11.915,9.44,18.483c2.095,6.044,3.872,12.218,5.399,18.431
			c0.96,3.902,2.334,7.787,2.045,11.944c-0.062,0.875,0.376,1.784,0.597,2.732c1.797-1.022,2.161-0.863,2.98,1.116
			c0,0.361,0,0.724,0,1.085c-1.094,1.975-2.118,3.991-3.295,5.914c-3.001,4.901-6.021,9.792-9.121,14.63
			c-4.65,7.255-10.73,13.375-16.115,20.047c-1.775,2.199-3.761,4.321-5.984,6.047c-3.352,2.6-6.912,4.962-10.543,7.161
			c-3.766,2.281-7.687,4.316-11.606,6.328c-2.125,1.091-4.552,1.649-6.562,2.9c-6.476,4.031-13.344,7.212-20.396,10.053
			c-1.986,0.8-3.753,0.418-5.5-0.606c-0.528-0.311-1.068-0.647-1.648-0.812c-1.467-0.416-2.955-0.762-4.444-1.098
			c-2.421-0.546-4.892-0.52-7.228-1.865c-2.68-1.543-5.788-2.326-8.657-3.563c-2.428-1.047-4.973-1.989-7.125-3.473
			c-4.789-3.301-9.306-6.978-13.25-11.298c-0.679-0.744-1.443-1.41-2.136-2.143c-1.27-1.343-2.391-2.857-3.797-4.033
			c-3.185-2.662-6.052-5.607-8.022-9.254c-2.09-3.869-4.004-7.846-5.776-11.872c-1.297-2.949-2.335-6.024-3.31-9.101
			c-0.87-2.743-1.516-5.56-2.218-8.354c-0.729-2.898-1.389-5.814-2.113-8.714c-0.6-2.398-0.789-4.912-3.144-6.602
			c-1.019-0.73-1.633-2.175-1.023-3.708c0.098-0.244-0.331-0.698-0.517-1.056c0-0.844,0-1.688,0-2.532
			c0.736-3.055,1.422-6.124,2.221-9.162c0.896-3.405,1.743-6.835,2.885-10.16c1.562-4.543,3.042-9.169,5.188-13.442
			c2.125-4.23,4.813-8.234,7.672-12.021c2.263-2.997,5.087-5.59,7.801-8.219c1.608-1.558,3.658-2.669,5.214-4.268
			c5.658-5.811,12.519-9.845,19.579-13.606c1.077-0.574,2.198-1.136,3.367-1.45c2.355-0.633,4.737-1.223,7.144-1.592
			c3.286-0.504,6.605-0.793,9.912-1.158C153.128,166.601,154.915,166.439,156.7,166.262z"/>
		<path fill-rule="evenodd" clip-rule="evenodd" fill="#FFFFFF" d="M80.362,244.409c0.186,0.357,0.614,0.812,0.517,1.056
			c-0.61,1.534,0.004,2.978,1.023,3.708c2.355,1.69,2.544,4.204,3.144,6.602c0.725,2.899,1.384,5.815,2.113,8.714
			c0.702,2.795,1.348,5.611,2.218,8.354c0.975,3.076,2.013,6.151,3.31,9.101c1.771,4.026,3.686,8.003,5.776,11.872
			c1.97,3.646,4.837,6.592,8.022,9.254c1.406,1.176,2.527,2.69,3.797,4.033c0.693,0.732,1.457,1.398,2.136,2.143
			c3.945,4.32,8.462,7.997,13.25,11.298c2.152,1.483,4.697,2.426,7.125,3.473c2.869,1.237,5.977,2.021,8.657,3.563
			c2.336,1.346,4.806,1.319,7.228,1.865c1.489,0.336,2.977,0.682,4.444,1.098c0.58,0.164,1.12,0.501,1.648,0.812
			c1.747,1.024,3.514,1.406,5.5,0.606c7.052-2.841,13.92-6.021,20.396-10.053c2.01-1.251,4.437-1.81,6.562-2.9
			c3.92-2.012,7.841-4.047,11.606-6.328c3.631-2.199,7.191-4.562,10.543-7.161c2.224-1.726,4.209-3.848,5.984-6.047
			c5.385-6.672,11.465-12.792,16.115-20.047c3.101-4.838,6.12-9.729,9.121-14.63c1.177-1.923,2.201-3.939,3.295-5.914
			c0,24.964,0,49.928,0,74.892c-54.51,0-109.02,0-163.53,0C80.362,303.984,80.362,274.197,80.362,244.409z"/>
		<path fill-rule="evenodd" clip-rule="evenodd" fill="#FFFFFF" d="M243.892,257.795c-0.819-1.979-1.184-2.139-2.98-1.116
			c-0.221-0.948-0.658-1.857-0.597-2.732c0.289-4.158-1.085-8.042-2.045-11.944c-1.527-6.212-3.305-12.387-5.399-18.431
			c-2.276-6.569-5.351-12.846-9.44-18.483c-2.316-3.193-5.182-6.02-7.999-8.81c-4.421-4.376-9.547-7.806-14.94-10.92
			c-2.767-1.598-4.992-4.107-7.676-5.883c-2.766-1.831-5.754-3.341-8.713-4.86c-2.184-1.122-4.463-2.062-6.726-3.022
			c-0.801-0.34-1.688-0.733-2.519-0.695c-2.412,0.112-3.962-1.749-6.007-2.386c-2.229-0.694-4.55-1.096-6.827-1.634
			c-0.813-0.192-1.62-0.41-2.429-0.617c28.099,0,56.199,0,84.297,0C243.892,196.773,243.892,227.284,243.892,257.795z"/>
		<path fill-rule="evenodd" clip-rule="evenodd" fill="#FFFFFF" d="M156.7,166.262c-1.785,0.177-3.572,0.339-5.354,0.536
			c-3.307,0.365-6.626,0.654-9.912,1.158c-2.407,0.369-4.789,0.958-7.144,1.592c-1.168,0.314-2.29,0.876-3.367,1.45
			c-7.061,3.761-13.921,7.795-19.579,13.606c-1.557,1.599-3.606,2.71-5.214,4.268c-2.714,2.629-5.538,5.222-7.801,8.219
			c-2.859,3.787-5.547,7.792-7.672,12.021c-2.146,4.273-3.626,8.899-5.188,13.442c-1.143,3.325-1.989,6.755-2.885,10.16
			c-0.799,3.039-1.485,6.107-2.221,9.162c0-25.175,0-50.35,0-75.615C105.808,166.262,131.254,166.262,156.7,166.262z"/>
	</g>
</g>
</svg>
