<?xml version="1.0" encoding="utf-8"?>
<!-- Generator: Adobe Illustrator 16.0.0, SVG Export Plug-In . SVG Version: 6.00 Build 0)  -->
<!DOCTYPE svg PUBLIC "-//W3C//DTD SVG 1.1//EN" "http://www.w3.org/Graphics/SVG/1.1/DTD/svg11.dtd">
<svg version="1.1" id="Layer_1" xmlns="http://www.w3.org/2000/svg" xmlns:xlink="http://www.w3.org/1999/xlink" x="0px" y="0px"
	 width="323.15px" height="498.9px" viewBox="0 0 323.15 498.9" enable-background="new 0 0 323.15 498.9" xml:space="preserve">
<g>
	<g>
		<path d="M16.362,203.393c0-8.924,0-17.848,0-26.772c0.053-0.029,0.152-0.058,0.152-0.087c0.007-4.646,0.007-9.291,0-13.936
			c0-0.029-0.099-0.058-0.152-0.087c0-1.688,0-3.376,0-5.065c0.241-0.695,0.685-1.388,0.69-2.084
			c0.04-5.247,1.185-10.273,2.904-15.187c2.863-8.181,6.783-15.723,13.174-21.79c1.141-1.083,1.962-2.496,3.029-3.667
			c0.715-0.786,1.323-1.961,2.827-1.18c0.368,0.191,1.118-0.127,1.587-0.395c2.38-1.358,4.626-2.999,7.11-4.117
			c2.83-1.273,5.812-2.282,8.818-3.061c2.428-0.63,4.988-0.75,7.49-1.094c1.489-0.205,2.979-0.406,4.469-0.609
			c1.206,0,2.412,0,3.618,0c0.364,0.121,0.726,0.336,1.093,0.347c5.191,0.142,10.383,0.35,15.575,0.356
			c10.684,0.015,21.369-0.066,32.054-0.137c5.947-0.039,11.895-0.125,17.842-0.22c0.607-0.01,1.21-0.227,1.815-0.347
			c11.939,0,23.878,0,35.818,0c0.304,0.12,0.605,0.338,0.913,0.346c5.688,0.141,11.374,0.304,17.062,0.364
			c5.752,0.061,11.505,0.041,17.257-0.002c1.842-0.014,3.683-0.323,5.522-0.308c3.023,0.026,6.045,0.278,9.068,0.308
			c5.526,0.054,11.053,0.045,16.578,0.007c5.755-0.04,11.501-0.349,17.255,0.332c4.901,0.579,9.593,1.915,14.022,3.917
			c5.283,2.387,10.108,5.499,14.47,9.494c3.844,3.52,6.998,7.495,9.643,11.834c4.101,6.728,6.179,14.228,6.965,21.307
			c1.221,0.766,1.998,1.254,2.775,1.742c-0.071,0.204-0.144,0.408-0.215,0.612c-0.708,0.184-1.415,0.368-2.222,0.579
			c0.128,0.613,0.355,1.184,0.348,1.752c-0.072,5.398-0.317,10.798-0.258,16.194c0.167,14.982,0.462,29.963,0.696,44.944
			c0.097,6.184,0.131,12.369,0.267,18.551c0.07,3.216,0.425,6.428,0.428,9.642c0.003,4.327-0.327,8.654-0.311,12.981
			c0.074,19.178,0.216,38.354,0.349,57.532c0.019,2.615,0.105,5.232,0.204,7.846c0.139,3.67,0.694,7.369,0.398,11
			c-0.554,6.797-0.461,13.734-2.803,20.268c-1.704,4.751-2.222,9.985-5.754,14.025c-2.006,2.293-3.522,5.062-5.72,7.128
			c-3.191,3.002-6.598,5.747-10.534,7.911c-6.303,3.465-12.672,6.552-19.819,7.766c-2.316,0.394-4.631,0.795-6.946,1.192
			c-0.041-0.181-0.081-0.36-0.122-0.541c-0.438,0.599-0.876,1.197-1.509,2.064c-0.349-0.824-0.599-1.417-0.726-1.717
			c-6.979,0-13.836,0-20.693,0c-3.938,0-7.875-0.001-11.812,0.002c-3.706,0.002-7.414-0.065-11.117,0.031
			c-6.891,0.179-13.777,0.486-20.668,0.682c-5.89,0.166-11.781,0.231-17.672,0.381c-1.544,0.04-3.087,0.339-4.628,0.324
			c-2.388-0.022-4.774-0.317-7.162-0.315c-11.852,0.011-23.705,0.028-35.556,0.153c-5.938,0.062-11.874,0.378-17.812,0.547
			c-5.118,0.146-10.238,0.242-15.356,0.383c-0.308,0.009-0.609,0.226-0.914,0.346c-6.874,0-13.748,0-20.622,0
			c-3.402-0.723-6.799-1.471-10.208-2.163c-6.075-1.235-11.418-4.159-16.693-7.225c-1.474-0.856-2.907-1.832-4.201-2.938
			c-2.381-2.035-5.014-3.931-6.87-6.392c-2.563-3.4-4.605-7.214-6.688-10.951c-4.052-7.271-5.557-15.288-6.276-23.44
			c-0.354-4.022-0.036-8.103-0.085-12.155c-0.095-7.952-0.233-15.903-0.354-23.854c-0.12-7.834-0.239-15.667-0.362-23.501
			c-0.118-7.51-0.236-15.02-0.362-22.529c-0.114-6.773-0.271-13.546-0.354-20.32c-0.145-11.909-0.245-23.819-0.383-35.729
			C16.704,204.241,16.482,203.818,16.362,203.393z M58.588,226.474c1.669,0.224,2.521-0.603,2.925-1.955
			c1.243-4.158,2.208-8.419,3.733-12.469c2.045-5.431,4.297-10.81,6.87-16.008c1.935-3.91,1.851-5.156-1.487-7.888
			c-2.551-2.088-4.854-4.487-7.219-6.796c-1.349-1.316-2.529-2.811-3.928-4.066c-0.812-0.729-1.906-1.143-3.052-1.801
			c-0.238,0.879-0.46,1.312-0.456,1.744c0.033,3.517,0.14,7.034,0.164,10.551c0.034,4.958,0.017,9.915,0.021,14.872
			c0.002,2.43-0.087,4.863,0.027,7.287c0.148,3.153,0.248,6.333,0.764,9.437C57.346,221.763,56.53,224.47,58.588,226.474z
			 M264.148,269.29c-0.264-0.016-0.527-0.031-0.791-0.046c-0.455,0.864-1.043,1.685-1.342,2.6
			c-1.221,3.737-2.128,7.592-3.572,11.236c-1.993,5.032-4.445,9.881-6.543,14.875c-0.925,2.201-1.502,4.555-2.154,6.862
			c-0.296,1.044-0.246,1.914,0.991,2.632c1.314,0.762,2.371,1.984,3.497,3.052c3.023,2.867,5.973,5.817,9.055,8.619
			c1.589,1.444,3.071,0.824,3.436-1.283c0.17-0.988,0.36-1.996,0.34-2.99c-0.136-6.738-0.321-13.477-0.503-20.214
			c-0.055-2.034-0.073-4.072-0.233-6.099c-0.437-5.515-0.915-11.025-1.438-16.531C264.802,271.083,264.403,270.193,264.148,269.29z
			 M131.587,354.49c0-0.04,0-0.079,0-0.118c0.695,0,1.39,0.015,2.084-0.004c0.836-0.021,1.672-0.089,2.508-0.104
			c2.297-0.043,3.275-1.235,2.393-3.28c-0.284-0.659-1.364-1.173-2.174-1.375c-6.597-1.646-12.671-4.503-18.692-7.587
			c-3.715-1.902-7.045-4.664-11.545-5.012c-1.531-0.118-2.411,0.141-3.276,1.174c-0.223,0.267-0.386,0.589-0.628,0.834
			c-3.513,3.55-7.053,7.073-10.534,10.655c-0.492,0.506-1.146,1.633-0.958,1.877c0.546,0.705,1.455,1.501,2.274,1.562
			c4.972,0.37,9.958,0.561,14.941,0.777c1.442,0.062,2.891-0.023,4.335,0.018C118.739,354.089,125.163,354.293,131.587,354.49z
			 M266.509,185.51c-0.162-1.421-0.349-2.896-0.493-4.375c-0.15-1.539-0.19-3.091-0.407-4.62c-0.182-1.282-0.932-1.268-1.736-0.479
			c-1.784,1.75-3.58,3.491-5.289,5.313c-1.134,1.209-2.637,2.167-2.852,4.094c-0.038,0.338-0.965,0.625-1.52,0.838
			c-0.326,0.126-0.767-0.037-1.089,0.095c-2.319,0.947-4.265,5.696-2.929,7.932c1.572,2.633,3.066,5.32,4.444,8.061
			c1.58,3.145,3.18,6.302,4.436,9.582c1.639,4.277,2.924,8.688,4.441,13.013c0.135,0.385,1.086,0.905,1.269,0.783
			c1.001-0.674,2.281-1.211,2.293-2.732c0.033-4.433,0.15-8.868,0.068-13.299C266.998,201.669,266.729,193.625,266.509,185.51z
			 M95.374,141.988c-0.004,0.087-0.007,0.175-0.011,0.263c-1.085,0-2.18-0.09-3.251,0.033c-0.663,0.077-1.813,0.448-1.83,0.74
			c-0.05,0.862,0.148,1.893,0.632,2.593c0.723,1.045,1.759,1.878,2.686,2.776c3.558,3.449,7.095,6.92,10.709,10.309
			c0.849,0.795,1.731,1.723,3.262,0.938c3.962-2.03,7.962-3.998,12.028-5.811c2.886-1.287,5.876-2.359,8.87-3.381
			c2.999-1.024,6.101-1.756,9.066-2.864c0.784-0.293,1.803-1.614,1.676-2.258c-0.149-0.76-1.393-1.791-2.221-1.849
			c-3.889-0.27-7.8-0.195-11.7-0.335C115.317,142.783,105.345,142.375,95.374,141.988z M188.884,142.673
			c-0.003-0.033-0.006-0.066-0.008-0.1c-0.416,0.045-0.84,0.051-1.245,0.144c-1.284,0.296-2.318,0.861-2.305,2.406
			c0.012,1.425,1.048,1.831,2.163,2.175c1.964,0.605,3.978,1.098,5.874,1.873c3.75,1.532,7.454,3.181,11.14,4.865
			c3.274,1.497,6.55,3.007,9.726,4.7c2.488,1.326,4.194,1.276,6.143-0.716c1.207-1.235,2.358-2.527,3.523-3.804
			c2.747-3.009,5.535-5.982,8.199-9.064c0.784-0.907,0.198-2.18-0.888-2.34c-0.781-0.115-1.574-0.173-2.364-0.194
			c-5.095-0.132-10.188-0.301-15.284-0.354c-5.917-0.061-11.835-0.053-17.751,0.005
			C193.498,142.292,191.191,142.532,188.884,142.673z M185.315,350.319c-0.046,0.249-0.09,0.497-0.135,0.746
			c1.237,0.582,2.45,1.599,3.719,1.675c6.575,0.397,13.165,0.548,19.749,0.801c2.658,0.102,5.333,0.088,7.968,0.403
			c5.789,0.695,11.565,0.991,17.317,0.317c0.71-1.446,0.325-2.398-0.791-3.425c-4.534-4.164-8.962-8.443-13.446-12.662
			c-1.078-1.015-3.105-0.937-4.479-0.297c-2.326,1.084-4.005,3.013-6.401,4.144c-5.183,2.446-10.554,4.258-15.944,6.072
			C190.385,348.931,187.836,349.583,185.315,350.319z M57.606,320.534c1.207-0.322,1.894-0.311,2.286-0.645
			c1.564-1.333,3.067-2.741,4.536-4.18c2.929-2.868,5.841-5.755,8.702-8.691c0.403-0.414,0.804-1.261,0.647-1.714
			c-0.683-1.978-1.525-3.905-2.396-5.812c-3.009-6.587-6.139-13.12-9.048-19.75c-1.265-2.884-2.102-5.955-3.133-8.94
			c-0.181-0.046-0.362-0.092-0.542-0.138c-0.35,0.62-0.974,1.229-1.001,1.863c-0.118,2.713-0.021,5.433-0.074,8.147
			c-0.083,4.304-0.329,8.606-0.312,12.908c0.023,6.324,0.229,12.647,0.331,18.972C57.64,315.06,57.606,317.565,57.606,320.534z"/>
		<path fill-rule="evenodd" clip-rule="evenodd" fill="#FFFFFF" d="M90.167,395.866c0.305-0.12,0.606-0.337,0.914-0.346
			c5.119-0.141,10.238-0.236,15.356-0.383c5.938-0.169,11.873-0.484,17.812-0.547c11.852-0.125,23.704-0.143,35.556-0.153
			c2.387-0.002,4.774,0.293,7.162,0.315c1.541,0.015,3.084-0.284,4.628-0.324c5.891-0.149,11.782-0.215,17.672-0.381
			c6.891-0.195,13.777-0.503,20.668-0.682c3.703-0.097,7.411-0.029,11.117-0.031c3.938-0.003,7.875-0.002,11.812-0.002
			c6.857,0,13.715,0,20.693,0c0.127,0.3,0.377,0.893,0.726,1.717c0.633-0.867,1.071-1.466,1.509-2.064
			c0.041,0.181,0.081,0.36,0.122,0.541c2.315-0.397,4.63-0.799,6.946-1.192c7.147-1.214,13.517-4.301,19.819-7.766
			c3.937-2.164,7.343-4.909,10.534-7.911c2.197-2.065,3.714-4.835,5.72-7.128c3.532-4.04,4.05-9.274,5.754-14.025
			c2.342-6.533,2.249-13.471,2.803-20.268c0.296-3.631-0.26-7.33-0.398-11c-0.099-2.613-0.186-5.23-0.204-7.846
			c-0.133-19.178-0.274-38.354-0.349-57.532c-0.017-4.327,0.313-8.654,0.311-12.981c-0.003-3.214-0.357-6.426-0.428-9.642
			c-0.136-6.183-0.17-12.368-0.267-18.551c-0.234-14.981-0.529-29.961-0.696-44.944c-0.06-5.396,0.186-10.796,0.258-16.194
			c0.008-0.568-0.22-1.139-0.348-1.752c0.807-0.21,1.514-0.395,2.222-0.579c0.071-0.204,0.144-0.408,0.215-0.612
			c-0.777-0.487-1.555-0.976-2.775-1.742c-0.786-7.08-2.864-14.58-6.965-21.307c-2.645-4.34-5.799-8.314-9.643-11.834
			c-4.361-3.995-9.187-7.107-14.47-9.494c-4.43-2.001-9.121-3.337-14.022-3.917c-5.754-0.68-11.5-0.372-17.255-0.332
			c-5.525,0.038-11.052,0.047-16.578-0.007c-3.023-0.03-6.045-0.282-9.068-0.308c-1.84-0.016-3.681,0.293-5.522,0.308
			c-5.752,0.043-11.505,0.063-17.257,0.002c-5.688-0.06-11.375-0.224-17.062-0.364c-0.308-0.008-0.609-0.226-0.913-0.346
			c43.896,0,87.795,0,131.691,0c0,97.202,0,194.403,0,291.604C235.366,395.866,162.768,395.866,90.167,395.866z"/>
		<path fill-rule="evenodd" clip-rule="evenodd" fill="#FFFFFF" d="M16.362,203.393c0.121,0.425,0.342,0.849,0.347,1.275
			c0.139,11.91,0.238,23.82,0.383,35.729c0.083,6.774,0.24,13.547,0.354,20.32c0.126,7.51,0.244,15.02,0.362,22.529
			c0.123,7.834,0.242,15.667,0.362,23.501c0.122,7.951,0.259,15.902,0.354,23.854c0.049,4.053-0.269,8.133,0.085,12.155
			c0.719,8.152,2.224,16.17,6.276,23.44c2.083,3.737,4.125,7.551,6.688,10.951c1.855,2.461,4.488,4.356,6.87,6.392
			c1.294,1.106,2.728,2.082,4.201,2.938c5.274,3.065,10.618,5.989,16.693,7.225c3.408,0.692,6.805,1.44,10.208,2.163
			c-17.715,0-35.43,0-53.184,0C16.362,331.708,16.362,267.55,16.362,203.393z"/>
		<path fill-rule="evenodd" clip-rule="evenodd" fill="#FFFFFF" d="M68.46,104.262c-1.49,0.203-2.979,0.404-4.469,0.609
			c-2.502,0.344-5.062,0.464-7.49,1.094c-3.006,0.779-5.989,1.788-8.818,3.061c-2.484,1.118-4.73,2.758-7.11,4.117
			c-0.469,0.268-1.219,0.586-1.587,0.395c-1.504-0.781-2.111,0.395-2.827,1.18c-1.067,1.171-1.888,2.584-3.029,3.667
			c-6.391,6.067-10.311,13.609-13.174,21.79c-1.719,4.913-2.864,9.94-2.904,15.187c-0.005,0.696-0.45,1.389-0.69,2.084
			c0-17.728,0-35.456,0-53.184C33.728,104.262,51.094,104.262,68.46,104.262z"/>
		<path fill-rule="evenodd" clip-rule="evenodd" fill="#FFFFFF" d="M140.457,104.262c-0.605,0.121-1.208,0.337-1.815,0.347
			c-5.947,0.095-11.895,0.181-17.842,0.22c-10.685,0.07-21.37,0.152-32.054,0.137c-5.192-0.007-10.384-0.215-15.575-0.356
			c-0.367-0.011-0.729-0.227-1.093-0.347C94.871,104.262,117.664,104.262,140.457,104.262z"/>
		<path fill-rule="evenodd" clip-rule="evenodd" fill="#FFFFFF" d="M16.362,162.51c0.053,0.029,0.152,0.058,0.152,0.087
			c0.007,4.646,0.007,9.291,0,13.936c0,0.029-0.099,0.058-0.152,0.087C16.362,171.917,16.362,167.213,16.362,162.51z"/>
		<path fill-rule="evenodd" clip-rule="evenodd" fill="#FFFFFF" d="M58.588,226.474c-2.058-2.004-1.242-4.711-1.638-7.093
			c-0.516-3.103-0.616-6.283-0.764-9.437c-0.114-2.424-0.025-4.857-0.027-7.287c-0.004-4.957,0.013-9.915-0.021-14.872
			c-0.024-3.517-0.13-7.034-0.164-10.551c-0.004-0.431,0.218-0.865,0.456-1.744c1.146,0.658,2.241,1.072,3.052,1.801
			c1.399,1.255,2.579,2.75,3.928,4.066c2.366,2.309,4.668,4.708,7.219,6.796c3.337,2.731,3.422,3.978,1.487,7.888
			c-2.573,5.198-4.825,10.577-6.87,16.008c-1.525,4.05-2.49,8.311-3.733,12.469C61.109,225.871,60.257,226.698,58.588,226.474z"/>
		<path fill-rule="evenodd" clip-rule="evenodd" fill="#FFFFFF" d="M264.148,269.29c0.255,0.903,0.653,1.793,0.741,2.713
			c0.523,5.506,1.002,11.017,1.438,16.531c0.16,2.026,0.179,4.064,0.233,6.099c0.182,6.737,0.367,13.476,0.503,20.214
			c0.021,0.994-0.17,2.002-0.34,2.99c-0.364,2.107-1.847,2.728-3.436,1.283c-3.082-2.802-6.031-5.752-9.055-8.619
			c-1.126-1.067-2.183-2.29-3.497-3.052c-1.237-0.718-1.287-1.588-0.991-2.632c0.652-2.308,1.229-4.661,2.154-6.862
			c2.098-4.994,4.55-9.843,6.543-14.875c1.444-3.645,2.352-7.499,3.572-11.236c0.299-0.915,0.887-1.735,1.342-2.6
			C263.621,269.258,263.885,269.274,264.148,269.29z"/>
		<path fill-rule="evenodd" clip-rule="evenodd" fill="#FFFFFF" d="M131.587,354.49c-6.424-0.196-12.848-0.4-19.271-0.583
			c-1.444-0.041-2.893,0.045-4.335-0.018c-4.983-0.217-9.969-0.407-14.941-0.777c-0.819-0.062-1.728-0.857-2.274-1.562
			c-0.189-0.244,0.465-1.371,0.958-1.877c3.48-3.582,7.021-7.105,10.534-10.655c0.243-0.245,0.405-0.567,0.628-0.834
			c0.865-1.033,1.746-1.292,3.276-1.174c4.5,0.348,7.83,3.109,11.545,5.012c6.021,3.084,12.095,5.941,18.692,7.587
			c0.81,0.202,1.89,0.716,2.174,1.375c0.882,2.045-0.096,3.237-2.393,3.28c-0.836,0.016-1.671,0.083-2.508,0.104
			c-0.694,0.019-1.39,0.004-2.084,0.004C131.586,354.411,131.587,354.45,131.587,354.49z"/>
		<path fill-rule="evenodd" clip-rule="evenodd" fill="#FFFFFF" d="M266.509,185.51c0.221,8.114,0.489,16.159,0.637,24.206
			c0.082,4.431-0.035,8.866-0.068,13.299c-0.012,1.521-1.292,2.058-2.293,2.732c-0.183,0.123-1.134-0.397-1.269-0.783
			c-1.518-4.325-2.803-8.736-4.441-13.013c-1.256-3.28-2.855-6.437-4.436-9.582c-1.378-2.74-2.872-5.428-4.444-8.061
			c-1.336-2.236,0.609-6.984,2.929-7.932c0.322-0.132,0.763,0.031,1.089-0.095c0.555-0.213,1.481-0.5,1.52-0.838
			c0.215-1.928,1.718-2.885,2.852-4.094c1.709-1.822,3.505-3.564,5.289-5.313c0.805-0.789,1.555-0.803,1.736,0.479
			c0.217,1.528,0.257,3.081,0.407,4.62C266.16,182.614,266.347,184.089,266.509,185.51z"/>
		<path fill-rule="evenodd" clip-rule="evenodd" fill="#FFFFFF" d="M95.374,141.988c9.972,0.388,19.943,0.795,29.917,1.154
			c3.9,0.14,7.811,0.065,11.7,0.335c0.829,0.058,2.072,1.088,2.221,1.849c0.127,0.644-0.893,1.965-1.676,2.258
			c-2.965,1.108-6.067,1.84-9.066,2.864c-2.994,1.022-5.983,2.095-8.87,3.381c-4.065,1.812-8.065,3.781-12.028,5.811
			c-1.531,0.785-2.413-0.143-3.262-0.938c-3.615-3.388-7.152-6.859-10.709-10.309c-0.927-0.898-1.963-1.731-2.686-2.776
			c-0.484-0.7-0.682-1.731-0.632-2.593c0.017-0.292,1.167-0.663,1.83-0.74c1.071-0.124,2.166-0.033,3.251-0.033
			C95.366,142.163,95.37,142.075,95.374,141.988z"/>
		<path fill-rule="evenodd" clip-rule="evenodd" fill="#FFFFFF" d="M188.884,142.673c2.308-0.141,4.614-0.381,6.923-0.404
			c5.916-0.058,11.834-0.066,17.751-0.005c5.096,0.053,10.189,0.222,15.284,0.354c0.79,0.021,1.583,0.08,2.364,0.194
			c1.086,0.16,1.672,1.433,0.888,2.34c-2.664,3.082-5.452,6.055-8.199,9.064c-1.165,1.276-2.316,2.568-3.523,3.804
			c-1.948,1.992-3.654,2.042-6.143,0.716c-3.176-1.692-6.451-3.203-9.726-4.7c-3.686-1.684-7.39-3.333-11.14-4.865
			c-1.896-0.775-3.91-1.268-5.874-1.873c-1.115-0.344-2.151-0.75-2.163-2.175c-0.014-1.545,1.021-2.11,2.305-2.406
			c0.405-0.093,0.829-0.099,1.245-0.144C188.878,142.607,188.881,142.64,188.884,142.673z"/>
		<path fill-rule="evenodd" clip-rule="evenodd" fill="#FFFFFF" d="M185.315,350.319c2.521-0.736,5.069-1.388,7.556-2.226
			c5.391-1.814,10.762-3.626,15.944-6.072c2.396-1.131,4.075-3.06,6.401-4.144c1.374-0.64,3.401-0.718,4.479,0.297
			c4.484,4.219,8.912,8.498,13.446,12.662c1.116,1.026,1.501,1.979,0.791,3.425c-5.752,0.674-11.528,0.378-17.317-0.317
			c-2.635-0.315-5.31-0.302-7.968-0.403c-6.584-0.253-13.174-0.403-19.749-0.801c-1.269-0.076-2.481-1.093-3.719-1.675
			C185.226,350.816,185.27,350.568,185.315,350.319z"/>
		<path fill-rule="evenodd" clip-rule="evenodd" fill="#FFFFFF" d="M57.606,320.534c0-2.969,0.033-5.474-0.006-7.979
			c-0.101-6.324-0.308-12.647-0.331-18.972c-0.016-4.302,0.23-8.604,0.312-12.908c0.053-2.715-0.044-5.435,0.074-8.147
			c0.027-0.634,0.651-1.243,1.001-1.863c0.181,0.046,0.362,0.092,0.542,0.138c1.031,2.985,1.869,6.057,3.133,8.94
			c2.909,6.63,6.039,13.163,9.048,19.75c0.871,1.906,1.713,3.834,2.396,5.812c0.157,0.453-0.244,1.3-0.647,1.714
			c-2.86,2.937-5.773,5.823-8.702,8.691c-1.469,1.438-2.972,2.847-4.536,4.18C59.5,320.223,58.813,320.211,57.606,320.534z"/>
	</g>
</g>
</svg>
