<?xml version="1.0" encoding="utf-8"?>
<!-- Generator: Adobe Illustrator 16.0.0, SVG Export Plug-In . SVG Version: 6.00 Build 0)  -->
<!DOCTYPE svg PUBLIC "-//W3C//DTD SVG 1.1//EN" "http://www.w3.org/Graphics/SVG/1.1/DTD/svg11.dtd">
<svg version="1.1" id="Layer_1" xmlns="http://www.w3.org/2000/svg" xmlns:xlink="http://www.w3.org/1999/xlink" x="0px" y="0px"
	 width="323.15px" height="498.9px" viewBox="0 0 323.15 498.9" enable-background="new 0 0 323.15 498.9" xml:space="preserve">
<g>
	<g>
		<path d="M34.362,133.821c0-0.724,0-1.447,0-2.171c0.118-0.181,0.344-0.364,0.338-0.541c-0.107-3.466,2.196-6.035,3.316-9.042
			c1.034-2.778,1.888-5.624,2.811-8.443c0.032-0.096-0.038-0.229-0.069-0.342c-0.718-2.69,0.244-5.125,1.184-7.547
			c1.014-2.613,2.556-5.117,3.031-7.816c0.568-3.226,2.671-5.494,4.091-8.137c1.64-3.053,4.068-5.685,6.169-8.487
			c1.115-1.487,2.297-2.924,3.387-4.428c1.143-1.577,2.279-3.167,3.294-4.827c0.945-1.546,2.322-2.648,2.651-4.825
			c0.353-2.327,2.195-4.433,3.414-6.62c0.452-0.811,1.015-1.56,1.464-2.372c0.443-0.802,0.763-1.674,1.215-2.471
			c0.772-1.357,1.684-2.641,2.387-4.032c0.466-0.922,0.39-2.244,1.04-2.926c2.814-2.952,4.471-6.574,6.462-10.036
			c1.03-1.792,2.94-3.072,4.439-4.598c1.038-1.056,2.344-1.818,2.595-3.573c0.43-3.001,2.015-5.466,3.971-7.773
			c0.953-1.124,1.932-2.616,2.005-3.989c0.077-1.433,0.242-2.599,1.068-3.759c0.536-0.752,0.921-1.635,1.253-2.505
			c1.194-3.138,2.398-6.275,3.482-9.452c1.191-3.492,2.117-7.078,3.407-10.53c1.371-3.667,2.87-7.306,4.625-10.8
			c1.175-2.339,2.896-4.403,4.371-6.592c0.13-0.193,0.24-0.401,0.368-0.596c0.764-1.157,1.377-2.466,2.342-3.42
			c0.792-0.782,1.313-1.515,0.894-2.502c-0.6-1.413,0.132-2.084,1.078-2.927c1.077-0.96,1.96-2.146,2.883-3.27
			c0.681-0.829,1.257-1.743,1.94-2.57c0.85-1.03,1.797-1.98,2.638-3.018c1.817-2.241,3.391-4.725,5.451-6.708
			c1.524-1.467,3.68-2.267,5.51-3.433c0.719-0.458,1.692-0.994,1.898-1.688c0.541-1.823,1.727-2.052,3.286-1.908
			c1.047,0.097,2.101,0.125,2.675,0.158c1.095-0.627,1.922-1.511,2.583-1.401c1.927,0.323,3.798,1.012,5.67,1.623
			c0.827,0.27,1.62,1.025,2.398,0.985c1.735-0.09,2.247,0.911,2.72,2.229c0.878,2.448,2.579,3.868,5.254,4.042
			c0.305,0.02,0.579,0.442,0.877,0.665c0.672,0.502,1.292,1.116,2.035,1.472c2.525,1.212,5.108,2.306,7.643,3.501
			c0.927,0.437,1.741,1.394,2.673,1.491c3.176,0.333,5.684,1.787,7.867,3.982c1.649,1.66,3.2,3.443,4.997,4.926
			c1.339,1.105,2.998,1.824,4.521,2.705c1.085,0.627,2.093,1.698,3.495,0.56c0.132-0.107,0.609,0.136,0.885,0.291
			c3.088,1.735,6.203,3.428,9.23,5.265c0.894,0.542,1.854,1.379,2.214,2.303c0.534,1.371,1.509,1.782,2.684,2.25
			c1.116,0.445,2.151,1.106,3.19,1.725c0.452,0.27,0.78,0.762,1.243,1c2.887,1.484,5.834,2.854,8.688,4.398
			c3.031,1.64,6.249,3.104,8.876,5.264c1.933,1.589,3.929,2.76,6.158,3.72c1.346,0.58,2.709,1.167,3.946,1.94
			c3.75,2.339,7.476,4.722,11.144,7.187c2.098,1.409,4.079,2.994,6.086,4.535c1.796,1.378,3.392,3.137,5.381,4.1
			c1.493,0.724,3.177,0.836,4.536,2.17c2.525,2.479,5.725,4.357,7.911,7.074c2.357,2.929,3.919,6.51,5.736,9.855
			c0.581,1.07,0.896,2.291,1.295,3.456c1.118,3.266,2.179,6.552,3.339,9.803c0.637,1.785,1.426,3.516,2.146,5.271
			c0,0.12,0,0.241,0,0.362c-0.241,0.547-0.631,1.077-0.697,1.645c-0.295,2.504-0.535,5.018-0.723,7.532
			c-0.18,2.408-0.376,4.822-0.367,7.233c0.007,1.959-0.382,2.436-2.63,2.032c-0.216,1.311-0.459,2.618-0.642,3.934
			c-0.384,2.748-0.736,5.5-1.1,8.251c-0.239,1.815-0.93,3.717-0.604,5.425c0.438,2.292-0.399,4.172-0.983,6.155
			c-0.525,1.781-1.444,3.443-2.005,5.215c-1.223,3.868-0.168,8.191-2.327,11.893c-0.113,0.193-0.084,0.559,0.021,0.776
			c1.143,2.352,0.075,4.506-0.558,6.703c-0.31,1.073-0.586,2.155-0.886,3.231c-0.313,1.123-0.529,2.29-0.988,3.351
			c-0.436,1.006-1.616,1.862-0.06,2.923c0.135,0.091-0.157,0.842-0.287,1.276c-0.096,0.321-0.316,0.615-0.368,0.938
			c-0.386,2.445-0.719,4.898-1.125,7.339c-0.144,0.864-0.7,1.723-0.633,2.549c0.43,5.278-1.743,10.112-2.487,15.186
			c-0.478,3.253-1.253,6.462-1.902,9.689c-0.813,4.036-1.771,8.049-2.406,12.114c-0.405,2.593-0.338,5.261-0.487,7.895
			c-0.03,0.536,0.036,1.117-0.15,1.598c-0.618,1.592-1.397,3.124-1.976,4.729c-0.269,0.744-0.435,1.65-0.271,2.402
			c0.592,2.725,0.545,5.459-0.584,7.935c-0.646,1.417-0.829,2.725-0.801,4.171c0.004,0.223,0.069,0.454,0.034,0.668
			c-0.434,2.605-0.874,5.21-1.331,7.812c-0.07,0.401-0.272,0.779-0.348,1.18c-0.73,3.876-1.483,7.75-2.158,11.637
			c-0.717,4.131-1.271,8.292-2.061,12.408c-0.529,2.76-1.361,5.461-2.029,8.196c-0.353,1.445-0.334,3.074-1.017,4.331
			c-2.203,4.062-1.913,8.681-3.129,12.958c-0.531,1.867,0.113,4.037-0.199,6.002c-0.507,3.185-1.303,6.329-2.092,9.461
			c-0.583,2.318-1.435,4.569-1.973,6.896c-0.123,0.531,0.553,1.248,0.861,1.881c0.163-0.048,0.327-0.096,0.49-0.145
			c-0.33,0.734-0.659,1.468-1.074,2.392c-0.068-0.788-0.119-1.373-0.169-1.957c-0.422,0.359-0.595,0.765-0.623,1.179
			c-0.146,2.147-0.061,4.33-0.426,6.437c-0.43,2.474-1.337,4.861-1.837,7.327c-0.226,1.109,0.174,2.333,0.043,3.477
			c-0.306,2.692-0.789,5.364-1.14,8.053c-0.231,1.768,0.006,3.685-0.599,5.297c-1.46,3.889-2.367,7.874-2.966,11.954
			c-0.292,1.992-0.485,4.002-0.85,5.98c-0.435,2.362-1.636,4.784-1.341,7.027c0.312,2.371-0.111,4.518-0.308,6.763
			c-0.35,4.011-1.281,7.934-1.684,11.956c-0.324,3.234-0.323,6.421-0.449,9.636c-0.105,2.665,0.142,5.323-0.962,7.986
			c-0.972,2.344-1.088,5.038-1.622,7.569c-0.312,1.476-0.737,2.926-1.048,4.401c-0.487,2.312-1.588,4.509-0.802,7.029
			c1.428,4.573,1.079,9.083-1.516,13.153c-2.168,3.403-3.274,7.14-3.975,10.998c-0.582,3.206-0.605,6.511-1.125,9.731
			c-0.7,4.336-1.54,8.656-2.504,12.942c-1.041,4.629-2.634,9.189-2.012,14.016c0.458,3.549-1.241,6.577-1.935,9.846
			c-0.562,2.643-1.236,5.265-1.693,7.925c-0.479,2.791-0.103,5.717-1.46,8.374c-0.799,1.564-0.854,3.245-0.802,5.019
			c0.071,2.365-0.115,4.784-0.568,7.107c-0.55,2.819-1.259,5.655-2.32,8.316c-1.517,3.804,0.115,7.917-1.91,11.833
			c-1.463,2.829-0.936,6.624-1.71,9.891c-0.818,3.453-1.724,6.995-3.312,10.132c-2.642,5.218-6.764,9.136-12.277,11.466
			c-0.902,0.381-1.838,1.18-2.292,2.033c-1.229,2.307-3.29,3.664-5.592,3.647c-2.916-0.021-6.026-0.012-8.663-1.812
			c-2.143-1.463-4.282-2.935-6.484-4.304c-0.759-0.471-1.807-0.489-2.54-0.984c-2.101-1.417-4.108-2.973-5.884-4.276
			c-0.781,0.63-1.235,1.278-1.756,1.338c-0.519,0.059-1.471-0.356-1.601-0.766c-0.658-2.068-1.478-4.192-1.537-6.316
			c-0.068-2.414-0.728-4.459-1.856-6.507c-0.757-1.373-1.459-2.839-1.827-4.352c-0.639-2.627-0.983-5.324-1.486-7.986
			c-0.184-0.975-0.453-1.935-0.708-2.895c-0.211-0.791-0.25-1.743-0.727-2.328c-2.076-2.545-3.24-5.396-3.561-8.66
			c-0.082-0.831-0.555-1.647-0.95-2.419c-0.857-1.673-2.007-3.232-2.618-4.985c-0.749-2.152-1.169-4.403-2.929-6.053
			c-0.767-0.718-1.533-1.44-2.25-2.207c-3.528-3.772-4.97-8.561-6.546-13.308c-0.764-2.298-0.046-4.894-1.713-7.025
			c-1.133-1.448-1.837-3.226-2.875-4.76c-0.945-1.396-2.421-2.519-3.064-4.019c-1.379-3.218-2.336-6.614-3.537-9.912
			c-0.559-1.535-1.114-3.115-1.97-4.488c-1.215-1.95-2.99-3.587-4.006-5.617c-1.191-2.379-1.996-4.992-2.653-7.585
			c-0.692-2.728-1.283-5.535-1.422-8.334c-0.16-3.216-0.694-6.207-2.142-9.118c-2.424-4.875-3.029-10.228-3.773-15.546
			c-0.203-1.449-0.743-3.105-1.694-4.15c-3.147-3.459-4.811-7.434-5.129-12.043c-0.136-1.962-0.002-4.004-0.518-5.864
			c-0.836-3.017-0.597-6.013-0.607-9.047c-0.009-3.061,2.056-5.803,0.864-9.117c-0.862-2.393-0.741-5.126-1.212-7.679
			c-0.341-1.844-1.217-3.619-1.364-5.464c-0.449-5.603-1.754-10.933-4.24-15.982c-0.727-1.478-1.259-3.05-1.947-4.549
			c-0.455-0.991-0.869-2.071-1.579-2.861c-2.404-2.671-5.148-5.062-7.346-7.885c-1.882-2.417-3.539-5.144-4.657-7.984
			c-1.146-2.911-0.486-6.077,0.272-9.107c0.161-0.644,0.022-1.364,0.006-2.049c-0.039-1.622-0.103-3.243-0.124-4.865
			c-0.015-1.152,0.033-2.305,0.033-3.457c0-1.656-0.256-3.355,0.031-4.958c0.381-2.122,1.114-4.193,1.824-6.243
			c0.618-1.787,1.103-3.407-0.41-5.079c-1.466-1.619-2.701-3.447-4.05-5.174c-0.141-0.18-0.354-0.324-0.563-0.429
			c-1.514-0.758-3.23-1.264-4.507-2.308c-1.711-1.401-3.238-3.103-4.549-4.892c-0.869-1.188-1.051-2.858-1.835-4.131
			c-2.577-4.188-3.613-8.89-4.752-13.56c-0.695-2.854-1.004-5.829-1.952-8.589c-1.425-4.151-0.495-7.796,1.404-11.485
			c1.178-2.289,2.217-4.68,3.004-7.126c0.462-1.437,0.039-3.154,0.482-4.602c1.186-3.866,2.231-7.714,2.152-11.812
			c-0.02-1.023,0.125-2.29,0.711-3.042c2.204-2.822,0.534-6.288,1.741-9.242c0.1-0.245-0.353-0.694-0.504-1.067
			c-1.258-3.097-2.583-6.168-3.73-9.306c-0.918-2.51-1.466-5.162-2.462-7.636c-0.738-1.834-2.244-3.379-2.867-5.235
			c-2.189-6.525-5.794-12.173-9.987-17.553c-1.578-2.023-2.749-4.398-3.888-6.719C36.171,138.6,35.327,136.18,34.362,133.821z"/>
		<path fill-rule="evenodd" clip-rule="evenodd" fill="#FFFFFF" d="M34.362,133.821c0.965,2.359,1.81,4.779,2.93,7.062
			c1.139,2.321,2.31,4.696,3.888,6.719c4.193,5.38,7.798,11.027,9.987,17.553c0.623,1.855,2.129,3.401,2.867,5.235
			c0.996,2.474,1.544,5.125,2.462,7.636c1.147,3.137,2.473,6.209,3.73,9.306c0.151,0.373,0.604,0.822,0.504,1.067
			c-1.207,2.955,0.463,6.42-1.741,9.242c-0.586,0.751-0.731,2.019-0.711,3.042c0.079,4.097-0.967,7.946-2.152,11.812
			c-0.444,1.448-0.021,3.165-0.482,4.602c-0.787,2.446-1.826,4.838-3.004,7.126c-1.899,3.688-2.83,7.334-1.404,11.485
			c0.947,2.76,1.256,5.735,1.952,8.589c1.139,4.67,2.175,9.373,4.752,13.56c0.784,1.272,0.966,2.943,1.835,4.131
			c1.311,1.789,2.837,3.49,4.549,4.892c1.276,1.044,2.993,1.55,4.507,2.308c0.208,0.104,0.422,0.249,0.563,0.429
			c1.349,1.727,2.584,3.555,4.05,5.174c1.513,1.672,1.028,3.292,0.41,5.079c-0.709,2.05-1.442,4.121-1.824,6.243
			c-0.288,1.603-0.031,3.302-0.031,4.958c0,1.152-0.048,2.305-0.033,3.457c0.021,1.622,0.085,3.243,0.124,4.865
			c0.016,0.685,0.155,1.405-0.006,2.049c-0.758,3.03-1.418,6.196-0.272,9.107c1.119,2.841,2.775,5.567,4.657,7.984
			c2.197,2.822,4.942,5.214,7.346,7.885c0.71,0.79,1.124,1.87,1.579,2.861c0.688,1.499,1.22,3.071,1.947,4.549
			c2.485,5.05,3.791,10.38,4.24,15.982c0.147,1.845,1.023,3.62,1.364,5.464c0.472,2.553,0.351,5.286,1.212,7.679
			c1.192,3.314-0.873,6.057-0.864,9.117c0.01,3.034-0.229,6.03,0.607,9.047c0.516,1.86,0.382,3.902,0.518,5.864
			c0.318,4.609,1.981,8.584,5.129,12.043c0.951,1.045,1.491,2.701,1.694,4.15c0.744,5.318,1.349,10.671,3.773,15.546
			c1.447,2.911,1.981,5.902,2.142,9.118c0.139,2.799,0.73,5.606,1.422,8.334c0.657,2.593,1.462,5.206,2.653,7.585
			c1.016,2.03,2.791,3.667,4.006,5.617c0.856,1.373,1.411,2.953,1.97,4.488c1.2,3.298,2.158,6.694,3.537,9.912
			c0.643,1.5,2.119,2.622,3.064,4.019c1.038,1.534,1.742,3.312,2.875,4.76c1.667,2.132,0.95,4.728,1.713,7.025
			c1.576,4.747,3.018,9.535,6.546,13.308c0.718,0.767,1.484,1.489,2.25,2.207c1.759,1.649,2.18,3.9,2.929,6.053
			c0.611,1.753,1.761,3.312,2.618,4.985c0.395,0.771,0.868,1.588,0.95,2.419c0.32,3.264,1.484,6.115,3.561,8.66
			c0.477,0.585,0.516,1.537,0.727,2.328c0.255,0.96,0.523,1.92,0.708,2.895c0.502,2.662,0.847,5.359,1.486,7.986
			c0.368,1.513,1.07,2.979,1.827,4.352c1.129,2.048,1.789,4.093,1.856,6.507c0.06,2.124,0.879,4.248,1.537,6.316
			c0.13,0.409,1.082,0.824,1.601,0.766c0.521-0.06,0.975-0.708,1.756-1.338c1.776,1.304,3.783,2.859,5.884,4.276
			c0.733,0.495,1.781,0.514,2.54,0.984c2.202,1.369,4.342,2.841,6.484,4.304c2.637,1.8,5.747,1.791,8.663,1.812
			c2.302,0.017,4.362-1.341,5.592-3.647c0.454-0.854,1.39-1.652,2.292-2.033c5.514-2.33,9.636-6.248,12.277-11.466
			c1.589-3.137,2.494-6.679,3.312-10.132c0.774-3.267,0.247-7.062,1.71-9.891c2.025-3.916,0.394-8.029,1.91-11.833
			c1.062-2.661,1.771-5.497,2.32-8.316c0.453-2.323,0.64-4.742,0.568-7.107c-0.053-1.773,0.003-3.454,0.802-5.019
			c1.357-2.657,0.98-5.583,1.46-8.374c0.457-2.66,1.132-5.282,1.693-7.925c0.693-3.269,2.393-6.297,1.935-9.846
			c-0.622-4.826,0.971-9.387,2.012-14.016c0.964-4.286,1.804-8.606,2.504-12.942c0.52-3.221,0.543-6.525,1.125-9.731
			c0.7-3.858,1.807-7.595,3.975-10.998c2.595-4.07,2.943-8.58,1.516-13.153c-0.786-2.521,0.314-4.718,0.802-7.029
			c0.311-1.476,0.736-2.926,1.048-4.401c0.534-2.531,0.65-5.226,1.622-7.569c1.104-2.663,0.856-5.321,0.962-7.986
			c0.126-3.215,0.125-6.401,0.449-9.636c0.402-4.022,1.334-7.945,1.684-11.956c0.196-2.245,0.62-4.392,0.308-6.763
			c-0.295-2.243,0.906-4.665,1.341-7.027c0.364-1.979,0.558-3.988,0.85-5.98c0.599-4.08,1.506-8.065,2.966-11.954
			c0.604-1.612,0.367-3.529,0.599-5.297c0.351-2.688,0.834-5.36,1.14-8.053c0.131-1.144-0.269-2.367-0.043-3.477
			c0.5-2.466,1.407-4.854,1.837-7.327c0.365-2.106,0.28-4.289,0.426-6.437c0.028-0.414,0.201-0.819,0.623-1.179
			c0.05,0.584,0.101,1.169,0.169,1.957c0.415-0.924,0.744-1.657,1.074-2.392c-0.163,0.049-0.327,0.097-0.49,0.145
			c-0.309-0.633-0.984-1.35-0.861-1.881c0.538-2.327,1.39-4.578,1.973-6.896c0.789-3.132,1.585-6.276,2.092-9.461
			c0.312-1.965-0.332-4.135,0.199-6.002c1.216-4.277,0.926-8.896,3.129-12.958c0.683-1.257,0.664-2.885,1.017-4.331
			c0.668-2.735,1.5-5.436,2.029-8.196c0.79-4.116,1.344-8.277,2.061-12.408c0.675-3.887,1.428-7.76,2.158-11.637
			c0.075-0.401,0.277-0.779,0.348-1.18c0.457-2.602,0.897-5.207,1.331-7.812c0.035-0.215-0.03-0.445-0.034-0.668
			c-0.028-1.446,0.154-2.754,0.801-4.171c1.129-2.476,1.176-5.21,0.584-7.935c-0.163-0.751,0.003-1.658,0.271-2.402
			c0.578-1.605,1.357-3.137,1.976-4.729c0.187-0.48,0.12-1.062,0.15-1.598c0.149-2.634,0.082-5.301,0.487-7.895
			c0.636-4.064,1.593-8.078,2.406-12.114c0.649-3.227,1.425-6.437,1.902-9.689c0.744-5.073,2.917-9.907,2.487-15.186
			c-0.067-0.826,0.489-1.685,0.633-2.549c0.406-2.441,0.739-4.895,1.125-7.339c0.052-0.323,0.272-0.617,0.368-0.938
			c0.13-0.434,0.422-1.185,0.287-1.276c-1.557-1.061-0.376-1.917,0.06-2.923c0.459-1.061,0.675-2.228,0.988-3.351
			c0.3-1.076,0.576-2.158,0.886-3.231c0.633-2.197,1.7-4.351,0.558-6.703c-0.105-0.217-0.135-0.583-0.021-0.776
			c2.159-3.701,1.104-8.025,2.327-11.893c0.561-1.772,1.479-3.435,2.005-5.215c0.584-1.983,1.421-3.862,0.983-6.155
			c-0.326-1.708,0.364-3.61,0.604-5.425c0.363-2.751,0.716-5.503,1.1-8.251c0.183-1.316,0.426-2.623,0.642-3.934
			c2.248,0.404,2.637-0.073,2.63-2.032c-0.009-2.411,0.188-4.825,0.367-7.233c0.188-2.515,0.428-5.028,0.723-7.532
			c0.066-0.568,0.456-1.097,0.697-1.645c0,168.931,0,337.863,0,506.833c-85.224,0-170.447,0-255.787,0
			C34.362,417.224,34.362,275.523,34.362,133.821z"/>
		<path fill-rule="evenodd" clip-rule="evenodd" fill="#FFFFFF" d="M290.148,51.694c-0.721-1.755-1.51-3.486-2.146-5.271
			c-1.16-3.25-2.221-6.537-3.339-9.803c-0.399-1.165-0.714-2.385-1.295-3.456c-1.817-3.346-3.379-6.927-5.736-9.855
			c-2.187-2.717-5.386-4.595-7.911-7.074c-1.359-1.334-3.043-1.447-4.536-2.17c-1.989-0.963-3.585-2.722-5.381-4.1
			c-2.007-1.541-3.988-3.125-6.086-4.535c-3.668-2.465-7.394-4.847-11.144-7.187c-1.237-0.772-2.601-1.36-3.946-1.94
			c-2.229-0.96-4.226-2.131-6.158-3.72c-2.627-2.16-5.845-3.624-8.876-5.264c-2.854-1.544-5.801-2.915-8.688-4.398
			c-0.463-0.238-0.791-0.73-1.243-1c-1.039-0.619-2.074-1.28-3.19-1.725c-1.175-0.468-2.149-0.879-2.684-2.25
			c-0.359-0.924-1.32-1.76-2.214-2.303c-3.027-1.837-6.143-3.53-9.23-5.265c-0.275-0.155-0.753-0.398-0.885-0.291
			c-1.402,1.139-2.41,0.067-3.495-0.56c-1.522-0.88-3.182-1.599-4.521-2.705c-1.797-1.483-3.348-3.266-4.997-4.926
			c-2.184-2.196-4.691-3.65-7.867-3.982c-0.932-0.098-1.746-1.054-2.673-1.491c-2.534-1.196-5.117-2.29-7.643-3.501
			c-0.743-0.356-1.363-0.97-2.035-1.472c-0.298-0.223-0.572-0.645-0.877-0.665c-2.675-0.174-4.375-1.594-5.254-4.042
			c-0.473-1.319-0.985-2.319-2.72-2.229c-0.778,0.04-1.571-0.715-2.398-0.985c-1.872-0.61-3.743-1.299-5.67-1.623
			c-0.661-0.11-1.488,0.774-2.583,1.401c-0.574-0.033-1.628-0.062-2.675-0.158c-1.559-0.144-2.745,0.085-3.286,1.908
			c-0.207,0.693-1.179,1.229-1.898,1.688c-1.83,1.167-3.986,1.966-5.51,3.433c-2.06,1.983-3.634,4.467-5.451,6.708
			c-0.841,1.037-1.789,1.987-2.638,3.018c-0.683,0.827-1.259,1.741-1.94,2.57c-0.923,1.124-1.807,2.309-2.883,3.27
			c-0.946,0.843-1.678,1.514-1.078,2.927c0.419,0.987-0.103,1.72-0.894,2.502c-0.965,0.954-1.579,2.263-2.342,3.42
			c-0.128,0.195-0.237,0.402-0.368,0.596c-1.475,2.189-3.195,4.253-4.371,6.592c-1.755,3.495-3.254,7.134-4.625,10.8
			c-1.29,3.452-2.216,7.039-3.407,10.53c-1.084,3.177-2.288,6.313-3.482,9.452c-0.332,0.87-0.717,1.753-1.253,2.505
			c-0.826,1.161-0.991,2.326-1.068,3.759c-0.073,1.374-1.052,2.866-2.005,3.989c-1.956,2.307-3.541,4.771-3.971,7.773
			c-0.251,1.755-1.558,2.517-2.595,3.573c-1.499,1.526-3.41,2.807-4.439,4.598c-1.991,3.462-3.648,7.084-6.462,10.036
			c-0.65,0.682-0.574,2.004-1.04,2.926c-0.703,1.391-1.615,2.674-2.387,4.032c-0.453,0.796-0.772,1.668-1.215,2.471
			c-0.449,0.812-1.012,1.561-1.464,2.372c-1.219,2.187-3.061,4.293-3.414,6.62c-0.329,2.177-1.706,3.279-2.651,4.825
			c-1.015,1.66-2.151,3.25-3.294,4.827c-1.09,1.504-2.272,2.941-3.387,4.428c-2.102,2.802-4.529,5.434-6.169,8.487
			c-1.42,2.643-3.523,4.911-4.091,8.137c-0.476,2.699-2.017,5.204-3.031,7.816c-0.94,2.422-1.902,4.857-1.184,7.547
			c0.031,0.113,0.101,0.246,0.069,0.342c-0.923,2.819-1.776,5.665-2.811,8.443c-1.12,3.007-3.423,5.576-3.316,9.042
			c0.006,0.177-0.22,0.36-0.338,0.541c0-63.775,0-127.551,0-191.357c85.263,0,170.525,0,255.787,0.002
			C290.148-22.57,290.148,14.562,290.148,51.694z"/>
	</g>
</g>
</svg>
