<?xml version="1.0" encoding="utf-8"?>
<!-- Generator: Adobe Illustrator 16.0.0, SVG Export Plug-In . SVG Version: 6.00 Build 0)  -->
<!DOCTYPE svg PUBLIC "-//W3C//DTD SVG 1.1//EN" "http://www.w3.org/Graphics/SVG/1.1/DTD/svg11.dtd">
<svg version="1.1" id="Layer_1" xmlns="http://www.w3.org/2000/svg" xmlns:xlink="http://www.w3.org/1999/xlink" x="0px" y="0px"
	 width="323.15px" height="498.9px" viewBox="0 0 323.15 498.9" enable-background="new 0 0 323.15 498.9" xml:space="preserve">
<g>
	<g>
		<path fill="#FFFFFF" d="M1.59-13.738c127.592,0,255.184,0,382.777,0c0,175.952,0,351.904,0,527.855c-127.834,0-255.667,0-383.5,0
			c0.182-0.117,0.35-0.302,0.548-0.342c4.881-0.991,9.726-2.063,13.555-5.604c0.123-0.114,0.322-0.144,0.478-0.227
			c3.094-1.642,5.604-4.014,7.848-6.629c2.638-3.075,5.093-6.309,7.606-9.49c0.201-0.255,0.256-0.635,0.351-0.964
			c0.695-2.409,1.144-4.922,2.119-7.21c2.404-5.636,4.953-11.215,7.623-16.73c2.76-5.704,5.736-11.304,8.608-16.953
			c3.604-7.086,7.211-14.169,10.792-21.266c2.142-4.244,4.282-8.488,6.336-12.774c1.23-2.565,2.175-5.271,3.456-7.808
			c3.659-7.251,7.4-14.461,11.155-21.662c2.936-5.632,5.948-11.223,8.914-16.838c2.162-4.096,4.253-8.229,6.466-12.297
			c3.58-6.581,7.17-13.159,10.876-19.67c3.327-5.845,6.708-11.665,10.264-17.371c3.806-6.106,7.845-12.068,11.784-18.093
			c5.811-8.887,11.606-17.782,17.441-26.651c1.849-2.812,3.815-5.546,5.708-8.329c2.29-3.368,4.492-6.8,6.869-10.104
			c0.939-1.304,2.117-2.524,3.419-3.459c2.191-1.572,4.462-3.114,6.896-4.25c2.902-1.355,6.01-2.271,9.03-3.373
			c3.38-1.234,6.841-0.338,10.256-0.307c2.604,0.024,5.201,0.54,7.81,0.714c2.823,0.189,5.658,0.339,8.486,0.315
			c3.183-0.027,6.347-0.177,9.174,1.666c0.65,0.423,1.281,0.89,1.972,1.236c3.787,1.896,7.597,3.748,11.385,5.644
			c2.199,1.101,4.341,2.32,6.564,3.366c2.337,1.099,4.791,1.952,7.104,3.098c2.728,1.352,5.327,2.958,8.035,4.352
			c5.332,2.741,10.716,5.378,16.045,8.123c2.916,1.503,5.737,3.188,8.649,4.699c3.38,1.756,6.854,3.334,10.213,5.127
			c5.515,2.943,10.937,6.061,16.46,8.987c5.518,2.923,11.062,5.809,16.695,8.499c2.754,1.315,5.634,2.638,8.877,2.004
			c0.975-0.19,1.941-0.696,2.896-0.659c3.268,0.126,6.526,0.598,9.792,0.626c4.595,0.042,8.708-1.646,12.108-4.647
			c3.153-2.784,5.976-5.941,8.983-8.896c2.988-2.935,3.423-6.68,3.588-10.433c1.105-1.335,2.265-2.602,3.271-3.979
			c2.159-2.956,4.336-5.907,6.321-8.979c1.457-2.255,2.72-4.65,3.883-7.073c0.91-1.898,1.244-4.118,2.355-5.861
			c1.441-2.26,2.037-4.698,2.669-7.199c0.297-1.175,1.145-2.248,1.274-3.419c0.167-1.512-0.172-3.074-0.226-4.617
			c-0.104-2.986-0.679-5.768-2.324-8.389c-0.861-1.372-1.351-3.107-0.596-4.919c0.722-1.73,1.298-3.54,1.742-5.362
			c0.376-1.543,0.931-3.264,0.583-4.708c-0.502-2.081-1.539-4.121-2.729-5.927c-1.846-2.8-3.525-6.083-6.146-7.921
			c-5.421-3.801-11.415-6.786-17.175-10.104c-3.875-2.231-7.775-4.421-11.626-6.693c-6.353-3.75-12.661-7.576-19.014-11.326
			c-4.564-2.695-9.197-5.275-13.754-7.985c-4.206-2.501-8.303-5.188-12.533-7.645c-4.678-2.717-9.471-5.234-14.18-7.898
			c-4.667-2.641-9.295-5.351-13.935-8.04c-5.971-3.461-11.964-6.887-17.897-10.412c-6.179-3.67-12.263-7.5-18.454-11.146
			c-4.17-2.456-8.461-4.706-12.688-7.065c-10.503-5.861-20.985-11.76-31.507-17.588c-5.977-3.311-12.06-6.432-18.013-9.784
			c-6.376-3.589-12.653-7.352-18.979-11.028c-1.965-1.142-4.238-1.95-4.721-4.651c-1.821,0.193-1.627,1.508-1.458,2.839
			c-2.122-1.131-4.101-2.101-5.998-3.212c-10.39-6.082-20.763-12.193-31.136-18.304c-5.835-3.437-11.662-6.89-17.489-10.341
			c-11.933-7.066-23.814-14.222-35.814-21.171c-6.615-3.831-13.457-7.264-20.144-10.972C28.733,3.7,19.826-1.311,10.953-6.379
			C7.484-8.36,3.69-9.99,1.59-13.738z"/>
		<path fill-rule="evenodd" clip-rule="evenodd" d="M1.59-13.738c2.1,3.748,5.894,5.378,9.363,7.359
			C19.826-1.311,28.733,3.7,37.668,8.656c6.687,3.708,13.529,7.142,20.144,10.972c12,6.95,23.882,14.105,35.814,21.171
			c5.827,3.451,11.654,6.904,17.489,10.341c10.373,6.111,20.746,12.222,31.136,18.304c1.897,1.111,3.876,2.081,5.998,3.212
			c-0.17-1.331-0.364-2.646,1.458-2.839c0.483,2.701,2.756,3.509,4.721,4.651c6.326,3.676,12.604,7.439,18.979,11.028
			c5.953,3.352,12.036,6.473,18.013,9.784c10.521,5.828,21.004,11.727,31.507,17.588c4.228,2.359,8.519,4.609,12.688,7.065
			c6.191,3.647,12.275,7.477,18.454,11.146c5.934,3.525,11.927,6.951,17.897,10.412c4.64,2.689,9.268,5.399,13.935,8.04
			c4.709,2.664,9.502,5.182,14.18,7.898c4.23,2.458,8.327,5.144,12.533,7.645c4.557,2.709,9.189,5.29,13.754,7.985
			c6.353,3.75,12.661,7.576,19.014,11.326c3.851,2.272,7.751,4.462,11.626,6.693c5.76,3.317,11.754,6.303,17.175,10.104
			c2.62,1.837,4.3,5.121,6.146,7.921c1.189,1.806,2.227,3.846,2.729,5.927c0.348,1.444-0.207,3.165-0.583,4.708
			c-0.444,1.822-1.021,3.631-1.742,5.362c-0.755,1.812-0.266,3.547,0.596,4.919c1.646,2.621,2.221,5.403,2.324,8.389
			c0.054,1.542,0.393,3.105,0.226,4.617c-0.13,1.171-0.978,2.244-1.274,3.419c-0.632,2.501-1.228,4.939-2.669,7.199
			c-1.111,1.743-1.445,3.963-2.355,5.861c-1.163,2.423-2.426,4.818-3.883,7.073c-1.985,3.071-4.162,6.022-6.321,8.979
			c-1.007,1.378-2.166,2.645-3.271,3.979c-0.165,3.753-0.6,7.498-3.588,10.433c-3.008,2.954-5.83,6.111-8.983,8.896
			c-3.4,3.002-7.514,4.689-12.108,4.647c-3.266-0.028-6.524-0.5-9.792-0.626c-0.955-0.037-1.922,0.469-2.896,0.659
			c-3.243,0.634-6.123-0.688-8.877-2.004c-5.634-2.69-11.178-5.576-16.695-8.499c-5.523-2.927-10.945-6.044-16.46-8.987
			c-3.359-1.793-6.833-3.371-10.213-5.127c-2.912-1.512-5.733-3.196-8.649-4.699c-5.329-2.745-10.713-5.382-16.045-8.123
			c-2.708-1.394-5.308-3-8.035-4.352c-2.312-1.146-4.767-1.999-7.104-3.098c-2.224-1.046-4.365-2.266-6.564-3.366
			c-3.788-1.896-7.598-3.747-11.385-5.644c-0.69-0.346-1.321-0.813-1.972-1.236c-2.827-1.842-5.991-1.692-9.174-1.666
			c-2.828,0.024-5.663-0.126-8.486-0.315c-2.608-0.174-5.205-0.69-7.81-0.714c-3.415-0.031-6.876-0.927-10.256,0.307
			c-3.021,1.103-6.128,2.018-9.03,3.373c-2.434,1.135-4.704,2.677-6.896,4.25c-1.302,0.935-2.48,2.155-3.419,3.459
			c-2.377,3.305-4.579,6.736-6.869,10.104c-1.892,2.783-3.858,5.518-5.708,8.329c-5.835,8.869-11.631,17.765-17.441,26.651
			c-3.938,6.024-7.978,11.986-11.784,18.093c-3.557,5.706-6.937,11.526-10.264,17.371c-3.707,6.511-7.296,13.089-10.876,19.67
			c-2.213,4.067-4.304,8.201-6.466,12.297c-2.966,5.615-5.978,11.206-8.914,16.838c-3.755,7.201-7.497,14.411-11.155,21.662
			c-1.28,2.537-2.226,5.242-3.456,7.808c-2.054,4.286-4.194,8.53-6.336,12.774c-3.581,7.097-7.188,14.18-10.792,21.266
			c-2.873,5.649-5.848,11.249-8.608,16.953c-2.669,5.516-5.219,11.095-7.623,16.73c-0.976,2.288-1.424,4.801-2.119,7.21
			c-0.095,0.329-0.149,0.709-0.351,0.964c-2.514,3.182-4.968,6.415-7.606,9.49c-2.244,2.615-4.754,4.987-7.848,6.629
			c-0.156,0.083-0.355,0.112-0.478,0.227c-3.829,3.54-8.674,4.612-13.555,5.604c-0.198,0.04-0.367,0.225-0.548,0.342
			c-2.533,0-5.065,0-7.598,0c-1.052-0.157-2.152-0.17-3.146-0.502c-2.373-0.793-4.674-1.805-7.056-2.566
			c-0.544-0.174-1.392,0.161-1.938,0.514c-1.861,1.196-3.603,2.74-6.033,1.438c-2.481-1.329-4.971-2.644-7.414-4.04
			c-5.191-2.968-10.006-6.486-14.602-10.296c-1.479-1.226-3.13-2.488-4.039-4.106c-2.004-3.568-3.899-7.183-5.106-11.2
			c-1.371-4.562-1.255-9.051-0.452-13.513c1.216-6.754,5.286-12.179,9.15-17.633c3.26-4.603,6.711-9.075,9.857-13.754
			c4.363-6.488,8.541-13.104,12.755-19.69c2.252-3.52,4.431-7.086,6.616-10.647c4.005-6.528,7.961-13.087,11.997-19.597
			c1.924-3.105,4.048-6.088,5.965-9.197c3.548-5.75,7.038-11.537,10.497-17.342c1.734-2.911,3.323-5.909,5.028-8.838
			c0.503-0.864,1.282-1.573,1.751-2.451c1.238-2.319,2.243-4.771,3.583-7.026c2.56-4.309,5.397-8.454,7.92-12.783
			c3.259-5.593,6.292-11.316,9.479-16.951c2.495-4.409,5.154-8.728,7.599-13.164c2.148-3.9,4.063-7.928,6.15-11.863
			c1.844-3.476,3.817-6.883,5.67-10.354c1.712-3.207,3.277-6.493,5.017-9.685c2.923-5.363,5.935-10.678,8.908-16.014
			c1.912-3.43,3.815-6.865,5.734-10.292c1.534-2.74,3.112-5.458,4.619-8.213c0.704-1.287,1.815-2.638,1.819-3.963
			c0.01-3.24,1.421-6.079,2.279-9.01c1.476-5.04,1.58-10.166,0.923-15.108c-1.057-7.965-4.381-15.29-8.395-22.275
			c-1.808-3.146-2.821-6.653-2.948-10.279c-0.072-2.024-1.175-3.372-2.367-4.561c-1.381-1.377-3.146-2.384-4.796-3.474
			c-4.186-2.765-8.349-5.567-12.613-8.205c-6.612-4.091-13.321-8.023-19.947-12.09c-3.417-2.097-6.723-4.377-10.121-6.507
			c-3.729-2.338-7.516-4.584-11.261-6.897c-4.617-2.851-9.153-5.839-13.843-8.563c-4.424-2.57-8.965-4.946-13.524-7.272
			c-3.662-1.869-7.439-3.512-11.144-5.297c-3.118-1.503-6.29-2.924-9.289-4.642c-4.111-2.355-8.187-4.804-12.088-7.488
			c-6.686-4.601-11.804-10.454-13.667-18.64c-0.476-2.088-0.957-4.174-1.435-6.261c0-1.327,0-2.653,0-3.979
			c0.602-1.806,1.359-3.578,1.773-5.426c0.856-3.822,1.618-7.657,3.711-11.055c0.186-0.301,0.618-0.581,0.603-0.854
			c-0.16-3.042,1.659-5.311,2.998-7.75c1.186-2.161,2.586-4.205,3.727-6.387c1.44-2.754,2.691-5.605,4.063-8.395
			c1.544-3.141,3.065-6.295,4.722-9.376c1.181-2.197,2.594-4.269,3.854-6.426c0.515-0.881,0.768-1.938,1.374-2.738
			c0.755-0.998,1.767-1.797,2.641-2.709c2.519-2.631,4.968-5.331,7.556-7.892c1.561-1.545,3.303-2.912,5.015-4.295
			c0.481-0.39,1.148-0.797,1.72-0.783c2.412,0.061,4.82,0.375,7.23,0.388c0.917,0.005,1.896-0.433,2.742-0.871
			c1.573-0.814,3.07-1.776,4.852-2.826c0.679-1.502,2.925-2.87,2.407-5.413c-0.039-0.188,0.571-0.507,0.879-0.765
			C1.349-13.738,1.47-13.738,1.59-13.738z"/>
		<path fill-rule="evenodd" clip-rule="evenodd" fill="#FFFFFF" d="M-60.638,73.815c0.478,2.087,0.959,4.173,1.435,6.261
			c1.864,8.186,6.981,14.039,13.667,18.64c3.901,2.685,7.977,5.133,12.088,7.488c2.999,1.718,6.17,3.139,9.289,4.642
			c3.705,1.786,7.482,3.429,11.144,5.297c4.559,2.326,9.101,4.702,13.524,7.272c4.69,2.724,9.226,5.712,13.843,8.563
			c3.745,2.313,7.531,4.559,11.261,6.897c3.397,2.13,6.703,4.41,10.121,6.507c6.626,4.067,13.335,8,19.947,12.09
			c4.265,2.638,8.428,5.44,12.613,8.205c1.65,1.09,3.416,2.096,4.796,3.474c1.192,1.189,2.295,2.537,2.367,4.561
			c0.127,3.626,1.14,7.133,2.948,10.279c4.014,6.985,7.338,14.31,8.395,22.275c0.656,4.942,0.552,10.068-0.923,15.108
			c-0.858,2.932-2.269,5.77-2.279,9.01c-0.004,1.325-1.115,2.677-1.819,3.963c-1.507,2.755-3.084,5.473-4.619,8.213
			c-1.919,3.427-3.823,6.862-5.734,10.292c-2.973,5.336-5.984,10.65-8.908,16.014c-1.74,3.191-3.305,6.478-5.017,9.685
			c-1.853,3.472-3.826,6.879-5.67,10.354c-2.087,3.936-4.001,7.963-6.15,11.863c-2.445,4.437-5.104,8.755-7.599,13.164
			c-3.188,5.635-6.22,11.358-9.479,16.951c-2.522,4.329-5.36,8.475-7.92,12.783c-1.34,2.256-2.345,4.707-3.583,7.026
			c-0.469,0.878-1.249,1.587-1.751,2.451c-1.705,2.929-3.294,5.927-5.028,8.838c-3.458,5.805-6.949,11.592-10.497,17.342
			c-1.917,3.109-4.041,6.092-5.965,9.197c-4.035,6.51-7.992,13.068-11.997,19.597c-2.185,3.562-4.364,7.128-6.616,10.647
			c-4.215,6.587-8.393,13.202-12.755,19.69c-3.146,4.679-6.597,9.151-9.857,13.754c-3.864,5.454-7.934,10.879-9.15,17.633
			c-0.804,4.462-0.919,8.951,0.452,13.513c1.208,4.018,3.102,7.632,5.106,11.2c0.909,1.618,2.561,2.881,4.039,4.106
			c4.596,3.81,9.411,7.328,14.602,10.296c2.443,1.396,4.933,2.711,7.414,4.04c2.431,1.302,4.172-0.242,6.033-1.438
			c0.547-0.353,1.394-0.688,1.938-0.514c2.382,0.762,4.683,1.773,7.056,2.566c0.994,0.332,2.094,0.345,3.146,0.502
			c-17.969,0-35.938,0-53.907,0C-60.638,367.35-60.638,220.583-60.638,73.815z"/>
		<path fill-rule="evenodd" clip-rule="evenodd" fill="#FFFFFF" d="M1.229-13.738C0.92-13.48,0.311-13.161,0.35-12.973
			C0.868-10.43-1.379-9.062-2.058-7.56c-1.782,1.05-3.278,2.012-4.852,2.826c-0.846,0.438-1.825,0.876-2.742,0.871
			c-2.411-0.014-4.818-0.327-7.23-0.388c-0.571-0.014-1.238,0.394-1.72,0.783c-1.711,1.383-3.454,2.75-5.015,4.295
			c-2.587,2.562-5.037,5.261-7.556,7.892c-0.874,0.912-1.885,1.712-2.641,2.709c-0.605,0.8-0.859,1.857-1.374,2.738
			c-1.26,2.157-2.673,4.229-3.854,6.426c-1.657,3.081-3.178,6.235-4.722,9.376c-1.372,2.79-2.624,5.641-4.063,8.395
			c-1.141,2.182-2.542,4.226-3.727,6.387c-1.339,2.44-3.158,4.708-2.998,7.75c0.015,0.273-0.417,0.553-0.603,0.854
			c-2.094,3.398-2.855,7.232-3.711,11.055c-0.414,1.848-1.171,3.62-1.773,5.426c0-27.824,0-55.647,0-83.574
			C-40.016-13.738-19.394-13.738,1.229-13.738z"/>
	</g>
</g>
</svg>
