<?xml version="1.0" encoding="utf-8"?>
<!-- Generator: Adobe Illustrator 16.0.1, SVG Export Plug-In . SVG Version: 6.00 Build 0)  -->
<!DOCTYPE svg PUBLIC "-//W3C//DTD SVG 1.1//EN" "http://www.w3.org/Graphics/SVG/1.1/DTD/svg11.dtd">
<svg version="1.1" id="Layer_1" xmlns="http://www.w3.org/2000/svg" xmlns:xlink="http://www.w3.org/1999/xlink" x="0px" y="0px"
	 width="164px" height="162px" viewBox="0 0 164 162" enable-background="new 0 0 164 162" xml:space="preserve">
<g>
	<g>
		<path fill="#FFFFFF" d="M-5.638,168.021c0-57.887,0-115.773,0-173.66c58.731,0,117.461,0,176.193,0c0,57.887,0,115.773,0,173.66
			C111.823,168.021,53.093,168.021-5.638,168.021z M78.002,159.397c0.976-0.236,2.139-0.846,3.214-0.719
			c3.857,0.457,6.104-1.722,8.216-4.421c0.444-0.567,1.381-0.872,2.147-1.045c4.707-1.058,9.608-1.545,14.107-3.163
			c7.262-2.612,14.341-5.808,20.308-11.042c2.531,1.53,4.751,1.88,7.659,0.229c4.026-2.286,7.429-6.95,6.322-11.496
			c-0.355-1.458-0.739-3.073,0.511-4.706c3.148-4.111,5.727-8.576,7.755-13.393c2.178-5.174,4.027-10.406,5.047-15.934
			c0.18-0.974,0.496-2.234,1.198-2.738c1.925-1.382,3.443-2.85,4.105-5.257c1.247-4.541,1.357-7.278-2.782-10.836
			c-0.814-0.7-1.631-1.697-1.885-2.7c-1.18-4.642-2.015-9.374-3.246-14.001c-1.99-7.484-5.63-14.16-10.725-19.985
			c-1.174-1.342-1.222-2.398-0.585-3.958c0.848-2.076,1.154-4.295-0.322-6.31c-0.685-0.934-1.481-1.783-2.202-2.691
			c-2.448-3.086-2.441-3.086-6.119-1.57c-0.23,0.095-0.637,0.177-0.759,0.058c-1.226-1.192-2.312-0.551-3.389,0.189
			c-0.163-0.251-0.289-0.535-0.496-0.735c-0.25-0.242-0.569-0.413-0.858-0.614c-4.793-3.336-9.599-6.617-15.387-8.102
			c-4.094-1.049-8.088-2.535-12.217-3.386c-2.994-0.618-5.444-1.547-7.197-4.236c-1.25-1.919-5.776-3.041-7.843-2.055
			c-1.743,0.831-3.454,1.87-4.903,3.134c-1.524,1.33-2.963,2.739-5.008,3.058c-5.129,0.799-10.144,1.944-15.138,3.439
			c-6.443,1.929-12.076,5.227-17.669,8.749c-0.818,0.516-1.928,0.711-2.92,0.768c-0.936,0.054-1.9-0.434-2.841-0.399
			c-2.934,0.11-5.794,0.423-7.268,3.608c-1.051,2.271-2.365,4.425-3.331,6.728c-0.605,1.442-1.931,2.913-0.548,4.68
			c1.134,1.449,0.976,2.889-0.18,4.312c-0.516,0.635-0.927,1.38-1.261,2.131c-2.242,5.043-4.628,10.033-6.602,15.181
			c-1.168,3.048-1.642,6.359-2.478,9.538c-0.342,1.303-0.635,2.504-2.074,3.347c-3.345,1.959-5.181,5.358-5.347,8.958
			c-0.175,3.802,1.783,7.143,5.128,9.418c0.633,0.431,1.278,1.096,1.522,1.791c0.424,1.209,0.578,2.521,0.776,3.8
			c0.839,5.401,2.576,10.548,5.042,15.371c2.104,4.114,4.73,7.965,7.167,11.905c0.755,1.22,1.437,2.198,0.591,3.843
			c-0.552,1.073-0.341,2.683-0.105,3.985c0.354,1.949,1.544,3.451,3.029,4.82c2.012,1.855,4.218,2.387,6.841,1.916
			c1.092-0.196,2.478-0.495,3.324-0.021c3.382,1.895,6.549,4.17,9.904,6.116c2.691,1.562,5.469,3.021,8.333,4.229
			c5.497,2.317,11.363,3.375,17.18,4.529c0.964,0.191,1.438,0.393,1.284,1.355c-0.229,1.426,0.314,2.321,1.623,2.924
			C77.146,158.221,77.466,158.819,78.002,159.397z"/>
		<path fill-rule="evenodd" clip-rule="evenodd" d="M78.002,159.397c-0.537-0.578-0.857-1.177-1.348-1.402
			c-1.309-0.603-1.852-1.498-1.623-2.924c0.154-0.963-0.32-1.164-1.284-1.355c-5.817-1.154-11.684-2.212-17.18-4.529
			c-2.865-1.207-5.642-2.666-8.333-4.229c-3.355-1.946-6.521-4.222-9.904-6.116c-0.846-0.474-2.232-0.175-3.324,0.021
			c-2.623,0.471-4.83-0.061-6.841-1.916c-1.484-1.369-2.675-2.871-3.029-4.82c-0.236-1.303-0.447-2.912,0.105-3.985
			c0.846-1.645,0.164-2.623-0.591-3.843c-2.437-3.94-5.063-7.791-7.167-11.905c-2.467-4.823-4.204-9.97-5.042-15.371
			c-0.199-1.279-0.353-2.591-0.776-3.8c-0.244-0.695-0.889-1.36-1.522-1.791c-3.345-2.275-5.304-5.616-5.128-9.418
			c0.166-3.6,2.001-7,5.347-8.958c1.439-0.843,1.732-2.044,2.074-3.347c0.836-3.179,1.31-6.49,2.478-9.538
			c1.973-5.147,4.36-10.137,6.602-15.181c0.333-0.75,0.745-1.496,1.261-2.131c1.156-1.423,1.314-2.863,0.18-4.312
			c-1.383-1.767-0.057-3.237,0.548-4.68c0.966-2.303,2.28-4.458,3.331-6.728c1.474-3.185,4.334-3.498,7.268-3.608
			c0.941-0.035,1.905,0.453,2.841,0.399c0.992-0.057,2.102-0.252,2.92-0.768c5.594-3.522,11.227-6.82,17.669-8.749
			c4.995-1.495,10.009-2.64,15.138-3.439c2.045-0.319,3.484-1.728,5.008-3.058c1.449-1.264,3.16-2.303,4.903-3.134
			c2.066-0.985,6.593,0.136,7.843,2.055c1.753,2.689,4.203,3.619,7.197,4.236c4.129,0.851,8.123,2.336,12.217,3.386
			c5.788,1.484,10.594,4.765,15.387,8.102c0.289,0.202,0.608,0.373,0.858,0.614c0.207,0.2,0.333,0.484,0.496,0.735
			c1.077-0.741,2.163-1.381,3.389-0.189c0.122,0.119,0.528,0.037,0.759-0.058c3.678-1.516,3.671-1.517,6.119,1.57
			c0.721,0.908,1.518,1.758,2.202,2.691c1.477,2.015,1.17,4.234,0.322,6.31c-0.637,1.56-0.589,2.616,0.585,3.958
			c5.095,5.825,8.734,12.501,10.725,19.985c1.231,4.627,2.066,9.359,3.246,14.001c0.254,1.003,1.07,2,1.885,2.7
			c4.14,3.558,4.029,6.295,2.782,10.836c-0.662,2.407-2.181,3.875-4.105,5.257c-0.702,0.504-1.019,1.765-1.198,2.738
			c-1.02,5.527-2.869,10.76-5.047,15.934c-2.028,4.816-4.606,9.281-7.755,13.393c-1.25,1.633-0.866,3.248-0.511,4.706
			c1.106,4.546-2.296,9.21-6.322,11.496c-2.908,1.651-5.128,1.302-7.659-0.229c-5.967,5.234-13.046,8.43-20.308,11.042
			c-4.499,1.618-9.4,2.105-14.107,3.163c-0.767,0.173-1.703,0.478-2.147,1.045c-2.111,2.699-4.358,4.878-8.216,4.421
			C80.142,158.552,78.979,159.161,78.002,159.397z"/>
	</g>
</g>
</svg>
