<?xml version="1.0" encoding="utf-8"?>
<!-- Generator: Adobe Illustrator 16.0.1, SVG Export Plug-In . SVG Version: 6.00 Build 0)  -->
<!DOCTYPE svg PUBLIC "-//W3C//DTD SVG 1.1//EN" "http://www.w3.org/Graphics/SVG/1.1/DTD/svg11.dtd">
<svg version="1.1" id="Layer_1" xmlns="http://www.w3.org/2000/svg" xmlns:xlink="http://www.w3.org/1999/xlink" x="0px" y="0px"
	 width="488.42px" height="772.789px" viewBox="0 0 488.42 772.789" enable-background="new 0 0 488.42 772.789"
	 xml:space="preserve">
<g>
	<g>
		<path fill="#FFFFFF" d="M488.781,773.513c-162.807,0-325.612,0-488.419,0c0-257.717,0-515.434,0-773.15
			c162.806,0,325.613,0,488.419,0C488.781,258.079,488.781,515.795,488.781,773.513z M25.537,163.176
			c-0.191-0.043-0.383-0.086-0.574-0.13c-0.228,0.564-0.593,1.12-0.627,1.695c-0.018,0.298,0.495,0.793,0.865,0.922
			c2.921,1.021,5.878,1.938,8.789,2.987c0.437,0.158,1.038,0.897,0.968,1.25c-0.329,1.663-0.692,3.358-1.358,4.906
			c-1.833,4.26-3.847,8.442-5.746,12.674c-1.148,2.559-2.38,5.1-3.267,7.751c-0.685,2.048-0.854,4.263-1.315,6.391
			c-1.133,5.227-3.364,10.144-3.285,15.733c0.057,3.988-1.265,7.984-1.845,11.995c-0.475,3.287-0.861,6.594-1.094,9.906
			c-0.116,1.657,0.205,3.344,0.316,5.018c0.373,5.623,0.398,11.295,1.2,16.856c0.902,6.25,3.478,12.069,5.89,17.893
			c1.495,3.611,3.234,7.122,3.851,11.082c0.412,2.645,1.145,5.306,2.181,7.772c1.827,4.347,4.179,8.475,5.965,12.836
			c1.468,3.586,3.512,6.742,5.669,9.911c1.527,2.243,3.204,4.399,3.666,7.358c0.571,3.655,2.002,7.109,4.436,10.069
			c2.052,2.495,4.002,5.079,5.889,7.701c1.782,2.477,3.511,5.002,5.088,7.612c0.771,1.277,1.23,2.767,1.683,4.207
			c1.037,3.294,2.14,6.581,2.924,9.938c0.83,3.557,1.308,7.194,1.964,10.792c0.548,3.012,1.163,6.012,1.69,9.028
			c0.553,3.163,0.2,6.43,1.432,9.537c1.589,4.009,2.809,8.154,2.922,12.525c0.048,1.877,0.008,3.756-0.001,5.634
			c-0.01,2.062,0.253,4.171-0.096,6.174c-1.124,6.442-2.767,12.778-2.153,19.454c0.317,3.448-0.314,6.973-0.195,10.451
			c0.115,3.338,0.527,6.679,1.027,9.984c0.482,3.183,0.883,6.452,1.963,9.452c1.951,5.423,5.009,10.304,8.769,14.694
			c2.798,3.268,5.751,6.404,8.546,9.676c2.689,3.146,5.091,6.497,6.516,10.447c0.818,2.268,1.585,4.556,2.493,6.788
			c1.749,4.302,2.915,8.751,2.95,13.389c0.058,7.745,0.007,15.495-0.203,23.237c-0.091,3.369-0.634,6.732-1.07,10.086
			c-0.723,5.566-0.819,11.08,1.312,16.396c2.5,6.236,3.407,12.807,3.299,19.402c-0.074,4.562,1.598,8.57,2.5,12.823
			c0.632,2.984,1.606,5.931,1.901,8.946c0.582,5.939,1.066,11.832,2.875,17.604c1.683,5.372,2.764,10.935,4.075,16.421
			c0.613,2.563,1.108,5.142,2.742,7.337c2.15,2.89,4.081,5.954,6.378,8.717c1.188,1.43,2.808,2.738,4.506,3.459
			c3.953,1.677,8.184,2.279,12.497,2.267c0.922-0.002,1.9,0.174,2.758,0.508c4.114,1.6,8.239,3.049,12.605,3.933
			c2.385,0.482,4.611,1.945,6.793,3.173c2.151,1.21,4.109,2.762,6.242,4.011c1.47,0.861,3.143,1.374,4.639,2.197
			c4.583,2.523,7.97,6.146,9.568,11.198c0.83,2.624,1.396,5.332,2.054,8.01c1.096,4.455,2.432,8.874,3.165,13.39
			c0.512,3.151,0.17,6.438,0.237,9.663c0.061,2.935-0.056,5.894,0.289,8.796c0.551,4.653,2.457,8.929,4.155,13.262
			c0.882,2.251,1.742,4.243,4.032,5.511c1.504,0.832,2.613,2.35,4.011,3.414c0.863,0.657,1.938,1.465,2.917,1.464
			c3.229-0.004,6.507-0.071,9.671-0.642c2.736-0.493,5.337-1.719,8.006-2.597c3.022-0.994,6.043-0.967,9.141-0.212
			c1.704,0.416,3.517,0.593,5.271,0.548c3.236-0.082,6.479-0.303,9.694-0.672c1.712-0.196,3.446-0.647,5.043-1.297
			c2.724-1.107,5.313-2.542,8.022-3.69c3.117-1.32,6.432-2.226,9.43-3.762c5.395-2.764,10.515-6.067,15.935-8.775
			c8.129-4.062,16.803-4.638,25.506-2.442c4.343,1.095,8.433,3.188,12.652,4.789c1.101,0.418,2.274,0.639,3.389,1.027
			c1.712,0.597,3.431,1.19,5.092,1.911c2.609,1.131,5.256,2.217,7.735,3.595c2.961,1.646,5.815,2.822,9.284,1.507
			c2.5-0.947,5.217-0.797,7.714,0.009c2.292,0.74,4.31,0.085,6.459-0.344c2.504-0.5,5.129-1.376,7.557-1.04
			c3.433,0.475,6.605,0.35,9.859-0.741c1.492-0.501,3.133-0.551,4.7-0.836c2.613-0.476,5.238-0.903,7.828-1.488
			c2.183-0.492,4.23-1.242,6.453,0.168c1.497,0.949,3.286,1.822,5.005,1.955c3.775,0.291,7.589,0.109,11.387,0.078
			c1.169-0.009,2.338-0.144,3.505-0.242c2.341-0.198,4.727-0.794,7.01-0.52c2.862,0.344,5.617,0.086,8.402-0.282
			c2.563-0.34,5.082-0.712,7.691-0.116c1.141,0.26,1.543,0.614,1.5,1.723c-0.014,0.367,0.3,0.748,0.463,1.123
			c0.368-0.188,0.87-0.287,1.072-0.587c0.306-0.456,0.562-1.054,0.557-1.588c-0.015-1.233-0.499-2.525-0.263-3.686
			c0.987-4.843,1.862-9.744,3.358-14.439c1.919-6.026,2.549-12.23,3.453-18.412c0.488-3.336,0.979-6.672,1.444-10.012
			c0.378-2.721,1.535-5.326,0.928-8.203c-0.206-0.974,0.261-2.091,0.423-3.142c0.395-2.57,0.907-5.13,1.157-7.715
			c0.325-3.358,0.448-6.737,0.648-10.108c0.399-6.768,1.129-13.536,1.106-20.303c-0.029-9.064-0.521-18.134-1.066-27.187
			c-0.209-3.477-0.985-6.94-1.732-10.359c-0.965-4.412-2.006-8.792-1.833-13.357c0.068-1.825,0.187-3.677-0.032-5.478
			c-0.294-2.43-0.933-4.815-1.348-7.233c-0.429-2.503-0.892-5.01-1.105-7.535c-0.188-2.216-0.014-4.46-0.07-6.689
			c-0.065-2.591-0.261-5.179-0.304-7.77c-0.053-3.219,0.497-6.421-1.457-9.459c-1.455-2.262-3.102-3.979-5.637-4.876
			c-1.265-0.448-2.656-0.83-3.672-1.641c-4.803-3.83-9.877-7.346-13.49-12.521c-1.898-2.721-4.4-5.013-6.51-7.597
			c-2.02-2.473-3.914-5.05-5.807-7.623c-1.224-1.664-2.577-3.292-3.466-5.132c-2.224-4.6-4.029-9.408-6.368-13.944
			c-1.547-3.001-3.598-5.774-5.666-8.463c-1.598-2.078-3.563-3.874-5.384-5.778c-1.36-1.424-2.706-2.864-4.133-4.218
			c-3.335-3.163-6.798-6.196-10.049-9.441c-2.126-2.122-3.965-4.531-5.947-6.799c-1.646-1.882-3.216-3.845-4.996-5.592
			c-2.713-2.663-4.219-6.028-5.99-9.284c-1.495-2.749-2.468-5.571-2.611-8.665c-0.176-3.771-0.03-7.57-0.429-11.314
			c-0.582-5.468,0.634-10.687,1.786-15.904c0.672-3.046,2.03-5.867,2.461-9.079c0.419-3.119,2.023-6.124,3.371-9.058
			c0.849-1.85,2.435-3.366,3.241-5.227c1.513-3.487,2.667-7.129,4.034-10.682c0.891-2.315,2.205-4.384,4.654-5.268
			c2.711-0.978,5.516-1.693,8.25-2.609c3.946-1.322,7.218-3.682,9.13-7.375c1.774-3.427,3.079-7.1,4.53-10.688
			c1.854-4.585,3.696-9.177,5.453-13.8c1.105-2.909,2.307-5.821,3.001-8.839c1.216-5.283,1.988-10.666,3.122-15.97
			c0.537-2.517,1.407-4.974,2.258-7.412c1.155-3.311,2.483-6.561,3.646-9.869c0.833-2.373,1.549-4.789,2.257-7.203
			c0.677-2.31,1.125-4.697,1.937-6.955c1.896-5.271,3.797-10.518,4.62-16.106c0.376-2.549,1.06-5.067,1.794-7.543
			c0.816-2.756,2.061-5.397,2.729-8.182c0.708-2.942,0.935-5.956-0.539-8.874c-0.995-1.971-0.96-4.052-0.211-6.202
			c1.646-4.726,2.253-9.646,1.94-14.62c-0.337-5.383-1.255-10.746-1.326-16.126c-0.082-6.186-0.921-12.186-2.63-18.094
			c-1.106-3.825-1.639-7.987-3.545-11.37c-3.222-5.717-7.208-11.023-11.117-16.323c-1.642-2.227-3.886-4.014-5.886-5.971
			c-4.333-4.236-9.463-7.186-15.106-9.306c-2.945-1.106-4.051-4.246-2.729-7.148c1.069-2.344,1.94-4.778,2.875-7.183
			c0.288-0.745,0.264-1.887,0.782-2.215c1.623-1.027,2.036-2.712,2.817-4.217c0.366-0.705,0.742-1.427,1.243-2.034
			c2.854-3.46,5.833-6.821,8.6-10.349c1.822-2.326,3.435-4.785,6.187-6.175c0.648-0.327,1.34-0.836,1.688-1.445
			c1.663-2.916,3.252-5.876,4.789-8.862c0.664-1.292,1.153-2.676,1.696-4.029c0.888-2.213,1.66-4.478,2.666-6.634
			c0.573-1.229,1.547-2.043,3.066-2.424c2.798-0.702,5.729-0.711,8.198-2.982c1.842-1.693,4.655-2.387,7.107-3.343
			c3.981-1.552,8.069-2.839,12.02-4.467c2.234-0.92,4.762-1.532,5.521-4.596c0.312-1.26,1.824-2.245,2.846-3.301
			c2.133-2.204,4.964-3.355,7.466-4.994c3.182-2.084,5.892-4.905,8.724-7.497c1.054-0.964,0.612-2.061-0.363-2.861
			c-0.491-0.402-1.137-0.634-1.734-0.89c-3.075-1.317-6.146-2.644-9.24-3.916c-2.979-1.225-5.951-2.479-8.989-3.539
			c-1.549-0.54-3.09-0.807-3.938-2.5c-0.346-0.689-1.208-1.12-1.834-1.668c-2.312-2.023-4.776-3.9-6.902-6.103
			c-4.044-4.191-7.663-8.816-11.9-12.79c-3.266-3.062-6.678-6.07-11.336-7.341c-3.513-0.958-6.945-1.199-10.394-0.578
			c-3.286,0.592-6.532,1.558-9.69,2.663c-2.478,0.867-5.098,1.81-7.113,3.404c-3.662,2.895-7.625,4.286-12.227,4.545
			c-2.555,0.144-5.258,0.527-7.569,1.543c-4.402,1.936-8.881,3.004-13.634,2.552c-2.188-0.208-4.315-0.996-6.487-1.442
			c-1.539-0.317-3.176-0.92-4.646-0.67c-4.563,0.776-8.171-0.987-11.607-3.615c-1.015-0.776-2.109-1.81-3.27-1.967
			c-3.619-0.491-7.216-0.893-10.516-2.631c-2.751-1.45-5.529-2.847-8.326-4.283c-0.377,0.073-0.999,0.302-1.615,0.288
			c-0.938-0.022-1.879-0.354-2.806-0.307c-3.342,0.168-6.677,0.475-10.018,0.663c-5.043,0.283-10.088,0.528-15.134,0.75
			c-1.892,0.083-3.789,0.009-5.681,0.083c-4.962,0.194-9.924,0.415-14.884,0.655c-4.56,0.221-8.968,0.932-13.234,2.815
			c-2.643,1.167-5.638,2.081-8.486,2.114c-4.392,0.051-8.812-0.625-13.185-1.24c-2.482-0.35-4.864-1.442-7.347-1.755
			c-3.175-0.399-6.405-0.431-9.613-0.474c-5.185-0.069-10.372-0.044-15.557-0.002c-1.49,0.012-2.981,0.196-4.469,0.335
			c-2.466,0.23-4.925,0.562-7.396,0.716c-3.292,0.205-6.603,0.165-9.887,0.441c-3.829,0.322-7.639,0.872-11.457,1.322
			c-0.083-0.201-0.167-0.401-0.25-0.602c1.63-1.37,3.259-2.741,4.889-4.112c-0.1-0.158-0.2-0.316-0.299-0.474
			c-1.779,1.034-3.806,1.805-5.266,3.178c-1.347,1.268-2.558,1.4-4.063,0.914c-3.091-1-6.255-1.039-9.32-0.237
			c-2.757,0.722-5.396,1.906-8.064,2.947c-3.309,1.291-6.968,0.882-10.29,2.351c-2.332,1.031-5.001,1.267-7.466,2.032
			c-3.857,1.199-7.675,2.525-11.494,3.843c-0.931,0.321-1.981,0.625-2.667,1.268c-2.567,2.403-5.076,4.876-7.476,7.446
			c-3.81,4.078-7.451,8.279-10.335,13.122c-2.028,3.405-3.952,6.792-5.025,10.642c-1.195,4.286-3.422,8.196-6.485,11.25
			c-3.867,3.856-5.608,8.68-7.12,13.515c-1.416,4.53-3.389,8.736-5.429,12.949c-0.888,1.833-2.525,3.433-2.942,5.332
			c-0.663,3.02-0.551,6.205-0.836,9.313c-0.23,2.497-0.767,4.93-2.527,6.852c-3.239,3.539-6.656,6.922-9.759,10.575
			c-2.713,3.194-5.22,6.584-7.592,10.042c-2.387,3.479-4.576,7.102-6.705,10.747c-2.959,5.068-7.461,9.303-8.302,15.574
			c-1.394-0.294-2.792-0.285-3.847-0.881C28.64,165.728,25.896,166.084,25.537,163.176z"/>
		<path fill-rule="evenodd" clip-rule="evenodd" d="M25.537,163.176c0.359,2.908,3.103,2.552,4.824,3.525
			c1.055,0.597,2.453,0.587,3.847,0.881c0.84-6.271,5.343-10.506,8.302-15.574c2.129-3.646,4.318-7.268,6.705-10.747
			c2.372-3.458,4.879-6.848,7.592-10.042c3.103-3.652,6.52-7.036,9.759-10.575c1.76-1.922,2.297-4.355,2.527-6.852
			c0.286-3.108,0.174-6.293,0.836-9.313c0.417-1.899,2.055-3.5,2.942-5.332c2.04-4.213,4.013-8.419,5.429-12.949
			c1.511-4.835,3.252-9.659,7.12-13.515c3.063-3.054,5.29-6.963,6.485-11.25c1.074-3.85,2.998-7.237,5.025-10.642
			c2.884-4.843,6.525-9.044,10.335-13.122c2.399-2.57,4.909-5.043,7.476-7.446c0.686-0.643,1.737-0.946,2.667-1.268
			c3.819-1.317,7.637-2.644,11.494-3.843c2.465-0.766,5.134-1.001,7.466-2.032c3.322-1.468,6.981-1.06,10.29-2.351
			c2.667-1.041,5.307-2.226,8.064-2.947c3.065-0.802,6.229-0.763,9.32,0.237c1.505,0.486,2.716,0.354,4.063-0.914
			c1.46-1.374,3.486-2.144,5.266-3.178c0.1,0.158,0.2,0.316,0.299,0.474c-1.63,1.371-3.259,2.742-4.889,4.112
			c0.083,0.201,0.167,0.401,0.25,0.602c3.818-0.451,7.628-1,11.457-1.322c3.285-0.276,6.595-0.236,9.887-0.441
			c2.47-0.154,4.93-0.486,7.396-0.716c1.487-0.139,2.979-0.323,4.469-0.335c5.185-0.042,10.372-0.067,15.557,0.002
			c3.208,0.043,6.438,0.075,9.613,0.474c2.483,0.312,4.865,1.405,7.347,1.755c4.373,0.616,8.792,1.291,13.185,1.24
			c2.849-0.033,5.844-0.947,8.486-2.114c4.267-1.883,8.675-2.595,13.234-2.815c4.96-0.24,9.922-0.461,14.884-0.655
			c1.892-0.074,3.789,0,5.681-0.083c5.046-0.221,10.091-0.466,15.134-0.75c3.341-0.188,6.676-0.495,10.018-0.663
			c0.927-0.046,1.867,0.285,2.806,0.307c0.616,0.015,1.238-0.215,1.615-0.288c2.797,1.436,5.575,2.833,8.326,4.283
			c3.3,1.739,6.896,2.141,10.516,2.631c1.16,0.157,2.255,1.19,3.27,1.967c3.437,2.628,7.044,4.392,11.607,3.615
			c1.47-0.25,3.106,0.353,4.646,0.67c2.172,0.446,4.3,1.233,6.487,1.442c4.753,0.452,9.231-0.617,13.634-2.552
			c2.312-1.016,5.015-1.399,7.569-1.543c4.602-0.259,8.564-1.65,12.227-4.545c2.016-1.594,4.636-2.537,7.113-3.404
			c3.158-1.105,6.404-2.071,9.69-2.663c3.448-0.622,6.881-0.38,10.394,0.578c4.658,1.271,8.07,4.28,11.336,7.341
			c4.237,3.973,7.856,8.598,11.9,12.79c2.126,2.203,4.591,4.079,6.902,6.103c0.626,0.548,1.488,0.979,1.834,1.668
			c0.848,1.692,2.389,1.959,3.938,2.5c3.038,1.06,6.011,2.313,8.989,3.539c3.094,1.272,6.165,2.599,9.24,3.916
			c0.598,0.256,1.243,0.487,1.734,0.89c0.976,0.8,1.417,1.896,0.363,2.861c-2.832,2.592-5.542,5.413-8.724,7.497
			c-2.502,1.639-5.333,2.79-7.466,4.994c-1.021,1.056-2.533,2.041-2.846,3.301c-0.76,3.064-3.287,3.676-5.521,4.596
			c-3.95,1.627-8.038,2.915-12.02,4.467c-2.452,0.956-5.266,1.65-7.107,3.343c-2.47,2.271-5.4,2.28-8.198,2.982
			c-1.52,0.381-2.493,1.195-3.066,2.424c-1.006,2.156-1.778,4.421-2.666,6.634c-0.543,1.353-1.032,2.737-1.696,4.029
			c-1.537,2.985-3.126,5.946-4.789,8.862c-0.348,0.609-1.039,1.118-1.688,1.445c-2.752,1.391-4.364,3.85-6.187,6.175
			c-2.767,3.528-5.745,6.889-8.6,10.349c-0.501,0.607-0.877,1.33-1.243,2.034c-0.781,1.504-1.194,3.19-2.817,4.217
			c-0.519,0.328-0.494,1.47-0.782,2.215c-0.935,2.404-1.806,4.839-2.875,7.183c-1.322,2.902-0.217,6.042,2.729,7.148
			c5.644,2.12,10.773,5.069,15.106,9.306c2,1.957,4.244,3.744,5.886,5.971c3.909,5.3,7.896,10.606,11.117,16.323
			c1.906,3.383,2.438,7.545,3.545,11.37c1.709,5.908,2.548,11.908,2.63,18.094c0.071,5.38,0.989,10.743,1.326,16.126
			c0.312,4.975-0.294,9.895-1.94,14.62c-0.749,2.149-0.784,4.231,0.211,6.202c1.474,2.918,1.247,5.932,0.539,8.874
			c-0.669,2.785-1.913,5.426-2.729,8.182c-0.734,2.476-1.418,4.995-1.794,7.543c-0.823,5.589-2.724,10.835-4.62,16.106
			c-0.812,2.258-1.26,4.645-1.937,6.955c-0.708,2.415-1.424,4.831-2.257,7.203c-1.162,3.309-2.49,6.559-3.646,9.869
			c-0.851,2.438-1.721,4.895-2.258,7.412c-1.134,5.304-1.906,10.687-3.122,15.97c-0.694,3.018-1.896,5.93-3.001,8.839
			c-1.757,4.624-3.599,9.215-5.453,13.8c-1.451,3.588-2.756,7.262-4.53,10.688c-1.912,3.693-5.184,6.053-9.13,7.375
			c-2.734,0.916-5.539,1.631-8.25,2.609c-2.449,0.884-3.764,2.952-4.654,5.268c-1.367,3.553-2.521,7.195-4.034,10.682
			c-0.807,1.86-2.393,3.377-3.241,5.227c-1.348,2.934-2.952,5.938-3.371,9.058c-0.431,3.212-1.789,6.033-2.461,9.079
			c-1.152,5.218-2.368,10.437-1.786,15.904c0.398,3.744,0.253,7.543,0.429,11.314c0.144,3.094,1.116,5.916,2.611,8.665
			c1.771,3.256,3.277,6.621,5.99,9.284c1.78,1.747,3.35,3.71,4.996,5.592c1.982,2.268,3.821,4.677,5.947,6.799
			c3.251,3.245,6.714,6.278,10.049,9.441c1.427,1.354,2.772,2.794,4.133,4.218c1.82,1.904,3.786,3.7,5.384,5.778
			c2.068,2.688,4.119,5.462,5.666,8.463c2.339,4.536,4.145,9.345,6.368,13.944c0.889,1.84,2.242,3.468,3.466,5.132
			c1.893,2.573,3.787,5.15,5.807,7.623c2.109,2.584,4.611,4.876,6.51,7.597c3.613,5.176,8.688,8.691,13.49,12.521
			c1.016,0.811,2.407,1.192,3.672,1.641c2.535,0.897,4.182,2.614,5.637,4.876c1.954,3.038,1.404,6.24,1.457,9.459
			c0.043,2.591,0.238,5.179,0.304,7.77c0.057,2.229-0.118,4.474,0.07,6.689c0.214,2.525,0.677,5.032,1.105,7.535
			c0.415,2.418,1.054,4.804,1.348,7.233c0.219,1.801,0.101,3.652,0.032,5.478c-0.173,4.565,0.868,8.945,1.833,13.357
			c0.747,3.419,1.523,6.883,1.732,10.359c0.546,9.053,1.037,18.122,1.066,27.187c0.022,6.767-0.707,13.535-1.106,20.303
			c-0.2,3.371-0.323,6.75-0.648,10.108c-0.25,2.585-0.763,5.145-1.157,7.715c-0.162,1.051-0.629,2.168-0.423,3.142
			c0.607,2.877-0.55,5.482-0.928,8.203c-0.465,3.34-0.956,6.676-1.444,10.012c-0.904,6.182-1.534,12.386-3.453,18.412
			c-1.496,4.695-2.371,9.597-3.358,14.439c-0.236,1.16,0.248,2.452,0.263,3.686c0.006,0.534-0.251,1.132-0.557,1.588
			c-0.202,0.3-0.704,0.398-1.072,0.587c-0.163-0.375-0.477-0.756-0.463-1.123c0.043-1.108-0.359-1.463-1.5-1.723
			c-2.609-0.596-5.128-0.224-7.691,0.116c-2.785,0.368-5.54,0.626-8.402,0.282c-2.283-0.274-4.669,0.321-7.01,0.52
			c-1.167,0.099-2.336,0.233-3.505,0.242c-3.798,0.031-7.611,0.213-11.387-0.078c-1.719-0.133-3.508-1.006-5.005-1.955
			c-2.223-1.41-4.271-0.66-6.453-0.168c-2.59,0.585-5.215,1.013-7.828,1.488c-1.567,0.285-3.208,0.335-4.7,0.836
			c-3.254,1.091-6.427,1.216-9.859,0.741c-2.428-0.336-5.053,0.54-7.557,1.04c-2.149,0.429-4.167,1.084-6.459,0.344
			c-2.497-0.806-5.214-0.956-7.714-0.009c-3.469,1.315-6.323,0.139-9.284-1.507c-2.479-1.378-5.126-2.464-7.735-3.595
			c-1.661-0.721-3.38-1.314-5.092-1.911c-1.114-0.389-2.288-0.609-3.389-1.027c-4.22-1.601-8.31-3.694-12.652-4.789
			c-8.703-2.195-17.377-1.62-25.506,2.442c-5.42,2.708-10.54,6.012-15.935,8.775c-2.998,1.536-6.312,2.441-9.43,3.762
			c-2.709,1.148-5.299,2.583-8.022,3.69c-1.597,0.649-3.331,1.101-5.043,1.297c-3.216,0.369-6.458,0.59-9.694,0.672
			c-1.755,0.045-3.567-0.132-5.271-0.548c-3.097-0.755-6.119-0.782-9.141,0.212c-2.669,0.878-5.271,2.104-8.006,2.597
			c-3.165,0.57-6.442,0.638-9.671,0.642c-0.979,0.001-2.053-0.807-2.917-1.464c-1.398-1.064-2.507-2.582-4.011-3.414
			c-2.29-1.268-3.15-3.26-4.032-5.511c-1.699-4.333-3.604-8.608-4.155-13.262c-0.344-2.902-0.228-5.861-0.289-8.796
			c-0.067-3.225,0.274-6.512-0.237-9.663c-0.733-4.516-2.069-8.935-3.165-13.39c-0.659-2.678-1.225-5.386-2.054-8.01
			c-1.598-5.052-4.985-8.675-9.568-11.198c-1.497-0.823-3.169-1.336-4.639-2.197c-2.133-1.249-4.091-2.801-6.242-4.011
			c-2.182-1.228-4.409-2.69-6.793-3.173c-4.367-0.884-8.492-2.333-12.605-3.933c-0.858-0.334-1.836-0.51-2.758-0.508
			c-4.313,0.013-8.544-0.59-12.497-2.267c-1.698-0.721-3.317-2.029-4.506-3.459c-2.297-2.763-4.228-5.827-6.378-8.717
			c-1.634-2.195-2.129-4.773-2.742-7.337c-1.312-5.486-2.393-11.049-4.075-16.421c-1.808-5.772-2.293-11.665-2.875-17.604
			c-0.295-3.016-1.269-5.962-1.901-8.946c-0.901-4.253-2.574-8.261-2.5-12.823c0.108-6.596-0.799-13.166-3.299-19.402
			c-2.131-5.316-2.035-10.83-1.312-16.396c0.436-3.354,0.979-6.717,1.07-10.086c0.209-7.742,0.26-15.492,0.203-23.237
			c-0.035-4.638-1.201-9.087-2.95-13.389c-0.907-2.232-1.675-4.521-2.493-6.788c-1.425-3.95-3.827-7.301-6.516-10.447
			c-2.795-3.271-5.748-6.408-8.546-9.676c-3.76-4.391-6.818-9.271-8.769-14.694c-1.08-3-1.481-6.27-1.963-9.452
			c-0.5-3.306-0.913-6.646-1.027-9.984c-0.119-3.479,0.512-7.003,0.195-10.451c-0.614-6.676,1.029-13.012,2.153-19.454
			c0.349-2.003,0.086-4.112,0.096-6.174c0.009-1.878,0.049-3.757,0.001-5.634c-0.113-4.371-1.333-8.517-2.922-12.525
			c-1.232-3.107-0.879-6.374-1.432-9.537c-0.528-3.016-1.142-6.016-1.69-9.028c-0.656-3.598-1.134-7.235-1.964-10.792
			c-0.784-3.358-1.887-6.644-2.924-9.938c-0.453-1.44-0.912-2.93-1.683-4.207c-1.578-2.61-3.306-5.135-5.088-7.612
			c-1.887-2.623-3.837-5.207-5.889-7.701c-2.434-2.959-3.865-6.414-4.436-10.069c-0.462-2.958-2.139-5.115-3.666-7.358
			c-2.157-3.169-4.202-6.325-5.669-9.911c-1.786-4.361-4.138-8.489-5.965-12.836c-1.037-2.466-1.769-5.127-2.181-7.772
			c-0.617-3.96-2.355-7.47-3.851-11.082c-2.412-5.824-4.988-11.643-5.89-17.893c-0.802-5.561-0.827-11.233-1.2-16.856
			c-0.111-1.674-0.432-3.361-0.316-5.018c0.233-3.312,0.619-6.619,1.094-9.906c0.58-4.011,1.901-8.007,1.845-11.995
			c-0.079-5.589,2.152-10.506,3.285-15.733c0.461-2.128,0.63-4.343,1.315-6.391c0.886-2.652,2.119-5.192,3.267-7.751
			c1.899-4.232,3.913-8.414,5.746-12.674c0.667-1.548,1.03-3.244,1.358-4.906c0.069-0.353-0.531-1.092-0.968-1.25
			c-2.911-1.048-5.868-1.966-8.789-2.987c-0.37-0.129-0.883-0.624-0.865-0.922c0.034-0.575,0.399-1.131,0.627-1.695
			C25.154,163.089,25.346,163.133,25.537,163.176z"/>
	</g>
</g>
</svg>
