<?xml version="1.0" encoding="utf-8"?>
<!-- Generator: Adobe Illustrator 16.0.1, SVG Export Plug-In . SVG Version: 6.00 Build 0)  -->
<!DOCTYPE svg PUBLIC "-//W3C//DTD SVG 1.1//EN" "http://www.w3.org/Graphics/SVG/1.1/DTD/svg11.dtd">
<svg version="1.1" id="Layer_1" xmlns="http://www.w3.org/2000/svg" xmlns:xlink="http://www.w3.org/1999/xlink" x="0px" y="0px"
	 width="384.224px" height="573.079px" viewBox="0 0 384.224 573.079" enable-background="new 0 0 384.224 573.079"
	 xml:space="preserve">
<g>
	<g>
		<path d="M352.968,184.373c0.236-0.17,0.473-0.339,0.709-0.509c-0.284-0.155-0.557-0.337-0.854-0.457
			c-0.525-0.21-1.148-0.271-1.584-0.592c-1.121-0.826-2.146-1.78-3.237-2.646c-3.14-2.489-6.413-4.758-9.789-6.946
			c-5.106-3.311-9.753-7.333-14.584-11.067c-3.652-2.823-7.255-5.709-10.938-8.489c-3.47-2.618-7.057-5.083-10.521-7.708
			c-4.793-3.631-9.509-7.364-14.281-11.023c-3.03-2.324-6.111-4.583-9.155-6.892c-2.074-1.573-4.079-3.239-6.189-4.763
			c-6.801-4.91-13.713-9.668-20.428-14.691c-4.113-3.077-7.963-6.511-11.897-9.824c-5.173-4.355-10.24-8.839-15.489-13.101
			c-5.169-4.197-10.502-8.192-15.772-12.264c-4.264-3.293-8.56-6.545-12.807-9.86c-4.391-3.426-8.694-6.967-13.122-10.345
			c-4.182-3.19-8.568-6.115-12.698-9.369c-6.556-5.166-12.966-10.518-19.457-15.767c-1.145-0.926-2.428-1.68-3.574-2.604
			c-6.576-5.304-13.016-10.798-20.316-15.116c-1.318-0.779-2.881-1.427-4.38-1.557c-3.203-0.276-6.461,0.043-9.655-0.282
			c-3.756-0.383-6.572,1.023-8.845,3.782c-0.568,0.69-0.627,1.789-1.167,2.516c-5.005,6.743-10.197,13.351-15.07,20.186
			c-4.669,6.55-9.083,13.285-13.494,20.014c-2.71,4.135-5.15,8.445-7.813,12.612c-1.557,2.436-3.554,4.614-4.925,7.14
			c-2.279,4.196-4.222,8.576-6.29,12.887c-1.698,3.541-3.504,7.038-5.024,10.655c-2.048,4.875-3.853,9.852-5.788,14.775
			c-2.574,6.55-5.264,13.057-7.736,19.645c-2.89,7.703-5.64,15.459-8.369,23.221c-1.365,3.881-2.727,7.779-3.778,11.751
			c-2.469,9.328-4.835,18.685-7.069,28.071c-1.009,4.24-1.658,8.57-2.367,12.876c-0.586,3.561-1.04,7.145-1.515,10.723
			c-0.605,4.562-1.213,9.125-1.742,13.696c-0.328,2.836-0.464,5.695-0.768,8.535c-0.555,5.183-1.327,10.349-1.719,15.543
			c-0.431,5.706-0.669,11.436-0.751,17.158c-0.121,8.539-0.16,17.084,0.016,25.621c0.11,5.381,0.614,10.759,1.053,16.129
			c0.397,4.861,0.885,9.718,1.44,14.564c0.789,6.886,1.536,13.781,2.56,20.634c0.941,6.296,2.098,12.567,3.396,18.801
			c1.09,5.234,2.491,10.405,3.81,15.591c1.725,6.784,3.41,13.582,5.294,20.323c1.186,4.239,2.678,8.395,4.084,12.571
			c1.343,3.991,2.7,7.979,4.147,11.933c1.982,5.417,4.001,10.822,6.105,16.193c1.82,4.647,3.567,9.345,5.733,13.833
			c2.661,5.514,5.745,10.822,8.606,16.24c2.752,5.211,5.303,10.534,8.223,15.647c2.414,4.226,5.364,8.141,7.852,12.327
			c4.274,7.194,8.347,14.509,12.562,21.738c1.306,2.241,2.677,4.465,4.23,6.537c3.622,4.831,7.379,9.56,11.068,14.34
			c2.82,3.654,5.639,7.309,8.416,10.996c0.76,1.009,1.362,2.137,2.127,3.354c-0.733,0.162-1.166,0.258-1.825,0.404
			c0.37,0.694,0.608,1.675,0.97,1.722c1.048,0.138,2.146-0.098,3.028-0.171c1.335,1.104,2.73,2.024,3.818,3.223
			c1.162,1.281,2.131,0.824,3.051-0.026c1.896-1.752,3.611-3.706,5.556-5.396c5.703-4.957,11.49-9.816,17.229-14.731
			c4.392-3.762,8.74-7.575,13.148-11.319c4.401-3.738,8.822-7.454,13.312-11.085c0.708-0.573,1.295-1.829,2.68-1.164
			c0.877,0.422,1.837,0.67,2.94,1.061c-0.411-0.448-0.841-0.711-0.938-1.064c-0.214-0.78-0.653-1.984-0.305-2.347
			c1.347-1.399,2.973-2.528,4.483-3.772c1.122-0.925,2.318-1.787,3.307-2.841c0.687-0.732,0.887-1.973,1.632-2.59
			c3.433-2.844,6.635-5.948,10.379-8.449c2.889-1.93,5.368-4.467,8.056-6.703c4.703-3.915,9.432-7.8,14.14-11.71
			c3.118-2.589,6.164-5.27,9.343-7.781c3.812-3.012,7.874-5.719,11.569-8.862c5.272-4.484,10.213-9.359,15.476-13.856
			c5.592-4.777,11.442-9.251,17.093-13.963c5.882-4.904,11.67-9.921,17.478-14.915c3.771-3.243,7.503-6.534,11.255-9.803
			c4.86-4.234,9.657-8.545,14.605-12.673c3.323-2.772,6.914-5.221,10.289-7.934c3.288-2.644,6.466-5.425,9.67-8.172
			c2.674-2.293,5.235-4.726,7.988-6.919c6.029-4.804,12.146-9.497,18.231-14.232c2.698-2.101,5.404-4.192,7.75-6.011
			c0.628,0.23,1.085,0.579,1.396,0.478c0.712-0.233,1.353-0.685,2.021-1.048c-0.26-0.389-0.521-0.778-0.835-1.248
			c0.38-0.33,0.815-0.708,1.255-1.09c0.323,0.413,0.565,0.722,0.863,1.103c0.411-1.773,0.948-2.436,2.38-3.036
			c3.223-1.351,5.337-4.639,5.053-7.971c-0.347-4.074-0.844-8.138-1.1-12.218c-0.326-5.183-0.424-10.378-0.715-15.563
			c-0.291-5.199-0.815-10.386-1.019-15.587c-0.165-4.2,0.048-8.413-0.003-12.619c-0.048-3.998-0.255-7.993-0.328-11.99
			c-0.09-4.973-0.054-9.948-0.186-14.92c-0.1-3.746-0.434-7.485-0.562-11.231c-0.101-2.959,0.012-5.925-0.071-8.886
			c-0.207-7.428-0.462-14.855-0.717-22.282c-0.09-2.637-0.219-5.273-0.356-7.908c-0.076-1.446-0.018-2.936-0.353-4.325
			c-1.262-5.237-2.609-10.456-4.049-15.646c-0.305-1.098-0.928-2.322-1.792-2.979c-0.622-0.473-2.199-0.494-2.8-0.02
			c-1.234,0.977,0.274,1.338,0.82,1.888c0.104,0.105,0.122,0.296,0.18,0.448c-0.072,0.077-0.145,0.154-0.218,0.231
			C360.132,190.229,356.551,187.3,352.968,184.373z"/>
		<path fill-rule="evenodd" clip-rule="evenodd" d="M352.969,184.372c3.582,2.928,7.163,5.857,10.743,8.787
			c0.073-0.078,0.146-0.154,0.218-0.231c-0.058-0.152-0.075-0.343-0.18-0.448c-0.546-0.549-2.055-0.911-0.82-1.888
			c0.601-0.475,2.178-0.453,2.8,0.02c0.864,0.656,1.487,1.88,1.792,2.979c1.439,5.19,2.787,10.41,4.049,15.646
			c0.335,1.39,0.276,2.879,0.353,4.325c0.138,2.635,0.267,5.271,0.356,7.908c0.255,7.427,0.51,14.854,0.717,22.282
			c0.083,2.96-0.029,5.927,0.071,8.886c0.128,3.746,0.462,7.485,0.562,11.231c0.132,4.972,0.096,9.947,0.186,14.92
			c0.073,3.998,0.28,7.993,0.328,11.99c0.051,4.206-0.162,8.419,0.003,12.619c0.203,5.201,0.728,10.388,1.019,15.587
			c0.291,5.186,0.389,10.381,0.715,15.563c0.256,4.08,0.753,8.144,1.1,12.218c0.284,3.332-1.83,6.62-5.053,7.971
			c-1.432,0.601-1.969,1.263-2.38,3.036c-0.298-0.381-0.54-0.689-0.863-1.103c-0.439,0.382-0.875,0.76-1.255,1.09
			c0.314,0.47,0.575,0.859,0.835,1.248c-0.669,0.363-1.31,0.814-2.021,1.048c-0.312,0.102-0.769-0.247-1.396-0.478
			c-2.346,1.818-5.052,3.91-7.75,6.011c-6.085,4.735-12.202,9.429-18.231,14.232c-2.753,2.193-5.314,4.626-7.988,6.919
			c-3.204,2.747-6.382,5.528-9.67,8.172c-3.375,2.713-6.966,5.161-10.289,7.934c-4.948,4.128-9.745,8.438-14.605,12.673
			c-3.752,3.269-7.483,6.56-11.255,9.803c-5.808,4.994-11.596,10.011-17.478,14.915c-5.65,4.712-11.501,9.186-17.093,13.963
			c-5.263,4.497-10.203,9.372-15.476,13.856c-3.695,3.144-7.758,5.851-11.569,8.862c-3.179,2.512-6.225,5.192-9.343,7.781
			c-4.708,3.91-9.437,7.795-14.14,11.71c-2.688,2.236-5.167,4.773-8.056,6.703c-3.744,2.501-6.946,5.605-10.379,8.449
			c-0.745,0.617-0.945,1.857-1.632,2.59c-0.989,1.054-2.185,1.916-3.307,2.841c-1.51,1.244-3.136,2.373-4.483,3.772
			c-0.348,0.362,0.091,1.566,0.305,2.347c0.097,0.354,0.527,0.616,0.938,1.064c-1.103-0.391-2.063-0.639-2.94-1.061
			c-1.384-0.665-1.971,0.591-2.68,1.164c-4.49,3.631-8.911,7.347-13.312,11.085c-4.408,3.744-8.756,7.558-13.148,11.319
			c-5.739,4.915-11.526,9.774-17.229,14.731c-1.945,1.69-3.66,3.645-5.556,5.396c-0.92,0.851-1.889,1.308-3.051,0.026
			c-1.087-1.198-2.482-2.118-3.818-3.223c-0.882,0.073-1.979,0.309-3.028,0.171c-0.361-0.047-0.6-1.027-0.97-1.722
			c0.66-0.146,1.092-0.242,1.825-0.404c-0.765-1.217-1.367-2.345-2.127-3.354c-2.776-3.688-5.596-7.342-8.416-10.996
			c-3.689-4.78-7.447-9.509-11.068-14.34c-1.554-2.072-2.924-4.296-4.23-6.537c-4.215-7.229-8.287-14.544-12.562-21.738
			c-2.487-4.187-5.438-8.102-7.852-12.327c-2.92-5.113-5.471-10.437-8.223-15.647c-2.861-5.418-5.946-10.727-8.606-16.24
			c-2.167-4.488-3.913-9.186-5.733-13.833c-2.104-5.371-4.123-10.776-6.105-16.193c-1.447-3.954-2.804-7.941-4.147-11.933
			c-1.406-4.177-2.899-8.332-4.084-12.571c-1.885-6.741-3.569-13.539-5.294-20.323c-1.318-5.186-2.719-10.356-3.81-15.591
			c-1.298-6.233-2.455-12.505-3.396-18.801c-1.024-6.853-1.771-13.748-2.56-20.634c-0.555-4.847-1.043-9.703-1.44-14.564
			c-0.439-5.37-0.943-10.748-1.053-16.129c-0.175-8.537-0.137-17.083-0.016-25.621c0.082-5.723,0.32-11.452,0.751-17.158
			c0.392-5.194,1.164-10.36,1.719-15.543c0.304-2.84,0.44-5.699,0.768-8.535c0.528-4.571,1.136-9.134,1.742-13.696
			c0.475-3.578,0.929-7.162,1.515-10.723c0.708-4.306,1.358-8.636,2.367-12.876c2.234-9.386,4.601-18.743,7.069-28.071
			c1.052-3.973,2.414-7.87,3.778-11.751c2.729-7.761,5.479-15.518,8.369-23.221c2.472-6.588,5.162-13.095,7.736-19.645
			c1.935-4.923,3.739-9.9,5.788-14.775c1.52-3.617,3.326-7.115,5.024-10.655c2.067-4.311,4.011-8.69,6.29-12.887
			c1.372-2.526,3.369-4.704,4.925-7.14c2.663-4.167,5.104-8.478,7.813-12.612c4.411-6.729,8.825-13.464,13.494-20.014
			c4.873-6.835,10.064-13.443,15.07-20.186c0.54-0.727,0.598-1.825,1.167-2.516c2.272-2.759,5.089-4.166,8.845-3.782
			c3.194,0.325,6.452,0.005,9.655,0.282c1.5,0.129,3.062,0.777,4.38,1.557c7.301,4.318,13.74,9.812,20.316,15.116
			c1.146,0.925,2.429,1.679,3.574,2.604c6.491,5.249,12.901,10.602,19.457,15.767c4.13,3.253,8.517,6.179,12.698,9.369
			c4.428,3.378,8.731,6.918,13.122,10.345c4.247,3.314,8.543,6.566,12.807,9.86c5.271,4.072,10.604,8.067,15.772,12.264
			c5.249,4.262,10.316,8.745,15.489,13.101c3.935,3.313,7.784,6.747,11.897,9.824c6.715,5.023,13.627,9.782,20.428,14.691
			c2.11,1.523,4.115,3.189,6.189,4.763c3.044,2.309,6.125,4.568,9.155,6.892c4.772,3.659,9.488,7.393,14.281,11.023
			c3.465,2.625,7.052,5.089,10.521,7.708c3.684,2.78,7.286,5.667,10.938,8.489c4.831,3.734,9.478,7.756,14.584,11.067
			c3.376,2.188,6.649,4.457,9.789,6.946c1.092,0.866,2.116,1.821,3.237,2.646c0.436,0.322,1.059,0.382,1.584,0.592
			c0.298,0.12,0.57,0.302,0.854,0.457C353.44,184.034,353.204,184.203,352.969,184.372z"/>
	</g>
</g>
</svg>
