<?xml version="1.0" encoding="utf-8"?>
<!-- Generator: Adobe Illustrator 17.0.0, SVG Export Plug-In . SVG Version: 6.00 Build 0)  -->
<!DOCTYPE svg PUBLIC "-//W3C//DTD SVG 1.1//EN" "http://www.w3.org/Graphics/SVG/1.1/DTD/svg11.dtd">
<svg version="1.1" id="Layer_1" xmlns="http://www.w3.org/2000/svg" xmlns:xlink="http://www.w3.org/1999/xlink" x="0px" y="0px"
	 width="304.221px" height="304.384px" viewBox="0 0 304.221 304.384" enable-background="new 0 0 304.221 304.384"
	 xml:space="preserve">
<path fill-rule="evenodd" clip-rule="evenodd" fill="none" d="M206.728,0c23.138,2.248,47.556-1.11,65.487,9.769
	c33.737,20.468,34.93,64.936,29.668,109.99c0.121,16.762,0.241,33.529,0.362,50.291c0.12,20.139,0.241,40.283,0.362,60.422
	c-1.944,20.589-0.987,34.459-10.854,46.673c-5.496,6.804-12.53,13.967-20.261,18.452c-10.463,6.07-21.825,5.257-36.543,6.874
	c-25.613,2.814-61.529,1.084-101.668,1.085c-28.6,0.001-81.643,4.148-99.497-6.151c-13.988-8.069-26.643-23.511-31.839-40.161
	c-1.255-4.021-0.63-10.538-0.362-14.11c-0.241-11.215-0.482-22.433-0.724-33.648c0-22.912,0-45.831,0-68.744
	C3.386,75.55-14.129,26.268,38.487,4.703c7.982-3.271,18.71-3.389,24.965-3.256c7.959-0.362,15.92-0.724,23.879-1.085
	c22.189,0.121,44.384,0.241,66.573,0.362c12.541,0,25.087,0,37.628,0C195.016,1.116,204.756,1.755,206.728,0z"/>
<path fill-rule="evenodd" clip-rule="evenodd" fill="none" d="M84.436,47.397c-1.206,0.121-2.412,0.241-3.618,0.362
	c1.321,4.232,7.502,9.102,10.854,11.578c1.107-0.181,28.583-11.94,28.583-11.94C108.317,47.397,96.375,47.397,84.436,47.397z"/>
<path fill-rule="evenodd" clip-rule="evenodd" fill="none" d="M181.763,47.397c-1.206,0.121-2.412,0.241-3.618,0.362
	c0,0.121,0,0.241,0,0.362c0.241,0,0.482,0,0.724,0c3.619,2.153,28.125,12.061,28.945,11.216c4.481-1.048,9.903-7.523,11.94-11.216
	c-0.121-0.241-0.241-0.482-0.362-0.724C206.85,47.397,194.304,47.397,181.763,47.397z"/>
<path fill-rule="evenodd" clip-rule="evenodd" fill="none" d="M51.15,83.578c-0.121,12.421-0.241,24.846-0.362,37.266
	c0.241-0.121,0.482-0.241,0.724-0.362c0.699-7.41,11.467-22.968,9.407-26.774C57.663,90.332,54.406,86.954,51.15,83.578z"/>
<path fill-rule="evenodd" clip-rule="evenodd" fill="none" d="M254.848,83.578c-3.859,3.738-7.719,7.478-11.578,11.216
	c3.859,9.044,7.719,18.091,11.578,27.136C254.848,109.147,254.848,96.36,254.848,83.578z"/>
<path fill-rule="evenodd" clip-rule="evenodd" fill="none" d="M51.873,171.136c0.241,0.121,0.482,0.241,0.724,0.362
	C52.356,171.377,52.115,171.256,51.873,171.136z"/>
<path fill-rule="evenodd" clip-rule="evenodd" fill="none" d="M51.512,182.714c-0.121,11.697-0.241,23.398-0.362,35.096
	c4.868-3.286,7.896-5.953,11.216-10.854C57.068,199.905,55.938,191.02,51.512,182.714z"/>
<path fill-rule="evenodd" clip-rule="evenodd" fill="none" d="M253.401,184.161c-1.69,8.779-7.364,15.505-10.492,23.156
	c3.04,4.088,5.939,7.461,11.216,9.407c0.121-0.121,0.241-0.241,0.362-0.362C255.144,209.67,254.938,189.065,253.401,184.161z"/>
<path fill-rule="evenodd" clip-rule="evenodd" fill="none" d="M208.537,242.774c-3.111,3.723-18.976,9.472-24.965,10.492
	c0,0.121,0,0.241,0,0.362c12.421,0,24.845,0,37.266,0c0-0.121,0-0.241,0-0.362c-0.362-0.362-0.724-0.724-1.085-1.085
	C218.786,248.066,210.28,243.12,208.537,242.774z"/>
<path fill-rule="evenodd" clip-rule="evenodd" fill="none" d="M97.461,243.136c-3.618,3.618-7.237,7.236-10.854,10.854
	c11.215-0.121,22.433-0.241,33.648-0.362c-0.241-0.362-0.482-0.724-0.724-1.085C110.531,250.632,105.359,244.305,97.461,243.136z"/>
</svg>
