<?xml version="1.0" encoding="utf-8"?>
<!-- Generator: Adobe Illustrator 17.0.0, SVG Export Plug-In . SVG Version: 6.00 Build 0)  -->
<!DOCTYPE svg PUBLIC "-//W3C//DTD SVG 1.1//EN" "http://www.w3.org/Graphics/SVG/1.1/DTD/svg11.dtd">
<svg version="1.1" id="Layer_1" xmlns="http://www.w3.org/2000/svg" xmlns:xlink="http://www.w3.org/1999/xlink" x="0px" y="0px"
	 width="1029.347px" height="677.668px" viewBox="0 0 1029.347 677.668" enable-background="new 0 0 1029.347 677.668"
	 xml:space="preserve">
<path fill-rule="evenodd" clip-rule="evenodd" fill="none" d="M774.995,0c4.583-0.123,11.232-0.63,14.11,1.085
	c2.553,6.564,6.39,21.515,3.618,32.925c-1.809,3.497-3.618,6.995-5.427,10.493c-0.831,2.12-0.236,4.275-1.447,5.789
	c-2.291,0.965-4.583,1.93-6.874,2.895c-3.738,4.824-7.478,9.649-11.216,14.472c0.121,0,0.241,0,0.362,0
	c6.441-3.094,13.601-6.598,20.985-9.045c5.065-1.085,10.131-2.171,15.196-3.256c11.577-4.824,23.157-9.649,34.734-14.472
	c8.183-2.65,20.251,1.875,22.07,7.236c10.133,29.858-33.8,30.565-46.311,40.884c-5.019,4.14-2.21,16.004-5.789,21.709
	c-6.499,10.359-20.23,14.657-27.497,24.241c0.482,1.085,0.965,2.171,1.447,3.256c8.441,2.171,16.885,4.342,25.327,6.513
	c6.03,0.121,12.061,0.241,18.091,0.362c8.441,1.809,16.885,3.618,25.327,5.427c6.547,2.058,11.972,6.643,17.729,9.407
	c7.115,1.809,14.232,3.618,21.347,5.427c7.235,0,14.473,0,21.708,0c13.024,0,26.052,0,39.075,0
	c19.137-2.992,47.626-2.839,61.146,5.065c12.587,7.359,8.732,25.333,7.598,41.97c-0.623,9.135,1.446,21.008-2.533,27.136
	c-3.256,2.171-6.513,4.342-9.769,6.513c-20.991,10.863-27.223-0.047-48.482-0.362c3.593,8.937,12.57,11.849,17.729,19.176
	c4.824,7.838,9.649,15.679,14.472,23.518c12.469,19.587,25.139,38.016,32.563,62.955c3.558,11.952-1.079,28.41,1.809,41.97
	c2.653,12.455,5.055,36.953-0.362,48.844c-5.306,8.2-10.614,16.403-15.92,24.603c-2.532,2.291-5.065,4.583-7.598,6.874
	c-1.447,5.427-2.895,10.855-4.342,16.281c-5.673,16.643-8.759,37.963-15.558,53.186c-2.03,4.545-7.165,8.87-10.131,12.663
	c-7.092,9.071-12.537,19.433-19.176,28.583c-3.424,4.72-9.717,6.309-14.472,9.769c-5.185,4.341-10.372,8.684-15.558,13.025
	c-9.559,6.493-24.714,6.966-36.543,10.854c-7.228,2.376-13.932,7.662-21.347,9.407c-8.874,2.088-32.9,3.857-42.332,1.809
	c-6.54-1.42-12.388-5.985-18.091-7.96c-4.582-1.085-9.166-2.171-13.749-3.256c-11.956-4.216-24.204-10.041-36.904-13.749
	c-4.944-0.121-9.89-0.241-14.834-0.362c-13.948,0-48.781,2.441-58.251-1.809c-26.25-11.781-60.006-42.584-73.809-66.935
	c-3.286-5.797-4.088-12.697-6.151-19.538c-3.018-10.008-7.051-20.545-11.216-29.668c-8.959-19.624-26.755-35.789-26.774-64.04
	c-21.315,3.774-36.931,15.823-52.462,25.688c-3.77,2.395-8.081,2.507-12.301,4.704c-14.196,7.387-31.606,14.744-45.226,23.156
	c-6.115,3.777-15.701,3.347-22.794,5.789c-7.742,2.666-16.342,9.029-24.241,12.663c-3.738,1.085-7.478,2.171-11.216,3.256
	c-15.456,6.17-31.811,13.813-45.588,22.432C326.49,533.731,309.18,553.674,288,569.126c-17.312,12.629-36.961,23.547-55.357,34.734
	c-6.391,3.497-12.785,6.995-19.176,10.492c-5.427,4.583-10.855,9.166-16.281,13.749c-1.809,2.171-3.618,4.342-5.427,6.513
	c-6.03,3.497-12.061,6.995-18.09,10.492c-2.774,2.532-5.548,5.066-8.322,7.598c-4.824,2.532-9.649,5.066-14.472,7.598
	c-9.723,5.363-21.669,11.854-32.925,14.472c-3.738,0-7.478,0-11.216,0c-17.938,0.002-29.955-3.13-41.608-8.683
	c-5.77-2.75-14.897-1.52-20.623-3.98c-10.948-4.703-31.817-26.08-34.734-38.352c-2.738-11.521,6.08-21.797,6.513-33.286
	c-4.913-2.616-10.647-6.091-13.025-11.216c-8.434-18.179-1.145-48.568,5.789-61.146c3.964-7.191,17.035-9.627,23.879-14.11
	c4.944-3.98,9.89-7.96,14.834-11.94c5.665-4.426,9.205-11.145,14.472-15.92c14.237-12.904,30.485-23.447,44.141-36.905
	c6.896-6.796,10.31-16.458,16.281-24.241c4.464-5.819,13.593-13.736,21.709-15.558c7.254-1.629,18.892-0.179,20.985,3.98
	c1.389,2.961,1.085,7.671,1.085,11.94c0.002,16.55-5.007,22.609-15.92,27.859c-2.502,1.204-8.182,9.157-11.216,11.578
	c-7.356,8.08-14.714,16.162-22.07,24.241c-9.497,8.927-21.459,16.268-29.668,26.412c-6.797,8.398-11.042,17.224-17.005,26.774
	c-3.899,6.245-13.28,13.528-14.111,21.347c0.241-0.362,0.482-0.724,0.724-1.085c-0.244,36.69,21.884,42.897,47.035,53.91
	c14.307,6.265,33.647,16.696,56.08,10.492c1.926-5.379,4.261-10.918,5.427-17.367c1.996-11.034,0.692-22.498,3.618-32.563
	c4.462-11.456,8.925-22.916,13.387-34.372c7.356-10.491,14.714-20.986,22.07-31.477c7.718-12.903,15.438-25.81,23.156-38.714
	c2.894-2.171,5.789-4.342,8.683-6.512c18.744-14.607,37.819-29.806,65.849-35.096c17.123-3.231,27.601,6.384,39.799,9.407
	c3.497,0.482,6.995,0.965,10.492,1.447c6.545,2.011,12.774,5.433,20.261,6.874c7.236,0.482,14.473,0.965,21.709,1.447
	c7.356,2.412,14.714,4.824,22.07,7.236c5.788,0,11.578,0,17.367,0c26.542,0.002,42-4.203,56.442-15.558
	c5.052-3.972,10.647-9.586,14.834-14.472c2.774-6.994,5.548-13.991,8.322-20.985c3.618-5.065,7.237-10.131,10.854-15.196
	c6.281-11.421,8.942-23.254,13.387-36.543c3.845-11.495,12.315-19.415,18.09-28.945c6.345-10.469,9.799-23.301,15.196-34.01
	c2.874-5.704,7.61-10.54,11.216-15.558c6.756-9.403,11.419-19.698,18.452-28.583c5.922-7.482,14.733-12.214,20.623-19.538
	c4.71-5.856,8.03-12.721,12.663-18.814c3.015-3.256,6.03-6.513,9.045-9.769c3.656-5.346,4.661-12.197,6.874-19.176
	c3.54-11.161,8.119-25.919,13.025-36.905c3.859-5.547,7.719-11.096,11.578-16.643c3.708-5.877,5.67-12.186,9.769-17.729
	c6.508-8.8,17.29-12.902,26.412-19.176c4.221-3.015,8.443-6.03,12.663-9.045c5.029-1.937,10.046-1.617,13.749-4.342
	c0.23-11.176,3.363-43.048,10.492-48.121c3.249-2.311,10.428,0.266,14.111-1.809c5.097-2.872,4.287-8.27,7.598-13.025
	C771.377,2.171,773.186,1.085,774.995,0z"/>
<path fill-rule="evenodd" clip-rule="evenodd" fill="none" d="M945.769,193.206c1.326,2.171,2.653,4.342,3.98,6.513
	c1.332,3.369,0.148,8.261,2.171,10.854c3.336,4.276,23.625,8.279,30.03,3.98C986.468,194.386,962.949,194.512,945.769,193.206z"/>
<path fill-rule="evenodd" clip-rule="evenodd" fill="none" d="M749.668,201.166c-6.941,3.015-14.105,3.973-20.623,6.874
	c-8.686,3.867-19.441,10.4-26.774,16.281c-2.774,3.015-5.548,6.03-8.322,9.045c-4.341,3.377-8.684,6.754-13.025,10.131
	c-5.525,7.395-9.654,15.479-15.196,23.156c-6.15,7.838-12.302,15.679-18.452,23.518c-3.996,9.898-0.644,24.209-3.256,35.095
	c-2.894,10.009-5.789,20.021-8.683,30.03c-2.529,13.56,1.021,28.112,3.98,37.99c5.048,16.855,9.371,34.744,21.708,44.141
	c7.718,5.185,15.438,10.372,23.156,15.558c5.306,4.1,10.614,8.201,15.92,12.301c6.913,4.258,16.387,4.901,23.518,9.407
	c18.603,11.756,37.011,25.45,60.784,31.839c10.612,0.121,21.227,0.241,31.839,0.362c9.964-1.952,18.588-7.589,27.498-10.492
	c11.18-3.644,21.635-6.548,31.477-10.492c8.684-3.48,18.529-4.242,26.05-8.683c19.267-11.377,26.174-20.567,35.095-42.332
	c0.965-3.859,1.93-7.719,2.895-11.578c5.036-12.994,7.595-22.19,7.598-41.608c0-4.1,0-8.201,0-12.302
	c-1.963-7.845-7.092-15.603-9.769-22.432c-3.183-8.121-5.782-15.989-10.131-23.156c-2.412-2.412-4.824-4.824-7.236-7.236
	c-4.391-5.484-8.008-12.192-10.492-19.538c-5.029-14.867,3.321-49.887-3.256-58.613c-10.021-13.295-28.955-17.278-49.206-20.623
	c-10.853,0-21.71,0-32.563,0c-6.271-1.568-12.543-3.136-18.814-4.703c-6.391-3.256-12.785-6.513-19.176-9.769
	C776.232,200.339,762.227,201.143,749.668,201.166z"/>
<path fill-rule="evenodd" clip-rule="evenodd" fill="none" d="M928.402,244.945c-9.733,9.135,1.424,23.715,6.513,31.477
	c4.462,5.668,8.925,11.337,13.387,17.005c4.277,8.013,5.048,17.405,8.322,26.412c3.562,9.802,8.919,21.305,11.94,32.201
	c2.676,9.651,1.446,20.326,3.618,30.754c1.66,7.971,4.617,16.019,6.151,23.156c0.362,4.341,0.724,8.684,1.085,13.025
	c0-0.241,0-0.482,0-0.724c0.965-2.653,1.93-5.307,2.895-7.96c8.16-21.119,0.982-29.827-3.256-48.844
	c-0.121-4.341-0.241-8.684-0.362-13.025c-1.863-8.295-4.273-17.577-5.789-25.327c-1.085-8.08-2.171-16.162-3.256-24.241
	c-3.699-12.475-10.796-25.02-17.729-34.734C946.214,256.126,941.8,245.104,928.402,244.945z"/>
<path fill-rule="evenodd" clip-rule="evenodd" fill="none" d="M623.759,442.131c-2.148,4.573-0.724,14.632-0.724,20.623
	c0,29.926,8.418,37.607,20.261,54.633c7.566,10.877,11.432,26.336,22.794,33.286c11.821,7.232,26.119,10.056,39.799,15.196
	c8.542,3.21,18.316,6.939,28.221,9.045c6.15,0.603,12.302,1.206,18.452,1.809c13.38,3.087,27.757,3.27,43.055,6.151
	c55.991,10.543,111.217,6.897,136.04-31.115c3.662-5.607,9.734-12.289,11.216-19.538c-0.121-0.121-0.241-0.241-0.362-0.362
	c-14.099-0.25-22.706,7.903-33.648,10.854c-9.261,2.497-18.768,1.456-28.945,3.618c-9.647,2.653-19.297,5.307-28.945,7.96
	c-4.681,1.286-13.893,1.499-18.452,0c-4.067-1.337-6.811-6.327-13.025-5.065c-6.633,1.688-13.267,3.377-19.9,5.065
	c-7.115,0.121-14.232,0.241-21.347,0.362c-7.959,0-15.92,0-23.879,0c-15.432-3.013-27.224-10.681-39.799-15.92
	c-4.944-2.05-9.89-4.101-14.834-6.151c-15.68-10.387-22.504-27.036-34.01-41.608c-2.894-2.171-5.789-4.342-8.683-6.513
	c-5.306-5.427-10.614-10.855-15.92-16.281c-3.208-4.242-6.941-8.369-9.769-12.663C628.655,451.415,627.649,444.981,623.759,442.131z
	"/>
<path fill-rule="evenodd" clip-rule="evenodd" fill="none" d="M313.327,452.261c-7.235,2.171-14.473,4.342-21.708,6.512
	c-25.297,11.923-53.612,35.991-68.382,58.613c-5.548,8.497-5.959,21.28-10.131,31.116c-4.918,11.595-14.502,22.041-17.729,34.734
	c0.121,0,0.241,0,0.362,0c14.352-6.173,22.887-15.848,34.734-23.879c8.881-6.021,20.305-8.714,29.668-14.472
	c10.374-6.379,18.855-16.011,29.307-22.794c10.25-5.788,20.504-11.578,30.754-17.367c8.441-5.547,16.885-11.096,25.327-16.643
	c14.112-7.182,30.861-11.678,43.417-20.623c-0.482-0.603-0.965-1.206-1.447-1.809c-4.811-2.239-9.489-5.878-14.834-7.96
	C356.705,451.472,335.239,452.298,313.327,452.261z"/>
<path fill-rule="evenodd" clip-rule="evenodd" fill="none" d="M63.317,619.779c-6.531,3.238-5.017,2.356-9.769,6.874
	c0.121,0.241,0.241,0.482,0.362,0.724c17.471,6.609,41.038,36.619,65.487,30.03c8.924-3.979,17.85-7.96,26.774-11.94
	c-0.121-0.241-0.241-0.482-0.362-0.724c-9.163,0.028-19.009-2.874-26.774-4.704c-11.048-2.603-22.116-1.852-31.116-5.789
	C79.719,629.428,71.517,624.602,63.317,619.779z"/>
</svg>
