<?xml version="1.0" encoding="utf-8"?>
<!-- Generator: Adobe Illustrator 16.0.0, SVG Export Plug-In . SVG Version: 6.00 Build 0)  -->
<!DOCTYPE svg PUBLIC "-//W3C//DTD SVG 1.1//EN" "http://www.w3.org/Graphics/SVG/1.1/DTD/svg11.dtd">
<svg version="1.1" id="Layer_1" xmlns="http://www.w3.org/2000/svg" xmlns:xlink="http://www.w3.org/1999/xlink" x="0px" y="0px"
	 width="237.023px" height="891.09px" viewBox="0 0 237.023 891.09" enable-background="new 0 0 237.023 891.09"
	 xml:space="preserve">
<g>
	<path d="M180.189,857.067c-35.095,0-70.189,0-105.284,0c-0.305-0.485-0.514-1.086-0.933-1.436c-1.828-1.526-3.08-3.581-4.7-5.294
		c-3.115-3.295-3.809-7.842-3.777-12.375c0.015-2.179,0.061-4.36-0.022-6.536c-0.042-1.108-0.301-2.216-0.527-3.31
		c-0.261-1.265-0.807-2.507-0.858-3.773c-0.21-5.157-0.392-10.32-0.358-15.48c0.021-3.304,0.565-6.604,0.639-9.91
		c0.065-2.912-0.312-5.832-0.293-8.748c0.035-5.437,0.254-10.871,0.316-16.309c0.021-1.83-0.547-3.722-0.249-5.483
		c0.908-5.356,0.822-10.631-0.018-15.994c-0.436-2.782,0.014-5.693-0.096-8.541c-0.157-4.055-0.667-8.104-0.649-12.155
		c0.021-5.014,0.531-10.022,0.64-15.037c0.122-5.594,0-11.191,0.047-16.786c0.018-2.091,0.314-4.181,0.305-6.271
		c-0.012-2.659-0.354-5.322-0.289-7.978c0.142-5.79,0.4-11.579,0.718-17.362c0.119-2.174,0.537-4.331,0.808-6.497
		c0.099-0.787,0.36-1.616,0.215-2.361c-1.024-5.264-1.875-10.536-1.779-15.926c0.07-3.908,0.049-7.818,0.102-11.727
		c0.012-0.854,0.236-1.706,0.238-2.56c0.005-2.185-0.11-4.369-0.075-6.553c0.017-1.042,0.333-2.076,0.376-3.12
		c0.02-0.473-0.411-0.952-0.437-1.439c-0.152-2.915,1.336-5.853-0.125-8.762c-0.069-0.138,0.191-0.413,0.228-0.636
		c0.192-1.162,0.362-2.329,0.539-3.495c-0.102-0.034-0.204-0.069-0.305-0.104c-0.086,0.234-0.173,0.469-0.26,0.702
		c-0.153-0.086-0.307-0.174-0.46-0.26c0.385-2.447,0.771-4.893,1.111-7.053c0.591,0.262,1.004,0.444,1.379,0.609
		c0-3.048,0-5.834,0-8.62c-0.16,0.001-0.319,0.002-0.478,0.003c0,1.095,0,2.19,0,3.285c-0.191,0.015-0.383,0.028-0.574,0.043
		c0.313-2.929-2.079-5.467-0.906-8.527c0.079-0.207,0-0.479-0.019-0.718c-0.228-2.904-0.606-5.806-0.656-8.712
		c-0.078-4.536,0.695-9.093-0.384-13.604c-0.054-0.227-0.003-0.48,0.006-0.721c0.103-2.578,0.246-5.154,0.3-7.733
		c0.057-2.692,0.03-5.388,0.036-8.081c0.003-1.082,0.036-2.166-0.018-3.245c-0.04-0.808-0.389-1.641-0.263-2.408
		c0.328-2.001,1.684-3.966-0.001-5.971c-0.063-0.075,0.039-0.332,0.116-0.476c0.779-1.444,0.231-2.817-0.11-4.245
		c-0.148-0.622-0.004-1.853,0.29-1.95c1.321-0.438,0.689-0.988,0.327-1.65c-0.187-0.342-0.32-0.774-0.3-1.157
		c0.09-1.714,0.879-3.423-0.003-5.142c-0.049-0.094-0.012-0.237-0.001-0.356c0.414-4.631,0.734-9.259,0.004-13.895
		c-0.099-0.628,0.104-1.308,0.188-1.961c0.192-1.478,0.582-2.957,0.545-4.427c-0.037-1.483-0.344-3.004-0.802-4.422
		c-0.455-1.411,1.953-2.397,0.425-3.842c-0.022-0.021,0.004-0.123,0.035-0.17c0.9-1.388,1.274-2.191,0.406-3.41
		c-1.045-1.466-0.659-2.954-0.876-4.441c-0.119-0.811-0.459-1.588-0.609-2.396c-0.037-0.201,0.279-0.467,0.498-0.804
		c0.135,0.465,0.207,0.715,0.298,1.026c0.45-0.403,0.806-0.721,0.774-0.692c0-1.314-0.016-2.228,0.004-3.14
		c0.027-1.266,0.622-3.095,0.011-3.681c-1.328-1.275-0.824-2.603-0.913-3.921c-0.132-1.944-0.173-3.896-0.185-5.847
		c-0.009-1.466,0.298-2.962,0.092-4.392c-0.41-2.844-0.575-5.624,0.438-8.375c0.07-0.188-0.026-0.438-0.045-0.66
		c-0.113-1.316-0.307-2.632-0.313-3.948c-0.004-0.969,0.347-1.939,0.344-2.909c-0.003-1.652-0.265-3.306-0.228-4.954
		c0.054-2.341,0.346-4.677,0.391-7.018c0.013-0.669-0.478-1.348-0.737-2.023c0.103-0.044,0.206-0.088,0.31-0.132
		c0.153,0.266,0.307,0.532,0.74,1.282c0-3.984,0-7.475,0-10.965c-0.091-0.014-0.182-0.028-0.272-0.042
		c-0.106,0.588-0.212,1.177-0.318,1.765c-0.099-0.012-0.197-0.025-0.296-0.037c0.11-1.139,0.221-2.278,0.332-3.417
		c0.148-0.022,0.296-0.043,0.444-0.065c0.194,0.271,0.389,0.542,0.541,0.754c1.885-3.028-1.654-5.522-0.779-8.532
		c0.243,0.859,0.469,1.661,0.696,2.463c0.144-0.027,0.288-0.054,0.431-0.081c0-1.319,0-2.638,0-4.053
		c-0.266,0.114-0.545,0.235-0.84,0.362c0.11-1.511,0.189-2.986,0.338-4.454c0.086-0.852,0.637-1.827,0.372-2.512
		c-0.877-2.265-1.011-4.479-0.365-6.91c0.35,0.509,0.623,0.905,0.895,1.3c0.104-0.037,0.209-0.074,0.313-0.11
		c-0.297-1.452-0.595-2.905-0.892-4.357c-0.179,0.019-0.357,0.038-0.536,0.057c0,0.441,0,0.883,0,1.324
		c-0.195-0.03-0.39-0.062-0.585-0.092c0.56-1.846,1.12-3.693,1.68-5.539c-0.091-0.047-0.183-0.095-0.274-0.142
		c-0.385,0.512-0.77,1.023-1.36,1.807c0-2.106-0.015-3.872,0.008-5.637c0.008-0.605-0.103-1.36,0.204-1.785
		c0.849-1.174,0.627-2.196,0.075-3.383c-0.228-0.487-0.041-1.195,0.043-1.79c0.051-0.363,0.293-0.694,0.402-1.055
		c0.246-0.819,0.491-1.641,0.683-2.475c0.274-1.187,1.081-2.496-0.111-3.031c0-3.867,0-7.446,0-11.232
		c-0.156,0.423-0.265,0.717-0.552,1.495c-0.266-1.654-0.447-2.783-0.628-3.912c0.08-0.035,0.16-0.07,0.24-0.105
		c0.263,0.436,0.526,0.872,0.789,1.307c0.321-2.224,0.361-4.384,0.31-6.542c-0.048-2.045-0.264-4.088-0.272-6.132
		c-0.008-1.851,0.215-3.701,0.238-5.552c0.011-0.893-0.318-1.791-0.299-2.683c0.066-3.1,0.216-6.197,0.335-9.295
		c0.026-0.675,0.079-1.351,0.076-2.025c-0.018-3.569-0.05-7.138-0.074-10.707c-0.006-0.908,0.075-1.824-0.013-2.724
		c-0.174-1.77-0.64-3.533-0.625-5.295c0.034-3.955,0.467-7.91,0.4-11.858c-0.059-3.472-0.128-6.917,0.109-10.396
		c0.263-3.857-0.018-7.752-0.076-11.631c-0.043-2.833-0.129-5.666-0.16-8.5c-0.024-2.224-0.02-4.449,0.027-6.672
		c0.027-1.301,0.287-2.605,0.225-3.898c-0.105-2.227-0.502-4.443-0.558-6.669c-0.106-4.296-0.079-8.596-0.071-12.894
		c0.006-3.601,0.083-7.203,0.092-10.804c0.007-2.874,0.087-5.755-0.096-8.619c-0.231-3.641,0.767-7.348-0.575-10.925
		c1.173-1.706,0.746-3.554,0.63-5.439c-0.305-4.969-0.528-9.948-0.597-14.926c-0.086-6.23,0.024-12.462,0.033-18.694
		c0.009-6.291,0.008-12.582-0.008-18.873c-0.016-6.153-0.049-12.305-0.085-18.458c-0.026-4.494-0.109-8.987-0.09-13.48
		c0.014-3.284,0.195-6.567,0.21-9.851c0.004-0.891-0.468-1.785-0.467-2.676c0.003-2.238,0.214-4.476,0.218-6.715
		c0.002-1.284-0.275-2.566-0.357-3.854c-0.11-1.734-0.156-3.472-0.222-5.208c-0.037-0.966-0.105-1.935-0.077-2.899
		c0.071-2.401,0.272-4.8,0.266-7.2c-0.007-2.589-0.203-5.177-0.295-7.767c-0.135-3.844-0.217-7.69-0.406-11.531
		c-0.038-0.779-0.82-1.655-0.623-2.287c0.604-1.932-0.466-3.45-0.989-5.062c-0.669-2.065-1.036-3.989-0.201-6.127
		c0.785-2.01,0.971-4.278,1.891-6.208c2.047-4.291,4.369-8.452,6.619-12.645c0.799-1.49,1.873-2.296,3.82-2.283
		c15.013,0.099,30.026,0.059,45.039,0.04c0.667-0.001,1.333-0.226,2-0.347c0.12,0,0.24,0,0.361,0
		c0.484,0.121,0.968,0.339,1.454,0.346c2.769,0.033,5.539,0.033,8.308,0c0.486-0.006,0.97-0.225,1.454-0.346
		c10.854,0,21.708,0,32.562,0c1.566,4.649,3.111,9.306,4.715,13.942c0.368,1.063,1.004,2.013-0.278,2.954
		c-0.233,0.171-0.116,1.057,0.07,1.52c0.606,1.505,1.763,2.928,1.898,4.455c0.271,3.059,0.015,6.166-0.039,9.253
		c-0.046,2.698-0.107,5.395-0.174,8.092c-0.052,2.128-0.11,4.255-0.188,6.382c-0.027,0.768-0.215,1.541-0.158,2.299
		c0.179,2.396,0.587,4.784,0.628,7.18c0.047,2.825-0.559,5.701-0.21,8.471c0.334,2.654,1.009,5.217,0.553,7.944
		c-0.21,1.258,0.034,2.594,0.076,3.894c0.106,3.256,0.214,6.513,0.321,9.769c0.123,3.679,0.252,7.357,0.356,11.037
		c0.007,0.214-0.214,0.426-0.256,0.652c-0.253,1.345-0.711,2.7-0.679,4.042c0.093,3.88,0.442,7.754,0.572,11.635
		c0.054,1.613-0.336,3.243-0.269,4.854c0.094,2.246,0.782,4.517,0.561,6.711c-0.237,2.354-0.259,4.521,0.377,6.836
		c0.479,1.744,0.299,3.697,0.238,5.551c-0.045,1.399-0.31,2.801-0.578,4.182c-0.278,1.431-0.804,2.822-0.994,4.26
		c-0.247,1.874-0.347,3.777-0.369,5.669c-0.024,2.058-0.234,4.205,0.248,6.161c1.023,4.149,2.473,8.192,3.682,12.298
		c0.256,0.87,0.404,1.841,0.305,2.733c-0.368,3.283-0.913,6.544,0.964,9.614c0.22,0.358,0.119,1.059-0.07,1.497
		c-1.11,2.558-3.411,3.732-5.809,4.896c0.465,3.249,0.813,6.597,1.442,9.892c1.11,5.819,2.354,11.613,3.612,17.403
		c1.404,6.465,2.118,13.019,2.07,19.609c-0.071,9.958-0.36,19.917-0.709,29.87c-0.192,5.502-0.591,11.003-1.104,16.484
		c-0.242,2.598-0.122,5.376-2.028,7.581c-0.24,0.278-0.358,0.76-0.348,1.142c0.047,1.664,0.141,3.328,0.258,4.989
		c0.186,2.609-0.83,4.569-2.999,6.034c-1.058,0.714-1.621,1.713-1.261,3.137c0.914,3.608,1.735,7.239,2.589,10.862
		c0.594,2.522,1.484,5.023,1.681,7.577c0.188,2.447-0.434,4.936,0.109,7.43c0.315,1.451,0.502,2.962,0.491,4.444
		c-0.02,2.559,0.242,5.273-0.521,7.628c-0.654,2.018-0.736,3.831-0.477,5.791c0.467,3.516,1.125,7.018,1.369,10.549
		c0.104,1.499-0.62,3.059-0.998,4.584c-0.204,0.826-0.705,1.647-0.668,2.452c0.132,2.835,0.361,5.671,0.7,8.489
		c0.362,3.002,0.906,5.982,1.342,8.976c0.464,3.183,1.409,6.394-0.662,9.425c-0.301,0.439-0.365,1.142-0.311,1.7
		c0.167,1.679,0.762,3.373,0.623,5.013c-0.41,4.869,1.677,9.774-0.258,14.61c-0.166,0.416-0.052,0.958-0.017,1.438
		c0.102,1.363,0.253,2.723,0.341,4.086c0.15,2.326,0.074,4.687,0.452,6.974c0.362,2.189,0.534,4.208-0.784,6.146
		c-0.272,0.399-0.315,1.002-0.34,1.517c-0.111,2.403,0.049,4.845-0.321,7.205c-0.464,2.958-1.157,5.797,0.435,8.672
		c0.576,1.039,0.821,2.354,0.894,3.563c0.279,4.703-0.061,9.332-1.271,13.946c-0.516,1.965-0.069,4.201,0.048,6.309
		c0.093,1.673,0.698,3.391,0.452,4.993c-0.37,2.409-0.209,4.538,0.759,6.814c0.595,1.399,0.612,3.213,0.373,4.761
		c-0.4,2.596-1.507,5.046-0.756,7.818c0.346,1.276,0.409,2.948-0.143,4.077c-0.943,1.933-0.59,3.53,0.079,5.345
		c0.925,2.513,1.196,5.262-0.365,7.479c-1.097,1.558-0.502,2.711-0.179,4.04c0.669,2.752,1.56,5.458,2.083,8.235
		c0.278,1.472,0.318,3.171-0.162,4.549c-0.421,1.207-0.446,2.123,0.094,3.154c1.462,2.789,1.263,5.837,0.642,8.649
		c-0.434,1.968,0.134,3.532,0.564,5.195c0.543,2.101,1.074,4.108-0.095,6.152c-1.431,2.502-1.468,4.943-0.585,7.787
		c0.777,2.506,0.646,5.345,0.619,8.033c-0.025,2.543-0.351,5.095-0.714,7.618c-0.197,1.376-0.422,2.947-1.215,3.989
		c-1.042,1.372-1.222,2.522-0.588,4.013c0.248,0.583,0.274,1.262,0.392,1.898c0.728,3.956,1.476,7.908,2.167,11.869
		c0.36,2.062,1.053,4.191,0.822,6.201c-0.327,2.861-1.368,5.641-2.097,8.457c-0.072,0.281-0.168,0.595-0.115,0.867
		c1.297,6.785,2.184,13.614,2.334,20.529c0.027,1.267,0.049,2.533,0.11,3.798c0.12,2.435,0.331,4.868,0.384,7.304
		c0.066,3.025-0.133,6.062,0.049,9.077c0.186,3.085,0.76,6.146,1.039,9.228c0.24,2.648,0.42,5.313,0.415,7.971
		c-0.005,2.809-0.254,5.618-0.41,8.426c-0.029,0.528-0.187,1.053-0.182,1.578c0.029,3.438-0.042,6.887,0.178,10.315
		c0.181,2.826,0.705,5.632,1.097,8.444c0.562,4.041,1.273,8.066,1.667,12.124c0.255,2.627,0.556,5.422-0.066,7.918
		c-0.786,3.157-0.67,6.33,0.127,9.137c1.119,3.94,1.544,7.92,1.781,11.883c0.278,4.639-0.303,9.325-0.404,13.993
		c-0.035,1.636,0.245,3.278,0.373,4.813c-0.158,0.188-0.48,0.413-0.559,0.703c-0.122,0.452,0.117,1.176-0.134,1.392
		c-1.869,1.607-1.371,3.751-1.308,5.719c0.138,4.299,0.508,8.591,0.674,12.889c0.106,2.747,0.018,5.502,0.018,8.254
		c-0.001,4.473,0,8.945,0,13.526c2.102-0.927,3.132,1.059,4.635,1.931c-0.786-0.136-1.548-0.36-2.204-0.758
		c-1.521-0.922-1.953-0.753-2.291,0.944c-0.577,2.906-1.196,5.805-1.804,8.731c0.076,0.024,0.513,0.158,0.949,0.293
		c-0.03,0.127-0.06,0.253-0.089,0.381c-0.311-0.018-0.622-0.034-0.421-0.023c-0.94,3.31-1.7,6.555-2.819,9.671
		c-0.525,1.464-0.318,2.034,1.097,2.229c0,0.626-0.228,1.352,0.037,1.685C181.384,852.968,181.153,854.978,180.189,857.067z"/>
	<path fill-rule="evenodd" clip-rule="evenodd" fill="#FFFFFF" d="M120.492,20.586c-0.667,0.121-1.333,0.346-2,0.347
		c-15.013,0.02-30.026,0.06-45.039-0.04c-1.948-0.013-3.021,0.793-3.82,2.283c-2.25,4.193-4.572,8.354-6.619,12.645
		c-0.92,1.93-1.105,4.197-1.891,6.208c-0.835,2.138-0.469,4.062,0.201,6.127c0.523,1.612,1.592,3.13,0.989,5.062
		c-0.197,0.632,0.584,1.508,0.623,2.287c0.189,3.841,0.271,7.687,0.406,11.531c0.092,2.589,0.288,5.178,0.295,7.767
		c0.006,2.399-0.195,4.799-0.266,7.2c-0.029,0.964,0.04,1.933,0.077,2.899c0.066,1.736,0.112,3.474,0.222,5.208
		c0.082,1.287,0.359,2.569,0.357,3.854c-0.004,2.239-0.215,4.477-0.218,6.715c-0.001,0.892,0.471,1.785,0.467,2.676
		c-0.016,3.284-0.196,6.567-0.21,9.851c-0.019,4.493,0.064,8.986,0.09,13.48c0.036,6.153,0.07,12.305,0.085,18.458
		c0.016,6.291,0.017,12.582,0.008,18.873c-0.009,6.232-0.119,12.464-0.033,18.694c0.069,4.978,0.292,9.957,0.597,14.926
		c0.116,1.886,0.543,3.734-0.63,5.439c1.342,3.578,0.344,7.285,0.575,10.925c0.183,2.863,0.103,5.745,0.096,8.619
		c-0.009,3.601-0.086,7.203-0.092,10.804c-0.008,4.298-0.036,8.598,0.071,12.894c0.055,2.226,0.452,4.442,0.558,6.669
		c0.062,1.293-0.198,2.597-0.225,3.898c-0.047,2.224-0.051,4.448-0.027,6.672c0.03,2.833,0.117,5.667,0.16,8.5
		c0.059,3.878,0.339,7.773,0.076,11.631c-0.237,3.479-0.168,6.924-0.109,10.396c0.067,3.949-0.366,7.904-0.4,11.858
		c-0.015,1.763,0.451,3.525,0.625,5.295c0.088,0.899,0.007,1.815,0.013,2.724c0.024,3.569,0.056,7.138,0.074,10.707
		c0.003,0.675-0.049,1.35-0.076,2.025c-0.119,3.098-0.269,6.196-0.335,9.295c-0.019,0.892,0.31,1.79,0.299,2.683
		c-0.022,1.852-0.246,3.702-0.238,5.552c0.008,2.044,0.224,4.087,0.272,6.132c0.051,2.158,0.012,4.318-0.31,6.542
		c-0.263-0.436-0.525-0.871-0.789-1.307c-0.08,0.035-0.16,0.07-0.24,0.105c0.181,1.129,0.363,2.258,0.628,3.912
		c0.287-0.778,0.396-1.072,0.552-1.495c0,3.786,0,7.365,0,11.232c1.192,0.535,0.385,1.844,0.111,3.031
		c-0.192,0.833-0.438,1.655-0.683,2.475c-0.108,0.36-0.351,0.692-0.402,1.055c-0.084,0.595-0.271,1.302-0.043,1.79
		c0.552,1.187,0.773,2.208-0.075,3.383c-0.307,0.425-0.196,1.18-0.204,1.785c-0.022,1.765-0.008,3.53-0.008,5.637
		c0.59-0.784,0.975-1.295,1.36-1.807c0.092,0.047,0.183,0.095,0.274,0.142c-0.56,1.846-1.12,3.692-1.68,5.539
		c0.195,0.031,0.39,0.062,0.585,0.092c0-0.441,0-0.883,0-1.324c0.179-0.019,0.357-0.038,0.536-0.057
		c0.297,1.452,0.595,2.905,0.892,4.357c-0.104,0.037-0.209,0.074-0.313,0.11c-0.272-0.396-0.545-0.792-0.895-1.3
		c-0.646,2.431-0.512,4.646,0.365,6.91c0.265,0.685-0.285,1.661-0.372,2.512c-0.149,1.468-0.228,2.943-0.338,4.454
		c0.295-0.127,0.574-0.248,0.84-0.362c0,1.416,0,2.734,0,4.053c-0.144,0.027-0.287,0.054-0.431,0.081
		c-0.227-0.802-0.453-1.604-0.696-2.463c-0.875,3.01,2.665,5.504,0.779,8.532c-0.152-0.212-0.347-0.483-0.541-0.754
		c-0.148,0.022-0.296,0.043-0.444,0.065c-0.111,1.139-0.221,2.277-0.332,3.417c0.099,0.012,0.197,0.025,0.296,0.037
		c0.106-0.588,0.212-1.177,0.318-1.765c0.091,0.014,0.182,0.028,0.272,0.042c0,3.49,0,6.98,0,10.965
		c-0.433-0.75-0.586-1.016-0.74-1.282c-0.104,0.044-0.207,0.088-0.31,0.132c0.259,0.675,0.75,1.354,0.737,2.023
		c-0.045,2.341-0.337,4.677-0.391,7.018c-0.038,1.648,0.224,3.302,0.228,4.954c0.002,0.969-0.349,1.939-0.344,2.909
		c0.006,1.316,0.2,2.632,0.313,3.948c0.019,0.222,0.115,0.472,0.045,0.66c-1.013,2.751-0.847,5.531-0.438,8.375
		c0.206,1.43-0.102,2.926-0.092,4.392c0.012,1.95,0.053,3.902,0.185,5.847c0.089,1.318-0.415,2.646,0.913,3.921
		c0.61,0.586,0.016,2.415-0.011,3.681c-0.02,0.912-0.004,1.825-0.004,3.14c0.032-0.028-0.324,0.289-0.774,0.692
		c-0.091-0.312-0.163-0.562-0.298-1.026c-0.219,0.337-0.535,0.603-0.498,0.804c0.15,0.809,0.491,1.586,0.609,2.396
		c0.217,1.487-0.169,2.976,0.876,4.441c0.869,1.219,0.494,2.022-0.406,3.41c-0.031,0.047-0.058,0.148-0.035,0.17
		c1.528,1.444-0.88,2.431-0.425,3.842c0.458,1.418,0.765,2.938,0.802,4.422c0.036,1.47-0.354,2.949-0.545,4.427
		c-0.085,0.653-0.288,1.333-0.188,1.961c0.729,4.636,0.41,9.264-0.004,13.895c-0.01,0.119-0.047,0.263,0.001,0.356
		c0.882,1.719,0.093,3.428,0.003,5.142c-0.02,0.383,0.113,0.815,0.3,1.157c0.362,0.662,0.994,1.213-0.327,1.65
		c-0.294,0.098-0.438,1.328-0.29,1.95c0.341,1.428,0.889,2.801,0.11,4.245c-0.078,0.144-0.18,0.4-0.116,0.476
		c1.685,2.005,0.329,3.97,0.001,5.971c-0.125,0.768,0.223,1.601,0.263,2.408c0.053,1.079,0.021,2.163,0.018,3.245
		c-0.006,2.693,0.021,5.389-0.036,8.081c-0.054,2.579-0.197,5.155-0.3,7.733c-0.01,0.24-0.061,0.494-0.006,0.721
		c1.079,4.511,0.306,9.067,0.384,13.604c0.05,2.906,0.428,5.808,0.656,8.712c0.019,0.239,0.098,0.511,0.019,0.718
		c-1.173,3.061,1.219,5.599,0.906,8.527c0.191-0.015,0.382-0.028,0.574-0.043c0-1.095,0-2.19,0-3.285
		c0.159-0.001,0.318-0.002,0.478-0.003c0,2.786,0,5.572,0,8.62c-0.375-0.165-0.788-0.348-1.379-0.609
		c-0.34,2.16-0.726,4.605-1.111,7.053c0.153,0.086,0.307,0.174,0.46,0.26c0.086-0.233,0.173-0.468,0.26-0.702
		c0.102,0.034,0.204,0.069,0.305,0.104c-0.177,1.166-0.347,2.333-0.539,3.495c-0.037,0.223-0.297,0.498-0.228,0.636
		c1.462,2.909-0.026,5.847,0.125,8.762c0.025,0.487,0.457,0.967,0.437,1.439c-0.043,1.044-0.36,2.078-0.376,3.12
		c-0.035,2.184,0.08,4.368,0.075,6.553c-0.002,0.854-0.226,1.705-0.238,2.56c-0.053,3.908-0.031,7.818-0.102,11.727
		c-0.096,5.39,0.755,10.662,1.779,15.926c0.145,0.745-0.117,1.574-0.215,2.361c-0.271,2.166-0.689,4.323-0.808,6.497
		c-0.317,5.783-0.576,11.572-0.718,17.362c-0.065,2.655,0.277,5.318,0.289,7.978c0.009,2.09-0.287,4.18-0.305,6.271
		c-0.047,5.595,0.075,11.192-0.047,16.786c-0.109,5.015-0.619,10.023-0.64,15.037c-0.017,4.051,0.493,8.101,0.649,12.155
		c0.11,2.848-0.34,5.759,0.096,8.541c0.84,5.363,0.926,10.638,0.018,15.994c-0.299,1.762,0.269,3.653,0.249,5.483
		c-0.062,5.438-0.281,10.872-0.316,16.309c-0.019,2.916,0.358,5.836,0.293,8.748c-0.073,3.307-0.617,6.606-0.639,9.91
		c-0.034,5.16,0.148,10.323,0.358,15.48c0.051,1.267,0.597,2.509,0.858,3.773c0.226,1.094,0.485,2.201,0.527,3.31
		c0.083,2.176,0.037,4.357,0.022,6.536c-0.032,4.533,0.662,9.08,3.777,12.375c1.62,1.713,2.872,3.768,4.7,5.294
		c0.418,0.35,0.627,0.95,0.933,1.436c-12.781,0-25.562,0-38.343,0c0.001-278.827,0.001-557.654,0.001-836.481
		C64.544,20.586,92.518,20.586,120.492,20.586z"/>
	<path fill-rule="evenodd" clip-rule="evenodd" fill="#FFFFFF" d="M180.189,857.067c0.964-2.089,1.195-4.1-0.377-6.07
		c-0.265-0.333-0.037-1.059-0.037-1.685c-1.415-0.195-1.622-0.766-1.097-2.229c1.119-3.116,1.879-6.361,2.819-9.671
		c-0.201-0.011,0.11,0.006,0.421,0.023c0.029-0.128,0.059-0.254,0.089-0.381c-0.437-0.135-0.873-0.269-0.949-0.293
		c0.607-2.927,1.227-5.825,1.804-8.731c0.338-1.697,0.77-1.866,2.291-0.944c0.656,0.397,1.418,0.622,2.204,0.758
		c-1.503-0.872-2.533-2.857-4.635-1.931c0-4.581-0.001-9.054,0-13.526c0-2.752,0.089-5.507-0.018-8.254
		c-0.166-4.298-0.536-8.59-0.674-12.889c-0.063-1.968-0.562-4.111,1.308-5.719c0.251-0.216,0.012-0.939,0.134-1.392
		c0.078-0.29,0.4-0.515,0.559-0.703c-0.128-1.535-0.408-3.178-0.373-4.813c0.102-4.668,0.683-9.354,0.404-13.993
		c-0.237-3.963-0.662-7.942-1.781-11.883c-0.797-2.807-0.913-5.979-0.127-9.137c0.622-2.496,0.321-5.291,0.066-7.918
		c-0.394-4.058-1.104-8.083-1.667-12.124c-0.392-2.812-0.916-5.618-1.097-8.444c-0.22-3.429-0.148-6.877-0.178-10.315
		c-0.005-0.525,0.152-1.05,0.182-1.578c0.156-2.808,0.405-5.617,0.41-8.426c0.005-2.657-0.175-5.322-0.415-7.971
		c-0.279-3.082-0.854-6.143-1.039-9.228c-0.182-3.016,0.018-6.052-0.049-9.077c-0.053-2.436-0.264-4.869-0.384-7.304
		c-0.062-1.265-0.083-2.531-0.11-3.798c-0.15-6.915-1.037-13.744-2.334-20.529c-0.053-0.272,0.043-0.586,0.115-0.867
		c0.729-2.816,1.77-5.596,2.097-8.457c0.23-2.01-0.462-4.139-0.822-6.201c-0.691-3.961-1.439-7.913-2.167-11.869
		c-0.117-0.637-0.144-1.315-0.392-1.898c-0.634-1.49-0.454-2.641,0.588-4.013c0.793-1.042,1.018-2.613,1.215-3.989
		c0.363-2.523,0.688-5.075,0.714-7.618c0.027-2.688,0.158-5.527-0.619-8.033c-0.883-2.844-0.846-5.285,0.585-7.787
		c1.169-2.044,0.638-4.052,0.095-6.152c-0.431-1.663-0.998-3.228-0.564-5.195c0.621-2.812,0.82-5.86-0.642-8.649
		c-0.54-1.031-0.515-1.947-0.094-3.154c0.48-1.378,0.44-3.077,0.162-4.549c-0.523-2.777-1.414-5.483-2.083-8.235
		c-0.323-1.329-0.918-2.482,0.179-4.04c1.562-2.217,1.29-4.966,0.365-7.479c-0.669-1.814-1.022-3.412-0.079-5.345
		c0.552-1.129,0.488-2.801,0.143-4.077c-0.751-2.772,0.355-5.223,0.756-7.818c0.239-1.548,0.222-3.361-0.373-4.761
		c-0.968-2.276-1.129-4.405-0.759-6.814c0.246-1.603-0.359-3.32-0.452-4.993c-0.117-2.107-0.563-4.344-0.048-6.309
		c1.211-4.614,1.551-9.243,1.271-13.946c-0.072-1.209-0.317-2.524-0.894-3.563c-1.592-2.875-0.898-5.714-0.435-8.672
		c0.37-2.36,0.21-4.802,0.321-7.205c0.024-0.515,0.067-1.117,0.34-1.517c1.318-1.938,1.146-3.957,0.784-6.146
		c-0.378-2.287-0.302-4.648-0.452-6.974c-0.088-1.364-0.239-2.723-0.341-4.086c-0.035-0.48-0.149-1.022,0.017-1.438
		c1.935-4.836-0.152-9.742,0.258-14.61c0.139-1.64-0.456-3.334-0.623-5.013c-0.055-0.558,0.01-1.261,0.311-1.7
		c2.071-3.031,1.126-6.242,0.662-9.425c-0.436-2.994-0.979-5.974-1.342-8.976c-0.339-2.818-0.568-5.654-0.7-8.489
		c-0.037-0.805,0.464-1.625,0.668-2.452c0.378-1.525,1.102-3.086,0.998-4.584c-0.244-3.531-0.902-7.033-1.369-10.549
		c-0.26-1.959-0.178-3.772,0.477-5.791c0.763-2.355,0.501-5.069,0.521-7.628c0.011-1.482-0.176-2.993-0.491-4.444
		c-0.543-2.494,0.079-4.983-0.109-7.43c-0.196-2.554-1.087-5.054-1.681-7.577c-0.854-3.623-1.675-7.254-2.589-10.862
		c-0.36-1.424,0.203-2.423,1.261-3.137c2.169-1.465,3.185-3.425,2.999-6.034c-0.117-1.661-0.211-3.325-0.258-4.989
		c-0.011-0.382,0.107-0.864,0.348-1.142c1.906-2.205,1.786-4.983,2.028-7.581c0.513-5.481,0.911-10.982,1.104-16.484
		c0.349-9.953,0.638-19.912,0.709-29.87c0.048-6.591-0.666-13.145-2.07-19.609c-1.258-5.79-2.502-11.584-3.612-17.403
		c-0.629-3.295-0.978-6.643-1.442-9.892c2.397-1.164,4.698-2.338,5.809-4.896c0.189-0.438,0.29-1.139,0.07-1.497
		c-1.877-3.07-1.332-6.332-0.964-9.614c0.1-0.892-0.049-1.863-0.305-2.733c-1.209-4.106-2.658-8.149-3.682-12.298
		c-0.482-1.957-0.272-4.103-0.248-6.161c0.022-1.893,0.122-3.795,0.369-5.669c0.19-1.438,0.716-2.829,0.994-4.26
		c0.269-1.381,0.533-2.782,0.578-4.182c0.061-1.854,0.24-3.808-0.238-5.551c-0.636-2.315-0.614-4.483-0.377-6.836
		c0.222-2.194-0.467-4.465-0.561-6.711c-0.067-1.611,0.322-3.241,0.269-4.854c-0.13-3.88-0.479-7.754-0.572-11.635
		c-0.032-1.342,0.426-2.697,0.679-4.042c0.042-0.226,0.263-0.438,0.256-0.652c-0.104-3.679-0.233-7.358-0.356-11.037
		c-0.107-3.256-0.215-6.512-0.321-9.769c-0.042-1.3-0.286-2.636-0.076-3.894c0.456-2.727-0.219-5.29-0.553-7.944
		c-0.349-2.77,0.257-5.646,0.21-8.471c-0.041-2.396-0.449-4.783-0.628-7.18c-0.057-0.758,0.131-1.531,0.158-2.299
		c0.077-2.126,0.136-4.254,0.188-6.382c0.066-2.697,0.128-5.395,0.174-8.092c0.054-3.087,0.311-6.194,0.039-9.253
		c-0.136-1.526-1.292-2.949-1.898-4.455c-0.187-0.463-0.304-1.348-0.07-1.52c1.282-0.941,0.646-1.891,0.278-2.954
		c-1.604-4.637-3.148-9.293-4.715-13.942c9.768,0,19.533,0,29.302,0c0.002,278.827,0.002,557.654,0.002,836.481
		C189.353,857.067,184.771,857.067,180.189,857.067z"/>
	<path fill-rule="evenodd" clip-rule="evenodd" fill="#FFFFFF" d="M132.07,20.586c-0.484,0.121-0.968,0.339-1.454,0.346
		c-2.769,0.033-5.539,0.033-8.308,0c-0.486-0.006-0.97-0.225-1.454-0.346C124.592,20.586,128.331,20.586,132.07,20.586z"/>
</g>
</svg>
