<?xml version="1.0" encoding="utf-8"?>
<!-- Generator: Adobe Illustrator 16.0.0, SVG Export Plug-In . SVG Version: 6.00 Build 0)  -->
<!DOCTYPE svg PUBLIC "-//W3C//DTD SVG 1.1//EN" "http://www.w3.org/Graphics/SVG/1.1/DTD/svg11.dtd">
<svg version="1.1" id="Layer_1" xmlns="http://www.w3.org/2000/svg" xmlns:xlink="http://www.w3.org/1999/xlink" x="0px" y="0px"
	 width="841.89px" height="1190.55px" viewBox="0 0 841.89 1190.55" enable-background="new 0 0 841.89 1190.55"
	 xml:space="preserve">
<g>
	<path d="M306.362,582.384c0-0.965,0-1.93,0-2.895c0.622-1.878,1.217-3.766,1.872-5.632c1.044-2.979,2.267-5.902,3.168-8.923
		c2.201-7.37,4.7-14.629,9.749-20.578c3.373-3.975,7.207-7.558,10.833-11.319c1.103-1.143,2.198-2.293,3.295-3.441
		c2.09-2.188,4.073-4.493,6.3-6.532c2.237-2.049,4.961-3.604,7.018-5.8c1.851-1.977,3.858-3.653,6.076-5.114
		c2.491-1.64,5.038-3.199,7.604-4.72c2.226-1.319,4.498-2.565,6.779-3.789c2.459-1.319,4.952-2.578,7.433-3.857
		c1.094-0.565,2.189-1.128,3.294-1.673c2.061-1.016,4.155-1.969,6.186-3.042c1.333-0.704,2.493-1.804,3.881-2.324
		c4.067-1.523,8.266-2.492,12.651-2.66c2.11-0.08,4.201-0.623,6.308-0.899c3.308-0.435,6.617-1.082,9.936-1.147
		c2.631-0.052,5.276,0.643,7.917,0.991c7.896,1.042,15.148,4.18,22.471,7.033c4.688,1.827,9.308,3.863,13.834,6.06
		c3.788,1.838,7.52,3.858,11.049,6.147c3.018,1.956,5.837,4.271,8.523,6.673c4.282,3.831,8.401,7.846,12.552,11.824
		c2.679,2.566,5.343,5.153,7.909,7.832c1.479,1.542,2.784,3.258,4.096,4.951c0.499,0.644,0.856,1.418,1.175,2.176
		c1.91,4.541,5.331,8.35,5.215,13.878c-0.076,3.624,1.57,7.267,2.329,10.926c1.035,4.989,2.151,9.973,2.886,15.01
		c1.045,7.159,1.525,14.369,0.965,21.623c-0.396,5.125-0.609,10.265-0.933,15.396c-0.378,5.985-0.8,11.976-2.354,17.797
		c-0.599,2.24-1.351,4.479-2.363,6.558c-1.129,2.318-2.608,4.468-3.98,6.662c-1.23,1.966-2.367,4.02-3.825,5.805
		c-1.856,2.273-4.032,4.282-6.005,6.465c-2.983,3.3-5.813,6.745-8.885,9.96c-5.174,5.418-10.986,10.105-17.193,14.293
		c-5.224,3.524-10.79,6.459-16.557,8.951c-5.29,2.285-10.711,4.271-16.111,6.292c-3.991,1.494-7.947,3.334-12.09,4.115
		c-5.518,1.041-11.194,1.312-16.817,1.697c-2.489,0.17-5.021-0.108-7.52-0.339c-2.054-0.189-4.112-0.495-6.124-0.947
		c-5.27-1.185-10.503-2.527-15.772-3.715c-7.902-1.78-15.887-3.248-23.198-7.012c-1.425-0.733-3.097-1.653-4.561-1.513
		c-3.512,0.339-6.061-1.006-8.135-3.542c-2.224-2.721-4.401-5.489-6.439-8.35c-3.175-4.455-6.223-8.995-8.151-14.185
		c-0.484-1.305-1.17-2.566-1.958-3.715c-0.6-0.875-1.59-1.473-2.257-2.312c-1.063-1.339-2.029-2.759-2.989-4.177
		c-1.322-1.951-2.795-3.833-3.852-5.922c-1.724-3.408-3.229-6.934-4.703-10.461c-1.148-2.747-2.213-5.54-3.115-8.376
		c-0.532-1.674-0.264-3.701-1.082-5.163c-1.626-2.905-1.363-5.796-0.964-8.826c0.139-1.055,0.291-2.304-0.126-3.202
		c-1.939-4.178-2.558-8.642-3.245-13.052c-0.635,0.9-1.316,1.866-1.997,2.831c0-0.241,0-0.482,0-0.724
		c0.888-1.695,2-3.306,1.794-5.38c-0.493-4.957-0.95-9.917-1.44-14.875C306.655,583.588,306.482,582.989,306.362,582.384z"/>
	<path fill-rule="evenodd" clip-rule="evenodd" fill="#FFFFFF" d="M306.362,605.177c0.681-0.965,1.362-1.931,1.997-2.831
		c0.688,4.41,1.306,8.874,3.245,13.052c0.417,0.898,0.265,2.147,0.126,3.202c-0.399,3.03-0.663,5.921,0.964,8.826
		c0.818,1.462,0.549,3.489,1.082,5.163c0.902,2.836,1.966,5.629,3.115,8.376c1.474,3.527,2.979,7.053,4.703,10.461
		c1.057,2.089,2.53,3.971,3.852,5.922c0.96,1.418,1.925,2.838,2.989,4.177c0.667,0.84,1.658,1.438,2.257,2.312
		c0.788,1.148,1.474,2.41,1.958,3.715c1.928,5.189,4.976,9.729,8.151,14.185c2.039,2.86,4.215,5.629,6.439,8.35
		c2.074,2.536,4.623,3.881,8.135,3.542c1.464-0.141,3.136,0.779,4.561,1.513c7.311,3.764,15.295,5.231,23.198,7.012
		c5.269,1.188,10.502,2.53,15.772,3.715c2.012,0.452,4.07,0.758,6.124,0.947c2.499,0.23,5.031,0.509,7.52,0.339
		c5.623-0.385,11.3-0.656,16.817-1.697c4.143-0.781,8.099-2.621,12.09-4.115c5.4-2.021,10.821-4.007,16.111-6.292
		c5.767-2.492,11.333-5.427,16.557-8.951c6.207-4.188,12.02-8.875,17.193-14.293c3.071-3.215,5.901-6.66,8.885-9.96
		c1.973-2.183,4.148-4.191,6.005-6.465c1.458-1.785,2.595-3.839,3.825-5.805c1.372-2.194,2.852-4.344,3.98-6.662
		c1.013-2.079,1.765-4.317,2.363-6.558c1.555-5.821,1.977-11.812,2.354-17.797c0.323-5.131,0.537-10.271,0.933-15.396
		c0.561-7.254,0.08-14.463-0.965-21.623c-0.734-5.037-1.851-10.021-2.886-15.01c-0.759-3.659-2.405-7.303-2.329-10.926
		c0.116-5.529-3.305-9.337-5.215-13.878c-0.318-0.758-0.676-1.532-1.175-2.176c-1.312-1.693-2.617-3.408-4.096-4.951
		c-2.566-2.678-5.23-5.265-7.909-7.832c-4.15-3.978-8.27-7.993-12.552-11.824c-2.687-2.403-5.506-4.717-8.523-6.673
		c-3.529-2.289-7.261-4.309-11.049-6.147c-4.526-2.197-9.146-4.233-13.834-6.06c-7.322-2.853-14.574-5.991-22.471-7.033
		c-2.641-0.349-5.286-1.043-7.917-0.991c-3.318,0.065-6.628,0.712-9.936,1.147c-2.107,0.277-4.197,0.819-6.308,0.899
		c-4.386,0.168-8.584,1.137-12.651,2.66c-1.388,0.52-2.548,1.62-3.881,2.324c-2.031,1.073-4.125,2.026-6.186,3.042
		c-1.104,0.544-2.2,1.108-3.294,1.673c-2.481,1.28-4.973,2.538-7.433,3.857c-2.281,1.224-4.553,2.47-6.779,3.789
		c-2.566,1.521-5.114,3.08-7.604,4.72c-2.217,1.461-4.225,3.137-6.076,5.114c-2.056,2.197-4.78,3.751-7.018,5.8
		c-2.227,2.039-4.209,4.344-6.3,6.532c-1.097,1.148-2.193,2.298-3.295,3.441c-3.625,3.761-7.459,7.344-10.833,11.319
		c-5.049,5.949-7.548,13.208-9.749,20.578c-0.901,3.021-2.124,5.944-3.168,8.923c-0.654,1.866-1.25,3.754-1.872,5.632
		c0-33.52,0-67.039,0-100.568c76.919,0,153.837,0,230.791,0c0,78.22,0,156.45,0,234.737c-76.908,0-153.85,0-230.791,0
		C306.362,677.521,306.362,641.349,306.362,605.177z"/>
	<path fill-rule="evenodd" clip-rule="evenodd" fill="#FFFFFF" d="M306.362,582.384c0.121,0.604,0.293,1.204,0.354,1.814
		c0.49,4.958,0.948,9.918,1.44,14.875c0.206,2.074-0.906,3.685-1.794,5.38C306.362,597.097,306.362,589.74,306.362,582.384z"/>
</g>
</svg>
