<?xml version="1.0" encoding="utf-8"?>
<!-- Generator: Adobe Illustrator 16.0.0, SVG Export Plug-In . SVG Version: 6.00 Build 0)  -->
<!DOCTYPE svg PUBLIC "-//W3C//DTD SVG 1.1//EN" "http://www.w3.org/Graphics/SVG/1.1/DTD/svg11.dtd">
<svg version="1.1" id="Layer_1" xmlns="http://www.w3.org/2000/svg" xmlns:xlink="http://www.w3.org/1999/xlink" x="0px" y="0px"
	 width="277.445px" height="278px" viewBox="0 0 277.445 278" enable-background="new 0 0 277.445 278" xml:space="preserve">
<g>
	<path d="M144.177,30.361c2.774,0,5.548,0,8.322,0c1.146,0.221,2.286,0.5,3.442,0.652c4.953,0.655,9.715,2.031,14.043,4.488
		c4.19,2.379,8.361,4.887,12.164,7.826c3.244,2.507,6.653,4.461,10.453,5.886c2.184,0.819,4.37,1.707,6.4,2.842
		c2.475,1.384,4.861,2.959,7.15,4.637c2.878,2.11,5.728,4.288,8.381,6.669c1.795,1.612,3.207,3.646,4.831,5.455
		c3.774,4.204,6.881,8.868,9.738,13.729c3.756,6.388,7.485,12.802,11.523,19.011c2.586,3.978,4.339,8.266,5.496,12.751
		c0.999,3.868,1.284,7.92,1.904,11.889c0.055,0.348,0.254,0.673,0.386,1.008c0.086-0.022,0.173-0.043,0.259-0.065
		c0.051-0.958,0.102-1.914,0.178-3.369c1.013,1.667,1.574,3.227,0.453,4.031c-0.903,0.647-0.881,1.173-0.928,1.95
		c-0.268,4.414,0.518,8.873-0.694,13.256c-0.437,1.578-0.509,3.256-0.753,4.888c-0.209,1.402-0.477,2.799-0.63,4.207
		c-0.304,2.796-0.498,5.604-0.851,8.395c-0.09,0.71-0.59,1.374-0.927,2.047c-0.518,1.034-1.163,2.018-1.569,3.094
		c-1.4,3.709-2.721,7.449-4.074,11.185c0.883,0.088,1.671,0.092,0.783,1.443c-0.891,1.354-1.477,2.922-2.105,4.435
		c-0.845,2.035-1.339,4.264-2.457,6.126c-1.772,2.95-4.063,5.585-5.904,8.499c-2.844,4.504-5.47,9.145-8.237,13.697
		c-1.096,1.803-2.374,3.493-3.476,5.292c-1.196,1.955-3.271,3.38-3.553,5.901c-0.033,0.291-0.479,0.517-0.669,0.813
		c-1.771,2.757-4.996,3.749-7.225,6.021c-2.642,2.69-5.702,4.984-8.678,7.326c-2.084,1.64-4.493,2.605-7.124,3.211
		c-3.403,0.782-6.748,1.854-10.073,2.94c-2.454,0.802-4.782,2.019-7.264,2.694c-2.282,0.62-4.559,1.125-7.092,0.975
		c-2.654-0.156-5.395,0.932-8.076,1.569c-1.409,0.334-2.901,0.65-4.113,1.379c-0.968,0.581-1.724,0.664-2.743,0.439
		c-1.423-0.312-2.553-1.394-4.341-0.854c-2.016,0.607-4.228,0.318-6.391,0.811c-1.496,0.342-4.026-0.223-4.656-2.671
		c-0.302-1.172-0.479-2.376-0.716-3.583c1.359,1.034,1.559,1.005,2.743-0.768c-2.034,0.185-3.743,0.34-5.571,0.506
		c0.296,0.565,0.674,1.039,0.584,1.156c-0.673,0.881-1.405,1.726-2.182,2.52c-1.871,1.913-4.936,0.619-6.848,2.492
		c-0.086,0.085-0.416-0.092-0.634-0.131c-1.147-0.206-2.329-0.293-3.436-0.629c-4.816-1.459-9.714-2.726-14.382-4.568
		c-4.917-1.941-9.659-4.357-14.383-6.751c-5.814-2.947-11.258-6.479-16.065-10.937c-1.833-1.7-3.694-3.385-5.666-4.917
		c-2.831-2.198-5.144-4.827-7.369-7.623c-1.898-2.386-3.492-5.294-6.705-5.877c-0.072-1.344,0.251-2.751-0.281-3.656
		c-1.086-1.847-2.499-3.557-4.016-5.085c-4.414-4.445-7.221-9.828-9.293-15.621c-2.7-7.548-3.442-15.483-4.333-23.381
		c-0.168-1.494-0.379-2.982-0.571-4.474c0-4.823,0-9.647,0-14.472c0.121-0.365,0.323-0.724,0.349-1.096
		c0.379-5.348,0.446-10.738,1.181-16.037c0.684-4.936,1.944-9.807,3.179-14.648c1.714-6.72,3.531-13.419,5.524-20.062
		c1.076-3.587,2.671-7.015,3.911-10.557c0.716-2.044,1.444-4.141,1.708-6.271c0.301-2.424,1.719-3.51,4.153-3.018
		c1.174,0.238,2.57,0.421,3.56-1.055c1.577-2.355,3.221-4.723,5.183-6.75c2.95-3.047,6.129-5.885,9.347-8.655
		c1.909-1.644,3.967-3.186,6.159-4.414c2.751-1.541,5.667-2.814,8.586-4.021c4.245-1.754,8.492-3.545,12.857-4.951
		c4.466-1.438,9.084-2.4,13.619-3.63c2.587-0.702,5.11-1.665,7.719-2.253c2.99-0.676,6.039-1.106,9.072-1.572
		c3.23-0.497,6.474-0.907,9.71-1.365C142.849,30.625,143.511,30.482,144.177,30.361z"/>
	<path fill-rule="evenodd" clip-rule="evenodd" fill="#FFFFFF" d="M36.362,155.544c0.191,1.491,0.403,2.979,0.571,4.474
		c0.89,7.897,1.633,15.833,4.333,23.381c2.072,5.793,4.88,11.176,9.293,15.621c1.517,1.528,2.93,3.238,4.016,5.085
		c0.532,0.905,0.209,2.312,0.281,3.656c3.212,0.583,4.807,3.491,6.705,5.877c2.225,2.796,4.538,5.425,7.369,7.623
		c1.972,1.532,3.833,3.217,5.666,4.917c4.807,4.458,10.25,7.989,16.065,10.937c4.724,2.394,9.466,4.81,14.383,6.751
		c4.668,1.843,9.566,3.109,14.382,4.568c1.107,0.336,2.289,0.423,3.436,0.629c0.219,0.039,0.548,0.216,0.634,0.131
		c1.912-1.873,4.977-0.579,6.848-2.492c0.776-0.794,1.508-1.639,2.182-2.52c0.089-0.117-0.288-0.591-0.584-1.156
		c1.828-0.166,3.537-0.321,5.571-0.506c-1.184,1.772-1.384,1.802-2.743,0.768c0.237,1.207,0.414,2.411,0.716,3.583
		c0.63,2.448,3.161,3.013,4.656,2.671c2.163-0.492,4.375-0.203,6.391-0.811c1.788-0.539,2.918,0.542,4.341,0.854
		c1.02,0.225,1.775,0.142,2.743-0.439c1.212-0.729,2.704-1.045,4.113-1.379c2.682-0.638,5.422-1.726,8.076-1.569
		c2.533,0.15,4.81-0.354,7.092-0.975c2.481-0.676,4.81-1.893,7.264-2.694c3.325-1.086,6.67-2.158,10.073-2.94
		c2.631-0.605,5.04-1.571,7.124-3.211c2.976-2.342,6.036-4.636,8.678-7.326c2.229-2.271,5.454-3.264,7.225-6.021
		c0.19-0.297,0.636-0.522,0.669-0.813c0.282-2.521,2.356-3.946,3.553-5.901c1.102-1.799,2.38-3.489,3.476-5.292
		c2.768-4.553,5.394-9.193,8.237-13.697c1.841-2.914,4.132-5.549,5.904-8.499c1.118-1.862,1.612-4.091,2.457-6.126
		c0.629-1.513,1.215-3.08,2.105-4.435c0.888-1.352,0.1-1.355-0.783-1.443c1.354-3.735,2.674-7.476,4.074-11.185
		c0.406-1.076,1.052-2.06,1.569-3.094c0.337-0.673,0.837-1.337,0.927-2.047c0.353-2.79,0.547-5.599,0.851-8.395
		c0.153-1.408,0.421-2.805,0.63-4.207c0.244-1.632,0.316-3.31,0.753-4.888c1.212-4.383,0.427-8.842,0.694-13.256
		c0.047-0.777,0.024-1.303,0.928-1.95c1.121-0.804,0.56-2.364-0.453-4.031c-0.076,1.455-0.127,2.411-0.178,3.369
		c-0.086,0.021-0.173,0.043-0.259,0.065c-0.132-0.335-0.331-0.661-0.386-1.008c-0.62-3.968-0.905-8.021-1.904-11.889
		c-1.157-4.486-2.91-8.774-5.496-12.751c-4.038-6.209-7.768-12.623-11.523-19.011c-2.857-4.861-5.964-9.525-9.738-13.729
		c-1.624-1.809-3.036-3.843-4.831-5.455c-2.653-2.381-5.503-4.559-8.381-6.669c-2.289-1.678-4.676-3.253-7.15-4.637
		c-2.03-1.135-4.217-2.022-6.4-2.842c-3.8-1.425-7.209-3.379-10.453-5.886c-3.803-2.939-7.974-5.447-12.164-7.826
		c-4.328-2.457-9.09-3.833-14.043-4.488c-1.156-0.153-2.296-0.432-3.442-0.652c37.145,0,74.289,0,111.434,0
		c0,73.325,0,146.649,0,219.975c-75.856,0-151.714,0-227.572,0C36.362,218.738,36.362,187.142,36.362,155.544z"/>
	<path fill-rule="evenodd" clip-rule="evenodd" fill="#FFFFFF" d="M144.177,30.361c-0.666,0.121-1.328,0.263-1.998,0.358
		c-3.236,0.458-6.479,0.869-9.71,1.365c-3.034,0.466-6.082,0.896-9.072,1.572c-2.609,0.589-5.132,1.551-7.719,2.253
		c-4.535,1.23-9.153,2.191-13.619,3.63c-4.365,1.406-8.613,3.197-12.857,4.951c-2.92,1.207-5.835,2.48-8.586,4.021
		c-2.192,1.228-4.25,2.77-6.159,4.414c-3.217,2.77-6.397,5.607-9.347,8.655c-1.962,2.027-3.605,4.395-5.183,6.75
		c-0.989,1.476-2.385,1.292-3.56,1.055c-2.434-0.493-3.852,0.593-4.153,3.018c-0.265,2.13-0.993,4.227-1.708,6.271
		c-1.24,3.542-2.835,6.97-3.911,10.557c-1.993,6.642-3.81,13.341-5.524,20.062c-1.235,4.841-2.496,9.712-3.179,14.648
		c-0.734,5.299-0.801,10.689-1.181,16.037c-0.026,0.372-0.229,0.73-0.349,1.096c0-36.874,0-73.746,0-110.711
		C72.3,30.361,108.239,30.361,144.177,30.361z"/>
</g>
</svg>
