<?xml version="1.0" encoding="utf-8"?>
<!-- Generator: Adobe Illustrator 16.0.0, SVG Export Plug-In . SVG Version: 6.00 Build 0)  -->
<!DOCTYPE svg PUBLIC "-//W3C//DTD SVG 1.1//EN" "http://www.w3.org/Graphics/SVG/1.1/DTD/svg11.dtd">
<svg version="1.1" id="Layer_1" xmlns="http://www.w3.org/2000/svg" xmlns:xlink="http://www.w3.org/1999/xlink" x="0px" y="0px"
	 width="1096px" height="4592px" viewBox="0 0 1096 4592" enable-background="new 0 0 1096 4592" xml:space="preserve">
<g>
	<path fill="#FFFFFF" d="M1040.698,4377.395c0,54.512,0,109.021,0,163.533c-335.75,0-671.501,0-1007.251,0
		c0-1484.827,0-2969.654,0-4454.48c335.75,0,671.501,0,1007.251,0c0,1428.868,0,2857.736,0,4286.605
		c-1.739-2.3-0.771-5.166-1.553-7.613c-2.489-7.781-4.265-15.986-8.041-23.113c-6.189-11.678-13.63-22.705-20.767-33.863
		c-2.582-4.036-5.984-7.539-8.702-11.498c-4.096-5.964-7.513-12.316-10.397-18.984c-2.964-6.852-6.581-13.424-9.463-20.308
		c-5.112-12.208-11.838-23.737-15.434-36.592c-0.446-1.595-1.414-3.05-2.194-4.542c-1.451-2.775-3.09-5.461-4.391-8.304
		c-4.495-9.821-8.877-19.694-13.47-29.919c-0.09-1.398,2.061-2.935,0.721-4.993c-3.021-4.641-2.811-9.714-1.168-14.583
		c2.551-7.567,2.054-15.296,1.473-22.927c-0.35-4.573-0.641-9.053-0.386-13.648c0.66-11.903-3.764-22.161-11.057-31.29
		c-3.875-4.852-9.699-6.912-14.84-9.966c-2.145-1.273-4.237-0.371-6.305-0.796c-0.944-0.193-1.893-0.389-2.812-0.672
		c-12.781-3.955-26.034-5.018-39.243-5.842c-13.449-0.838-26.953-0.812-40.435-1.111c-2.406-0.055-4.818,0.129-7.227,0.229
		c-8.908,0.369-17.816,1.084-26.723,1.06c-23.138-0.063-46.272-0.954-69.408,0.312c-13.957,0.764-27.939,1.113-41.783,3.268
		c-8.566,1.334-17.088,3.071-25.698,3.98c-10.271,1.085-20.564,2.662-30.968,1.311c-1.646-0.214-3.396-0.173-5.027,0.134
		c-7.16,1.348-14.379,1.2-21.543,0.549c-7.915-0.719-15.797-1.499-23.759-1.042c-1.325,0.076-2.682-0.381-3.619-0.526
		c-0.493-4.049-1.068-7.578-1.315-11.131c-0.232-3.351-0.492-6.771-0.096-10.083c2.153-17.979,1.974-36.006,1.483-54.047
		c-0.085-3.133-0.146-6.267-0.312-9.395c-0.09-1.671-0.374-3.332-0.585-4.995c-0.33-2.605-0.72-5.204-0.993-7.814
		c-0.226-2.147-0.266-4.313-0.482-6.462c-0.409-4.058-1.426-8.137-1.225-12.157c0.426-8.497-1.452-16.778-1.701-25.196
		c-0.286-9.624-1.003-19.241-1.073-28.864c-0.063-8.661,0.364-17.333,0.816-25.987c0.403-7.692,1.349-15.359,1.664-23.054
		c0.287-6.971,0.078-13.964,0.016-20.946c-0.018-1.921-0.461-3.843-0.428-5.759c0.197-11.592-0.769-23.11-1.728-34.649
		c-0.997-12.008-1.346-24.066-2.162-36.091c-1.093-16.114-2.168-32.226-2.2-48.384c-0.036-17.6,0.007-35.2-0.037-52.8
		c-0.025-10.363-0.146-20.728-0.238-31.091c-0.092-10.361,0.029-20.732-0.371-31.083c-0.364-9.383-1.471-18.733-1.959-28.113
		c-1.04-19.99-3.344-39.863-5.176-59.781c-1.37-14.886-2.055-29.787-0.136-44.706c0.363-2.83,0.162-5.779-0.134-8.639
		c-0.396-3.83-1.183-7.619-1.721-11.438c-1.143-8.122-2.257-16.273-1.261-24.484c1.717-14.148,2.139-28.35,2.062-42.578
		c-0.015-2.648-0.119-5.311-0.415-7.94c-1.269-11.31-0.874-22.632-0.371-33.956c0.321-7.223,0.938-14.441,0.987-21.664
		c0.096-14.466-0.303-28.936-0.108-43.399c0.107-7.938,0.218-15.863-0.079-23.796c-0.65-17.391,0.31-34.725,2.955-51.896
		c1.887-12.255,1.585-24.479,0.771-36.701c-0.976-14.638-2.077-29.248-1.183-43.929c0.088-1.437-0.037-2.89-0.123-4.331
		c-0.229-3.832-0.611-7.658-0.709-11.494c-0.123-4.818,0.033-9.644-0.038-14.465c-0.085-5.768-0.637-11.553-0.337-17.296
		c0.312-5.979-0.154-11.931-0.014-17.907c0.479-20.239,0.346-40.498,0.179-60.748c-0.139-16.871-0.688-33.737-0.988-50.607
		c-0.182-10.127-0.232-20.257-0.346-30.385c-0.289-25.793-1.9-51.562-1.383-77.371c0.159-7.957,0.043-15.918,0.189-23.875
		c0.416-22.65-0.507-45.314,1.185-67.959c0.915-12.245,1.217-24.562,1.174-36.846c-0.049-13.73-0.773-27.461-1.262-41.19
		c-0.153-4.335-0.335-8.678-0.77-12.99c-2.249-22.343-2.76-44.741-2.315-67.173c0.373-18.79,1.881-37.565,0.685-56.376
		c-0.38-5.985-0.688-11.976-1.031-18.027c2.404-1.19,4.004-2.567,3.618-5.501c-0.818-6.206-1.366-12.447-2.019-18.675
		c-0.451-4.312-0.518-8.704-1.411-12.921c-2.218-10.461-2.487-21.041-2.399-31.638c0.068-8.185,0.655-16.363,0.873-24.549
		c0.174-6.498,0.163-13.001,0.189-19.502c0.068-16.396,0.358-32.796,0.104-49.187c-0.345-22.17-1.11-44.335-1.705-66.501
		c-0.097-3.608-0.465-7.222-0.341-10.82c0.725-20.956,1.799-41.903,2.283-62.864c0.413-17.834,0.174-35.684,0.256-53.526
		c0.03-6.509-0.234-13.049,0.307-19.519c1.652-19.763,0.853-39.524,0.26-59.276c-0.396-13.244-1.734-26.461-2.071-39.705
		c-0.409-16.147-0.152-32.311-0.304-48.466c-0.062-6.501-0.339-13.005-0.701-19.498c-0.591-10.586-1.905-21.165-1.899-31.747
		c0.016-26.979,0.42-53.962,0.986-80.937c0.684-32.557,1.151-65.089-2.929-97.498c-0.842-6.689-1.465-13.406-2.318-20.095
		c-0.352-2.757,0.105-5,1.821-7.371c3.888-5.375,6.45-11.281,5.032-18.223c-0.187-0.917,0.069-1.919,0.077-2.883
		c0.13-17.103,0.308-34.206,0.36-51.308c0.048-15.654-0.13-31.309-0.042-46.963c0.095-16.879,0.368-33.758-0.759-50.617
		c-0.272-4.086-0.745-8.164-0.87-12.253c-0.443-14.453-0.965-28.907-1.11-43.364c-0.271-27.005-0.26-54.013-0.44-81.02
		c-0.101-15.19-0.078-30.39-0.612-45.567c-0.508-14.446-1.625-28.872-2.556-43.302c-0.513-7.937-1.144-15.867-1.815-23.793
		c-1.161-13.687-2.431-27.364-3.584-41.051c-0.749-8.886-1.4-17.78-2.043-26.674c-0.904-12.498-2.158-24.987-2.546-37.501
		c-0.621-19.997-0.65-40.012-0.935-60.02c-0.075-5.305-0.151-10.609-0.258-15.914c-0.474-23.404,1.06-46.742,2.02-70.107
		c0.632-15.401,0.706-30.878-0.046-46.269c-0.751-15.384-2.854-30.701-4.342-46.049c-1.092-11.263-2.363-22.515-3.145-33.8
		c-0.516-7.443-0.231-14.938-0.444-22.407c-0.17-5.969,0.553-12.041-1.473-17.687c-1.656-0.842-3.071-1.561-4.489-2.282
		c0-1.314,0.006-2.27,0-3.226c-0.135-19.999-0.077-40-0.465-59.994c-0.351-18.069-1.467-36.124-1.745-54.193
		c-0.349-22.662-0.583-45.34-0.131-67.996c0.428-21.448,1.026-42.885,0.997-64.344c-0.026-19.318-1.62-38.515-3.265-57.729
		c-1.481-17.287-2.75-34.592-4.04-51.895c-0.681-9.134-1.188-18.28-1.811-27.418c-0.689-10.098-1.593-20.184-2.097-30.291
		c-0.745-14.924-0.972-29.876-1.866-44.789c-1.386-23.119-1.834-46.246-1.724-69.398c0.062-13.003,0.241-26.023-0.303-39.008
		c-0.677-16.169,0.218-32.289,0.46-48.433c0.253-16.857,1.739-33.662,0.769-50.583c-1.132-19.726-1.147-39.516-1.629-59.278
		c-0.194-7.978-1.068-15.879-3.135-23.585c-0.812-3.027-1.798-5.929-1.734-9.144c0.073-3.636-1.937-6.561-4.726-8.467
		c-5.745-3.926-11.733-7.502-17.702-11.088c-10.351-6.219-10.376-6.186-22.41-6.169c-1.19,0.002-2.507-0.078-3.549,0.375
		c-8.754,3.806-17.935,6.896-25.708,12.52c-4.01,2.9-7.736,6.721-10.336,10.906c-3.139,5.052-4.886,11.007-5.424,17.027
		c-0.643,7.182-0.975,14.406-1.073,21.618c-0.092,6.74,0.225,13.49,0.494,20.229c0.258,6.491,0.95,12.974,0.984,19.463
		c0.074,13.98-0.209,27.963-0.227,41.945c-0.008,5.783,0.137,11.575,0.476,17.348c0.932,15.874,1.995,31.74,3.023,47.608
		c0.389,6.01,0.841,12.016,1.232,18.026c0.751,11.536,1.564,23.069,2.192,34.613c0.498,9.151-0.197,18.294-0.421,27.444
		c-0.366,14.935-0.408,29.871-1.152,44.806c-0.43,8.626,0.373,17.307,0.44,25.964c0.206,26.774,1.517,53.484,4.336,80.116
		c0.177,1.676,0.208,3.369,0.262,5.056c0.306,9.636,0.645,19.271,0.884,28.908c0.335,13.489,0.824,26.981,0.834,40.472
		c0.024,29.659,1.601,59.267,2.559,88.896c0.25,7.71,0.776,15.413,0.89,23.124c0.082,5.536-0.438,11.078-0.467,16.618
		c-0.074,13.978-0.036,27.957-0.009,41.936c0.005,2.409,0.214,4.817,0.268,7.227c0.284,12.772,0.547,25.545,0.821,38.318
		c0.129,6.022,0.121,12.052,0.434,18.064c0.613,11.788,1.431,23.566,2.096,35.353c0.076,1.347-0.278,2.718-0.46,4.315
		c-2.552,0.108-4.687,0.185-6.82,0.293c-2.124,0.107-4.382-0.396-6.42,1.517c-0.932,2.84-0.198,5.913,0.088,8.996
		c0.377,4.068,1.095,8.176,0.851,12.217c-0.762,12.592,0.53,25.019,2.206,37.45c1.9,14.096,3.639,28.18,2.682,42.494
		c-0.578,8.648-0.395,17.354-0.393,26.034c0.004,10.368,0.408,20.741,0.225,31.104c-0.23,13.008-0.914,26.008-1.337,39.014
		c-0.353,10.841-0.988,21.692-0.83,32.528c0.271,18.555,1.148,37.1,1.617,55.653c0.505,20,0.597,40.008,1.686,59.996
		c0.917,16.846,1.546,33.696,4.17,50.405c1.27,8.091,2.165,16.244,3.09,24.384c1.659,14.604,3.027,29.241,4.863,43.821
		c1.839,14.602,3.089,29.252,3.543,43.939c0.791,25.56,2.733,51.016,5.611,76.416c0.896,7.899,1.857,15.818,2.161,23.752
		c0.563,14.692,0.665,29.403,0.96,44.106c0.02,0.963,0.003,1.931,0.099,2.887c0.652,6.462,1.325,12.922,2,19.382
		c1.584,15.161,1.223,30.359,0.416,45.523c-0.744,13.984-0.786,27.934-0.183,41.916c0.224,5.191,0.25,10.462-1.022,15.945
		c-4.575,0.396-8.862,0.767-13.36,1.156c-0.984,1.744-2.032,3.602-2.997,5.312c0.349,1.492,0.702,2.837,0.967,4.2
		c0.176,0.908-0.069,2.442,0.381,2.663c2.602,1.277,1.969,3.575,2.145,5.651c0.508,5.999,0.524,12.096,1.673,17.97
		c1.58,8.076,2.408,16.172,2.671,24.356c0.116,3.614,0.035,7.234,0.122,10.849c0.314,13.004,0.722,26.007,0.962,39.012
		c0.08,4.329-0.369,8.667-0.348,13c0.06,12.053,0.372,24.107,0.339,36.16c-0.043,15.903-0.52,31.807-0.446,47.708
		c0.093,20.008,0.718,40.014,0.811,60.021c0.101,21.69-0.204,43.382-0.221,65.074c-0.013,16.632,0.098,33.264,0.259,49.895
		c0.046,4.818,0.363,9.64,0.716,14.448c1.078,14.666,2.253,29.318,2.196,44.049c-0.041,10.364,0.092,20.745,0.661,31.09
		c0.912,16.603,2.651,33.16,2.649,49.814c0,5.063-0.042,10.139,0.283,15.187c1.443,22.401,1.884,44.846,1.081,67.247
		c-0.875,24.401,0.915,48.686,1.763,73.007c0.58,16.635,0.863,33.221,0.091,49.86c-0.559,12.025-0.373,24.102-0.074,36.145
		c0.19,7.675,1.349,15.319,1.763,22.994c0.194,3.586-0.504,7.211-0.528,10.818c-0.106,16.396-0.099,32.791-0.176,49.186
		c-0.014,3.069-0.226,6.138-0.379,10.054c-2.903-5.823-3.654-11.068-3.392-16.623c0.272-5.762,0.061-11.546,0.061-17.319
		c-0.267,3.853-0.188,7.709-0.285,11.561c-0.158,6.252,0.128,12.587-0.808,18.729c-1.029,6.748-0.467,13.438-0.559,20.139
		c-0.099,7.212,0.662,14.433,0.916,21.654c0.237,6.745-0.017,13.522,0.507,20.241c1.124,14.416,1.41,28.84,1.277,43.287
		c-0.186,20.252-0.304,40.506-0.444,60.76c-0.105,15.189-0.43,30.382-0.235,45.568c0.202,15.679-1.892,31.272-1.182,46.975
		c0.457,10.105-0.121,20.252,0.063,30.374c0.224,12.29,0.72,24.575,1.179,36.858c0.243,6.502,0.761,12.993,0.971,19.496
		c0.458,14.201,2.634,28.335,1.687,42.593c-0.24,3.604-0.494,7.21-0.586,10.819c-0.589,23.131-1.243,46.261-1.661,69.395
		c-0.353,19.515-0.634,39.03,0.556,58.544c1.085,17.793,2.48,35.579,2.331,53.434c-0.048,5.768,0.288,11.536,0.357,17.306
		c0.113,9.373,0.283,18.746,0.181,28.117c-0.092,8.436-0.545,16.867-0.788,25.302c-0.359,12.521-0.725,25.043-0.986,37.567
		c-0.141,6.746,0.307,13.523-0.18,20.238c-0.877,12.097,0.875,24.039,1.467,36.047c0.021,0.417,0.47,0.812,0.731,1.237
		c1.502,0.531,3.021,1.068,4.902,1.735c0,3.04-0.037,5.91,0.007,8.779c0.161,10.605,0.305,21.211,0.544,31.814
		c0.13,5.78,0.527,11.554,0.648,17.332c0.257,12.28-1.424,24.537-0.344,36.839c0.632,7.199,0.517,14.48,1.445,21.634
		c2.704,20.84,4.189,41.723,3.492,62.74c-0.056,1.688-0.021,3.377-0.005,5.065c0.127,13.265,0.966,26.479,2.37,39.677
		c0.942,8.858,1.56,17.765,1.94,26.666c0.556,13.002,0.639,26.023,1.155,39.027c0.842,21.189,2.829,42.342,1.881,63.585
		c-0.043,0.96,0.085,1.927,0.118,2.89c0.703,21.198,1.421,42.396,2.098,63.594c0.338,10.603,0.661,21.206,0.875,31.812
		c0.135,6.733,0.05,13.47,0.073,20.206c0.011,3.133-0.104,6.276,0.09,9.398c0.751,12.025,1.688,24.038,2.393,36.064
		c0.55,9.38,0.815,18.776,1.295,28.16c0.271,5.295,0.858,10.574,1.056,15.87c0.388,10.359,0.684,20.724,0.864,31.089
		c0.158,9.146,0.075,18.297,0.165,27.444c0.036,3.612,0.15,7.229,0.398,10.831c0.812,11.785,2.208,23.496,4.227,35.145
		c1.028,5.929,0.72,12.215,2.533,17.852c2.74,8.512,4.895,17.067,6.186,25.881c0.104,0.709,0.508,1.376,0.587,2.084
		c0.341,3.072,1.175,6.238,0.725,9.202c-0.336,2.216-0.466,4.065,0.145,6.241c0.84,2.997,1.09,6.16,1.595,9.25
		c1.631,9.967,2.647,20.028,4.906,29.901c1.017,4.443,1.927,9.021,1.944,13.541c0.01,2.618-0.069,5.196,0.255,7.827
		c0.814,6.611-0.043,12.924-4.031,18.705c-2.093-0.46-3.897-0.754-6.14-0.004c-3.781,1.265-7.974,1.855-11.978,1.785
		c-8.146-0.146-16.3-0.982-24.381-1.854c-12.001-1.292-24.01-1.919-36.043-2.432c-16.934-0.721-33.672,1.372-50.432,3.394
		c-9.562,1.154-19.187,2.084-28.806,2.372c-10.079,0.303-20.154,0.972-30.269,0.606c-11.039-0.399-22.098-0.224-33.149-0.249
		c-7.458-0.017-14.919-0.04-22.375,0.11c-5.536,0.112-11.063,0.619-16.599,0.739c-13.992,0.304-27.978,0.952-41.778,3.273
		c-6.846,1.152-13.523,3.416-20.187,5.472c-1.697,0.523-3.506,1.892-4.412,3.387c-0.722,1.193-0.146,3.169-0.146,5.096
		c-6.479,4.194-7.519,10.724-7.297,17.754c0.045,1.446-0.002,2.895,0.016,4.341c0.104,8.197,0.364,16.395,0.277,24.588
		c-0.075,7.036,0.331,14.027,2.22,20.779c2.871,10.262,1.156,20.562,0.842,30.857c-0.028,0.933-0.44,1.873-0.773,2.773
		c-5.284,14.248-11.641,28.016-19.048,41.273c-3.758,6.725-8.621,12.889-11.868,19.828c-3.901,8.34-8.964,15.927-13.519,23.841
		c-2.041,3.544-4.242,7.004-6.535,10.392c-7.148,10.559-14.402,21.045-21.552,31.602c-1.619,2.389-2.752,5.13-4.51,7.398
		c-3.901,5.031-6.459,10.676-8.61,16.605c-2.358,6.5-3.762,12.957-1.052,19.707c0.345,0.859,0.18,1.909,0.381,2.842
		c0.348,1.615,0.714,3.234,1.221,4.804c1.957,6.063,7.881,8.874,11.345,13.712c0.108,0.151,0.46,0.109,0.683,0.196
		c7.166,2.854,14.365,5.526,22.046,6.774c6.166,1.001,12.371,2.023,18.377,3.689c13.486,3.741,27.188,6.381,40.901,9.068
		c7.396,1.449,14.803,1.852,22.287,1.955c4.327,0.059,8.654,0.372,12.974,0.68c7.709,0.551,15.394,0.65,23.103-0.208
		c3.316-0.37,6.724-0.309,10.058-0.04c7.444,0.601,14.878,1.362,22.295,2.24c4.29,0.508,8.582,1.179,12.794,2.127
		c5.196,1.17,10.403,1.654,15.725,1.954c17.669,0.998,35.066-1.984,52.588-3.067c0.954-0.059,1.887-0.404,2.842-0.504
		c8.128-0.862,16.254-1.752,24.391-2.529c8.141-0.776,16.33-1.023,24.378-2.72c3.992-0.841,8.087-1.177,12.102-1.929
		c2.356-0.443,4.253-0.001,5.875,1.776c2.278,2.494,5.189,3.112,8.483,3.226c5.046,0.174,10.073,0.881,15.119,1.129
		c1.854,0.091,4.288,0.17,5.509-0.866c3.789-3.213,7.798-3.067,12.198-2.171c2.326,0.474,4.754,0.443,7.564,0.677
		c0.586-2.613,2.407-3.425,4.826-3.248c0.958,0.071,1.929,0.015,2.893-0.022c6.269-0.232,12.382-0.807,18.365-3.256
		c4.369-1.788,9.215-2.717,13.936-3.252c4.761-0.539,9.645-0.359,14.451-0.076c17.34,1.018,34.677,1.482,52.038,0.583
		c11.571-0.6,23.178-0.521,34.674,0.695c9.885,1.048,19.714,0.979,29.601,0.888c8.431-0.079,16.942-0.251,25.284,0.746
		c20.148,2.411,40.411,2.439,60.615,3.604c11.491,0.662,22.996,0.299,34.494,1.928c8.777,1.242,17.786,1,26.695,1.125
		c10.117,0.142,20.239-0.02,30.359-0.094c9.397-0.07,18.827,0.26,28.184-0.414c12.004-0.864,23.98-2.318,35.909-3.951
		c12.401-1.695,24.759-3.76,37.078-5.979c3.84-0.691,7.624-0.912,11.48-1.004c2.595-0.061,4.647,0.771,6.484,2.551
		c3.682,3.566,8.017,6.194,12.714,8.152c4.803,2.002,9.762,2.68,14.764,0.596c8.431-3.512,16.854-7.04,25.261-10.606
		c0.866-0.366,1.604-1.036,2.396-1.572c2.979-2.013,5.997-3.972,8.925-6.058c2.92-2.08,5.748-4.289,8.934-6.68
		c2.142,1.875,4.098,3.596,6.062,5.309c3.383,2.952,7.226,3.479,11.261,1.49c1.512-0.744,3.012-1.528,4.451-2.402
		c5.75-3.488,10.487-7.736,11.185-15.023C1039.751,4378.631,1040.349,4378.024,1040.698,4377.395z M448.172,2480.439
		c-0.065-0.013-0.13-0.024-0.195-0.037c0,1.659,0,3.317,0,4.976c0.065-0.003,0.13-0.006,0.195-0.008
		C448.172,2483.726,448.172,2482.082,448.172,2480.439z M446.517,2440.132l0.27-0.081l-0.144-0.41L446.517,2440.132z
		 M445.291,2523.322l-0.273,0.429l0.377,0.087L445.291,2523.322z"/>
	<path fill-rule="evenodd" clip-rule="evenodd" d="M1040.698,4377.395c-0.35,0.63-0.947,1.236-1.01,1.893
		c-0.697,7.287-5.435,11.535-11.185,15.023c-1.439,0.874-2.939,1.658-4.451,2.402c-4.035,1.988-7.878,1.462-11.261-1.49
		c-1.964-1.713-3.92-3.434-6.062-5.309c-3.186,2.391-6.014,4.6-8.934,6.68c-2.928,2.086-5.945,4.045-8.925,6.058
		c-0.793,0.536-1.53,1.206-2.396,1.572c-8.407,3.566-16.83,7.095-25.261,10.606c-5.002,2.084-9.961,1.406-14.764-0.596
		c-4.697-1.958-9.032-4.586-12.714-8.152c-1.837-1.779-3.89-2.611-6.484-2.551c-3.856,0.092-7.641,0.312-11.48,1.004
		c-12.319,2.219-24.677,4.283-37.078,5.979c-11.929,1.633-23.905,3.087-35.909,3.951c-9.356,0.674-18.786,0.344-28.184,0.414
		c-10.12,0.074-20.242,0.235-30.359,0.094c-8.909-0.125-17.918,0.117-26.695-1.125c-11.498-1.629-23.003-1.266-34.494-1.928
		c-20.204-1.164-40.467-1.192-60.615-3.604c-8.342-0.997-16.854-0.825-25.284-0.746c-9.887,0.092-19.716,0.16-29.601-0.888
		c-11.496-1.217-23.103-1.295-34.674-0.695c-17.361,0.899-34.698,0.435-52.038-0.583c-4.806-0.283-9.689-0.463-14.451,0.076
		c-4.721,0.535-9.567,1.464-13.936,3.252c-5.983,2.449-12.096,3.023-18.365,3.256c-0.964,0.037-1.934,0.094-2.893,0.022
		c-2.418-0.177-4.239,0.635-4.826,3.248c-2.811-0.233-5.239-0.203-7.564-0.677c-4.399-0.896-8.409-1.042-12.198,2.171
		c-1.221,1.036-3.655,0.957-5.509,0.866c-5.046-0.248-10.073-0.955-15.119-1.129c-3.294-0.113-6.206-0.731-8.483-3.226
		c-1.623-1.777-3.519-2.22-5.875-1.776c-4.014,0.752-8.11,1.088-12.102,1.929c-8.048,1.696-16.238,1.943-24.378,2.72
		c-8.136,0.777-16.263,1.667-24.391,2.529c-0.955,0.1-1.888,0.445-2.842,0.504c-17.522,1.083-34.919,4.065-52.588,3.067
		c-5.322-0.3-10.528-0.784-15.725-1.954c-4.212-0.948-8.504-1.619-12.794-2.127c-7.417-0.878-14.851-1.64-22.295-2.24
		c-3.334-0.269-6.742-0.33-10.058,0.04c-7.709,0.858-15.394,0.759-23.103,0.208c-4.319-0.308-8.646-0.621-12.974-0.68
		c-7.483-0.104-14.89-0.506-22.287-1.955c-13.713-2.688-27.416-5.327-40.901-9.068c-6.007-1.666-12.211-2.688-18.377-3.689
		c-7.681-1.248-14.881-3.921-22.046-6.774c-0.223-0.087-0.575-0.045-0.683-0.196c-3.463-4.838-9.388-7.648-11.345-13.712
		c-0.507-1.569-0.873-3.188-1.221-4.804c-0.201-0.933-0.036-1.982-0.381-2.842c-2.709-6.75-1.306-13.207,1.052-19.707
		c2.151-5.93,4.709-11.574,8.61-16.605c1.758-2.269,2.892-5.01,4.51-7.398c7.15-10.557,14.404-21.043,21.552-31.602
		c2.293-3.388,4.494-6.848,6.535-10.392c4.555-7.914,9.618-15.501,13.519-23.841c3.247-6.939,8.11-13.104,11.868-19.828
		c7.408-13.258,13.764-27.025,19.048-41.273c0.333-0.9,0.745-1.841,0.773-2.773c0.313-10.296,2.028-20.596-0.842-30.857
		c-1.889-6.752-2.295-13.743-2.22-20.779c0.087-8.193-0.173-16.391-0.277-24.588c-0.019-1.446,0.029-2.895-0.016-4.341
		c-0.222-7.03,0.818-13.56,7.297-17.754c0-1.927-0.576-3.903,0.146-5.096c0.905-1.495,2.714-2.863,4.412-3.387
		c6.663-2.056,13.34-4.319,20.187-5.472c13.8-2.321,27.786-2.97,41.778-3.273c5.536-0.12,11.063-0.627,16.599-0.739
		c7.456-0.15,14.917-0.127,22.375-0.11c11.051,0.025,22.11-0.15,33.149,0.249c10.115,0.365,20.19-0.304,30.269-0.606
		c9.619-0.288,19.245-1.218,28.806-2.372c16.76-2.021,33.498-4.114,50.432-3.394c12.033,0.513,24.042,1.14,36.043,2.432
		c8.082,0.871,16.236,1.707,24.381,1.854c4.003,0.07,8.196-0.521,11.978-1.785c2.243-0.75,4.047-0.456,6.14,0.004
		c3.988-5.781,4.845-12.094,4.031-18.705c-0.325-2.631-0.245-5.209-0.255-7.827c-0.017-4.521-0.927-9.098-1.944-13.541
		c-2.258-9.873-3.275-19.935-4.906-29.901c-0.505-3.09-0.755-6.253-1.595-9.25c-0.61-2.176-0.481-4.025-0.145-6.241
		c0.451-2.964-0.384-6.13-0.725-9.202c-0.079-0.708-0.483-1.375-0.587-2.084c-1.291-8.813-3.446-17.369-6.186-25.881
		c-1.813-5.637-1.505-11.923-2.533-17.852c-2.019-11.648-3.415-23.359-4.227-35.145c-0.249-3.603-0.363-7.219-0.398-10.831
		c-0.089-9.147-0.006-18.298-0.165-27.444c-0.181-10.365-0.477-20.729-0.864-31.089c-0.198-5.296-0.785-10.575-1.056-15.87
		c-0.479-9.384-0.745-18.78-1.295-28.16c-0.705-12.026-1.642-24.039-2.393-36.064c-0.195-3.122-0.08-6.266-0.09-9.398
		c-0.023-6.736,0.062-13.473-0.073-20.206c-0.213-10.605-0.536-21.209-0.875-31.812c-0.677-21.198-1.395-42.396-2.098-63.594
		c-0.032-0.963-0.161-1.93-0.118-2.89c0.948-21.243-1.039-42.396-1.881-63.585c-0.516-13.004-0.6-26.025-1.155-39.027
		c-0.38-8.901-0.999-17.808-1.94-26.666c-1.404-13.197-2.243-26.412-2.37-39.677c-0.017-1.688-0.051-3.378,0.005-5.065
		c0.697-21.018-0.789-41.9-3.492-62.74c-0.928-7.153-0.813-14.435-1.445-21.634c-1.08-12.302,0.601-24.559,0.344-36.839
		c-0.121-5.778-0.519-11.552-0.648-17.332c-0.239-10.604-0.383-21.209-0.544-31.814c-0.043-2.869-0.007-5.739-0.007-8.779
		c-1.881-0.667-3.399-1.204-4.902-1.735c-0.261-0.426-0.711-0.82-0.731-1.237c-0.593-12.008-2.344-23.95-1.467-36.047
		c0.486-6.715,0.039-13.492,0.18-20.238c0.262-12.524,0.627-25.046,0.986-37.567c0.243-8.435,0.696-16.866,0.788-25.302
		c0.102-9.371-0.068-18.744-0.181-28.117c-0.069-5.77-0.406-11.538-0.357-17.306c0.15-17.854-1.246-35.641-2.331-53.434
		c-1.19-19.514-0.909-39.029-0.556-58.544c0.418-23.134,1.072-46.264,1.661-69.395c0.092-3.609,0.346-7.216,0.586-10.819
		c0.947-14.258-1.229-28.392-1.687-42.593c-0.21-6.503-0.729-12.994-0.971-19.496c-0.458-12.283-0.955-24.568-1.179-36.858
		c-0.184-10.122,0.394-20.269-0.063-30.374c-0.71-15.702,1.383-31.296,1.182-46.975c-0.195-15.187,0.13-30.379,0.235-45.568
		c0.14-20.254,0.258-40.508,0.444-60.76c0.133-14.447-0.153-28.871-1.277-43.287c-0.524-6.719-0.27-13.496-0.507-20.241
		c-0.254-7.222-1.015-14.442-0.916-21.654c0.092-6.7-0.47-13.391,0.559-20.139c0.937-6.143,0.65-12.478,0.808-18.729
		c0.098-3.852,0.018-7.708,0.285-11.561c0,5.773,0.211,11.558-0.061,17.319c-0.262,5.555,0.488,10.8,3.392,16.623
		c0.154-3.916,0.365-6.984,0.379-10.054c0.077-16.395,0.07-32.79,0.176-49.186c0.023-3.607,0.722-7.232,0.528-10.818
		c-0.415-7.675-1.573-15.319-1.763-22.994c-0.298-12.043-0.484-24.119,0.074-36.145c0.772-16.64,0.489-33.226-0.091-49.86
		c-0.848-24.321-2.638-48.606-1.763-73.007c0.803-22.4,0.363-44.845-1.081-67.247c-0.325-5.048-0.284-10.123-0.283-15.187
		c0.001-16.655-1.737-33.211-2.649-49.814c-0.568-10.345-0.701-20.727-0.661-31.09c0.057-14.731-1.118-29.383-2.196-44.049
		c-0.353-4.808-0.669-9.629-0.716-14.448c-0.161-16.631-0.272-33.263-0.259-49.895c0.017-21.691,0.322-43.383,0.221-65.074
		c-0.093-20.008-0.718-40.014-0.811-60.021c-0.073-15.901,0.403-31.805,0.446-47.708c0.033-12.053-0.279-24.106-0.339-36.16
		c-0.021-4.333,0.427-8.67,0.348-13c-0.24-13.005-0.648-26.008-0.962-39.012c-0.087-3.615-0.006-7.235-0.122-10.849
		c-0.263-8.185-1.091-16.28-2.671-24.356c-1.149-5.875-1.166-11.972-1.673-17.97c-0.176-2.076,0.457-4.375-2.145-5.651
		c-0.45-0.221-0.205-1.755-0.381-2.663c-0.265-1.363-0.619-2.708-0.967-4.2c0.965-1.711,2.013-3.568,2.997-5.312
		c4.498-0.389,8.786-0.76,13.36-1.156c1.272-5.483,1.246-10.753,1.022-15.945c-0.603-13.981-0.561-27.931,0.183-41.916
		c0.808-15.164,1.169-30.362-0.416-45.523c-0.675-6.459-1.347-12.919-2-19.382c-0.096-0.956-0.08-1.924-0.099-2.887
		c-0.296-14.703-0.397-29.414-0.96-44.106c-0.304-7.934-1.266-15.853-2.161-23.752c-2.878-25.4-4.82-50.856-5.611-76.416
		c-0.454-14.687-1.704-29.337-3.543-43.939c-1.836-14.58-3.204-29.218-4.863-43.821c-0.925-8.14-1.82-16.293-3.09-24.384
		c-2.624-16.709-3.253-33.559-4.17-50.405c-1.089-19.988-1.181-39.996-1.686-59.996c-0.469-18.553-1.346-37.098-1.617-55.653
		c-0.158-10.836,0.477-21.687,0.83-32.528c0.423-13.006,1.107-26.006,1.337-39.014c0.183-10.364-0.221-20.736-0.225-31.104
		c-0.002-8.68-0.186-17.386,0.393-26.034c0.957-14.314-0.781-28.397-2.682-42.494c-1.676-12.431-2.968-24.857-2.206-37.45
		c0.245-4.041-0.474-8.149-0.851-12.217c-0.286-3.083-1.02-6.156-0.088-8.996c2.038-1.912,4.296-1.409,6.42-1.517
		c2.133-0.108,4.268-0.185,6.82-0.293c0.182-1.598,0.536-2.969,0.46-4.315c-0.666-11.786-1.483-23.564-2.096-35.353
		c-0.313-6.013-0.305-12.042-0.434-18.064c-0.274-12.772-0.537-25.545-0.821-38.318c-0.054-2.41-0.263-4.818-0.268-7.227
		c-0.027-13.979-0.065-27.958,0.009-41.936c0.029-5.54,0.549-11.083,0.467-16.618c-0.114-7.711-0.64-15.414-0.89-23.124
		c-0.958-29.628-2.535-59.237-2.559-88.896c-0.011-13.491-0.5-26.983-0.834-40.472c-0.239-9.637-0.578-19.272-0.884-28.908
		c-0.053-1.687-0.084-3.38-0.262-5.056c-2.819-26.631-4.13-53.342-4.336-80.116c-0.067-8.657-0.87-17.338-0.44-25.964
		c0.744-14.935,0.786-29.871,1.152-44.806c0.224-9.15,0.919-18.293,0.421-27.444c-0.628-11.543-1.44-23.077-2.192-34.613
		c-0.391-6.01-0.844-12.016-1.232-18.026c-1.028-15.869-2.091-31.735-3.023-47.608c-0.339-5.773-0.483-11.565-0.476-17.348
		c0.018-13.982,0.301-27.965,0.227-41.945c-0.034-6.489-0.726-12.972-0.984-19.463c-0.269-6.739-0.586-13.489-0.494-20.229
		c0.099-7.211,0.431-14.436,1.073-21.618c0.539-6.021,2.285-11.976,5.424-17.027c2.6-4.185,6.326-8.006,10.336-10.906
		c7.773-5.624,16.954-8.714,25.708-12.52c1.042-0.453,2.359-0.373,3.549-0.375c12.034-0.017,12.06-0.05,22.41,6.169
		c5.968,3.586,11.957,7.163,17.702,11.088c2.789,1.906,4.798,4.831,4.726,8.467c-0.064,3.215,0.922,6.117,1.734,9.144
		c2.067,7.707,2.941,15.607,3.135,23.585c0.482,19.763,0.497,39.553,1.629,59.278c0.971,16.921-0.515,33.726-0.769,50.583
		c-0.242,16.144-1.137,32.263-0.46,48.433c0.544,12.984,0.365,26.005,0.303,39.008c-0.11,23.152,0.338,46.28,1.724,69.398
		c0.895,14.913,1.121,29.865,1.866,44.789c0.504,10.106,1.407,20.193,2.097,30.291c0.624,9.138,1.13,18.285,1.811,27.418
		c1.29,17.303,2.559,34.608,4.04,51.895c1.646,19.215,3.239,38.411,3.265,57.729c0.029,21.459-0.568,42.896-0.997,64.344
		c-0.452,22.656-0.217,45.334,0.131,67.996c0.278,18.069,1.394,36.125,1.745,54.193c0.388,19.994,0.33,39.995,0.465,59.994
		c0.006,0.956,0,1.911,0,3.226c1.417,0.721,2.833,1.44,4.489,2.282c2.026,5.646,1.302,11.717,1.473,17.687
		c0.213,7.468-0.072,14.963,0.444,22.407c0.782,11.285,2.053,22.537,3.145,33.8c1.488,15.348,3.59,30.666,4.342,46.049
		c0.752,15.391,0.678,30.868,0.046,46.269c-0.96,23.365-2.494,46.703-2.02,70.107c0.107,5.304,0.183,10.609,0.258,15.914
		c0.285,20.008,0.314,40.022,0.935,60.02c0.388,12.515,1.642,25.004,2.546,37.501c0.643,8.894,1.294,17.788,2.043,26.674
		c1.153,13.687,2.423,27.364,3.584,41.051c0.671,7.926,1.302,15.856,1.815,23.793c0.932,14.43,2.048,28.855,2.556,43.302
		c0.534,15.177,0.511,30.376,0.612,45.567c0.181,27.006,0.17,54.014,0.44,81.02c0.146,14.457,0.667,28.911,1.11,43.364
		c0.125,4.089,0.598,8.167,0.87,12.253c1.127,16.859,0.854,33.738,0.759,50.617c-0.088,15.654,0.09,31.309,0.042,46.963
		c-0.053,17.103-0.23,34.206-0.36,51.308c-0.008,0.963-0.264,1.965-0.077,2.883c1.418,6.942-1.145,12.849-5.032,18.223
		c-1.715,2.372-2.173,4.614-1.821,7.371c0.853,6.688,1.476,13.406,2.318,20.095c4.081,32.409,3.613,64.941,2.929,97.498
		c-0.566,26.975-0.971,53.958-0.986,80.937c-0.006,10.582,1.309,21.161,1.899,31.747c0.362,6.493,0.64,12.997,0.701,19.498
		c0.151,16.155-0.105,32.319,0.304,48.466c0.337,13.244,1.675,26.461,2.071,39.705c0.593,19.752,1.393,39.514-0.26,59.276
		c-0.541,6.47-0.276,13.01-0.307,19.519c-0.082,17.843,0.157,35.692-0.256,53.526c-0.484,20.961-1.559,41.908-2.283,62.864
		c-0.124,3.598,0.244,7.212,0.341,10.82c0.595,22.166,1.36,44.331,1.705,66.501c0.254,16.391-0.036,32.791-0.104,49.187
		c-0.026,6.501-0.016,13.004-0.189,19.502c-0.218,8.186-0.805,16.364-0.873,24.549c-0.088,10.597,0.182,21.177,2.399,31.638
		c0.894,4.217,0.96,8.609,1.411,12.921c0.652,6.228,1.2,12.469,2.019,18.675c0.386,2.934-1.214,4.311-3.618,5.501
		c0.344,6.052,0.651,12.042,1.031,18.027c1.196,18.811-0.312,37.586-0.685,56.376c-0.444,22.432,0.066,44.83,2.315,67.173
		c0.435,4.312,0.616,8.655,0.77,12.99c0.488,13.729,1.213,27.46,1.262,41.19c0.043,12.283-0.259,24.601-1.174,36.846
		c-1.691,22.645-0.769,45.309-1.185,67.959c-0.146,7.957-0.03,15.918-0.189,23.875c-0.518,25.81,1.094,51.578,1.383,77.371
		c0.113,10.128,0.164,20.258,0.346,30.385c0.3,16.87,0.85,33.736,0.988,50.607c0.167,20.25,0.3,40.509-0.179,60.748
		c-0.141,5.977,0.325,11.928,0.014,17.907c-0.3,5.743,0.252,11.528,0.337,17.296c0.071,4.821-0.085,9.646,0.038,14.465
		c0.098,3.836,0.479,7.662,0.709,11.494c0.086,1.441,0.211,2.895,0.123,4.331c-0.895,14.681,0.207,29.291,1.183,43.929
		c0.814,12.223,1.116,24.446-0.771,36.701c-2.646,17.172-3.605,34.506-2.955,51.896c0.297,7.933,0.187,15.857,0.079,23.796
		c-0.194,14.464,0.204,28.934,0.108,43.399c-0.049,7.223-0.666,14.441-0.987,21.664c-0.503,11.324-0.897,22.646,0.371,33.956
		c0.296,2.63,0.4,5.292,0.415,7.94c0.077,14.229-0.345,28.43-2.062,42.578c-0.996,8.211,0.118,16.362,1.261,24.484
		c0.538,3.818,1.325,7.607,1.721,11.438c0.296,2.859,0.497,5.809,0.134,8.639c-1.919,14.919-1.234,29.82,0.136,44.706
		c1.832,19.918,4.136,39.791,5.176,59.781c0.488,9.38,1.595,18.73,1.959,28.113c0.4,10.351,0.279,20.722,0.371,31.083
		c0.092,10.363,0.213,20.728,0.238,31.091c0.044,17.6,0.001,35.2,0.037,52.8c0.032,16.158,1.107,32.27,2.2,48.384
		c0.816,12.024,1.165,24.083,2.162,36.091c0.959,11.539,1.925,23.058,1.728,34.649c-0.033,1.916,0.41,3.838,0.428,5.759
		c0.062,6.982,0.271,13.976-0.016,20.946c-0.315,7.694-1.261,15.361-1.664,23.054c-0.452,8.654-0.88,17.326-0.816,25.987
		c0.07,9.623,0.787,19.24,1.073,28.864c0.249,8.418,2.127,16.699,1.701,25.196c-0.201,4.021,0.815,8.1,1.225,12.157
		c0.217,2.148,0.257,4.314,0.482,6.462c0.273,2.61,0.663,5.209,0.993,7.814c0.211,1.663,0.495,3.324,0.585,4.995
		c0.167,3.128,0.228,6.262,0.312,9.395c0.49,18.041,0.67,36.068-1.483,54.047c-0.396,3.312-0.137,6.732,0.096,10.083
		c0.247,3.553,0.822,7.082,1.315,11.131c0.938,0.146,2.294,0.603,3.619,0.526c7.962-0.457,15.844,0.323,23.759,1.042
		c7.164,0.651,14.383,0.799,21.543-0.549c1.631-0.307,3.381-0.348,5.027-0.134c10.403,1.352,20.696-0.226,30.968-1.311
		c8.61-0.909,17.132-2.646,25.698-3.98c13.844-2.154,27.826-2.504,41.783-3.268c23.136-1.266,46.271-0.375,69.408-0.312
		c8.906,0.024,17.814-0.69,26.723-1.06c2.408-0.1,4.82-0.283,7.227-0.229c13.481,0.3,26.985,0.273,40.435,1.111
		c13.209,0.824,26.462,1.887,39.243,5.842c0.919,0.283,1.867,0.479,2.812,0.672c2.067,0.425,4.16-0.478,6.305,0.796
		c5.141,3.054,10.965,5.114,14.84,9.966c7.293,9.129,11.717,19.387,11.057,31.29c-0.255,4.596,0.036,9.075,0.386,13.648
		c0.581,7.631,1.078,15.359-1.473,22.927c-1.643,4.869-1.854,9.942,1.168,14.583c1.34,2.059-0.811,3.595-0.721,4.993
		c4.593,10.225,8.975,20.098,13.47,29.919c1.301,2.843,2.939,5.528,4.391,8.304c0.78,1.492,1.748,2.947,2.194,4.542
		c3.596,12.854,10.321,24.384,15.434,36.592c2.882,6.884,6.499,13.456,9.463,20.308c2.885,6.668,6.302,13.021,10.397,18.984
		c2.718,3.959,6.12,7.462,8.702,11.498c7.137,11.158,14.577,22.186,20.767,33.863c3.776,7.127,5.552,15.332,8.041,23.113
		c0.782,2.447-0.187,5.313,1.553,7.613C1040.698,4374.5,1040.698,4375.947,1040.698,4377.395z"/>
	<path fill-rule="evenodd" clip-rule="evenodd" d="M448.172,2480.439c0,1.643,0,3.287,0,4.931c-0.065,0.002-0.13,0.005-0.195,0.008
		c0-1.658,0-3.316,0-4.976C448.042,2480.415,448.107,2480.427,448.172,2480.439z"/>
	<polygon fill-rule="evenodd" clip-rule="evenodd" points="446.517,2440.132 446.643,2439.64 446.787,2440.051 	"/>
	<polygon fill-rule="evenodd" clip-rule="evenodd" points="445.291,2523.322 445.395,2523.838 445.017,2523.751 	"/>
</g>
</svg>
