<?xml version="1.0" encoding="utf-8"?>
<!-- Generator: Adobe Illustrator 16.0.0, SVG Export Plug-In . SVG Version: 6.00 Build 0)  -->
<!DOCTYPE svg PUBLIC "-//W3C//DTD SVG 1.1//EN" "http://www.w3.org/Graphics/SVG/1.1/DTD/svg11.dtd">
<svg version="1.1" id="Layer_1" xmlns="http://www.w3.org/2000/svg" xmlns:xlink="http://www.w3.org/1999/xlink" x="0px" y="0px"
	 width="841.891px" height="1190.551px" viewBox="0 0 841.891 1190.551" enable-background="new 0 0 841.891 1190.551"
	 xml:space="preserve">
<g>
	<path fill="#FFFFFF" d="M171.843,177.911c182.347,0,364.694,0,547.041,0c0,265.802,0,531.604,0,797.407
		c-0.366,0.387-0.826,0.723-1.08,1.173c-0.518,0.923-0.925,1.907-1.224,2.54c-1.151-1.674-2.308-3.263-3.363-4.916
		c-1.259-1.973-2.164-4.241-3.702-5.949c-2.465-2.735-4.789-5.516-6.676-8.689c-3.303-5.559-6.701-11.06-10.081-16.57
		c-3.88-6.324-7.755-12.652-11.689-18.943c-1.921-3.069-3.998-6.04-5.959-9.084c-1.981-3.074-3.872-6.205-5.868-9.27
		c-1.604-2.463-3.432-4.787-4.934-7.308c-2.526-4.24-4.711-8.689-7.339-12.86s-5.596-8.129-8.466-12.144
		c-6.735-9.42-13.676-18.697-20.197-28.262c-5.181-7.597-9.897-15.511-14.754-23.326c-2.95-4.749-5.749-9.594-8.664-14.365
		c-2.238-3.665-4.511-7.31-6.842-10.916c-3.1-4.797-6.33-9.51-9.395-14.328c-4.149-6.521-8.239-13.082-12.271-19.676
		c-3.65-5.971-7.205-11.999-10.77-18.021c-2.01-3.394-3.9-6.857-5.943-10.23c-4.307-7.114-8.688-14.184-13.02-21.283
		c-2.797-4.582-5.568-9.18-8.336-13.779c-1.939-3.224-3.802-6.495-5.794-9.685c-1.713-2.743-3.612-5.369-5.336-8.105
		c-2.062-3.272-3.938-6.662-6.048-9.9c-3.48-5.34-7.153-10.554-10.621-15.9c-5.523-8.515-10.873-17.141-16.431-25.632
		c-4.459-6.812-9.038-13.552-13.713-20.219c-4.188-5.973-8.651-11.752-12.862-17.709c-3.25-4.598-6.214-9.398-9.453-14.004
		c-4.88-6.938-9.895-13.782-14.842-20.673c-4.348-6.056-8.673-12.128-13.024-18.181c-3.379-4.7-6.774-9.388-10.179-14.07
		c-2.625-3.609-5.208-7.25-7.928-10.787c-3.273-4.257-6.714-8.387-10.005-12.632c-2.935-3.785-5.763-7.653-8.643-11.481
		c-4.51-5.995-8.968-12.029-13.551-17.967c-4.405-5.707-8.969-11.29-13.409-16.97c-2.625-3.357-5.159-6.787-7.708-10.204
		c-1.272-1.705-2.449-3.482-3.737-5.174c-2.668-3.507-5.439-6.938-8.06-10.479c-2.527-3.416-4.86-6.976-7.387-10.393
		c-2.29-3.094-4.752-6.06-7.093-9.117c-3.618-4.727-7.163-9.508-10.802-14.218c-2.791-3.612-5.78-7.075-8.488-10.745
		c-1.773-2.404-3.158-5.09-4.797-7.597c-2.802-4.284-5.758-8.469-8.485-12.8c-4.551-7.231-8.936-14.566-13.459-21.815
		c-2.935-4.704-6.115-9.258-8.967-14.01c-5.524-9.208-9.88-19.101-16.573-27.63c-3.222-4.106-5.994-8.564-9.028-12.82
		c-2.524-3.541-5.239-6.949-7.68-10.545c-3.273-4.821-6.326-9.791-9.542-14.651c-3.531-5.336-6.988-10.732-10.753-15.901
		c-4.809-6.601-9.884-13.007-14.862-19.484c-4.803-6.248-9.655-12.458-14.43-18.727c-1.945-2.554-3.709-5.245-5.617-7.828
		c-2.81-3.805-5.69-7.558-8.509-11.356c-1.831-2.467-3.597-4.983-5.41-7.465C174.023,180.78,172.925,179.351,171.843,177.911z"/>
	<path fill-rule="evenodd" clip-rule="evenodd" fill="#FFFFFF" d="M718.884,1013.669c-0.06,0.121-0.114,0.342-0.182,0.346
		c-0.48,0.03-0.964,0.017-1.446,0.017c-197.965,0-395.929,0-593.894,0c0-261.34,0-522.681,0-784.021
		c1.232,1.174,2.618,2.228,3.661,3.551c1.678,2.126,3.177,4.399,4.666,6.667c2.324,3.541,4.415,7.246,6.899,10.668
		c2.841,3.913,6.038,7.566,9.013,11.384c1.852,2.378,3.565,4.864,5.367,7.281c3.777,5.07,7.701,10.042,10.387,15.826
		c0.508,1.094,0.93,2.235,1.523,3.28c1.422,2.505,3.042,4.905,4.364,7.459c1.962,3.792,3.544,7.79,5.631,11.507
		c4.431,7.89,9.029,15.689,13.671,23.457c1.844,3.085,3.888,6.065,6.013,8.967c6.007,8.205,12.126,16.329,18.151,24.521
		c2.239,3.044,4.331,6.196,6.504,9.289c2.022,2.878,4.151,5.685,6.076,8.626c3.668,5.604,7.232,11.276,10.827,16.929
		c2.049,3.223,4.106,6.441,6.103,9.697c3.755,6.124,7.459,12.279,11.203,18.41c2.564,4.199,5.229,8.339,7.724,12.579
		c2.681,4.557,5.15,9.238,7.831,13.795c2.511,4.269,5.194,8.437,7.773,12.666c4.445,7.289,8.821,14.62,13.325,21.872
		c1.74,2.801,3.772,5.42,5.637,8.145c2.301,3.361,4.469,6.818,6.869,10.105c3.869,5.301,7.9,10.483,11.824,15.744
		c2.755,3.694,5.374,7.493,8.181,11.146c4.007,5.213,8.257,10.244,12.17,15.525c3.725,5.027,7.249,10.211,10.682,15.443
		c3.719,5.667,7.128,11.537,10.863,17.194c3.495,5.295,7.295,10.388,10.852,15.644c2.114,3.124,3.915,6.461,6.039,9.577
		c3.684,5.404,7.513,10.711,11.276,16.062c2.512,3.573,5.03,7.142,7.519,10.73c2.489,3.59,4.951,7.199,7.415,10.807
		c2.476,3.624,4.914,7.273,7.417,10.878c1.819,2.62,3.673,5.218,5.589,7.767c2.044,2.721,4.237,5.331,6.257,8.069
		c1.638,2.221,3.077,4.587,4.674,6.839c1.745,2.461,3.699,4.781,5.337,7.31c3.904,6.029,7.663,12.153,11.504,18.225
		c3.28,5.185,6.627,10.327,9.88,15.528c2.998,4.79,5.91,9.634,8.86,14.454c2.655,4.34,5.399,8.629,7.942,13.034
		c2.47,4.279,4.751,8.667,7.082,13.024c2.383,4.455,4.633,8.983,7.112,13.383c2.282,4.049,4.822,7.952,7.195,11.95
		c4.325,7.286,8.619,14.591,12.91,21.896c3.438,5.854,6.729,11.797,10.308,17.562c3.529,5.687,7.147,11.337,11.082,16.745
		c3.361,4.623,7.183,8.917,10.886,13.284c2.061,2.432,4.368,4.653,6.437,7.078c3.646,4.275,7.214,8.617,10.775,12.963
		c2.934,3.581,5.88,7.156,8.697,10.828c4.069,5.307,8.028,10.696,12.031,16.053c4.565,6.107,9.141,12.208,13.685,18.331
		c3.418,4.604,6.737,9.282,10.202,13.851c4.13,5.444,8.34,10.83,12.568,16.198c4.276,5.428,8.557,10.855,12.952,16.187
		c3.654,4.432,7.497,8.706,11.22,13.081c2.367,2.781,4.771,5.542,6.968,8.455c2.049,2.717,3.81,5.648,5.769,8.436
		c1.123,1.598,2.466,3.043,3.573,4.651c2.61,3.788,5.183,7.605,7.676,11.473c0.764,1.185,1.605,1.609,3.028,1.606
		C678.971,1013.652,698.927,1013.669,718.884,1013.669z"/>
	<path fill-rule="evenodd" clip-rule="evenodd" d="M718.884,1013.669c-19.956,0-39.912-0.017-59.868,0.035
		c-1.423,0.003-2.265-0.422-3.028-1.606c-2.493-3.867-5.065-7.685-7.676-11.473c-1.107-1.608-2.45-3.054-3.573-4.651
		c-1.959-2.787-3.72-5.719-5.769-8.436c-2.197-2.913-4.601-5.674-6.968-8.455c-3.723-4.375-7.565-8.649-11.22-13.081
		c-4.396-5.331-8.676-10.759-12.952-16.187c-4.229-5.368-8.438-10.754-12.568-16.198c-3.465-4.568-6.784-9.246-10.202-13.851
		c-4.544-6.123-9.119-12.224-13.685-18.331c-4.003-5.356-7.962-10.746-12.031-16.053c-2.817-3.672-5.764-7.247-8.697-10.828
		c-3.562-4.346-7.13-8.688-10.775-12.963c-2.068-2.425-4.376-4.646-6.437-7.078c-3.703-4.367-7.524-8.661-10.886-13.284
		c-3.935-5.408-7.553-11.059-11.082-16.745c-3.578-5.766-6.87-11.709-10.308-17.562c-4.291-7.306-8.585-14.61-12.91-21.896
		c-2.373-3.998-4.913-7.901-7.195-11.95c-2.479-4.399-4.729-8.928-7.112-13.383c-2.331-4.357-4.612-8.745-7.082-13.024
		c-2.543-4.405-5.287-8.694-7.942-13.034c-2.95-4.82-5.862-9.664-8.86-14.454c-3.253-5.201-6.6-10.344-9.88-15.528
		c-3.841-6.071-7.6-12.195-11.504-18.225c-1.638-2.528-3.592-4.849-5.337-7.31c-1.598-2.252-3.037-4.618-4.674-6.839
		c-2.02-2.738-4.212-5.349-6.257-8.069c-1.916-2.549-3.77-5.146-5.589-7.767c-2.502-3.604-4.941-7.254-7.417-10.878
		c-2.464-3.607-4.926-7.217-7.415-10.807c-2.488-3.589-5.006-7.157-7.519-10.73c-3.763-5.351-7.592-10.657-11.276-16.062
		c-2.125-3.116-3.925-6.453-6.039-9.577c-3.557-5.255-7.356-10.349-10.852-15.644c-3.734-5.657-7.144-11.527-10.863-17.194
		c-3.434-5.232-6.957-10.416-10.682-15.443c-3.914-5.281-8.163-10.312-12.17-15.525c-2.808-3.653-5.426-7.451-8.181-11.146
		c-3.924-5.261-7.955-10.443-11.824-15.744c-2.399-3.288-4.568-6.744-6.869-10.105c-1.865-2.725-3.896-5.344-5.637-8.145
		c-4.504-7.251-8.88-14.583-13.325-21.872c-2.579-4.229-5.262-8.397-7.773-12.666c-2.681-4.557-5.15-9.238-7.831-13.795
		c-2.495-4.24-5.159-8.38-7.724-12.579c-3.744-6.13-7.448-12.286-11.203-18.41c-1.997-3.256-4.054-6.475-6.103-9.697
		c-3.595-5.652-7.158-11.325-10.827-16.929c-1.925-2.941-4.054-5.748-6.076-8.626c-2.173-3.093-4.265-6.245-6.504-9.289
		c-6.025-8.192-12.145-16.316-18.151-24.521c-2.125-2.902-4.169-5.882-6.013-8.967c-4.642-7.768-9.24-15.567-13.671-23.457
		c-2.087-3.717-3.669-7.715-5.631-11.507c-1.322-2.555-2.942-4.954-4.364-7.459c-0.593-1.045-1.016-2.187-1.523-3.28
		c-2.687-5.784-6.61-10.756-10.387-15.826c-1.802-2.417-3.515-4.903-5.367-7.281c-2.975-3.818-6.172-7.471-9.013-11.384
		c-2.484-3.422-4.575-7.127-6.899-10.668c-1.488-2.268-2.988-4.541-4.666-6.667c-1.043-1.323-2.429-2.376-3.661-3.551
		c0-5.186,0-10.372,0-15.558c0.595-0.94,1.098-1.957,1.808-2.8c0.844-1.002,1.925-1.802,2.799-2.783
		c2.277-2.555,4.475-5.181,6.745-7.742c2.453-2.768,5.191-5.319,7.37-8.285c2.616-3.564,5.87-6.441,9.021-9.44
		c1.699-1.617,3.64-2.98,5.472-4.458c-0.212-0.224-0.424-0.448-0.636-0.672c0.781,0,1.563,0.038,2.341-0.008
		c1.627-0.095,3.252-0.233,4.878-0.354c2.895,0,5.789,0,8.683,0c1.082,1.44,2.18,2.869,3.243,4.323
		c1.813,2.481,3.579,4.998,5.41,7.465c2.819,3.799,5.7,7.551,8.509,11.356c1.908,2.583,3.672,5.274,5.617,7.828
		c4.775,6.269,9.627,12.479,14.43,18.727c4.978,6.477,10.054,12.883,14.862,19.484c3.766,5.169,7.222,10.565,10.753,15.901
		c3.216,4.86,6.269,9.831,9.542,14.651c2.441,3.596,5.155,7.004,7.68,10.545c3.034,4.256,5.807,8.714,9.028,12.82
		c6.693,8.53,11.049,18.423,16.573,27.63c2.852,4.752,6.032,9.307,8.967,14.01c4.523,7.249,8.909,14.584,13.459,21.815
		c2.727,4.331,5.683,8.516,8.485,12.8c1.64,2.507,3.024,5.193,4.797,7.597c2.708,3.67,5.697,7.133,8.488,10.745
		c3.639,4.709,7.184,9.491,10.802,14.218c2.34,3.058,4.803,6.023,7.093,9.117c2.527,3.417,4.86,6.977,7.387,10.393
		c2.621,3.542,5.392,6.972,8.06,10.479c1.288,1.692,2.464,3.47,3.737,5.174c2.549,3.417,5.083,6.846,7.708,10.204
		c4.44,5.68,9.004,11.264,13.409,16.97c4.583,5.938,9.041,11.972,13.551,17.967c2.88,3.828,5.708,7.696,8.643,11.481
		c3.292,4.245,6.732,8.375,10.005,12.632c2.72,3.537,5.303,7.178,7.928,10.787c3.404,4.682,6.8,9.37,10.179,14.07
		c4.352,6.053,8.677,12.125,13.024,18.181c4.947,6.891,9.962,13.735,14.842,20.673c3.239,4.605,6.203,9.406,9.453,14.004
		c4.211,5.957,8.674,11.736,12.862,17.709c4.675,6.667,9.254,13.406,13.713,20.219c5.558,8.491,10.907,17.117,16.431,25.632
		c3.468,5.347,7.141,10.561,10.621,15.9c2.11,3.238,3.986,6.628,6.048,9.9c1.724,2.736,3.623,5.362,5.336,8.105
		c1.992,3.189,3.854,6.461,5.794,9.685c2.768,4.6,5.539,9.197,8.336,13.779c4.332,7.1,8.713,14.169,13.02,21.283
		c2.043,3.373,3.934,6.837,5.943,10.23c3.564,6.021,7.119,12.05,10.77,18.021c4.031,6.594,8.121,13.154,12.271,19.676
		c3.064,4.818,6.295,9.531,9.395,14.328c2.331,3.606,4.604,7.251,6.842,10.916c2.915,4.771,5.714,9.616,8.664,14.365
		c4.856,7.815,9.573,15.729,14.754,23.326c6.521,9.564,13.462,18.842,20.197,28.262c2.87,4.015,5.838,7.973,8.466,12.144
		s4.812,8.62,7.339,12.86c1.502,2.521,3.33,4.845,4.934,7.308c1.996,3.064,3.887,6.195,5.868,9.27
		c1.961,3.044,4.038,6.015,5.959,9.084c3.935,6.291,7.81,12.619,11.689,18.943c3.38,5.511,6.778,11.012,10.081,16.57
		c1.887,3.174,4.211,5.954,6.676,8.689c1.538,1.708,2.443,3.977,3.702,5.949c1.056,1.653,2.212,3.242,3.363,4.916
		c0.299-0.633,0.706-1.617,1.224-2.54c0.254-0.45,0.714-0.786,1.08-1.173C718.884,988.101,718.884,1000.885,718.884,1013.669z"/>
	<path fill-rule="evenodd" clip-rule="evenodd" fill="#FFFFFF" d="M163.159,177.911c-1.626,0.121-3.251,0.259-4.878,0.354
		c-0.778,0.045-1.561,0.008-2.341,0.008c0.212,0.224,0.424,0.448,0.636,0.672c-1.832,1.478-3.772,2.84-5.472,4.458
		c-3.151,2.999-6.405,5.876-9.021,9.44c-2.178,2.966-4.917,5.517-7.37,8.285c-2.27,2.562-4.468,5.187-6.745,7.742
		c-0.874,0.981-1.955,1.781-2.799,2.783c-0.709,0.843-1.213,1.86-1.808,2.8c0-12.151,0-24.303,0-36.542
		C136.628,177.911,149.893,177.911,163.159,177.911z"/>
</g>
</svg>
