<?xml version="1.0" encoding="utf-8"?>
<!-- Generator: Adobe Illustrator 20.1.0, SVG Export Plug-In . SVG Version: 6.00 Build 0)  -->
<svg version="1.1" id="Ebene_1" xmlns="http://www.w3.org/2000/svg" xmlns:xlink="http://www.w3.org/1999/xlink" x="0px" y="0px"
	 viewBox="0 0 841.9 1190.6" style="enable-background:new 0 0 841.9 1190.6;" xml:space="preserve">
<style type="text/css">
	.st0{fill:#FFFFFF;}
</style>
<g>
	<path class="st0" d="M467.1,319.2c0.2,0,0.4,0.1,0.5,0.1c0.2-0.5,0.4-0.9,0.5-1.4c0.5-2.4,0.8-4.8,1.6-7.1
		c1.2-3.6,0.7-6.9-0.8-10.2c-2-4.4-4.1-8.7-7.5-12.2c-1.7-1.8-3.3-3.8-5.3-5.3c-4.8-3.5-10.3-5.2-16.2-6.3
		c-7.2-1.3-14.1-0.3-20.8,2.2c-1.1,0.4-2.3,1.2-3.2-0.3c-0.1-0.1-0.5-0.2-0.7-0.1c-1.8,0.8-4.2,1.3-5.1,2.7
		c-2.2,3.5-4.3,7.3-5.4,11.2c-1.8,6.2-3.3,12.5-3.5,19.1c-0.2,6.1,0,12,1.1,18c1,5.5,1.3,11.2,1.5,16.8c0.3,9.4,0.3,18.8,0.4,28.2
		c0.1,4.7,0.2,9.5,0.4,14.2c0.1,5.6,0.3,11.2,0.4,16.8c0.1,8,0.3,16,0.4,24.1c0,3.1,0,6.2,0.1,9.3c0.2,6.8,0.5,13.5,0.7,20.3
		c0.2,11.3,0.3,22.7,0.4,34.1c0.1,8.9,0.4,17.9,0.3,26.8c0,18.3-0.2,36.6-0.3,54.9c0,0.2,0,0.5,0,0.7c-0.5,7.3-0.8,14.6-1.5,21.9
		c-0.4,4.3-1,8.6-2.1,12.8c-1.9,7.2-7,12.4-12.1,17.6c-2.3,2.3-5.2,4.2-6.3,7.5c-0.2,0.7-0.5,1.4-0.8,2.1c-1.3,2.8-2.8,5.6-3.9,8.5
		c-1,2.7-1.7,5.5-2.5,8.2c-0.1,0.4,0.1,0.9,0.2,1.3c0.1,0.8,0.2,1.5,0.1,2.3c-0.2,2.2-0.9,4.4-0.6,6.5c0.3,2.2-0.2,4-0.7,6
		c-0.4,1.4-0.5,2.9-0.5,4.4c0,1.4,0.2,2.8,0.3,4.3c0.2,3.7,0.1,7.4,0.5,11c0.4,3.8,1.3,7.6,1.7,11.4c0.5,5.4,1.5,10.6,3.3,15.7
		c0.6,1.6,1.5,3.1,1.8,4.7c0.6,3.6,0.7,7.3,1.2,11c0.9,6.3,1.8,12.6,2.9,18.9c1.3,7.5,2.6,15,4.4,22.4c1.8,7.4,2.5,14.9,2.6,22.5
		c0,2-0.2,4,0.2,6c1,4.5,2.2,8.9,3.6,13.3c1.7,5.6,2.5,11.4,3.7,17.1c1.4,6.6,3.6,13,5.8,19.4c1.1,3.1,3,6,4.5,9
		c1.1,2.2,2.4,4.3,3.2,6.6c1.7,4.9,3.9,9.4,7.6,13.1c1,1,1.7,2.3,2.9,2.8c3.5,1.6,6.5,4.7,10.9,3.8c0.6-0.1,1.3,0.4,2,0.6
		c0.3,0.1,0.7,0.3,0.9,0.2c1.3-0.7,2.7-1.4,3.9-2.3c4-3.2,6.5-7.6,8.9-12c1.8-3.3,2.1-7.1,2.1-10.8c0.1-5.9-0.2-11.7-0.3-17.6
		c-0.2-11.6-0.5-23.1-0.7-34.7c-0.1-4.7-0.1-9.5-0.2-14.2c-0.1-3.7-0.4-7.4-0.5-11c-0.3-7.8-0.5-15.6-0.7-23.5
		c-0.2-4.9-0.5-9.9-0.7-14.8c-0.3-6.7-0.5-13.4-0.7-20.1c-0.2-5.8-0.4-11.5-0.6-17.3c-0.3-7.2-0.6-14.4-0.8-21.6
		c-0.2-5.9-0.4-11.8-0.6-17.7c-0.3-9.6-0.6-19.2-0.9-28.8c0-1.4-0.7-3.2,1.2-4.1c0.2-0.1,0.2-0.5,0.2-0.8c0.4-7.4,0.7-14.8,1.1-22.2
		c0.1-2.9,0.3-5.8,0.5-8.7c0.4-5.4,0.8-10.7,1.3-16.1c0.1-0.9,0.4-1.7,0.7-2.5c0.5-1.5,0.8-2.8-0.6-4c-0.3-0.2-0.4-0.7-0.4-1.1
		c0-0.9,0.2-1.8,0.3-2.7c0.2-2.5,0.3-5,0.4-7.5c0-1.5-0.4-3.1-0.3-4.6c0.1-2.6,0.5-5.1,0.7-7.7c0.4-7.8,0.7-15.6,1.1-23.4
		c0.3-6.9,0.7-13.8,1.1-20.6c0.4-7,0.7-14,1.1-21c0.5-8,1-16,1.4-24c0.4-6.8,0.8-13.6,1.1-20.4c0.5-10.4,1-20.8,1.5-31.2
		c0.2-3.8,0.5-7.5,0.7-11.2c0.4-6.6,0.7-13.1,1.1-19.7c0.4-6.3,0.7-12.5,1.1-18.8c0.4-5.7,1.1-11.5,1.4-17.2
		c0.5-8.9,0.7-17.9,1.1-26.8c0.1-2.7,0.5-5.3,0.7-8c0-0.5,0.2-1.1,0-1.4c-0.5-0.8-1.2-1.7-1.9-1.9c-0.5-0.1-1.6,0.7-1.9,1.4
		c-0.6,1.4-1.1,3-1.1,4.6c-0.2,5.7-0.2,11.4-0.4,17.1c-0.1,4.3-0.4,8.7-0.7,13c-0.4,5.5-1,11.1-1.4,16.6c-0.3,4.3-0.4,8.7-0.6,13.1
		c-0.2,4.1-0.3,8.2-0.5,12.4c-0.1,2.4-0.2,4.8-0.4,7.1c-0.5,6.8-1,13.5-1.4,20.3c-0.3,4.1-0.5,8.2-0.7,12.3c-0.4,6-0.7,12-1.1,18
		c-0.3,4.8-0.4,9.7-0.6,14.5c-0.4,8.1-1,16.2-1.4,24.3c-0.2,4-0.3,8.1-0.5,12.1c-0.5,8.2-1,16.3-1.4,24.5c-0.2,3.3-0.2,6.6-0.4,9.9
		c-0.4,6.1-1,12.1-1.4,18.2c-0.2,3.4-0.3,6.9-0.4,10.3c-0.2,6.7-0.5,13.4-0.7,20.2c-0.1,3.6-0.2,7.1-0.3,10.7
		c-0.1,5.2-0.3,10.4-0.5,15.7c-0.1,2.1,0,4.4-0.8,6.1c-1,1.9-1.5,3.8-1.5,5.9c-0.1,6.2-0.2,12.4-0.2,18.6c0.1,9.4,0.4,18.9,0.7,28.3
		c0.3,9.9,0.7,19.8,1.1,29.7c0.2,5.9,0.5,11.8,0.7,17.7c0.4,9.3,0.7,18.7,1.1,28c0.2,4.8,0.5,9.7,0.7,14.5
		c0.3,7.6,0.5,15.2,0.8,22.7c0.2,5.3,0.2,10.7,0.4,16c0.2,9.9,0.5,19.7,0.7,29.6c0.2,6.8,0.3,13.6,0.4,20.4c0.1,5.7,0,11.4,0,17.1
		c0,1.3-0.4,2.6-0.6,3.9c-0.8,4.7-3.9,8.1-6.5,11.8c-0.7,0.9-1.9,1.7-3,2.1c-3.2,1-6.3,0.1-9-1.3c-5.2-2.8-8.9-7-10.9-12.6
		c-0.8-2.3-1.4-4.8-2.7-6.9c-3.9-6.1-7.3-12.4-9.1-19.4c-1.2-4.9-2.2-9.8-3.4-14.7c-1.1-4.6-2.2-9.1-3.4-13.7c-1-3.9-2.5-7.7-3-11.6
		c-0.6-4.4-0.4-8.9-0.4-13.4c0-3-0.4-5.8-1.1-8.7c-1.1-4.6-1.9-9.3-2.9-13.9c-0.8-3.7-1.6-7.4-2.2-11.2c-0.6-3.6-1.2-7.2-1.7-10.8
		c-0.7-4.7-1.3-9.5-2-14.3c-0.7-4.7-0.7-9.6-3.2-13.9c-0.5-0.8-0.9-1.7-1.1-2.6c-0.7-4.9-1.4-9.9-2.1-14.8
		c-0.4-3.4-0.9-6.8-1.2-10.2c-0.4-4.5-0.5-8.9-0.7-13.4c0-0.8-0.2-1.7,0.2-2.3c1.7-3.3,1.3-6.8,1.6-10.3c0.5-4.9,0.7-9.8,1.7-14.6
		c1.2-5.7,4-10.5,7.5-14.9c3.1-4,6.8-7.5,10.3-11.1c2.6-2.7,4.2-6,5.4-9.5c2-5.8,2.5-12,2.9-18.1c0.4-6.1,0.6-12.3,0.7-18.5
		c0.1-6.8,0.1-13.6,0.2-20.4c0-5.4,0-10.7,0-16.1c0-6.8,0.2-13.6,0.2-20.4c-0.2-15.3-0.5-30.5-0.7-45.8c-0.1-11.7-0.1-23.4-0.2-35.1
		c-0.1-8.1-0.4-16.2-0.6-24.3c-0.1-4.9-0.1-9.7-0.3-14.6c-0.1-6.9-0.4-13.8-0.4-20.8c0-4.2,0.3-8.4,0.3-12.6c0-4.5-0.2-9.1-0.3-13.6
		c-0.1-5.2-0.2-10.4-0.4-15.6c-0.1-2.6-0.5-5.2-0.8-7.8c-0.5-4.2-1.4-8.3-1.6-12.5c-0.3-5.2,0-10.4,1.3-15.6
		c1.1-4.5,1.8-9.1,3.9-13.3c0.5-0.9,0.6-2.7,2.4-1.2c0.1,0.1,0.6-0.2,0.9-0.3c1.3-0.6,2.4-1.4,3.8-1.9c5.4-1.8,10.7-3.9,16.6-3.4
		c2.9,0.3,5.8,0.8,8.6,1.4c5.2,1.2,10.1,2.9,13.7,7c1.4,1.6,2.4,3.6,3.6,5.4c3.4,4.6,5.1,9.9,5.8,15.5
		C466.7,313.5,466.8,316.3,467.1,319.2z M717.9,775.5c0.1,0,0.1,0,0.2,0c0-2.9,0-5.7,0-8.6c-0.1,0-0.1,0-0.2,0
		C717.9,769.8,717.9,772.6,717.9,775.5z"/>
	<path d="M467.1,319.2c-0.2-2.9-22.5,360.5-22.8,350.6c-0.3-9.4-0.6-18.9-0.7-28.3c-0.1-6.2,0-12.4,0.2-18.6c0-2,0.5-3.9,1.5-5.9
		c0.9-1.7,0.7-4,0.8-6.1c0.2-5.2,0.3-10.4,0.5-15.7c0.1-3.6,0.2-7.1,0.3-10.7c0.2-6.7,0.5-13.4,0.7-20.2c0.1-3.4,0.2-6.9,0.4-10.3
		c0.4-6.1,1-12.1,1.4-18.2c0.2-3.3,0.2-6.6,0.4-9.9c0.5-8.2,13.8-211.4,14.3-211.3c0.8,0.2,2,2.9,2,3.4c-0.2,2.7-0.6,5.3-0.7,8
		c-0.4,8.9-0.7,17.9-1.1,26.8c-0.3,5.7-1,11.5-1.4,17.2c-0.4,6.3-0.7,12.5-1.1,18.8c-0.4,6.6-0.7,13.1-1.1,19.7
		c-0.2,3.8-0.5,7.5-0.7,11.2c-0.5,10.4-1,20.8-1.5,31.2c-0.3,6.8-0.7,13.6-1.1,20.4c-0.5,8-1,16-1.4,24c-0.4,7-0.7,14-1.1,21
		c-0.4,6.9-0.7,13.7-1.1,20.6c-0.4,7.8-0.7,15.6-1.1,23.4c-0.1,2.6-0.5,5.1-0.7,7.7c-0.1,1.5,0.3,3.1,0.3,4.6c0,2.5-0.2,5-0.4,7.5
		c-0.1,0.9-0.3,1.8-0.3,2.7c0,0.4,0.2,0.9,0.4,1.1c1.4,1.2,1.2,2.5,0.6,4c-0.3,0.8-0.6,1.7-0.7,2.5c-0.5,5.4-0.9,10.7-1.3,16.1
		c-0.2,2.9-0.4,5.8-0.5,8.7c-0.4,7.4-0.7,14.8-1.1,22.2c0,0.3,0,0.8-0.2,0.8c-2,0.9-1.3,2.7-1.2,4.1c0.2,9.6,0.6,19.2,0.9,28.8
		c0.2,5.9,0.4,11.8,0.6,17.7c0.3,7.2,0.5,14.4,0.8,21.6c0.2,5.8,0.4,11.5,0.6,17.3c0.2,6.7,0.5,13.4,0.7,20.1
		c0.2,4.9,0.5,9.9,0.7,14.8c0.3,7.8,0.5,15.6,0.7,23.5c0.1,3.7,0.4,7.4,0.5,11c0.1,4.7,0.1,9.5,0.2,14.2c0.2,11.6,0.5,23.1,0.7,34.7
		c0.1,5.9,0.4,11.7,0.3,17.6c0,3.7-0.3,7.4-2.1,10.8c-2.4,4.4-4.9,8.8-8.9,12c-1.2,0.9-2.6,1.6-3.9,2.3c-0.2,0.1-0.6-0.1-0.9-0.2
		c-0.7-0.2-1.4-0.8-2-0.6c-4.4,0.9-7.4-2.1-10.9-3.8c-1.2-0.5-1.9-1.9-2.9-2.8c-3.7-3.7-5.8-8.3-7.6-13.1c-0.8-2.3-2.1-4.4-3.2-6.6
		c-1.5-3-3.4-5.9-4.5-9c-2.2-6.4-4.4-12.8-5.8-19.4c-1.2-5.7-2-11.5-3.7-17.1c-1.3-4.4-2.6-8.8-3.6-13.3c-0.4-1.9-0.1-4-0.2-6
		c-0.2-7.6-0.8-15-2.6-22.5c-1.8-7.4-3.1-14.9-4.4-22.4c-1.1-6.3-2-12.6-2.9-18.9c-0.5-3.6-0.6-7.3-1.2-11c-0.3-1.6-1.2-3.1-1.8-4.7
		c-1.8-5.1-2.8-10.3-3.3-15.7c-0.4-3.8-1.3-7.6-1.7-11.4c-0.4-3.7-0.3-7.4-0.5-11c-0.1-1.4-0.3-2.8-0.3-4.3c0-1.5,0.1-3,0.5-4.4
		c0.5-2,1-3.9,0.7-6c-0.3-2.1,0.4-4.3,0.6-6.5c0.1-0.8,0-1.5-0.1-2.3c0-0.5-0.3-0.9-0.2-1.3c0.8-2.8,1.4-5.6,2.5-8.2
		c1.1-2.9,2.6-5.6,3.9-8.5c0.3-0.7,0.5-1.4,0.8-2.1c1.1-3.3,4-5.2,6.3-7.5c5.1-5.2,10.2-10.4,12.1-17.6c1.1-4.2,1.7-8.5,2.1-12.8
		c0.7-7.3,1-14.6,1.5-21.9c0-0.2,0-0.5,0-0.7c0.1-18.3,0.3-36.6,0.3-54.9c0-8.9-0.2-17.9-0.3-26.8c-0.1-11.4-0.2-22.7-0.4-34.1
		c-0.1-6.8-0.5-13.5-0.7-20.3c-0.1-3.1,0-6.2-0.1-9.3c-0.1-8-0.2-16-0.4-24.1c-0.1-5.6-0.2-11.2-0.4-16.8c-0.1-4.7-0.3-9.5-0.4-14.2
		c-0.1-9.4-0.1-18.8-0.4-28.2c-0.2-5.6-0.5-11.3-1.5-16.8c-1.1-6-1.3-12-1.1-18c0.3-6.6,1.7-12.9,3.5-19.1c1.1-3.9,3.2-7.7,5.4-11.2
		c0.9-1.4,3.3-1.8,5.1-2.7c0.2-0.1,0.6,0,0.7,0.1c1,1.5,2.1,0.7,3.2,0.3c6.7-2.5,13.6-3.6,20.8-2.2c5.9,1.1,11.4,2.7,16.2,6.3
		c2,1.5,3.6,3.5,5.3,5.3c3.4,3.5,5.5,7.8,7.5,12.2c1.5,3.3,1.9,6.6,0.8,10.2c-0.7,2.3-1,4.7-1.6,7.1c-0.1,0.5-0.4,0.9-0.5,1.4
		C467.4,319.2,467.3,319.2,467.1,319.2z"/>
	<path d="M717.9,775.5c0-2.9,0-5.7,0-8.6c0.1,0,0.1,0,0.2,0c0,2.9,0,5.7,0,8.6C718,775.5,718,775.5,717.9,775.5z"/>
</g>
</svg>
