<?xml version="1.0" encoding="utf-8"?>
<!-- Generator: Adobe Illustrator 20.1.0, SVG Export Plug-In . SVG Version: 6.00 Build 0)  -->
<svg version="1.1" id="Ebene_1" xmlns="http://www.w3.org/2000/svg" xmlns:xlink="http://www.w3.org/1999/xlink" x="0px" y="0px"
	 viewBox="0 0 102 271.4" style="enable-background:new 0 0 102 271.4;" xml:space="preserve">
<g>
	<path d="M35.1,249.1c-1.2-2.2-2.5-4.6-3.7-7.1c-1.7-3.6-2.7-7.4-2.7-11.5c0-3-0.4-5.9-0.3-8.9c0.1-3.3,0.3-6.6,0.8-9.8
		c0.3-2-0.5-3.5-1.3-5.1c-1-2.2-2.2-4.3-3.2-6.5c-0.6-1.3-0.3-2.4,0.6-3.5c0.5-0.6,0.8-1.5,0.8-2.2c0.2-7.3,0.3-14.6,0.4-21.9
		c0-3.8,0-7.6,0-11.5c0-4.1-0.2-8.2-0.2-12.2c-0.1-4-0.1-7.9,0-11.9c0-2.5-1.2-4.3-3.2-5.6c-1.5-1-3.6-1.5-3.9-3.5
		c-0.4-2.4-0.5-5-0.3-7.4c0.1-1.2,1-2.3,1.5-3.5c0.2-0.5,0.4-1,0.4-1.5c0.2-8.2,0.3-16.5,0.5-24.7c0.1-8.6,0.2-17.2,0.3-25.8
		c0.1-9.7,0.2-19.4,0.4-29.1c0.1-3.7,0.2-7.4,0.4-11.2c0.1-1.7,2.3-4.3,4-4.9c2.8-1,5.7-0.5,8.5-0.6c1.4-0.1,2.8-0.2,4.2-0.1
		c2.3,0.2,4.6,0.6,7,0.8c3.6,0.2,7.2,0.2,10.9,0.4c4.3,0.2,8.5,0.6,12.8,0.6c2,0,4-0.8,6-0.9c2.3-0.1,4.7,0.1,7,0.3
		c1.6,0.2,3.5,3.3,3.8,5.6c0.1,1,0.7,1.9,1.1,2.9c0.2,0.5,0.6,1.1,0.7,1.6c0.2,2.8,0.2,5.6,0.4,8.4c0.2,2,0.6,4,0.8,6
		c0.1,0.8,0.4,1.6,0.1,2.3c-1,2.7-0.8,5.3-0.3,8c0.1,0.7-0.3,1.5-0.4,2.2c-0.2,1.6-0.3,3.1-0.4,4.7c0,0.5,0.2,1,0.1,1.4
		c-1,2.4-0.3,4.9-0.3,7.4c-0.1,5.3-0.3,10.7-0.4,16c-0.1,8-0.1,16-0.4,24.1c-0.2,7.1-0.7,14.2-1.1,21.3c-0.1,2.4-1,3.4-3.5,3.9
		c-2.1,0.4-3.5,2.2-3.6,5c-0.3,4.9-0.7,9.8-0.7,14.7c-0.1,5.9,0.3,11.7,0.3,17.6c-0.1,3.8-0.7,7.5-0.9,11.3c-0.1,1.8,0,3.7,0.3,5.5
		c0.4,3.1-1.1,5.7-2,8.5c-0.5,1.6-0.9,3.3-1.3,5c-0.1,0.4-0.2,0.9-0.5,1.1c-1.3,0.9-1.2,2.1-1,3.6c0.4,3.5,0.5,7,0.8,10.4
		c0.2,2.5,0.7,5.1,0.6,7.6c-0.2,3.8-0.7,7.6-1.1,11.3c-0.3,2.2-0.8,4.3-1.3,6.4c-0.1,0.3,0,0.6-0.2,0.9c-2.5,4-4.9,8-7.6,11.9
		c-2.9,4.3-6.6,7.8-11,10.6c-1.8,1.2-3.4,2.7-5.3,3.9c-2.3,1.3-2.3,1.2-3.9-0.9c-0.4-0.5-1.1-0.8-1.5-1.3c-0.8-0.8-1.7-1.6-2.2-2.6
		c-2.2-4.6-4.2-9.2-6.2-13.8C33.7,251.6,34.3,250.5,35.1,249.1z"/>
	<path d="M342.9,194.4c0-3.3,0-6.5,0-9.8c0.1,0,0.1,0,0.2,0c0,3.3,0,6.5,0,9.8C343,194.4,343,194.4,342.9,194.4z"/>
</g>
</svg>
