<?xml version="1.0" encoding="utf-8"?>
<!-- Generator: Adobe Illustrator 20.1.0, SVG Export Plug-In . SVG Version: 6.00 Build 0)  -->
<svg version="1.1" id="Ebene_1" xmlns="http://www.w3.org/2000/svg" xmlns:xlink="http://www.w3.org/1999/xlink" x="0px" y="0px"
	 viewBox="0 0 3021.1 1190.6" style="enable-background:new 0 0 3021.1 1190.6;" xml:space="preserve">
<style type="text/css">
	.st0{fill:#FFFFFF;}
</style>
<g>
	<path class="st0" d="M202.5,241.4c0-0.1,0-0.3,0-0.4c-1.3,0.1-2.6,0.3-3.9,0.4c-6.1,0.6-12.2,1.1-18.2,1.9
		c-3.7,0.5-7.3,1.4-10.8,2.5c-3.9,1.2-7.6,3-11.6,4.2c-3.8,1.2-7.7,2-11.6,3c-2.9,0.7-5.8,1.5-8.3,3.2c-3.5,2.4-4.2,6-4.4,9.8
		c-0.1,2.2,0.2,4.5,0.3,6.8c0.1,2.8,0.2,5.7,0.4,8.5c0.3,4.3,0.7,8.5,1,12.8c0.1,1.7,0,3.4,0,5.2c0.3,8.2,0.7,16.4,1.1,24.6
		c0.2,3.9,0.5,7.8,1.1,11.6c1.2,6.9,2,13.9,2.1,20.9c0,7.5,0.1,15,0,22.4c-0.1,5.7-0.4,11.4-1.1,17c-1,7.1-2.5,14.2-3.8,21.2
		c-0.8,4.4-1.5,8.7-2.3,13.1c-0.6,3.8-1.2,7.6-1.8,11.4c-0.6,3.7-1.2,7.3-1.8,11c-0.8,4.8-1.6,9.6-2.4,14.3
		c-0.9,5.2-2.1,10.4-2.6,15.7c-0.8,8.1-0.9,16.3-1.6,24.5c-0.3,3.6-1,7.1-1.6,10.7c-0.6,3.7-1.5,7.3-2,11
		c-0.8,6.1-1.1,12.3-1.9,18.4c-0.7,5.9-1.4,11.9-2.6,17.7c-1.4,6.9-1.9,13.9-2.4,20.9c-0.2,2.1-0.2,4.3-0.5,6.4
		c-0.4,3.8-1.2,7.5-1.3,11.3c-0.1,5.7,0.4,11.4,0.6,17.1c0.2,4.6,0.2,9.1,0.4,13.7c0.1,3.1,0.4,6.2,0.7,9.3c0.3,2.8,0.8,5.5,1.1,8.3
		c0.3,3.2,0.5,6.5,0.8,9.7c0.5,5.5,0.9,11,1.4,16.5c0.4,4.2,0.3,8.6,1.2,12.7c1.7,8.3,3.9,16.5,5.9,24.7c0.8,3.3,1.7,6.5,2.3,9.8
		c0.7,3.7,0.8,7.4,1.6,11.1c1.1,5.4,2.6,10.8,3.8,16.2c1,4.7,2.1,9.4,2,14.2c-0.1,2.9,0,5.8,0.1,8.7c0.1,2.9,0.3,5.7,0.6,8.6
		c0.2,2.6,0.5,5.2,0.8,7.8c0.4,3.7,1,7.5,1.3,11.2c0.3,3.4,0.2,6.9,0.5,10.3c0.3,4.1-0.3,8-1.5,11.8c-1.4,4.3-2.3,8.7-2.6,13.3
		c-0.1,2-0.6,4.1-1.2,6c-1,2.8-2.3,5.5-3.4,8.3c-1.4,3.5-2.5,7.2-4.2,10.5c-2.2,4.4-3.4,9-3.2,13.7c0.1,4.8-1.5,9.3-1.6,14
		c-0.1,3-0.1,6,0.4,9c0.4,2.5,1.8,4.8,2.4,7.3c1.2,4.4,2.2,8.8,3.3,13.2c1.5,5.9,4.2,11.3,7.1,16.6c2.4,4.3,5.2,8.3,7.9,12.5
		c1.5,2.4,3.3,4.6,4.6,7.1c1,2,1.5,4.3,2.2,6.4c0.2,0.5,0.6,1.1,0.5,1.6c-0.7,3.1,0,4.4,2.8,5.5c0.4,0.1,0.7,0.4,1.1,0.6
		c1.1,0.6,2.4,1.8,3.4,1.7c3.6-0.5,6.9,0.9,10.3,1.5c0.8,0.1,2.3-0.1,2.4-0.5c0.3-1,0.5-2.5-1-3c-2.1-0.8-3.9-2.4-6.7-1.8
		c-2.7,0.6-5.2-1-7.5-2.4c-0.3-0.2-0.6-0.7-0.6-1c0.3-3.7-1.9-6.7-3.1-9.8c-0.9-2.5-3-4.7-4.8-6.8c-3.6-4.4-6.8-9.2-9.3-14.3
		c-1.7-3.4-4-6.6-5.2-10.2c-1.7-5.1-2.6-10.5-3.8-15.8c-0.4-1.8-0.6-3.9-1.6-5.4c-2.5-4-2.5-8.3-1.8-12.7c0.5-3.2,1.4-6.3,1.7-9.4
		c0.4-5.3,0.3-10.6,2.7-15.6c2.2-4.6,3.8-9.5,6-14.1c1.9-4,3.4-8,3.8-12.4c0.4-4.7,1.4-9.2,2.6-13.7c0.9-3.4,1.4-6.9,1.7-10.5
		c0.2-2.3-0.1-4.7-0.3-7c-0.3-4.2-0.3-8.4-0.9-12.6c-1-7.3-2-14.6-2-22c0-3,0.1-6,0-9c-0.1-1.8-0.3-3.6-0.6-5.3
		c-0.7-3.8-1.6-7.6-2.3-11.4c-1.1-5.2-2.2-10.4-3.2-15.7c-0.7-3.6-1.2-7.3-2.1-10.9c-1.4-5.7-3.2-11.2-4.3-16.9c-1.6-8-3-16-4-24.1
		c-0.8-6.3-0.7-12.7-1.2-19c-0.3-4-0.9-8-1.4-12c-0.5-4.9-1.2-9.8-1.5-14.7c-0.3-5.7-0.2-11.5-0.5-17.2c-0.4-7.5-0.3-15,0.5-22.4
		c0.5-4.8,0.9-9.6,1.4-14.3c0.4-3.7,0.6-7.4,1.1-11.1c1.1-7.7,2.5-15.3,3.5-22.9c0.9-6,1.4-12.1,2.2-18.1c0.7-5,1.7-9.9,2.4-14.9
		c0.6-4,1.2-8.1,1.5-12.1c0.3-3.6,0.1-7.3,0.4-10.9c0.6-5.9,1.3-11.9,2.2-17.8c0.8-5.8,1.9-11.6,2.9-17.4c1.1-6.1,2.2-12.2,3.2-18.4
		c1.1-6.5,2-13.1,3.3-19.6c1.5-7.6,3.5-15.2,3.9-23c0.3-6.4,0.8-12.8,1-19.3c0.2-6.8,0.2-13.7,0.1-20.5c-0.1-4.3-0.5-8.5-1-12.8
		c-0.5-5-1.4-10-1.9-15c-0.4-3.6-0.6-7.3-0.7-10.9c-0.3-6-0.5-12.1-0.7-18.1c-0.2-5.3-0.5-10.5-0.7-15.8c-0.2-5.4-0.5-10.9-0.7-16.3
		c-0.1-2.9,1.6-5,4.2-6c3.4-1.3,6.9-2.4,10.2-4.1c2.6-1.3,4.9-2.9,7.7-3.8c3.8-1.2,7.4-2.9,11.2-4.1c3.9-1.2,7.9-2.1,12-2.3
		c1.7-0.1,3.4-0.7,5.1-1C193.6,242.9,198,242.1,202.5,241.4z M-1.4,987.3c0,0.5,0,0.9,0,1.3c0.1,1.4,2.2,3.1,3.8,2.7
		c4.7-1.3,9.4-2.4,13.8-4.8c3.7-2,4.8-4.6,3-8.3c-2.8-5.5-7-10-11.4-14.2c-1.2-1.2-0.8-1.8,0.3-2.1c3-1.1,6.1-2.2,9.2-2.8
		c1.3-0.3,3.2-1,4.3,0.9c0.1,0.1,0.6,0.1,0.8-0.1c1.2-0.7,1.6-2.3,0.7-3.3c-1.5-1.8-3.3-3.3-5.9-3c-4.8,0.6-9.4,1.4-13.6,4
		c-2.7,1.7-3.5,4.3-1.5,6.8c1.9,2.4,4.3,4.4,6.2,6.7c2,2.4,3.7,4.9,5.5,7.4c0.8,1.2,0.6,2.4-0.8,3.1c-1.2,0.7-2.4,1.5-3.7,2.1
		c-0.2,0.1-0.8-0.2-1-0.5c-1.1-1.4-2.4-1.9-4.3-2c-5.1-0.3-10.2-0.7-15.2-1.5c-4-0.6-8-1.7-11.8-2.6c-1.9,3.7,1.2,3.8,3,4.5
		c4.3,1.6,8.6,3,13,4.4C-5.2,986.7-3.3,986.9-1.4,987.3z M206.8,783.8c0.1,0,0.1,0,0.2,0c0-7.1,0-14.2,0-21.2c-0.1,0-0.1,0-0.2,0
		C206.8,769.7,206.8,776.7,206.8,783.8z"/>
	<path d="M334,241c-4.5,0.8-3.7,734.4-4,735.4c-0.1,0.4-166-2.3-166.8-2.5c-3.4-0.6-6.7-2-10.3-1.5c-1,0.1-2.3-1.1-3.4-1.7
		c-0.4-0.2-0.7-0.4-1.1-0.6c-2.8-1.1-3.5-2.4-2.8-5.5c0.1-0.5-0.3-1.1-0.5-1.6c-0.7-2.2-1.1-4.4-2.2-6.4c-1.3-2.5-3-4.7-4.6-7.1
		c-2.7-4.1-5.5-8.2-7.9-12.5c-2.9-5.3-5.6-10.7-7.1-16.6c-1.1-4.4-2.1-8.8-3.3-13.2c-0.7-2.5-2-4.8-2.4-7.3c-0.5-2.9-0.5-6-0.4-9
		c0.1-4.7,1.8-9.2,1.6-14c-0.1-4.7,1-9.3,3.2-13.7c1.7-3.3,6.6-16,7.6-18.8c0.7-1.9,1.1-4,1.2-6c0.3-4.6,1.2-9,2.6-13.3
		c1.2-3.8,1.8-7.7,1.5-11.8c-0.3-3.4-0.2-6.9-0.5-10.3c-0.3-3.8-0.9-7.5-1.3-11.2c-0.3-2.6-0.5-5.2-0.8-7.8
		c-0.2-2.9-0.5-5.7-0.6-8.6c-0.1-2.9-0.2-5.8-0.1-8.7c0.2-4.9-0.9-9.6-2-14.2c-1.2-5.4-2.7-10.7-3.8-16.2c-0.7-3.6-0.9-7.4-1.6-11.1
		c-0.6-3.3-1.5-6.5-2.3-9.8c-2-8.2-4.2-16.4-5.9-24.7c-0.9-4.1-0.8-8.5-1.2-12.7c-0.5-5.5-1-11-1.4-16.5c-0.3-3.2-0.4-6.5-0.8-9.7
		c-0.3-2.8-0.8-5.5-1.1-8.3c-0.3-3.1-0.6-6.2-0.7-9.3c-0.2-4.5-0.2-9.1-0.4-13.7c-0.2-5.7-0.7-11.4-0.6-17.1
		c0-3.8,1.6-15.5,1.7-17.6c0.5-7,1-14,2.4-20.9c1.2-5.8,1.9-11.8,2.6-17.7c0.7-6.1,1.1-12.3,1.9-18.4c0.5-3.7,1.4-7.3,2-11
		c0.6-3.6,1.3-7.1,1.6-10.7c0.6-8.2,0.8-16.4,1.6-24.5c0.5-5.3,1.7-10.5,2.6-15.7c0.8-4.8,1.6-9.6,2.4-14.3c0.6-3.7,1.2-7.3,1.8-11
		c0.6-3.8,1.2-7.6,1.8-11.4c0.7-4.4,1.5-8.7,2.3-13.1c1.3-7.1,2.8-14.1,3.8-21.2c0.8-5.6,1-11.3,1.1-17c0.2-7.5,0.1-15,0-22.4
		c0-7-0.9-14-2.1-20.9c-0.7-3.8-0.9-7.7-1.1-11.6c-0.5-8.2-0.8-16.4-1.1-24.6c-0.1-1.7,0.1-3.4,0-5.2c-0.3-4.3-0.7-8.5-1-12.8
		c-0.2-2.8-0.3-5.7-0.4-8.5c-0.1-2.3-0.4-4.5-0.3-6.8c0.1-3.8,0.9-7.4,4.4-9.8c2.5-1.8,5.4-2.5,8.3-3.2c3.9-1,7.8-1.8,11.6-3
		c3.9-1.2,7.6-3,11.6-4.2c3.5-1.1,7.2-2,10.8-2.5c6-0.8,12.1-1.3,18.2-1.9c1.3-0.1,122.9-0.3,124.2-0.4
		C322.7,241.1,454.2,240.6,334,241z"/>
	<path d="M-1.4,987.3c-1.9-0.4-3.8-0.6-5.6-1.1c-4.4-1.4-8.7-2.8-13-4.4c-1.8-0.7-4.9-0.8-3-4.5c3.8,0.8,7.8,2,11.8,2.6
		c5,0.7,10.1,1.2,15.2,1.5c1.9,0.1,3.2,0.6,4.3,2c0.2,0.3,0.8,0.6,1,0.5c1.3-0.6,2.5-1.4,3.7-2.1c1.3-0.8,1.6-2,0.8-3.1
		c-1.7-2.5-3.5-5.1-5.5-7.4c-2-2.3-4.3-4.3-6.2-6.7c-2-2.5-1.2-5.2,1.5-6.8c4.2-2.6,8.9-3.4,13.6-4c2.6-0.3,4.3,1.2,5.9,3
		c0.9,1.1,0.5,2.7-0.7,3.3c-0.2,0.1-0.7,0.2-0.8,0.1c-1.1-1.8-3-1.2-4.3-0.9c-3.1,0.7-6.2,1.8-9.2,2.8c-1.1,0.4-1.5,1-0.3,2.1
		c4.4,4.2,8.6,8.7,11.4,14.2c1.8,3.7,0.7,6.3-3,8.3c-4.4,2.4-9.1,3.5-13.8,4.8c-1.5,0.4-3.7-1.3-3.8-2.7
		C-1.4,988.2-1.4,987.8-1.4,987.3z"/>
	<path d="M206.8,783.8c0-7.1,0-14.2,0-21.2c0.1,0,0.1,0,0.2,0c0,7.1,0,14.2,0,21.2C206.9,783.8,206.8,783.8,206.8,783.8z"/>
</g>
<g>
	<path class="st0" d="M972.1,975.7c-5.6,0-11.1,0.1-16.7-0.1c-13.6-0.3-27.2-0.8-40.9-1.2c-13.7-0.4-27.4-0.7-41-1.1
		c-14-0.4-28-0.8-42-1.1c-14.6-0.4-29.1-0.7-43.7-1.2c-9-0.3-17.9-1.1-27-1.3c-18-0.4-36-0.5-54-0.8c-27-0.4-54-1-80.9-1.1
		c-19.3-0.1-38.5,0.3-57.8,0.5c-4.4,0.1-8.8,0.2-10.6,2.7c18.9,0.4,37,0.7,55,1.1c-1.4,0.6-2.7,0.6-4,0.6c-14.5,0.1-29,0.1-43.5,0.3
		c-46.7,0.6-93.3,1.5-140,2c-38.3,0.4-76.6,0.4-114.8,0.2c-25.2-0.1-50.3-0.3-75.3,1.3c0,1.4,0,2.8,0,4.2c3.8-0.1,6.7-0.3,9.6-0.3
		c22,0,43.9-0.1,65.9-0.1c53.1,0,106.2,0,159.3-1.1c35.1-0.8,70.4-0.6,105.7-0.9c11.9-0.1,23.8-0.1,35.7-0.3
		c24.8-0.6,49.4-1.8,74.3-0.4c2.8,0.2,5.9-0.4,9.4-0.6c-1.4-1.5-2.3-2.6-3.4-3.8c1.8,0,3.2-0.2,4.6-0.1c18.8,0.5,37.6,0.9,56.4,1.4
		c29.9,0.9,59.7,2,89.6,2.8c32.5,0.9,65.1,1.5,97.7,2.3c17.4,0.4,34.8,0.6,52.2,1c25.5,0.6,51,1.4,76.5,2c18.9,0.4,37.8,0.7,56.7,1
		c28.1,0.4,56.3,1,84.4,1.2c73.6,0.4,147.2,0.5,220.7,0.8c33.8,0.1,67.6,0.5,101.4,0.7c37.1,0.3,74.2,0.6,111.3,0.7
		c62,0.2,124,0.2,186.1,0.2c23.3,0,46.6-0.5,69.9-0.7c33.7-0.2,67.4-0.2,101.1-0.3c18.1-0.1,36.1-0.3,54.1-0.5
		c39.7-0.5,79.3-1,119-1.5c6.3-0.1,12.6-0.1,18.9-0.2c34.4-0.6,68.9-1.3,103.3-1.9c19.3-0.3,38.6-0.4,57.9-0.8
		c38.1-0.7,76.3-1.5,114.4-2.3c23.7-0.5,47.3-1.2,71-1.7c34-0.7,68-1.4,102.1-2c19.3-0.3,38.7-0.1,58-0.3
		c31.1-0.3,62.3-1.3,93.4-0.9c24,0.3,47.4-0.7,71-1.3c8.3-0.2,15.3-1.5,21-4.4c-4.3-0.6-8-1.5-11.4-1.4c-8,0.2-15.8,0.9-23.8,1.3
		c-8.7,0.4-17.5,0.7-26.2,1c-2.2,0.1-4.5,0.1-6.4,0.4c-14.2,2.2-29.5,0.4-44,1.4c-0.3,0-0.6-0.2-1-0.2c-6.1-0.3-12.1-0.8-18.2-1
		c-5.8-0.2-11.7,0-17.5-0.1c-6.1-0.1-14-1.1-17.9-0.1c-6.5,1.6-12.1-0.4-17.9,0.5c-3.2,0.5-7.9-0.5-10.8,1.1c-0.7,0.4-4,0.1-6.1,0.3
		c-9.1,0.6-18-0.4-27-0.5c-13.5-0.2-27.1-0.2-40.6-0.2c-5.9,0-11.8,0.3-17.7,0.4c-3.9,0.1-7.7,0.3-11.6,0.4
		c-3.6,0.1-7.3-0.1-10.9-0.1c-3.6,0.1-7.4,0.1-10.7,0.5c-3.5,0.4-9.3-0.8-10.5,1.1c-1.2,1.9-4.7-0.7-7.1,0.7
		c-1.5,0.9-8.3,1-12.7,1.1c-10.3,0.3-20.8,0.2-31,0.7c-7.3,0.3-15-0.8-21.9,0.8c-0.8,0.2-2.2,0-3.3,0c-5.5-0.1-11-0.5-16.5-0.3
		c-6.1,0.2-12.1,1-18.3,1.2c-26,0.8-52,1.7-78,2.2c-22.4,0.4-44.8,0.4-67.3,0.6c-6.3,0.1-12.7,0-18.7,0.5c-5.1,0.4-9.8-0.2-15,0.1
		c-15.2,0.8-30.9,0.7-46.4,0.9c-23.2,0.3-46.4,0.6-69.6,0.9c-5.9,0.1-11.8-0.2-17.8-0.3c-2.8,0-5.6,0-8.4,0c0,0,0-0.1,0-0.1
		c2.8,0,5.6,0.1,8.4,0.1c-2.7,0.3-5.4,0.8-8.1,0.8c-21,0.3-41.9,0.6-62.9,0.8c-5,0-10.9,0.8-14.7-1.1c-0.1,0-1.9,0.2-2.5,0.5
		c-0.4,0.2-0.1,0.5-0.1,1c-14.1-0.2-27.6-0.6-41-0.6c-13,0.1-25.9,1.6-39-0.1c-2.4-0.3-5.7,0.2-8.6,0.4c-1.4,0.1-2.7,0.2-4.1,0.2
		c-16.6-0.5-33.3-1.5-49.6,0.7c-1.3,0.2-3,0.2-4.4,0.1c-14.8-0.7-29.8,0.3-44.5-0.5c-0.9-0.1-2,0.1-2.8,0.2
		c-7.8,1.6-17.3,1.3-24.3,0.5c-10.2-1.1-19.9-0.5-29.8-0.4c7.3,0,14.6,0,24.5,0c-3.3,0.4-4,0.6-4.6,0.6c-28.7,0-57.5,0.1-86.2,0.1
		c-1.1,0-2.3,0-3.2-0.1c-3.9-0.5-17-1.5-20-1.4c-12.4,0.2-24.8,0.3-37.3,0.4c-11.8,0.1-23.8,0.6-35.4,0.1c-15.6-0.7-31.1-1.3-46.8-1
		c-13.1,0.2-26.3,0.8-38.9-1.1c-0.1,0-1,0.8-1.6,0.8c-7.2,0.1-14.5,0.2-21.7,0.2c-9.7,0.1-19.2-0.4-28.8-0.6
		c-17-0.4-34.1-0.1-51.1-0.2c-4.4,0-8.9-0.8-13.3-0.8c-14.4,0-28.8,0.2-43.3,0.3c-5.5,0-11.1,0-16.6,0c-5.5,0-11.1-0.1-16.6-0.2
		c-5.9-0.1-11.7-0.1-17.6-0.1c-5.5,0-10.9,0.1-16.4,0.1c-4.6,0.1-8.7-1.1-14.2,0c-3.5,0.7-9.4,0.2-14.2,0.1
		c-11.4-0.3-22.9,0.9-34.2-0.5c-3-0.4-6.7,0-10-0.1c-3.1-0.1-5.5-0.2-5.1,1.2c-2.4-0.2-4.9-0.4-7.2-0.7c-1.6-0.2-3.3-0.8-4.5-0.7
		c-8.4,1-16.5-0.7-25.3,0c-9.1,0.7-19.1,0.3-28.7,0.1c-9.7-0.1-19.3-0.7-29-0.9c-12.9-0.2-25.8-0.3-38.7-0.5
		c-14.9-0.3-30-0.4-44.8-1.1c-18.4-0.9-36.6-2.3-55.4-1.7c-1.9,0.1-3.8,0-5.6-0.1c0-0.1,0.1-0.3,0.1-0.4c2.5-0.1,5-0.2,7.4-0.3
		c-4.6-0.3-8.9,0.1-13.2,0c-8.2-0.1-16.8,0.9-24.6-0.7c6.4,0,12.9,0,19.3,0c-3.3-0.3-6.5-0.3-9.7-0.3
		C978.3,975.5,975.2,975.6,972.1,975.7z M339.2,238c1.3-0.1,3.3-0.6,5-0.5c20.1,1.1,40.1,2.6,60.3,3.2c35.1,1,70.3,1.5,105.5,2.2
		c15.9,0.3,31.8,0.7,47.7,1.1c26.6,0.6,53.3,1.3,79.9,1.9c16.3,0.4,32.6,0.5,48.8,1.1c50.9,1.9,102,2.7,153.1,3.4
		c31.2,0.4,62.4,0.2,93.7,0.3c20.4,0.1,40.8,0.3,61.2,0.6c38.2,0.6,76.4,0.9,114.7,0c19.6-0.5,39.2-1.1,58.8-1.3
		c39-0.4,78-0.4,117,0.4c26.2,0.6,52.6,0.4,78.9,0.4c28.2,0,56.4-0.2,84.7-0.3c27.4-0.1,54.7-0.3,82.1-0.2
		c39.3,0.2,78.6,0.7,117.9-0.3c37-0.9,74-1.8,111-2.5c33.7-0.6,67.4-1.1,101.1-1.6c38.9-0.5,77.8-0.9,116.8-1.4
		c33.8-0.4,67.5-0.9,101.2-1.3c18.2-0.2,36.3-0.4,54.5-0.8c32.6-0.7,65.1-1.6,97.7-2.4c32.2-0.8,64.4-1.5,96.6-2.2
		c17.8-0.4,35.6-0.5,53.4-1c28.4-0.8,56.8-1.9,85.2-2.6c28.5-0.7,57-1.1,85.5-1.6c11.1-0.2,22.3-0.2,33.4-0.4
		c32.2-0.6,64.2-1.9,96.2-3.2c42.5-1.8,82-6.7,121.4-11.8c6.9-0.9,13.5-1.9,21.3-1.9c5.3,0,10.7-0.9,15.9-1.5
		c11.6-1.4,23-1.5,35,0.3c-0.3-1.6-0.5-3-0.7-4.2c-10.7,0.2-20.4-0.3-29,0.6c-12.1,1.2-24.1,2.1-36.5,2.8c-4,0.2-7.9,0.8-11.6,1.3
		c-35.2,5.3-70.9,10.2-109.7,11.7c-23.2,0.9-46.4,1.9-69.6,2.7c-15.1,0.5-30.4,0.6-45.6,0.8c-24.1,0.4-48.2,0.7-72.2,1.3
		c-24,0.6-48,1.4-72,2.1c-19.5,0.6-39.1,1.2-58.6,1.6c-18.9,0.4-37.8,0.6-56.7,1.1c-26.3,0.6-52.5,1.4-78.8,2
		c-22.9,0.6-45.8,1.2-68.8,1.7c-25.1,0.6-50.3,1.1-75.4,1.5c-28.2,0.4-56.4,0.4-84.5,0.8c-21.8,0.3-43.6,0.9-65.5,1.2
		c-22.3,0.3-44.5,0.5-66.8,0.8c-38.2,0.5-76.4,1-114.6,1.5c-16.7,0.2-33.4,0.7-50,1c-28.5,0.6-56.9,1.6-85.4,1.9
		c-30.7,0.2-61.5-0.3-92.3-0.4c-25.3-0.1-50.5,0.1-75.8,0c-42.3-0.2-84.6-0.4-126.9-0.8c-27-0.3-54-1.2-81.1-1.3
		c-29.7-0.1-59.4,0.2-89,0.6c-20.3,0.3-40.6,1.4-60.9,1.4c-38.5,0.1-77.1-0.4-115.6-0.6c-37.8-0.2-75.5-0.4-113.3-0.8
		c-42.6-0.4-85.3-0.9-127.9-1.7c-37-0.7-73.9-1.9-110.8-2.8c-40.3-1-80.6-2.1-120.9-3c-30-0.7-60-1.1-90-1.5
		c-24.6-0.3-48.6-1.9-72.1-4.3c-6.7-0.7-13.3-1.5-20.1-2.1c-8.1-0.6-11.1,0-16.1,3.1C319.3,235.3,328.8,236.6,339.2,238z
		 M2887.4,510.1c-0.2,0-0.5,0-0.7,0c0,1.1,0,2.3,0,3.4c0.2,0,0.5,0,0.7,0C2887.4,512.4,2887.4,511.2,2887.4,510.1z M1838.6,984.7
		c0-0.2,0-0.3,0-0.5c-1.4,0.1-2.7,0.1-4.1,0.2c0,0.1,0.1,0.2,0.1,0.3C1835.9,984.7,1837.2,984.7,1838.6,984.7z"/>
	<path d="M2892.5,724.1c-0.5-4.4-1.3-8.9-1.5-13.3c-0.3-7.2-0.2-14.3-0.1-21.5c0-1.2,1.1-2.3,1.6-3.5
		C2892.5,698.5,2892.5,711.3,2892.5,724.1z"/>
	<path d="M2892.5,681.2c0-1.5,0-3,0-4.5C2892.5,678.2,2892.5,679.7,2892.5,681.2z"/>
	<path d="M310.5,980.2c0,0,7.2-750,15.4-749.4c6.8,0.5,13.4,1.4,20.1,2.1c23.5,2.4,47.4,3.9,72.1,4.3c30,0.4,170.6,3.5,210.9,4.5
		c36.9,0.9,73.8,2.1,110.8,2.8c42.6,0.8,85.3,1.2,127.9,1.7c37.7,0.4,75.5,0.5,113.3,0.8c676.3,4.4-493.1,1.6,115.6,0.6
		c20.3,0,40.6-1.2,60.9-1.4c29.7-0.4,59.4-0.7,89-0.6c27,0.1,54,1.1,81.1,1.3c42.3,0.4,84.6,0.6,126.9,0.8c25.3,0.1,50.5,0,75.8,0
		c30.8,0.1,61.6,0.6,92.3,0.4c28.5-0.2,56.9-1.2,85.4-1.9c16.7-0.4,33.3-0.8,50-1c38.2-0.6,76.4-1,114.6-1.5
		c22.3-0.3,44.5-0.4,66.8-0.8c21.8-0.3,43.6-0.9,65.5-1.2c28.2-0.4,56.4-0.4,84.5-0.8c25.2-0.3,50.3-0.9,75.4-1.5
		c22.9-0.5,45.9-1.1,68.8-1.7c26.3-0.7,52.5-1.4,78.8-2c18.9-0.4,37.8-0.6,56.7-1.1c19.6-0.5,39.1-1.1,58.6-1.6
		c24-0.7,47.9-1.5,72-2.1c24.1-0.6,48.2-0.9,72.2-1.3c15.2-0.3,30.4-0.3,45.6-0.8c23.2-0.7,46.4-1.7,69.6-2.7
		c38.8-1.5,74.5-6.4,109.7-11.7c3.7-0.6,7.6-1.1,11.6-1.3c12.4-0.6,24.5-1.6,36.5-2.8c8.6-0.8,18.3-0.4,29-0.6
		c0.2,1.2,55,358.7,55.2,360.3c-12-1.7-39.6,398.1-44.9,398.2L310.5,980.2z"/>
	<path d="M972.1,975.7c3.1-0.1,6.2-0.3,9.4-0.3c3.2-0.1,6.4,0,9.7,0.3c-6.4,0-12.9,0-19.3,0C971.8,975.7,972.1,975.7,972.1,975.7z"
		/>
	<path d="M2887.4,510.1c0,1.1,0,2.3,0,3.4c-0.2,0-0.5,0-0.7,0c0-1.1,0-2.3,0-3.4C2886.9,510.1,2887.2,510.1,2887.4,510.1z"/>
	<path d="M2130.7,982.4c-2.8,0-5.6-0.1-8.4-0.1c0,0,0,0.1,0,0.1C2125.1,982.3,2127.9,982.3,2130.7,982.4
		C2130.7,982.3,2130.7,982.4,2130.7,982.4z"/>
	<path d="M1838.6,984.7c-1.3,0-2.7,0-4,0c0-0.1-0.1-0.2-0.1-0.3c1.4-0.1,2.7-0.1,4.1-0.2C1838.5,984.4,1838.5,984.5,1838.6,984.7z"
		/>
	<path class="st0" d="M1911.2,984.1c4.7,0,9.4,0,14.1,0c0,0.2,0,0.3,0,0.5c-4.7,0-9.4,0-14.1,0
		C1911.2,984.4,1911.2,984.2,1911.2,984.1z"/>
	<path class="st0" d="M1933.2,984.1c3.3,0,6.6,0,9.9,0c0,0.1,0,0.3,0,0.4c-3.3,0-6.6,0-9.9,0
		C1933.2,984.4,1933.2,984.2,1933.2,984.1z"/>
	<path class="st0" d="M1698.7,984.8c2.3,0.1,4.5,0.1,6.8,0.2c0,0.1,0,0.2,0,0.3c-2.3,0-4.5,0-6.8,0
		C1698.7,985.1,1698.7,985,1698.7,984.8z"/>
</g>
</svg>
