<?xml version="1.0" encoding="utf-8"?>
<!-- Generator: Adobe Illustrator 17.0.0, SVG Export Plug-In . SVG Version: 6.00 Build 0)  -->
<!DOCTYPE svg PUBLIC "-//W3C//DTD SVG 1.1//EN" "http://www.w3.org/Graphics/SVG/1.1/DTD/svg11.dtd">
<svg version="1.1" id="Layer_1" xmlns="http://www.w3.org/2000/svg" xmlns:xlink="http://www.w3.org/1999/xlink" x="0px" y="0px"
	 width="145.085px" height="1311.196px" viewBox="0 0 145.085 1311.196" enable-background="new 0 0 145.085 1311.196"
	 xml:space="preserve">
<path fill-rule="evenodd" clip-rule="evenodd" fill="none" d="M32.563,1288.402c0.093,4.252,5.126,16.101,4.342,17.367
	c-0.71,0.747-0.135,0.375-1.447,0.724c-10.216-6.834-8.164-46.093-6.513-67.658c3.065-40.032-0.413-94.378,3.618-137.487
	c0.121-16.883,0.241-33.771,0.362-50.653c0-8.924,0-17.85,0-26.774c0.362-35.695,0.724-71.401,1.086-107.095
	c1.447-119.385,2.895-238.806,4.342-358.191c0.723-42.086,1.447-84.185,2.171-126.271c0.241-24.239,0.482-48.485,0.724-72.724
	c0.052-1.983-1.45-3.619-1.809-4.703c0.241-8.441,0.482-16.885,0.724-25.327c0.965-71.993,1.93-144.007,2.895-216
	c0-27.012,0-54.033,0-81.045c1.809-3.859,3.618-7.719,5.427-11.578c7.827-2.724,23.03-2.357,34.734-1.085
	c7.738,0.841,18.529-0.148,31.116,0.724c2.512,5.846,6.83,11.74,10.492,17.005c-0.74,1.497-1.13,2.055-2.533,2.894
	c-0.603-0.241-1.206-0.482-1.809-0.724c-0.798-2.689-2.118-5.219-3.98-6.874c-3.497,186.434-6.995,372.923-10.492,559.357
	c-1.206,123.123-2.412,246.284-3.618,369.407c-0.121,23.756-0.241,47.52-0.362,71.276c-0.844,53.542-1.689,107.101-2.533,160.643
	c-0.482,23.756-0.965,47.52-1.447,71.276c-0.241,6.874-0.482,13.75-0.724,20.623c-1.81,5.375-8.099,6.819-11.216,10.854
	c-1.425,1.845-2.057,4.136-3.618,5.789c-1.016-0.585-1.542-0.769-2.171-1.809c-0.121-1.326-0.241-2.653-0.362-3.98
	c-2.19-0.692-2.691-0.728-4.342-1.447c-0.482-1.327-0.965-2.653-1.447-3.98c-4.019,1.886-19.095,0.44-20.623,0
	c-5.185,0-10.372,0-15.558,0c-0.844-0.844-1.688-1.688-2.533-2.533C34.493,1288.402,33.528,1288.402,32.563,1288.402z"/>
<path fill-rule="evenodd" clip-rule="evenodd" fill="none" d="M104.925,1090.492c0.241,0.482,0.482,0.965,0.724,1.447
	c-0.121,0-0.241,0-0.362,0C105.166,1091.457,105.045,1090.975,104.925,1090.492z"/>
<path fill-rule="evenodd" clip-rule="evenodd" fill="none" d="M87.196,1290.573c-2.289,1.176-7.082,0.802-10.493,0.724
	c0.121,0.482,0.241,0.965,0.362,1.447c1.064,1.785,2.811,3.43,4.703,3.256c1.261-2.594,4.077-3.65,6.151-5.427
	C87.678,1290.573,87.437,1290.573,87.196,1290.573z"/>
<path fill-rule="evenodd" clip-rule="evenodd" fill="none" d="M75.618,1291.296c0.121,0.362,0.241,0.724,0.362,1.085
	c0.121,0,0.241,0,0.362,0C75.886,1291.288,76.348,1291.949,75.618,1291.296z"/>
</svg>
