<?xml version="1.0" encoding="utf-8"?>
<!-- Generator: Adobe Illustrator 16.0.1, SVG Export Plug-In . SVG Version: 6.00 Build 0)  -->
<!DOCTYPE svg PUBLIC "-//W3C//DTD SVG 1.1//EN" "http://www.w3.org/Graphics/SVG/1.1/DTD/svg11.dtd">
<svg version="1.1" id="Layer_1" xmlns="http://www.w3.org/2000/svg" xmlns:xlink="http://www.w3.org/1999/xlink" x="0px" y="0px"
	 width="86.996px" height="1271.937px" viewBox="0 0 86.996 1271.937" enable-background="new 0 0 86.996 1271.937"
	 xml:space="preserve">
<g>
	<g>
		<path fill-rule="evenodd" clip-rule="evenodd" d="M16.178,1259.391c-0.851,1.209-1.915,0.603-2.405-0.354
			c-0.847-1.654-1.682-3.448-1.9-5.259c-0.317-2.628-0.1-5.322-0.078-7.988c0.061-7.419,0.199-14.837,0.192-22.255
			c-0.008-9.762-0.127-19.523-0.195-29.285c-0.028-3.977-0.059-7.954-0.07-11.931c-0.014-4.821-0.018-9.644-0.009-14.464
			c0.009-4.464,0.085-8.928,0.046-13.39c-0.027-3.022-0.274-6.043-0.289-9.064c-0.014-2.769,0.195-5.537,0.218-8.306
			c0.012-1.491-0.22-2.983-0.232-4.475c-0.018-2.1,0.104-4.199,0.098-6.299c-0.012-3.352-0.106-6.703-0.118-10.055
			c-0.021-6.035-0.006-12.071-0.006-18.106c0-5.562,0-11.125,0-16.688c0-4.981,0-9.964,0-14.946c0-8.862,0.034-17.725-0.016-26.587
			c-0.021-3.729-0.275-7.458-0.32-11.188c-0.061-4.992-0.023-9.985-0.025-14.979c-0.002-5.501-0.034-11.002,0.016-16.502
			c0.02-2.15,0.33-4.3,0.319-6.448c-0.014-2.812-0.305-5.624-0.319-8.438c-0.044-9.044-0.011-18.089-0.019-27.134
			c-0.004-4.774-0.025-9.548-0.052-14.321c-0.1-18.104-0.209-36.208-0.304-54.312c-0.022-4.285-0.003-8.571-0.003-12.856
			c0-3.249-0.002-6.498-0.004-9.747c-0.001-3.265,0.028-6.53-0.012-9.795c-0.098-7.829-0.286-15.657-0.332-23.486
			c-0.061-10.519-0.023-21.037-0.025-31.556c0-4.038,0.048-8.076,0.002-12.113c-0.091-7.938-0.244-15.874-0.347-23.812
			c-0.038-2.87,0.024-5.742-0.012-8.612c-0.153-12.119-0.372-24.237-0.473-36.356c-0.057-6.751,0.115-13.504,0.098-20.256
			c-0.008-3.314-0.28-6.629-0.304-9.944c-0.016-2.154,0.283-4.311,0.287-6.466c0.004-2.039-0.257-4.078-0.275-6.119
			c-0.013-1.419,0.293-2.842,0.277-4.261c-0.074-6.521-0.295-13.041-0.302-19.561c-0.005-5.368,0.305-10.737,0.31-16.106
			c0.005-5.16-0.33-10.321-0.29-15.479c0.073-9.371,0.351-18.74,0.468-28.111c0.049-3.944-0.139-7.89-0.135-11.835
			c0.005-3.754,0.144-7.508,0.181-11.263c0.03-3.135-0.025-6.271-0.001-9.406c0.034-4.207,0.143-8.413,0.157-12.619
			c0.026-8.088,0.019-16.175-0.007-24.263c-0.003-1.001-0.217-2-0.315-3.002c-0.035-0.359-0.138-0.775-0.007-1.076
			c1.488-3.412,0.981-7.02,1.046-10.562c0.066-3.677,0.107-7.359-0.017-11.033c-0.091-2.668-0.617-5.322-0.69-7.989
			c-0.172-6.244-0.249-12.492-0.257-18.738c-0.011-8.764,0.116-17.529,0.108-26.293c-0.005-6.16-0.201-12.319-0.197-18.479
			c0.003-6.789,0.159-13.576,0.206-20.364c0.035-5.073,0.021-10.146-0.012-15.218c-0.018-2.736-0.189-5.472-0.174-8.207
			c0.089-16.254,0.215-32.509,0.323-48.763c0.017-2.59-0.005-5.182,0.003-7.772c0.119-37.66,0.22-75.32,0.372-112.981
			c0.05-12.452,0.244-24.904,0.344-37.356c0.041-5.093-0.029-10.187,0.017-15.279c0.095-10.633,0.2-21.268,0.361-31.9
			c0.145-9.596,0.41-19.189,0.538-28.785c0.053-3.945-0.193-7.893-0.171-11.838c0.089-16.328,0.234-32.656,0.346-48.984
			c0.053-7.768,0.085-15.537,0.107-23.305c0.003-1.248,0.022-2.513-0.171-3.738c-0.51-3.239,4.779-5.496,6.936-3.753
			c0.219,0.177,0.658,0.117,0.994,0.107C23.596,7.171,27.54,6.93,31.48,6.958c5.146,0.037,10.291,0.395,15.437,0.411
			c5.375,0.017,10.75-0.261,16.126-0.302c2.461-0.019,4.938,0.113,7.379,0.403c0.771,0.091,1.738,0.757,2.118,1.438
			c0.852,1.522,3.231,2.008,2.685,4.545c-0.495,2.294-0.548,4.712-0.559,7.076c-0.052,11.396-0.023,22.792-0.023,34.189
			c0,10.157,0,20.314,0,30.472c0,16.747,0,33.494,0,50.24c0,10.857,0,21.714,0,32.571c0,13.612,0,27.224,0,40.836
			c0,23.955,0,47.91,0,71.865c0,42.718-0.011,85.437,0.01,128.155c0.004,7.669,0.198,15.338,0.195,23.007
			c-0.002,8.388-0.151,16.775-0.198,25.163c-0.034,6.152-0.023,12.305-0.002,18.458c0.02,5.614,0.109,11.227,0.112,16.841
			c0.002,4.874-0.137,9.748-0.1,14.621c0.035,4.468,0.296,8.935,0.316,13.403c0.015,3.345-0.276,6.692-0.277,10.038
			c-0.002,3.284,0.225,6.566,0.288,9.851c0.053,2.75,0.017,5.502,0.017,8.254c0.001,8.02-0.027,16.04,0.017,24.059
			c0.014,2.559,0.288,5.117,0.314,7.677c0.02,1.943-0.229,3.888-0.237,5.833c-0.006,1.54,0.231,3.079,0.258,4.62
			c0.083,4.888,0.161,9.777,0.162,14.665c0.003,8.51-0.095,17.02-0.071,25.529c0.014,5.01,0.245,10.02,0.26,15.029
			c0.018,5.833-0.15,11.667-0.141,17.501c0.017,10.605,0.084,21.212,0.173,31.817c0.034,4.077,0.276,8.154,0.264,12.231
			c-0.019,6.188-0.199,12.375-0.266,18.563c-0.044,4.081-0.048,8.163,0.008,12.244c0.029,2.187,0.292,4.371,0.317,6.558
			c0.016,1.362-0.33,2.729-0.313,4.092c0.075,6.325,0.295,12.65,0.318,18.976c0.02,5.12-0.251,10.242-0.24,15.362
			c0.016,7.392,0.219,14.781,0.252,22.173c0.047,10.519-0.017,21.038,0.023,31.558c0.021,5.484,0.225,10.968,0.229,16.452
			c0.005,4.783-0.232,9.567-0.221,14.351c0.015,6.448,0.229,12.896,0.238,19.344c0.007,5.23-0.195,10.46-0.244,15.69
			c-0.027,2.838,0.065,5.677,0.112,8.515c0.074,4.535,0.21,9.071,0.216,13.606c0.005,4.075-0.156,8.15-0.199,12.226
			c-0.055,5.169-0.09,10.339-0.087,15.509c0.005,7.648,0.031,15.296,0.086,22.944c0.046,6.469,0.192,12.938,0.209,19.406
			c0.033,13.413-0.014,26.827,0.025,40.241c0.011,3.656,0.283,7.312,0.3,10.969c0.013,2.588-0.263,5.177-0.301,7.767
			c-0.056,3.811-0.06,7.624-0.002,11.435c0.065,4.352,0.278,8.7,0.322,13.051c0.03,2.933-0.18,5.865-0.178,8.798
			c0.003,4.205,0.146,8.409,0.141,12.614c-0.002,2.282-0.27,4.563-0.266,6.846c0.003,2.083,0.318,4.166,0.311,6.248
			c-0.027,7.398-0.208,14.798-0.195,22.196c0.036,21.267,0.141,42.533,0.214,63.8c0.023,6.619-0.001,13.24,0.062,19.859
			c0.048,4.993,0.177,9.985,0.31,14.977c0.089,3.347,0.555,6.606,1.575,9.846c0.893,2.831,0.642,5.849-0.064,8.76
			c-0.318,1.314-0.664,2.638-1.168,3.888c-1.204,2.984-3.413,4.704-6.679,4.955c-0.18,0.014-0.459-0.048-0.525,0.045
			c-1.409,1.967-2.711,0.507-4.059-0.086c-0.421-0.186-0.908-0.308-1.365-0.309c-7.073-0.019-14.146-0.058-21.219,0.002
			c-5.281,0.045-10.562,0.33-15.841,0.304c-2.971-0.014-5.947-0.373-8.903-0.729C18,1260.387,17.122,1259.785,16.178,1259.391z
			 M42.861,128.764c1.187-0.339,2.411-0.583,3.552-1.038c2.545-1.015,4.142-3.894,3.661-6.227c-0.592-2.875-3.758-5.067-6.321-4.572
			c-2.279,0.441-4.157,1.64-5.353,3.571c-0.704,1.137-1.482,2.771-1.166,3.877C37.807,126.383,40.102,128.677,42.861,128.764z
			 M43.619,412.968c2.106,0,4.982-1.659,5.648-3.561c0.22-0.627-0.271-1.598-0.641-2.305c-0.256-0.491-0.894-0.769-1.304-1.196
			c-2.079-2.17-4.698-2.9-7.588-2.787c-1.918,0.075-3.096,1.446-3.079,3.375C36.688,410.21,39.655,412.968,43.619,412.968z
			 M49.333,1144.93c0.305-3.299-2.424-4.728-3.965-6.767c-0.215-0.285-1.217-0.154-1.764,0.039c-0.637,0.226-1.182,0.722-1.752,1.12
			c-2.752,1.922-4.204,4.765-1.944,7.308c0.499,0.561,0.975,1.144,1.493,1.685c2.045,2.134,5.193,2.241,6.767,0.045
			C48.842,1147.421,48.962,1146.085,49.333,1144.93z M42.405,859.308c-1.05-0.697-1.761-1.188-2.489-1.65
			c-1.726-1.1-2.676-0.741-3.204,1.235c-0.122,0.455-0.074,0.952-0.137,1.426c-0.361,2.719,0.845,4.474,3.562,5.168
			c2.129,0.545,5.806-1.164,6.431-2.989c0.819-2.389,0.157-5.032-1.951-6.219c-1.666-0.938-3.393-2.611-5.675-1.082
			C42.109,857.394,42.109,857.394,42.405,859.308z M73.119,935.731c1.252-1.119,1.224-5.14,0-6.146
			C73.119,931.604,73.119,933.597,73.119,935.731z"/>
		<path fill-rule="evenodd" clip-rule="evenodd" fill="#FFFFFF" d="M38.941,855.196c2.282-1.529,4.009,0.145,5.675,1.082
			c2.108,1.187,2.771,3.83,1.951,6.219c-0.625,1.825-4.302,3.534-6.431,2.989c-2.717-0.694-3.922-2.449-3.562-5.168
			c0.063-0.474,0.015-0.971,0.137-1.426c0.528-1.977,1.478-2.335,3.204-1.235"/>
		<path fill-rule="evenodd" clip-rule="evenodd" fill="#FFFFFF" d="M73.119,935.731c0-2.135,0-4.128,0-6.146
			C74.342,930.592,74.371,934.612,73.119,935.731z"/>
	</g>
</g>
</svg>
