<?xml version="1.0" encoding="utf-8"?>
<!-- Generator: Adobe Illustrator 20.1.0, SVG Export Plug-In . SVG Version: 6.00 Build 0)  -->
<svg version="1.1" id="Ebene_1" xmlns="http://www.w3.org/2000/svg" xmlns:xlink="http://www.w3.org/1999/xlink" x="0px" y="0px"
	 viewBox="0 0 521 560" style="enable-background:new 0 0 521 560;" xml:space="preserve">
<style type="text/css">
	.st0{fill:#FFFFFF;}
</style>
<g>
	<path class="st0" d="M435.1,355.4c1,0.7,1.5,1.1,2,1.4c2.3,1,4.6,2,6.9,3.1c1.4,0.6,3.1,1,3.9,2.1c1.8,2.4,3.4,5.1,4.7,7.9
		c0.8,1.6,1.3,3.3,3.3,3.8c0.2,0,0.3,0.4,0.3,0.7c0.5,5.4,3.8,9.5,6.7,13.6c1.9,2.8,4.7,5,6.5,7.9c2.5,4,6.5,5.7,10.4,7.2
		c2.4,0.9,5.5,0.2,8.3,0.1c0.4,0,0.9-0.5,1.1-1c0.9-1.8,1.8-3.7,2.4-5.6c0.7-2.4,1.2-4.9,1.4-7.3c0.2-3.1,0.2-6.2-0.2-9.2
		c-0.4-3.1-1.2-6.2-1.9-9.4c-1-5-1.8-10-2.8-14.9c-1.2-6-2.8-11.8-3.6-17.8c-0.9-6.2-2.4-12.2-4.6-17.9c-2.7-6.9-5.9-13.6-8.9-20.4
		c-2.9-6.6-5.8-13.3-8.8-19.9c-1.4-3.1-2.7-6.3-4.5-9.2c-4.3-7-8.1-14.3-10.6-22.1c-1.4-4.3-2-8.8-2.9-13.3c-0.7-3.6-1-7.3-2-10.9
		c-1.6-6-3.4-12-5.5-17.8c-1.9-5.2-4.3-10.3-6.4-15.5c-1.4-3.5-3.1-6.9-4.1-10.5c-1-3.4-1.2-7-1.9-10.4c-1.1-5.5-2.3-11-3.7-16.5
		c-1.4-5.7-3.2-11.3-4.6-17c-1.3-5.2-3-10.1-5.7-14.7c-2.8-4.7-5.7-9.4-8.8-13.9c-2.6-3.8-5.5-7.5-8.3-11.2c-4-5.4-8-10.8-12.2-16
		c-2.8-3.5-5.7-6.9-8.7-10.1c-3.7-3.9-7.7-7.5-11.3-11.5c-4-4.3-7.7-8.8-11.5-13.2c-6.5-7.7-15.4-11.2-24.5-14.4
		c-4.6-1.6-9.6-2.5-14.5-3.1c-6.6-0.9-13.3-1.3-20-1.6c-3.2-0.1-6.4,0.5-9.6,0.6c-5.5,0.1-10.8,1.2-16.2,2.4c-4,0.9-8,2.1-12.1,2.7
		c-4.9,0.7-9.6,2-13.9,4.3c-5.1,2.7-10.3,5.3-14.6,9.3c-5.3,4.8-10.9,9.2-16.1,14.1c-5.6,5.3-10.9,10.9-16.4,16.3
		c-5.5,5.4-11.1,10.7-16.5,16.2c-3.7,3.8-7.2,7.9-10.6,12c-4.8,6-9.5,12-13.8,18.2c-2.9,4.2-5.2,8.9-7.5,13.5
		c-2.3,4.6-4.2,9.3-6.3,14c-1.4,3.2-2.9,6.3-4.2,9.5c-1.9,4.6-3.5,9.4-5.4,14c-4,9.5-7.9,19-10.4,29.1c-2.3,9.2-4.1,18.5-4,28
		c0.1,5.8-0.9,11.2-3,16.5c-0.5,1.3-1.4,2.3-3,2.5c-6,1-11.5,3.4-16.7,6.6c-3,1.9-5.5,4.5-8.4,6.6c-5.9,4.5-12.1,8.5-17.6,13.6
		c-4.2,3.9-8.3,7.8-11.3,12.6c-2.3,3.6-4.3,7.3-6.1,11.1c-1.2,2.6-1.5,5.7-2.7,8.4c-3.2,7.1-4.7,14.7-6.2,22.2c-1.3,6.9-2.1,14-3,21
		c-0.2,1.7-0.7,3.4-0.6,5c0.3,2.7,1.3,5.3,1.7,7.9c0.7,4.9,2,9.6,4.4,13.9c0.2,0.3,0.2,0.7,0.3,1c1.7,4.3,3.1,9,7.6,11.2
		c3.4,1.7,6.4,4.7,10.7,3.9c0.5-0.1,1,0.2,1.5,0.3c1.2,0.3,2.3,0.1,2.8-1.3c0.3-0.8,0.7-1.5,1.1-2.2c1.2-1.8,2.7-3.4,3.6-5.3
		c2.4-4.9,4.7-9.7,6.6-14.8c1.3-3.4,2-7,2.8-10.6c1.2-5.6,2-11.2,3.2-16.8c1.2-5.5,2.6-10.9,2.3-16.7c-0.1-1.9,0.2-3.9,0.4-5.9
		c0.6-4.4,1.6-8.8,2-13.3c0.5-5.4,3.1-9,8.1-11.1c2.7-1.1,5.4-2.3,8.1-3.4c3.4-1.4,6.8-2.7,10.1-4c0.9-0.4,1.4-0.3,1.5,0.7
		c0.2,1.8,0.5,3.6,0.4,5.4c-0.1,3.5-0.5,7-0.7,10.4c-0.2,3.5-0.3,7-0.4,10.4c0,2.2,0,4.4,0.3,6.5c0.5,3.8,1.3,7.5,1.8,11.2
		c0.3,2.7,0.1,5.4,0.3,8.1c0.4,4.8,0.8,9.6,1.2,14.3c0.2,2.6,0.4,5.2,0.8,7.8c0.8,5.1,1.7,10.3,2.5,15.4c0.5,3.4,0.9,6.8,1.6,10.2
		c0.6,3,1.7,5.9,2.3,8.9c1.1,4.6,2,9.3,2.9,14c0.8,4.1,1.7,8.2,2.5,12.3c1,4.9,2,9.8,3.2,14.7c1,4.1,2.4,8.1,3.6,12.2
		c1.8,6,3.4,12.1,5.5,18c2.5,7,5.1,14.1,8.4,20.7c2.8,5.6,6.5,10.8,10.1,16c2.1,3.1,4.5,5.9,6.9,8.8c1.9,2.3,4.2,4.3,6,6.8
		c3.1,4.5,7,7.9,11.6,10.8c7.7,5,16,7.9,25.2,7.8c1.1,0,2.2-0.2,3.4-0.3c2.6-0.3,5.3-0.3,7.8-0.9c5.4-1.3,10.6-3,16-4.3
		c6-1.4,12-2.5,18-3.5c4.3-0.7,8.6-1,12.9-1.4c6.4-0.6,12.9-1.4,19.3-1.8c5.7-0.3,11.5-0.2,17.2-0.1c6.2,0,12.4,0.2,18.5,0.3
		c5.7,0.1,11.5,0.2,17.2,0.5c6.5,0.3,13,0.9,19.5,1.4c3.1,0.2,6.1,0.7,9.2,0.9c6.8,0.6,13.5,1.3,20.3,1.5c5,0.2,10-0.2,14.9-0.7
		c4.7-0.5,9.4-1,13.9-2.3c2.6-0.7,5.3-2.4,7-4.4c3-3.6,5.5-7.7,7.1-12.2c0.9-2.4,1.9-4.8,2.5-7.3c1.1-4.5,1.9-9,2.7-13.5
		c0.7-4.1,1.8-8.3,1.9-12.4c0.1-7.7-0.3-15.5-0.6-23.2c-0.3-8.2-0.7-16.4-1.1-24.6c-0.2-3.8-0.1-7.8-1-11.5
		c-1.7-7.4-2.3-14.8-2.3-22.3c0-2.4-0.3-4.7-0.5-7.1c-0.4-3.8-1.4-7.6-1.4-11.4c0-6.3,0.4-12.6,1-18.9
		C433.4,360.2,434.4,358,435.1,355.4z"/>
	<path d="M435.1,355.4c-0.7,2.6-1.7,4.8-1.9,7.1c-0.5,6.3-1,12.6-1,18.9c0,3.8,1,7.6,1.4,11.4c0.3,2.4,0.6,4.7,0.5,7.1
		c-0.1,7.5,0.6,14.9,2.3,22.3c0.9,3.7,0.8,7.6,1,11.5c0.4,8.2,0.8,16.4,1.1,24.6c0.3,7.7,0.7,15.5,0.6,23.2
		c-0.1,4.1-1.1,8.3-1.9,12.4c-0.8,4.5-1.7,9-2.7,13.5c-0.6,2.5-1.6,4.9-2.5,7.3c-1.6,4.5-4,8.6-7.1,12.2c-1.7,2-4.5,3.7-7,4.4
		c-4.5,1.2-9.2,1.8-13.9,2.3c-5,0.5-10,0.9-14.9,0.7c-6.8-0.2-13.5-1-20.3-1.5c-3.1-0.3-6.1-0.7-9.2-0.9c-6.5-0.5-13-1.1-19.5-1.4
		c-5.7-0.3-11.5-0.4-17.2-0.5c-6.2-0.1-12.4-0.2-18.5-0.3c-5.7,0-11.5-0.2-17.2,0.1c-6.5,0.4-12.9,1.2-19.3,1.8
		c-4.3,0.4-8.6,0.7-12.9,1.4c-6,1-12.1,2.1-18,3.5c-5.4,1.2-10.6,3-16,4.3c-2.5,0.6-5.2,0.6-7.8,0.9c-1.1,0.1-2.2,0.3-3.4,0.3
		c-9.2,0.1-17.5-2.8-25.2-7.8c-4.5-2.9-8.5-6.3-11.6-10.8c-1.7-2.5-4-4.5-6-6.8c-2.4-2.9-4.8-5.7-6.9-8.8c-3.5-5.2-7.3-10.4-10.1-16
		c-3.3-6.7-5.9-13.7-8.4-20.7c-2.1-5.9-3.7-12-5.5-18c-1.2-4-2.6-8.1-3.6-12.2c-1.2-4.8-2.2-9.8-3.2-14.7c-0.9-4.1-1.7-8.2-2.5-12.3
		c-1-4.7-1.9-9.4-2.9-14c-0.7-3-1.7-5.9-2.3-8.9c-0.7-3.4-1.1-6.8-1.6-10.2c-0.8-5.1-1.7-10.2-2.5-15.4c-0.4-2.6-0.5-5.2-0.8-7.8
		c-0.4-4.8-0.9-9.6-1.2-14.3c-0.2-2.7,0-5.5-0.3-8.1c-0.4-3.8-1.3-7.5-1.8-11.2c-0.3-2.1-0.3-4.3-0.3-6.5c0-3.5,0.2-7,0.4-10.4
		c0.2-3.5,0.6-7,0.7-10.4c0.1-1.8-0.2-3.6-0.4-5.4c-0.1-1-0.7-1.1-1.5-0.7c-3.4,1.4-6.8,2.7-10.1,4c-2.7,1.1-5.4,2.2-8.1,3.4
		c-5,2-7.6,5.6-8.1,11.1c-0.4,4.4-1.4,8.8-2,13.3c-0.3,1.9-0.5,3.9-0.4,5.9c0.3,5.7-1.1,11.2-2.3,16.7c-1.2,5.6-2.1,11.2-3.2,16.8
		c-0.8,3.6-1.5,7.2-2.8,10.6c-1.9,5-4.3,9.9-6.6,14.8c-0.9,1.9-2.4,3.5-3.6,5.3c-0.4,0.7-0.8,1.4-1.1,2.2c-0.5,1.4-1.6,1.5-2.8,1.3
		c-0.5-0.1-1.1-0.4-1.5-0.3c-4.3,0.8-7.3-2.2-10.7-3.9c-4.5-2.2-5.9-6.9-7.6-11.2c-0.1-0.3-0.1-0.7-0.3-1c-2.4-4.3-3.7-9-4.4-13.9
		c-0.4-2.7-1.3-5.3-1.7-7.9c-0.2-1.6,0.3-3.3,0.6-5c1-7,1.7-14.1,3-21c1.5-7.5,3-15.1,6.2-22.2c1.2-2.7,1.5-5.7,2.7-8.4
		c1.8-3.8,3.8-7.6,6.1-11.1c3.1-4.8,7.2-8.7,11.3-12.6c5.5-5.1,11.7-9.1,17.6-13.6c2.8-2.2,5.4-4.8,8.4-6.6
		c5.1-3.2,10.6-5.6,16.7-6.6c1.5-0.3,2.4-1.2,3-2.5c2.1-5.3,3.1-10.7,3-16.5c-0.1-9.5,1.7-18.8,4-28c2.5-10.1,6.4-19.6,10.4-29.1
		c1.9-4.6,3.6-9.3,5.4-14c1.3-3.2,2.8-6.3,4.2-9.5c2.1-4.7,4-9.4,6.3-14c2.3-4.6,4.6-9.3,7.5-13.5c4.3-6.3,9.1-12.3,13.8-18.2
		c3.3-4.2,6.9-8.2,10.6-12c5.4-5.5,11-10.8,16.5-16.2c5.5-5.4,10.8-11.1,16.4-16.3c5.2-4.9,10.9-9.3,16.1-14.1
		c4.4-4,9.5-6.6,14.6-9.3c4.3-2.3,9-3.6,13.9-4.3c4.1-0.6,8-1.8,12.1-2.7c5.3-1.2,10.7-2.2,16.2-2.4c3.2-0.1,6.4-0.8,9.6-0.6
		c6.7,0.3,13.4,0.8,20,1.6c4.9,0.6,9.9,1.5,14.5,3.1c9.1,3.1,18,6.7,24.5,14.4c3.8,4.5,7.5,8.9,11.5,13.2c3.6,4,7.6,7.6,11.3,11.5
		c3,3.2,5.9,6.6,8.7,10.1c4.2,5.3,8.1,10.7,12.2,16c2.8,3.7,5.7,7.4,8.3,11.2c3.1,4.5,6,9.2,8.8,13.9c2.7,4.6,4.4,9.6,5.7,14.7
		c1.4,5.7,3.2,11.3,4.6,17c1.4,5.5,2.5,11,3.7,16.5c0.7,3.5,1,7,1.9,10.4c1,3.6,2.7,7,4.1,10.5c2.1,5.2,4.5,10.2,6.4,15.5
		c2.1,5.9,3.9,11.8,5.5,17.8c1,3.5,1.3,7.2,2,10.9c0.9,4.4,1.6,9,2.9,13.3c2.5,7.8,6.2,15.1,10.6,22.1c1.8,2.9,3.1,6.1,4.5,9.2
		c3,6.6,5.9,13.2,8.8,19.9c3,6.8,6.2,13.5,8.9,20.4c2.2,5.8,3.7,11.8,4.6,17.9c0.8,6,2.4,11.9,3.6,17.8c1,5,1.9,10,2.8,14.9
		c0.6,3.1,1.5,6.2,1.9,9.4c0.4,3,0.4,6.2,0.2,9.2c-0.2,2.5-0.7,5-1.4,7.3c-0.5,1.9-1.5,3.8-2.4,5.6c-0.2,0.4-0.7,0.9-1.1,1
		c-2.8,0.1-5.9,0.8-8.3-0.1c-3.9-1.5-7.9-3.1-10.4-7.2c-1.8-2.9-4.6-5.1-6.5-7.9c-2.9-4.2-6.2-8.3-6.7-13.6c0-0.2-0.2-0.6-0.3-0.7
		c-2-0.5-2.5-2.2-3.3-3.8c-1.3-2.8-2.9-5.4-4.7-7.9c-0.8-1.1-2.5-1.5-3.9-2.1c-2.3-1.1-4.6-2-6.9-3.1
		C436.6,356.5,436.1,356.1,435.1,355.4z"/>
</g>
</svg>
