<?xml version="1.0" encoding="utf-8"?>
<!-- Generator: Adobe Illustrator 16.0.1, SVG Export Plug-In . SVG Version: 6.00 Build 0)  -->
<!DOCTYPE svg PUBLIC "-//W3C//DTD SVG 1.1//EN" "http://www.w3.org/Graphics/SVG/1.1/DTD/svg11.dtd">
<svg version="1.1" id="Layer_1" xmlns="http://www.w3.org/2000/svg" xmlns:xlink="http://www.w3.org/1999/xlink" x="0px" y="0px"
	 width="374.817px" height="2337.181px" viewBox="0 0 374.817 2337.181" enable-background="new 0 0 374.817 2337.181"
	 xml:space="preserve">
<g>
	<g>
		<path fill="#FFFFFF" d="M376.265,2337.904c-125.181,0-250.361,0-375.541,0c0-779.061,0-1558.121,0-2337.181
			c125.18,0,250.36,0,375.541,0C376.265,779.784,376.265,1558.844,376.265,2337.904z M18.703,2324.19
			c6.502,4.853,13.589,6.042,21.131,5.628c8.519-0.469,17.042-0.872,25.568-1.191c5.529-0.208,11.072-0.072,16.597-0.344
			c11.295-0.553,22.579-0.82,33.866,0.162c1.547,0.135,3.124-0.006,4.682-0.092c2.271-0.124,4.538-0.445,6.808-0.454
			c12.147-0.042,24.294,0.006,36.441-0.015c13.982-0.024,27.965-0.184,41.947-0.105c12.287,0.068,24.572,0.39,36.858,0.587
			c5.662,0.091,11.325,0.12,16.987,0.242c2.158,0.047,4.312,0.39,6.468,0.392c2.273,0.002,4.549-0.381,6.821-0.352
			c6.13,0.078,12.26,0.268,18.389,0.449c9.508,0.28,19.014,0.573,28.521,0.893c4.933,0.166,9.862,0.479,14.797,0.567
			c2.574,0.046,3.847-1.162,4.131-3.547c0.255-2.145,0.472-4.298,0.576-6.454c0.326-6.701,0.545-13.408,0.913-20.107
			c0.099-1.784,0.287-3.666,0.948-5.296c2.131-5.259,2.226-10.765,2.426-16.284c0.183-5.011-1.127-10.039,0.204-15.043
			c0.179-0.675-0.04-1.444,0.017-2.163c0.122-1.551,0.364-3.094,0.448-4.646c0.26-4.79,0.947-9.585-0.761-14.31
			c-0.405-1.118-0.14-2.543,0.04-3.796c0.441-3.079,1.015-6.141,1.528-9.209c0.859-5.126-0.299-10.271,0.174-15.412
			c0.319-3.466,0.399-6.956,0.496-10.438c0.054-1.912-0.186-3.834-0.106-5.744c0.231-5.529,0.619-11.052,0.832-16.581
			c0.3-7.776,0.562-15.555,0.725-23.335c0.291-13.932,0.519-27.863,0.733-41.796c0.264-17.05,0.467-34.102,0.734-51.151
			c0.208-13.238,0.489-26.475,0.716-39.712c0.254-14.894,0.502-29.786,0.718-44.68c0.119-8.186,0.129-16.372,0.259-24.558
			c0.13-8.182,0.354-16.361,0.525-24.542c0.054-2.526,0.053-5.053,0.115-7.578c0.134-5.405,0.398-10.811,0.42-16.217
			c0.035-8.74-0.187-17.481-0.109-26.222c0.115-12.961,0.371-25.922,0.618-38.881c0.138-7.218,0.441-14.434,0.562-21.651
			c0.214-12.857,0.411-25.716,0.496-38.574c0.131-19.729,0.146-39.458,0.251-59.188c0.016-3.063,0.251-6.125,0.384-9.146
			c2.748-0.601,5.362,1.186,7.955,0.206c0.016-0.257,0.032-0.514,0.048-0.771c-2.669-0.164-5.338-0.328-7.896-0.485
			c0-3.084,0-6.056,0-9.028c0-5.909,0.037-11.818-0.021-17.727c-0.017-1.621,0.272-2.85,1.717-2.881
			c0-4.102-0.055-7.93,0.012-11.757c0.115-6.615,0.466-13.229,0.429-19.842c-0.069-12.027-0.405-24.054-0.504-36.081
			c-0.021-2.748,0.465-5.5,0.726-8.25c0.181-1.907,0.523-3.812,0.537-5.72c0.054-7.695-0.026-15.392,0.007-23.087
			c0.049-11.21,0.136-22.421,0.251-33.631c0.021-2.039,0.303-4.073,0.376-6.113c0.061-1.683,0.009-3.37-0.025-5.055
			c-0.043-2.152-0.199-4.306-0.163-6.455c0.102-6.107,1.132-12.212-0.149-18.32c-0.24-1.147,0.023-2.4,0.049-3.604
			c0.043-2.026,0.093-4.053,0.121-6.079c0.078-5.403,0.165-10.806,0.213-16.209c0.035-4.052,1.087-8.022,0.179-12.177
			c-0.76-3.479-0.798-7.151-0.846-10.741c-0.107-8.066,0.017-16.136-0.029-24.202c-0.033-5.75-0.315-11.5-0.269-17.249
			c0.102-12.271,0.354-24.542,0.521-36.814c0.039-2.884,0.034-5.716,0.916-8.561c0.587-1.894,0.429-4.044,0.453-6.081
			c0.052-4.331-0.065-8.665,0.015-12.996c0.132-7.207,0.468-14.411,0.518-21.618c0.032-4.805-0.42-9.612-0.407-14.417
			c0.016-6.106,0.376-12.212,0.421-18.318c0.076-10.241,0.076-20.483,0-30.725c-0.046-6.134-0.424-12.267-0.417-18.4
			c0.005-4.422,0.188-8.825,0.085-13.267c-0.265-11.396-0.85-22.806-0.267-34.223c0.39-7.65,0.459-15.318,0.608-22.979
			c0.14-7.094,0.183-14.189,0.296-21.284c0.04-2.508,0.221-5.015,0.229-7.522c0.006-2.162-0.19-4.323-0.211-6.486
			c-0.082-8.521-0.175-17.041-0.179-25.562c-0.004-8.434-0.035-16.871,0.185-25.3c0.232-8.894,0.838-17.777,1.106-26.67
			c0.173-5.748-0.006-11.505,0.047-17.257c0.03-3.25-0.033-6.531,0.365-9.745c1.131-9.108,0.448-18.217,0.379-27.33
			c-0.036-4.568-0.405-9.236,0.375-13.684c1.072-6.109,1.155-12.094,0.445-18.198c-0.314-2.702-0.087-5.465-0.143-8.2
			c-0.027-1.316-0.168-2.63-0.213-3.947c-0.115-3.36-0.736-6.815-0.165-10.058c0.649-3.681,0.667-7.283,0.669-10.958
			c0.002-4.651,0.395-9.302,0.401-13.953c0.007-4.207-0.417-8.415-0.401-12.621c0.02-5.531,0.366-11.061,0.413-16.592
			c0.028-3.353-0.373-6.708-0.349-10.061c0.026-3.723,0.338-7.443,0.486-11.166c0.221-5.527,0.425-11.055,0.604-16.584
			c0.104-3.25,0.651-6.591,0.095-9.73c-0.711-4.01-0.224-7.811,0.509-11.627c-2.023-1.017-1.995-1.017-1.998-2.856
			c-0.021-14.937-0.073-29.874-0.072-44.811c0.001-5.406,0.046-10.814,0.208-16.217c0.114-3.827,0.527-7.644,0.676-11.47
			c0.088-2.284-0.16-4.58-0.115-6.867c0.217-10.952,0.486-21.902,0.727-32.854c0.09-4.094,0.114-8.19,0.235-12.284
			c0.106-3.605,0.376-7.206,0.439-10.811c0.043-2.386-0.26-4.777-0.214-7.162c0.085-4.324,0.347-8.644,0.464-12.968
			c0.035-1.314-0.161-2.635-0.255-3.952c-0.125-1.774-0.333-3.547-0.361-5.323c-0.039-2.383,0.065-4.768,0.1-7.152
			c0.073-5.037-0.016-10.081,0.255-15.106c0.276-5.141,1.182-10.247-0.562-15.334c-0.533-1.555-0.64-3.314-0.647-4.982
			c-0.066-13.012-0.165-26.024-0.05-39.034c0.12-13.693,0.446-27.384,0.729-41.075c0.052-2.512,0.284-5.024,0.521-7.528
			c0.257-2.735,0.791-5.456,0.887-8.193c0.151-4.327-0.03-8.665,0.053-12.996c0.136-7.087,0.501-14.172,0.529-21.258
			c0.03-7.905-0.342-15.812-0.297-23.717c0.054-9.506,0.532-19.012,0.513-28.517c-0.021-9.506-0.425-19.01-0.666-28.515
			c-0.125-4.902,0.295-9.78,0.15-14.713c-0.337-11.507-0.949-23.037-0.288-34.574c0.432-7.528,0.464-15.08,0.609-22.623
			c0.137-7.093,0.17-14.188,0.286-21.282c0.041-2.511,0.262-5.02,0.272-7.53c0.009-2.158-0.227-4.316-0.246-6.476
			c-0.076-8.515-0.146-17.03-0.149-25.545c-0.005-8.43-0.066-16.864,0.15-25.29c0.222-8.652,0.851-17.294,1.11-25.946
			c0.179-5.989-0.01-11.987,0.051-17.98c0.035-3.37,0.288-6.737,0.361-10.108c0.189-8.66,0.308-17.321,0.505-25.981
			c0.145-6.358,0.379-12.714,0.553-19.071c0.075-2.741,0.194-5.485,0.125-8.224c-0.126-5.043-0.539-10.083-0.537-15.125
			c0.003-7.281,0.354-14.562,0.403-21.843c0.075-11.077-0.036-22.155,0.036-33.232c0.072-11.065,0.238-22.13,0.431-33.193
			c0.096-5.528,0.437-11.052,0.486-16.58c0.039-4.296,0.993-8.556-0.077-12.924c-0.483-1.972,0.323-4.26,0.547-6.404
			c0.067-0.648,0.144-1.295,0.251-2.259c-1.479,0-2.667-0.015-3.854,0.002c-10.536,0.157-21.072,0.386-31.608,0.463
			c-10.974,0.081-21.948,0.014-32.922,0.019c-13.968,0.005-27.936,0.004-41.903,0.033c-4.052,0.008-8.104,0.085-12.155,0.176
			c-4.163,0.093-8.326,0.361-12.487,0.341c-8.647-0.041-17.293-0.302-25.939-0.312c-5.285-0.007-10.57,0.38-15.857,0.417
			c-8.203,0.058-16.407-0.047-24.611-0.053c-3.904-0.003-7.809,0.094-11.712,0.085c-5.234-0.012-10.468-0.125-15.703-0.112
			c-3.225,0.008-6.453,1.242-9.676-0.039c-0.104-0.042-0.235-0.019-0.354-0.018c-12.985,0.078-25.97,0.181-38.955,0.229
			c-13.478,0.05-26.955,0.051-40.433,0.063c-2.27,0.001-3.696,1.375-3.73,3.772c-0.263,18.508-0.471,37.018-0.784,55.525
			c-0.108,6.372-0.487,12.739-0.702,19.109c-0.24,7.088-0.529,14.176-0.627,21.267c-0.177,12.754-0.229,25.509-0.329,38.264
			c-0.119,15.161-0.355,30.322-0.312,45.482c0.035,12.012-1.232,23.994-0.486,36.026c0.37,5.971,0.078,11.983,0.052,17.977
			c-0.005,1.078-0.234,2.154-0.251,3.232c-0.043,2.641-0.059,5.283-0.016,7.923c0.026,1.679,0.284,3.357,0.25,5.031
			c-0.098,4.691-0.288,9.38-0.453,14.07c-0.076,2.167-0.142,4.334-0.278,6.498c-0.453,7.193-1.088,14.379-1.361,21.579
			c-0.229,6.011-0.087,12.039-0.034,18.058c0.041,4.694,0.288,9.387,0.287,14.08c-0.003,16.349-1.187,32.673-1.049,49.027
			c0.019,2.277-0.405,4.556-0.432,6.836c-0.075,6.351-0.061,12.701-0.06,19.053c0.001,7.107-0.011,14.215,0.052,21.322
			c0.082,9.271,0.25,18.543,0.335,27.814c0.018,1.911-0.261,3.826-0.24,5.737c0.043,3.844,0.331,7.688,0.282,11.529
			c-0.112,8.901-0.566,17.804-0.463,26.7c0.042,3.585,0.292,7.129-0.095,10.731c-0.354,3.305-0.133,6.669-0.213,10.007
			c-0.063,2.643-0.22,5.283-0.292,7.926c-0.055,2.032,0.007,4.067-0.064,6.098c-0.288,8.176-0.771,16.35-0.871,24.528
			c-0.116,9.395,0.314,18.799,0.111,28.19c-0.255,11.78-1.003,23.549-1.374,35.327c-0.36,11.438-0.541,22.881-0.742,34.323
			c-0.137,7.792-0.146,15.587-0.26,23.38c-0.131,9.026-0.393,18.05-0.439,27.076c-0.021,4.323,0.409,8.646,0.485,12.972
			c0.151,8.542-0.378,17.042-1.125,25.565c-0.808,9.218-0.756,18.513-1.086,27.774c-0.15,4.203-0.404,8.404-0.444,12.607
			c-0.026,2.759,0.453,5.528,0.344,8.279c-0.251,6.353-0.884,12.691-1.064,19.044c-0.235,8.302-0.2,16.613-0.223,24.921
			c-0.002,0.767,0.314,2.148,0.652,2.203c2.277,0.37,1.654,2.017,1.645,3.346c-0.029,4.096-0.123,8.191-0.185,12.287
			c-0.162,10.694-0.293,21.388-0.488,32.081c-0.21,11.546-0.438,23.093-0.741,34.638c-0.101,3.844-0.643,7.68-0.667,11.522
			c-0.085,13.608,0.047,27.219-0.056,40.827c-0.1,13.128-0.582,26.256-0.538,39.382c0.04,12.023-1.255,24.015-0.472,36.058
			c0.381,5.856,0.079,11.757,0.055,17.638c-0.004,1.077-0.222,2.154-0.234,3.232c-0.032,2.76-0.031,5.52,0.009,8.279
			c0.023,1.56,0.245,3.12,0.211,4.676c-0.11,5.052-0.29,10.103-0.46,15.154c-0.061,1.805-0.141,3.611-0.261,5.413
			c-0.463,6.953-1.126,13.898-1.37,20.858c-0.236,6.735-0.071,13.485-0.038,20.229c0.027,5.54,0.236,11.082,0.153,16.62
			c-0.098,6.493-0.422,12.982-0.652,19.474c-0.051,1.443-0.1,2.888-0.178,4.329c-0.223,4.078-0.61,8.153-0.658,12.233
			c-0.079,6.862,0.446,13.753-0.006,20.583c-0.484,7.313-0.299,14.584-0.151,21.883c0.188,9.28,0.235,18.563,0.254,27.847
			c0.013,6.506-0.152,13.012-0.183,19.519c-0.045,9.372-0.051,18.745-0.055,28.117c-0.002,4.436,0.12,8.872,0.039,13.306
			c-0.105,5.755-0.345,11.509-0.547,17.262c-0.216,6.124-0.545,12.247-0.663,18.373c-0.166,8.645-0.248,17.293-0.25,25.938
			c-0.004,14.564-0.031,29.119-0.989,43.669c-0.623,9.471-0.728,18.979-0.934,28.475c-0.308,14.166-0.549,28.335-0.729,42.504
			c-0.15,11.811-0.443,23.63-0.171,35.434c0.241,10.476,0.159,20.91-0.501,31.37c-0.598,9.488-0.716,19.008-1.027,28.515
			c-0.174,5.287-0.334,10.575-0.458,15.863c-0.123,5.26-0.167,10.521-0.292,15.78c-0.14,5.886-0.494,11.771-0.458,17.653
			c0.042,6.804,0.173,13.61,0.356,20.413c0.317,11.795-0.2,23.611-0.356,35.418c-0.075,5.663-0.12,11.326-0.184,16.989
			c-0.179,15.78-0.363,31.56-0.542,47.339c-0.214,18.911-0.374,37.823-0.66,56.732c-0.146,9.629-0.531,19.253-0.783,28.88
			c-0.492,18.774-0.998,37.549-1.433,56.325c-0.175,7.576-0.242,15.156-0.249,22.735c-0.027,30.481-0.011,60.962-0.011,91.443
			c0,92.374,0,184.749,0,277.124C18.703,2321.578,18.703,2323.014,18.703,2324.19z"/>
		<path fill-rule="evenodd" clip-rule="evenodd" d="M18.703,2324.19c0-1.177,0-2.612,0-4.048c0-92.375,0-184.75,0-277.124
			c0-30.481-0.016-60.962,0.011-91.443c0.007-7.579,0.074-15.159,0.249-22.735c0.435-18.776,0.941-37.551,1.433-56.325
			c0.252-9.627,0.638-19.251,0.783-28.88c0.286-18.909,0.446-37.821,0.66-56.732c0.179-15.779,0.363-31.559,0.542-47.339
			c0.064-5.663,0.109-11.326,0.184-16.989c0.156-11.807,0.673-23.623,0.356-35.418c-0.183-6.803-0.314-13.609-0.356-20.413
			c-0.037-5.883,0.318-11.768,0.458-17.653c0.125-5.26,0.168-10.521,0.292-15.78c0.124-5.288,0.284-10.576,0.458-15.863
			c0.312-9.507,0.429-19.026,1.027-28.515c0.66-10.46,0.742-20.895,0.501-31.37c-0.271-11.804,0.021-23.623,0.171-35.434
			c0.181-14.169,0.421-28.338,0.729-42.504c0.207-9.495,0.311-19.004,0.934-28.475c0.958-14.55,0.985-29.104,0.989-43.669
			c0.002-8.646,0.084-17.294,0.25-25.938c0.118-6.126,0.447-12.249,0.663-18.373c0.203-5.753,0.442-11.507,0.547-17.262
			c0.081-4.434-0.042-8.87-0.039-13.306c0.004-9.372,0.009-18.745,0.055-28.117c0.031-6.507,0.196-13.013,0.183-19.519
			c-0.019-9.283-0.066-18.566-0.254-27.847c-0.148-7.299-0.333-14.569,0.151-21.883c0.452-6.83-0.073-13.721,0.006-20.583
			c0.047-4.08,0.435-8.155,0.658-12.233c0.079-1.441,0.127-2.886,0.178-4.329c0.229-6.491,0.554-12.98,0.652-19.474
			c0.083-5.538-0.126-11.08-0.153-16.62c-0.033-6.744-0.198-13.494,0.038-20.229c0.244-6.96,0.906-13.906,1.37-20.858
			c0.12-1.802,0.201-3.608,0.261-5.413c0.17-5.051,0.35-10.102,0.46-15.154c0.034-1.556-0.188-3.117-0.211-4.676
			c-0.04-2.759-0.042-5.52-0.009-8.279c0.013-1.079,0.23-2.155,0.234-3.232c0.024-5.881,0.326-11.782-0.055-17.638
			c-0.783-12.043,0.512-24.035,0.472-36.058c-0.044-13.126,0.438-26.254,0.538-39.382c0.103-13.608-0.029-27.219,0.056-40.827
			c0.024-3.842,0.566-7.678,0.667-11.522c0.304-11.544,0.531-23.091,0.741-34.638c0.194-10.693,0.326-21.387,0.488-32.081
			c0.062-4.096,0.156-8.191,0.185-12.287c0.009-1.329,0.632-2.976-1.645-3.346c-0.338-0.055-0.655-1.436-0.652-2.203
			c0.023-8.308-0.012-16.619,0.223-24.921c0.18-6.353,0.813-12.691,1.064-19.044c0.108-2.75-0.371-5.52-0.344-8.279
			c0.04-4.203,0.294-8.404,0.444-12.607c0.33-9.261,0.278-18.556,1.086-27.774c0.747-8.522,1.277-17.023,1.125-25.565
			c-0.077-4.326-0.507-8.649-0.485-12.972c0.046-9.025,0.308-18.05,0.439-27.076c0.113-7.793,0.123-15.588,0.26-23.38
			c0.201-11.442,0.382-22.885,0.742-34.323c0.37-11.778,1.118-23.547,1.374-35.327c0.204-9.391-0.227-18.795-0.111-28.19
			c0.101-8.178,0.583-16.352,0.871-24.528c0.072-2.031,0.01-4.066,0.064-6.098c0.071-2.643,0.229-5.284,0.292-7.926
			c0.08-3.337-0.142-6.702,0.213-10.007c0.386-3.602,0.136-7.146,0.095-10.731c-0.103-8.896,0.351-17.798,0.463-26.7
			c0.049-3.841-0.239-7.685-0.282-11.529c-0.021-1.911,0.257-3.826,0.24-5.737c-0.085-9.271-0.254-18.543-0.335-27.814
			c-0.063-7.107-0.05-14.215-0.052-21.322c-0.001-6.352-0.016-12.702,0.06-19.053c0.027-2.28,0.451-4.559,0.432-6.836
			c-0.138-16.354,1.045-32.678,1.049-49.027c0.001-4.693-0.246-9.386-0.287-14.08c-0.053-6.019-0.195-12.047,0.034-18.058
			c0.273-7.2,0.908-14.386,1.361-21.579c0.136-2.163,0.202-4.331,0.278-6.498c0.165-4.689,0.355-9.378,0.453-14.07
			c0.035-1.674-0.223-3.353-0.25-5.031c-0.042-2.64-0.027-5.282,0.016-7.923c0.018-1.079,0.247-2.155,0.251-3.232
			c0.026-5.994,0.317-12.006-0.052-17.977c-0.746-12.032,0.521-24.014,0.486-36.026c-0.043-15.16,0.192-30.321,0.312-45.482
			c0.1-12.755,0.152-25.51,0.329-38.264c0.098-7.09,0.388-14.179,0.627-21.267c0.215-6.371,0.594-12.737,0.702-19.109
			c0.313-18.508,0.521-37.017,0.784-55.525c0.034-2.396,1.46-3.771,3.73-3.772C65.135,19.501,78.612,19.5,92.09,19.45
			c12.985-0.048,25.97-0.151,38.955-0.229c0.119,0,0.25-0.023,0.354,0.018c3.223,1.281,6.451,0.047,9.676,0.039
			c5.234-0.013,10.469,0.1,15.703,0.112c3.904,0.009,7.809-0.088,11.712-0.085c8.204,0.006,16.408,0.111,24.611,0.053
			c5.287-0.037,10.572-0.424,15.857-0.417c8.646,0.011,17.292,0.272,25.939,0.312c4.161,0.02,8.324-0.248,12.487-0.341
			c4.051-0.09,8.104-0.167,12.155-0.176c13.968-0.029,27.936-0.028,41.903-0.033c10.974-0.004,21.948,0.062,32.922-0.019
			c10.536-0.078,21.072-0.306,31.608-0.463c1.187-0.018,2.374-0.002,3.854-0.002c-0.107,0.964-0.184,1.611-0.251,2.259
			c-0.224,2.145-1.03,4.433-0.547,6.404c1.07,4.368,0.116,8.627,0.077,12.924c-0.05,5.527-0.391,11.052-0.486,16.58
			c-0.192,11.063-0.358,22.128-0.431,33.193c-0.072,11.077,0.039,22.155-0.036,33.232c-0.05,7.282-0.4,14.562-0.403,21.843
			c-0.002,5.042,0.411,10.082,0.537,15.125c0.069,2.739-0.05,5.483-0.125,8.224c-0.174,6.357-0.408,12.713-0.553,19.071
			c-0.197,8.66-0.315,17.321-0.505,25.981c-0.073,3.371-0.326,6.738-0.361,10.108c-0.061,5.993,0.128,11.992-0.051,17.98
			c-0.26,8.652-0.889,17.294-1.11,25.946c-0.217,8.426-0.155,16.86-0.15,25.29c0.004,8.515,0.073,17.03,0.149,25.545
			c0.02,2.16,0.255,4.318,0.246,6.476c-0.011,2.51-0.231,5.019-0.272,7.53c-0.116,7.094-0.149,14.189-0.286,21.282
			c-0.146,7.543-0.178,15.095-0.609,22.623c-0.661,11.537-0.049,23.067,0.288,34.574c0.145,4.934-0.275,9.811-0.15,14.713
			c0.241,9.504,0.646,19.009,0.666,28.515c0.02,9.505-0.459,19.01-0.513,28.517c-0.045,7.905,0.327,15.812,0.297,23.717
			c-0.028,7.086-0.394,14.171-0.529,21.258c-0.083,4.331,0.099,8.668-0.053,12.996c-0.096,2.738-0.63,5.458-0.887,8.193
			c-0.236,2.504-0.469,5.016-0.521,7.528c-0.283,13.691-0.609,27.382-0.729,41.075c-0.115,13.01-0.017,26.022,0.05,39.034
			c0.008,1.667,0.114,3.427,0.647,4.982c1.744,5.088,0.839,10.194,0.562,15.334c-0.271,5.025-0.182,10.07-0.255,15.106
			c-0.034,2.384-0.139,4.769-0.1,7.152c0.028,1.776,0.236,3.548,0.361,5.323c0.094,1.317,0.29,2.638,0.255,3.952
			c-0.117,4.324-0.379,8.645-0.464,12.968c-0.046,2.385,0.257,4.776,0.214,7.162c-0.063,3.605-0.333,7.206-0.439,10.811
			c-0.121,4.093-0.146,8.189-0.235,12.284c-0.24,10.952-0.51,21.902-0.727,32.854c-0.045,2.288,0.203,4.583,0.115,6.867
			c-0.148,3.826-0.562,7.644-0.676,11.47c-0.162,5.403-0.207,10.811-0.208,16.217c-0.001,14.937,0.051,29.874,0.072,44.811
			c0.003,1.839-0.025,1.839,1.998,2.856c-0.732,3.816-1.22,7.617-0.509,11.627c0.557,3.139,0.01,6.48-0.095,9.73
			c-0.18,5.529-0.384,11.057-0.604,16.584c-0.148,3.722-0.46,7.443-0.486,11.166c-0.024,3.353,0.377,6.708,0.349,10.061
			c-0.047,5.531-0.394,11.061-0.413,16.592c-0.016,4.207,0.408,8.414,0.401,12.621c-0.007,4.651-0.399,9.302-0.401,13.953
			c-0.002,3.675-0.02,7.277-0.669,10.958c-0.571,3.243,0.05,6.698,0.165,10.058c0.045,1.317,0.186,2.63,0.213,3.947
			c0.056,2.735-0.172,5.498,0.143,8.2c0.71,6.104,0.627,12.089-0.445,18.198c-0.78,4.447-0.411,9.115-0.375,13.684
			c0.069,9.112,0.752,18.222-0.379,27.33c-0.398,3.214-0.335,6.495-0.365,9.745c-0.053,5.752,0.126,11.51-0.047,17.257
			c-0.269,8.893-0.874,17.776-1.106,26.67c-0.22,8.429-0.188,16.866-0.185,25.3c0.004,8.521,0.097,17.042,0.179,25.562
			c0.021,2.163,0.217,4.324,0.211,6.486c-0.008,2.507-0.188,5.014-0.229,7.522c-0.113,7.095-0.156,14.19-0.296,21.284
			c-0.149,7.661-0.219,15.329-0.608,22.979c-0.583,11.417,0.002,22.826,0.267,34.223c0.104,4.441-0.08,8.845-0.085,13.267
			c-0.007,6.134,0.371,12.267,0.417,18.4c0.076,10.241,0.076,20.483,0,30.725c-0.045,6.106-0.405,12.212-0.421,18.318
			c-0.013,4.805,0.439,9.612,0.407,14.417c-0.05,7.207-0.386,14.411-0.518,21.618c-0.08,4.331,0.037,8.665-0.015,12.996
			c-0.024,2.037,0.134,4.188-0.453,6.081c-0.882,2.845-0.877,5.677-0.916,8.561c-0.167,12.272-0.419,24.543-0.521,36.814
			c-0.047,5.749,0.235,11.499,0.269,17.249c0.046,8.066-0.078,16.136,0.029,24.202c0.048,3.59,0.086,7.263,0.846,10.741
			c0.908,4.154-0.144,8.125-0.179,12.177c-0.048,5.403-0.135,10.806-0.213,16.209c-0.028,2.026-0.078,4.053-0.121,6.079
			c-0.025,1.203-0.289,2.456-0.049,3.604c1.281,6.108,0.251,12.213,0.149,18.32c-0.036,2.149,0.12,4.303,0.163,6.455
			c0.034,1.685,0.086,3.372,0.025,5.055c-0.073,2.04-0.354,4.074-0.376,6.113c-0.115,11.21-0.202,22.421-0.251,33.631
			c-0.033,7.695,0.047,15.392-0.007,23.087c-0.014,1.908-0.356,3.812-0.537,5.72c-0.261,2.75-0.747,5.502-0.726,8.25
			c0.099,12.027,0.435,24.054,0.504,36.081c0.037,6.612-0.313,13.227-0.429,19.842c-0.066,3.827-0.012,7.655-0.012,11.757
			c-1.444,0.031-1.733,1.26-1.717,2.881c0.059,5.908,0.021,11.817,0.021,17.727c0,2.973,0,5.944,0,9.028
			c2.559,0.157,5.228,0.321,7.896,0.485c-0.016,0.258-0.032,0.515-0.048,0.771c-2.593,0.979-5.207-0.807-7.955-0.206
			c-0.133,3.021-0.368,6.083-0.384,9.146c-0.105,19.729-0.12,39.459-0.251,59.188c-0.085,12.858-0.282,25.717-0.496,38.574
			c-0.12,7.218-0.424,14.434-0.562,21.651c-0.247,12.959-0.503,25.92-0.618,38.881c-0.077,8.74,0.145,17.481,0.109,26.222
			c-0.021,5.406-0.286,10.812-0.42,16.217c-0.062,2.525-0.062,5.052-0.115,7.578c-0.172,8.181-0.396,16.36-0.525,24.542
			c-0.13,8.186-0.14,16.372-0.259,24.558c-0.216,14.894-0.464,29.786-0.718,44.68c-0.227,13.237-0.508,26.474-0.716,39.712
			c-0.268,17.05-0.471,34.102-0.734,51.151c-0.215,13.933-0.442,27.864-0.733,41.796c-0.163,7.78-0.425,15.559-0.725,23.335
			c-0.213,5.529-0.601,11.052-0.832,16.581c-0.079,1.91,0.16,3.832,0.106,5.744c-0.097,3.482-0.177,6.973-0.496,10.438
			c-0.473,5.141,0.686,10.286-0.174,15.412c-0.514,3.068-1.087,6.13-1.528,9.209c-0.18,1.253-0.445,2.678-0.04,3.796
			c1.708,4.725,1.021,9.52,0.761,14.31c-0.084,1.553-0.326,3.096-0.448,4.646c-0.057,0.719,0.162,1.488-0.017,2.163
			c-1.331,5.004-0.021,10.032-0.204,15.043c-0.2,5.52-0.295,11.025-2.426,16.284c-0.661,1.63-0.85,3.512-0.948,5.296
			c-0.368,6.699-0.587,13.406-0.913,20.107c-0.104,2.156-0.321,4.31-0.576,6.454c-0.284,2.385-1.557,3.593-4.131,3.547
			c-4.935-0.088-9.864-0.401-14.797-0.567c-9.507-0.319-19.013-0.612-28.521-0.893c-6.129-0.182-12.259-0.371-18.389-0.449
			c-2.272-0.029-4.548,0.354-6.821,0.352c-2.156-0.002-4.31-0.345-6.468-0.392c-5.662-0.122-11.325-0.151-16.987-0.242
			c-12.286-0.197-24.571-0.519-36.858-0.587c-13.981-0.078-27.964,0.081-41.947,0.105c-12.147,0.021-24.294-0.027-36.441,0.015
			c-2.27,0.009-4.536,0.33-6.808,0.454c-1.559,0.086-3.135,0.227-4.682,0.092c-11.287-0.982-22.57-0.715-33.866-0.162
			c-5.524,0.271-11.068,0.136-16.597,0.344c-8.526,0.319-17.049,0.723-25.568,1.191C32.292,2330.232,25.205,2329.043,18.703,2324.19
			z"/>
	</g>
</g>
</svg>
