<?xml version="1.0" encoding="utf-8"?>
<!-- Generator: Adobe Illustrator 17.0.0, SVG Export Plug-In . SVG Version: 6.00 Build 0)  -->
<!DOCTYPE svg PUBLIC "-//W3C//DTD SVG 1.1//EN" "http://www.w3.org/Graphics/SVG/1.1/DTD/svg11.dtd">
<svg version="1.1" id="Layer_1" xmlns="http://www.w3.org/2000/svg" xmlns:xlink="http://www.w3.org/1999/xlink" x="0px" y="0px"
	 width="570.211px" height="725.789px" viewBox="0 0 570.211 725.789" enable-background="new 0 0 570.211 725.789"
	 xml:space="preserve">
<path fill-rule="evenodd" clip-rule="evenodd" fill="none" d="M483.377,14.834c5.919,2.064,12.929,1.272,17.729,5.065
	c5.371,4.245,3.532,24.577-2.894,27.497C478.539,56.464,457.723,25.837,483.377,14.834z"/>
<path fill-rule="evenodd" clip-rule="evenodd" fill="none" d="M357.467,71.638c16.084,2.437,18.179,25.465,2.171,31.477
	c-2.405,0.903-5.127,3.785-9.407,2.895c-10.688-2.224-24.654-22.727-12.663-31.839C342.906,70.114,349.076,74.654,357.467,71.638z"
	/>
<path fill-rule="evenodd" clip-rule="evenodd" fill="none" d="M223.236,102.392c2.532,0.241,5.066,0.482,7.598,0.724
	c12.378,5.081,29.445,23.665,19.538,39.799c-1.505,2.451-2.245,5.781-4.704,7.236c-12.616,7.465-16.364-4.348-24.241-3.98
	c0,0.121,0,0.241,0,0.362c0.474,1.499,1.179,3.974,0.362,5.789c-0.241,0.482-0.482,0.965-0.724,1.447
	c-1.981,0.559-3.195,1.085-3.98,0.362c-2.23-1.547-0.554-3.257-2.171-5.427c-0.965-0.241-1.93-0.482-2.895-0.724
	c-1.688-1.929-3.377-3.859-5.065-5.789c-6.741-9.793,2.941-18.174,7.236-24.965c2.559-4.047,1.446-10.482,5.427-13.025
	C220.824,103.598,222.03,102.995,223.236,102.392z"/>
<path fill-rule="evenodd" clip-rule="evenodd" fill="none" d="M472.884,115.779c19.51-0.108,23.971,54.296-6.151,45.226
	c-3.236-0.974-5.285,1.531-7.236,0.362c-3.647-1.935-5.716-6.385-7.236-10.492C445.139,131.627,461.327,122.47,472.884,115.779z"/>
<path fill-rule="evenodd" clip-rule="evenodd" fill="none" d="M279.678,138.211c17.514,9.112,34.529,8.564,33.648,36.904
	c5.939,3.09,16.17,0.726,23.156,1.447c1.809,1.206,3.618,2.412,5.427,3.618c1.598-9.676,19.367-15.521,28.945-9.769
	c7.697,4.622,7.384,15.371,10.492,23.879c10.807-6.896,11.625,5.875,13.387,14.834c1.727,8.783,1.366,20.189,3.618,30.754
	c0.603,1.688,1.206,3.377,1.809,5.065c-0.176,3.76-3.31,7.617-5.065,10.854c-1.809,6.029-3.618,12.061-5.427,18.09
	c3.611,6.594,9.861,13.344,11.94,21.347c0,3.135,0,6.272,0,9.407c0.362,3.015,0.724,6.03,1.085,9.045
	c-1.26,5.832-6.208,13.429-8.322,19.176c-2.76,7.504,0.063,15.377-2.895,23.156c-2.296,6.04-18.611,10.882-17.005,15.196
	c-1.103,7.544-2.684,21.903-7.96,27.859c-2.801,3.162-5.582,3.57-7.236,8.322c-1.412,4.056-0.345,9.307,0.362,13.025
	c0.938,4.936-1.585,11.079-2.895,14.834c-2.449,0.769-9.157,3.332-13.749,2.171c-1.948-0.493-4.698-3.749-4.703-3.618
	c-3.508,2.611-4.894,8.208-8.322,10.492c-5.193,3.462-20.46,5.194-22.794,7.598c-1.085,6.03-2.171,12.061-3.256,18.09
	c-3.762,5.05-8.805,3.911-14.472,6.513c-0.775,5.107-3.677,12.001-6.513,15.558c-0.965,0.12-1.93,0.241-2.895,0.362
	c-1.786-1.179-1.908-4.176-3.618-5.065c-2.923-1.52-4.901-2.284-7.236-3.618c-0.925,3.224-13.58,20.428-16.281,21.347
	c-3.309,1.126-6.651,1.005-9.769,2.533c-4.912,2.408-7.454,5.798-14.472,6.151c-3.135-2.532-6.272-5.066-9.407-7.598
	c-0.965-2.412-1.93-4.824-2.895-7.236c-1.327-1.206-2.653-2.412-3.98-3.618c0-1.206,0-2.412,0-3.618
	c-1.161-3.34-6.165-7.389-7.236-11.216c0.241-1.809,0.482-3.618,0.724-5.427c-0.12-2.774-0.241-5.548-0.362-8.322
	c0.677-4.24,3.358-6.527,4.704-9.769c1.352-3.257,1.238-7.907,3.618-10.131c15.981,0.363,20.994-28.56,44.864-15.196
	c2.457-0.853,3.778-2.303,6.874-2.894c-4.341-1.688-8.684-3.377-13.025-5.065c-5.488-2.962-7.704-8.992-10.854-14.472
	c-2.171-1.568-4.342-3.136-6.513-4.703c-2.161-3.012-7.377-18.334-5.789-24.241c0.886-3.298,2.848-6.35,1.809-11.578
	c-1.714-8.62-7.784-13.467-10.854-20.985c-1.089-2.666-3.703-8.276-2.895-11.578c0.51-2.082,2.299-2.397,1.447-5.427
	c-3.899-13.872-18.834-24.032-13.387-43.779c3.392-12.297,14.752-21.582,16.643-34.372c-0.121-0.121-0.241-0.241-0.362-0.362
	c-4.759,0.436-6.655-0.039-10.131-1.809c0.794,13.419-10.424,10.717-16.281,17.005c-0.362,2.291-0.724,4.583-1.085,6.874
	c-2.49,6.02-8.357,15.432-13.387,19.176c-2.532,1.327-5.066,2.653-7.598,3.98c-4.407,3.854-8.271,9.256-13.749,11.94
	c-8.096,3.967-20.188,5.122-24.603,6.874c-7.336-2.211-13.865-6.598-19.9-10.131c-2.774-0.724-5.548-1.447-8.322-2.171
	c-9.2-5.836-8.77-10.238-14.111-19.538c-1.929-2.291-3.859-4.583-5.789-6.874c-4.925-8.984-5.26-30.572-4.342-43.055
	c-0.241-1.447-0.482-2.895-0.724-4.342c-2.242-5.132-5.799-9.326-3.618-16.643c1.847-6.195,7.21-7.632,11.578-11.216
	c-1.611-10.381-0.566-22.208,6.513-26.05c1.665-0.903,4.163-0.359,5.065-1.085c2.565-4.715,6.473-6.546,9.407-10.492
	c3.921-5.274,9.45-17.383,20.985-13.025c2.362,1.273,2.593,4.337,3.618,6.874c5.408-1.43,9.099,0.563,12.663-2.171
	c0.589-3.84,2.323-5.401,3.98-7.96c10.448-0.943,28.447,1.318,35.096,6.151c3.469,2.521,3.652,8.717,7.236,11.216
	c2.171,0.965,4.342,1.93,6.513,2.895c4.097,2.975,6.041,7.792,9.045,11.94c2.11,2.913,7.505,2.789,9.407,6.151
	c1.816,3.21-0.281,7.834,0.724,11.216c1.317,4.437,5.574,8.489,7.236,12.301c2.509,5.755,2.474,13.052,6.151,17.729
	c1.769,2.25,7.302,2.989,9.769,5.789c0.965-0.121,1.93-0.241,2.895-0.362c2.615-1.496,15.555-20.649,15.92-24.241
	c-5.909-3.299-5.967-10.731-8.322-17.729c-1.6-4.757-6.969-9.369-6.512-16.643c0.385-6.141,5.025-6.503,7.598-10.131
	c2.638-3.719,2.962-8.945,5.427-13.025c1.122-1.856,2.766-1.059,4.704-2.171C270.479,146.192,271.543,141.795,279.678,138.211z"/>
<path fill-rule="evenodd" clip-rule="evenodd" fill="none" d="M488.804,184.523c3.53,0.555,5.329,2.923,7.96,4.342
	c7.091,3.826,14.616,7.889,17.729,15.558c0.844,3.015,1.688,6.03,2.533,9.045c5.319,11.673,7.075,17.202,6.874,31.477
	c-6.062,4.919-9.714,9.565-19.538,10.854c-7.206,0.946-11.472-4.734-17.005-2.533c-4.722-3.473-6.947-9.099-10.854-13.387
	c-1.181,2.059-3.096,1.406-4.704,0.362c-2.486-10.03-12.65-12.34-16.643-21.709C445.69,196.323,476.181,190.486,488.804,184.523z"/>
<path fill-rule="evenodd" clip-rule="evenodd" fill="none" d="M79.96,236.623c0.121,0.241,0.241,0.482,0.362,0.724
	C80.201,237.105,80.08,236.864,79.96,236.623z"/>
<path fill-rule="evenodd" clip-rule="evenodd" fill="none" d="M200.08,304.281c0.121,0.241,0.241,0.482,0.362,0.724
	C200.322,304.764,200.201,304.522,200.08,304.281z"/>
<path fill-rule="evenodd" clip-rule="evenodd" fill="none" d="M129.166,363.98c7.477-0.144,15.772,9.494,12.663,17.729
	c-4.17,11.047-10.782,14.793-23.518,17.005c-14.5,2.518-18.665-23.538-13.025-32.563c3.101-0.382,4.708,0.354,8.322,0.724
	c0.904-1.829,1.245-2.435,3.98-2.533c2.123,0.795,3.141,1.607,4.342,3.256C124.948,366.558,126.972,365.689,129.166,363.98z"/>
<path fill-rule="evenodd" clip-rule="evenodd" fill="none" d="M535.116,365.789c8.008,1.763,14.162,3.55,14.834,14.472
	c0,2.05,0,4.101,0,6.151c2.08,4.491,8.926,14.171,3.256,20.623c-1.575,1.793-11.025,3.45-11.578,2.895
	c-4.5,3.955-8.836,8.2-13.749,11.94c-3.498-0.977-8.219-1.113-10.854-2.895c-3.132-6.776-19.571-31.526-9.407-41.246
	c4.265-4.079,7.934,2.515,10.493,0c3.007-1.467,3.695-4.944,6.151-6.874C527.879,369.166,531.498,367.477,535.116,365.789z"/>
<path fill-rule="evenodd" clip-rule="evenodd" fill="none" d="M399.799,397.266c6.03,0.241,12.061,0.482,18.09,0.724
	c15.158,3.192,20.286,0.258,30.392,15.196c2.53,3.74,7.509,8.911,4.342,16.281c-0.965,0.965-1.93,1.93-2.895,2.895
	c1.13,2.319,3.238,3.711,3.98,6.513c0,3.618,0,7.237,0,10.854c-0.068,4.263,4.567,8.33,1.085,13.387
	c-2.433,3.533-6.59,5.892-9.407,9.045c0.241,0.362,0.482,0.724,0.724,1.085c6.292,2.275,11.669,20.795,7.96,28.945
	c-1.258,3.056-4.189,2.42-5.789,4.703c-2.826,4.034-1.345,9.371-3.618,12.663c-5.441,7.882-22.096,8.722-30.754,6.513
	c-2.464-0.629-3.966,1.006-5.427,1.447c-4.9,1.481-13.089,0.12-16.281-3.256c-0.161-6.403,3.298-6.067,5.427-7.96
	c1.573-8.028-6.82-37.366,2.171-43.417c4.489-2.659,8.967-0.956,11.578-6.151c-1.818-1.103-2.415-1.062-2.533-3.98
	c0.844-0.844,1.689-1.689,2.533-2.533c-1.509-10.892-9.093-11.451-14.111-18.091c-3.376-5.909-6.754-11.82-10.131-17.729
	c0.121-1.929,0.241-3.859,0.362-5.789c1.006-1.207,0.92-1.423,2.895-1.809c-0.409-6.845,0.543-16.623,6.512-18.814
	C397.869,397.749,398.834,397.507,399.799,397.266z"/>
<path fill-rule="evenodd" clip-rule="evenodd" fill="none" d="M30.754,401.246c4.842-0.125,10.075,0.556,13.387,2.895
	c0.624,3.795,3.22,3.113,5.065,5.427c3.505,4.397,5.474,11.741,3.256,18.09c-1.019,2.917-1.823,5.512-4.703,6.513
	c-3.517,1.079-8.047,1.882-11.578,0.362c-2.291-2.291-4.583-4.583-6.874-6.874c-4.684-3.528-15.336-7.326-11.216-18.09
	C19.926,404.772,26.144,403.409,30.754,401.246z"/>
<path fill-rule="evenodd" clip-rule="evenodd" fill="none" d="M120.844,421.869c0.362,0,0.724,0,1.085,0
	c-0.12,0.362-0.241,0.724-0.362,1.085C121.327,422.593,121.085,422.231,120.844,421.869z"/>
<path fill-rule="evenodd" clip-rule="evenodd" fill="none" d="M112.884,429.467c7.564,1.007,17.352,1.128,22.794,4.342
	c4.543,2.683,2.704,8.069,5.065,13.025c0.949,1.99,3.396,1.758,4.703,3.256c5.394,6.184,2.743,21.442-2.171,25.327
	c-5.315,4.201-10.999,1.392-15.196-1.447c-3.615-2.445-6.956,3.462-9.407-0.724c-1.78-3.039-0.549-7.75-2.171-12.301
	c-1.334-3.743-6.238-10.534-9.769-12.302c-1.069-7.677,1.624-14.16,4.703-18.814C111.919,429.708,112.402,429.588,112.884,429.467z"
	/>
<path fill-rule="evenodd" clip-rule="evenodd" fill="none" d="M491.698,481.93c-2.086-0.221-2.036-0.588-3.256-1.447
	c-2.466-9.333-2.321-17.918-8.683-23.156c-0.08-7.826,3.308-11.893,6.513-16.281c11.499-15.749,26.97-13.642,42.693-3.256
	c2.412,2.532,4.824,5.066,7.236,7.598c1.447,0.362,2.895,0.724,4.342,1.085c3.442,2.245,6.683,8.524,7.96,12.663
	c1.638,5.311-4.066,10.229-5.789,13.025c-6.921,11.231-18.106,17.664-29.668,23.156C503.971,499.626,491.615,492.95,491.698,481.93z
	"/>
<path fill-rule="evenodd" clip-rule="evenodd" fill="none" d="M458.412,515.216c17.332-0.177,39.48,28.3,31.116,47.397
	c-4.795,10.948-17.399,15.714-22.794,25.689c-3.368,6.226,2.363,10.737-3.618,16.643c-3.377-1.085-6.754-2.171-10.131-3.256
	c-0.121,0.482-0.241,0.965-0.362,1.447c3.776,12.636-11.634,26.544-22.794,24.241c-4.059-0.837-4.989-4.928-7.598-7.236
	c-2.905-0.048-6.272,2.14-10.131,1.447c-5.306-6.15-10.614-12.302-15.92-18.452c-1.085-0.121-2.171-0.241-3.256-0.362
	c-0.362,0.121-0.724,0.241-1.085,0.362c0.954,4.67,3.766,9.845,2.533,15.558c-1.041,4.824-4.404,8.216-4.704,14.111
	c-0.258,5.073,4.953,10.178,1.809,16.643c-2.774,3.738-5.548,7.478-8.322,11.216c-0.241,2.171-0.483,4.342-0.724,6.513
	c-3.486,11.178-7.822,26.934-21.347,28.221c-1.929-0.724-3.859-1.447-5.789-2.171c-7.464-0.001-16.89,5.081-24.603,1.809
	c-3.313-1.406-9.802-9.391-11.216-12.663c-1.085-3.256-2.171-6.513-3.256-9.769c-1.867-2.311-6.498-2.052-8.322-4.342
	c-0.965-4.221-1.93-8.443-2.895-12.663c-0.803-2.383-3.469-2.842-4.342-4.703c-3.349-7.146,0.796-17.389,4.342-20.985
	c1.684-1.708,4.325-2.001,5.789-3.98c1.094-1.991,0.869-3.351,0.724-6.151c-4.76-1.781-11.813-11.88-7.96-18.452
	c2.076-3.541,7.609-3.763,10.492-6.513c-1.174-12.689,5.936-14.736,17.367-13.387c0.674-5.239,5.323-3.622,7.598-6.874
	c2.505-3.58,2.107-9.015,4.703-12.302c2.902-3.672,6.809-1.435,11.94-3.256c7.685-2.728,14.153-2.966,18.09,3.618
	c0.241-0.121,0.483-0.241,0.724-0.362c8.805-27.414,30.876-23.987,43.417-2.171c0.362-0.362,0.724-0.724,1.085-1.086
	c8.717-4.247,5.405-15.937,10.131-24.241c0.241-0.121,0.482-0.241,0.724-0.362c3.01-3.545,9.749-5.072,13.749-7.598
	C449,523.37,452.183,518.683,458.412,515.216z"/>
<path fill-rule="evenodd" clip-rule="evenodd" fill="none" d="M224.683,632.442c13.695-0.376,28.94,15.896,21.347,28.583
	c-4.423,7.39-23.535,6.818-30.392,2.171c-3.09-2.094-5.788-9.045-7.236-12.663C210.054,641.915,218.203,636.533,224.683,632.442z"/>
<path fill-rule="evenodd" clip-rule="evenodd" fill="none" d="M134.593,670.07c5.594-0.071,7.827,2.158,11.216,3.98
	c19.51,10.488,15.451,35.595-5.065,40.884c-9.598,2.474-21.898-11.858-22.432-19.538c0.723-1.929,1.447-3.859,2.171-5.789
	C125.336,676.434,126.653,678.587,134.593,670.07z"/>
</svg>
