<?xml version="1.0" encoding="utf-8"?>
<!-- Generator: Adobe Illustrator 17.0.0, SVG Export Plug-In . SVG Version: 6.00 Build 0)  -->
<!DOCTYPE svg PUBLIC "-//W3C//DTD SVG 1.1//EN" "http://www.w3.org/Graphics/SVG/1.1/DTD/svg11.dtd">
<svg version="1.1" id="Layer_1" xmlns="http://www.w3.org/2000/svg" xmlns:xlink="http://www.w3.org/1999/xlink" x="0px" y="0px"
	 width="1171.899px" height="1306.131px" viewBox="0 0 1171.899 1306.131" enable-background="new 0 0 1171.899 1306.131"
	 xml:space="preserve">
<path fill-rule="evenodd" clip-rule="evenodd" fill="none" d="M586.131,0c0.12,0.241,0.241,0.482,0.362,0.724
	C586.372,0.482,586.251,0.241,586.131,0z"/>
<path fill-rule="evenodd" clip-rule="evenodd" fill="none" d="M586.131,2.533c0.12,0.241,0.241,0.482,0.362,0.724
	C586.372,3.015,586.251,2.774,586.131,2.533z"/>
<path fill-rule="evenodd" clip-rule="evenodd" fill="none" d="M588.663,1266.332c-0.121,0.603-0.241,1.206-0.362,1.809
	c-0.152-1.89,0.237-1.441-1.085-2.171c0,0.603,0,1.206,0,1.809c-10.686-4.529-21.368-4.884-32.201-10.492
	c-5.886-3.048-11.644-9.574-17.367-13.387c-13.59-9.054-27.291-16.685-40.523-26.05c-2.774-3.135-5.548-6.272-8.322-9.407
	c-3.609-3.228-27.766-26.254-28.221-28.945c-9.768,7.718-19.539,15.438-29.306,23.156c-55.17,34.194-110.972,63.701-181.628,81.045
	c-7.263,1.783-14.665,6.377-22.794,7.598c-0.121,0.965-0.241,1.93-0.362,2.895c-3.917,0.239-5.281,2.214-8.684,2.895
	c-9.406,0.965-18.815,1.93-28.221,2.894c-9.588,1.03-25.182-1.908-38.352-2.171c-6.575,8.922-18.691,7.426-30.754,5.065
	c-12.541-3.497-25.087-6.995-37.628-10.492c-6.391-1.327-12.785-2.653-19.176-3.98c-2.412-1.929-4.824-3.859-7.236-5.789
	c0.39,1.356,0.629,0.431,0,1.809c-0.241,0.241-0.482,0.482-0.724,0.724c-7.877-0.751-7.646-8.038-13.025-10.493
	c-8.483-3.871-20.361-4.02-27.498-9.407c-14.594-11.015,0.006-32.798,3.256-46.673c2.291-0.844,4.583-1.688,6.874-2.533
	c9.206,0.697,15.512,8.851,26.05,9.045c4.014,0.074,11.577-0.987,17.367,0c5.192,0.885,14.759,5.979,22.432,7.96
	c12.858,3.319,25.671,5.438,37.99,10.492c3.256,1.809,6.513,3.618,9.769,5.427c5.129,2.094,9.465,1.723,13.025,5.065
	c1.447,2.532,2.895,5.066,4.342,7.598c20.889,3.714,39.811,2.658,62.593-2.171c6.391-1.206,12.785-2.412,19.176-3.618
	c0.603,0.965,1.206,1.93,1.809,2.895c11.215-2.653,22.433-5.307,33.648-7.96c39.528-15.855,75.864-32.233,109.266-53.91
	c6.125-3.975,32.754-22.4,35.095-27.497c0.121-2.412,0.241-4.824,0.362-7.236c1.749-5.619,9.216-11.021,14.111-13.387
	c-2.084-9.683-10.021-18.031-14.834-25.688c-8.321-15.315-16.644-30.635-24.965-45.95c-28.649-53.679-55.293-108.425-79.236-166.07
	c-18.435-44.384-34.087-92.451-42.693-143.638c-3.647-21.69-4.89-46.898-7.236-65.849c0-12.3,0-24.604,0-36.905
	c0.844,0,1.688,0,2.533,0c-0.201-9.571,2.676-16.763,4.342-24.603c2.05-15.556,4.101-31.117,6.151-46.673
	c2.201-12.396,0.504-23.432,3.618-36.181c5.185-23.998,10.372-48.002,15.558-72c4.944-16.521,9.89-33.047,14.834-49.568
	c4.311-13.979,6.776-27.259,11.94-40.523c16.433-42.213,36.049-82.334,56.804-120.482c0.482,0.362,0.965,0.724,1.447,1.085
	c0.516-4.329,3.981-7.28,5.789-10.492c7.944-14.116,16.337-27.34,24.603-41.246c5.909-11.094,11.82-22.192,17.729-33.286
	c17.738-28.634,40.426-56.658,65.488-78.151c0.814-0.698,4.993-1.243,7.236-2.895c15.783-11.619,33.973-21.113,50.292-32.563
	c5.547-2.653,11.096-5.307,16.643-7.96c0.121-1.326,0.241-2.653,0.362-3.98c2.05-0.724,4.101-1.447,6.151-2.171
	c-0.121,0.241-0.241,0.482-0.362,0.724c-2.156,0.781-4.516,1.52-5.427,2.895c0.941,0.154,0.198-0.353,1.085,0.362
	c-1.453,0.726-0.426,0.4-1.085,1.447c1.326-0.724,2.653-1.447,3.98-2.171c-0.947-0.642-0.493-0.023-0.362-1.085
	c0.75,0.585,0.97,0.324,2.533,0c0.382-0.965-0.216-2.063,1.085-1.447c-0.482-0.362-0.965-0.724-1.447-1.085
	c14.268-5.283,28.254-11.643,44.503-16.281c5.306-1.447,10.614-2.895,15.92-4.342c3.632-1.576,19.944-7.045,22.432-6.151
	c6.923-2.317,26.475-8.548,31.477-7.598c6.112,1.16,34.422-3.673,36.543-6.874c1.688,0.603,3.377,1.206,5.065,1.809
	c5.065-0.482,10.131-0.965,15.196-1.447c30.293-4.32,56.098-1.389,86.11,1.447c-0.109-3.699-0.356-6.901,1.447-9.407
	c1.283-1.783,11.94-8.683,11.94-8.683c2.419-0.01,8.641,3.267,13.025,2.171c3.859-1.568,7.719-3.136,11.578-4.704
	c12.783,2.412,25.569,4.824,38.352,7.236c10.683,2.646,17.782-3.889,27.497,2.894c1.177,4.661,1.855,9.443,0.724,14.111
	c0.241-0.121,0.482-0.241,0.724-0.362c1-3.484,2.37-3.351,5.065-5.065c2.532-1.809,5.065-3.618,7.598-5.427
	c7.877-2.754,20.454,3.413,24.965,7.96c1.305,1.315,3.813,5.561,2.533,9.045c-2.917,7.937-6.613,36.703-12.302,40.161
	c-0.482-0.362-0.965-0.724-1.447-1.086c0-0.724,0-1.447,0-2.171c0.121-0.965,0.241-1.93,0.362-2.895
	c-6.169,1.196-15.363-2.433-22.432-1.809c-3.768,0.333-4.875,3.143-7.236,3.98c-5.022,1.779-15.267,0.079-21.709,1.809
	c-6.145,1.65-8.576,6.343-13.387,8.683c-13.608,3.289-43.073-26.413-61.146-13.025c-8.183-3.42-10.185-16.941-13.387-18.452
	c-7.235,0.241-14.473,0.483-21.708,0.724c-18.907-0.002-31.869-0.252-49.206,3.256c-8.924,0.965-17.85,1.93-26.774,2.895
	c-27.284,5.433-49.926,7.657-75.98,16.643c-17.727,6.271-35.459,12.543-53.186,18.814c-7.597,3.256-15.197,6.513-22.794,9.769
	c0.061-1.221-0.372,0.045-0.362-1.447c-0.482,0.362-0.965,0.724-1.447,1.085c0.611,0.388,0.352,0.091,0,0.724
	c1.601-0.281,0.662-0.728,1.809,0c-0.241,0-0.482,0-0.724,0c-2.146,1.572-4.656,1.871-6.874,2.533
	c-8.924,5.306-17.85,10.614-26.774,15.92c-27.843,18.065-53.395,39.648-73.447,65.487c-19.126,24.646-36.108,53.12-52.1,80.322
	c-4.1,7.718-8.201,15.438-12.301,23.156c-2.018,4.8-3.374,10.761-6.874,14.111c-1.091-0.445-0.662-0.471-1.809-0.362
	c-1.93,3.859-3.859,7.719-5.789,11.578c-5.065,9.527-10.131,19.056-15.196,28.583c-11.13,18.991-18.898,40.78-28.221,61.146
	c-14.554,31.793-26.164,66.251-36.543,100.945c-0.965,7.839-1.93,15.679-2.894,23.518c-2.532,7.115-5.066,14.232-7.598,21.347
	c-0.965,10.25-1.93,20.503-2.895,30.754c-2.313,13.033-1.228,28.063-3.618,42.693c-2.131,13.043-2.964,27.606-3.256,42.332
	c1.376,0.145,0.45-0.407,1.447,0.362c-0.723,82.797,21.091,164.341,47.759,235.538c7.392,19.734,15.563,37.348,24.241,55.357
	c3.497,6.994,6.995,13.991,10.492,20.985c0.381-1.877,0.568-1.678,1.809-2.533c4.859,3.993,5.763,12.936,8.322,19.176
	c3.859,8.924,7.719,17.85,11.578,26.774c9.632,21.056,20.261,41.528,31.839,60.784c9.195,15.292,15.492,32.756,27.136,45.588
	c0.121,0,0.241,0,0.362,0c8.31-7.564,14.794-17.857,21.709-26.774c7.675-9.898,16.734-19.217,23.879-29.668
	c20.598-30.129,39.302-72.708,51.377-110.714c4.732-14.896,11-26.8,14.11-44.864c0.724-6.15,1.447-12.302,2.171-18.452
	c-3.015-4.462-6.03-8.925-9.045-13.387c-3.002-1.938-5.981-1.489-7.96-4.342c-1.085-2.291-2.171-4.583-3.256-6.874
	c-5.036-7.719-12.446-14.912-17.367-22.794c-20.22-32.385-31.46-71.638-33.648-118.673c-0.583-12.529,5.774-23.419,8.683-32.925
	c1.085-7.959,2.171-15.92,3.256-23.879c2.05-3.256,4.101-6.513,6.151-9.769c1.487-1.041,3.899-0.97,5.427-2.894
	c1.798-2.265,2.89-6.875,4.703-9.407c4.582-4.221,9.166-8.443,13.749-12.663c10.491-10.733,20.986-21.468,31.477-32.201
	c-0.362-4.1-0.724-8.201-1.085-12.302c0.241-5.427,0.482-10.855,0.724-16.281c0.121-17.124,0.241-34.253,0.362-51.377
	c-0.121-6.874-0.241-13.749-0.362-20.623c0.362-3.979,0.724-7.96,1.085-11.94c-0.121,0.724-0.241,1.447-0.362,2.171
	c0.121-1.327,0.241-2.653,0.362-3.98c0.075,0.806-0.277,1.159,0.362,0.724c0.362-4.1,0.724-8.201,1.086-12.302
	c2.63-5.383,3.006-20.37,4.703-27.497c0.791-3.322,2.653-10.735,1.447-12.663c-0.699,1.095-0.074,0.586-1.447,1.085
	c-0.121-0.362-0.241-0.724-0.362-1.085c0-0.724,0-1.447,0-2.171c1.929-0.965,3.859-1.93,5.789-2.895
	c1.93-5.547,3.859-11.096,5.789-16.643c3.738-7.477,7.478-14.956,11.216-22.432c7.274-12.329,16.236-24.399,24.965-35.457
	c6.03-6.391,12.061-12.785,18.09-19.176c6.818-9.895,12.746-21.357,22.432-28.221c12.88-9.128,30.368-14.077,46.311-20.261
	c2.412-0.482,4.824-0.965,7.236-1.447c12.249-5.597,23.212-13.912,35.096-19.538c5.26-2.49,10.576-1.896,16.281-3.618
	c15.524-4.685,30.044-10.718,47.035-14.834c37.113-8.991,84.569-4.79,117.588,4.342c11.163,3.087,23.457,4.687,34.372,9.045
	c55.017,21.966,97.497,55.976,116.141,115.779c2.914,9.349,2.583,17.106,4.342,26.774c2.497,13.726-1.853,31.622-5.065,41.97
	c-0.603,4.462-1.206,8.925-1.809,13.387c-5.743,18.543-18.908,34.958-32.201,46.311c-8.532,7.288-13.442,19.013-22.432,25.689
	c-8.722,6.476-19.398,7.99-30.754,12.302c-20.58,7.813-43.956,16.943-65.487,20.985c-70.189,13.176-153.391-3.567-218.533,9.045
	c-8.683,0.965-17.368,1.93-26.05,2.894c-18.994,3.781-38.108,8.066-55.719,13.025c-15.466,4.356-26.646,3.58-36.181,16.281
	c-0.279,8.036,4.474,25.968,8.684,26.774c1.085,19.897,2.171,39.801,3.256,59.698c3.204,24.594-2.817,42.425-2.533,61.869
	c-1.085,7.236-2.171,14.473-3.256,21.709c-1.809,14.591-3.618,29.187-5.427,43.779c-0.965,4.341-1.93,8.684-2.894,13.025
	c-2.94,13.182-5.961,32.589-5.427,46.312c4.034,1.3,4.868,5.506,7.96,7.598c15.826,10.708,24.746,28.023,39.437,39.799
	c44.207,35.434,88.204,85.237,106.01,145.085c3.467,11.654,5.086,23.124,6.874,33.648c3.059,17.999,0.148,37.771-3.618,53.186
	c-11.838,48.454-37.753,76.01-78.513,95.156c-5.427,1.447-10.855,2.895-16.281,4.342c-1.93,1.326-3.859,2.653-5.789,3.98
	c-4.462,0.121-8.925,0.241-13.387,0.362C614.849,1267.778,601.33,1266.709,588.663,1266.332z"/>
<path fill-rule="evenodd" clip-rule="evenodd" fill="none" d="M586.131,4.342c0.12,0.241,0.241,0.482,0.362,0.724
	C586.372,4.824,586.251,4.583,586.131,4.342z"/>
<path fill-rule="evenodd" clip-rule="evenodd" fill="none" d="M586.131,5.427c0.12,0.241,0.241,0.482,0.362,0.724
	C586.372,5.91,586.251,5.668,586.131,5.427z"/>
<path fill-rule="evenodd" clip-rule="evenodd" fill="none" d="M586.131,6.512c0.12,0.362,0.241,0.724,0.362,1.085
	c-0.121,0-0.241,0-0.362,0C586.131,7.236,586.131,6.874,586.131,6.512z"/>
<path fill-rule="evenodd" clip-rule="evenodd" fill="none" d="M586.131,7.96c0.12,0.241,0.241,0.482,0.362,0.724
	C586.372,8.442,586.251,8.201,586.131,7.96z"/>
<path fill-rule="evenodd" clip-rule="evenodd" fill="none" d="M586.131,9.045c0.12,0.241,0.241,0.482,0.362,0.724
	C586.372,9.528,586.251,9.286,586.131,9.045z"/>
<path fill-rule="evenodd" clip-rule="evenodd" fill="none" d="M586.131,10.131c0.12,0.241,0.241,0.482,0.362,0.724
	C586.372,10.613,586.251,10.372,586.131,10.131z"/>
<path fill-rule="evenodd" clip-rule="evenodd" fill="none" d="M586.131,11.216c0.12,0.241,0.241,0.483,0.362,0.724
	C586.372,11.698,586.251,11.457,586.131,11.216z"/>
<path fill-rule="evenodd" clip-rule="evenodd" fill="none" d="M586.131,12.302c0.12,0.362,0.241,0.724,0.362,1.085
	c-0.121,0-0.241,0-0.362,0C586.131,13.025,586.131,12.663,586.131,12.302z"/>
<path fill-rule="evenodd" clip-rule="evenodd" fill="none" d="M586.131,13.749c0.12,0.241,0.241,0.482,0.362,0.724
	C586.372,14.231,586.251,13.99,586.131,13.749z"/>
<path fill-rule="evenodd" clip-rule="evenodd" fill="none" d="M586.131,16.281c0.12,0.241,0.241,0.482,0.362,0.724
	C586.372,16.764,586.251,16.522,586.131,16.281z"/>
<path fill-rule="evenodd" clip-rule="evenodd" fill="none" d="M586.131,20.623c0.12,0.241,0.241,0.482,0.362,0.724
	C586.372,21.105,586.251,20.864,586.131,20.623z"/>
<path fill-rule="evenodd" clip-rule="evenodd" fill="none" d="M586.492,29.306c0.121,0.241,0.241,0.482,0.362,0.724
	C586.734,29.789,586.613,29.548,586.492,29.306z"/>
<path fill-rule="evenodd" clip-rule="evenodd" fill="none" d="M586.492,34.372c0.121,0.241,0.241,0.482,0.362,0.724
	C586.734,34.854,586.613,34.613,586.492,34.372z"/>
<path fill-rule="evenodd" clip-rule="evenodd" fill="none" d="M586.492,35.457c0.121,0.241,0.241,0.483,0.362,0.724
	C586.734,35.94,586.613,35.698,586.492,35.457z"/>
<path fill-rule="evenodd" clip-rule="evenodd" fill="none" d="M586.492,37.266c0.121,0.241,0.241,0.482,0.362,0.724
	C586.734,37.749,586.613,37.507,586.492,37.266z"/>
<path fill-rule="evenodd" clip-rule="evenodd" fill="none" d="M586.492,38.352c0.121,0.241,0.241,0.482,0.362,0.724
	C586.734,38.834,586.613,38.593,586.492,38.352z"/>
<path fill-rule="evenodd" clip-rule="evenodd" fill="none" d="M586.492,39.437c0.121,0.241,0.241,0.483,0.362,0.724
	C586.734,39.92,586.613,39.678,586.492,39.437z"/>
<path fill-rule="evenodd" clip-rule="evenodd" fill="none" d="M586.492,40.523c0.121,0.241,0.241,0.482,0.362,0.724
	C586.734,41.005,586.613,40.764,586.492,40.523z"/>
<path fill-rule="evenodd" clip-rule="evenodd" fill="none" d="M586.492,41.608c0.121,0.241,0.241,0.482,0.362,0.724
	C586.734,42.09,586.613,41.849,586.492,41.608z"/>
<path fill-rule="evenodd" clip-rule="evenodd" fill="none" d="M586.492,42.693c0.121,0.241,0.241,0.482,0.362,0.724
	C586.734,43.176,586.613,42.935,586.492,42.693z"/>
<path fill-rule="evenodd" clip-rule="evenodd" fill="none" d="M586.492,49.93c0.121,0.241,0.241,0.482,0.362,0.724
	C586.734,50.412,586.613,50.171,586.492,49.93z"/>
<path fill-rule="evenodd" clip-rule="evenodd" fill="none" d="M858.211,60.422c0.482,0.12,0.965,0.241,1.447,0.362
	C859.176,60.663,858.693,60.543,858.211,60.422z"/>
<path fill-rule="evenodd" clip-rule="evenodd" fill="none" d="M860.02,60.784c1.688,0.603,3.377,1.206,5.065,1.809
	C863.397,61.99,861.708,61.387,860.02,60.784z"/>
<path fill-rule="evenodd" clip-rule="evenodd" fill="none" d="M574.191,64.04c0.362,0,0.724,0,1.085,0
	c-0.771,0.931-0.928,0.899-2.533,1.086c0.121-0.241,0.241-0.483,0.362-0.724C574.047,64.248,573.303,64.755,574.191,64.04z"/>
<path fill-rule="evenodd" clip-rule="evenodd" fill="none" d="M571.658,64.764c0.121,0.241,0.241,0.482,0.362,0.724
	C571.899,65.246,571.779,65.005,571.658,64.764z"/>
<path fill-rule="evenodd" clip-rule="evenodd" fill="none" d="M570.211,65.487c1.599,0.28,1.344,0.219,2.171,1.085
	C571.658,66.211,570.935,65.849,570.211,65.487z"/>
<path fill-rule="evenodd" clip-rule="evenodd" fill="none" d="M570.573,66.573c-0.011,0.632,0.01,0.579-0.362,1.447
	c-0.241-0.241-0.482-0.482-0.724-0.724C569.849,67.055,570.211,66.814,570.573,66.573z"/>
<path fill-rule="evenodd" clip-rule="evenodd" fill="none" d="M575.638,98.412c-0.121,0.241-0.241,0.482-0.362,0.724
	c0.241-0.241,0.482-0.482,0.724-0.724C575.879,98.412,575.759,98.412,575.638,98.412z"/>
<path fill-rule="evenodd" clip-rule="evenodd" fill="none" d="M572.744,100.221c0,0.241,0,0.482,0,0.724
	C572.744,100.703,572.744,100.462,572.744,100.221z"/>
<path fill-rule="evenodd" clip-rule="evenodd" fill="none" d="M571.658,100.945c0.241,0.121,0.482,0.241,0.724,0.362
	C572.141,101.186,571.899,101.065,571.658,100.945z"/>
<path fill-rule="evenodd" clip-rule="evenodd" fill="none" d="M570.211,101.668c-0.121,0.241-0.241,0.482-0.362,0.724
	c0.241-0.241,0.482-0.482,0.724-0.724C570.452,101.668,570.332,101.668,570.211,101.668z"/>
<path fill-rule="evenodd" clip-rule="evenodd" fill="none" d="M871.96,270.995c-6.633,0.362-13.267,0.724-19.899,1.085
	c-8.562,1.327-17.127,2.653-25.688,3.98c-0.844,0.844-1.689,1.689-2.533,2.533c-3.979-0.121-7.96-0.241-11.94-0.362
	c-3.979,0.844-7.96,1.688-11.94,2.533c-4.824,2.412-9.649,4.824-14.472,7.236c-4.221,0.844-8.443,1.689-12.663,2.533
	c-17.587,6.861-34.688,16.253-50.653,24.965c-22.755,12.416-43.636,23.516-61.146,40.884c0.824,1.116,0.71,1.483,1.086,2.533
	c-10.439-0.495-26.541,23.862-33.286,33.286c-7.169,10.016-14.576,20.025-19.9,32.201c-1.809,6.512-3.618,13.026-5.427,19.538
	c-8.748,28.543-19.807,70.249-14.111,103.477c2.661,15.522-2.302,27.289,1.809,40.161c0.121,0,0.241,0,0.362,0
	c1.54-2.406,26.383-10.333,32.563-13.025c13.543-5.9,27.971-13.859,42.693-18.452c18.631-5.813,36.68-5.696,57.889-9.407
	c3.534-0.618,10.129-2.486,16.281-1.085c3.641,0.829,7.277,2.685,12.663,1.809c6.936-1.128,17.637-1.049,24.241-0.724
	c17.124-0.362,34.253-0.724,51.377-1.085c3.859-0.121,7.719-0.241,11.578-0.362c15.355-2.186,36.807-0.656,49.568-0.724
	c1.755-0.009,4.429-2.088,6.874-2.533c4.341,0,8.684,0,13.025,0c8.993-1.585,18.231-1.527,27.497-3.618
	c32.541-7.344,63.794-18.855,86.834-37.628c3.135-4.824,6.272-9.649,9.407-14.472c5.849-7.488,15.344-12.349,18.814-22.07
	c-0.121,0-0.241,0-0.362,0c-1.036,0.519-0.526,0.576-1.809,0.362c0.072-1.133,8.338-25.018,8.683-25.327
	c-0.362,1.568-0.724,3.136-1.085,4.704c0.241-0.121,0.482-0.241,0.724-0.362c1.406-9.458,5.588-28.352-1.086-33.648
	c-1.191-1.177-3.567-0.654-5.065-1.447c0-0.603,0-1.206,0-1.809c0.241-0.482,0.483-0.965,0.724-1.447
	c1.327,0.121,2.653,0.241,3.98,0.362c-2.025-11.386-5.492-34.076-10.13-44.864C1023.159,304.252,952.844,270.827,871.96,270.995z"/>
<path fill-rule="evenodd" clip-rule="evenodd" fill="none" d="M383.518,337.206c0.121,0.241,0.241,0.482,0.362,0.724
	C383.759,337.688,383.638,337.447,383.518,337.206z"/>
<path fill-rule="evenodd" clip-rule="evenodd" fill="none" d="M1031.518,444.663c0.241,0,0.482,0,0.724,0
	C1031.61,445.017,1032.161,444.993,1031.518,444.663z"/>
<path fill-rule="evenodd" clip-rule="evenodd" fill="none" d="M575.276,456.603c-0.121,0.603-0.241,1.206-0.362,1.809
	c0.241-0.121,0.482-0.241,0.724-0.362C575.518,457.568,575.397,457.085,575.276,456.603z"/>
<path fill-rule="evenodd" clip-rule="evenodd" fill="none" d="M574.915,458.774c0,0.724,0,1.447,0,2.171
	c0.578-0.566-0.047-0.117,0.724-0.362C575.397,459.98,575.156,459.377,574.915,458.774z"/>
<path fill-rule="evenodd" clip-rule="evenodd" fill="none" d="M574.553,461.307c-0.121,0.482-0.241,0.965-0.362,1.447
	c0.362-0.241,0.724-0.482,1.085-0.724C575.035,461.789,574.794,461.548,574.553,461.307z"/>
<path fill-rule="evenodd" clip-rule="evenodd" fill="none" d="M574.191,463.116c-0.121,0.482-0.241,0.965-0.362,1.447
	c0.482-0.241,0.965-0.483,1.447-0.724C574.915,463.598,574.553,463.357,574.191,463.116z"/>
<path fill-rule="evenodd" clip-rule="evenodd" fill="none" d="M573.829,464.925c0.061,1.595-0.473,2.852,0.362,3.98
	c0-1.085,0-2.171,0-3.256C574.07,465.407,573.95,465.166,573.829,464.925z"/>
<path fill-rule="evenodd" clip-rule="evenodd" fill="none" d="M573.467,469.266c-0.121,0.121-0.241,0.241-0.362,0.362
	c0.121,0.241,0.241,0.482,0.362,0.724c0.241-0.121,0.482-0.241,0.724-0.362c0-0.121,0-0.241,0-0.362
	C573.95,469.508,573.708,469.387,573.467,469.266z"/>
<path fill-rule="evenodd" clip-rule="evenodd" fill="none" d="M573.467,470.714c-0.121,0.603-0.241,1.206-0.362,1.809
	c0.241-0.603,0.483-1.206,0.724-1.809C573.709,470.714,573.588,470.714,573.467,470.714z"/>
<path fill-rule="evenodd" clip-rule="evenodd" fill="none" d="M573.105,472.884c0,0.241,0,0.482,0,0.724
	C573.105,473.367,573.105,473.126,573.105,472.884z"/>
<path fill-rule="evenodd" clip-rule="evenodd" fill="none" d="M569.126,490.613c0.241,0,0.482,0,0.724,0
	C569.608,490.613,569.367,490.613,569.126,490.613z"/>
<path fill-rule="evenodd" clip-rule="evenodd" fill="none" d="M302.472,513.769c-0.389,5.099-3.766,12.713-2.171,17.367
	C300.914,526.477,304.427,518.854,302.472,513.769z"/>
<path fill-rule="evenodd" clip-rule="evenodd" fill="none" d="M571.658,631.357c-5.09,11.432-17.096,18.964-20.623,31.839
	c-18.882,4.896-19.786,31.307-23.518,51.377c-8.112,43.633,2.794,66.58,17.729,99.136c3.738,7.718,7.478,15.438,11.216,23.156
	c4.944,7.597,9.89,15.197,14.834,22.794c0.121,0,0.241,0,0.362,0c-0.735-7.691,2.541-12.278,4.342-18.09
	c1.809-7.718,3.618-15.438,5.427-23.156c2.535-13.152-7.8-18.661-5.789-31.477c0.482-12.3,0.965-24.604,1.447-36.905
	c3.095-19.791,2.55-42.365-0.724-62.231c0-5.909,0-11.82,0-17.729c-1.555-9.625-2.038-18.022-3.618-27.497
	C572.008,638.158,573.494,634.706,571.658,631.357z"/>
<path fill-rule="evenodd" clip-rule="evenodd" fill="none" d="M275.337,769.206c0,0.241,0,0.482,0,0.724
	C275.337,769.688,275.337,769.447,275.337,769.206z"/>
<path fill-rule="evenodd" clip-rule="evenodd" fill="none" d="M276.784,776.804c0.326,4.692,2.87,20.729,4.703,22.794
	c0.121,0,0.241,0,0.362,0C280.161,792.001,278.472,784.401,276.784,776.804z"/>
<path fill-rule="evenodd" clip-rule="evenodd" fill="none" d="M589.387,927.317c-0.654,7.357-4.453,9.969-6.513,14.834
	c-0.885,2.091-0.433,4.667-0.362,6.874c-2.894,8.08-5.789,16.162-8.683,24.241c-2.171,6.633-4.342,13.267-6.513,19.9
	c-0.724,3.738-1.447,7.478-2.171,11.216c-3.932,9.63-8.714,20.006-14.111,28.583c-1.929,2.171-3.859,4.342-5.789,6.512
	c-0.603,2.774-1.206,5.548-1.809,8.322c-2.654,4.689-8.354,8.335-11.578,13.749c-8.197,13.765-14.15,29.097-22.432,42.332
	c-2.234,3.569-3.735,9.124-6.151,12.663c-6.107,8.948-17.459,16.115-22.07,26.412c-1.48,3.305-6.636,14.168-5.065,16.643
	c3.62,8.996,20.811,24.428,28.583,30.392c13.052,10.016,25.86,21.462,40.523,30.03c13.035,7.618,29.427,12.726,43.417,18.09
	c9.406,0.121,18.815,0.241,28.221,0.362c9.165-0.121,18.333-0.241,27.497-0.362c19.48-5.388,38.987-20.233,49.93-34.734
	c8.007-10.61,14.38-21.837,19.176-35.819c23.846-69.529-17.352-133.937-48.844-173.307c-6.753-6.753-13.508-13.508-20.261-20.261
	c-2.967-2.338-6.306-2.946-8.683-5.789c-12.278-14.679-26.818-25.742-42.693-36.905C591.799,929.97,590.593,928.643,589.387,927.317
	z"/>
<path fill-rule="evenodd" clip-rule="evenodd" fill="none" d="M380.261,1042.01c0.241,0.482,0.482,0.965,0.724,1.447
	C380.744,1042.975,380.503,1042.492,380.261,1042.01z"/>
<path fill-rule="evenodd" clip-rule="evenodd" fill="none" d="M434.895,1104.603c3.202,6.92,7.032,16.35,12.663,20.985
	C443.337,1118.594,439.115,1111.597,434.895,1104.603z"/>
<path fill-rule="evenodd" clip-rule="evenodd" fill="none" d="M472.523,1163.216c0.724,0.724,1.447,1.447,2.171,2.171
	C473.97,1164.663,473.246,1163.94,472.523,1163.216z"/>
<path fill-rule="evenodd" clip-rule="evenodd" fill="none" d="M587.94,1234.131c0.121,0.241,0.241,0.482,0.362,0.724
	C588.181,1234.613,588.06,1234.372,587.94,1234.131z"/>
<path fill-rule="evenodd" clip-rule="evenodd" fill="none" d="M587.94,1235.216c0.121,0.241,0.241,0.483,0.362,0.724
	C588.181,1235.698,588.06,1235.457,587.94,1235.216z"/>
<path fill-rule="evenodd" clip-rule="evenodd" fill="none" d="M588.302,1268.502c0,0.482,0,0.965,0,1.447
	C588.302,1269.467,588.302,1268.985,588.302,1268.502z"/>
<path fill-rule="evenodd" clip-rule="evenodd" fill="none" d="M51.739,1278.995c0.482,0.482,0.965,0.965,1.447,1.447
	C52.704,1279.96,52.221,1279.477,51.739,1278.995z"/>
</svg>
