<?xml version="1.0" encoding="utf-8"?>
<!-- Generator: Adobe Illustrator 19.2.0, SVG Export Plug-In . SVG Version: 6.00 Build 0)  -->
<svg version="1.1" id="Laag_1" xmlns="http://www.w3.org/2000/svg" xmlns:xlink="http://www.w3.org/1999/xlink" x="0px" y="0px"
	 viewBox="0 0 1190.6 841.9" style="enable-background:new 0 0 1190.6 841.9;" xml:space="preserve">
<path d="M21.1,729.8c-4.9-2.2-4.2-6.7-4.5-10.7c-0.1-0.7,0-1.5-0.2-2.2c-2.1-6.5-3.2-13-2.8-19.9c0.4-6.4,0.2-12.8,0.3-19.2
	c0-2.7,0-5.4,0.1-8.1c0-0.9-0.3-1.5-1.2-1.3c-1.8,0.4-2.9-1-4.2-1.7c-0.5-0.3-0.9-1.9-0.6-2.2c0.7-0.7,1.9-1.4,2.8-1.3
	c1.7,0,3.3,0.6,5,0.9c0.3,0.1,0.7,0.3,0.8,0.2c2.2-1.5,4.8-1,7.2-1.5c1.4-0.3,2.7-0.9,4-1.3c3.4-0.8,6.8-1.6,10.3-2.2
	c3.9-0.7,7.9-1.4,11.9-1.9c2.5-0.3,5.1-0.4,7.7-0.3c4.9,0.2,9.5-1.3,14.3-1.6c3.7-0.3,7.5,0.1,11.3,0.4c5.7,0.5,11.3,1.4,17,1.8
	c5.9,0.4,11.8,0.4,17.7,0.5c4.3,0.1,8.4,0.9,12.4,2.6c1.8,0.8,3.7,1,5.4,1.5c0-5.5,0-10.9,0-16.2c0-0.2-0.6-0.4-0.7-0.5
	c0.2-2.9,0.4-5.7,0.5-8.5c0.2-3.6,0.4-7.2,0.5-10.8c0.1-2.4,0-4.8,0-7.2c0.1-4,0.3-8,0.2-12c0-5.5-0.2-11-0.3-16.5
	c0-4.7,0.1-9.3,0.1-14c-0.1-6.7-0.2-13.3-0.3-20c0-2.5,0.1-5-0.1-7.5c-0.9-13.2,0-26.3-0.2-39.5c0-1.8,0-3.6,0-5.1
	c-2.5,0-4.7-0.1-7,0c-2.5,0.1-4-1.4-5.5-2.9c-0.9-0.9-1.8-1.9-2.8-2.7c-2.9-2.4-3.8-5.6-3.7-9.3c0.1-5.9,0.3-11.7,0.3-17.6
	c0.1-6.1,0-12.2,0-18.3c-0.1-7.3-0.2-14.6-0.3-21.8c-0.2-10-0.5-20-0.6-29.9c0-4.5,0.3-8.9,0.4-13.4c0.1-2.3-0.1-4.7-0.1-7
	c-0.1-4.6,0.1-9.3-0.5-13.9c-0.7-5.9,2.3-10.1,5.4-14.3c1-1.5,2.8-1.9,4.6-1.8c3,0,5.9-0.6,8.8-1.7c1.2-0.5,1.6-1.1,1.6-2.2
	c0.1-3,0.2-6,0.2-9.1c0-3.4-0.1-6.8,0-10.2c0.1-6.2,0.2-12.4,0.3-18.6c0.1-4.1,0.1-8.2,0.1-12.4c0.1-6.7,0.1-13.3,0.1-20
	c0-4,0.3-8,0.3-11.9c0-4.3-0.2-8.6-0.3-12.9c0-3.3,0.2-6.6,0.2-9.9c0-5.1-0.1-10.2-0.2-15.3c-0.1-5.8-0.3-11.6-0.3-17.5
	c0-4.2,0.3-8.3,0.3-12.5c0-3.5-0.2-6.9-0.4-10.4c0-1.2-0.7-1.7-1.9-1.6c-4.4,0.1-8.9,0.6-13.3,0.3c-3.6-0.2-7.3-0.3-10.7-2.3
	c-2.2-1.3-4.8-1.9-7.2-3c-1.3-0.6-2.5-1.3-2.8-2.9c-0.1-0.6-1.1-1.1-1.8-1.4c-2.1-1-4.1-2.3-6.3-2.7c-2.1-0.4-4.4-0.2-6.5,0.1
	c-3.3,0.4-6.5,1.2-9.8,1.7c-1.1,0.2-2.2-0.1-3.3-0.1c-2,0-4,0.3-5.9-0.1c-4.2-1-8-2.6-9.4-7.3c-0.6-1.9-1.2-3.8-2-5.6
	c-0.2-0.4-1-0.8-1.5-0.8c-3.2,0.4-4.2-0.6-3.5-3.7c0.1-0.3-0.1-0.7-0.1-1c-0.1-0.4-0.4-0.9-0.2-1.2c0.6-1.5,0.9-3.4,2-4.2
	c2.1-1.5,2.4-3.5,2.9-5.7c0.6-2.6,0.7-5.9,3.3-7.4c3-1.7,6.1-3.4,9.4-4.1c4.5-0.9,9.1-1,13.7-1.3c1.6-0.1,3.2,0.2,4.7-0.1
	c1.8-0.4,3.5-1.1,5.2-1.8c3.5-1.6,7.1-2.3,10.9-2.7c5.2-0.6,10.1-2,14.8-4.4c2.3-1.2,4.2-1.3,6.5,0.4c1.5,1.1,3.6,1.4,5.5,2.1
	c0.8,0.3,1.8,0.4,2.4,1c2.4,1.9,5.3,1.7,8.1,1.9c2.5,0.2,3.6,1,3.9,3.6c1.8,0.2,2.1-0.9,2.1-2.3c0.2-6.2,0.7-12.4,0.7-18.6
	c0.1-5.5-0.4-10.9-0.4-16.4c-0.1-3.9,0-7.8,0.2-11.6c0.3-6,0.8-12.1,1.2-18.1c0.3-5.1,0.5-10.2,0.7-15.4c0.1-1.3,0.1-2.6,0-3.8
	c-0.1-2.1-0.2-4.2-0.3-6.3c0-2.6,0.1-5.2,0-7.8c-0.1-1.7-0.4-3.5-0.8-5.2c-0.4-1.5-0.1-2.6,1.1-3.6c0.6-0.6,1.1-1.4,1.4-2.2
	c1.1-3.2,2.9-6,5.6-8.1c0.5-0.4,1.3-0.6,1.8-0.5c3.3,0.9,6.5-0.5,9.7-0.6c1,0,2-0.1,3-0.3c2.3-0.6,4.5-1.6,6.9-1.9
	c4.9-0.6,9.9-1,14.9-1.2c8.1-0.2,16.3-0.2,24.4-0.2c5.5,0,11,0.1,16.5,0.3c5.1,0.1,10.2,0.2,15.4,0.6c4.9,0.3,9.8,1,14.8,1.3
	c2.3,0.2,4.7-0.1,7-0.1c1.2,0,2.5-0.5,3.1,1c0.5,1.3,1.6,2.5,0,4.2c2.3,0.7,4.5,1.4,6.7,2.1c0.9,0.3,1.8,0.6,2.5,1.2
	c1.1,1,2.5,1,3.8,1c2.3,0,3.6,0.8,4.6,2.8c1,2,1.9,4,3.1,6c0.9,1.5,2.2,2.9,3.3,4.3c0.6,0.8,0.5,1.5-0.3,2.2
	c-0.5,0.4-0.9,1.1-1.4,1.6c-0.9,1-1.9,0.9-2.6-0.3c-0.3-0.6-0.8-1.1-1.5-2.2c0.2,2-0.7,3.6,0.8,5c0.4,0.4,0.6,1.4,0.4,1.9
	c-0.7,2-0.8,3.9-0.3,5.9c0.6,2.4,1.4,4.8,1.9,7.2c0.5,2.1,0.9,4.3,0.9,6.4c-0.1,4.3-0.5,8.5-0.8,12.8c-0.2,2.5-0.4,5-0.5,7.4
	c-0.1,2.7-0.1,5.4-0.2,8c-0.2,6.1-0.5,12.2-0.7,18.2c-0.1,2.4-0.1,4.8-0.1,7.2c0,5.7,0.1,11.3,0,17c-0.1,5.7-0.5,11.3-0.6,17
	c-0.1,4.1-0.1,8.3-0.1,12.4c0,6.3,0,12.6-0.2,18.9c0,1.9-0.5,3.8-0.7,5.5c5.7,1.1,11.2,2.3,16.8,3.1c2.5,0.4,4.9,0.7,6.8,2.5
	c3.5,3.1,4.5,7.2,4,11.5c-0.4,3.9-0.7,7.8-0.2,11.7c0.4,3.7,0.5,7.4,1,11.1c0.5,4.1,0.6,8.2-0.2,12.4c-0.6,3.5-0.5,7.1-1,10.6
	c-0.3,2.2-0.9,4.4-1.4,6.6c-0.1,0.3-0.3,0.7-0.3,1c-0.2,5.7-3.5,9.2-8.3,11.7c-1.1,0.6-2.1,1.4-3.1,2.2c-0.3,0.3-0.3,1-0.2,1.4
	c0.4,2,0.9,4,1.4,5.9c0.7,2.7,1.5,5.3,2,8c0.8,4,2.9,7.1,5.9,9.8c0.8,0.8,1.4,2.1,1.5,3.2c0.2,2.8,0.1,5.6,0,8.3
	c-0.1,3-0.3,5.9-0.4,8.9c-0.1,2.3,0,4.6,0,6.9c0,2.8-0.3,5.5-0.1,8.2c0.2,2.8,0.7,5.5,1.3,8.2c1.1,5,0.9,9.9-1.2,14.6
	c-0.5,1.1-0.5,1.8,0.2,2.8c1.7,2.4,1,4.8-1.5,6.4c-1.1,0.7-1.9,2-2.7,3.1c-0.7,1.1-1.4,1.7-2.8,1.9c-2.7,0.3-5.3,1.1-8,1.4
	c-2.1,0.2-4.3,0.5-6.5-0.4c-1.1-0.4-2.4-0.1-3.7,0c-0.7,0.1-1.4,0.4-2.1,0.5c-2.4,0.2-3.2,1.2-3,3.8c0.2,2.7,0.2,5.3,0.2,8
	c0,3.6-0.2,7.3-0.3,10.9c-0.1,4.9-0.3,9.7-0.5,14.6c-0.1,2,0,4.1,0,6.1c0,3.3-0.2,6.5-0.1,9.8c0.1,5.3-0.5,10.8,0.8,15.8
	c1.3,5.2-0.2,9.9-0.1,14.8c0.1,4.1,0.1,8.3,0.1,12.4c0,3.4-0.2,6.8-0.3,10.2c0,3.5,0,7,0,10.5c1.9-0.4,3.9-1.2,6-1.2
	c2.6,0.1,5.1,0.8,7.7,1.3c1.4,0.2,2.9,0.6,4.3,0.4c2.4-0.2,4.1,0.7,5.5,2.6c1.3,1.7,2.9,3.3,3.2,5.5c0.2,1.4,0,3.1,0.6,4.3
	c1.2,2.4-0.5,4.7,0.3,6.9c1.2,3.4-0.7,6.5-0.6,9.8c0.2,3,0,6-0.1,9c0,1.3-0.4,2.5-0.4,3.8c-0.1,4.9-0.2,9.8-0.3,14.7
	c-0.1,4-0.1,7.9-0.2,11.9c-0.1,3.5-1.9,6.4-3.6,9.2c-0.5,0.8-2.2,0.9-3.4,1.3c-1.4,0.5-2.8,1.1-4.3,1.7c-0.3,0.1-0.6,0.3-0.8,0.2
	c-2.3-1.1-2.1,0.8-2.1,1.9c-0.1,3.3,0,6.6,0,9.9c0,0.9,0.1,1.9,0,2.8c-0.2,2.2-0.2,4.3,2.2,5c2-0.5,3.8-1,5.7-1.4
	c0.2-0.1,0.6,0,0.7,0.1c1.1,1.4,2.3,2.8,3.3,4.4c1.3,2.1,2.2,4.3,2.2,6.8c0,1-0.1,2,0,3c0.2,1.3,0.8,2.6,0.8,4c0,2-0.4,4-0.6,6
	c-0.5,5.2-1.2,10.3-1.6,15.5c-0.2,3.5,0.1,7,0,10.5c-0.1,2.4-0.5,4.9-0.8,7.3c-0.4,2.7-0.4,5.5-1.4,8c-1,2.5-1.8,4.9-2.1,7.6
	c-0.1,0.4-0.4,0.8-0.7,1.2c-1.5,1.7-3,3.3-4.4,5c-0.6,0.7-1.3,1.1-2.3,0.6c-0.6-0.3-1.8-0.3-2.3,0.1c-2,1.6-4.5,1.9-6.8,2.3
	c-1.7,0.3-3.6,0.3-5.3,0.2c-1.2-0.1-1.4,0.6-1.5,1.4c-0.2,1.2-0.2,2.5-0.3,3.6c2.8-0.6,5.7-1,8.5-1.8c3-0.9,5.9-2.3,9-3
	c3.5-0.8,7.2-1.3,10.8-1.8c3.9-0.5,7.8-1.2,11.7-1.3c5.2-0.2,10.3,0.1,15.5,0.3c3.7,0.2,7.3,0.8,11,1.1c0.6,0.1,1.2-0.2,1.7-0.3
	c2.5-0.6,4.9,0.2,7.3,0.9c3.8,1.2,7.5,0.4,11-1c3.9-1.5,7.7-3,11.5-4.7c3.6-1.6,7.2-3.3,10.8-4.9c2.2-1,4.4-2,6.2-2.7
	c1,0.6,1.7,0.9,2.2,1.4c0.5,0.4,0.8,1,1.1,1.5c0.3,0.4,0.6,0.8,0.7,1.2c0.1,0.4,0.3,0.9,0.2,1.2c-0.5,0.9-0.9,1.9-1.7,2.5
	c-3,2.2-4.5,5.6-6.7,8.4c-3.6,4.6-6.9,9.4-11.5,13.2c-0.5,0.4-0.8,1-1,1.2c2.4,0.1,4.9,0.4,7.5,0.2c2.1-0.1,4.2-0.7,6.2-1.3
	c1.1-0.3,1.8-0.5,2.5,0.6c0.7,1.1,0,1.8-0.6,2.5c-0.5,0.5-1,1-1.5,1.5c-1,1.1-2.3,2.1-1.8,4c0.1,0.4-0.1,1.1-0.4,1.3
	c-1.7,1.3-3.6,2.5-5.4,3.8c-1.8,1.2-4,2.1-5.3,3.7c-1.1,1.4-1.4,3.5-1.9,5.4c-0.9,3.2,0.3,6.3,0.8,9.4c0.5,3.4,0.9,6.7,0.3,10.1
	c-0.1,0.5,0.3,1,0.5,2c-0.8,1.2-1.5,3-3.9,3.1c-0.7,0-1.4,0.7-2.1,1.1c-1.5,1-2.7,0.5-3.6-0.9c-0.2-0.2-0.5-0.4-0.7-0.5
	c-3.2-0.6-6.4-1.1-9.5-1.7c-5.2-0.9-10.4-1.2-15.6-0.6c-2.3,0.3-4.7-0.3-7.1-0.5c-1.6-0.1-3.2-0.2-4.8-0.3c-3.3,0-6.6,0-9.9,0.1
	c-6.1,0.3-12.2,0.8-18.2,1.1c-4,0.2-8.1,0.2-12.1,0.3c-3.7,0.1-7.4,0.2-11,0.2c-0.9,0-2,0.5-2.7-0.9c-0.3-0.5-2-0.2-2.8-0.2
	c0.1,1.6,0.3,3.3,0.3,4.9c0.1,7.5,0.2,14.9,0.3,22.4c0.1,3,0.4,6,0.6,8.9c0,1-0.3,2-0.3,3c0,7.4,0,14.7-0.1,22.1
	c0,2.1-0.2,4.1-0.2,6.2c0,1,0.4,1.9,0.7,2.9c1.2,4.2-0.1,8.2-0.9,12.2c-0.2,0.9-0.5,1.8-0.5,2.8c0.1,3.2,0.3,6.4,0.7,9.6
	c0.5-1.8,0.9-3.6,1.4-5.4c0.7,0.1,1.3,0.1,2,0.2c1.2,2.9-1.1,4.5-2.4,6.8c-0.3-0.6-0.5-1-0.8-1.5c-0.7,2.6-1.3,4.8-1.9,7
	c-0.2,0-0.4,0-0.6-0.1c-0.2-0.3-0.4-0.6-0.7-1.1c-0.5,1.1-1.2,1.9-1.3,2.9c-0.2,1.3-0.8,1.9-2,2.1c-1.6,0.4-3.2,0.9-4.8,1.1
	c-0.4,0.1-1.1-0.4-1.3-0.8c-0.8-1.2-1.8-1.4-3-0.8c-0.8,0.4-1.7,0.6-2.5,1c-0.9,0.5-1.8,1.2-2.6,1.8c-0.7,0.5-1.4,1.1-2.1,1.3
	c-2.4,0.6-4.4,1.9-6.5,3.1c-1.1,0.7-2.8,0.9-4.2,0.7c-2.2-0.3-4.2-0.1-6.4,0.5c-1.7,0.5-3.7,0-5.5,0c-4.5,0-9.1,0-13.6-0.1
	c-4.2-0.1-8.3-0.5-12.5-0.6c-3.4,0-6.8,0.3-10.2,0.4c-2.4,0.1-4.7,0.1-7.1-0.2c-1.5-0.2-3-1.1-4.5-1.7c-1.7-0.6-3.4-1.1-5.1-1.9
	c-1.1-0.5-2.1-1.3-3.2-2c-0.8,1.6-2.1,2-3.3,0.8c-2.1-2.1-4.7-0.6-6.9-1.2c-2.7-0.7-4.8,1.3-7.3,1.3c-0.6,0-1.5-0.4-1.6-0.8
	c-0.5-1.4-1.4-1.4-2.7-1.1c0.5-1.2,0.1-1.6-1.1-1.6c-2.7,0-5.5-0.1-8.2-0.1c-1.3,0-2.7,0.1-4,0.2c-1.9,0.1-4.5-2.2-4.7-4.1
	c-0.2-3.3-0.6-6.5-0.7-9.8c-0.1-3.8,0-7.7-0.2-11.5c-0.2-5.7-0.5-11.4-0.7-17.2c-0.1-2.8-0.3-5.5-0.4-8.3c-0.2-4.9-0.5-9.7-0.7-14.6
	c-0.2-6.6-0.2-13.3-0.4-19.9c-0.1-5.3-0.2-10.6-0.3-15.9c-0.1-3.3-0.1-6.6-0.3-9.9c0-0.5-0.5-1.2-1-1.3c-4.9-1.8-10-2.6-15.2-2.4
	c-4.4,0.2-8.8,0.5-13.2,0.6c-2.8,0.1-5.2,1.2-7.5,2.4c-5.1,2.6-10.2,5-16.3,4.7c-4.8-0.2-9.5,0.1-14.3,1c-3.6,0.6-7.3,0.1-11,0.2
	c-4,0.1-8,0.3-12,0.4c-0.9,0-1.8-0.5-2.7-0.5c-2.3,0.1-4.5,0.4-6.8,0.6c-1.7,0.1-3.4,0.4-5.1,0.3C24.5,727.6,22.6,728.3,21.1,729.8z
	 M170.4,794.2c-3.1-0.3-6.1-0.3-8.9,1.2c-0.6,0.3-1.2,1-1.4,1.6c-0.2,1,0,2,0,3c0.1,4,0.2,8,0.3,12c0,2.5-0.2,5.1,0.1,7.6
	c0.3,2.6,1.3,5.1,1.7,7.7c0.2,1.2,0.8,1.3,1.7,1.3c2.8,0,5.7-0.1,8.5,0.1c1.2,0.1,1.1-0.3,1-1.2c-0.2-1.9-0.3-3.7-0.4-5.6
	c-0.2-5.2-0.2-10.4-0.6-15.6c-0.3-3.6-1-7.1-1.6-10.7C170.8,795.1,170.6,794.6,170.4,794.2z M144,784.1c-0.1,0-0.1,0-0.2,0
	c0,0.3,0,0.6,0,0.9c0.1,1.1,0.3,2.1,0.5,3.2c0.9-0.2,1.7-0.4,2.6-0.5c0.2,0,0.4,0,0.5,0c1.5,0.3,1.8-0.9,2.3-1.9
	c0.7-1.4,1.3-3.1,2.5-3.8c1.6-0.9,2.3-1.8,2.1-3.6c-0.3-3.2-0.4-6.4-0.8-9.5c-0.1-1.4-1-1.7-2.4-1.3c-1.9,0.6-3.9,1-5.8,1.2
	c-2.5,0.3-2.8,0.5-2.6,2.4C143.3,775.5,143.6,779.8,144,784.1z M255.6,823.5c3.9-1.1,7.3-2.1,10.6-3c-0.1-1.3-0.1-2.4-0.3-3.4
	c-0.2-1.6-0.4-3.1-0.9-4.6c-0.1-0.4-1-0.7-1.5-0.7c-2.6,0.4-5.2,0.9-8,1.4C255.6,816.3,255.6,819.6,255.6,823.5z M141.2,187.3
	c-0.1,0-0.3,0-0.4,0c0,2.6,0,5.2,0,7.7c0.1,0,0.3,0,0.4,0C141.2,192.4,141.2,189.9,141.2,187.3z M260.3,831.4
	c1.8,1.3,3.8,0.8,4.3-1.4c-0.8,0.3-1.5,0.6-2.2,0.8C261.7,831,261,831.2,260.3,831.4z M338.2,681.9c1.6,0.9,4.9,0.3,6.6-1.2
	C342.5,681.2,340.4,681.5,338.2,681.9z"/>
</svg>
