<svg id="Laag_1" data-name="Laag 1" xmlns="http://www.w3.org/2000/svg" viewBox="0 0 286.17 295.33"><title>W_Round_Shape</title><path d="M-360.61,161.14c3.06-.25,4.44-2.72,6.43-4.34,2.87-2.32,5.79-4.59,8.79-6.74a104.2,104.2,0,0,1,9.25-6.16,22,22,0,0,1,6.74-2.46A45.24,45.24,0,0,0-318,137.84c4.34-2.06,8.86-3.77,13.36-5.48,2.52-1,5.17-1.54,7.72-2.41,2.88-1,5.67-2.27,8.58-3.12s6.18-1.42,9.28-2.08a8.82,8.82,0,0,1,2.45-.34,18.69,18.69,0,0,1,5.12.75c3.15,1.19,6.25.34,9.36,0.24,2.88-.09,5.75-0.39,8.62-0.67,1.66-.16,3.31-0.42,5-0.69,2.08-.34,4.68,1.59,4.56,3.77a26.07,26.07,0,0,1,4-1.1,7.15,7.15,0,0,1,2.49.6c1.5,0.41,3,.75,4.49,1.29a11.32,11.32,0,0,1,2.47,1.48,16.28,16.28,0,0,0,7.63,3.3,71.93,71.93,0,0,1,14.87,3.53c4.32,1.52,8.3,4,12.43,6.07,0.43,0.21.87,0.41,1.43,0.67l2.1-1.51c5.66,4.22,11.31,8.41,16.91,12.65,0.72,0.54,1.14,1.47,1.81,2.09,1.11,1,1.75,2.72,3.88,2.37,0.43-.07,1.51,1.53,1.66,2.46a7.14,7.14,0,0,0,2.13,4.35c2.07,2,4.06,4,6.08,6a3.06,3.06,0,0,1,1,3.48,2.35,2.35,0,0,0,.38,1.82,47.25,47.25,0,0,1,7,13.95c0.5,1.73,1.15,3.42,1.49,5.18,0.09,0.47,1.39,1.83-.58,1.84a11.19,11.19,0,0,0,.7,3c1.63,2.94,3.78,5.64,5.08,8.7,1.86,4.39,5.13,7.51,8.34,10.76,2.21,2.24,4.26,4.66,6.53,6.84,5.71,5.47,7.56,12.7,9.29,20,0.84,3.55,1.54,7.15,2.08,10.76,0.45,3,.61,6.12.82,9.2a44,44,0,0,1,.3,8.16c-0.73,6-1.8,12-2.85,18A74.09,74.09,0,0,1-125,310.67c-2.1,4.83-4.22,9.68-7.41,14-2.18,2.93-3.83,6.32-6.28,9-2.68,2.93-2.65,6.71-4.13,10a24.3,24.3,0,0,1-5.69,8.51,31.17,31.17,0,0,0-4.75,6.17c-1.38,2.1-2.44,4.4-3.76,6.54a11.33,11.33,0,0,1-1.78,1.59c-0.76.77-1.42,1.64-2.19,2.4a3.91,3.91,0,0,1-1.72,1.22c-2.68.45-4.29,2.23-4.87,5-0.27,1.3-1.36,2.42-1.86,3.7a27.69,27.69,0,0,0-.94,3.74,1.93,1.93,0,0,1-.15.85c-2.88,1.89-4.11,5.06-6,7.69-2.51,3.43-5.94,5.81-9.39,8.15-3.26,2.21-6.39,4.68-9.88,6.46-2.27,1.16-4.29,3.14-7.34,2.87-1.26-.11-2.69,1.05-3.95,1.79a1.74,1.74,0,0,1-2.33-.26c-2.83-2.32-2.39-1.69-5.31,0a13.36,13.36,0,0,1-5.17,1.21c-2.78.28-5.63,0.18-8.16,1.53a16.56,16.56,0,0,0-3.16,2.44,11.87,11.87,0,0,1-6.77,3c-1.38.17-2.7,0.81-4.08,1a7.53,7.53,0,0,1-3.46-.14c-4-1.46-8-1.36-12.13-.86a7.91,7.91,0,0,0-2,.7c-2.53,1.06-4.71-.39-7-0.94a16,16,0,0,0-7.77-.18,14.66,14.66,0,0,1-7.19,0,21,21,0,0,0-8.08-.94,9.29,9.29,0,0,1-6.27-1.82,5,5,0,0,0-4.5-.93c-2.3.73-4-.41-5.57-1.85a7.93,7.93,0,0,1-1.27-1.29c-1.74-2.56-4.28-3.35-7.18-3.18a6.66,6.66,0,0,1-5.06-2.2c-1.22-1.14-2.11-2.67-3.43-3.65-1.71-1.27-3.59-2.69-5.59-3.07A9.85,9.85,0,0,1-333.7,396c-1.19-1.14-2.09-2.58-3.2-3.81a10.52,10.52,0,0,0-5-3.58c-3.45-.94-5.71-3.63-8.24-5.88-4.64-4.13-9.28-8.26-13.77-12.55a54.86,54.86,0,0,1-12.23-16.8c-1.51-3.29-3.79-6.21-5.62-9.36-1.71-3-3.22-6-4.95-9-4.45-7.59-7.09-15.9-9.64-24.22A155.76,155.76,0,0,1-400,295.2c-1-5.32-1.93-10.68-2.57-16.06a95.15,95.15,0,0,1-.69-13.11c0.08-3.65.91-7.28,1.29-10.93,0.32-3.08.58-6.18,0.64-9.27a43.89,43.89,0,0,1,2.2-13c1-3,2.1-5.88,3.06-8.84a12,12,0,0,0,.66-3.45,13,13,0,0,1,4.08-9.34,26.15,26.15,0,0,0,3.29-5c1.44-2.37,2.89-4.74,4.21-7.17a58.67,58.67,0,0,0,3.61-7.32,86,86,0,0,0,3.93-12.33c1-5,3.51-9.35,5.31-14a11.54,11.54,0,0,1,4.91-6.24C-363.4,157.66-361.48,158.21-360.61,161.14Zm202,46.85,0.85-.33c-2.49-5.13-3.87-10.75-7.39-15.41C-164.47,198.16-161.65,203.12-158.6,208Zm-239.31,67.57-0.72.15,2,11.53,0.57-.1Zm200.2,75.78c2.73-1.7,3.05-2.68,1.54-4.12Zm25-55.7,0.33,0.32,2-2.49-1.75-1.11Zm41.85-64.11-0.54.24,3.1,5.69,0.52-.28Zm-267.7,36.08-0.39.05V273l0.39,0v-5.37Z" transform="translate(403.3 -123.99)"/></svg>