<?xml version="1.0" encoding="utf-8"?>
<!-- Generator: Adobe Illustrator 19.2.0, SVG Export Plug-In . SVG Version: 6.00 Build 0)  -->
<svg version="1.1" id="Laag_1" xmlns="http://www.w3.org/2000/svg" xmlns:xlink="http://www.w3.org/1999/xlink" x="0px" y="0px"
	 viewBox="0 0 1190.6 841.9" style="enable-background:new 0 0 1190.6 841.9;" xml:space="preserve">
<path d="M-158.8,257.9c0.5,2.5,1.1,5,1.6,7.5c0.1,0.8,0,1.6-0.1,2.4c-0.2,1.9-0.6,3.8-0.7,5.8c-0.2,4.4-0.3,8.8-0.4,13.2
	c-0.1,4.1-0.1,8.1-0.1,12.2c-0.1,5.7-0.2,11.3-0.2,17c0,6.9,0,13.7-0.1,20.6c0,4.5,0,8.9,0,13.4c0,6.4,0.1,12.9,0,19.3
	c0,4.6-0.2,9.2-0.3,13.8c0,4.8,0.2,9.6,0.2,14.4c0,2.1-0.2,4.1-0.3,6.2c0,2.2,0.2,4.5,0.2,6.7c0.1,3.1,0.1,6.2,0.1,9.2
	c0,4.7-0.1,9.4-0.2,14.2c-0.1,4.6-0.4,9.3-0.4,13.9c-0.1,3.5,0.2,6.9,0.1,10.4c0,5.5-0.1,11-0.3,16.5c-0.1,3.6-0.2,7.2-0.8,10.8
	c-0.4,2.3-1.3,4.7-3.7,6c-0.3,0.2-0.6,0.4-0.8,0.7c-1.2,2.2-3.4,2.6-5.6,3.1c-0.6,0.1-1.3,0.2-1.8,0.6c-1.6,1.4-3.5,1-5.2,1.1
	c-2.3,0.1-4.6-0.1-6.9-0.1c-2.4-0.1-4.9-0.2-7.3-0.2c-4.1,0-8.1,0-12.2,0c-2,0-4-0.2-6-0.3c-4.1-0.1-8.2-0.1-12.2-0.1
	c-4.3,0-8.6,0.3-12.9,0.2c-7-0.1-14-0.5-21.1-0.6c-4.6-0.1-9.3,0.1-13.9,0c-6-0.1-12-0.5-18-0.6c-5-0.1-10,0.1-15,0
	c-5.5-0.1-10.6-0.8-15.4-4.2c-5.3-3.8-6.7-8.9-6.5-14.9c0.1-2.5-0.1-5,0-7.6c0.1-6.8,0.4-13.5,0.5-20.3c0.1-3.9-0.1-7.7-0.1-11.6
	c0-3.1,0.2-6.2,0.3-9.4c0.1-3.1,0-6.1,0.1-9.2c0.1-3.9,0.2-7.7,0.2-11.6c0-3.2-0.2-6.3-0.2-9.5c0-2.3,0.2-4.6,0.2-6.9
	c0-2.4,0-4.9,0-7.3c0-4.7,0.1-9.4,0.1-14.1c0-4.1-0.1-8.1-0.1-12.2c0-6.9,0.1-13.7,0-20.6c0-4.4-0.3-8.8-0.3-13.2
	c0-3.6,0.2-7.3,0.2-10.9c0-2.6-0.2-5.2-0.3-7.8c0-2.2,0.1-4.4,0.1-6.6c0-1.9,0-3.8,0-5.7c-0.1-4.5-0.3-9.1-0.4-13.6
	c0-2.9,0-5.8,0.1-8.7c0-3.9,0.1-7.8,0-11.8c0-3.1-0.5-6.2-0.1-9.2c0.4-3,1.8-5.7,4.8-7.1c1.3-0.6,2.3-1.8,3.6-2.6
	c2-1.3,4.2-0.1,6.3-0.3c0.9-0.1,1.7-0.3,2.6-0.3c0.4,0,0.9,0.3,1.3,0.3c3.7,0.1,7.4,0.1,11.1,0.3c4.1,0.1,8.3,0.4,12.4,0.5
	c5,0.1,9.9,0.1,14.9,0.1c4.2,0,8.4,0.1,12.6,0.1c7.1,0.1,14.1,0.2,21.2,0.3c7.1,0.1,14.2,0.1,21.3,0.4c6.7,0.3,13.4,0,20.2,1.1
	c4.2,0.7,8.5,0.2,12.8,0.3c2.1,0.1,4.2,0.5,6.3,0.7c1.5,0.1,3.1,0.5,4.4,0c1.7-0.6,2.9,0.5,3.7,1.2c4.1,3.4,7,7.7,6.5,13.4
	c0,0.3,0,0.6,0,0.9C-158.6,257.8-158.7,257.8-158.8,257.9z"/>
</svg>
