<?xml version="1.0" encoding="utf-8"?>
<!-- Generator: Adobe Illustrator 19.2.0, SVG Export Plug-In . SVG Version: 6.00 Build 0)  -->
<svg version="1.1" id="Laag_1" xmlns="http://www.w3.org/2000/svg" xmlns:xlink="http://www.w3.org/1999/xlink" x="0px" y="0px"
	 viewBox="0 0 1190.6 841.9" style="enable-background:new 0 0 1190.6 841.9;" xml:space="preserve">
<path d="M-139.3,406.5c-2.7,0.2-5.5,0.7-8.2,0.7c-5-0.1-9.9-0.5-14.9-0.6c-3.9-0.1-7.8,0.1-11.7-0.1c-3.1-0.1-6.2-0.5-9.2-0.8
	c-1.2-0.1-2.4-0.5-3.7-0.5c-2.4-0.2-4.8-0.4-7.2-0.3c-2.6,0.1-5.2,0.7-7.7,0.8c-1.2,0.1-2.4-0.3-3.5-0.5c-2-0.4-4-0.8-6-1
	c-0.6-0.1-1.3,0.5-1.9,0.6c-0.7,0.1-1.4,0-2.1-0.2c-0.4-0.1-0.7-0.7-1.1-0.8c-2.5-0.2-4.9-0.3-7.4-0.4c-4.4-0.1-8.8-0.2-13.2-0.4
	c-3.1-0.1-6.2-0.2-9.3-0.4c-6.1-0.3-12.2-0.7-18.2-1c-0.7,0-1.4,0-2.2,0c-1.1,0-2.2,0-3.2,0c-5.5-0.3-10.9-0.8-16.4-1
	c-1.1-0.1-2.2,0.5-3.3,0.6c-0.8,0.1-1.7-0.1-2.5-0.1c-0.7,0-1.5-0.1-2,0.3c-3.8,2.9-7.4,3-11.4,0c-0.8-0.6-1.3-0.7-2.1-0.1
	c-0.2,0.2-0.5,0.3-0.8,0.3c-1.6,0.2-4.3-2.8-4-4.4c0.4-2.4,0.9-4.8,1-7.2c0.2-2.7,0-5.4,0.1-8.1c0-1.8,0.3-3.7,0.3-5.5
	c0.1-3.2,0-6.4,0.2-9.6c0.3-6.4,0.6-12.7,0.9-19.1c0.4-9,0.8-17.9,1.1-26.9c0.3-7.6,0.6-15.2,0.8-22.7c0.1-3.9,0.2-7.8,0.2-11.7
	c0-6-0.3-12-0.3-18.1c0-2.9,0.3-5.8,0.3-8.7c0-2.1-0.4-4.3-0.3-6.4c0.4-7.7,0.9-15.5,1.4-23.2c0.3-4.3,0.4-8.6,0.8-13
	c0.4-4.4,1.1-8.8,1.4-13.2c0.3-5.1,0.2-10.2,0.4-15.3c0.4-7.4,0.9-14.8,1.4-22.3c0.1-2.2,0.2-4.4,0.4-6.6c0.3-3.9,0.8-7.8,0.8-11.6
	c0-3.3,1.1-6.7-0.4-10c-0.2-0.5-0.1-1.2-0.1-1.8c0-1.8-0.1-3.6-0.2-5.9c0.5-0.1,1.6-0.2,2.5-0.4c0.5-0.1,1.4-0.3,1.5-0.7
	c0.6-2.2,2.4-1.4,3.7-1.4c1.6,0,3.3,0.4,4.9,0.6c0.3,0,0.6-0.3,0.9-0.5c0.9-0.4,1.8-0.9,2.7-1.2c1.6-0.5,3.3-0.8,5.2-1.2
	c0.6,0.9,1.4,2.2,2.2,3.4c0.8,0.1,1.8,0.4,2.8,0.4c1.9,0.1,3.8,0.2,5.8,0.3c0.9,0.1,1.8,0.2,2.6,0.3c5.3,1.1,10.6,1,16,0.8
	c3.4-0.2,6.8,0.2,10.2,0.4c1.4,0.1,2.8,0.3,4.2,0.3c3.7,0,7.4-0.1,11.1,0c5.7,0.2,11.4,0.5,17,0.7c1.7,0.1,3.3,0,5,0
	c1.9,0.1,3.8,0.2,5.8,0.4c2.8,0.2,5.7,0.6,8.5,0.7c4.2,0.2,8.5,0.1,12.7,0.4c2.8,0.2,5.5,0.1,8.3-0.3c3.2-0.4,6.5,0,9.7,0.3
	c3.6,0.3,7.1,1,10.7,1.3c2.1,0.2,4.3,0,6.5,0.1c2.5,0.1,5,0.6,7.6,0.7c1.5,0,3.1-0.3,4.5-0.8c0.4-0.1,0.6-1.1,0.8-1.7
	c1.9,0.4,2.8,1.5,2.6,3.6c0.5-0.4,0.8-0.7,0.9-0.7c1.4,0.5,3,0.9,4.1,1.8c1.5,1.2,2.3,2.9,2.1,5c-0.2,1.8-0.4,3.7-0.3,5.5
	c0.1,2.2,0.1,4.6,0.8,6.7c1.3,3.8,0.6,7.6,0.4,11.4c-0.3,5.7-0.9,11.3-1.3,16.9c-0.4,6.5-0.8,13.1-1.1,19.6
	c-0.3,6.4-0.5,12.7-0.7,19.1c-0.3,6.8-0.7,13.6-0.9,20.4c-0.2,4.6-0.2,9.2-0.2,13.8c0,7.5-0.4,14.9-1.4,22.3c-0.1,1,0.3,2.1,0.3,3.1
	c-0.2,4.4-0.5,8.8-0.6,13.2c-0.1,3.2,0.2,6.3,0.2,9.5c-0.1,4.5-0.4,9-0.6,13.5c0,0.4,0,0.8,0,1.3c0,5.5,0,11,0,16.6
	c0,2.1-0.4,4.1-0.3,6.2c0.1,2,0.4,4,0.6,6c0,0.5-0.2,1-0.3,1.5c-0.4,1.8-1,3.7-1,5.5c-0.2,3.5,0,7.1-0.1,10.7c0,1.9-0.3,3.8-0.3,5.7
	c0,2.7,0.3,5.4,0.3,8.1c0,2-0.3,4-0.3,6c-0.1,3.9,0,7.8,0,11.7c0,5.8-3.6,9.5-8.2,11.7c-1.9,0.9-3.8,1.8-5.7,2.9
	c-0.5,0.3-0.7,1.1-1.2,1.6c-0.3,0.3-1.2,0.6-1.2,0.6c-0.7-0.9-1.4-1.8-1.7-2.8c-0.3-1.1-0.3-2.4,1.3-2.9c1.1-0.4,2.2-0.8,3.4-1.2
	C-139.2,406.6-139.3,406.6-139.3,406.5z"/>
<path d="M-277.9,126.5c-0.3-0.6-0.7-1.2-0.7-1.8c0-0.2,0.9-0.5,1.5-0.8c0,0.8,0.1,1.6,0.1,2.4C-277.3,126.3-277.6,126.4-277.9,126.5
	z"/>
</svg>
