<?xml version="1.0" encoding="utf-8"?>
<!-- Generator: Adobe Illustrator 19.2.0, SVG Export Plug-In . SVG Version: 6.00 Build 0)  -->
<svg version="1.1" id="Laag_1" xmlns="http://www.w3.org/2000/svg" xmlns:xlink="http://www.w3.org/1999/xlink" x="0px" y="0px"
	 viewBox="0 0 1190.6 841.9" style="enable-background:new 0 0 1190.6 841.9;" xml:space="preserve">
<path d="M-339.4,201.2c0-1.3,0.1-2.4,0-3.5c-0.1-0.8-0.6-1.6-0.7-2.4c-0.2-1-0.3-2-0.2-3c0.1-1.1,0.6-2.2,0.9-3.2
	c0.5-1.5,1.3-1.9,2.9-1.4c1.7,0.4,3.5,0.3,5.3,0.2c4.9-0.1,9.9-0.2,14.8-0.4c5-0.2,10.1-0.5,15.1-0.7c1.3-0.1,2.6,0,3.9,0
	c3.8-0.1,7.5-0.3,11.3-0.4c7.4-0.2,14.9-0.4,22.3-0.5c4.4-0.1,8.7-0.1,13.1-0.2c9.3-0.2,18.6-0.5,28-0.7c7.9-0.2,15.7-0.5,23.6-0.7
	c8.5-0.3,17-0.5,25.5-0.7c3.2-0.1,6.3-0.3,9.5-0.3c2.7,0,5.4,0.2,8.1,0.3c1.1,0,2.3-0.4,3.3-0.1c1.7,0.3,1.8,1.9,1.8,3.3
	c0,4.7,0,9.4,0,14.1c0.1,5.5,0.2,11,0.4,16.5c0.2,6.5,0.4,13,0.7,19.6c0.2,3.4,0.5,6.7,0.7,10.1c0.1,2.2,0,4.4,0,6.6
	c0,3.8,0,7.5,0.1,11.3c0.2,7.6,0.6,15.2,0.9,22.8c0.1,1.9,0.1,3.9,0.1,5.9c0.1,5.9,0.2,11.8,0.4,17.7c0.1,6.7,0.2,13.3,0.4,20
	c0.1,5,0.5,10.1,0.7,15.1c0.2,4.5,0.3,9,0.4,13.5c0,2,0,4.1-0.2,6.1c-0.1,0.5-1,1.1-1.5,1.2c-2.2,0.1-4.3-0.1-6.5,0
	c-2.2,0.1-4.4,0.5-6.7,0.6c-3.7,0.1-7.4,0-11.1,0.1c-5.1,0.1-10.2,0.1-15.3,0.2c-8.1,0.2-16.2,0.5-24.3,0.7c-4.8,0.1-9.6,0-14.3,0.1
	c-5.3,0.1-10.5,0.5-15.8,0.7c-3.9,0.1-7.7,0-11.6,0.1c-3.6,0.1-7.3,0-10.9,0.4c-3.7,0.5-7.4,0.1-11.1,0.3
	c-6.3,0.3-12.6,0.5-18.8,0.7c-2.4,0.1-4.8,0.1-7.2,0.1c-4,0.1-7.9,0.1-11.9,0.3c-5.2,0.3-10.4,0.7-15.7,1.1
	c-1.8,0.1-4.4-2.2-4.6-3.9c-0.2-2.9-0.6-5.8-0.7-8.7c-0.2-5.6-0.1-11.1-0.2-16.7c-0.2-6.9-0.5-13.9-0.7-20.8
	c-0.1-3.8-0.1-7.6-0.1-11.4c-0.1-4-0.2-7.9-0.4-11.9c-0.1-3.6-0.3-7.3-0.4-10.9c-0.1-4.4-0.2-8.9-0.4-13.3
	c-0.2-6.1-0.5-12.2-0.7-18.3c-0.2-6.1-0.4-12.2-0.8-18.3c-0.2-3-0.7-6-1-9c-0.4-4.8-0.7-9.6-1.2-14.3c-0.3-2.8-1-5.5-1.2-8.2
	c-0.1-1.6-1.2-3.2,0-4.9C-340.6,200.8-340.2,200.6-339.4,201.2z"/>
</svg>
