<?xml version="1.0" encoding="utf-8"?>
<!-- Generator: Adobe Illustrator 16.0.0, SVG Export Plug-In . SVG Version: 6.00 Build 0)  -->
<!DOCTYPE svg PUBLIC "-//W3C//DTD SVG 1.1//EN" "http://www.w3.org/Graphics/SVG/1.1/DTD/svg11.dtd">
<svg version="1.1" id="Layer_1" xmlns="http://www.w3.org/2000/svg" xmlns:xlink="http://www.w3.org/1999/xlink" x="0px" y="0px"
	 width="1683.78px" height="2466.14px" viewBox="0 0 1683.78 2466.14" enable-background="new 0 0 1683.78 2466.14"
	 xml:space="preserve">
<g>
	<g>
		<path d="M815.084,1050.501c8.683,0,17.366,0,26.049,0c0.124,0.11,0.241,0.307,0.373,0.316c6.606,0.508,13.221,0.916,19.818,1.521
			c4.658,0.427,9.298,1.074,13.934,1.711c3.099,0.425,6.168,1.053,9.264,1.505c4.664,0.682,9.354,1.199,14.007,1.956
			c4.175,0.679,8.311,1.594,12.467,2.392c5.433,1.043,10.886,1.991,16.296,3.14c3.439,0.731,6.818,1.748,10.222,2.647
			c5.484,1.449,10.996,2.81,16.44,4.397c3.436,1.002,6.752,2.406,10.155,3.53c3.396,1.122,6.841,2.1,10.252,3.177
			c5.423,1.712,10.846,3.429,16.253,5.192c4.746,1.548,9.504,3.074,14.197,4.771c4.084,1.478,8.109,3.129,12.119,4.802
			c5.146,2.148,10.258,4.382,15.373,6.603c4.727,2.051,9.59,3.852,14.125,6.266c6.955,3.703,13.764,7.702,20.476,11.833
			c4.547,2.799,8.994,5.824,13.168,9.147c3.832,3.051,7.308,6.566,10.813,10.006c5.312,5.21,10.533,10.511,15.745,15.821
			c1.219,1.241,2.546,2.523,3.298,4.045c1.944,3.94,3.596,8.025,5.394,12.12c0.626-0.315,1.308-0.484,1.736-0.908
			c1.166-1.154,1.45-0.395,1.733,0.655c0.279,1.043,0.612,2.073,0.922,3.108c0,1.809,0,3.618,0,5.427
			c-0.733,1.495-1.514,2.969-2.182,4.492c-0.375,0.854-0.335,1.969-0.876,2.658c-3.044,3.881-6.162,7.707-9.343,11.478
			c-3.897,4.621-7.947,9.113-11.812,13.761c-4.551,5.475-8.979,11.052-13.449,16.593c-4.581,5.678-9.077,11.428-13.747,17.031
			c-3.555,4.263-7.372,8.306-10.984,12.521c-3.537,4.128-6.952,8.358-10.44,12.527c-3.285,3.927-6.571,7.853-9.905,11.736
			c-1.5,1.748-3.162,3.355-4.67,5.097c-2.648,3.054-5.227,6.168-7.849,9.245c-1.584,1.858-3.234,3.662-4.791,5.543
			c-3.834,4.634-7.632,9.299-11.444,13.952c-1.616,1.975-3.242,3.941-4.843,5.929c-1.376,1.707-2.639,3.512-4.102,5.14
			c-1.706,1.898-3.695,3.549-5.35,5.488c-4.03,4.723-7.93,9.556-11.896,14.332c-1.896,2.284-3.83,4.535-5.733,6.812
			c-1.751,2.097-3.393,4.294-5.247,6.294c-2.399,2.584-5.104,4.893-7.42,7.543c-3.249,3.717-6.252,7.648-9.379,11.472
			c-3.405,4.162-6.847,8.295-10.241,12.465c-1.119,1.375-2.171,2.806-3.199,4.249c-0.631,0.887-1.043,1.95-1.759,2.751
			c-1.359,1.519-2.917,2.858-4.299,4.359c-1.816,1.973-3.482,4.085-5.321,6.035c-1.92,2.036-3.938,3.984-5.976,5.904
			c-1.074,1.013-2.147,2.306-3.461,2.729c-2.843,0.917-5.292,2.616-8.925,1.587c-4.48-1.271-9.41-1.027-14.154-1.278
			c-4.477-0.237-8.965-0.252-13.446-0.393c-3.293-0.104-6.584-0.329-9.877-0.366c-5.145-0.059-10.3-0.187-15.435,0.053
			c-6.039,0.279-12.054,1.094-18.092,1.362c-8.977,0.399-17.965,0.666-26.951,0.726c-9.126,0.059-18.256-0.339-27.382-0.26
			c-4.062,0.035-7.925-0.486-11.683-1.938c-1.135-0.439-2.333-0.639-2.858-2.167c-0.339-0.986-1.42-1.784-2.302-2.503
			c-1.624-1.323-3.798-2.229-3.174-4.979c0.041-0.181-0.158-0.442-0.294-0.632c-3.202-4.433-6.389-8.877-9.625-13.286
			c-3.805-5.185-7.647-10.342-11.484-15.503c-3.287-4.42-6.517-8.885-9.903-13.228c-3.41-4.374-7.01-8.601-10.473-12.935
			c-3.052-3.819-6.013-7.712-9.045-11.547c-3.319-4.198-6.703-8.347-10.005-12.559c-2.32-2.959-4.469-6.056-6.842-8.97
			c-3.327-4.085-6.813-8.041-10.191-12.086c-2.68-3.208-5.312-6.456-7.94-9.707c-1.283-1.587-2.514-3.217-3.755-4.837
			c-1.553-2.027-3.014-4.132-4.655-6.085c-2.549-3.032-5.311-5.89-7.811-8.961c-2.829-3.474-5.453-7.114-8.194-10.66
			c-1.651-2.136-3.359-4.229-5.037-6.345c-3.865-4.877-7.716-9.765-11.593-14.633c-2.903-3.644-5.896-7.217-8.741-10.905
			c-2.432-3.153-4.681-6.446-7.065-9.637c-1.793-2.398-3.685-4.722-5.509-7.097c-2.955-3.847-5.874-7.722-8.84-11.56
			c-2.101-2.718-4.326-5.342-6.362-8.106c-1.994-2.707-3.766-5.577-5.729-8.307c-3.485-4.844-6.905-9.747-10.62-14.412
			c-2.173-2.729-4.79-5.127-7.367-7.5c-0.797-0.733-2.78-0.623-3.085-1.365c-1.082-2.631-2.916-4.699-4.423-7.008
			c-0.198-0.304-0.055-0.82-0.109-1.232c-0.053-0.403-0.088-0.831-0.25-1.195c-1.04-2.353-2.132-4.683-3.167-7.038
			c-1.103-2.507-2.161-5.034-3.239-7.552c0-0.241,0-0.482,0-0.724c0.938-0.481,1.856-1.328,2.819-1.383
			c5.298-0.302,9.93-2.76,14.701-4.596c3.08-1.186,5.759-3.429,8.583-5.254c5.941-3.842,11.856-7.725,17.789-11.581
			c4.104-2.667,8.241-5.285,12.324-7.984c2.46-1.627,4.668-3.738,7.295-4.995c9.037-4.326,18.164-8.475,27.343-12.492
			c7.542-3.301,15.167-6.427,22.832-9.434c8.046-3.157,16.136-6.22,24.293-9.074c12.479-4.367,25.169-8.042,38.073-10.953
			c2.009-0.454,3.979-1.104,6.002-1.46c4.748-0.834,9.521-1.524,14.278-2.31c6.226-1.029,12.433-2.176,18.672-3.11
			c3.32-0.497,6.69-0.661,10.039-0.96c4.728-0.422,9.453-0.902,14.188-1.22c3.579-0.241,7.172-0.261,10.758-0.404
			C814.6,1050.835,814.84,1050.621,815.084,1050.501z"/>
		<path fill-rule="evenodd" clip-rule="evenodd" fill="#FFFFFF" d="M564.362,1138.779c1.078,2.519,2.136,5.045,3.239,7.552
			c1.035,2.355,2.128,4.685,3.167,7.038c0.161,0.365,0.196,0.792,0.25,1.195c0.054,0.412-0.089,0.928,0.109,1.232
			c1.507,2.309,3.341,4.377,4.423,7.008c0.305,0.742,2.288,0.631,3.085,1.365c2.577,2.373,5.194,4.771,7.367,7.5
			c3.715,4.665,7.135,9.567,10.62,14.412c1.964,2.73,3.736,5.6,5.729,8.307c2.036,2.764,4.261,5.388,6.362,8.106
			c2.966,3.838,5.885,7.713,8.84,11.56c1.824,2.375,3.716,4.699,5.509,7.097c2.384,3.19,4.634,6.484,7.065,9.637
			c2.845,3.688,5.838,7.262,8.741,10.905c3.877,4.868,7.729,9.756,11.593,14.633c1.677,2.116,3.385,4.209,5.037,6.345
			c2.741,3.546,5.366,7.187,8.194,10.66c2.5,3.071,5.261,5.929,7.811,8.961c1.641,1.953,3.102,4.058,4.655,6.085
			c1.241,1.62,2.472,3.25,3.755,4.837c2.628,3.251,5.261,6.499,7.94,9.707c3.378,4.045,6.864,8.001,10.191,12.086
			c2.374,2.914,4.522,6.011,6.842,8.97c3.302,4.212,6.686,8.36,10.005,12.559c3.032,3.835,5.993,7.728,9.045,11.547
			c3.463,4.334,7.062,8.561,10.473,12.935c3.386,4.343,6.616,8.808,9.903,13.228c3.837,5.161,7.68,10.318,11.484,15.503
			c3.236,4.409,6.423,8.854,9.625,13.286c0.136,0.189,0.335,0.451,0.294,0.632c-0.624,2.751,1.551,3.656,3.174,4.979
			c0.882,0.719,1.962,1.517,2.302,2.503c0.525,1.528,1.723,1.728,2.858,2.167c3.757,1.451,7.62,1.973,11.683,1.938
			c9.126-0.079,18.256,0.318,27.382,0.26c8.985-0.06,17.974-0.326,26.951-0.726c6.039-0.269,12.053-1.083,18.092-1.362
			c5.135-0.239,10.29-0.111,15.435-0.053c3.293,0.037,6.584,0.262,9.877,0.366c4.481,0.141,8.97,0.155,13.446,0.393
			c4.744,0.251,9.674,0.007,14.154,1.278c3.633,1.029,6.082-0.67,8.925-1.587c1.313-0.424,2.387-1.717,3.461-2.729
			c2.038-1.92,4.056-3.868,5.976-5.904c1.839-1.95,3.505-4.062,5.321-6.035c1.382-1.501,2.939-2.841,4.299-4.359
			c0.716-0.801,1.128-1.864,1.759-2.751c1.028-1.443,2.08-2.874,3.199-4.249c3.395-4.17,6.836-8.303,10.241-12.465
			c3.127-3.823,6.13-7.755,9.379-11.472c2.316-2.65,5.021-4.959,7.42-7.543c1.854-2,3.496-4.197,5.247-6.294
			c1.903-2.277,3.838-4.528,5.733-6.812c3.967-4.776,7.866-9.609,11.896-14.332c1.654-1.939,3.644-3.59,5.35-5.488
			c1.463-1.628,2.726-3.433,4.102-5.14c1.601-1.987,3.227-3.954,4.843-5.929c3.812-4.653,7.61-9.318,11.444-13.952
			c1.557-1.881,3.207-3.685,4.791-5.543c2.622-3.077,5.2-6.191,7.849-9.245c1.508-1.741,3.17-3.349,4.67-5.097
			c3.334-3.884,6.62-7.81,9.905-11.736c3.488-4.169,6.903-8.399,10.44-12.527c3.612-4.216,7.43-8.259,10.984-12.521
			c4.67-5.604,9.166-11.354,13.747-17.031c4.47-5.541,8.898-11.119,13.449-16.593c3.864-4.648,7.914-9.14,11.812-13.761
			c3.181-3.771,6.299-7.597,9.343-11.478c0.541-0.689,0.501-1.804,0.876-2.658c0.668-1.523,1.448-2.997,2.182-4.492
			c0,80.305,0,160.608,0,240.934c-185.072,0-370.145,0-555.351,0C564.362,1324.017,564.362,1231.397,564.362,1138.779z"/>
		<path fill-rule="evenodd" clip-rule="evenodd" fill="#FFFFFF" d="M1119.713,1170.255c-0.31-1.035-0.643-2.064-0.922-3.108
			c-0.283-1.05-0.567-1.809-1.733-0.655c-0.429,0.424-1.11,0.593-1.736,0.908c-1.798-4.095-3.449-8.18-5.394-12.12
			c-0.752-1.522-2.079-2.804-3.298-4.045c-5.212-5.31-10.434-10.611-15.745-15.821c-3.506-3.439-6.981-6.955-10.813-10.006
			c-4.174-3.324-8.621-6.349-13.168-9.147c-6.712-4.131-13.521-8.13-20.476-11.833c-4.535-2.414-9.398-4.214-14.125-6.266
			c-5.115-2.22-10.227-4.455-15.373-6.603c-4.01-1.673-8.035-3.324-12.119-4.802c-4.693-1.698-9.451-3.224-14.197-4.771
			c-5.407-1.763-10.83-3.479-16.253-5.192c-3.411-1.078-6.855-2.055-10.252-3.177c-3.403-1.125-6.72-2.528-10.155-3.53
			c-5.444-1.588-10.956-2.948-16.44-4.397c-3.403-0.899-6.782-1.916-10.222-2.647c-5.41-1.149-10.863-2.096-16.296-3.14
			c-4.156-0.798-8.292-1.713-12.467-2.392c-4.652-0.757-9.343-1.274-14.007-1.956c-3.096-0.452-6.165-1.08-9.264-1.505
			c-4.636-0.637-9.275-1.284-13.934-1.711c-6.598-0.605-13.212-1.013-19.818-1.521c-0.132-0.01-0.249-0.207-0.373-0.316
			c92.818,0,185.637,0,278.58,0C1119.713,1090.419,1119.713,1130.337,1119.713,1170.255z"/>
		<path fill-rule="evenodd" clip-rule="evenodd" fill="#FFFFFF" d="M815.084,1050.501c-0.244,0.119-0.484,0.333-0.733,0.343
			c-3.586,0.143-7.179,0.163-10.758,0.404c-4.735,0.318-9.46,0.798-14.188,1.22c-3.349,0.299-6.719,0.463-10.039,0.96
			c-6.239,0.934-12.447,2.081-18.672,3.11c-4.757,0.786-9.53,1.476-14.278,2.31c-2.024,0.355-3.994,1.006-6.002,1.46
			c-12.904,2.911-25.594,6.585-38.073,10.953c-8.158,2.854-16.247,5.917-24.293,9.074c-7.665,3.007-15.29,6.133-22.832,9.434
			c-9.18,4.018-18.306,8.166-27.343,12.492c-2.626,1.257-4.834,3.368-7.295,4.995c-4.083,2.7-8.219,5.317-12.324,7.984
			c-5.933,3.855-11.848,7.739-17.789,11.581c-2.823,1.825-5.503,4.069-8.583,5.254c-4.771,1.836-9.402,4.294-14.701,4.596
			c-0.963,0.055-1.88,0.902-2.819,1.383c0-29.185,0-58.369,0-87.554C647.936,1050.501,731.51,1050.501,815.084,1050.501z"/>
	</g>
</g>
</svg>
