<?xml version="1.0" encoding="utf-8"?>
<!-- Generator: Adobe Illustrator 16.0.0, SVG Export Plug-In . SVG Version: 6.00 Build 0)  -->
<!DOCTYPE svg PUBLIC "-//W3C//DTD SVG 1.1//EN" "http://www.w3.org/Graphics/SVG/1.1/DTD/svg11.dtd">
<svg version="1.1" id="Layer_1" xmlns="http://www.w3.org/2000/svg" xmlns:xlink="http://www.w3.org/1999/xlink" x="0px" y="0px"
	 width="1683.78px" height="2466.14px" viewBox="0 0 1683.78 2466.14" enable-background="new 0 0 1683.78 2466.14"
	 xml:space="preserve">
<g>
	<g>
		<path fill="#FFFFFF" d="M732.362,1757.83c0-353.109,0-706.219,0.002-1059.329c6.754,0,13.506,0,20.258,0
			c-1.685,0.604-3.353,1.258-5.06,1.788c-0.82,0.255-1.714,0.378-2.574,0.376c-1.065-0.003-1.99,0.115-2.114,1.375
			c-0.18,1.838-0.289,3.686-0.368,5.531c-0.032,0.747,0.011,1.517,0.163,2.247c0.222,1.065,0.348,2.247,0.91,3.127
			c2.234,3.506,4.607,6.923,6.965,10.349c0.38,0.553,0.893,1.288,1.438,1.38c0.571,0.097,1.256-0.48,1.891-0.764
			c0.081-0.207,0.917,0.086,1.718,0.454c0.35,0.16,0.737,0.409,0.927,0.725c3.398,5.655,6.82,11.298,10.131,17.004
			c3.164,5.454,6.25,10.955,9.281,16.484c1.212,2.211,2.233,4.532,3.259,6.839c0.878,1.977,1.474,4.096,2.501,5.985
			c0.895,1.646,2.49,2.928,3.302,4.6c2.771,5.712,5.363,11.513,7.965,17.306c2.146,4.778,4.35,9.539,6.281,14.404
			c3.997,10.067,7.869,20.186,11.721,30.31c3.826,10.054,7.731,20.082,11.29,30.23c2.959,8.438,5.431,17.046,8.189,25.556
			c1.849,5.707,3.943,11.337,5.707,17.069c2.655,8.628,5.102,17.319,7.667,25.975c1.319,4.449,2.694,8.881,4.064,13.315
			c1.268,4.099,2.053,8.447,3.962,12.224c2.995,5.924,3.905,12.305,5.314,18.596c0.931,4.15,1.602,8.357,2.476,12.521
			c0.944,4.495,1.667,9.075,3.078,13.425c1.502,4.628,0.492,9.75,3.062,14.104c0.085,0.144,0.064,0.35,0.091,0.526
			c0.843,5.754,1.766,11.499,2.508,17.265c0.825,6.412,1.422,12.853,2.237,19.265c0.612,4.817,1.463,9.604,2.117,14.416
			c0.667,4.901,1.239,9.815,1.824,14.728c0.503,4.223,1.051,8.443,1.395,12.68c0.101,1.247-0.656,2.551-0.617,3.816
			c0.086,2.788,0.483,5.564,0.654,8.352c0.398,6.466,0.822,12.933,1.075,19.405c0.236,6.036,0.271,12.08,0.385,18.121
			c0.046,2.387,0.042,4.774,0.107,7.16c0.157,5.672,0.396,11.343,0.499,17.016c0.104,5.648,0.086,11.298,0.119,16.948
			c0.032,5.424,0.082,10.848,0.065,16.272c-0.002,0.653-0.343,1.317-0.578,1.957c-0.411,1.122-1.219,2.223-1.24,3.345
			c-0.188,9.686,0.453,19.399-1.46,29.013c-0.542,2.726-0.506,5.562-0.857,8.332c-0.514,4.046-1.411,8.061-1.654,12.118
			c-0.364,6.112-0.294,12.25-0.438,18.376c-0.021,0.882-0.233,1.758-0.316,2.64c-0.263,2.78-0.589,5.559-0.73,8.346
			c-0.122,2.405,0.029,4.823-0.042,7.233c-0.068,2.328,0.032,4.72-0.478,6.962c-0.809,3.556-1.463,7.087-1.325,10.742
			c0.019,0.47-0.06,0.952-0.153,1.417c-0.494,2.461-0.553,4.759,2.094,5.938c-0.174,1.441-0.252,2.766-0.503,4.055
			c-0.812,4.161-1.627,8.322-2.55,12.46c-1.459,6.55-2.935,13.098-4.536,19.613c-1.517,6.172-3.209,12.3-4.813,18.45
			c-2.271,8.711-4.526,17.426-6.802,26.136c-1.606,6.15-3.253,12.29-4.848,18.442c-2.377,9.166-4.682,18.352-7.104,27.505
			c-1.098,4.147-2.423,8.234-3.615,12.357c-1.485,5.141-2.913,10.299-4.414,15.436c-2.143,7.336-4.417,14.635-6.475,21.994
			c-2.22,7.932-4.159,15.942-6.402,23.867c-1.874,6.618-3.952,13.18-6.044,19.733c-2.77,8.673-5.648,17.311-8.466,25.969
			c-2.328,7.154-4.599,14.326-6.96,21.469c-2.125,6.425-4.305,12.832-6.525,19.225c-1.678,4.834-3.401,9.654-5.207,14.441
			c-2.802,7.43-5.77,14.797-8.518,22.245c-2.301,6.235-4.271,12.593-6.605,18.813c-2.045,5.448-4.416,10.772-6.601,16.168
			c-1.322,3.265-2.5,6.588-3.859,9.836c-2.973,7.104-6.034,14.169-9.033,21.261c-3.024,7.151-6.234,14.206-10.369,20.806
			c-2.845,4.541-4.325,9.648-5.9,14.699C733.93,1751.507,733.199,1754.686,732.362,1757.83z"/>
		<path fill-rule="evenodd" clip-rule="evenodd" d="M732.362,1757.83c0.837-3.145,1.568-6.323,2.537-9.427
			c1.576-5.051,3.055-10.158,5.9-14.699c4.135-6.6,7.345-13.654,10.369-20.806c2.999-7.092,6.06-14.157,9.033-21.261
			c1.359-3.248,2.537-6.571,3.859-9.836c2.186-5.396,4.556-10.72,6.601-16.168c2.335-6.221,4.305-12.578,6.605-18.813
			c2.749-7.448,5.716-14.815,8.518-22.245c1.806-4.787,3.529-9.607,5.207-14.441c2.22-6.393,4.4-12.8,6.525-19.225
			c2.362-7.143,4.633-14.314,6.96-21.469c2.817-8.658,5.696-17.296,8.466-25.969c2.092-6.554,4.171-13.115,6.044-19.733
			c2.244-7.925,4.183-15.936,6.402-23.867c2.059-7.359,4.332-14.658,6.475-21.994c1.501-5.137,2.929-10.295,4.414-15.436
			c1.192-4.123,2.518-8.21,3.615-12.357c2.423-9.153,4.728-18.339,7.104-27.505c1.595-6.152,3.241-12.292,4.848-18.442
			c2.275-8.71,4.53-17.425,6.802-26.136c1.604-6.15,3.297-12.278,4.813-18.45c1.602-6.516,3.077-13.063,4.536-19.613
			c0.923-4.138,1.738-8.299,2.55-12.46c0.251-1.289,0.329-2.613,0.503-4.055c-2.646-1.179-2.588-3.477-2.094-5.938
			c0.094-0.465,0.172-0.947,0.153-1.417c-0.138-3.655,0.517-7.187,1.325-10.742c0.51-2.242,0.409-4.634,0.478-6.962
			c0.071-2.41-0.08-4.828,0.042-7.233c0.142-2.787,0.468-5.565,0.73-8.346c0.083-0.882,0.296-1.758,0.316-2.64
			c0.145-6.126,0.074-12.264,0.438-18.376c0.243-4.058,1.141-8.072,1.654-12.118c0.352-2.77,0.315-5.606,0.857-8.332
			c1.913-9.614,1.271-19.327,1.46-29.013c0.021-1.122,0.829-2.223,1.24-3.345c0.235-0.64,0.576-1.304,0.578-1.957
			c0.017-5.424-0.033-10.848-0.065-16.272c-0.033-5.649-0.015-11.3-0.119-16.948c-0.104-5.673-0.342-11.343-0.499-17.016
			c-0.065-2.386-0.062-4.773-0.107-7.16c-0.114-6.041-0.148-12.084-0.385-18.121c-0.253-6.473-0.677-12.939-1.075-19.405
			c-0.171-2.788-0.568-5.564-0.654-8.352c-0.039-1.266,0.718-2.57,0.617-3.816c-0.344-4.236-0.892-8.457-1.395-12.68
			c-0.585-4.912-1.157-9.826-1.824-14.728c-0.654-4.812-1.505-9.599-2.117-14.416c-0.815-6.413-1.412-12.853-2.237-19.265
			c-0.742-5.767-1.665-11.511-2.508-17.265c-0.026-0.177-0.006-0.383-0.091-0.526c-2.57-4.353-1.561-9.475-3.062-14.104
			c-1.411-4.351-2.134-8.93-3.078-13.425c-0.874-4.164-1.545-8.371-2.476-12.521c-1.409-6.291-2.319-12.671-5.314-18.596
			c-1.909-3.777-2.694-8.125-3.962-12.224c-1.37-4.434-2.745-8.867-4.064-13.315c-2.566-8.656-5.012-17.347-7.667-25.975
			c-1.764-5.732-3.858-11.362-5.707-17.069c-2.758-8.51-5.229-17.118-8.189-25.556c-3.559-10.148-7.464-20.177-11.29-30.23
			c-3.852-10.124-7.724-20.242-11.721-30.31c-1.932-4.865-4.135-9.626-6.281-14.404c-2.602-5.793-5.194-11.593-7.965-17.306
			c-0.812-1.672-2.407-2.954-3.302-4.6c-1.027-1.889-1.623-4.008-2.501-5.985c-1.025-2.308-2.046-4.628-3.259-6.839
			c-3.031-5.529-6.117-11.03-9.281-16.484c-3.311-5.707-6.733-11.349-10.131-17.004c-0.19-0.316-0.577-0.565-0.927-0.725
			c-0.802-0.367-1.638-0.661-1.718-0.454c-0.635,0.283-1.319,0.86-1.891,0.764c-0.545-0.092-1.058-0.827-1.438-1.38
			c-2.358-3.425-4.731-6.843-6.965-10.349c-0.562-0.88-0.688-2.062-0.91-3.127c-0.152-0.73-0.195-1.5-0.163-2.247
			c0.08-1.846,0.188-3.693,0.368-5.531c0.124-1.259,1.049-1.377,2.114-1.375c0.86,0.002,1.753-0.121,2.574-0.376
			c1.707-0.53,3.375-1.185,5.06-1.788c1.085,0,2.171,0,3.256,0c1.336,1.181,2.803,1.986,4.646,2.195
			c4.746,0.538,9.483,1.153,14.211,1.826c5.482,0.78,10.944,1.698,16.426,2.478c5.139,0.731,10.292,1.367,15.44,2.032
			c4.215,0.544,8.437,1.046,12.649,1.61c3.268,0.438,6.525,0.955,9.79,1.414c2.756,0.387,5.511,0.789,8.276,1.097
			c5.244,0.584,10.5,1.057,15.74,1.667c6.225,0.726,12.437,1.561,18.657,2.321c3.399,0.416,6.799,0.843,10.209,1.142
			c3.633,0.318,7.276,0.636,10.918,0.682c2.758,0.035,5.523,0.808,8.294,0.017c0.332-0.095,0.82,0.121,1.158,0.323
			c1.992,1.189,3.956,2.427,5.939,3.63c1.384,0.84,1.781,2.132,1.771,3.646c-0.013,1.819,0.032,3.639-0.01,5.458
			c-0.098,4.174-0.304,8.347-0.329,12.52c-0.016,2.625,0.241,5.25,0.329,7.877c0.143,4.252,0.306,8.506,0.344,12.76
			c0.02,2.166-0.344,4.336-0.296,6.5c0.037,1.703,0.556,3.392,0.66,5.099c0.303,4.941,0.544,9.888,0.733,14.835
			c0.176,4.557,0.256,9.117,0.372,13.676c0.021,0.844-0.047,1.693,0.025,2.531c0.335,3.871,0.821,7.732,1.027,11.609
			c0.182,3.426-0.06,6.875,0.113,10.303c0.213,4.199,0.661,8.386,1.013,12.578c0.184,2.194,0.333,4.392,0.579,6.578
			c0.371,3.289,0.866,6.563,1.199,9.855c0.146,1.442-0.062,2.918,0.039,4.369c0.318,4.574,0.671,9.146,1.079,13.712
			c0.438,4.912,0.994,9.812,1.426,14.724c0.526,5.99,0.983,11.987,1.459,17.981c0.158,1.99,0.223,3.989,0.437,5.972
			c0.418,3.888,0.914,7.769,1.373,11.652c0.307,2.59,0.548,5.189,0.92,7.769c0.348,2.41,0.871,4.793,1.241,7.199
			c0.55,3.564,0.969,7.148,1.557,10.706c1.13,6.831,2.505,13.624,3.466,20.477c0.842,6.016,1.283,12.088,1.852,18.14
			c0.636,6.761,1.227,13.525,1.813,20.291c0.501,5.777,1.002,11.554,1.44,17.336c0.409,5.397,0.73,10.801,1.103,16.201
			c0.118,1.724,0.231,3.45,0.423,5.167c0.436,3.888,0.986,7.763,1.362,11.655c0.345,3.58,0.484,7.18,0.784,10.765
			c0.436,5.219,0.944,10.432,1.401,15.649c0.161,1.842,0.216,3.694,0.397,5.534c0.448,4.55,0.986,9.091,1.401,13.644
			c0.314,3.443,0.536,6.896,0.726,10.348c0.279,5.104,0.488,10.211,0.745,15.315c0.029,0.577,0.017,1.245,0.296,1.707
			c1.209,2.001,1.774,4.023,1.188,6.401c-0.449,1.826-0.795,3.755-0.718,5.619c0.209,5.023,0.689,10.034,1.023,15.053
			c0.273,4.111,0.523,8.224,0.726,12.339c0.273,5.549,0.464,11.103,0.762,16.651c0.045,0.844,0.433,1.683,0.738,2.496
			c0.425,1.132,1.316,2.237,1.316,3.354c0.001,3.507,0.752,6.805,1.986,10.044c0.465,1.218,0.796,2.486,1.23,3.864
			c-1.033,0.067-1.803,0.117-2.937,0.191c-0.185,1.918-0.532,3.845-0.523,5.77c0.021,4.806,0.266,9.61,0.311,14.417
			c0.061,6.447,0.024,12.894,0.018,19.341c-0.013,10.839-0.012,21.679-0.067,32.519c-0.019,3.634-0.216,7.266-0.286,10.899
			c-0.088,4.569-0.068,9.141-0.203,13.708c-0.256,8.701-0.588,17.399-0.89,26.099c-0.034,0.986-0.027,1.976-0.111,2.958
			c-0.294,3.442-0.705,6.878-0.905,10.326c-0.152,2.625-0.015,5.266-0.082,7.898c-0.039,1.542-0.264,3.078-0.34,4.621
			c-0.148,2.998-0.208,6.002-0.385,8.999c-0.187,3.171-0.569,6.332-0.686,9.504c-0.202,5.521-0.297,11.047-0.374,16.571
			c-0.056,4.029,0.035,8.061-0.022,12.091c-0.073,5.187-0.298,10.372-0.324,15.56c-0.017,3.176,0.331,6.354,0.312,9.53
			c-0.04,6.599-0.16,13.197-0.356,19.792c-0.143,4.785-0.523,9.563-0.688,14.348c-0.291,8.444-0.508,16.891-0.723,25.336
			c-0.02,0.754,0.346,1.525,0.285,2.268c-0.42,5.228-1.018,10.443-1.333,15.676c-0.231,3.847-0.057,7.715-0.182,11.569
			c-0.105,3.289-0.491,6.57-0.558,9.857c-0.109,5.373,0.017,10.75-0.104,16.122c-0.077,3.456-0.491,6.904-0.623,10.362
			c-0.296,7.797-0.496,15.597-0.764,23.395c-0.219,6.38-0.451,12.76-0.729,19.138c-0.193,4.464-0.581,8.922-0.685,13.388
			c-0.121,5.265,0.191,10.546-0.113,15.796c-0.18,3.094-1.036,6.182-1.877,9.191c-0.687,2.456-1.96,4.713-4.238,6.12
			c-5.019,3.099-10.047,6.185-15.121,9.191c-5.869,3.478-11.79,6.868-17.693,10.287c-6.877,3.982-13.76,7.954-20.639,11.933
			c-4.037,2.335-8.096,4.636-12.101,7.025c-3.493,2.084-7.003,4.157-10.365,6.443c-3.76,2.557-7.298,5.438-11.046,8.015
			c-5.677,3.901-11.452,7.66-17.185,11.481c-1.866,1.244-3.713,2.517-5.597,3.732c-3.608,2.328-7.25,4.604-10.851,6.941
			c-2.215,1.438-4.32,3.052-6.581,4.411c-5.536,3.328-11.193,6.458-16.69,9.849c-5.25,3.236-10.372,6.683-15.523,10.077
			c-1.133,0.747-2.57,1.445-3.147,2.544c-1.809,3.441-4.988,5.31-7.891,7.494c-5.667,4.266-11.395,8.45-17.12,12.638
			c-0.5,0.366-1.175,0.485-1.751,0.756c-0.767,0.36-1.576,0.673-2.259,1.157c-1.06,0.751-2.029,1.631-3.037,2.457
			c-0.361,0-0.724,0-1.085,0c0.989-1.748,1.978-3.495,3.017-5.331c-2.588-0.657-4.322-2.64-5.549-5.161
			C732.362,1758.071,732.362,1757.95,732.362,1757.83z"/>
		<path fill-rule="evenodd" clip-rule="evenodd" fill="#FFFFFF" d="M735.979,1768.685c1.008-0.826,1.977-1.706,3.037-2.457
			c0.683-0.484,1.492-0.797,2.259-1.157c0.576-0.271,1.251-0.39,1.751-0.756c5.725-4.188,11.452-8.372,17.12-12.638
			c2.903-2.185,6.083-4.053,7.891-7.494c0.577-1.099,2.014-1.797,3.147-2.544c5.151-3.395,10.273-6.841,15.523-10.077
			c5.498-3.391,11.154-6.521,16.69-9.849c2.261-1.359,4.366-2.973,6.581-4.411c3.601-2.338,7.243-4.613,10.851-6.941
			c1.884-1.216,3.731-2.488,5.597-3.732c5.732-3.821,11.507-7.58,17.185-11.481c3.748-2.576,7.286-5.458,11.046-8.015
			c3.362-2.286,6.872-4.359,10.365-6.443c4.005-2.39,8.063-4.69,12.101-7.025c6.879-3.979,13.762-7.95,20.639-11.933
			c5.903-3.419,11.824-6.81,17.693-10.287c5.074-3.007,10.103-6.093,15.121-9.191c2.278-1.407,3.552-3.664,4.238-6.12
			c0.841-3.01,1.697-6.098,1.877-9.191c0.305-5.25-0.008-10.531,0.113-15.796c0.104-4.466,0.491-8.924,0.685-13.388
			c0.277-6.378,0.51-12.758,0.729-19.138c0.268-7.798,0.468-15.598,0.764-23.395c0.132-3.458,0.546-6.906,0.623-10.362
			c0.12-5.372-0.006-10.749,0.104-16.122c0.066-3.287,0.452-6.568,0.558-9.857c0.125-3.854-0.05-7.723,0.182-11.569
			c0.315-5.232,0.913-10.448,1.333-15.676c0.061-0.742-0.305-1.514-0.285-2.268c0.215-8.445,0.432-16.892,0.723-25.336
			c0.165-4.784,0.546-9.562,0.688-14.348c0.196-6.595,0.316-13.193,0.356-19.792c0.02-3.176-0.328-6.354-0.312-9.53
			c0.026-5.188,0.251-10.373,0.324-15.56c0.058-4.03-0.033-8.062,0.022-12.091c0.077-5.524,0.172-11.05,0.374-16.571
			c0.116-3.172,0.499-6.333,0.686-9.504c0.177-2.997,0.236-6.001,0.385-8.999c0.076-1.543,0.301-3.079,0.34-4.621
			c0.067-2.633-0.07-5.273,0.082-7.898c0.2-3.448,0.611-6.884,0.905-10.326c0.084-0.982,0.077-1.972,0.111-2.958
			c0.302-8.699,0.634-17.397,0.89-26.099c0.135-4.567,0.115-9.139,0.203-13.708c0.07-3.634,0.268-7.266,0.286-10.899
			c0.056-10.84,0.055-21.68,0.067-32.519c0.007-6.447,0.043-12.895-0.018-19.341c-0.045-4.807-0.289-9.611-0.311-14.417
			c-0.009-1.925,0.339-3.851,0.523-5.77c1.134-0.074,1.903-0.124,2.937-0.191c-0.435-1.378-0.766-2.646-1.23-3.864
			c-1.234-3.239-1.985-6.537-1.986-10.044c0-1.117-0.892-2.222-1.316-3.354c-0.306-0.813-0.693-1.652-0.738-2.496
			c-0.298-5.548-0.488-11.102-0.762-16.651c-0.202-4.115-0.452-8.228-0.726-12.339c-0.334-5.019-0.814-10.03-1.023-15.053
			c-0.077-1.864,0.269-3.793,0.718-5.619c0.586-2.377,0.021-4.4-1.188-6.401c-0.279-0.461-0.267-1.129-0.296-1.707
			c-0.257-5.104-0.466-10.212-0.745-15.315c-0.189-3.452-0.411-6.905-0.726-10.348c-0.415-4.553-0.953-9.094-1.401-13.644
			c-0.182-1.84-0.236-3.692-0.397-5.534c-0.457-5.217-0.966-10.43-1.401-15.649c-0.3-3.585-0.439-7.185-0.784-10.765
			c-0.376-3.892-0.927-7.768-1.362-11.655c-0.191-1.716-0.305-3.442-0.423-5.167c-0.372-5.4-0.693-10.804-1.103-16.201
			c-0.438-5.782-0.939-11.559-1.44-17.336c-0.587-6.765-1.178-13.53-1.813-20.291c-0.568-6.052-1.01-12.125-1.852-18.14
			c-0.961-6.853-2.336-13.646-3.466-20.477c-0.588-3.557-1.007-7.142-1.557-10.706c-0.37-2.406-0.894-4.79-1.241-7.199
			c-0.372-2.58-0.613-5.179-0.92-7.769c-0.459-3.884-0.955-7.764-1.373-11.652c-0.214-1.983-0.278-3.982-0.437-5.972
			c-0.476-5.994-0.933-11.991-1.459-17.981c-0.432-4.912-0.987-9.812-1.426-14.724c-0.408-4.566-0.761-9.139-1.079-13.712
			c-0.101-1.451,0.107-2.927-0.039-4.369c-0.333-3.292-0.828-6.566-1.199-9.855c-0.246-2.187-0.396-4.384-0.579-6.578
			c-0.352-4.192-0.8-8.379-1.013-12.578c-0.173-3.427,0.068-6.876-0.113-10.303c-0.206-3.877-0.692-7.738-1.027-11.609
			c-0.072-0.838-0.004-1.688-0.025-2.531c-0.116-4.559-0.196-9.119-0.372-13.676c-0.189-4.947-0.431-9.894-0.733-14.835
			c-0.104-1.708-0.623-3.396-0.66-5.099c-0.048-2.164,0.315-4.334,0.296-6.5c-0.038-4.254-0.201-8.508-0.344-12.76
			c-0.088-2.626-0.345-5.252-0.329-7.877c0.025-4.173,0.231-8.346,0.329-12.52c0.042-1.818-0.003-3.638,0.01-5.458
			c0.011-1.513-0.387-2.806-1.771-3.646c-1.983-1.203-3.947-2.44-5.939-3.63c-0.338-0.202-0.826-0.417-1.158-0.323
			c-2.771,0.791-5.536,0.018-8.294-0.017c-3.642-0.046-7.285-0.363-10.918-0.682c-3.41-0.299-6.81-0.726-10.209-1.142
			c-6.221-0.76-12.433-1.595-18.657-2.321c-5.24-0.61-10.496-1.083-15.74-1.667c-2.765-0.309-5.521-0.71-8.276-1.097
			c-3.265-0.458-6.522-0.976-9.79-1.414c-4.213-0.564-8.434-1.066-12.649-1.61c-5.148-0.665-10.301-1.301-15.44-2.032
			c-5.481-0.78-10.944-1.698-16.426-2.478c-4.728-0.673-9.466-1.288-14.211-1.826c-1.844-0.209-3.311-1.014-4.646-2.195
			c65.243,0,130.487,0,195.73,0c0,356.728,0,713.455,0,1070.183C879.732,1768.685,807.856,1768.685,735.979,1768.685z"/>
		<path fill-rule="evenodd" clip-rule="evenodd" fill="#FFFFFF" d="M732.362,1758.192c1.228,2.521,2.961,4.504,5.549,5.161
			c-1.039,1.836-2.028,3.583-3.017,5.331c-0.844,0-1.688,0-2.533,0C732.362,1765.187,732.362,1761.689,732.362,1758.192z"/>
	</g>
</g>
</svg>
