<?xml version="1.0" encoding="utf-8"?>
<!-- Generator: Adobe Illustrator 16.0.0, SVG Export Plug-In . SVG Version: 6.00 Build 0)  -->
<!DOCTYPE svg PUBLIC "-//W3C//DTD SVG 1.1//EN" "http://www.w3.org/Graphics/SVG/1.1/DTD/svg11.dtd">
<svg version="1.1" id="Layer_1" xmlns="http://www.w3.org/2000/svg" xmlns:xlink="http://www.w3.org/1999/xlink" x="0px" y="0px"
	 width="1683.78px" height="2466.14px" viewBox="0 0 1683.78 2466.14" enable-background="new 0 0 1683.78 2466.14"
	 xml:space="preserve">
<g>
	<g>
		<path d="M1347.572,1852.69c0,0.724,0,1.447,0,2.171c-1.266,0.853-2.711,1.526-3.765,2.59c-3.562,3.599-7.951,5.352-12.839,5.881
			c-4.059,0.44-8.154,0.554-12.232,0.816c-5.271,0.34-10.631,0.192-15.791,1.135c-8.771,1.603-17.655,1.713-26.462,2.741
			c-6.077,0.709-12.203,0.996-18.309,1.465c-8.249,0.634-16.492,1.396-24.751,1.856c-9.338,0.52-18.692,0.739-28.037,1.139
			c-7.435,0.317-14.865,0.986-22.299,1.007c-13.779,0.037-27.559-0.326-41.339-0.442c-8.535-0.073-17.072-0.005-25.608,0.011
			c-4.682,0.008-9.385-0.237-14.042,0.116c-8.484,0.645-16.931,1.784-25.413,2.469c-9.217,0.744-18.458,1.19-27.687,1.794
			c-9.209,0.604-18.419,1.217-27.624,1.879c-2.707,0.195-5.4,0.574-8.1,0.869c-12.542,0-25.084,0-37.626,0
			c-0.902-0.202-1.8-0.545-2.709-0.582c-3.007-0.123-6.028,0.002-9.026-0.215c-8.843-0.639-17.678-1.39-26.515-2.109
			c-5.719-0.467-11.434-1.004-17.156-1.422c-4.79-0.349-9.6-0.446-14.38-0.879c-5.616-0.509-11.214-1.818-16.812-1.781
			c-9.888,0.065-19.46-2.996-29.352-2.488c-0.686,0.035-1.402-0.319-2.088-0.545c-5.959-1.962-12.061-3.233-18.299-3.915
			c-1.666-0.183-3.291-0.941-4.945-0.979c-5.617-0.126-11.238-0.048-16.795-0.048c-0.413,1.048-0.734,1.861-1.112,2.821
			c-5.519-2.33-11.057-3.143-16.738-3.199c-0.817-0.009-1.651-0.263-2.444-0.511c-1.686-0.527-3.315-1.283-5.03-1.662
			c-3.16-0.698-6.369-1.172-9.55-1.775c-6.015-1.141-12.02-2.332-18.039-3.45c-1.766-0.328-3.577-0.407-5.345-0.726
			c-6.13-1.105-12.232-2.382-18.38-3.373c-6.275-1.014-12.622-1.599-18.885-2.676c-9.699-1.667-19.346-3.633-29.031-5.387
			c-3.186-0.576-6.466-0.674-9.621-1.362c-7.401-1.617-14.777-3.298-22.382-3.646c-3.083-0.141-6.184-0.189-9.24-0.57
			c-8.811-1.101-17.593-2.433-26.406-3.508c-6.081-0.742-12.239-0.925-18.286-1.856c-14.95-2.304-29.853-4.914-44.782-7.352
			c-2.604-0.425-5.256-0.542-7.868-0.922c-3.328-0.484-6.633-1.125-9.958-1.64c-9.021-1.396-18.047-2.751-27.069-4.143
			c-6.765-1.044-13.516-2.177-20.29-3.159c-5.818-0.845-11.668-1.469-17.489-2.301c-11.292-1.614-22.575-3.283-33.855-4.973
			c-7.124-1.066-14.236-2.201-21.352-3.319c-5.102-0.802-10.191-1.684-15.302-2.425c-4.141-0.601-8.315-0.97-12.455-1.578
			c-6.051-0.89-12.08-1.923-18.125-2.855c-3.915-0.604-7.846-1.1-11.759-1.71c-5.221-0.814-10.423-1.752-15.649-2.528
			c-5.011-0.743-9.977-1.572-14.407-4.253c0-0.965,0-1.93,0-2.895c0.822-0.06,1.644-0.118,2.498-0.18
			c0-1.063-0.123-1.948,0.029-2.784c0.226-1.245,0.878-2.443,0.942-3.683c0.323-6.243,0.604-12.493,0.732-18.743
			c0.311-15.155,0.399-30.306,1.363-45.452c0.755-11.863,0.526-23.786,0.847-35.679c0.411-15.238,0.916-30.473,1.418-45.707
			c0.19-5.754,0.436-11.508,0.747-17.256c0.467-8.645,1.097-17.28,1.506-25.926c0.546-11.537,1.008-23.079,1.384-34.623
			c0.176-5.409,0-10.829,0.104-16.242c0.144-7.457,0.473-14.911,0.578-22.369c0.045-3.236-0.417-6.479-0.392-9.718
			c0.057-7.201,0.243-14.401,0.438-21.6c0.172-6.351,0.425-12.698,0.646-19.047c0.26-7.442,0.547-14.885,0.782-22.328
			c0.265-8.385,0.514-16.769,0.72-25.155c0.271-11.038,0.359-22.082,0.766-33.115c0.542-14.676-0.091-29.354,0.588-44.037
			c0.699-15.135,0.548-30.307,0.849-45.46c0.088-4.44,0.475-8.874,0.66-13.313c0.05-1.191-0.113-2.394-0.222-3.587
			c-0.272-2.988-0.852-5.979-0.795-8.959c0.097-5.103-0.175-10.138,1.074-15.315c1.389-5.758,1.273-11.934,1.372-17.934
			c0.134-8.122-0.205-16.251-0.234-24.377c-0.016-4.196,0.317-8.394,0.281-12.589c-0.06-6.973-0.44-13.944-0.419-20.915
			c0.048-16.217,0.276-32.434,0.384-48.652c0.037-5.485-0.109-10.971-0.102-16.457c0.007-5.854,0.042-11.708,0.163-17.56
			c0.195-9.483,0.529-18.963,0.697-28.446c0.29-16.347,0.599-32.695,0.703-49.044c0.07-11.073-0.277-22.148-0.285-33.222
			c-0.004-7.143,0.356-14.285,0.398-21.428c0.054-9.193-0.057-18.388-0.076-27.583c-0.016-7.791-0.087-15.583,0.017-23.373
			c0.164-12.275,0.451-24.549,0.695-36.823c0.165-8.301,0.397-16.6,0.501-24.901c0.072-5.721-0.144-11.446-0.017-17.165
			c0.243-10.943,0.729-21.881,0.935-32.824c0.106-5.648-0.296-11.305-0.249-16.955c0.098-11.65,0.52-23.299,0.481-34.947
			c-0.044-13.708-0.472-27.413-0.667-41.12c-0.276-19.368-0.491-38.738-0.734-58.106c-0.095-7.59-0.089-15.183-0.32-22.768
			c-0.266-8.769-0.811-17.529-1.099-26.297c-0.155-4.744-0.028-9.497-0.028-13.94c3.035-1.867,3.033-1.86,6.042-1.288
			c0.471,0.09,0.958,0.105,1.439,0.122c3.838,0.138,7.677,0.265,11.516,0.402c7.452,0.268,14.902,0.588,22.355,0.798
			c10.202,0.287,20.405,0.513,30.609,0.726c12.633,0.264,25.267,0.482,37.9,0.73c12.043,0.237,24.086,0.579,36.13,0.708
			c16.114,0.173,32.229,0.196,48.343,0.259c7.697,0.03,15.395,0.027,23.092-0.003c5.543-0.022,11.091-0.268,16.629-0.124
			c3.94,0.102,7.862,0.767,11.803,1.031c3.24,0.218,4.499,1.14,5.036,4.444c0.347,2.13,0.611,4.297,0.637,6.451
			c0.125,10.487,0.216,20.974,0.208,31.462c-0.013,16.76-0.147,33.519-0.148,50.279c0,3.081,0.388,6.161,0.589,9.135
			c5.97,2.345,11.544,4.562,17.141,6.722c4.481,1.73,9.051,3.246,13.472,5.116c6.961,2.944,13.826,6.115,20.739,9.174
			c2.63,1.164,5.354,2.139,7.909,3.447c7.811,3.999,15.555,8.125,23.334,12.186c9.674,5.051,19.393,10.018,29.021,15.155
			c4.97,2.651,9.775,5.61,14.673,8.398c5.63,3.204,11.428,6.143,16.881,9.623c5.045,3.22,10.426,5.879,15.127,9.723
			c3.202,2.617,7.239,4.189,10.776,6.428c5.487,3.472,10.819,7.188,16.31,10.655c3.121,1.97,6.393,3.711,9.656,5.445
			c3.493,1.856,7.2,3.352,10.54,5.441c2.499,1.563,5.036,3.496,6.66,5.876c1.116,1.635,2.24,2.992,3.79,4.097
			c1.569,1.119,3.217,2.138,4.718,3.34c9.291,7.441,18.64,14.812,27.787,22.428c6.373,5.307,12.751,10.67,18.591,16.542
			c8.358,8.402,16.268,17.255,24.291,25.987c5.524,6.013,10.936,12.131,16.362,18.233c3.997,4.494,7.936,9.039,11.904,13.558
			c3.568,4.062,7.145,8.117,10.711,12.181c3.41,3.885,6.879,7.721,10.197,11.683c2.932,3.502,5.532,7.291,8.56,10.704
			c9.354,10.547,17.797,21.793,25.949,33.271c2.226,3.134,4.348,6.343,6.603,9.457c4.232,5.844,8.585,11.602,12.775,17.476
			c3.212,4.503,6.244,9.134,9.367,13.701c4.953,7.243,9.954,14.455,14.865,21.727c5.518,8.169,10.983,16.374,16.425,24.593
			c6.499,9.818,12.815,19.759,19.458,29.479c6.446,9.434,11.26,19.837,17.88,29.179c4.234,5.976,7.747,12.47,11.476,18.795
			c6.473,10.981,12.945,21.965,19.256,33.041c4.041,7.092,7.848,14.321,11.661,21.54c5.446,10.307,10.753,20.688,16.213,30.986
			c4.622,8.717,9.389,17.357,14.062,26.049c0.658,1.224,1.415,2.004,2.88,2.426c0.892,0.257,2.025,1.634,2.061,2.545
			c0.13,3.404,2.244,5.468,4.4,7.592c0.881,0.868,1.739,1.757,2.747,2.775c-1.03,0.424-1.546,0.637-2.041,0.84
			c2.95,6.846,5.861,13.434,8.638,20.078c4.867,11.647,9.812,23.268,14.427,35.016c4.309,10.965,8.218,22.086,12.327,33.128
			c3.647,9.798,7.338,19.578,10.991,29.374c3.611,9.682,7.212,19.367,10.793,29.061c3.252,8.801,6.502,17.603,9.693,26.425
			c2.207,6.099,4.642,12.133,5.501,18.64c0.122,0.921,0.661,1.793,1.046,2.671c0.722,1.64,1.608,3.222,2.182,4.91
			c1.159,3.409,1.975,6.943,3.252,10.304c3.803,10.005,7.73,19.962,11.669,29.914c2.08,5.258,4.394,10.425,6.408,15.706
			c2.699,7.076,5.161,14.242,7.812,21.337c5.006,13.396,10.23,26.712,15.076,40.165c5.866,16.29,11.529,32.654,17.104,49.046
			c5.763,16.946,12.038,33.732,16.252,51.179c1.18,4.884,2.852,9.649,4.295,14.471c2.409,8.049,4.812,16.099,7.229,24.145
			c0.861,2.865,1.764,5.717,2.639,8.577c0.34,1.113,1.104,2.349,0.857,3.319c-0.238,0.938-1.529,1.61-2.349,2.389
			c1.271,6.112,2.517,12.224,3.817,18.323c1.603,7.52,3.358,15.008,4.843,22.549c1.205,6.124,2.052,12.317,3.157,18.461
			c1.043,5.792,2.203,11.562,3.339,17.337c0.92,4.678,1.879,9.348,2.821,14.021c0,3.377,0,6.754,0,10.13
			c-0.992,2.447-1.983,4.895-2.899,7.155C1345.89,1851.804,1346.73,1852.247,1347.572,1852.69z"/>
		<path fill-rule="evenodd" clip-rule="evenodd" fill="#FFFFFF" d="M1347.572,1833.877c-0.942-4.674-1.901-9.344-2.821-14.021
			c-1.136-5.774-2.296-11.545-3.339-17.337c-1.105-6.144-1.952-12.337-3.157-18.461c-1.484-7.541-3.24-15.029-4.843-22.549
			c-1.301-6.1-2.547-12.211-3.817-18.323c0.819-0.778,2.11-1.45,2.349-2.389c0.247-0.971-0.518-2.206-0.857-3.319
			c-0.875-2.86-1.777-5.712-2.639-8.577c-2.418-8.046-4.82-16.096-7.229-24.145c-1.443-4.821-3.115-9.587-4.295-14.471
			c-4.214-17.446-10.489-34.232-16.252-51.179c-5.574-16.392-11.237-32.756-17.104-49.046c-4.846-13.453-10.07-26.769-15.076-40.165
			c-2.651-7.095-5.113-14.261-7.812-21.337c-2.015-5.281-4.328-10.448-6.408-15.706c-3.938-9.952-7.866-19.909-11.669-29.914
			c-1.277-3.36-2.093-6.895-3.252-10.304c-0.573-1.688-1.46-3.271-2.182-4.91c-0.385-0.878-0.924-1.75-1.046-2.671
			c-0.859-6.507-3.294-12.541-5.501-18.64c-3.191-8.822-6.441-17.624-9.693-26.425c-3.581-9.693-7.182-19.379-10.793-29.061
			c-3.653-9.796-7.344-19.576-10.991-29.374c-4.109-11.042-8.019-22.163-12.327-33.128c-4.615-11.748-9.56-23.368-14.427-35.016
			c-2.776-6.645-5.688-13.232-8.638-20.078c0.495-0.203,1.011-0.416,2.041-0.84c-1.008-1.019-1.866-1.907-2.747-2.775
			c-2.156-2.124-4.271-4.188-4.4-7.592c-0.035-0.911-1.169-2.288-2.061-2.545c-1.465-0.422-2.222-1.202-2.88-2.426
			c-4.673-8.691-9.439-17.332-14.062-26.049c-5.46-10.299-10.767-20.68-16.213-30.986c-3.813-7.219-7.62-14.447-11.661-21.54
			c-6.311-11.076-12.783-22.059-19.256-33.041c-3.729-6.326-7.241-12.82-11.476-18.795c-6.62-9.342-11.434-19.746-17.88-29.179
			c-6.643-9.72-12.959-19.661-19.458-29.479c-5.441-8.22-10.907-16.424-16.425-24.593c-4.911-7.271-9.912-14.483-14.865-21.727
			c-3.123-4.567-6.155-9.198-9.367-13.701c-4.19-5.874-8.543-11.632-12.775-17.476c-2.255-3.114-4.377-6.323-6.603-9.457
			c-8.152-11.478-16.595-22.725-25.949-33.271c-3.027-3.413-5.628-7.202-8.56-10.704c-3.318-3.962-6.787-7.797-10.197-11.683
			c-3.566-4.063-7.143-8.119-10.711-12.181c-3.969-4.519-7.907-9.064-11.904-13.558c-5.427-6.102-10.838-12.22-16.362-18.233
			c-8.023-8.732-15.933-17.584-24.291-25.987c-5.84-5.871-12.218-11.234-18.591-16.542c-9.146-7.616-18.496-14.987-27.787-22.428
			c-1.501-1.202-3.149-2.221-4.718-3.34c-1.55-1.105-2.674-2.461-3.79-4.097c-1.624-2.38-4.161-4.313-6.66-5.876
			c-3.34-2.089-7.047-3.585-10.54-5.441c-3.263-1.734-6.536-3.475-9.656-5.445c-5.491-3.467-10.823-7.183-16.31-10.655
			c-3.538-2.238-7.574-3.811-10.776-6.428c-4.701-3.844-10.082-6.503-15.127-9.723c-5.453-3.48-11.25-6.419-16.881-9.623
			c-4.898-2.788-9.703-5.747-14.673-8.398c-9.628-5.137-19.346-10.104-29.021-15.155c-7.779-4.061-15.523-8.187-23.334-12.186
			c-2.555-1.308-5.279-2.283-7.909-3.447c-6.913-3.059-13.778-6.229-20.739-9.174c-4.421-1.871-8.991-3.386-13.472-5.116
			c-5.596-2.161-11.171-4.377-17.141-6.722c-0.201-2.974-0.589-6.055-0.589-9.135c0.001-16.76,0.135-33.519,0.148-50.279
			c0.008-10.488-0.083-20.975-0.208-31.462c-0.026-2.154-0.291-4.321-0.637-6.451c-0.537-3.304-1.796-4.226-5.036-4.444
			c-3.94-0.265-7.863-0.929-11.803-1.031c-5.538-0.144-11.085,0.102-16.629,0.124c-7.697,0.03-15.395,0.033-23.092,0.003
			c-16.115-0.063-32.229-0.086-48.343-0.259c-12.044-0.129-24.087-0.471-36.13-0.708c-12.633-0.248-25.267-0.467-37.9-0.73
			c-10.204-0.213-20.408-0.439-30.609-0.726c-7.454-0.21-14.904-0.531-22.355-0.798c-3.839-0.138-7.678-0.264-11.516-0.402
			c-0.481-0.017-0.969-0.032-1.439-0.122c-3.009-0.572-3.007-0.579-6.042,1.288c0,4.443-0.127,9.196,0.028,13.94
			c0.288,8.769,0.833,17.528,1.099,26.297c0.23,7.585,0.225,15.178,0.32,22.768c0.243,19.368,0.458,38.738,0.734,58.106
			c0.195,13.707,0.623,27.412,0.667,41.12c0.038,11.648-0.384,23.297-0.481,34.947c-0.047,5.65,0.355,11.307,0.249,16.955
			c-0.207,10.943-0.692,21.881-0.935,32.824c-0.127,5.719,0.089,11.444,0.017,17.165c-0.104,8.301-0.336,16.601-0.501,24.901
			c-0.244,12.274-0.531,24.548-0.695,36.823c-0.104,7.79-0.033,15.583-0.017,23.373c0.019,9.194,0.13,18.389,0.076,27.583
			c-0.042,7.143-0.402,14.285-0.398,21.428c0.007,11.074,0.355,22.148,0.285,33.222c-0.104,16.349-0.413,32.697-0.703,49.044
			c-0.168,9.483-0.502,18.963-0.697,28.446c-0.121,5.852-0.155,11.707-0.163,17.56c-0.007,5.486,0.138,10.972,0.102,16.457
			c-0.107,16.218-0.336,32.435-0.384,48.652c-0.021,6.971,0.359,13.942,0.419,20.915c0.036,4.195-0.296,8.393-0.281,12.589
			c0.03,8.126,0.369,16.255,0.234,24.377c-0.099,6,0.017,12.176-1.372,17.934c-1.249,5.178-0.978,10.213-1.074,15.315
			c-0.057,2.979,0.523,5.971,0.795,8.959c0.109,1.193,0.272,2.396,0.222,3.587c-0.185,4.439-0.572,8.873-0.66,13.313
			c-0.3,15.153-0.149,30.325-0.849,45.46c-0.679,14.684-0.046,29.361-0.588,44.037c-0.407,11.033-0.496,22.077-0.766,33.115
			c-0.206,8.387-0.455,16.771-0.72,25.155c-0.235,7.443-0.522,14.886-0.782,22.328c-0.222,6.349-0.475,12.696-0.646,19.047
			c-0.195,7.198-0.381,14.398-0.438,21.6c-0.025,3.238,0.438,6.481,0.392,9.718c-0.105,7.458-0.435,14.912-0.578,22.369
			c-0.104,5.413,0.072,10.833-0.104,16.242c-0.376,11.544-0.837,23.086-1.384,34.623c-0.409,8.646-1.039,17.281-1.506,25.926
			c-0.311,5.748-0.557,11.502-0.747,17.256c-0.502,15.234-1.007,30.469-1.418,45.707c-0.32,11.893-0.092,23.815-0.847,35.679
			c-0.964,15.146-1.053,30.297-1.363,45.452c-0.128,6.25-0.41,12.5-0.732,18.743c-0.064,1.239-0.716,2.438-0.942,3.683
			c-0.151,0.836-0.029,1.721-0.029,2.784c-0.854,0.062-1.676,0.12-2.498,0.18c0-400.101,0-800.202,0-1200.365
			c336.873,0,673.745,0,1010.849,0C1347.572,1003.201,1347.572,1418.539,1347.572,1833.877z"/>
		<path fill-rule="evenodd" clip-rule="evenodd" fill="#FFFFFF" d="M336.724,1791.186c4.43,2.681,9.396,3.51,14.407,4.253
			c5.226,0.776,10.428,1.714,15.649,2.528c3.914,0.61,7.845,1.106,11.759,1.71c6.045,0.933,12.074,1.966,18.125,2.855
			c4.14,0.608,8.314,0.978,12.455,1.578c5.11,0.741,10.2,1.623,15.302,2.425c7.115,1.118,14.228,2.253,21.352,3.319
			c11.28,1.689,22.564,3.358,33.855,4.973c5.82,0.832,11.67,1.456,17.489,2.301c6.773,0.982,13.525,2.115,20.29,3.159
			c9.021,1.392,18.048,2.746,27.069,4.143c3.324,0.515,6.629,1.155,9.958,1.64c2.612,0.38,5.265,0.497,7.868,0.922
			c14.929,2.438,29.832,5.048,44.782,7.352c6.047,0.932,12.205,1.114,18.286,1.856c8.813,1.075,17.596,2.407,26.406,3.508
			c3.057,0.381,6.157,0.43,9.24,0.57c7.605,0.349,14.981,2.029,22.382,3.646c3.155,0.688,6.436,0.786,9.621,1.362
			c9.685,1.754,19.332,3.72,29.031,5.387c6.263,1.077,12.609,1.662,18.885,2.676c6.147,0.991,12.25,2.268,18.38,3.373
			c1.768,0.318,3.579,0.397,5.345,0.726c6.019,1.118,12.024,2.31,18.039,3.45c3.181,0.604,6.391,1.077,9.55,1.775
			c1.715,0.379,3.344,1.135,5.03,1.662c0.793,0.248,1.627,0.502,2.444,0.511c5.682,0.057,11.219,0.869,16.738,3.199
			c0.378-0.96,0.699-1.773,1.112-2.821c5.558,0,11.179-0.078,16.795,0.048c1.654,0.037,3.279,0.796,4.945,0.979
			c6.238,0.682,12.34,1.953,18.299,3.915c0.686,0.226,1.402,0.58,2.088,0.545c9.892-0.508,19.464,2.554,29.352,2.488
			c5.599-0.037,11.196,1.272,16.812,1.781c4.78,0.433,9.59,0.53,14.38,0.879c5.723,0.418,11.438,0.955,17.156,1.422
			c8.837,0.72,17.672,1.471,26.515,2.109c2.998,0.217,6.02,0.092,9.026,0.215c0.909,0.037,1.807,0.38,2.709,0.582
			c-212.976,0-425.95,0-638.926,0C336.724,1850.52,336.724,1820.853,336.724,1791.186z"/>
		<path fill-rule="evenodd" clip-rule="evenodd" fill="#FFFFFF" d="M1013.275,1880.187c2.699-0.295,5.393-0.674,8.1-0.869
			c9.205-0.662,18.415-1.275,27.624-1.879c9.229-0.604,18.47-1.05,27.687-1.794c8.482-0.685,16.929-1.824,25.413-2.469
			c4.657-0.354,9.36-0.108,14.042-0.116c8.536-0.016,17.073-0.084,25.608-0.011c13.78,0.116,27.56,0.479,41.339,0.442
			c7.434-0.021,14.864-0.689,22.299-1.007c9.345-0.399,18.699-0.619,28.037-1.139c8.259-0.46,16.502-1.223,24.751-1.856
			c6.105-0.469,12.231-0.756,18.309-1.465c8.807-1.028,17.69-1.139,26.462-2.741c5.16-0.942,10.521-0.795,15.791-1.135
			c4.078-0.263,8.174-0.376,12.232-0.816c4.888-0.529,9.276-2.282,12.839-5.881c1.054-1.063,2.499-1.737,3.765-2.59
			c0,8.441,0,16.884,0,25.325C1236.141,1880.187,1124.708,1880.187,1013.275,1880.187z"/>
		<path fill-rule="evenodd" clip-rule="evenodd" fill="#FFFFFF" d="M1347.572,1852.69c-0.842-0.443-1.683-0.887-2.899-1.528
			c0.916-2.261,1.907-4.708,2.899-7.155C1347.572,1846.901,1347.572,1849.796,1347.572,1852.69z"/>
	</g>
</g>
</svg>
